P3
64 64
255
97 83 83 89 59 64 91 66 68 88 71 71 105 77 77 83 65 65 69 63 64 98 73 78 83 63 64 78 41 41 64 39 44 66 52 58 90 76 76 84 64 65 67 63 65 88 66 71 92 68 68 60 54 59 76 66 69 69 59 60 63 52 58 94 79 81 87 68 72 99 84 85 88 80 83 63 52 53 78 69 77 76 60 61 76 52 56 93 82 85 79 74 76 75 72 76 87 79 83 60 51 67 78 66 77 79 65 69 84 82 93 106 103 106 104 97 97 83 80 81 83 78 85 99 97 99 84 68 82 64 54 68 97 95 99 28 28 47 85 85 90 99 94 96 97 77 91 68 68 78 71 69 86 79 65 72 71 64 74 58 56 65 55 49 65 74 66 78 46 46 51 87 84 91 35 35 44 80 70 89 71 71 81 90 77 85 56 56 72 47 44 57 47 26 30 59 47 51 89 75 76 63 34 34 94 82 83 84 82 82 101 86 86 88 68 73 96 79 79 85 65 70 86 65 66 62 53 55 97 75 75 91 90 91 81 69 69 92 77 80 75 60 67 80 71 72 79 62 62 70 63 64 84 69 76 89 78 78 76 65 65 62 52 56 89 79 81 77 66 73 83 65 75 69 65 66 61 52 63 66 63 66 104 101 101 70 56 62 79 76 87 60 56 65 75 62 63 81 74 80 68 62 72 51 38 51 73 66 78 63 56 57 78 76 82 88 81 88 70 69 75 76 70 74 91 86 95 52 47 57 61 61 72 58 53 66 69 68 74 88 81 90 28 21 35 70 66 66 56 49 62 77 67 73 75 75 81 85 77 87 72 71 81 63 51 65 78 65 77 74 70 75 69 67 69 73 70 76 51 49 72 21 13 21 92 71 73 75 58 58 97 86 87 89 80 80 117 105 105 79 67 67 54 31 31 110 86 89 90 71 71 79 69 70 83 70 70 80 65 66 92 82 84 90 75 76 116 111 112 95 77 77 80 71 72 62 59 66 75 62 68 101 87 87 65 50 55 84 78 87 82 76 81 76 59 59 77 76 78 117 111 115 62 54 56 86 79 79 100 87 91 101 82 85 53 38 38 91 81 81 114 103 104 96 87 93 82 74 78 98 92 98 83 82 84 77 60 63 97 89 97 73 57 61 92 80 82 78 59 67 102 100 106 95 95 101 96 87 87 66 63 74 101 101 101 79 72 73 94 83 95 88 85 94 100 96 107 71 66 71 85 84 88 54 45 50 77 76 82 69 63 76 69 67 71 52 29 38 80 75 81 71 67 73 66 53 64 44 43 60 42 42 80 42 39 63 102 65 65 74 49 49 94 81 86 100 95 97 99 81 81 76 55 55 77 67 68 71 32 36 93 83 84 45 39 40 85 67 70 75 57 57 46 46 48 101 89 89 73 57 64 95 76 76 103 81 81 61 55 55 90 75 76 98 82 83 76 58 69 74 66 69 81 73 75 99 82 87 78 70 70 86 75 75 86 72 76 98 88 93 102 101 108 96 89 89 83 72 81 110 102 102 65 56 65 118 112 115 103 82 87 109 92 93 71 65 65 113 104 106 115 106 107 78 73 73 59 59 64 77 56 60 112 112 114 79 76 76 119 113 117 100 94 101 76 68 73 108 99 103 73 69 81 84 65 76 110 101 109 112 103 107 93 89 95 90 85 92 57 48 64 58 55 67 106 101 111 68 67 67 56 54 72 85 76 88 73 58 72 58 52 68 35 22 49 43 38 71 47 28 28 78 71 72 83 70 74 72 54 55 87 73 73 103 87 87 121 104 104 111 102 102 72 66 66 68 54 58 70 55 55 85 66 66 70 62 62 90 85 86 89 75 76 91 71 75 83 80 81 99 84 86 92 79 79 90 80 86 128 109 110 105 94 94 110 94 97 107 89 90 74 66 71 51 38 46 110 98 106 90 82 88 94 82 88 125 112 115 102 92 94 107 100 103 96 91 92 70 60 64 78 57 61 92 87 90 98 93 95 91 88 95 63 52 77 90 88 91 113 110 113 77 67 79 63 48 57 116 110 118 92 82 94 80 76 84 79 73 78 92 92 94 89 87 101 113 107 113 90 80 101 106 104 116 83 68 81 68 64 82 73 73 77 53 48 64 80 79 85 83 75 86 103 93 95 108 104 112 84 67 72 63 60 77 42 37 67 43 38 73 55 47 48 99 86 86 77 64 64 92 80 81 62 55 65 75 68 74 77 67 67 105 89 91 64 52 53 88 65 66 63 44 49 115 105 108 93 85 85 105 88 88 72 68 68 108 100 100 113 100 101 94 81 81 95 91 92 98 86 86 78 60 62 91 82 91 80 67 70 97 90 92 72 61 72 91 85 88 119 106 108 107 95 99 65 63 66 87 82 88 101 93 94 92 84 85 83 73 75 97 89 95 86 71 76 97 94 103 94 93 99 56 50 55 58 58 66 77 57 60 88 84 90 111 110 114 59 59 68 68 67 68 108 103 115 81 73 77 75 75 85 120 110 120 114 108 116 103 93 94 78 74 80 79 76 84 92 91 105 55 35 43 44 39 47 81 76 80 91 86 86 86 84 90 94 91 95 39 34 62 44 35 55 65 65 76 41 37 66 47 36 65 91 68 68 101 87 88 97 79 81 93 68 69 101 88 93 99 81 87 107 91 95 101 95 95 72 52 59 95 92 93 83 80 85 81 68 71 119 103 103 110 105 107 92 75 81 82 60 65 126 111 112 100 91 92 93 87 95 118 112 112 68 48 49 91 88 89 72 59 60 91 82 83 86 83 86 105 92 92 120 105 107 75 55 59 85 77 77 73 66 70 120 117 119 64 55 56 108 93 94 111 103 105 73 62 67 115 115 115 93 88 90 81 81 87 73 67 75 99 93 99 61 59 72 113 110 117 89 82 95 94 82 93 88 79 82 101 99 105 70 67 69 73 69 70 81 73 83 103 100 105 75 75 86 97 85 94 70 63 72 87 80 87 59 56 67 97 96 99 64 62 67 64 63 64 83 81 82 58 56 59 94 94 104 42 39 69 43 26 53 47 40 76 71 43 47 102 84 86 100 68 73 84 76 79 114 99 106 122 108 108 90 73 73 116 106 107 89 76 78 126 118 118 93 88 88 61 56 58 116 106 106 81 72 72 99 90 90 74 61 64 92 88 88 101 96 100 102 92 97 114 105 105 101 96 99 58 58 62 92 81 85 69 63 63 78 64 68 82 70 72 81 66 67 111 111 114 106 98 102 88 71 71 85 75 75 77 66 69 95 86 93 90 87 90 108 103 103 126 124 125 122 121 128 86 86 91 92 81 87 111 106 109 70 70 72 104 102 105 66 66 71 74 68 75 85 85 93 68 62 72 90 77 94 93 87 93 106 96 105 51 43 56 128 121 124 100 92 99 69 67 79 64 60 70 89 78 88 68 64 72 74 74 82 92 90 96 75 70 74 104 104 114 70 66 76 45 39 50 50 41 79 62 51 84 93 50 52 96 60 61 106 83 85 90 79 80 109 97 100 102 95 95 109 94 95 101 79 83 104 96 99 112 88 88 104 95 95 113 103 104 105 101 101 107 98 98 113 102 105 112 95 96 110 93 96 121 116 116 97 92 92 129 121 122 96 87 87 119 116 116 105 96 96 82 66 67 89 83 84 79 62 67 113 106 106 77 70 70 112 105 109 94 85 94 115 111 111 108 101 105 120 114 115 77 77 77 78 74 84 75 67 70 62 51 56 114 113 118 123 118 122 103 102 108 85 80 85 63 53 57 98 96 100 76 73 79 84 81 85 110 106 112 81 80 83 103 103 112 74 61 65 120 115 121 81 78 84 85 80 89 108 101 101 93 88 94 74 74 92 75 62 67 85 82 87 99 90 107 84 79 81 70 67 83 80 76 89 78 71 94 45 26 52 49 40 75 97 75 77 111 101 103 117 116 117 84 78 79 116 101 103 49 23 26 84 58 59 112 88 90 94 84 88 104 86 88 95 78 80 86 70 70 117 101 103 108 87 96 106 100 101 121 108 110 104 92 95 108 104 105 127 115 116 98 98 100 99 88 88 65 43 61 115 92 92 74 65 65 95 71 71 96 81 86 100 73 75 125 120 120 97 89 90 133 122 122 112 104 105 105 99 99 116 112 114 130 122 123 112 107 111 91 91 94 118 113 116 90 86 104 85 78 83 108 106 113 115 113 116 94 93 99 113 113 115 68 67 75 90 86 90 88 86 95 81 81 84 93 89 100 103 92 98 83 83 91 110 106 113 99 85 93 101 97 101 74 68 74 86 84 91 77 73 86 95 84 88 86 81 100 90 89 96 83 80 94 73 71 79 51 47 59 45 35 58 56 51 87 63 44 45 105 84 86 112 88 88 99 77 77 85 76 76 93 69 69 133 120 120 89 77 77 87 74 74 93 63 65 139 130 132 120 103 108 85 71 72 96 95 96 113 100 100 106 81 83 111 92 92 104 87 90 108 102 102 115 98 100 104 97 98 99 83 83 106 93 96 119 107 110 119 104 106 129 127 128 90 70 71 123 119 119 140 122 122 103 93 95 124 118 118 130 125 127 162 158 163 135 133 134 82 74 81 126 126 128 160 156 156 124 124 126 118 114 120 100 96 103 96 96 98 93 89 93 111 108 110 104 102 108 88 86 87 106 105 107 93 87 89 131 127 134 67 66 72 127 119 121 98 89 95 70 61 73 72 64 73 81 77 83 109 107 112 65 65 80 84 77 77 66 56 74 44 44 58 72 65 79 49 43 45 70 66 68 31 30 63 51 50 87 96 70 75 87 74 79 79 72 72 74 64 64 125 112 113 113 107 109 116 106 106 78 74 74 112 92 92 108 80 81 101 78 78 123 109 112 121 106 110 123 108 108 142 131 132 115 103 103 117 106 107 104 85 86 86 60 61 78 46 48 86 78 78 116 102 103 130 114 118 106 93 98 124 110 111 85 76 78 126 119 119 146 137 137 120 110 112 106 95 104 98 89 89 98 91 95 98 88 98 89 82 90 119 109 109 126 124 126 137 134 137 107 106 113 123 120 122 80 78 85 80 80 87 106 104 115 120 117 122 99 97 103 92 88 90 119 118 124 126 116 118 97 89 99 100 100 111 90 81 95 90 86 94 88 79 90 106 104 115 70 64 75 79 71 79 118 106 123 103 97 104 77 73 84 97 89 94 76 72 90 73 62 66 78 69 90 70 65 109 55 44 78 110 67 68 119 104 109 119 104 105 98 96 96 121 105 105 70 65 65 117 107 110 88 74 75 81 57 61 110 87 89 77 60 60 76 66 70 104 93 93 131 121 122 97 89 89 105 100 102 113 94 94 92 67 68 88 58 61 96 90 92 132 118 118 117 111 111 94 81 83 118 106 109 106 94 94 166 156 156 124 111 112 92 83 88 84 79 81 94 90 90 116 99 100 131 123 127 125 120 124 86 72 75 112 112 117 119 118 121 140 140 145 115 114 117 137 133 137 150 149 151 121 120 126 87 84 92 82 81 91 103 101 109 82 77 83 109 106 113 95 92 106 68 61 65 102 97 98 102 102 108 101 99 102 70 61 79 74 70 80 65 54 60 79 73 82 88 80 84 68 60 61 90 89 93 82 77 88 91 83 94 79 72 84 45 43 45 50 41 72 56 42 75 92 65 71 74 64 64 122 108 108 93 74 74 86 74 78 63 47 47 101 73 73 102 88 92 109 94 94 104 96 99 80 56 56 64 58 58 109 106 109 91 69 70 132 121 122 101 97 98 93 67 67 101 78 79 80 54 54 82 69 70 112 94 96 111 92 94 129 112 114 124 115 115 153 140 143 121 110 114 127 116 120 105 85 85 103 75 76 148 138 141 124 112 112 115 107 110 90 87 88 110 109 116 107 102 105 80 77 77 109 103 108 109 109 111 134 134 143 132 132 135 122 121 125 90 86 90 111 109 109 91 90 96 61 59 70 124 123 130 94 91 95 73 66 67 63 52 59 82 77 82 84 78 81 98 95 101 82 81 88 62 55 72 86 77 91 97 96 108 58 58 65 88 83 94 63 62 76 83 82 91 80 70 80 49 47 50 37 37 74 51 49 83 103 78 80 71 65 65 95 65 69 99 84 87 97 91 96 110 96 98 122 107 112 97 88 89 91 77 77 89 76 76 63 50 52 100 79 80 109 100 103 117 110 112 112 95 95 103 90 93 79 52 52 103 88 92 121 111 111 109 106 109 101 94 95 108 97 100 141 127 127 144 135 136 95 89 91 129 122 124 71 50 50 90 51 57 126 117 121 125 114 117 133 124 124 127 120 121 123 120 127 116 113 113 135 122 122 116 112 115 89 88 89 112 110 120 116 115 123 142 141 147 130 129 139 135 132 139 110 110 115 94 93 98 98 98 108 99 98 100 76 71 79 114 110 116 93 87 89 97 92 95 94 93 103 115 107 113 102 97 103 102 100 107 105 96 104 72 70 84 73 72 90 76 68 83 74 59 71 91 87 98 98 82 93 99 95 105 44 37 67 45 29 51 81 55 58 109 87 87 105 93 93 117 107 107 94 81 83 92 88 89 85 76 76 124 121 122 150 133 133 109 99 99 129 100 103 91 58 59 120 107 107 124 106 106 118 101 101 82 69 76 106 85 86 77 53 55 113 95 97 101 80 82 98 78 79 122 111 114 151 140 142 147 134 134 141 130 133 100 84 85 106 80 82 86 66 66 115 93 94 148 136 137 131 127 128 107 97 102 66 63 63 117 117 119 117 103 110 106 104 109 86 85 89 91 86 98 131 128 137 111 107 119 132 131 135 148 145 151 105 103 115 72 72 87 74 73 82 54 52 58 113 111 118 94 88 94 90 84 88 98 95 100 100 99 106 97 90 101 104 102 106 116 113 119 94 91 100 72 64 68 103 101 110 56 53 67 60 54 70 106 99 100 73 55 61 64 64 68 53 53 101 59 56 97 115 88 88 99 89 91 89 73 78 111 84 90 131 112 112 107 90 93 68 50 52 103 94 96 151 137 137 119 100 100 93 79 80 80 60 60 107 100 100 124 119 119 135 125 126 74 58 69 62 33 33 106 83 84 107 87 88 100 75 76 127 125 127 111 95 97 134 125 128 121 109 110 115 106 109 79 53 53 116 85 86 105 78 78 127 119 121 119 113 114 99 87 90 67 54 59 91 87 104 113 108 113 119 111 115 102 99 102 86 84 88 114 112 118 122 119 129 92 88 96 81 78 84 139 137 145 144 142 149 108 107 117 69 67 76 80 72 80 96 87 97 75 72 85 96 92 94 72 72 84 58 57 69 69 67 79 97 97 100 74 70 83 76 68 74 69 67 71 79 73 88 21 15 32 90 90 96 52 48 52 76 75 87 109 107 121 44 35 63 30 26 47 89 61 63 104 88 89 106 92 97 84 72 78 139 132 133 137 117 121 129 118 120 107 96 96 128 108 110 106 100 105 111 99 99 82 75 76 78 43 45 123 112 112 115 96 96 84 51 52 88 66 68 112 90 91 100 91 93 94 81 81 131 121 124 94 91 91 148 143 143 127 124 126 142 130 130 83 66 66 87 70 71 119 107 107 145 135 138 130 113 113 118 107 113 106 98 99 107 104 104 112 109 110 120 114 116 133 128 137 101 96 102 110 108 112 135 135 146 89 87 94 118 116 128 124 122 125 141 140 142 127 122 133 97 97 100 116 114 120 95 93 105 120 112 118 92 92 99 126 120 127 121 115 121 85 77 81 94 93 100 76 68 79 71 67 74 38 20 31 57 55 64 73 72 79 66 55 61 89 87 96 99 89 93 94 94 103 53 40 67 61 50 92 110 71 72 82 61 66 123 107 107 91 78 78 115 106 109 123 98 99 92 80 85 97 64 64 107 96 101 115 112 112 142 129 130 107 99 100 67 61 61 98 70 70 95 80 84 104 89 89 100 79 80 70 55 55 110 105 106 122 97 97 102 90 91 144 130 130 148 141 142 155 145 145 125 117 118 119 114 114 95 92 94 114 94 94 113 109 109 147 143 143 126 123 123 101 94 100 101 100 107 128 127 130 132 130 132 129 125 131 124 121 127 145 143 152 120 117 121 113 112 117 120 119 127 100 97 106 103 103 111 145 143 151 119 119 126 87 86 98 90 89 96 96 90 95 79 79 98 94 89 95 101 96 107 48 48 58 84 76 89 94 88 91 78 77 80 70 66 73 72 71 75 97 97 101 74 74 78 58 49 64 98 96 101 62 58 79 49 41 68 38 37 75 114 64 65 85 77 78 91 65 65 103 91 91 102 100 104 117 106 107 102 90 90 119 112 115 141 116 118 114 101 103 90 79 79 138 112 113 77 61 61 73 52 52 101 82 85 95 69 73 81 56 61 111 91 91 103 90 90 114 89 90 103 90 92 117 107 110 110 99 99 144 136 136 154 136 136 62 51 53 112 99 101 58 29 32 106 97 97 76 75 80 132 125 126 147 140 140 132 130 132 139 129 139 100 91 95 88 85 96 130 128 137 101 97 108 106 105 117 106 105 112 135 134 138 120 120 125 133 130 136 127 125 130 124 124 127 101 101 106 107 105 112 98 96 102 69 64 73 103 103 106 70 62 79 112 101 107 107 104 110 80 68 75 100 97 117 86 72 88 85 75 79 84 81 99 122 122 127 85 74 82 37 35 63 62 60 68 53 36 66 52 49 91 91 81 81 132 120 123 102 91 91 126 109 109 96 77 79 135 126 127 94 81 83 112 90 91 112 103 106 114 98 98 111 91 92 129 109 111 126 116 116 74 47 47 60 31 32 87 59 59 84 47 49 117 91 92 123 106 106 126 115 115 143 121 122 121 114 114 162 155 155 114 112 114 160 156 156 120 117 117 72 68 69 75 54 55 90 77 80 149 136 136 85 61 69 143 141 146 128 121 127 119 114 115 117 113 116 102 98 106 105 104 107 115 113 118 131 131 135 108 105 108 110 105 107 115 114 117 137 137 143 107 105 116 134 132 136 131 129 139 113 109 111 95 93 104 114 110 118 90 89 94 124 119 126 110 103 111 105 105 109 73 58 68 82 70 83 104 91 105 86 80 87 78 70 77 61 60 68 72 70 76 99 96 102 72 72 80 42 38 69 39 35 64 115 100 101 117 97 98 144 140 140 120 109 109 101 90 91 89 84 84 106 89 90 99 89 89 138 118 118 76 43 43 72 70 73 109 100 103 95 74 75 92 69 70 92 61 63 103 61 62 75 52 52 106 78 81 61 49 49 108 93 94 127 110 111 106 95 95 126 117 117 145 135 136 133 122 123 143 133 134 106 90 90 122 101 101 90 76 79 97 89 93 115 111 112 142 134 134 143 128 133 122 114 115 142 142 147 132 132 135 121 120 129 130 129 130 147 146 148 106 104 107 119 119 127 116 114 124 150 149 154 121 120 128 128 127 136 130 128 140 79 75 83 98 94 109 76 69 86 89 87 92 107 100 111 97 95 100 118 109 118 80 77 80 82 76 90 102 91 99 96 93 99 71 65 75 68 67 75 109 100 104 105 100 101 69 69 81 36 35 63 49 43 73 103 65 66 110 92 92 129 112 112 118 100 108 102 95 98 87 68 72 110 98 98 112 93 93 112 99 100 95 90 90 113 101 102 104 86 86 110 87 88 95 82 82 95 59 60 71 53 56 75 47 47 102 58 59 114 94 95 118 98 102 129 106 110 111 86 88 134 113 114 152 145 146 151 148 149 152 141 143 142 133 133 144 138 138 117 115 115 132 118 118 144 141 144 91 79 82 128 116 124 118 110 114 98 95 98 72 65 74 112 111 121 105 99 104 111 108 112 125 123 127 109 108 114 127 123 134 115 115 123 116 115 125 139 137 140 117 114 123 124 123 128 83 79 81 97 97 101 114 112 120 98 94 106 110 105 107 95 93 96 87 80 88 91 89 100 87 80 88 102 99 107 66 42 48 122 112 123 77 73 82 80 72 89 70 68 80 42 41 81 61 61 105 97 60 66 120 99 99 112 110 110 113 98 98 102 97 98 99 94 100 92 79 80 118 98 99 103 68 68 98 87 87 120 97 102 90 82 82 88 83 87 123 108 109 71 52 53 95 57 58 80 65 68 107 78 80 72 56 56 108 87 92 103 90 91 114 101 102 106 104 104 131 126 129 155 144 146 144 132 133 121 111 111 149 140 142 155 140 142 104 95 95 112 105 108 143 138 138 128 118 120 135 130 133 125 124 128 114 111 121 104 104 106 114 113 120 122 115 125 106 102 115 126 125 134 123 123 123 104 103 104 113 111 115 91 90 100 79 79 86 74 72 83 88 84 89 127 125 131 99 92 106 67 62 71 122 118 122 111 105 109 95 95 107 115 109 122 66 65 79 91 85 90 78 72 86 97 93 93 61 61 65 93 89 97 51 50 63 46 38 67 61 55 94 97 62 63 105 98 98 102 86 86 129 118 121 79 54 56 81 75 76 96 86 88 122 115 116 121 105 106 104 92 92 111 99 99 91 77 78 110 98 102 103 90 92 77 46 52 70 43 43 95 79 80 79 48 54 121 98 101 132 120 122 103 95 96 115 103 104 128 114 115 140 123 123 142 135 136 163 154 155 136 123 126 149 145 146 165 155 160 101 99 100 127 120 121 125 110 110 104 102 107 94 92 100 158 149 150 113 109 114 102 100 107 87 84 101 129 126 130 93 92 93 149 144 152 131 128 130 118 115 120 109 109 115 72 66 67 63 60 65 82 79 85 99 95 99 99 95 104 55 49 50 80 68 78 109 105 110 70 58 61 68 65 76 96 92 102 71 59 72 86 80 87 103 99 108 78 76 88 99 96 104 69 63 74 71 56 72 42 40 68 34 34 60 106 89 90 105 78 79 106 88 91 95 88 88 93 82 82 124 122 122 128 112 113 117 96 97 99 86 86 99 79 82 104 88 92 92 83 83 112 101 101 106 76 76 84 55 58 78 69 72 74 43 43 77 58 58 95 74 75 85 61 62 94 82 84 90 72 74 89 71 73 113 105 106 136 126 127 119 106 107 139 135 135 161 155 155 120 108 108 122 115 115 117 107 110 137 132 134 97 89 89 122 110 111 113 112 120 116 115 116 113 112 120 145 142 146 116 109 116 134 133 143 100 99 103 135 132 139 81 78 90 99 98 114 98 97 111 60 60 76 88 86 95 91 90 101 89 88 91 111 110 116 89 83 97 119 114 119 105 103 107 93 90 97 45 43 50 94 93 101 57 53 53 88 83 89 80 73 90 83 75 79 88 76 85 99 99 99 43 40 70 48 44 74 113 75 77 101 96 101 74 63 63 116 87 87 113 103 103 99 92 94 90 79 80 118 100 100 139 126 128 115 104 107 75 63 63 105 94 95 121 110 111 83 61 61 121 105 105 72 41 43 74 36 41 99 67 68 94 74 75 96 75 75 104 101 103 115 97 101 103 85 85 113 101 101 92 87 91 156 147 149 115 99 99 141 137 138 120 109 109 97 93 100 127 119 126 135 128 132 107 106 106 134 124 126 136 136 136 139 137 143 137 137 143 139 137 144 109 106 117 99 98 102 103 98 106 87 87 93 67 65 73 63 54 68 112 111 119 97 92 99 94 93 97 90 90 100 107 106 121 64 64 75 123 123 127 108 104 114 104 104 117 110 105 107 105 98 111 67 57 59 119 111 121 67 65 79 64 64 76 69 57 75 95 85 100 66 64 77 33 21 48 47 45 77 97 67 67 118 101 101 105 95 96 111 90 90 96 88 90 100 97 99 119 110 110 97 79 79 116 100 101 126 113 115 125 108 108 92 78 79 127 119 120 141 130 131 77 56 56 92 75 81 57 40 40 73 46 52 63 35 41 97 84 84 85 47 47 103 89 89 91 62 63 109 98 98 92 89 90 130 118 120 139 126 126 97 90 93 89 79 82 117 115 121 125 118 118 132 130 133 112 108 116 93 85 94 132 127 128 144 139 143 134 134 136 114 111 116 129 129 131 130 127 137 111 111 113 132 130 135 105 103 115 127 125 136 116 115 122 91 86 97 75 75 82 113 111 117 122 118 121 104 101 106 116 110 124 53 47 65 111 102 110 85 77 82 63 63 70 91 91 93 103 98 114 73 56 61 117 108 115 73 56 63 79 75 85 66 54 60 51 47 81 50 41 69 84 58 58 115 106 106 126 112 112 111 107 108 125 109 109 124 109 109 94 64 64 106 99 104 126 120 120 95 89 94 94 89 92 112 88 90 98 81 81 92 81 82 89 80 80 106 89 89 40 20 36 105 88 88 82 72 72 115 98 100 105 76 76 121 105 106 94 71 74 86 75 76 102 77 81 131 118 118 94 80 80 125 105 105 129 119 119 112 97 99 111 108 110 165 164 164 133 130 136 114 110 112 125 122 125 165 165 168 145 143 150 146 143 149 123 118 121 123 121 125 122 119 124 137 136 139 84 83 86 65 57 69 119 119 123 74 74 77 84 82 92 114 113 114 81 78 81 76 68 75 89 86 87 101 100 102 97 87 92 76 74 90 59 52 64 93 91 95 90 85 97 91 87 101 107 105 113 73 68 77 40 40 52 83 83 98 56 44 80 56 50 93 114 74 74 93 84 88 145 136 138 126 104 107 117 100 100 95 77 81 104 96 96 96 88 88 104 93 95 83 70 74 116 109 112 94 91 91 86 70 71 93 87 89 120 108 112 94 91 93 85 60 61 85 59 59 104 74 75 97 73 75 99 77 77 117 100 101 95 85 87 87 56 58 80 66 68 81 79 82 107 93 95 119 96 98 85 77 85 124 117 121 136 124 127 109 102 107 125 123 125 147 138 138 112 105 111 155 151 152 116 112 115 100 100 103 129 126 133 122 120 130 120 115 124 112 109 117 113 111 113 69 68 78 85 84 89 95 95 103 70 67 70 129 124 127 85 85 97 100 98 100 111 101 117 109 109 109 77 75 88 76 76 81 90 85 98 97 92 96 114 109 124 60 54 57 96 95 104 88 73 80 116 110 117 54 51 75 59 56 95 42 33 61 106 86 87 111 95 96 100 86 86 107 87 90 98 84 84 88 86 86 120 111 119 117 106 106 96 79 80 83 72 77 97 79 83 118 111 111 107 92 93 72 62 68 96 70 79 115 99 99 103 74 75 73 53 56 68 46 50 47 37 42 78 61 68 50 41 42 102 79 79 63 63 63 97 83 84 106 93 95 115 94 96 122 116 117 82 75 76 113 102 102 51 51 63 123 113 113 136 130 131 110 94 99 95 94 99 73 67 82 104 92 99 96 96 99 95 88 97 118 115 124 88 86 100 83 78 79 109 109 115 97 95 106 105 103 104 120 118 123 92 89 95 67 65 78 89 84 84 98 96 103 106 103 109 95 88 95 90 89 95 95 91 100 63 62 67 94 93 97 89 87 91 100 93 104 94 87 95 86 85 102 78 76 82 76 69 77 45 43 77 38 38 71 114 88 90 93 67 69 130 118 118 141 118 119 73 66 71 96 87 87 129 113 116 108 97 98 100 74 82 122 112 112 97 89 89 75 65 66 94 78 83 97 75 75 120 114 114 100 82 82 92 58 61 95 80 81 72 64 64 77 62 62 65 51 53 74 66 67 92 71 71 98 85 89 107 85 85 106 82 83 122 109 111 123 99 99 102 90 92 158 148 150 116 112 112 111 101 104 110 97 99 104 98 100 111 109 111 118 114 115 120 120 123 103 103 111 75 74 84 100 97 100 120 118 121 89 86 98 127 127 134 101 97 104 65 62 73 106 106 111 74 73 74 94 84 89 127 123 125 98 93 95 130 120 129 90 87 99 110 110 114 110 110 118 115 109 117 70 67 85 71 70 86 97 89 96 82 70 87 72 64 71 84 76 79 52 45 50 43 39 68 55 49 90 112 105 105 135 116 120 122 111 111 109 100 100 97 88 88 101 89 91 75 50 57 78 58 59 121 104 104 95 75 75 107 97 100 116 103 107 91 85 86 92 87 90 130 124 124 98 86 92 128 119 119 126 105 105 84 68 71 105 88 88 99 83 84 66 57 58 89 66 69 88 65 65 101 91 91 100 94 95 121 114 116 138 126 126 147 138 139 140 133 133 150 138 138 131 124 125 97 95 97 110 100 103 101 94 95 138 131 131 107 105 110 111 108 117 124 112 121 93 92 92 112 111 114 101 99 106 67 67 75 97 96 112 83 83 86 125 124 129 84 79 86 118 112 114 104 102 105 104 96 101 98 96 97 94 86 100 131 131 136 101 99 110 84 77 99 103 102 107 65 63 72 88 82 87 96 86 102 111 108 111 57 40 40 92 77 87 53 49 87 53 50 89 128 100 101 109 84 85 136 128 129 104 91 91 107 93 98 93 78 80 97 81 84 108 94 98 94 84 84 110 86 87 103 88 90 114 95 96 119 107 107 122 105 107 97 88 89 113 101 101 106 91 92 107 92 95 90 73 73 133 122 122 93 85 87 86 65 67 67 48 51 86 73 74 99 79 79 109 99 101 89 72 75 162 154 155 136 127 130 113 103 104 114 99 101 133 122 123 112 105 107 146 135 136 108 93 93 117 110 112 86 80 85 83 80 91 107 104 113 110 107 115 111 106 116 128 121 127 123 119 127 121 116 126 80 79 91 114 109 115 113 111 116 121 117 118 136 131 134 116 115 122 104 89 103 92 89 90 107 105 111 93 90 96 84 76 91 73 67 76 52 51 67 108 100 108 70 70 92 50 45 55 69 69 75 68 66 84 61 54 98 56 47 84 80 54 54 97 89 92 126 108 108 93 80 81 89 85 86 103 99 101 87 73 74 91 80 81 122 110 110 100 75 75 99 84 85 83 68 69 122 113 118 113 107 109 128 118 118 88 78 78 137 126 126 84 70 78 79 62 62 110 96 97 109 93 93 90 64 64 99 69 69 83 68 68 103 96 97 96 86 87 147 135 137 149 129 129 148 133 133 149 142 142 146 142 144 91 85 88 115 114 115 115 107 110 149 136 137 93 78 79 131 128 129 135 131 139 94 88 97 110 109 111 100 98 104 112 111 114 101 97 105 103 103 116 99 97 106 127 124 132 118 115 125 113 111 113 123 120 127 123 122 126 96 94 100 112 111 120 121 121 133 73 70 83 103 102 114 109 109 116 97 89 108 96 93 100 95 92 106 106 104 111 100 97 107 102 97 112 46 46 77 66 63 113 99 56 61 107 97 97 78 56 56 115 98 99 110 105 105 131 124 124 114 101 103 108 95 96 139 122 131 130 115 115 132 120 124 96 83 92 76 68 74 124 107 108 134 119 120 91 79 80 129 121 122 95 77 77 130 119 121 127 111 112 89 82 83 92 68 72 100 79 82 103 74 78 88 79 80 73 64 65 131 125 126 117 97 97 136 132 132 139 133 133 123 120 120 136 129 131 150 135 137 164 157 157 117 113 116 103 97 102 84 80 81 85 79 90 86 80 81 85 85 88 121 116 126 143 142 150 130 126 133 101 98 102 113 112 116 100 99 108 110 105 107 132 131 138 155 153 159 99 88 97 111 108 112 112 111 117 107 106 106 95 88 100 57 52 66 99 92 104 89 84 94 114 108 117 34 23 38 86 85 92 73 54 60 75 54 83 40 28 61 54 42 78 113 93 93 110 94 94 161 135 136 103 66 69 132 122 122 107 79 82 108 94 94 104 88 89 106 90 90 81 66 66 127 120 121 86 81 81 134 125 125 111 100 101 120 109 110 123 103 105 125 114 116 120 110 111 113 99 104 113 101 102 69 41 45 80 57 57 95 69 69 87 50 55 86 86 86 93 79 82 111 91 91 55 46 48 129 120 120 149 138 141 150 141 143 117 104 105 119 113 116 106 88 93 98 88 88 126 119 123 79 73 77 82 82 87 84 78 89 66 65 70 136 130 136 104 98 103 138 133 138 107 106 113 135 133 139 108 107 114 101 100 101 113 105 113 134 128 130 105 105 110 96 96 105 82 73 95 71 71 73 60 51 70 85 82 91 110 105 105 83 75 89 85 78 86 89 83 90 67 61 71 90 74 88 93 84 102 40 31 59 33 30 50 108 77 81 109 90 94 86 70 76 119 95 95 120 109 109 124 107 107 111 100 100 98 79 82 97 81 81 86 71 73 117 100 100 136 122 124 122 107 109 79 52 56 130 114 115 80 75 75 108 95 97 116 102 102 128 120 120 71 51 52 82 71 72 95 71 71 104 76 77 80 45 47 94 75 76 109 105 105 88 77 79 104 93 93 109 100 102 111 97 99 118 117 119 105 94 97 135 127 128 121 110 113 93 89 93 103 98 103 100 95 96 105 95 102 91 82 88 93 84 90 114 112 115 109 105 116 160 159 163 110 108 116 128 125 131 109 105 109 128 128 130 106 106 106 126 125 132 107 101 108 94 93 97 50 49 63 96 90 91 75 69 82 78 74 88 54 54 68 106 103 110 95 89 104 85 83 90 79 75 80 74 61 85 99 94 113 46 43 80 49 39 67 111 86 87 101 95 95 91 60 63 121 102 102 106 96 98 109 101 105 103 89 89 116 100 105 96 85 86 122 107 109 77 66 70 83 65 65 80 68 68 111 105 105 113 95 97 106 97 100 94 79 81 102 95 95 143 136 138 128 109 111 102 75 76 116 94 95 87 62 65 124 94 95 91 64 64 97 79 83 119 89 90 105 92 93 111 91 94 106 89 89 134 132 132 127 113 115 139 131 133 121 116 117 94 85 85 125 116 121 107 107 107 107 94 102 106 104 105 95 90 92 137 136 140 109 107 118 129 129 134 119 116 129 112 112 120 102 99 100 103 103 108 141 141 143 139 139 144 121 120 123 72 66 78 117 116 127 98 98 103 117 110 119 83 78 90 100 95 101 79 79 94 90 79 95 66 55 63 25 22 39 71 62 73 62 54 65 46 41 77 41 37 67 102 90 91 106 94 95 93 81 81 136 126 128 133 123 123 115 111 111 154 145 146 135 120 120 133 120 123 101 92 92 104 94 94 96 70 71 117 113 113 106 93 93 103 92 96 107 76 77 114 99 99 102 73 74 126 108 108 91 81 82 78 64 64 119 106 106 83 61 61 92 68 68 65 61 61 91 80 81 88 77 78 106 94 94 104 83 84 126 111 111 117 112 112 122 114 114 133 114 115 145 130 130 129 120 124 102 91 91 124 122 124 66 54 65 112 103 108 103 102 107 93 91 95 122 121 132 135 134 139 93 90 97 114 109 113 87 84 93 83 80 89 142 141 143 93 84 99 81 79 83 93 88 101 96 88 108 120 119 124 90 89 101 87 87 96 105 98 103 72 62 74 122 110 119 84 76 94 80 78 88 90 80 94 44 42 58 58 51 87 53 51 88 78 63 65 118 102 103 115 102 102 127 111 113 105 78 80 105 92 93 99 86 91 140 134 135 77 70 72 68 65 72 106 94 95 89 79 84 121 110 114 120 104 105 118 108 113 117 111 113 106 104 105 140 126 131 120 105 106 115 91 96 124 105 108 111 103 103 97 70 70 61 43 48 84 68 70 98 75 76 115 111 111 97 87 88 105 90 90 62 55 56 138 129 129 117 113 113 122 111 114 121 111 112 93 86 92 75 71 74 118 113 118 105 102 113 114 110 111 91 89 98 143 140 145 95 93 94 107 103 107 117 115 127 124 123 137 139 137 142 129 128 130 126 125 127 93 93 103 108 106 115 84 84 90 97 95 100 85 80 88 101 96 98 75 75 81 111 104 114 92 86 90 48 47 51 115 112 119 68 57 67 47 35 57 78 77 89 42 39 70 33 31 55 45 27 27 81 53 54 89 72 76 129 118 119 103 98 98 142 128 130 102 96 96 120 106 108 118 104 105 95 73 74 102 97 101 125 109 109 136 117 122 139 125 125 88 71 79 108 101 101 102 84 87 94 83 84 78 65 70 109 95 97 106 90 91 126 107 109 116 95 95 90 77 78 119 110 111 124 112 113 96 84 90 116 103 103 114 108 108 127 113 114 117 104 106 121 109 110 124 118 119 127 114 115 110 103 105 129 122 125 139 136 138 122 115 126 86 80 83 112 106 113 71 66 81 113 111 119 128 127 133 140 139 141 115 114 119 140 138 146 107 105 115 129 129 130 107 106 112 72 71 78 81 79 90 99 98 110 73 67 84 101 100 114 91 86 89 104 104 118 94 92 98 107 107 121 85 76 83 74 67 87 66 54 69 79 76 84 19 19 34 32 31 58 79 59 59 135 119 120 81 56 57 115 94 95 115 94 101 125 115 117 110 100 100 112 104 104 98 76 79 110 99 99 118 99 99 132 118 119 118 110 110 108 98 99 101 90 91 107 87 88 95 88 88 120 112 112 122 99 99 131 114 114 103 82 83 97 84 84 94 68 68 87 62 63 127 111 113 128 116 116 101 95 95 133 120 124 115 100 104 145 133 134 120 107 108 104 79 79 143 136 141 142 140 143 110 103 107 142 137 140 111 108 111 154 149 149 139 138 139 132 130 134 137 137 143 126 122 128 138 137 143 102 99 108 125 123 128 122 122 129 114 114 122 74 73 81 87 87 97 96 88 104 100 96 105 90 88 100 90 84 105 105 95 103 109 108 120 78 76 83 87 81 96 76 75 86 85 85 100 63 52 67 93 89 97 74 68 93 44 43 83 56 47 89 91 50 50 79 62 62 97 91 92 113 91 91 111 106 106 125 97 101 101 97 98 61 44 50 127 120 122 86 74 75 114 100 101 92 85 85 93 73 76 123 112 113 127 102 103 96 76 78 138 121 122 116 103 104 107 95 95 109 95 96 63 54 56 49 42 42 69 39 51 112 103 106 127 115 115 96 87 87 144 137 140 102 92 93 133 129 130 121 110 115 101 91 94 117 110 112 118 115 115 131 125 127 132 132 136 135 134 136 144 144 144 150 145 152 102 91 94 151 143 146 111 110 125 142 142 147 122 122 128 95 89 105 95 93 95 123 120 128 110 109 120 134 133 139 110 109 114 94 89 96 119 116 124 97 97 104 99 99 109 123 123 132 80 80 84 116 112 116 99 94 102 98 96 110 96 95 104 76 73 83 46 32 44 100 96 106 44 32 66 54 53 91 75 56 60 108 102 102 120 109 113 113 98 98 98 87 87 97 85 88 139 122 124 96 87 87 90 69 72 69 55 56 65 39 41 137 120 120 109 104 107 113 91 100 114 102 105 99 86 90 89 78 78 109 87 87 112 102 102 124 104 105 96 64 67 86 63 64 95 77 78 139 124 124 104 98 101 135 124 126 114 110 110 110 103 103 110 100 101 126 108 108 103 92 93 119 111 111 109 99 101 122 119 120 157 156 160 131 131 135 113 110 112 98 90 91 84 77 83 94 88 97 122 122 128 77 74 79 129 127 138 88 87 91 73 71 77 86 86 86 126 124 130 102 100 109 86 80 87 58 49 50 89 88 98 99 98 106 99 94 106 84 78 92 63 63 74 91 84 93 113 111 124 90 88 101 95 94 111 85 78 88 95 87 91 66 62 76 63 59 100 52 43 85 108 84 85 96 65 66 120 111 111 90 79 84 110 91 96 105 87 91 87 67 67 129 121 121 103 86 86 116 103 106 111 101 103 100 96 99 111 93 97 122 106 113 110 96 97 92 78 81 95 84 87 141 126 126 120 106 107 70 40 40 106 63 67 110 87 88 106 91 95 114 106 108 156 148 148 119 114 114 146 127 127 105 88 89 106 95 95 132 128 128 132 123 124 171 161 164 111 100 100 123 114 117 125 122 128 128 125 127 130 125 128 142 128 137 127 117 127 84 82 88 116 105 110 126 125 134 98 95 108 108 105 113 112 111 112 76 76 83 122 121 126 146 146 157 109 109 110 91 87 95 68 67 73 65 65 70 101 99 106 58 56 75 109 101 105 69 69 80 84 84 91 92 85 98 97 93 99 85 71 81 88 78 90 56 53 59 47 47 80 45 43 84 106 78 78 119 110 110 112 103 105 115 83 83 101 97 97 86 72 74 114 84 87 114 100 100 90 84 84 118 102 104 98 96 100 95 86 87 100 90 93 109 93 97 111 104 105 81 69 69 98 83 83 140 119 119 97 65 65 98 74 74 71 53 55 91 70 70 104 83 84 131 118 119 138 135 136 95 82 89 117 110 112 152 142 144 140 127 127 113 106 106 107 103 105 132 123 127 99 90 92 97 95 98 150 141 141 120 114 114 97 95 95 76 64 72 133 127 131 113 113 124 99 97 99 136 134 144 96 91 99 101 92 98 80 73 87 104 101 108 92 91 104 87 87 99 72 71 83 84 83 95 94 94 98 98 97 107 111 111 113 90 85 95 16 16 27 84 74 88 123 112 128 84 84 92 107 105 123 102 92 110 100 97 104 38 38 67 41 36 59 39 39 67 71 31 31 147 138 138 100 90 91 57 48 49 120 107 107 130 122 125 129 111 115 78 66 66 84 65 66 120 101 102 66 57 58 101 98 99 113 110 111 102 85 86 112 105 105 119 113 117 127 123 124 132 114 117 92 82 85 99 67 69 115 66 69 105 79 80 76 63 63 116 112 112 114 107 107 138 129 132 122 114 120 116 111 112 122 111 111 138 123 123 134 125 127 130 122 123 95 90 92 109 109 109 113 106 107 134 125 125 131 124 127 106 102 105 71 66 74 118 115 121 80 77 88 128 128 134 45 44 53 75 71 72 85 83 84 141 135 146 80 78 90 129 127 135 86 83 89 121 119 134 54 43 47 51 48 64 125 123 127 112 112 119 99 98 105 105 98 110 100 89 95 42 30 52 64 64 76 97 91 99 85 81 95 106 100 107 58 55 99 67 61 106 124 94 96 81 73 74 104 94 97 120 102 105 114 99 99 142 136 136 53 47 48 114 97 101 92 86 87 100 92 92 118 102 103 126 111 111 95 75 75 83 75 76 95 82 83 116 91 92 104 91 91 106 97 98 131 120 120 121 90 90 92 83 85 92 65 67 122 93 93 125 105 105 122 113 114 101 97 101 114 111 119 102 93 95 118 111 113 90 85 87 104 99 99 76 75 81 140 135 136 146 140 141 122 119 120 104 95 98 124 116 120 114 107 109 123 119 121 121 120 121 112 111 114 125 125 128 102 96 105 95 81 87 85 73 83 95 91 100 113 111 118 99 94 97 134 133 142 87 87 97 95 91 94 120 119 126 113 110 119 107 107 112 76 69 81 81 80 97 108 107 110 96 88 95 73 71 79 86 85 91 77 73 79 97 91 109 46 43 77 28 23 45 113 78 79 97 88 92 121 113 117 102 85 88 116 112 112 98 65 67 114 100 100 99 67 75 97 90 90 126 110 111 48 48 48 102 92 93 103 96 101 113 99 100 133 123 125 96 86 87 129 109 111 101 87 88 90 79 80 103 78 78 96 63 64 110 83 85 105 88 88 131 108 109 145 137 137 125 109 112 102 87 87 109 96 97 123 116 119 116 115 115 83 75 76 99 88 89 115 104 107 119 105 107 117 101 101 136 135 135 138 129 129 103 100 100 107 99 108 99 92 97 111 108 117 130 129 139 96 94 99 81 80 84 100 92 99 121 117 124 136 133 140 131 130 140 104 102 115 99 97 111 98 97 106 97 92 103 122 122 128 92 88 100 97 97 104 77 66 74 117 113 123 54 51 68 87 83 87 88 86 93 76 76 80 82 80 93 53 48 88 41 36 64 104 72 73 101 86 87 99 90 90 105 91 91 96 82 82 120 105 111 106 102 106 104 91 92 112 98 103 108 92 99 106 99 99 116 109 109 104 89 89 86 68 68 120 112 114 120 109 110 104 90 90 85 64 64 114 103 106 101 77 80 103 75 75 85 76 76 86 62 65 101 95 96 132 119 119 129 108 114 110 99 104 126 115 118 107 99 102 141 135 141 121 117 117 131 124 124 138 123 124 110 105 108 108 99 105 146 144 146 132 121 123 94 93 94 99 85 92 117 112 119 88 87 100 83 81 91 122 122 123 106 103 116 65 60 64 113 112 120 77 77 87 112 111 129 121 119 125 108 107 113 86 84 90 91 90 103 104 102 104 88 83 93 74 67 76 77 67 86 108 107 113 78 73 88 91 84 89 109 107 109 52 45 60 71 68 80 51 48 82 50 50 87 105 71 76 124 111 111 129 116 116 125 122 124 104 91 93 119 100 102 104 98 98 111 99 100 123 98 101 88 88 88 100 92 95 73 65 71 105 99 104 104 95 97 123 105 107 113 106 110 129 112 112 125 112 112 103 87 87 89 64 66 90 80 82 91 73 73 82 70 70 124 124 124 120 107 107 112 101 102 126 114 116 131 111 114 83 77 84 141 132 133 115 101 101 120 110 110 121 109 110 122 111 111 137 127 128 150 138 140 107 105 109 98 91 98 92 92 99 135 134 141 85 84 89 86 80 88 125 124 127 97 91 94 119 115 119 99 95 104 117 116 127 116 114 127 108 108 113 125 124 136 90 89 101 70 69 93 43 43 58 95 90 102 92 89 94 90 89 99 100 99 116 92 83 97 84 79 88 87 85 93 63 46 66 67 58 77 45 42 73 49 45 87 69 36 37 116 105 105 106 98 98 101 95 95 131 115 118 105 101 104 97 91 91 102 95 99 102 90 90 159 143 143 84 79 81 116 107 110 121 107 109 104 92 93 120 114 116 103 95 101 143 124 125 134 118 119 89 69 70 68 53 58 90 63 63 88 71 72 109 98 98 113 98 99 123 118 119 112 98 103 131 131 131 124 112 113 133 124 124 111 100 105 85 76 81 115 109 112 132 108 108 94 71 72 118 107 109 135 119 120 148 134 136 109 102 105 75 74 79 123 118 125 148 146 150 148 148 151 100 100 108 131 127 136 124 118 124 113 111 119 119 118 125 97 94 107 107 105 113 94 94 100 95 92 102 76 72 77 121 121 130 96 93 96 75 71 82 84 77 86 102 100 102 62 56 61 86 81 96 95 84 93 54 41 61 68 64 73 49 44 81 56 53 99 72 35 36 118 109 112 98 91 94 82 69 71 140 128 128 109 92 95 88 72 80 136 122 124 107 97 98 115 105 105 87 82 82 128 108 108 130 114 117 111 97 97 79 66 72 122 116 116 117 105 105 103 92 93 97 92 92 68 36 36 80 77 77 84 69 69 86 69 69 115 97 98 126 107 107 102 95 97 105 95 101 118 108 111 105 99 105 134 127 127 135 125 126 134 127 127 72 64 65 112 105 107 125 121 121 148 137 137 159 157 160 122 113 121 124 117 120 137 134 142 129 126 127 120 115 118 121 120 125 123 121 121 129 129 132 109 108 114 109 105 110 119 116 124 102 95 105 98 97 107 106 103 120 89 89 91 64 64 72 93 91 99 96 96 115 89 83 91 87 85 93 119 108 117 74 74 80 65 65 65 85 84 107 53 51 75 51 41 76 33 27 59 121 100 100 116 94 95 82 70 75 123 106 106 107 100 100 79 58 63 135 116 120 111 103 106 73 39 41 101 90 93 106 97 98 105 97 97 126 110 111 120 116 116 93 76 77 101 97 97 115 99 99 89 80 82 83 75 75 87 61 62 87 69 69 85 74 74 88 67 74 102 85 86 122 111 112 125 105 105 103 87 91 136 125 125 117 114 117 102 99 105 125 121 123 130 119 120 110 104 104 110 97 97 101 97 98 124 112 113 109 106 109 101 92 99 99 96 101 74 74 82 125 123 125 129 126 127 113 106 107 169 169 173 138 133 140 103 97 101 112 109 117 122 119 125 76 75 89 82 82 88 84 83 100 97 95 99 126 126 126 83 82 89 81 81 82 66 64 69 112 109 114 26 26 58 83 82 89 74 70 79 68 68 82 48 45 54 47 44 75 40 38 79 94 63 63 134 121 122 129 104 104 75 67 69 85 75 76 116 99 100 116 104 106 70 38 44 136 119 121 115 102 106 107 99 102 102 95 96 122 107 108 92 79 79 112 95 96 95 88 89 71 65 65 125 116 116 113 96 97 106 85 85 98 77 78 95 82 83 105 82 82 93 74 79 130 123 123 132 120 122 141 133 134 137 133 136 115 107 107 126 118 120 112 107 112 136 132 133 77 76 76 110 105 108 123 115 118 121 109 113 128 120 125 108 99 104 90 90 92 121 119 126 100 99 115 101 97 97 116 115 116 112 112 117 107 101 102 99 95 100 130 127 131 134 134 147 84 82 83 93 91 96 125 124 130 94 89 94 99 92 110 108 103 105 73 73 81 111 104 115 77 77 83 73 72 76 54 51 64 116 112 114 99 99 105 41 38 68 49 42 79 50 44 88 82 70 75 121 97 97 108 96 97 86 78 81 100 86 88 116 114 117 105 102 102 135 126 128 103 96 98 116 106 106 81 72 73 110 95 96 121 113 114 127 101 105 133 113 113 104 85 86 79 67 71 103 83 84 97 82 83 123 110 111 89 67 67 101 82 82 112 86 86 109 87 88 148 143 143 111 108 109 143 134 136 124 115 124 121 105 106 106 99 100 83 68 69 147 138 139 129 122 122 80 71 77 120 112 114 144 134 134 125 118 118 136 131 132 98 90 108 88 85 94 141 137 143 31 31 51 119 118 123 88 84 88 108 106 110 112 103 112 106 105 115 127 126 129 100 99 109 84 82 89 81 80 91 112 111 112 103 102 110 117 113 124 97 93 104 83 81 100 94 94 100 77 74 87 76 76 86 89 88 92 88 81 99 112 108 124 46 36 72 43 42 76 77 42 43 78 53 54 107 100 100 116 95 98 109 100 101 112 100 100 96 73 77 108 96 96 97 78 80 83 68 72 111 96 96 122 100 100 105 84 84 130 121 122 118 113 114 88 79 79 110 86 87 105 85 85 101 81 81 77 54 54 81 63 63 123 112 115 108 93 95 128 115 116 126 116 116 104 91 91 119 108 109 125 116 118 115 111 115 110 105 108 117 111 114 109 99 100 100 82 84 143 142 143 117 105 109 95 86 95 110 102 105 97 90 93 113 102 105 97 94 100 105 105 110 49 46 65 91 84 90 118 117 121 111 105 116 102 98 108 83 83 87 107 106 112 129 128 136 121 119 122 66 64 77 79 73 81 78 75 77 111 110 122 61 60 74 89 86 102 108 104 115 89 85 90 86 80 91 100 90 99 98 90 106 103 96 108 49 47 82 43 42 85 87 65 69 67 54 59 104 77 80 106 99 99 112 97 99 121 102 102 106 93 97 63 38 41 105 95 95 125 111 111 102 95 96 84 77 88 111 99 102 120 97 98 100 84 84 113 92 95 116 93 93 95 80 81 97 80 81 83 56 58 95 59 60 136 111 112 137 130 130 138 123 123 123 107 107 125 109 111 123 109 113 118 110 111 64 56 61 85 77 77 114 98 103 127 120 125 142 127 129 128 114 115 127 121 121 96 89 89 103 95 98 97 95 99 108 104 107 103 102 110 114 112 112 118 115 116 48 48 57 87 81 90 104 98 101 72 69 81 115 110 120 118 114 122 102 98 110 96 92 94 114 113 125 98 94 114 67 67 83 76 74 82 102 97 103 82 80 91 43 30 49 83 83 92 65 63 81 79 78 99 74 72 77 86 83 100 53 43 77 53 50 89 78 55 57 106 101 102 121 110 110 80 72 77 113 95 99 126 114 115 71 67 75 105 97 97 74 64 64 109 84 87 105 86 86 105 81 82 128 124 124 81 73 74 111 97 97 110 97 98 87 75 77 112 93 93 100 77 77 108 84 85 114 88 93 102 83 83 90 84 85 124 119 120 126 116 118 120 115 116 98 86 87 134 127 130 132 126 128 117 116 121 102 92 92 147 144 144 126 121 126 127 116 116 105 102 102 94 86 94 132 127 135 95 95 101 127 124 129 74 71 80 114 106 110 126 125 128 117 117 120 112 97 102 118 118 120 113 107 110 105 100 113 100 92 104 119 111 118 108 106 117 146 145 145 105 105 124 85 84 106 61 58 67 82 79 81 80 76 83 79 79 85 78 73 77 68 65 82 80 69 82 82 80 91 83 81 92 38 24 57 37 37 69 100 73 74 128 100 100 111 99 99 115 104 105 122 112 114 112 95 97 95 88 88 133 117 118 112 101 101 91 90 91 116 112 112 111 101 101 93 71 71 121 114 114 93 75 76 73 57 57 67 37 44 89 66 70 125 103 104 92 85 86 127 114 117 107 92 92 115 99 102 118 109 112 84 70 70 98 88 88 116 109 113 125 120 125 115 104 105 78 76 84 116 104 104 147 135 135 144 137 138 140 138 138 126 120 125 141 129 135 134 128 133 104 104 109 121 114 121 115 112 120 102 87 99 131 128 135 111 104 113 143 137 140 113 110 114 103 97 101 75 75 86 99 91 101 120 120 125 96 96 105 133 132 136 105 102 115 115 114 126 112 111 122 92 91 101 89 87 90 67 65 71 106 104 117 116 114 125 63 55 66 75 69 89 55 43 68 50 46 79 34 34 67 130 100 101 86 73 74 107 94 94 106 102 105 89 87 87 92 79 80 100 97 97 115 104 105 138 132 132 66 50 56 97 86 86 104 90 91 84 60 63 111 108 109 98 62 63 78 64 64 112 95 99 95 72 73 92 74 74 84 77 77 124 109 110 83 77 77 119 108 109 71 54 59 101 91 97 122 104 108 130 119 119 100 95 95 114 110 115 152 136 140 121 103 106 123 113 114 137 125 126 112 106 110 113 109 120 120 113 114 120 113 115 129 128 136 113 109 115 102 101 102 96 92 102 114 106 119 67 66 75 86 84 89 105 98 101 101 98 106 112 109 117 120 116 122 100 100 102 91 89 99 121 118 120 113 113 121 87 87 90 87 85 104 97 95 106 92 91 102 73 71 76 79 76 84 76 63 83 98 92 101 77 72 82 83 81 91 27 24 39 29 26 52 127 91 91 109 91 92 93 81 81 97 87 88 54 39 43 132 128 128 104 88 88 114 110 110 132 123 123 113 97 97 99 96 96 83 71 71 130 111 112 98 87 88 104 98 102 54 35 42 81 61 61 73 67 67 69 52 52 90 63 67 93 78 79 72 50 51 104 91 92 122 111 112 114 107 107 78 69 70 140 131 133 140 120 121 142 135 142 142 135 138 142 129 130 111 99 100 176 166 167 129 114 114 100 89 91 93 84 92 108 92 94 120 113 121 92 91 92 101 101 106 98 97 99 85 83 90 82 75 76 113 109 114 109 99 104 116 114 120 107 106 110 107 107 113 118 110 112 130 127 136 107 107 111 95 94 106 124 124 129 91 90 94 69 68 82 95 93 95 102 99 104 98 97 103 81 75 76 93 90 93 109 105 113 64 64 71 37 37 67 24 24 40 104 77 77 83 72 79 98 77 84 107 96 97 107 99 100 112 96 96 129 125 125 107 92 92 57 48 48 62 56 58 102 86 86 104 91 91 114 100 104 106 91 94 60 47 49 74 58 60 86 75 76 40 27 34 27 10 10 49 38 41 37 31 31 98 87 88 105 79 79 115 104 106 124 114 121 89 83 87 139 133 133 137 135 138 100 98 100 141 130 131 113 95 95 118 111 113 69 63 63 112 95 98 108 104 104 128 123 126 144 136 137 122 122 124 125 121 123 117 117 119 111 110 111 119 116 117 128 128 138 139 138 142 105 102 109 118 118 125 102 102 108 105 95 102 135 133 134 134 133 136 105 104 109 96 95 102 99 99 104 71 70 74 77 77 95 48 48 53 91 89 95 88 87 108 93 91 103 101 100 114 65 56 70 88 83 94 50 50 84 51 51 92 