P3
64 64
255
32 20 33 48 29 33 50 42 57 70 51 51 70 58 63 88 81 87 77 72 83 59 47 50 60 43 44 44 33 53 71 65 74 87 80 81 82 71 72 72 62 66 80 66 69 80 70 72 86 72 74 78 67 70 62 49 55 87 74 77 93 76 77 105 101 104 102 97 101 73 64 80 60 57 73 60 55 63 82 76 80 67 62 66 70 66 83 99 97 106 42 40 70 76 76 80 82 78 81 74 71 88 105 96 105 53 49 64 107 106 109 69 61 72 75 73 88 72 72 75 58 57 75 78 77 102 60 60 77 65 62 75 99 94 106 80 80 83 77 70 91 75 72 80 64 64 88 65 64 87 67 60 71 58 58 75 38 36 49 60 57 93 78 78 89 102 102 118 54 53 76 48 48 60 63 63 70 67 65 83 47 46 68 73 67 88 87 86 113 47 47 94 55 47 54 67 50 59 98 82 84 60 55 55 68 37 43 70 68 74 63 39 53 55 41 43 63 52 54 80 78 81 83 67 72 71 64 64 66 43 48 58 56 65 88 83 87 57 52 60 63 63 63 85 75 79 106 95 105 59 57 63 40 32 32 81 78 81 75 63 63 71 59 68 92 86 98 80 65 79 63 61 61 60 57 62 42 40 42 77 76 84 54 36 54 71 57 66 85 79 85 51 44 47 76 76 92 87 87 105 90 90 92 52 46 58 103 101 109 83 81 96 81 81 93 72 71 71 68 61 70 87 85 94 63 63 84 67 67 89 52 47 76 42 41 47 67 67 95 88 82 92 71 70 89 54 54 70 75 75 86 49 49 76 71 71 90 73 72 90 70 67 96 76 74 87 81 80 100 79 78 94 75 74 81 58 46 82 61 59 77 37 33 64 76 44 50 51 35 51 81 70 86 79 75 79 30 30 55 58 51 66 90 81 86 52 45 62 80 63 63 61 48 55 45 24 28 97 91 94 67 67 67 98 85 94 80 71 75 90 85 88 83 81 87 89 85 92 83 75 88 84 74 82 64 56 68 57 56 60 77 73 73 90 87 90 66 63 63 74 74 88 87 79 91 78 68 80 81 80 89 87 87 91 68 68 77 54 51 60 67 66 77 79 76 80 68 66 73 71 66 79 97 94 106 101 94 107 75 69 83 54 54 91 71 70 87 50 50 59 105 105 117 76 76 90 76 76 87 71 65 84 44 42 54 102 99 106 47 47 49 50 50 60 78 74 89 54 51 66 72 65 79 60 57 67 66 64 77 92 92 98 78 74 94 76 75 90 51 50 66 72 72 85 72 72 83 61 61 82 61 61 109 40 34 71 92 81 85 85 66 76 80 71 76 82 74 78 69 66 66 78 73 78 56 49 57 82 76 86 80 69 73 81 59 63 46 43 55 87 82 95 83 83 88 83 79 92 88 84 95 93 83 86 71 66 71 89 89 91 112 108 116 102 99 107 65 61 62 69 59 71 97 90 95 104 96 102 50 50 58 95 90 95 41 25 28 95 87 90 76 59 61 74 68 72 79 66 79 65 60 66 64 62 63 84 79 84 94 88 94 51 46 68 103 100 105 98 96 104 83 83 92 110 110 117 98 98 104 90 88 99 72 71 76 80 76 83 57 57 63 114 112 116 64 63 78 65 57 86 91 91 109 75 75 90 68 68 82 92 92 102 91 89 100 112 110 122 33 30 53 69 68 78 44 44 64 84 83 97 59 53 72 65 65 88 39 39 70 85 83 99 39 36 69 39 37 73 57 45 55 60 55 59 51 33 36 49 42 42 54 48 51 63 60 62 78 69 72 92 84 87 36 33 43 84 74 87 45 31 44 77 69 73 84 72 79 49 47 67 67 62 73 71 62 74 111 109 111 50 50 64 73 73 87 91 87 95 108 102 103 102 101 116 88 82 92 77 68 74 73 71 73 100 96 101 90 87 93 91 87 95 117 113 120 81 81 90 83 82 92 64 63 70 59 48 57 87 78 83 110 107 111 77 70 77 45 44 45 95 95 99 62 61 62 106 106 116 100 99 112 70 70 70 89 88 89 65 58 69 92 90 111 57 53 79 58 58 66 67 62 77 56 55 72 73 70 90 85 77 84 77 77 101 59 59 70 65 65 75 74 74 97 75 75 90 72 72 89 79 79 89 99 96 109 92 92 102 94 90 102 67 64 94 42 37 72 45 43 91 75 48 55 70 60 65 64 64 68 94 79 85 89 79 83 77 70 71 90 87 96 75 70 73 104 96 105 73 65 75 75 65 68 103 98 101 77 75 84 96 85 88 78 78 83 89 83 86 74 67 68 109 106 107 52 50 60 77 71 78 76 75 93 80 72 81 90 89 92 99 99 107 66 65 69 101 101 112 115 110 115 93 86 96 89 82 88 95 83 94 74 73 91 82 78 83 72 66 66 82 78 82 105 103 107 107 107 114 93 93 107 90 89 100 96 96 96 95 92 106 112 111 125 74 73 88 31 30 51 71 68 96 55 53 68 60 60 72 64 58 74 58 58 81 80 76 88 65 64 85 81 81 95 81 81 91 94 94 103 99 93 101 63 59 73 41 41 70 81 76 88 67 63 89 105 102 119 55 54 72 91 90 105 78 78 86 54 53 96 58 55 101 65 37 42 97 82 96 80 69 79 80 66 72 90 80 85 86 77 94 82 75 85 82 79 87 87 83 88 79 70 78 96 83 89 93 87 90 103 95 98 78 72 76 87 79 83 92 87 97 110 108 112 84 77 83 88 80 83 88 87 91 85 72 85 106 103 104 102 100 103 58 53 59 82 74 77 69 60 74 93 85 96 111 108 109 92 91 100 55 48 54 80 73 77 115 111 114 79 79 86 110 108 116 104 101 105 84 84 90 112 111 123 79 78 83 119 116 122 102 102 115 82 80 96 75 73 81 87 87 103 74 74 91 105 104 112 108 104 111 64 63 76 73 73 77 95 90 106 88 87 107 76 76 85 113 113 121 99 99 111 111 109 114 91 90 107 99 98 109 95 91 107 75 74 85 76 76 84 57 57 81 86 85 104 82 78 118 57 55 95 41 37 74 47 26 26 97 89 95 60 56 60 68 55 70 93 77 82 85 81 88 84 78 94 109 99 109 70 56 66 74 62 71 99 89 89 93 86 92 112 110 116 59 33 35 81 66 67 68 68 72 58 55 70 80 74 80 99 92 93 100 91 91 67 63 77 72 59 69 59 58 61 81 77 78 103 99 106 88 83 97 93 91 92 87 85 92 106 106 106 66 65 70 66 63 67 104 102 104 85 82 94 89 85 89 70 64 76 70 66 79 92 92 108 98 96 105 79 75 84 101 101 113 91 90 105 76 76 88 123 122 135 67 66 91 98 96 109 77 76 99 80 71 89 88 84 96 72 72 76 56 56 67 68 67 84 83 82 100 47 41 54 78 78 82 85 83 105 97 94 101 107 106 121 78 78 82 78 76 96 102 101 114 93 91 102 69 69 89 57 57 106 41 40 73 45 30 45 71 66 66 80 77 90 86 70 71 95 88 94 80 70 78 84 72 80 100 100 103 99 90 98 76 64 72 84 68 72 107 99 103 98 93 96 65 60 68 78 69 74 96 86 92 69 66 71 74 72 72 78 73 79 80 78 82 85 82 82 74 70 85 88 82 91 78 68 70 94 90 95 106 101 107 118 111 114 107 103 109 102 101 107 120 113 119 108 107 109 95 92 93 88 83 88 92 89 96 69 67 84 64 63 81 65 60 76 112 107 115 81 80 81 115 113 117 95 93 106 94 91 96 81 77 80 108 106 122 42 41 64 97 88 97 89 86 103 99 99 118 76 69 75 106 105 110 97 97 107 97 96 109 109 108 115 82 81 96 106 106 116 93 90 109 95 95 114 49 49 74 79 75 96 57 56 70 88 82 103 107 107 120 58 58 100 45 45 77 100 74 77 109 97 99 103 94 111 89 80 86 76 66 74 90 85 94 82 53 70 56 51 56 96 82 83 79 69 71 98 91 93 85 73 75 94 84 91 94 85 86 105 99 110 118 112 119 70 67 79 61 54 64 100 95 101 118 117 120 108 102 108 95 86 90 105 103 107 86 82 84 109 108 111 119 112 117 130 129 133 131 126 131 98 94 98 97 95 99 125 125 131 121 118 122 102 99 112 105 105 108 95 92 97 86 79 91 61 61 89 112 112 117 80 79 89 91 87 105 107 106 112 122 120 129 86 86 97 77 77 89 100 99 117 95 94 109 92 92 106 84 80 96 85 85 96 110 109 120 110 109 119 107 104 116 106 105 122 118 118 128 51 44 54 90 83 100 61 56 68 81 79 110 115 114 131 69 67 87 76 75 77 34 30 55 46 42 79 65 65 113 79 73 78 79 64 70 83 65 65 72 72 72 75 71 78 72 68 69 78 73 89 121 116 120 96 81 85 84 75 81 92 83 85 78 71 71 104 96 97 101 97 100 89 82 87 97 95 97 114 111 113 133 124 128 111 108 109 120 116 119 128 125 125 118 116 116 128 126 127 88 82 91 109 101 106 128 125 127 132 128 136 126 124 124 129 129 133 113 107 114 111 106 117 133 132 144 135 131 137 91 89 95 126 124 125 92 90 106 68 67 87 79 74 81 90 89 101 99 97 109 127 124 133 132 132 138 95 92 109 89 87 113 112 112 119 100 100 108 99 97 106 85 84 99 93 90 99 76 76 88 95 95 97 40 37 64 104 103 115 71 71 86 89 86 104 83 83 84 72 71 90 31 27 45 39 37 68 85 85 97 77 72 90 97 94 118 34 31 70 48 48 87 71 50 50 109 83 90 70 65 70 91 87 93 92 85 96 63 60 67 83 74 82 70 51 54 50 40 40 90 78 82 56 54 69 83 79 82 91 88 88 88 85 91 116 108 108 104 100 101 110 108 109 124 118 121 122 122 122 111 100 100 104 102 104 113 110 119 126 121 124 138 136 137 141 139 140 114 108 112 139 133 141 106 104 105 95 88 93 128 126 132 103 96 103 105 102 107 88 86 100 92 91 104 95 90 99 98 98 117 105 104 115 66 66 79 83 79 88 54 52 64 82 76 90 84 81 102 85 85 105 80 78 92 66 64 80 111 110 124 116 116 127 93 93 105 105 105 121 91 90 106 67 65 75 83 79 94 84 83 89 94 93 95 66 66 72 97 96 107 93 93 97 73 70 82 108 108 122 100 99 109 94 94 111 78 78 88 33 31 54 65 62 106 55 37 55 72 48 58 94 82 82 73 68 69 54 48 57 82 69 73 65 52 52 100 90 97 90 90 94 64 46 49 93 83 89 103 101 102 73 72 76 54 51 61 114 106 109 100 96 106 92 84 85 125 123 124 122 120 120 133 128 134 72 67 69 108 108 108 95 93 98 113 107 110 103 101 108 140 134 136 97 93 98 95 94 98 120 115 117 88 85 90 150 146 146 99 99 99 129 129 132 106 106 113 94 94 103 99 94 110 90 90 107 114 114 125 87 85 113 94 93 109 83 83 112 53 52 66 89 87 113 101 98 101 91 84 100 119 118 131 101 101 116 128 128 145 98 95 111 58 57 66 108 104 114 71 71 89 92 91 95 76 73 87 103 100 123 106 106 116 76 76 103 107 107 119 106 105 114 77 77 99 100 97 103 101 101 118 52 50 86 56 54 90 98 74 75 117 108 114 93 79 85 82 68 69 78 66 70 58 54 54 94 84 85 55 47 65 79 67 69 76 71 71 102 96 96 107 103 106 93 86 88 112 109 110 92 88 94 110 101 106 123 116 117 146 138 138 107 105 105 116 115 117 124 120 120 110 104 104 108 104 106 117 106 111 106 103 105 118 113 118 126 121 123 118 113 114 153 143 147 90 89 90 142 142 148 102 101 108 99 99 115 111 111 117 88 88 92 133 131 133 73 72 88 101 101 116 103 103 116 110 108 127 84 84 100 64 64 83 64 63 92 88 88 109 77 77 101 98 98 110 92 89 100 80 80 93 97 97 118 81 81 100 123 117 127 74 74 86 95 93 110 105 104 122 40 40 60 88 87 109 77 77 98 98 96 112 118 118 137 94 92 101 99 99 110 87 85 110 59 58 100 53 53 101 76 38 41 76 58 74 81 63 67 111 108 112 98 81 86 79 77 78 80 69 76 85 75 80 105 96 100 95 81 82 62 56 60 136 130 131 120 113 119 108 101 109 142 136 142 137 133 134 112 111 112 148 144 146 116 109 109 101 97 97 105 97 103 135 134 140 84 75 80 90 87 88 109 106 107 116 116 118 78 70 77 107 100 105 117 115 121 96 86 92 86 80 83 113 112 125 88 88 92 140 139 142 121 121 130 106 106 113 118 114 120 82 82 95 74 74 85 62 62 105 79 78 105 58 56 81 69 67 89 90 89 101 87 87 105 88 88 110 131 131 140 85 85 102 84 84 107 110 110 124 90 90 108 91 90 106 109 109 111 94 93 107 65 58 74 90 90 113 72 70 103 79 76 99 99 96 100 94 94 109 55 55 79 112 112 125 59 57 104 55 53 102 63 37 46 98 89 97 79 73 81 75 75 78 101 73 78 76 69 79 91 82 87 54 52 69 97 93 100 102 88 94 86 64 66 108 107 108 130 122 122 109 99 100 93 78 81 135 126 130 92 73 81 110 96 101 156 149 150 131 122 125 101 100 103 95 89 93 108 106 107 92 82 84 96 96 98 133 127 129 155 152 155 125 119 120 91 86 86 60 60 68 94 86 92 137 137 146 129 129 129 83 83 87 98 96 97 136 132 141 100 99 112 74 73 83 65 60 96 52 49 85 78 77 94 55 53 77 40 34 53 81 79 104 75 75 90 76 72 94 104 104 128 133 131 140 94 93 104 85 85 98 76 75 89 110 109 113 101 101 114 104 101 112 70 68 87 88 86 101 90 89 98 101 97 109 109 109 127 100 100 113 101 101 106 104 103 121 43 43 86 36 30 68 74 38 39 103 95 101 90 87 90 82 77 84 69 65 73 98 88 98 81 80 82 107 101 107 99 95 98 107 104 105 84 75 81 97 89 91 103 96 98 110 109 110 102 99 101 56 53 56 99 95 98 129 119 121 142 134 137 85 70 72 93 82 87 82 72 83 119 113 118 99 98 99 83 75 75 96 88 88 118 115 116 109 101 104 62 57 58 123 120 125 109 107 114 87 87 102 134 133 139 72 71 86 110 109 120 97 94 110 127 127 138 91 91 103 61 58 83 60 58 80 58 57 65 68 68 106 73 73 106 65 65 90 78 77 95 94 94 115 108 108 124 93 90 113 101 101 125 88 88 101 85 85 109 95 95 97 107 106 121 107 103 108 87 86 116 91 91 102 98 93 117 93 90 97 91 91 109 108 103 113 108 107 121 121 121 144 38 35 71 71 68 113 63 54 61 73 61 64 81 71 77 77 68 78 94 87 93 85 82 89 94 83 92 103 96 102 78 72 86 115 112 115 87 80 88 103 92 94 104 90 93 63 53 61 96 83 85 129 125 126 131 121 124 116 116 119 101 101 104 96 89 91 101 94 96 117 116 117 116 107 109 123 122 124 111 110 111 97 90 92 98 95 96 89 85 88 86 83 84 124 120 121 117 115 119 101 99 107 144 142 149 117 114 134 129 123 135 92 91 97 89 87 112 105 105 133 65 63 90 78 74 100 66 66 86 84 84 114 69 66 80 60 60 67 47 46 69 65 64 94 87 85 100 101 100 115 118 118 122 83 80 98 101 100 108 106 105 113 100 98 108 69 69 73 74 74 82 130 127 146 96 95 115 112 112 125 90 89 98 110 110 124 106 105 113 82 82 97 49 46 89 69 66 114 48 25 36 74 60 65 117 114 119 88 86 98 70 56 62 79 68 69 95 92 95 110 101 101 72 66 67 60 48 57 106 96 97 79 73 75 86 78 81 92 88 89 120 117 117 123 112 113 119 118 119 156 151 151 119 116 117 127 124 125 117 115 117 110 109 110 93 88 89 97 89 89 117 114 118 104 102 103 137 132 136 153 146 146 131 128 129 109 98 103 133 130 138 127 126 132 101 100 115 77 77 92 106 104 107 121 120 129 93 92 111 81 81 100 89 88 98 95 94 113 100 96 112 63 58 80 91 89 111 68 68 93 60 60 84 68 64 83 85 85 105 86 83 103 87 84 91 91 89 110 115 115 128 107 107 114 99 99 115 92 86 102 87 86 100 126 125 139 138 138 144 104 104 112 108 105 110 97 97 108 94 93 110 81 80 99 47 46 86 52 52 103 58 30 36 65 53 60 79 57 60 53 48 48 97 88 93 98 92 96 80 80 80 87 77 79 106 99 103 86 77 79 99 84 85 87 79 80 136 132 132 103 100 103 108 96 97 111 111 113 108 105 107 115 112 114 112 112 115 80 76 80 109 108 108 123 116 117 68 64 64 84 78 80 112 107 107 100 90 91 122 120 122 108 106 106 126 124 130 116 115 116 106 104 111 106 106 113 93 90 102 91 91 91 143 137 142 139 135 145 88 87 95 94 92 118 50 50 80 117 115 135 94 92 105 84 79 91 74 73 100 50 50 59 69 68 104 63 63 77 68 65 85 117 116 125 127 126 131 114 114 132 93 93 114 89 89 111 102 98 112 66 66 77 76 75 102 99 99 106 95 95 107 111 111 126 89 89 99 65 65 74 87 84 107 86 86 99 51 51 97 50 50 94 73 59 69 72 55 61 88 83 84 88 84 97 74 70 83 68 54 62 77 67 68 86 78 83 100 90 97 104 96 105 100 95 96 63 49 49 91 83 85 80 74 76 84 64 67 126 118 121 143 128 129 119 107 108 90 87 92 79 70 73 124 118 121 107 92 98 120 106 111 72 57 65 83 75 76 96 89 97 102 96 98 123 118 123 145 137 141 106 103 104 116 115 121 107 100 106 81 81 93 106 104 109 131 128 138 120 120 133 62 62 87 72 72 76 111 108 127 104 104 114 117 116 133 72 71 87 55 53 69 72 72 109 60 60 86 55 55 82 88 84 100 93 91 104 103 99 121 121 120 131 126 126 126 123 122 126 106 104 110 105 104 116 112 109 111 103 102 123 97 96 115 101 99 106 47 47 61 121 121 135 99 95 112 92 91 103 47 44 83 59 59 104 54 21 22 79 66 68 100 92 98 88 76 91 90 84 88 54 45 54 115 104 106 96 89 91 115 105 114 58 53 65 102 90 90 124 112 112 125 122 124 97 95 96 78 74 78 95 72 75 145 138 139 127 125 126 132 126 126 127 115 117 122 112 118 113 110 110 113 110 113 127 120 126 106 98 101 99 94 106 106 101 101 157 156 158 113 110 114 127 122 127 96 94 114 121 118 127 80 75 81 149 146 152 96 96 106 60 55 67 92 92 111 100 100 129 112 112 124 97 97 105 107 106 125 56 55 92 74 71 96 46 46 69 64 64 103 72 70 101 47 47 70 57 57 68 107 106 126 76 73 82 113 113 125 78 78 95 100 100 107 72 70 96 106 106 115 110 109 124 108 108 128 111 110 119 79 75 93 124 124 135 105 100 116 89 85 101 63 59 111 46 46 84 81 61 66 79 72 87 95 91 96 77 73 80 111 101 112 103 102 106 95 82 89 102 98 103 112 101 102 102 85 92 73 69 75 91 90 90 89 85 86 100 89 93 86 76 77 98 87 88 89 87 87 128 121 123 147 142 142 107 86 87 115 99 101 69 64 66 105 101 101 115 110 111 137 131 134 99 95 98 125 122 127 132 129 137 119 116 120 143 143 144 138 133 135 94 90 96 98 93 96 95 95 102 106 104 113 85 85 97 61 61 83 73 71 87 86 82 92 104 103 108 116 114 132 113 111 120 96 93 120 63 61 88 60 60 95 46 46 83 71 66 76 104 103 107 103 102 116 93 93 102 98 98 114 95 92 102 87 86 108 88 87 117 63 61 79 105 103 111 97 95 112 87 86 101 91 90 106 102 99 121 88 86 104 106 105 120 54 50 88 67 64 116 80 43 48 104 94 98 63 53 62 102 92 100 86 66 73 79 66 72 91 82 82 106 103 105 84 79 90 59 31 41 83 60 63 96 83 87 90 81 81 99 95 98 133 127 129 63 56 61 139 127 128 150 140 143 130 125 128 145 139 139 128 117 123 125 123 128 100 90 92 69 63 70 119 114 119 102 98 101 106 105 108 114 114 116 92 84 92 129 125 131 124 120 123 138 133 136 97 96 104 116 112 118 86 79 83 76 76 84 120 120 128 88 88 103 114 113 129 77 77 93 72 72 88 113 113 129 34 34 60 81 81 97 65 61 82 59 59 96 47 43 80 98 98 111 104 104 113 113 113 121 83 82 90 97 97 106 63 62 90 83 83 99 85 84 98 103 103 119 73 72 93 75 75 89 108 105 127 92 88 107 112 112 115 74 74 85 47 44 77 63 61 111 98 72 74 66 56 70 106 89 89 100 93 94 97 84 87 93 85 89 94 78 86 93 86 89 122 116 124 97 75 78 101 96 99 66 56 61 124 117 120 109 100 102 102 96 105 113 110 111 121 109 111 117 112 114 86 83 83 113 101 103 131 125 126 131 124 126 126 121 127 67 65 76 123 118 125 101 94 98 132 128 131 127 124 129 125 122 125 127 125 134 147 143 148 133 132 139 95 94 108 132 130 140 113 112 121 124 122 136 109 104 113 57 57 74 71 70 90 109 109 125 97 97 108 82 77 109 75 74 96 78 77 100 35 35 62 76 76 88 78 78 104 109 107 126 114 113 119 90 90 115 70 66 74 110 110 116 128 127 140 102 100 113 95 95 104 83 79 92 98 97 112 91 89 105 109 106 128 90 90 100 79 75 94 87 87 112 67 66 115 64 64 109 68 48 48 63 38 44 88 79 86 95 83 92 114 109 110 81 72 82 98 89 95 63 45 60 117 108 110 100 92 95 104 92 93 109 100 108 80 68 68 118 107 112 75 58 62 122 108 109 118 111 119 139 136 137 111 104 104 114 114 114 90 79 79 173 170 172 142 136 140 156 155 159 137 134 135 134 131 139 122 118 120 142 137 138 120 113 122 127 119 130 127 122 131 136 136 137 142 142 144 127 125 133 111 110 127 142 139 148 107 106 121 111 109 118 58 58 96 91 90 107 75 74 91 68 67 86 35 33 66 44 42 75 49 49 85 66 63 87 87 87 96 93 92 109 101 100 105 93 91 107 99 99 109 104 100 114 87 85 103 36 36 69 103 101 110 62 62 62 99 97 99 110 109 113 84 84 107 92 91 118 52 52 72 72 71 96 61 60 100 67 64 115 70 54 56 91 61 66 75 66 70 99 95 97 89 89 89 60 53 70 106 85 87 104 99 107 107 99 105 98 88 97 111 101 103 71 64 73 89 69 75 64 56 57 72 67 74 119 117 117 95 74 77 73 66 67 101 95 95 122 115 116 149 147 147 152 140 141 132 124 128 146 144 146 128 125 127 117 116 121 93 92 93 124 120 122 130 125 132 105 104 107 114 114 117 158 156 160 133 127 137 86 80 88 113 112 120 113 110 123 69 69 86 97 97 105 88 87 106 67 66 85 81 80 99 63 63 88 85 83 103 64 63 94 65 65 82 36 34 60 99 99 119 87 81 103 107 107 128 85 80 95 74 72 79 106 106 115 112 112 129 59 58 78 123 123 134 96 96 108 94 94 110 95 95 112 90 84 110 101 98 124 97 92 102 99 98 124 51 46 78 44 41 80 96 67 70 82 76 84 74 71 71 96 82 86 113 107 114 99 94 102 78 61 71 75 63 74 101 91 92 113 108 112 81 76 83 106 98 106 71 64 72 89 81 82 121 116 119 81 75 78 76 63 64 71 58 62 91 80 81 95 82 85 96 79 85 129 129 129 111 104 104 137 137 139 144 139 142 129 126 130 128 118 121 112 105 108 119 116 122 127 126 131 118 117 126 155 152 157 151 149 157 114 114 123 78 75 83 118 116 126 67 60 82 96 94 106 81 77 88 70 68 80 54 54 77 53 53 68 73 70 95 54 53 92 79 78 102 63 63 81 121 121 126 108 107 114 106 106 117 99 98 117 140 140 145 64 61 82 78 78 86 97 97 102 82 82 104 81 81 95 83 76 99 109 107 118 82 82 93 90 87 105 83 83 105 128 125 138 68 66 114 61 59 108 71 41 43 106 93 101 90 81 92 99 91 102 60 54 62 61 47 62 102 85 86 71 60 78 93 76 82 83 80 80 118 104 107 101 96 104 42 40 49 114 103 103 79 77 82 96 82 85 106 102 104 97 86 95 86 74 80 97 82 84 128 123 126 123 115 116 116 113 116 156 149 149 91 91 97 130 127 127 133 129 130 117 105 108 116 115 125 142 136 137 139 136 143 105 104 120 119 116 130 102 102 105 108 105 112 87 84 105 89 89 92 97 97 102 105 105 127 34 31 53 76 74 94 68 68 87 36 35 61 36 36 64 83 83 103 83 82 104 130 130 139 67 67 88 69 69 88 89 89 105 100 100 103 90 88 102 94 93 107 113 112 117 85 85 88 102 102 119 106 106 121 73 71 89 108 108 113 79 78 101 119 118 136 62 59 70 48 42 86 50 49 105 60 32 41 96 87 91 61 49 49 76 68 69 87 80 86 104 96 99 100 93 97 76 68 78 82 72 73 79 71 76 108 104 104 102 95 98 108 95 98 75 66 74 86 79 81 89 88 90 125 118 119 96 86 91 84 78 92 74 69 71 109 103 111 154 145 147 103 93 98 92 86 94 79 74 83 110 104 106 103 101 101 89 74 89 121 117 130 130 123 130 88 81 92 139 136 143 122 122 130 81 77 87 108 105 121 110 106 114 109 109 109 116 116 118 103 102 114 92 89 100 66 65 78 109 109 116 66 62 91 66 65 82 78 77 91 78 78 89 93 93 109 100 100 109 83 82 113 112 112 121 117 117 126 84 84 127 107 106 122 105 105 123 70 69 90 88 88 106 103 102 113 100 98 114 89 85 105 79 79 104 121 116 123 88 83 97 58 57 102 32 30 66 96 86 88 78 58 60 112 105 110 48 46 55 102 90 96 86 68 69 50 30 37 90 89 90 76 67 88 104 91 91 104 91 92 96 93 101 108 105 108 96 92 95 110 101 106 104 96 99 98 87 94 89 85 88 82 76 77 93 79 85 89 75 78 101 95 100 111 102 106 88 81 89 98 96 101 107 105 109 81 78 81 99 94 94 117 116 123 90 83 94 109 105 110 121 115 121 110 108 111 130 127 138 99 96 96 105 100 113 132 130 145 105 104 114 110 110 116 129 129 133 107 107 118 122 122 128 72 72 96 82 78 99 78 78 99 93 91 100 103 103 110 81 79 89 93 92 106 94 92 101 93 91 109 68 65 76 87 83 91 77 77 84 117 115 135 115 112 122 117 117 137 88 88 97 77 76 102 89 88 104 106 104 109 70 69 83 45 44 77 56 55 101 88 69 74 100 93 111 82 71 79 95 90 93 107 99 112 73 60 74 89 80 83 107 97 101 81 69 75 99 98 103 98 92 98 91 81 82 124 121 126 133 127 130 98 88 90 129 120 121 75 75 75 112 100 102 85 82 82 119 112 113 82 73 81 91 76 80 93 82 86 85 79 84 105 87 95 143 138 142 101 101 101 120 118 121 115 107 109 121 116 121 90 83 85 76 75 82 96 89 98 130 130 137 108 107 114 95 95 104 86 86 90 128 128 140 106 106 115 108 108 118 118 116 127 62 61 65 72 72 99 72 71 97 82 82 90 93 93 102 47 43 59 88 88 90 91 86 90 113 110 120 57 50 55 120 120 135 111 110 117 80 76 107 99 99 114 107 106 112 93 93 105 92 91 112 91 90 118 103 102 117 110 108 125 92 89 102 51 51 97 59 58 111 63 33 44 74 65 70 93 89 95 88 71 80 71 64 67 87 71 75 73 73 84 86 85 96 98 90 90 61 50 55 103 94 102 103 91 99 80 69 70 65 65 70 95 82 91 77 72 80 115 111 111 108 86 89 99 95 95 84 78 79 96 83 85 97 91 91 77 71 76 97 88 89 87 78 80 96 86 90 132 125 126 124 122 125 87 83 89 78 75 79 93 88 91 83 75 82 91 86 101 95 95 106 97 89 93 130 127 136 113 113 124 114 111 119 127 126 133 127 123 132 116 116 126 109 109 123 26 26 49 59 58 88 72 72 79 74 73 81 87 87 96 88 80 85 89 89 117 110 103 107 127 125 135 118 116 119 94 93 113 58 58 98 107 105 127 120 120 126 95 92 113 108 104 117 85 83 100 90 84 105 124 122 128 81 81 114 46 45 85 64 64 120 97 78 81 60 52 58 79 68 69 99 87 92 94 87 98 113 95 99 102 94 101 118 108 108 107 103 107 114 103 103 98 86 96 70 57 71 79 72 77 110 100 103 101 94 98 116 106 111 108 99 104 62 52 53 95 78 79 89 84 84 132 129 130 78 67 71 67 56 62 106 97 99 119 111 112 78 77 81 131 126 131 50 42 50 94 76 77 107 104 104 105 98 102 78 72 82 120 119 123 121 119 124 86 76 85 120 120 127 131 131 138 121 121 128 159 158 168 106 105 122 92 90 113 56 56 83 60 59 85 79 78 100 94 93 98 106 106 124 87 86 104 43 43 72 46 45 60 96 96 111 94 92 112 117 117 131 68 68 77 34 33 70 62 62 95 88 85 108 118 118 133 82 82 97 110 110 119 85 85 106 93 93 101 118 116 125 56 54 96 58 58 106 95 75 76 95 86 87 104 97 101 96 87 92 114 97 103 101 96 106 66 53 55 103 101 107 78 65 67 119 112 112 95 91 102 94 82 83 93 74 76 83 73 74 120 114 121 122 118 124 73 57 61 102 98 104 96 90 97 97 92 93 124 121 122 65 61 62 93 86 90 111 104 105 127 120 124 82 78 84 113 107 111 120 111 112 76 69 77 92 86 93 91 90 101 101 101 101 80 76 82 104 96 106 104 103 104 63 60 64 106 106 117 120 119 129 129 127 142 125 123 134 97 97 128 66 66 89 68 67 90 65 65 82 64 63 94 88 87 93 57 57 77 111 110 120 97 95 115 127 122 133 79 79 94 107 105 112 91 91 104 72 71 94 70 70 89 74 73 85 102 97 116 92 90 101 80 80 93 101 101 120 83 79 96 78 73 96 57 54 99 55 55 102 56 26 33 44 44 58 95 79 85 100 96 101 92 83 83 97 91 92 99 85 85 100 94 106 93 87 90 72 65 65 114 99 110 81 66 69 96 94 99 103 95 100 90 90 100 112 109 114 87 86 87 102 99 103 112 108 110 107 103 106 125 121 123 114 107 107 107 103 103 153 143 145 157 152 153 118 113 116 148 147 151 109 99 113 100 97 104 80 73 73 109 107 107 97 89 91 96 95 100 100 95 100 81 78 92 97 94 106 142 139 150 137 134 145 150 148 150 69 69 108 108 108 123 63 57 68 86 86 112 53 53 70 103 102 119 71 70 92 94 94 100 94 94 103 36 27 39 98 98 111 127 127 134 78 77 104 95 94 115 67 66 86 81 80 94 57 57 82 119 117 128 107 106 116 65 60 90 49 49 69 114 111 121 113 111 120 51 49 85 44 42 82 87 67 67 79 74 79 84 78 81 104 99 100 74 60 76 67 57 65 78 65 67 101 97 104 99 93 96 113 101 105 83 75 79 74 69 86 111 105 110 101 86 95 92 84 85 101 96 100 104 94 96 116 112 115 87 73 76 97 84 85 96 91 93 110 104 107 106 92 103 109 102 103 115 105 115 135 131 137 98 90 92 120 119 120 116 103 108 94 84 92 88 84 88 97 91 103 131 121 123 82 71 77 89 76 82 110 104 110 113 112 121 117 116 126 130 128 138 103 103 110 52 51 67 95 94 119 70 69 105 75 74 93 123 122 129 91 87 100 105 105 105 122 121 129 99 99 99 94 93 106 114 114 121 55 50 74 36 36 61 54 54 79 56 56 72 85 85 95 120 119 131 72 71 93 121 120 125 110 108 121 104 104 126 103 102 120 53 49 98 64 64 119 57 48 54 88 61 62 73 59 83 78 66 73 89 81 83 109 97 100 88 72 80 80 73 79 100 98 105 68 60 75 116 109 112 92 87 87 107 94 105 89 83 84 85 81 90 130 127 128 95 87 88 73 41 43 126 124 130 79 76 77 110 108 109 83 80 89 87 68 70 102 95 97 131 127 128 144 143 145 132 121 123 112 105 107 121 111 112 118 111 115 125 117 121 129 127 131 118 104 112 75 71 71 97 91 94 100 95 102 109 106 117 92 91 107 120 119 123 99 99 108 93 92 115 107 107 120 66 64 78 79 78 103 69 68 94 95 93 107 96 90 98 114 114 121 133 131 135 92 90 95 75 75 88 52 46 69 87 87 98 88 88 95 110 109 131 107 106 114 84 81 92 92 92 102 105 105 115 85 83 99 111 108 111 64 52 66 51 48 89 54 50 87 90 73 77 93 86 87 60 59 60 93 82 91 100 89 90 115 107 114 89 80 84 59 55 70 71 65 72 101 89 99 86 78 83 111 102 111 93 86 91 85 76 84 70 66 72 105 96 96 87 77 81 101 95 98 119 118 119 89 84 84 113 107 109 90 74 75 109 102 107 98 91 92 127 116 118 89 86 87 124 121 122 115 111 112 135 133 133 88 79 85 74 69 74 115 104 109 97 94 107 93 84 88 95 92 104 99 99 110 75 74 97 98 92 101 109 109 113 128 126 131 115 112 119 103 103 114 65 65 99 47 43 70 61 60 94 118 118 125 104 103 129 127 126 132 115 115 127 72 72 78 63 62 77 62 62 81 88 87 111 121 121 131 99 96 112 121 120 138 95 91 101 94 94 105 121 121 129 69 69 84 84 84 103 93 91 104 35 35 74 54 51 94 68 35 39 100 87 96 82 68 79 111 104 116 112 95 107 97 87 91 111 103 106 66 61 73 104 93 97 93 87 89 86 68 76 77 64 64 112 106 116 90 81 85 117 108 120 90 81 82 92 90 99 130 130 134 83 80 81 101 91 91 98 92 94 103 92 95 105 95 99 99 87 87 148 145 148 131 126 131 97 88 100 125 121 123 115 114 115 127 125 125 114 107 108 70 69 73 108 105 113 100 90 96 120 114 131 97 97 106 108 107 124 102 100 117 105 105 116 121 120 133 132 132 137 120 118 122 73 73 94 83 80 106 55 55 84 94 94 109 125 125 136 94 92 107 87 86 108 63 63 82 74 72 106 118 118 131 112 108 123 69 69 82 83 81 97 80 79 93 100 99 122 117 117 132 106 106 118 99 97 109 87 84 106 88 86 114 46 46 95 60 59 99 74 48 52 90 79 86 98 88 99 56 42 44 92 85 90 73 60 76 113 105 106 88 83 91 110 104 109 107 95 99 111 111 117 102 91 92 103 100 109 61 55 57 106 106 114 83 82 90 61 59 78 120 113 115 109 97 100 103 98 100 121 112 114 92 87 89 87 72 73 128 123 124 96 89 91 131 117 119 103 94 95 133 131 131 127 121 125 125 120 121 76 72 72 84 77 82 93 92 92 106 100 103 93 93 107 113 111 117 105 105 120 94 91 99 110 110 121 121 121 138 97 97 106 68 68 100 36 36 69 80 79 97 75 75 101 85 85 109 118 117 131 91 91 103 51 51 71 53 53 59 65 65 83 81 81 94 129 127 146 104 102 121 69 68 87 87 85 97 117 115 133 98 98 111 79 77 89 97 96 108 81 81 96 118 117 122 52 49 97 55 54 96 59 37 44 96 94 96 90 76 83 102 90 94 114 101 112 87 80 85 106 100 109 110 101 109 110 101 105 101 94 95 125 119 119 103 95 95 65 56 62 85 79 88 75 64 64 98 95 99 68 54 55 111 108 109 94 93 97 94 88 88 86 76 78 103 92 93 90 69 77 137 129 129 106 89 91 137 133 134 115 114 123 93 91 91 105 98 100 132 127 128 127 118 118 138 134 134 122 118 127 108 101 108 66 65 71 121 120 134 153 150 161 114 109 120 131 131 142 127 126 131 119 117 129 83 81 101 58 58 71 60 60 79 81 81 97 88 87 111 74 71 93 59 59 79 73 73 100 102 101 114 113 111 130 97 97 104 69 68 83 103 102 114 91 90 122 79 79 97 91 88 96 95 94 111 90 90 93 92 92 94 92 92 101 98 95 102 48 48 91 50 50 91 83 64 64 97 81 88 85 65 83 47 37 51 42 33 51 91 79 80 120 106 108 56 46 50 92 83 88 105 95 97 81 78 95 91 76 85 109 97 101 105 101 102 94 93 96 115 109 111 125 122 126 108 103 105 97 92 99 104 98 98 87 68 68 120 108 108 100 88 93 82 77 77 90 81 87 120 115 116 119 110 111 122 119 126 83 70 76 113 106 109 121 116 117 105 105 105 87 79 83 92 84 86 140 137 144 109 107 109 104 98 103 116 115 119 122 122 122 102 102 105 74 74 96 79 78 94 76 76 95 49 49 80 117 117 133 80 79 100 54 54 79 34 34 64 78 78 106 111 109 116 86 86 104 77 72 95 88 87 92 88 88 96 94 91 100 108 105 117 109 109 128 70 65 87 54 54 73 106 104 131 79 75 96 90 90 103 36 35 62 51 49 84 87 65 65 88 77 83 91 86 90 78 76 81 98 91 101 103 96 103 83 67 73 76 67 76 73 67 76 93 81 87 71 59 60 106 103 104 119 116 127 103 96 101 107 104 106 93 90 95 107 98 104 99 93 94 123 119 121 98 90 96 130 120 121 90 80 87 131 127 131 110 98 99 83 78 85 99 88 97 110 106 110 130 124 124 110 98 102 89 77 79 111 99 102 128 124 129 127 121 127 143 140 146 112 110 120 91 89 103 88 87 93 113 110 121 120 120 127 122 119 125 119 116 131 95 95 113 94 94 114 87 87 100 109 108 115 128 128 147 87 86 114 31 30 51 41 40 74 109 107 117 114 112 126 106 106 115 79 78 95 95 93 99 90 89 112 126 126 142 85 85 106 103 103 140 106 106 112 92 92 119 85 85 112 125 125 134 55 55 104 29 29 58 71 43 46 87 80 86 77 65 70 105 100 105 75 50 57 119 111 117 118 112 117 81 74 74 93 81 89 99 99 102 91 79 80 88 84 85 104 104 110 105 100 105 87 74 75 97 92 94 118 113 113 109 91 91 123 114 114 103 98 98 62 38 42 119 114 117 108 102 103 70 69 70 94 84 93 92 87 88 119 111 116 138 131 135 127 121 121 127 122 128 108 104 105 104 95 99 129 126 126 120 120 126 116 115 132 107 107 117 93 84 98 116 113 121 75 72 87 111 108 119 82 79 90 87 85 107 73 72 80 71 67 85 83 83 96 80 79 91 110 107 126 45 43 71 39 39 75 108 108 128 105 104 120 79 76 102 76 76 89 78 77 83 98 98 115 105 104 119 83 82 91 98 98 110 95 92 103 101 100 114 125 124 138 95 95 108 50 49 90 68 66 125 88 73 79 106 100 107 101 86 93 110 100 102 85 70 72 95 88 99 54 49 59 117 112 118 52 46 48 106 103 110 108 101 105 94 87 89 78 66 70 106 90 90 121 118 121 103 93 99 101 96 97 124 119 123 121 111 115 90 86 88 127 120 121 139 132 133 111 104 105 128 120 124 92 89 92 88 79 80 83 77 77 139 135 138 110 104 111 106 93 105 81 80 81 127 122 126 136 133 136 126 121 129 98 98 105 107 102 106 88 83 89 89 79 90 121 118 121 113 112 126 87 87 95 110 108 126 80 76 101 121 121 131 81 81 96 108 106 114 91 91 106 58 58 82 58 55 78 81 80 106 75 75 95 86 86 102 112 109 128 98 95 119 87 87 92 95 94 102 105 104 115 105 105 116 111 110 136 100 98 109 108 105 110 117 115 133 47 46 90 50 49 92 77 48 61 89 84 86 76 65 68 98 96 100 83 78 79 106 98 106 75 58 61 99 90 94 85 72 84 96 88 92 110 99 112 108 104 107 109 102 112 93 80 87 119 116 119 125 120 127 87 78 81 126 119 120 93 79 79 104 99 100 108 97 99 123 113 115 111 109 111 124 118 124 100 91 94 119 111 119 89 87 92 119 117 122 125 122 123 101 94 103 117 117 129 114 113 117 117 117 119 109 105 113 117 115 116 110 108 115 101 93 97 112 112 121 130 125 138 120 117 130 136 134 146 68 67 89 110 110 117 91 90 106 131 129 144 98 96 109 95 95 114 101 101 129 58 58 76 65 64 83 81 81 82 81 81 99 63 62 73 79 79 87 106 105 114 105 104 121 121 118 128 108 108 121 80 80 88 97 97 121 38 38 71 85 84 105 59 59 105 63 61 115 111 78 84 89 84 94 67 51 69 59 45 46 108 90 95 90 71 81 120 99 104 86 71 84 83 78 87 104 99 103 104 95 110 109 103 109 71 65 70 72 58 65 100 91 91 82 79 93 111 103 107 106 95 97 107 100 105 100 90 91 104 86 89 143 136 137 112 103 104 99 90 93 138 135 142 101 95 100 138 136 137 106 99 107 155 150 152 108 99 100 139 132 140 138 136 137 124 120 126 135 129 129 95 94 99 117 114 123 83 79 87 107 99 108 92 85 103 133 132 141 74 72 97 93 92 109 101 100 111 139 137 148 123 123 129 84 84 93 114 113 129 71 70 96 95 95 113 75 70 95 81 81 103 73 66 81 77 77 101 119 117 123 38 34 58 120 120 132 79 76 92 107 106 118 96 96 112 105 103 114 65 65 84 96 94 118 54 53 94 59 56 99 82 67 72 68 61 62 46 39 55 124 116 118 75 69 70 114 110 110 87 77 82 107 99 104 79 64 66 124 121 123 102 100 104 105 98 99 89 79 82 114 105 112 111 105 107 115 112 117 107 105 106 120 112 113 119 115 117 107 97 100 87 69 77 123 119 119 101 84 86 75 66 76 123 116 119 92 87 93 136 133 139 123 117 127 126 121 126 150 146 152 110 104 107 94 92 108 160 155 159 149 148 153 92 92 92 106 103 108 121 112 120 125 122 132 120 116 124 150 149 157 53 48 72 112 112 125 72 68 81 91 85 103 122 121 124 124 124 139 86 85 105 86 86 94 82 82 96 88 87 100 45 45 66 104 99 119 94 93 108 62 57 73 105 105 116 118 118 138 69 68 78 88 88 114 112 111 129 86 83 95 92 92 102 44 26 47 61 58 105 46 46 86 75 53 53 73 68 76 96 87 93 97 77 83 103 98 104 105 104 105 105 97 98 84 79 87 104 97 103 126 117 127 89 83 91 102 99 99 88 84 93 75 74 78 82 68 72 119 116 118 116 107 113 112 102 105 125 114 115 102 90 91 118 107 109 137 130 132 129 129 133 119 113 117 95 88 98 116 107 109 109 108 112 94 93 103 113 111 115 143 143 149 137 137 137 132 127 127 123 115 116 121 118 121 126 126 128 106 94 103 119 109 113 114 107 108 109 109 111 116 115 128 100 99 111 96 95 114 143 143 155 110 110 124 96 95 119 116 116 129 100 97 120 94 94 107 61 58 89 54 54 85 33 31 51 86 85 102 97 97 104 100 99 111 102 101 111 107 106 120 100 100 116 110 108 117 86 86 105 49 48 59 100 98 115 112 112 129 60 60 104 58 56 100 70 54 60 97 73 74 87 79 86 71 63 66 116 112 116 73 60 61 80 75 83 70 70 79 106 98 104 71 63 65 128 114 116 69 66 69 123 112 112 83 76 77 134 129 130 87 82 87 66 61 66 109 102 103 132 128 128 120 115 115 132 129 131 93 81 85 90 85 89 107 97 102 85 73 84 91 86 95 120 120 125 107 107 112 109 109 114 118 116 116 110 107 110 88 84 86 93 86 89 102 92 95 115 112 118 110 104 105 121 116 118 106 105 116 113 111 127 83 81 98 104 103 110 121 119 126 108 106 112 83 79 91 120 118 130 110 110 119 116 112 136 84 83 98 21 21 59 60 58 85 72 71 91 96 94 113 124 122 132 69 67 78 85 84 94 119 119 123 93 93 102 98 93 106 103 101 114 106 106 120 99 97 114 56 56 83 48 48 84 53 52 98 88 64 74 96 88 95 67 53 68 117 102 103 110 98 99 99 93 99 103 93 99 63 52 62 78 73 79 93 85 95 87 78 82 95 79 83 98 91 98 91 79 88 131 122 123 109 103 106 83 68 70 96 94 95 106 102 103 113 103 107 112 98 98 97 84 85 104 95 98 109 100 108 125 121 121 132 127 133 107 102 110 57 53 53 135 131 133 121 117 121 105 99 112 154 150 150 115 109 115 107 107 107 94 85 87 105 101 109 87 81 91 97 95 101 50 50 59 90 87 93 54 53 92 97 96 106 131 130 135 130 127 132 125 124 135 99 96 104 94 93 110 83 82 110 82 78 105 53 52 72 43 41 73 47 47 76 82 82 96 70 68 91 101 101 113 113 112 127 115 115 128 86 82 95 111 111 124 93 92 108 98 96 107 126 124 130 54 53 99 50 49 96 97 77 87 74 63 65 89 83 87 74 73 73 89 81 86 89 85 86 107 96 102 81 68 84 73 69 71 105 96 97 79 67 72 101 99 107 111 103 108 109 105 119 102 91 96 94 92 98 102 97 99 114 114 114 109 97 99 56 28 38 117 110 113 91 77 78 123 120 121 126 124 125 95 89 92 109 106 109 114 114 125 109 104 110 111 110 111 112 112 124 132 127 129 144 140 142 135 129 130 112 106 108 95 90 92 137 131 137 120 118 128 108 100 110 126 124 139 110 110 126 108 107 121 111 110 119 101 98 106 146 145 150 86 79 93 126 126 136 75 74 99 108 106 117 87 87 110 51 47 78 48 48 86 73 73 85 120 120 137 114 114 132 87 87 93 97 96 110 101 100 110 109 109 123 96 93 106 82 81 98 79 79 95 99 99 104 49 47 89 62 57 100 90 77 78 100 89 93 66 60 69 82 79 81 53 36 48 64 60 63 100 90 98 76 66 66 100 94 98 82 73 86 87 84 85 80 68 79 100 97 101 101 100 104 76 70 82 110 107 109 69 59 62 122 117 118 130 129 130 114 111 111 106 102 106 107 102 103 99 89 90 151 148 148 109 105 110 127 120 120 99 98 113 130 129 136 124 123 130 110 109 121 91 91 104 102 95 97 128 122 125 118 117 117 71 69 70 124 122 125 59 52 62 103 101 110 108 108 118 98 97 107 78 78 86 100 100 116 120 118 126 128 124 128 125 119 134 113 112 120 115 113 124 70 67 89 55 49 84 50 47 50 92 90 120 104 103 116 95 95 98 101 100 117 98 98 107 61 56 78 93 93 110 113 112 124 85 85 104 82 80 98 112 109 128 76 76 96 44 44 85 41 38 70 69 42 57 71 55 61 98 87 87 65 50 50 64 55 71 90 90 94 107 99 103 81 70 74 98 94 95 91 83 89 68 55 63 126 124 129 80 71 83 116 109 112 108 103 109 103 92 96 123 112 118 90 81 83 99 88 89 115 108 109 115 106 107 133 125 127 95 85 90 131 127 128 107 96 102 108 103 104 124 121 125 104 100 110 99 98 101 135 135 144 130 127 139 99 92 100 141 136 139 131 127 128 105 102 107 111 100 105 61 59 69 121 120 126 115 110 121 100 99 111 104 102 106 133 133 147 116 116 121 95 92 93 108 107 110 111 111 116 91 89 104 91 91 110 68 68 88 35 33 60 79 79 84 117 115 123 72 71 91 89 88 100 116 115 127 95 94 99 104 103 117 85 85 109 103 102 108 69 69 86 111 111 131 65 59 60 49 49 95 50 49 92 59 28 33 94 87 98 90 90 99 95 82 84 94 81 89 67 63 71 101 94 95 81 81 86 98 89 92 100 91 92 107 104 106 105 98 101 113 111 114 135 129 130 37 15 30 123 117 122 112 110 114 82 78 80 112 106 108 125 117 118 134 123 123 137 124 125 115 114 115 127 121 124 79 70 74 98 95 96 116 112 119 75 67 75 74 71 92 109 107 114 98 91 99 102 99 103 143 136 139 85 82 82 117 110 112 117 109 111 78 74 78 99 94 108 133 132 141 87 86 94 87 80 87 114 113 125 130 126 134 111 110 119 97 95 110 94 93 111 84 81 92 61 61 90 65 64 96 58 58 86 50 50 58 73 71 86 92 90 103 100 99 118 75 75 78 118 117 133 110 109 125 122 122 125 69 68 81 84 82 98 86 86 97 86 85 99 53 53 91 54 52 93 69 54 55 104 101 104 91 85 95 90 84 85 102 92 95 88 87 101 107 99 108 110 97 99 116 112 112 93 86 92 79 72 76 101 96 96 81 81 87 82 81 83 110 106 107 114 111 115 115 111 113 64 58 62 118 112 115 132 118 121 94 81 82 105 100 100 82 74 75 119 110 118 98 91 97 101 95 96 82 79 89 83 79 97 113 106 114 143 140 148 117 115 123 85 81 85 104 99 101 64 59 59 115 100 108 115 109 113 105 105 119 100 99 108 90 90 104 101 101 113 93 93 102 58 50 83 113 111 118 82 80 92 83 83 98 121 121 128 124 123 136 95 93 114 76 75 105 45 42 75 74 74 92 110 110 123 70 70 85 94 93 108 99 99 110 80 80 94 88 88 106 82 82 99 96 96 98 107 107 120 61 59 85 115 115 128 36 36 70 51 49 97 70 60 60 104 87 88 105 88 92 80 73 74 72 66 67 94 91 92 117 114 115 95 90 93 99 92 93 123 115 122 132 126 127 85 84 86 91 83 83 119 113 115 124 112 113 88 82 86 100 81 82 80 63 70 121 116 122 128 121 122 139 134 135 133 129 134 132 121 122 113 108 116 92 86 89 92 88 91 81 76 82 106 105 116 101 98 104 134 131 140 106 98 109 100 88 95 112 110 114 137 128 129 101 81 96 120 118 125 122 114 119 123 123 138 102 98 119 112 112 127 97 96 121 84 83 98 130 130 149 113 109 111 113 111 117 82 82 104 106 105 114 66 66 77 71 69 88 74 73 87 104 104 111 72 70 82 100 99 113 107 107 112 90 87 100 83 83 101 96 95 109 117 117 121 104 104 114 107 106 122 79 79 98 60 56 70 46 45 92 51 50 93 96 77 84 93 86 87 60 48 48 66 46 50 106 97 98 93 73 81 74 65 68 112 103 111 116 108 108 75 67 73 75 61 62 96 95 97 98 91 96 86 77 81 95 85 91 99 95 97 97 89 91 80 75 76 123 112 115 123 113 115 125 119 121 114 112 114 132 119 123 124 121 125 93 83 88 114 112 113 116 111 115 108 106 120 117 114 122 134 126 128 153 151 162 104 95 95 147 140 142 89 74 82 109 105 109 96 86 96 108 103 112 96 95 100 132 132 139 78 76 85 112 110 118 90 89 90 101 101 115 112 109 120 90 88 103 124 121 128 126 125 131 126 126 133 90 89 96 67 66 97 68 67 104 67 67 83 54 53 72 65 65 70 103 101 106 84 81 93 122 122 133 83 83 101 89 86 97 103 103 120 87 83 106 103 102 120 55 54 106 51 49 97 53 28 31 79 71 72 87 78 78 105 99 103 80 72 75 100 82 94 79 72 81 75 58 61 114 113 115 98 86 89 96 90 93 91 85 86 101 91 93 103 96 96 98 90 90 67 38 43 96 80 80 101 94 95 123 123 123 147 140 143 134 123 123 99 85 97 127 122 126 94 89 98 98 88 92 82 77 89 98 88 92 106 101 108 102 99 106 122 117 121 83 73 98 110 103 109 136 133 141 109 107 113 80 77 88 101 100 113 110 105 112 122 121 135 114 111 120 97 96 100 110 109 120 99 99 115 128 125 130 116 115 133 102 99 103 104 104 120 112 111 121 91 90 102 125 124 134 90 89 103 45 32 56 63 62 72 70 70 93 73 73 80 84 84 89 100 98 106 97 97 103 105 105 114 102 102 122 111 111 119 67 67 85 95 95 107 25 25 60 68 68 118 89 69 77 89 81 85 74 63 64 90 89 90 75 69 82 83 78 86 83 72 86 59 40 58 91 89 90 114 109 110 114 103 111 97 90 95 70 69 69 75 68 69 104 100 102 114 112 114 133 124 125 115 110 115 130 125 125 120 112 116 111 105 110 79 71 74 121 121 125 108 104 115 85 82 93 101 93 111 52 45 52 101 94 102 122 116 125 98 94 98 128 119 120 93 84 89 98 89 94 92 88 89 101 96 112 122 117 126 124 124 133 137 136 146 116 113 119 134 132 149 135 135 142 139 139 143 131 130 134 85 78 84 87 87 91 92 91 104 94 93 108 76 76 76 119 116 126 86 84 101 43 40 72 91 91 111 55 55 85 33 32 61 63 62 80 68 68 83 101 100 113 93 93 100 111 111 113 104 102 109 84 84 94 111 109 113 54 54 95 61 61 108 67 37 37 92 86 87 89 83 84 81 75 76 86 71 74 97 92 99 100 93 101 86 80 81 81 81 81 90 79 82 102 97 97 125 121 121 108 103 104 100 94 94 107 102 107 106 97 97 105 97 99 82 75 75 88 84 87 85 78 80 121 112 113 84 80 80 132 124 125 118 116 121 105 104 113 89 87 87 80 74 88 111 108 125 99 95 101 100 100 100 105 103 109 107 104 105 115 107 108 62 53 72 116 114 120 113 108 113 119 108 124 84 83 100 103 101 109 126 126 128 79 79 90 106 105 118 109 102 115 112 110 117 67 62 68 129 129 140 75 75 84 84 84 94 118 113 116 113 110 119 85 85 107 82 78 99 112 112 121 41 40 78 82 79 91 109 108 124 69 67 96 73 72 96 122 122 135 135 135 142 100 96 112 78 78 93 57 55 104 33 28 77 63 41 43 100 97 107 80 69 70 105 102 104 78 74 85 83 76 77 75 69 76 81 73 85 112 107 107 115 108 113 89 79 88 79 72 75 115 104 104 106 101 101 89 71 77 114 104 105 70 60 64 54 51 61 97 92 93 103 96 99 138 132 132 104 96 96 83 76 79 105 101 102 90 89 90 114 109 118 64 62 75 82 79 84 65 63 71 74 73 74 87 77 78 77 71 73 101 98 104 104 96 107 38 37 50 91 81 87 114 111 123 132 131 143 115 115 121 125 123 135 79 77 91 150 148 157 88 88 100 135 135 137 84 78 89 114 114 124 94 90 105 114 113 116 101 98 102 97 96 119 83 77 99 65 65 90 87 85 88 55 55 85 63 63 84 100 100 114 95 94 112 121 120 138 119 119 130 84 83 95 97 94 118 99 99 106 43 43 86 41 41 75 79 44 45 87 75 77 80 60 72 53 53 65 112 103 111 97 94 98 111 106 110 76 64 66 106 96 104 103 95 101 113 111 111 118 113 113 100 85 85 86 83 84 111 108 109 85 77 85 93 91 91 82 81 82 88 85 86 68 67 69 73 71 71 68 63 66 61 51 55 110 108 108 100 100 116 53 50 56 116 116 118 153 152 154 83 74 75 97 93 96 113 110 115 145 135 137 145 139 144 109 98 98 97 92 96 107 106 116 95 95 110 97 89 95 107 107 116 90 89 103 124 124 136 135 133 140 113 112 122 98 98 111 131 130 138 92 91 97 72 72 83 118 116 123 110 108 110 76 75 84 66 66 86 73 71 99 56 54 88 43 41 63 63 62 86 68 66 97 89 89 96 57 57 78 100 100 114 74 73 89 88 88 98 87 86 105 65 65 102 59 54 102 