P3
64 64
255
92 79 87 78 75 80 83 77 81 80 75 81 68 55 65 72 59 72 86 76 81 83 76 81 107 103 108 116 108 113 88 85 90 74 65 70 87 84 94 90 86 94 115 103 106 72 61 72 102 97 101 72 72 75 72 63 66 41 40 44 86 77 86 72 58 64 91 84 91 45 39 40 78 73 80 88 84 88 105 103 112 100 97 97 71 66 72 98 98 115 98 97 109 86 85 85 78 76 90 97 96 104 106 104 116 85 80 97 71 71 88 99 96 108 75 75 84 82 82 97 91 86 90 77 76 90 90 90 100 91 91 100 78 78 86 78 77 90 92 92 101 92 92 103 59 58 79 121 120 128 99 99 112 80 79 87 93 92 104 90 89 101 89 89 99 65 64 82 69 68 93 85 83 95 87 85 102 62 62 79 54 54 74 95 94 107 61 61 72 83 78 112 80 63 66 81 69 75 87 72 75 90 89 94 108 92 97 117 109 116 77 65 66 74 57 61 47 39 41 103 88 89 106 104 105 89 81 81 97 80 81 99 96 99 47 39 42 103 102 106 104 99 103 85 78 78 114 110 114 125 121 127 84 79 84 112 104 109 108 97 99 89 86 94 77 74 77 75 72 78 81 81 89 112 107 110 74 62 69 92 90 92 109 106 110 62 57 63 88 88 88 88 88 93 92 92 98 77 75 81 70 69 77 93 92 102 81 81 93 79 73 92 101 101 110 114 112 121 42 41 58 107 105 116 113 113 124 115 115 126 93 93 109 73 70 85 118 115 129 96 94 106 96 95 107 93 91 110 112 110 131 92 92 104 83 82 95 113 113 123 101 98 110 89 89 100 68 68 83 78 78 100 88 87 105 37 23 44 67 65 104 47 46 92 58 28 28 101 89 91 68 66 73 75 65 65 96 92 92 74 64 64 108 105 105 111 106 109 105 95 99 106 95 99 115 109 114 89 72 74 87 84 84 99 92 95 90 90 92 118 114 114 121 120 121 86 81 89 100 94 96 105 101 107 113 112 115 101 99 99 96 94 96 112 107 114 121 118 118 110 105 105 95 88 89 100 91 102 118 110 114 85 83 95 118 116 121 78 75 79 101 97 103 109 109 113 63 63 67 63 62 77 108 105 114 96 96 98 108 108 110 77 77 90 120 116 118 69 69 80 103 103 111 118 112 124 73 73 79 102 102 109 90 86 95 61 58 79 98 98 115 95 93 98 117 117 118 81 81 87 89 85 96 102 102 113 95 95 109 92 85 100 97 94 102 120 120 128 94 94 107 89 89 96 94 90 104 95 95 107 71 65 122 48 44 91 77 60 66 88 83 83 88 78 80 98 90 93 93 84 85 100 93 99 75 68 70 108 102 111 65 61 82 105 95 99 109 103 104 73 71 77 87 71 75 108 102 103 122 115 116 128 119 119 109 107 112 102 98 106 114 112 116 108 106 108 105 105 105 106 102 113 93 93 93 107 103 104 104 99 103 135 124 127 91 87 93 86 84 100 98 95 95 101 97 110 98 98 102 99 94 113 113 110 115 86 81 87 125 124 128 100 100 105 81 81 89 89 89 92 81 81 85 99 98 104 67 67 70 94 87 102 92 92 95 108 108 117 120 120 136 108 106 117 124 124 131 122 119 126 111 110 124 98 97 103 111 107 116 112 105 118 102 101 109 112 112 121 121 121 128 96 96 107 69 69 81 100 100 109 103 103 115 113 113 125 103 100 108 88 88 120 55 52 101 46 43 81 53 26 26 79 68 69 98 86 89 75 69 83 87 79 79 82 69 71 79 66 69 132 125 133 88 81 91 103 91 92 86 78 89 79 75 82 122 118 120 130 127 128 121 115 116 93 88 93 88 84 91 106 95 98 114 111 113 45 45 45 67 64 67 76 71 76 107 105 113 94 94 96 97 91 103 115 112 118 115 115 116 93 88 93 113 112 114 74 67 80 80 77 86 110 107 117 93 92 105 88 86 86 133 132 138 105 102 109 106 106 110 120 119 128 126 123 131 116 112 117 129 128 133 128 127 138 83 77 83 115 115 125 115 114 119 113 112 120 81 77 79 108 107 115 123 123 133 92 90 103 73 72 78 108 108 121 81 81 98 118 117 125 106 106 107 94 94 102 96 94 115 91 88 107 106 106 112 143 142 148 113 111 129 93 91 107 63 58 103 28 27 58 89 61 71 77 77 86 35 20 26 78 68 69 71 70 71 108 99 102 91 86 90 77 67 67 97 94 95 92 90 92 104 103 106 86 79 84 86 85 89 93 92 98 121 117 119 116 110 114 86 82 85 119 119 119 76 74 82 93 89 92 90 90 90 85 76 81 89 77 85 102 101 105 116 116 121 105 95 105 89 88 101 109 107 112 123 122 126 115 115 116 110 107 115 100 97 101 76 70 83 106 105 111 59 49 60 69 69 82 95 91 107 171 170 173 116 116 125 145 145 150 125 125 131 125 125 134 109 107 118 94 91 106 119 119 121 97 93 100 99 98 108 84 83 96 123 123 132 45 45 45 81 80 101 67 65 69 98 96 117 131 131 139 109 108 115 70 67 76 123 122 139 106 106 117 91 86 98 99 99 99 116 112 119 68 68 80 51 45 83 49 44 85 77 47 54 86 77 85 75 61 64 49 27 27 89 83 85 70 67 86 101 95 102 102 95 95 89 77 83 64 57 70 115 107 109 101 98 102 128 124 124 84 76 79 100 97 101 99 93 103 87 82 84 100 98 100 116 109 110 106 99 104 91 91 99 107 103 106 84 76 92 88 84 87 122 114 119 148 146 152 108 106 113 84 76 85 102 98 98 77 75 78 47 47 54 53 51 65 88 86 97 84 80 82 103 100 108 83 82 94 75 73 85 105 103 105 108 108 115 105 105 117 104 103 106 97 94 104 85 85 106 117 117 122 121 117 120 102 101 116 79 79 105 118 115 126 94 94 110 120 120 125 89 86 96 125 122 127 112 109 121 99 99 108 106 106 120 123 121 125 109 105 114 129 129 131 73 73 84 76 76 84 101 101 113 76 76 97 37 35 80 59 59 102 108 86 90 75 65 67 97 88 90 120 112 112 86 76 90 104 94 95 62 53 53 11 11 31 91 73 79 107 102 108 105 105 105 100 92 94 112 100 104 120 101 108 112 107 109 97 91 95 80 77 77 92 90 90 103 101 105 91 89 97 97 97 104 90 88 90 100 96 100 128 121 126 110 105 107 71 66 71 63 57 57 67 65 71 63 53 60 83 83 86 89 82 87 47 47 54 82 76 76 116 112 113 84 84 97 76 75 92 58 56 68 114 114 126 104 104 108 118 118 120 70 66 70 105 105 105 111 111 121 90 88 96 124 122 126 89 88 96 102 99 113 76 73 90 124 122 137 71 71 84 84 81 93 132 130 147 106 106 116 104 102 110 76 70 82 95 94 103 99 99 111 94 94 98 102 101 117 99 96 113 101 101 114 94 92 112 43 43 77 52 52 94 60 45 51 91 77 80 97 81 87 84 68 70 71 65 67 110 99 103 101 94 97 86 85 102 77 76 92 130 121 121 48 45 53 99 93 95 110 107 107 83 75 75 97 97 97 111 104 108 111 103 106 93 90 97 69 68 81 95 88 91 72 70 76 66 61 73 76 69 75 93 88 89 69 67 74 88 80 83 90 90 100 91 86 88 83 75 91 77 70 77 94 93 99 100 98 104 94 91 98 85 80 90 85 85 102 53 52 60 80 80 111 74 73 80 45 45 77 112 108 129 109 108 111 107 104 116 64 63 64 98 98 116 100 96 104 125 121 132 104 104 125 96 93 105 102 93 113 92 90 96 70 69 80 80 80 90 106 100 106 53 43 65 72 71 86 100 97 103 108 104 115 118 118 131 140 140 146 85 85 93 93 91 102 51 48 67 53 52 99 23 23 55 72 66 72 51 47 49 53 48 48 82 74 79 97 91 99 69 66 73 67 56 67 96 91 97 92 83 83 61 51 58 111 106 108 84 65 66 130 125 128 99 91 92 94 89 89 102 99 102 119 117 119 92 88 90 117 112 112 113 107 107 92 88 96 54 52 54 107 92 100 86 80 88 74 58 69 94 91 102 72 62 75 96 96 102 101 101 106 60 54 57 81 79 89 76 76 86 99 93 105 87 84 87 68 63 86 81 81 94 87 82 86 71 67 82 51 51 62 52 45 69 80 78 81 85 85 88 88 88 98 75 72 85 86 82 94 90 87 102 112 111 116 113 112 121 95 95 105 93 91 106 111 110 123 71 67 76 85 85 99 101 99 125 102 99 108 109 103 120 112 112 122 129 125 134 83 82 97 90 90 112 141 141 145 102 99 112 41 41 88 50 47 87 74 48 64 58 51 65 78 68 68 64 51 59 94 82 86 111 104 106 124 119 121 84 75 76 101 95 95 65 56 63 113 103 107 92 87 89 94 89 95 79 72 76 94 85 92 93 76 80 103 98 98 89 81 87 98 82 82 85 80 86 116 113 118 81 75 78 77 62 66 54 40 48 90 87 92 96 88 94 83 75 83 54 44 49 81 81 88 97 92 98 97 93 98 72 64 67 70 70 77 82 77 85 63 60 76 83 78 90 86 83 104 58 48 73 79 78 87 66 65 77 86 81 96 77 72 85 65 65 77 92 91 106 106 105 110 122 121 134 81 78 94 111 111 127 113 109 122 113 110 120 86 85 98 114 113 123 127 125 132 99 97 108 101 101 105 106 105 110 112 110 112 61 60 73 87 86 89 104 103 108 99 94 109 105 105 119 57 57 106 50 46 85 32 20 28 68 59 67 91 80 87 69 61 63 76 70 70 112 104 105 90 86 91 101 86 92 96 90 92 100 90 93 118 114 117 96 92 92 111 110 114 90 86 91 90 80 85 72 63 64 110 97 98 71 61 67 78 72 74 82 69 74 67 66 67 109 100 101 67 64 68 90 83 86 54 46 54 87 82 91 117 109 109 100 90 94 100 98 104 97 95 102 97 90 98 73 68 76 91 89 95 84 82 96 80 74 85 60 58 81 90 88 103 84 79 87 68 67 81 63 57 82 61 61 79 73 72 76 59 58 84 105 102 115 74 73 110 125 125 128 97 96 106 104 103 114 86 86 92 93 92 102 100 98 111 109 109 126 92 86 104 83 79 90 74 74 93 102 100 112 101 100 112 89 85 94 102 99 115 87 82 113 109 109 123 83 76 79 55 55 97 48 48 89 108 71 75 65 65 69 98 84 94 81 72 75 104 97 97 104 92 94 94 83 97 79 67 69 107 103 104 120 106 106 128 120 124 120 116 127 112 103 108 94 82 92 105 93 98 96 85 90 134 126 128 114 104 104 83 71 72 100 91 94 99 96 96 79 67 74 115 113 113 65 53 55 94 88 91 119 115 118 116 111 111 79 72 75 73 66 75 81 77 83 111 108 114 79 69 78 77 77 83 97 96 106 76 71 74 63 63 80 95 90 108 59 56 81 50 50 69 86 85 112 74 74 85 75 73 93 81 81 96 82 81 102 50 50 67 81 75 83 121 121 129 112 109 116 85 85 90 105 99 120 120 119 128 112 108 123 60 60 76 66 66 90 89 89 101 100 100 115 117 114 128 107 104 120 111 111 121 81 79 86 105 103 117 77 77 80 44 44 85 51 46 84 72 53 57 91 81 89 120 116 118 81 76 85 102 90 94 100 94 99 83 77 82 100 89 90 58 44 54 109 104 107 85 79 85 121 116 121 119 118 121 101 94 94 107 99 104 140 134 136 84 69 69 85 76 86 125 116 116 117 112 115 89 88 89 124 120 124 72 70 75 116 110 113 142 138 144 103 96 99 101 94 101 100 95 98 103 96 101 102 94 100 117 111 116 117 117 130 114 114 119 89 87 96 69 66 76 78 75 95 87 82 93 84 83 101 40 38 61 56 56 81 63 62 77 62 61 82 79 79 92 67 67 93 85 84 94 116 116 129 83 82 97 104 104 111 112 111 116 66 64 96 97 97 112 83 83 98 120 120 127 83 81 89 96 94 104 97 97 105 70 70 85 115 115 129 110 107 129 55 52 62 59 59 65 87 87 98 42 41 87 62 61 103 101 76 79 65 60 61 82 77 82 118 104 108 104 99 105 60 59 60 134 127 130 75 62 64 63 51 56 128 114 114 95 82 87 135 132 132 104 97 103 78 73 75 140 136 138 131 126 127 70 60 61 102 93 93 97 92 98 101 89 92 115 109 110 106 100 104 137 133 134 119 116 119 115 115 120 121 115 119 140 134 139 130 129 129 130 127 129 112 101 107 114 110 112 148 147 149 104 99 109 114 109 123 109 109 128 96 91 109 81 81 102 57 57 79 45 45 63 52 52 75 74 73 83 47 47 65 61 56 72 64 64 89 59 57 79 98 94 108 57 55 70 97 95 98 130 130 139 81 79 93 109 108 114 119 118 128 74 74 77 109 107 108 96 95 107 109 109 114 96 94 114 103 103 113 76 75 98 62 62 89 101 101 115 91 89 111 66 66 121 62 60 109 77 41 57 108 95 101 71 53 53 100 97 103 110 104 113 92 78 84 76 73 79 90 71 79 70 62 63 87 68 70 118 118 122 113 98 101 131 127 128 117 107 108 75 66 71 80 69 75 62 57 60 87 82 83 116 109 112 132 124 124 140 132 134 123 115 118 140 134 138 109 101 105 122 117 129 110 91 95 96 92 99 72 63 68 116 110 114 135 131 132 106 104 108 128 122 125 126 126 134 121 118 125 98 96 98 121 121 129 100 98 112 74 73 95 53 45 59 46 46 71 76 65 83 47 39 70 36 36 45 61 61 85 19 17 31 72 72 93 103 103 106 66 63 73 77 77 100 113 111 122 86 86 91 134 132 147 112 112 124 85 85 102 113 113 125 116 112 124 112 112 123 101 100 116 94 94 109 91 90 100 104 102 115 88 86 108 37 35 67 43 43 80 80 59 65 95 89 100 98 88 94 75 66 77 89 85 86 72 58 70 107 102 108 104 98 99 95 86 91 79 63 63 90 84 87 79 61 62 109 101 103 111 96 99 99 95 96 112 100 100 73 68 79 86 73 73 131 118 120 100 88 90 147 145 149 133 127 129 136 135 136 105 97 99 116 113 118 120 113 114 121 117 119 100 91 96 121 115 118 116 112 112 113 108 117 111 110 116 126 124 131 174 172 179 80 77 85 100 96 100 98 97 111 64 61 74 70 70 95 55 49 68 78 77 93 29 29 48 74 70 86 63 62 81 62 62 63 84 81 100 63 63 83 102 100 119 117 117 119 75 75 93 109 107 117 115 112 125 106 104 122 99 99 105 103 99 112 94 94 112 90 88 96 108 105 115 80 80 92 78 78 95 105 105 128 118 118 129 76 73 127 63 62 104 85 78 80 100 84 89 118 108 111 87 69 76 86 79 83 71 64 67 69 45 62 87 79 80 94 81 84 79 69 73 120 110 110 73 57 61 94 86 87 120 114 114 87 81 87 76 66 66 95 88 89 123 116 120 122 114 116 173 170 170 102 97 97 139 138 138 131 126 131 134 133 136 111 108 111 151 146 147 134 129 129 153 146 147 100 88 89 141 138 139 115 114 125 114 112 119 164 163 170 133 133 147 77 74 82 108 106 110 129 128 140 84 84 99 70 69 86 74 72 88 77 77 95 82 80 92 69 69 91 38 38 65 82 81 107 65 64 76 97 97 109 52 52 53 107 107 118 119 119 141 39 39 68 78 78 88 115 115 131 127 127 135 108 108 126 118 116 130 104 103 114 117 117 132 116 116 125 106 106 125 112 110 128 98 97 114 48 46 85 73 73 132 92 64 66 86 84 84 130 122 127 77 57 58 81 74 78 105 98 98 40 24 24 109 101 104 80 71 82 72 68 68 105 88 88 97 91 95 120 117 118 113 107 109 113 107 108 73 60 61 114 103 107 127 123 123 141 130 130 130 113 115 120 114 114 109 94 97 115 115 118 101 101 101 141 140 143 128 126 130 112 109 110 122 120 123 123 119 123 98 93 99 118 117 129 113 112 116 122 122 132 130 126 133 102 102 107 100 98 106 96 94 101 107 106 131 69 68 88 46 38 69 55 51 70 77 77 96 61 61 85 68 68 91 75 74 90 60 58 89 54 53 68 93 88 100 60 58 80 96 95 107 91 90 100 101 99 114 73 69 101 102 99 121 65 64 89 118 117 138 95 93 113 102 100 113 91 87 108 68 68 86 78 78 98 107 107 131 55 53 93 58 58 107 97 65 67 93 77 89 93 80 91 109 98 101 68 61 77 102 102 106 91 80 85 92 82 93 128 119 124 78 73 78 113 111 111 116 111 113 107 99 101 91 78 79 98 90 91 111 102 104 115 102 106 102 101 102 147 138 142 113 107 110 131 128 130 150 145 148 118 112 116 94 81 86 118 109 115 108 104 108 115 113 113 128 121 129 86 79 80 106 100 108 98 98 104 93 91 109 118 118 133 100 98 102 106 105 109 114 114 117 116 115 125 83 83 119 69 69 87 93 92 107 89 89 109 73 73 95 52 50 73 71 71 85 63 63 98 70 70 97 62 62 80 69 69 89 93 93 105 128 128 149 89 80 102 86 86 104 102 101 110 87 82 99 110 110 127 97 94 108 104 104 113 111 106 116 136 134 142 79 79 90 84 84 94 133 133 140 54 50 91 51 50 97 76 55 62 51 38 43 70 57 67 62 58 59 97 89 99 115 110 110 105 95 101 59 54 57 71 65 72 84 70 81 102 95 95 108 106 108 102 99 104 120 115 117 92 83 87 149 134 135 99 90 91 145 132 132 124 112 114 127 122 123 98 84 89 140 137 139 109 103 109 105 94 94 111 108 109 88 82 84 135 126 130 91 73 73 105 100 107 92 87 96 0 0 0 96 95 107 116 116 126 147 146 158 126 126 134 99 99 124 107 106 121 62 60 73 67 67 90 108 108 129 99 99 112 63 63 73 76 74 94 66 66 90 66 65 94 44 42 73 68 62 103 90 90 100 92 92 106 92 92 109 116 116 123 89 88 104 79 78 89 72 72 87 104 103 119 84 81 100 96 93 110 118 118 133 81 81 92 114 109 121 90 88 102 88 88 108 66 66 123 59 57 100 100 73 79 61 56 67 86 78 85 96 85 94 77 57 63 87 85 94 87 84 84 106 97 102 56 34 37 56 48 51 109 95 98 100 81 83 84 76 84 93 83 84 97 95 99 108 93 93 125 120 121 149 140 140 102 95 97 115 103 107 116 107 108 116 114 117 107 103 106 105 101 102 87 84 91 96 87 92 121 113 114 97 87 93 118 110 118 129 129 133 103 103 105 92 87 90 130 126 129 107 106 112 118 118 124 90 90 114 108 106 122 117 117 129 97 95 120 93 90 102 97 95 111 71 71 87 62 57 82 49 47 62 72 71 88 48 46 82 47 46 68 76 76 87 100 100 110 103 103 120 81 80 93 98 96 115 92 91 113 88 87 106 111 110 122 126 126 132 116 115 126 118 118 133 101 101 106 97 95 110 106 105 125 92 92 100 49 45 83 58 58 107 74 61 67 83 75 94 69 52 57 93 63 68 88 77 84 86 79 87 105 94 96 95 85 85 101 91 97 91 83 86 110 108 119 60 59 65 100 88 89 105 98 103 72 65 66 120 105 107 168 159 160 85 76 77 142 133 134 118 103 104 99 98 104 129 117 118 89 86 86 84 76 76 94 89 91 98 87 90 87 73 78 93 92 95 118 111 119 85 85 95 108 102 102 120 118 121 115 113 118 121 117 128 115 115 127 103 103 110 105 105 113 111 111 119 117 117 124 97 97 114 68 68 78 76 74 84 36 34 60 73 73 77 78 76 100 51 51 75 55 55 75 103 103 119 97 96 107 118 118 130 92 91 106 101 100 108 110 110 117 120 118 121 79 76 101 103 95 112 90 90 106 105 102 118 88 87 106 89 85 109 55 53 75 45 38 67 61 59 109 47 44 80 83 69 71 63 52 54 81 68 75 97 81 100 86 68 74 66 63 63 74 73 77 82 79 79 91 79 84 119 114 115 121 117 119 84 81 81 116 103 103 108 96 99 106 91 97 87 74 76 129 124 125 118 113 116 144 137 138 98 94 96 105 99 100 118 107 111 114 114 120 109 102 102 125 122 124 94 85 86 128 128 130 94 90 96 109 107 120 116 112 120 112 108 115 95 92 118 68 66 73 74 69 80 124 122 123 82 81 96 130 127 133 89 89 97 110 110 123 71 71 91 105 105 119 71 71 88 74 74 87 80 80 107 66 62 89 53 53 90 52 52 64 89 85 88 65 65 72 100 99 113 80 79 96 101 101 119 77 72 90 102 97 105 114 112 122 87 83 96 87 87 100 96 94 100 51 50 65 66 65 75 134 132 138 108 103 120 40 38 77 36 35 65 90 73 76 75 68 73 116 108 116 98 92 101 99 94 95 68 58 59 118 112 118 84 72 82 79 70 78 88 76 77 123 110 111 114 107 109 76 71 75 99 80 80 103 96 100 98 94 94 140 130 130 117 105 107 104 96 100 99 95 97 92 88 92 93 90 91 103 86 87 101 92 96 96 92 92 68 60 75 83 76 80 81 74 90 91 91 101 79 69 80 116 113 125 93 93 97 97 94 98 105 103 107 127 127 136 116 116 123 144 143 151 105 105 117 115 115 130 82 82 98 104 104 106 96 96 100 64 64 91 41 40 49 41 39 67 82 80 100 65 62 92 73 71 94 88 87 103 98 98 108 99 97 121 116 114 127 118 113 130 91 91 100 59 59 83 110 109 123 91 91 104 101 100 117 90 87 102 101 101 118 108 107 116 135 133 149 45 45 86 59 57 94 48 17 23 80 76 87 109 97 97 105 105 105 67 55 65 101 85 91 73 66 73 79 72 72 81 67 75 87 70 79 101 93 98 90 88 89 77 68 73 113 106 110 103 91 96 136 136 137 123 112 114 106 103 103 154 150 152 92 88 90 111 102 104 64 63 64 86 79 80 82 76 79 114 105 106 86 80 85 79 74 83 105 103 111 105 101 113 98 94 98 97 97 101 103 103 109 99 95 107 114 110 112 99 98 104 91 85 91 124 124 142 115 112 127 121 119 131 116 116 129 116 115 127 78 75 102 65 64 72 90 90 119 57 57 73 87 85 101 112 111 123 104 104 108 107 105 117 106 104 112 89 89 103 80 80 87 113 113 128 58 56 96 87 85 95 93 88 96 81 78 109 121 119 133 104 102 109 81 78 89 102 101 116 84 83 98 54 53 97 66 65 124 37 21 35 79 70 72 101 91 101 100 89 90 73 55 60 58 48 48 65 52 62 89 77 85 98 86 96 64 63 70 87 81 82 98 95 96 98 88 90 102 97 97 107 105 106 98 89 90 102 96 96 73 66 69 125 119 120 106 92 97 93 91 96 72 56 58 101 100 105 131 128 131 73 68 77 111 106 109 64 61 66 127 124 127 112 109 119 94 88 111 103 101 108 81 75 90 108 104 110 78 78 83 92 89 102 113 110 121 104 104 127 82 81 102 43 38 60 77 77 93 73 73 112 66 61 82 78 78 111 46 46 90 41 39 61 94 93 103 103 102 120 100 99 115 102 99 109 90 86 98 101 100 110 91 91 96 74 70 106 107 106 120 117 117 124 98 94 104 89 87 102 72 66 75 104 103 116 93 92 105 89 89 106 70 67 82 67 67 122 79 75 140 82 72 81 91 85 89 86 81 87 107 95 104 91 79 79 91 82 90 71 50 50 96 89 94 106 99 107 88 84 86 93 91 97 121 107 107 92 88 90 67 59 63 88 68 79 106 96 100 88 78 79 150 135 136 138 130 134 133 122 123 133 130 131 80 76 77 75 73 75 95 95 100 93 91 98 62 62 62 117 111 118 93 88 94 85 80 91 81 77 100 58 58 82 85 83 101 88 86 98 117 113 133 121 116 119 138 138 146 113 111 124 95 93 116 106 106 115 101 101 121 103 103 114 57 54 83 88 88 99 49 49 65 73 72 79 74 72 89 92 92 111 124 118 123 97 96 110 95 93 111 130 130 143 105 103 117 79 77 89 109 109 127 106 103 121 42 41 76 93 91 100 117 112 126 126 126 131 121 117 131 95 91 115 82 76 99 53 51 94 44 41 83 60 31 46 84 73 75 83 68 71 76 64 72 104 93 93 53 46 55 71 69 77 92 89 93 107 102 112 114 108 108 100 87 96 99 90 91 107 100 101 103 94 98 114 100 109 100 80 82 115 110 111 84 74 76 97 89 91 95 88 91 109 100 101 108 107 108 115 108 115 82 76 84 121 115 118 104 98 104 112 112 119 137 132 138 117 117 120 106 105 112 105 105 108 108 100 100 76 71 82 130 130 135 95 94 104 129 128 136 137 136 148 126 124 137 134 132 143 92 92 113 99 99 108 70 70 94 84 83 104 41 41 69 87 87 99 78 78 94 70 68 85 100 99 108 102 100 112 101 98 101 88 84 100 63 63 81 79 78 92 86 86 112 83 82 101 73 71 87 100 100 121 110 108 117 84 84 93 84 80 113 95 95 116 119 116 133 51 48 92 61 55 94 91 79 88 75 70 75 95 85 86 54 48 50 97 75 81 96 86 91 85 73 77 79 69 78 49 48 63 77 67 69 73 66 73 116 112 118 116 105 106 111 105 105 74 66 67 109 98 99 101 83 84 107 97 99 85 77 79 96 85 95 116 106 108 120 118 120 110 106 110 116 105 106 118 114 116 133 131 135 97 94 97 82 77 80 54 47 68 115 112 119 124 118 128 90 90 99 132 129 135 103 103 115 131 131 137 147 145 156 134 134 136 114 114 122 134 133 140 76 75 77 86 86 101 77 75 105 69 69 99 64 64 80 60 59 79 82 82 94 88 86 96 81 80 94 101 100 119 60 60 67 95 95 115 91 90 110 49 42 65 73 70 86 69 67 79 109 109 127 92 92 104 103 103 109 104 99 118 70 70 92 90 90 101 55 51 65 31 26 60 47 47 87 89 69 78 77 54 58 91 80 86 68 57 66 94 87 91 84 71 78 91 79 86 99 89 101 108 102 102 35 22 35 103 79 85 73 61 68 94 88 95 133 129 134 80 72 79 112 108 111 82 68 77 119 111 114 119 109 110 106 97 100 116 109 112 98 87 93 108 108 108 107 101 105 120 117 120 119 111 111 99 95 100 110 102 102 127 124 127 114 113 122 105 100 101 69 68 83 100 94 104 110 107 111 101 99 116 135 134 137 130 129 142 93 93 114 100 97 104 80 80 91 92 91 114 66 66 86 64 63 73 78 76 106 55 55 73 66 65 74 59 56 65 58 58 75 88 88 104 83 83 96 113 110 119 103 102 107 70 70 81 55 55 67 85 80 107 118 116 122 102 100 111 53 53 68 79 79 86 83 83 94 120 120 142 98 94 113 52 52 90 53 53 92 92 65 83 94 87 94 76 68 76 62 46 48 63 53 65 77 62 77 53 46 47 117 102 109 124 117 125 83 73 75 93 83 89 96 94 99 134 124 128 112 111 114 96 90 94 84 79 79 120 114 117 100 91 91 126 126 126 125 124 126 87 79 79 101 95 98 129 120 123 132 127 128 117 115 119 103 99 100 80 76 76 122 114 115 109 103 103 130 130 133 122 118 123 121 118 118 163 161 161 87 85 90 115 113 121 122 118 121 101 101 101 114 112 122 124 123 129 85 85 111 81 81 93 86 85 94 62 60 83 85 85 108 39 33 54 52 51 74 60 59 80 90 89 96 110 109 121 124 121 128 90 90 98 88 85 99 75 74 84 78 77 108 64 63 85 124 124 137 92 92 102 105 101 112 111 109 123 104 102 122 109 107 114 98 95 102 55 55 100 60 60 106 102 76 78 40 29 40 90 77 85 105 95 102 82 75 78 111 99 108 73 67 81 60 44 63 103 103 106 106 98 99 113 98 104 89 86 87 93 89 90 87 80 83 95 86 87 93 86 92 71 60 79 92 85 91 115 113 113 123 118 118 113 102 102 86 82 87 91 81 84 125 121 123 112 107 108 77 77 77 105 100 105 106 102 103 157 154 158 104 96 98 124 118 118 141 139 144 87 86 96 142 140 145 121 119 124 108 108 117 87 87 92 112 112 128 96 96 111 67 66 90 67 67 81 67 66 99 59 59 93 72 71 107 61 61 65 79 79 103 108 105 107 138 138 144 123 122 131 121 119 125 111 109 123 120 120 127 92 92 113 74 73 105 103 103 119 124 124 137 115 111 133 98 96 105 116 115 127 100 100 105 107 105 114 84 84 97 64 62 109 67 66 126 79 55 55 99 90 90 102 95 108 76 61 71 100 89 92 85 82 89 73 55 55 54 33 50 95 88 90 83 70 77 96 84 92 86 79 85 92 79 89 94 82 88 137 128 134 98 95 99 95 91 96 100 99 105 93 91 95 82 78 78 96 94 99 100 94 98 99 91 91 119 112 114 131 128 128 122 121 124 119 108 109 110 105 108 121 118 119 136 134 144 83 70 80 120 116 120 121 117 121 143 139 146 128 128 132 103 97 100 87 87 95 129 129 149 106 105 113 71 70 97 109 103 117 79 77 96 81 81 96 62 62 76 53 53 65 101 101 111 111 111 121 90 90 100 116 115 127 126 125 134 138 137 150 105 104 119 73 73 104 82 79 92 73 73 93 81 81 100 99 98 108 83 81 94 88 82 93 132 132 142 93 91 107 97 95 115 46 46 81 56 54 97 65 34 38 72 62 67 65 63 66 89 84 84 84 74 84 94 79 89 105 88 93 84 78 85 99 83 88 105 93 106 92 86 91 72 65 72 112 104 109 53 32 41 88 78 81 109 103 103 107 97 100 119 115 119 101 99 99 105 99 101 79 68 73 83 79 86 118 116 116 129 127 128 129 126 127 83 71 77 112 99 105 92 92 99 101 100 106 97 90 95 117 114 120 113 111 115 121 118 125 124 116 119 130 122 129 132 126 132 105 102 118 118 113 128 104 103 113 116 115 132 92 92 123 72 71 91 75 74 106 49 45 62 84 83 104 110 109 129 94 93 103 109 109 125 111 111 122 86 86 109 63 63 88 100 99 108 71 69 113 80 79 111 87 86 100 107 106 122 75 72 75 77 74 91 87 84 90 92 91 102 85 82 104 67 67 82 40 38 72 66 62 111 72 46 53 83 65 85 86 77 77 70 58 70 134 117 122 98 95 99 96 90 91 101 92 95 75 57 59 85 74 76 107 93 98 107 95 100 79 76 86 121 112 113 113 102 107 125 120 120 129 119 119 111 104 106 73 72 76 97 88 91 90 73 75 99 91 95 62 56 59 125 124 126 137 124 124 129 121 124 103 95 95 124 123 123 84 84 87 102 97 106 122 118 128 116 107 111 95 89 90 123 120 128 69 69 69 108 105 119 132 131 135 135 135 142 121 119 133 123 123 127 65 64 81 42 40 70 67 65 79 57 56 76 80 76 95 101 100 110 85 85 99 111 109 121 102 100 118 108 108 121 89 87 98 89 87 105 62 62 83 61 59 80 77 77 102 78 72 90 72 72 89 109 106 111 99 99 109 103 103 120 105 103 116 96 95 118 63 63 113 51 48 87 77 57 57 74 65 67 71 56 64 94 89 93 72 65 71 83 71 78 86 79 83 94 85 91 95 91 96 70 65 65 113 110 113 104 98 100 77 65 77 93 90 102 92 83 84 101 89 89 73 63 64 72 66 66 116 112 113 122 109 110 103 95 96 108 87 93 95 81 86 98 92 95 129 126 127 98 90 92 114 109 113 131 126 130 95 86 94 96 95 96 107 98 110 105 98 100 139 135 135 88 84 90 117 113 115 102 102 114 96 94 107 135 135 144 143 143 149 112 107 130 100 98 108 92 91 123 81 78 100 65 62 88 80 78 92 77 77 93 113 113 121 80 80 93 73 73 91 82 81 97 96 95 110 83 83 99 60 59 84 98 98 108 86 86 105 108 108 120 116 112 123 109 108 124 91 89 101 111 111 117 100 100 107 69 64 70 54 54 95 64 62 105 58 49 51 97 85 89 89 75 88 84 74 81 76 67 80 69 68 71 90 88 96 72 67 74 79 71 80 97 90 94 110 98 101 122 109 114 107 103 121 102 100 106 85 77 81 108 107 110 99 91 95 115 110 116 81 76 86 132 126 128 121 114 115 118 112 112 79 72 72 107 97 97 135 130 130 107 96 105 100 98 102 92 88 97 103 99 102 112 112 120 113 110 113 114 112 114 125 123 126 91 81 84 100 96 113 118 115 125 117 115 127 125 125 130 105 105 123 122 121 128 79 79 98 86 84 103 71 67 88 60 55 65 70 70 101 72 72 76 104 104 116 80 79 92 71 66 95 137 136 149 81 80 91 74 73 93 76 75 106 69 69 83 80 78 94 83 80 88 94 92 106 69 69 83 112 112 116 97 94 113 99 93 99 98 95 116 66 65 119 57 55 105 66 38 46 79 74 74 90 74 83 58 53 54 63 39 47 74 63 65 72 57 68 91 81 84 121 116 116 95 78 91 84 77 91 63 55 67 81 72 80 99 93 97 74 64 71 95 88 95 92 86 87 118 114 116 89 81 82 84 78 78 121 117 118 105 100 101 86 86 88 113 109 109 155 147 148 112 104 110 94 82 86 126 120 120 149 146 153 140 131 131 118 112 121 103 101 104 93 84 88 123 114 117 106 101 117 110 110 123 94 90 103 73 73 88 140 139 144 129 127 129 84 81 97 82 81 106 94 94 109 58 58 86 71 70 109 106 103 123 82 82 102 100 100 117 104 101 117 113 113 124 78 78 95 108 108 126 87 87 103 53 50 76 75 75 88 123 123 129 91 91 110 85 81 108 117 117 135 94 94 110 96 96 115 101 98 113 54 54 104 66 62 113 96 74 82 93 79 90 79 76 90 87 80 80 106 97 110 90 78 84 79 67 75 63 39 46 87 75 77 86 73 80 89 85 89 102 93 99 96 90 96 104 96 96 106 86 89 99 91 96 102 97 100 99 89 91 123 117 122 109 103 104 98 89 93 99 92 94 97 90 94 88 85 85 142 139 140 123 116 119 106 100 100 117 115 115 121 120 124 108 98 99 90 88 99 115 110 116 79 74 83 95 92 98 129 126 133 65 58 75 104 104 111 81 81 93 140 138 142 137 137 143 134 132 141 88 88 105 68 66 87 71 67 97 68 67 92 64 64 77 111 111 122 82 82 98 108 107 132 76 75 102 90 90 104 73 71 91 99 98 105 93 93 107 34 34 56 86 82 112 111 111 124 79 79 94 80 74 97 89 88 102 106 105 134 100 98 112 44 44 87 48 47 81 59 40 42 104 90 94 79 67 73 89 83 86 79 69 70 104 85 98 89 73 85 79 72 84 105 96 98 86 81 88 102 94 94 118 112 116 121 115 116 111 104 107 90 75 76 71 65 65 100 93 97 84 76 76 102 96 99 103 85 91 98 90 92 57 51 56 92 79 82 123 117 118 115 113 115 151 144 146 129 122 124 113 104 108 93 90 91 112 100 104 114 106 107 120 117 122 84 74 86 113 110 119 68 66 93 97 95 100 115 114 125 127 126 130 101 98 111 140 140 148 127 127 145 63 53 71 76 76 97 61 60 93 62 61 87 79 79 106 137 137 144 65 65 95 92 91 106 83 83 102 117 116 128 94 92 103 37 37 65 117 117 128 99 98 106 69 69 88 95 93 104 83 83 100 98 95 113 101 100 117 101 101 121 101 101 118 62 59 111 40 40 66 113 85 85 75 60 76 106 105 106 63 36 45 104 96 101 79 65 67 105 95 105 74 60 63 91 82 90 104 96 99 107 100 104 99 86 94 108 103 103 111 108 112 119 109 116 127 115 119 112 110 116 83 76 79 88 81 87 111 102 102 80 60 70 57 48 48 102 92 92 114 108 109 130 125 131 157 146 150 148 142 146 95 90 95 127 116 122 81 70 74 124 113 114 71 58 68 104 103 110 70 54 57 106 101 112 102 100 123 113 111 119 95 86 97 112 108 121 135 132 142 96 95 116 86 86 101 65 65 93 58 57 72 79 77 93 77 76 91 69 69 83 66 62 62 90 89 100 61 55 78 70 67 88 59 59 82 86 86 94 91 87 102 80 80 96 94 93 99 82 81 97 92 91 109 96 96 114 86 84 95 109 106 121 69 65 77 66 65 113 59 59 103 73 52 58 56 43 44 88 82 88 77 68 72 92 82 88 81 76 84 89 79 85 80 78 83 86 82 98 80 76 79 119 111 111 94 87 90 113 100 101 88 86 95 114 108 110 67 65 69 91 86 86 98 90 96 115 110 112 118 111 115 102 93 94 90 86 87 81 68 75 117 104 106 107 107 111 111 107 113 120 111 115 111 110 110 116 111 116 110 102 102 93 91 98 140 131 131 104 103 113 90 83 94 85 82 100 97 95 114 114 114 118 82 81 94 136 133 136 117 116 121 131 130 144 65 64 94 89 88 104 50 50 66 89 87 104 56 56 88 63 63 72 60 56 92 68 68 92 86 86 98 78 78 94 92 91 106 106 106 114 121 120 139 94 91 110 102 97 104 103 102 118 77 76 90 84 81 98 108 105 116 64 64 97 47 47 63 51 51 96 54 54 90 96 68 69 99 81 82 72 66 70 74 62 83 122 116 118 99 93 96 81 77 82 104 91 103 74 63 71 109 102 108 81 74 78 92 86 86 89 82 88 97 92 98 94 84 84 118 117 117 96 87 87 79 69 69 90 88 89 103 95 97 105 102 102 103 97 101 121 116 120 118 111 112 97 93 97 92 81 85 96 83 92 102 95 102 114 105 111 108 107 113 96 89 95 110 106 109 103 99 103 90 90 98 99 98 109 139 139 148 122 118 126 133 130 134 117 117 127 117 113 123 107 107 124 102 101 132 89 89 112 107 106 123 94 90 98 77 77 106 75 73 100 50 50 73 59 59 86 65 64 86 51 51 67 85 85 110 92 92 100 62 62 89 104 104 124 89 89 98 75 74 104 105 103 111 76 76 98 71 69 85 105 105 122 87 85 100 65 65 113 50 50 91 89 74 79 82 64 74 84 77 93 91 85 89 85 74 77 104 100 105 56 47 49 77 65 69 77 68 82 71 69 75 112 105 111 81 68 72 104 96 98 112 104 107 101 98 98 79 73 80 112 108 110 92 85 85 84 76 77 98 83 86 88 82 83 104 95 99 108 105 105 112 99 100 103 96 100 110 104 104 105 100 103 111 103 109 106 95 100 134 132 135 111 105 106 98 86 95 90 71 74 96 89 106 104 102 104 130 126 138 114 107 109 98 97 108 105 103 111 114 113 122 101 100 116 77 77 101 77 77 101 113 113 122 106 105 128 79 79 92 72 72 89 81 81 100 63 63 93 86 83 104 64 59 83 90 87 104 114 114 124 85 85 109 97 96 100 96 96 111 59 59 85 82 81 89 84 83 97 102 102 119 95 93 110 79 79 99 45 45 73 36 36 80 89 71 72 51 47 51 93 70 70 100 95 101 57 36 50 92 88 94 80 74 74 66 64 78 68 50 55 103 103 110 102 94 95 106 95 97 123 113 116 108 96 99 107 95 95 88 87 92 69 63 66 122 116 116 136 130 132 108 100 101 80 75 78 128 120 122 84 77 78 113 105 109 122 117 118 88 72 74 106 103 104 97 92 100 78 71 72 76 63 66 91 83 88 53 52 52 109 104 110 105 105 118 135 133 134 99 96 109 122 114 114 84 78 91 129 125 128 98 98 109 110 108 126 95 95 114 108 108 112 97 95 99 100 100 113 91 88 108 79 78 110 59 58 71 46 45 77 48 48 84 46 46 81 106 106 121 108 107 116 105 105 111 81 81 86 116 116 122 51 51 70 104 102 122 99 99 122 101 99 119 120 120 127 105 105 128 67 65 114 63 61 108 58 33 45 56 26 30 86 75 77 79 74 75 65 53 56 77 75 84 89 73 79 109 101 101 68 63 65 110 104 116 85 80 81 106 105 110 66 53 59 65 52 58 100 88 95 85 78 85 88 81 83 106 99 100 129 121 122 93 77 81 98 87 93 111 105 108 115 114 116 101 100 109 86 79 86 85 84 98 118 112 116 91 90 99 110 102 106 67 63 72 82 76 85 88 87 92 105 97 103 109 105 111 56 52 58 84 83 99 97 91 91 81 75 92 87 87 109 133 133 140 122 122 132 96 95 112 97 96 101 120 119 128 97 97 107 118 115 128 104 104 107 72 72 93 76 75 99 52 52 74 66 65 87 69 69 96 132 130 140 99 99 117 62 62 68 99 98 120 82 82 95 121 121 131 69 67 78 80 80 92 82 81 106 85 85 100 54 53 105 57 55 97 47 30 43 110 100 108 92 82 89 72 65 80 56 49 58 102 92 93 112 110 114 85 80 86 78 75 87 92 86 89 85 77 85 122 115 120 116 112 112 98 89 94 109 102 110 86 71 83 68 64 64 100 93 95 104 102 103 83 76 77 103 97 98 127 119 122 118 116 120 113 110 113 116 101 105 115 113 129 108 104 112 62 56 67 86 81 84 114 112 117 113 113 117 87 87 90 86 80 80 67 67 71 101 96 102 103 90 92 77 76 77 90 74 80 85 85 85 89 88 92 127 125 139 99 99 110 118 117 135 111 108 119 84 76 89 105 105 119 109 107 121 58 58 90 35 35 64 51 51 68 75 71 88 80 80 82 80 80 110 73 70 93 100 100 111 97 97 110 81 81 97 73 73 92 41 41 63 59 54 75 123 122 140 71 70 93 73 70 123 67 67 115 75 50 54 94 86 86 72 55 64 93 88 92 68 66 73 103 91 100 123 113 113 106 90 92 76 61 63 79 70 84 95 92 98 102 95 102 104 102 102 105 99 103 34 15 21 101 99 105 123 116 119 112 103 105 82 79 80 112 103 105 131 126 128 143 141 141 130 125 128 138 126 129 71 69 74 119 119 128 75 67 76 104 102 107 133 125 126 61 60 67 80 72 79 105 96 96 129 128 128 107 106 112 89 88 100 106 97 115 104 98 109 98 98 114 19 19 40 128 127 140 94 86 99 95 92 110 85 85 105 117 110 123 114 112 131 110 110 125 135 135 149 64 63 69 66 65 95 50 47 60 38 35 68 83 82 83 131 130 143 82 82 90 83 83 92 94 93 115 94 91 103 90 88 108 91 89 99 84 81 95 100 98 118 95 93 105 46 44 79 44 40 76 77 71 81 48 40 42 79 73 87 70 65 66 106 101 105 72 69 76 111 105 113 71 54 59 79 72 79 65 51 55 92 67 69 52 44 69 89 87 89 93 82 86 81 76 78 100 92 94 114 108 109 97 86 91 88 85 87 97 95 96 150 138 139 136 129 132 106 102 104 79 75 78 115 111 111 85 82 99 104 104 118 117 110 113 68 55 58 84 83 97 108 100 106 78 78 87 114 112 117 110 105 108 93 92 93 93 93 100 101 95 102 119 116 127 85 85 101 100 100 105 75 70 102 120 120 135 110 110 113 107 103 105 108 106 128 75 75 96 109 109 119 57 56 78 76 74 98 64 64 82 58 58 66 88 87 99 73 72 91 84 83 103 105 104 111 95 95 103 57 55 74 74 74 78 89 88 98 88 87 103 80 79 90 83 83 99 67 65 119 69 68 113 68 60 70 89 76 77 101 86 91 90 71 76 86 75 76 84 70 71 88 83 86 90 67 73 99 95 106 84 76 78 84 75 76 54 54 68 113 110 114 112 109 109 102 92 101 91 86 96 106 103 106 95 81 83 103 97 98 93 88 88 95 94 95 121 116 118 109 108 110 112 100 103 100 97 101 92 84 92 97 87 90 91 86 95 103 101 101 106 103 109 89 84 91 109 109 114 89 81 85 111 110 112 115 114 117 62 60 71 128 127 132 134 134 139 100 98 105 96 92 102 115 115 133 100 100 110 137 135 144 116 114 120 120 119 124 122 121 126 113 112 120 118 118 132 76 76 105 56 54 83 60 59 71 81 79 98 82 80 89 70 70 96 83 83 101 99 98 106 48 48 53 110 110 116 87 86 94 75 69 81 94 91 95 72 72 98 56 54 91 44 44 85 86 59 63 74 67 70 100 88 97 49 49 56 91 78 84 85 71 78 110 105 108 75 64 71 69 61 76 83 67 82 91 87 94 102 92 96 93 86 103 85 79 89 93 85 100 107 99 103 68 62 63 98 90 94 110 104 107 123 116 118 135 127 129 113 108 110 152 144 145 124 115 119 92 92 92 120 118 124 135 132 135 137 133 137 113 108 118 87 83 93 127 125 127 110 107 110 115 110 111 108 105 107 80 67 69 101 98 107 78 78 83 119 119 125 87 87 97 135 134 140 93 93 106 119 117 129 115 110 119 101 98 115 149 148 154 111 111 123 112 112 116 73 73 92 45 43 60 49 49 80 57 57 92 88 88 102 82 79 95 100 99 106 101 100 114 94 94 109 110 110 120 85 84 102 84 78 84 98 96 112 82 82 97 97 96 116 53 48 86 50 50 86 80 59 63 79 64 67 90 89 90 83 72 73 67 65 71 87 72 81 94 90 100 84 76 86 84 66 75 67 60 76 103 96 98 91 85 89 82 69 78 92 80 86 80 71 82 111 109 110 93 89 93 74 68 79 77 72 72 87 74 74 96 89 90 112 105 109 106 103 104 92 84 92 108 103 109 87 78 93 115 109 121 89 86 96 99 96 103 100 96 107 134 132 142 103 103 105 108 105 106 115 108 108 93 88 101 105 98 109 88 84 85 105 99 114 94 89 95 84 81 93 69 68 88 89 84 103 93 93 105 135 134 137 87 84 92 160 160 168 114 111 115 84 84 100 73 73 87 60 58 86 51 50 70 50 50 59 70 68 90 59 59 69 88 88 94 88 88 103 108 105 118 74 72 89 115 115 126 111 105 111 108 108 125 91 88 124 59 57 95 43 41 74 87 76 79 95 89 90 68 63 65 82 74 76 80 65 65 85 75 81 89 73 82 114 102 107 116 107 116 91 85 92 66 57 68 102 100 101 85 75 77 114 109 115 93 85 86 101 99 100 94 85 92 90 87 92 105 95 96 80 73 73 114 101 104 110 99 101 93 93 93 66 58 58 101 95 98 102 99 106 89 89 97 96 95 101 106 101 110 104 103 110 103 101 103 90 90 103 93 84 89 117 108 111 136 130 130 74 70 77 88 85 93 87 84 93 123 123 127 98 95 105 101 101 115 95 94 113 109 107 121 80 77 88 128 125 143 122 120 136 108 105 123 112 110 120 66 65 72 49 46 71 68 68 92 87 87 100 86 85 105 89 89 100 81 81 101 31 31 51 95 94 109 93 93 95 87 87 105 79 73 89 77 77 87 70 69 89 46 40 72 54 51 90 64 39 46 100 91 101 84 78 79 73 69 87 77 63 72 103 100 111 82 66 71 99 94 96 72 56 59 85 79 89 115 105 106 83 78 84 83 76 79 108 103 109 103 95 95 69 57 57 111 98 101 93 89 91 85 81 82 110 100 105 127 120 121 124 118 121 119 111 112 91 81 85 136 129 130 100 96 97 104 99 108 135 134 137 90 90 96 143 143 153 101 97 100 100 99 108 137 129 129 124 115 116 74 69 76 118 113 115 103 92 96 107 106 107 111 111 133 110 108 117 118 118 131 57 49 51 100 99 110 113 110 122 95 92 105 125 125 136 107 106 120 80 80 90 82 82 110 39 39 69 77 77 92 83 83 101 79 79 93 86 86 96 77 77 93 115 114 128 94 91 100 79 79 91 44 44 88 76 76 94 119 119 126 91 91 103 54 54 101 71 70 120 62 50 53 60 49 58 61 56 67 72 61 68 105 99 105 88 82 82 98 89 97 95 74 84 63 54 64 113 104 110 76 56 61 94 90 92 98 92 97 96 93 101 116 110 116 79 74 74 112 107 107 71 61 64 85 74 78 108 97 100 101 95 95 134 130 132 123 117 118 113 104 105 91 82 87 110 105 113 76 71 83 74 62 76 104 93 105 141 139 143 114 114 119 78 74 74 118 116 116 132 128 130 102 99 110 106 100 112 114 113 115 95 90 105 103 101 109 78 78 95 89 89 108 115 112 120 104 102 114 106 103 119 128 126 130 108 104 112 119 118 135 82 78 107 57 53 72 56 56 78 50 48 75 58 58 80 103 102 106 79 79 88 95 94 107 94 94 117 97 96 100 89 88 99 92 89 104 74 71 75 97 96 111 56 55 80 60 60 116 51 47 95 64 50 53 88 82 85 97 81 86 52 48 50 79 78 83 41 33 54 81 69 77 82 76 85 97 95 106 98 96 98 81 75 87 83 80 84 103 96 103 78 71 71 64 49 52 86 83 83 105 97 98 75 65 66 87 81 82 94 90 95 89 63 63 91 83 85 113 108 108 108 101 107 113 111 112 141 138 143 87 86 94 97 96 105 83 80 97 140 137 138 98 97 98 97 86 89 110 105 107 111 98 98 127 124 128 122 113 113 109 102 105 150 150 156 101 100 109 77 77 97 94 93 114 106 106 117 147 146 152 110 110 117 108 107 119 125 122 134 106 104 121 78 78 102 44 44 82 56 54 79 53 53 75 68 67 93 51 50 88 53 53 74 83 82 95 75 75 87 67 67 82 59 59 79 68 65 87 79 75 93 70 69 102 73 69 78 51 51 93 60 60 107 74 59 69 67 57 59 69 61 61 61 56 56 91 76 80 67 63 67 81 72 89 65 56 67 77 63 69 91 88 91 93 83 84 92 91 95 108 105 109 94 81 83 84 79 82 107 94 96 71 58 67 118 110 113 92 84 86 82 76 81 76 65 71 103 101 109 97 92 93 105 92 96 130 123 126 109 100 109 116 97 100 114 109 126 147 146 155 97 85 93 104 97 101 131 126 132 100 99 100 121 118 119 57 50 51 95 94 101 132 129 133 128 125 131 93 91 102 73 70 86 62 62 75 79 74 85 77 76 92 106 106 113 112 112 117 104 99 113 97 94 109 70 62 85 61 60 88 57 56 85 57 55 79 72 72 78 57 55 83 66 65 96 52 52 75 69 69 88 66 59 77 119 119 132 113 112 118 87 87 105 85 85 109 83 80 92 23 23 51 71 69 123 87 67 69 62 48 57 93 80 80 88 78 85 68 48 49 72 69 84 119 116 120 106 100 104 92 79 90 72 62 75 86 85 86 94 77 79 93 80 86 77 61 65 83 74 74 66 51 55 88 81 87 106 99 102 73 57 62 73 68 74 88 82 93 96 83 86 121 116 119 97 92 101 59 54 67 114 105 106 104 103 112 94 86 98 127 125 133 127 126 129 130 129 133 126 120 127 117 114 116 124 121 124 107 103 109 141 139 142 88 85 93 111 109 123 123 118 124 94 93 111 64 59 82 105 104 112 62 61 74 62 62 91 88 87 99 83 83 93 82 82 102 103 100 108 54 53 89 67 67 78 88 83 100 59 49 81 61 61 89 55 55 62 59 55 74 56 54 60 107 107 126 92 92 109 64 64 78 76 76 93 97 97 102 110 108 119 38 37 73 45 45 81 63 44 46 80 64 65 87 81 82 83 72 80 70 63 64 72 62 73 105 99 103 86 77 84 97 91 94 67 67 67 85 80 84 77 66 67 62 53 67 66 58 64 89 88 88 102 89 92 116 104 105 123 122 123 90 78 84 94 90 93 79 75 76 105 98 101 82 75 79 121 108 113 125 120 121 98 91 103 122 119 120 112 108 117 101 99 110 88 86 94 119 118 124 97 96 98 150 145 154 92 88 101 121 112 113 118 112 129 81 77 85 112 112 128 124 124 134 42 40 69 79 76 99 94 93 97 97 97 109 87 87 108 69 68 81 77 77 89 91 91 102 56 56 76 81 81 100 45 45 77 53 51 75 44 44 73 82 81 100 48 48 64 46 44 79 48 47 65 83 83 89 79 78 88 96 95 117 53 51 64 89 89 110 60 60 87 44 44 85 33 33 75 76 45 49 68 65 83 60 36 41 76 73 74 52 41 45 48 48 60 77 71 75 101 88 88 82 71 80 60 51 52 84 70 79 69 54 58 66 63 68 89 78 82 101 99 99 106 99 101 122 100 104 98 93 94 97 94 95 91 86 86 106 103 103 109 103 106 84 81 82 99 96 96 144 136 146 112 112 116 88 87 98 133 130 130 119 118 127 132 123 127 134 131 136 119 112 120 76 64 65 137 130 131 84 83 89 84 81 86 94 90 96 115 113 124 92 89 104 59 56 64 88 88 104 80 79 100 100 98 107 102 99 111 87 85 99 89 89 101 108 108 117 90 90 106 142 140 152 92 88 119 69 69 94 73 68 86 53 53 85 45 43 72 52 49 84 58 58 84 45 45 58 58 50 60 55 55 61 82 82 107 66 65 95 79 79 88 46 43 77 36 33 70 34 19 23 69 56 56 75 73 88 113 107 110 80 67 72 68 65 68 81 68 71 64 59 78 65 59 65 87 84 88 78 65 67 61 53 70 76 71 81 76 72 73 78 70 71 96 88 90 123 114 115 118 112 115 125 114 115 94 81 86 128 121 125 115 104 104 102 101 106 125 121 121 123 122 128 96 93 108 80 76 89 124 120 128 110 105 112 125 115 118 114 107 108 116 114 119 130 123 124 102 93 101 97 96 105 102 101 109 108 107 115 120 118 129 75 74 77 78 77 91 93 89 107 84 83 102 113 112 113 80 79 99 100 99 113 100 100 116 107 107 114 80 79 88 95 91 96 85 85 96 21 19 56 50 47 81 76 73 95 40 38 74 70 70 91 80 80 89 56 56 62 76 76 89 87 83 98 0 0 0 69 69 81 80 80 102 43 41 84 52 50 93 68 48 70 81 64 76 70 67 73 81 74 78 82 75 76 75 64 74 64 55 58 59 52 52 69 57 69 87 84 84 60 51 51 54 48 50 91 85 88 89 88 94 68 59 60 69 58 60 102 100 100 77 69 70 115 113 114 107 105 105 88 82 83 89 86 87 112 107 111 89 88 101 116 108 112 78 75 95 101 95 97 35 33 47 98 95 104 113 107 110 97 97 97 115 107 110 121 112 115 132 130 134 108 108 113 87 87 100 92 86 96 83 79 87 86 85 96 58 58 76 74 74 101 113 111 121 87 86 111 88 87 108 74 74 83 142 138 146 58 53 67 109 109 120 83 82 97 91 88 101 70 70 96 67 65 89 67 63 93 60 60 69 48 48 69 55 50 64 89 89 102 85 85 98 67 67 76 63 61 88 26 26 52 83 83 93 58 55 91 57 57 110 68 28 30 79 68 80 98 90 94 108 96 102 71 49 53 87 75 82 67 54 56 88 79 81 77 65 77 45 27 30 80 66 78 56 47 50 68 56 61 68 64 68 63 49 49 54 29 41 72 66 68 57 45 47 68 64 64 78 75 76 70 69 70 83 77 80 111 107 109 84 84 88 105 105 109 105 105 111 84 82 82 71 64 69 109 108 108 85 72 78 108 100 105 82 77 78 121 117 122 106 100 101 39 38 66 118 118 126 102 97 107 130 130 138 127 127 146 103 103 112 94 94 112 93 93 112 106 103 118 114 112 119 69 65 80 103 103 113 54 54 89 89 89 97 66 61 71 101 101 118 69 69 82 33 33 52 74 73 88 21 15 32 70 70 81 72 71 88 68 68 94 74 71 74 41 41 53 51 51 76 55 55 71 66 66 95 36 31 59 39 35 70 