P3
64 64
255
92 83 84 88 80 80 117 91 92 101 74 83 97 87 87 109 105 105 115 95 100 79 50 57 77 72 80 117 103 103 88 74 74 104 88 88 89 76 76 110 83 85 117 97 98 88 79 83 79 57 57 97 82 82 96 83 83 116 105 106 86 68 71 74 65 68 92 84 84 91 91 91 115 96 97 93 88 89 105 96 96 62 51 52 110 110 110 78 69 70 93 86 90 66 63 66 58 50 50 82 69 71 111 103 105 86 72 75 109 98 98 82 78 85 102 97 101 101 98 107 96 95 97 84 83 89 125 125 130 103 97 106 87 87 90 112 112 117 64 59 75 93 81 89 107 107 115 85 81 85 75 68 79 88 80 88 79 75 80 70 62 73 39 37 45 86 84 91 115 111 116 57 49 59 125 115 119 112 110 118 89 85 93 87 86 94 90 86 103 91 83 101 78 45 45 90 86 87 78 73 73 96 81 81 92 80 85 103 86 86 93 81 82 88 78 79 91 67 69 68 59 61 87 66 69 66 48 48 102 98 98 87 84 84 79 69 71 85 73 74 98 86 86 109 98 98 95 84 85 89 68 71 85 79 82 88 86 88 95 82 86 117 103 104 100 85 88 90 77 77 102 99 99 83 79 80 114 97 99 94 85 87 104 99 101 99 96 96 108 98 99 85 73 87 86 80 86 95 91 94 100 95 95 116 101 102 112 105 105 104 99 106 85 83 86 79 77 92 113 110 115 119 115 122 100 100 104 66 64 69 94 86 101 120 117 121 86 81 86 96 95 96 65 55 70 81 76 77 102 100 110 74 69 76 111 105 107 90 87 94 92 92 100 83 76 87 82 71 81 65 61 66 74 70 80 69 61 89 68 63 82 47 47 84 82 59 59 96 80 81 106 93 97 118 113 114 89 78 84 97 87 89 110 97 98 108 91 91 89 84 87 113 104 105 127 120 121 113 95 96 114 105 105 93 84 88 115 107 109 129 115 115 126 115 115 97 90 91 86 78 79 130 124 125 109 99 101 103 95 100 97 94 95 129 117 120 88 78 79 102 92 95 90 88 93 126 121 124 100 90 91 106 100 104 133 122 122 110 104 105 122 112 115 129 125 127 71 55 57 99 97 102 114 112 112 72 68 71 96 81 96 114 112 116 129 127 128 115 109 113 96 84 95 98 98 101 120 119 125 94 88 101 77 72 78 102 93 96 99 99 111 102 98 103 95 95 98 133 131 135 119 115 118 87 84 86 92 84 94 87 78 89 98 97 99 97 95 101 74 73 85 31 31 59 94 89 105 48 38 57 49 46 68 50 46 86 107 91 91 137 117 119 149 141 145 94 81 82 103 88 88 114 100 102 95 81 81 103 96 96 128 121 121 109 99 100 112 99 101 118 113 113 126 121 127 90 68 73 118 101 101 101 85 92 148 138 141 80 63 63 108 100 102 124 107 108 107 105 107 102 91 91 84 66 68 97 95 100 65 51 51 104 94 96 145 137 138 70 54 55 75 68 74 112 107 112 115 112 115 136 126 130 117 116 117 116 110 113 94 85 89 119 118 120 124 119 124 102 100 102 112 110 110 117 115 118 117 114 121 115 115 122 96 91 96 105 102 107 139 139 143 90 87 93 125 121 126 121 114 114 104 97 106 97 92 95 105 103 111 75 64 68 95 88 92 76 76 90 93 84 94 97 96 101 65 53 66 94 88 98 81 71 83 70 63 64 81 78 85 107 103 111 43 38 68 42 35 66 82 57 58 142 125 125 118 105 108 79 73 73 97 88 89 99 88 88 125 113 116 94 84 84 119 109 109 88 81 90 94 80 84 103 96 97 106 95 98 139 132 132 125 120 120 114 105 105 75 55 58 102 85 87 117 103 105 85 80 82 96 88 88 60 49 52 98 83 84 95 89 89 128 122 123 117 110 111 83 75 77 123 114 117 112 109 111 131 119 121 91 91 93 108 106 113 110 110 112 75 64 67 93 88 93 90 77 78 98 94 95 127 126 127 119 118 124 143 141 144 114 111 119 99 95 103 101 98 105 115 112 117 112 108 112 96 93 106 88 82 92 98 94 103 131 127 131 114 109 113 123 122 131 102 97 101 93 93 103 106 104 106 101 90 92 101 98 108 89 79 88 108 101 111 104 101 109 78 72 78 90 79 83 41 39 67 48 43 79 56 51 95 83 47 49 111 95 99 131 112 112 109 100 100 102 89 93 88 86 86 108 98 98 86 72 72 118 102 102 66 55 58 105 101 102 115 104 108 72 56 60 81 74 77 114 112 112 125 121 121 127 118 118 109 98 99 111 105 106 118 105 105 110 97 100 103 91 91 96 92 93 125 111 112 116 112 114 71 59 62 112 104 107 107 105 105 135 130 135 118 113 116 106 95 98 118 111 114 46 44 51 71 71 73 68 61 72 155 147 148 96 91 94 85 76 88 99 90 91 102 91 97 114 114 116 111 110 119 110 109 114 124 119 123 93 91 92 135 135 140 60 59 67 105 97 104 98 97 101 90 89 95 96 89 101 104 100 104 77 77 89 90 88 96 81 76 91 69 68 80 107 104 114 83 83 83 114 111 117 87 87 112 66 66 85 70 68 81 35 22 44 55 48 79 109 85 85 104 95 96 125 110 112 115 112 112 88 74 78 66 51 57 91 82 82 90 76 76 116 101 102 101 89 89 134 129 132 78 67 78 106 100 100 104 94 96 116 100 101 141 133 133 112 104 108 85 83 83 108 101 101 114 103 105 77 66 67 107 102 102 118 109 109 131 122 122 109 102 102 79 68 74 96 88 90 70 56 60 80 74 79 71 66 66 70 47 52 85 71 74 76 63 66 75 69 72 103 103 103 133 132 139 119 114 118 135 134 138 104 104 115 118 109 116 110 110 112 138 135 138 97 95 100 113 113 118 99 97 110 112 108 114 101 99 111 63 63 67 97 92 101 109 108 111 96 95 98 112 107 115 98 91 99 85 80 89 99 98 99 46 44 62 69 58 77 77 74 90 74 58 63 69 47 70 69 60 76 57 57 73 54 50 87 49 46 77 87 61 61 96 85 86 151 142 143 114 106 107 120 109 110 92 82 83 65 50 50 111 105 107 90 82 83 94 76 80 90 74 76 108 101 102 88 71 72 104 87 90 126 111 112 119 114 119 126 120 121 102 90 95 91 79 80 97 89 92 119 116 118 101 99 101 92 72 73 98 90 90 70 50 50 77 67 67 74 67 70 68 62 62 89 87 87 81 73 75 72 58 61 63 38 43 82 64 73 106 98 101 57 40 56 70 57 65 121 119 125 112 108 115 132 130 137 119 117 122 110 106 111 99 99 102 72 72 72 69 63 73 115 108 114 72 72 80 93 87 92 72 69 72 94 94 96 100 95 107 78 74 91 90 85 95 98 96 99 91 90 94 62 58 61 96 89 92 92 88 101 86 80 84 58 55 70 70 56 68 98 94 105 79 69 84 48 48 81 58 51 91 85 51 51 135 119 125 111 99 101 131 116 116 118 106 106 113 101 101 93 82 84 139 124 126 96 81 81 91 83 83 148 141 141 100 94 96 103 92 92 101 88 88 112 99 101 101 91 91 111 100 100 89 85 86 68 63 71 73 65 65 110 103 104 49 38 48 69 58 59 85 66 68 91 84 90 69 58 62 83 75 75 67 63 64 82 72 73 107 95 102 83 82 85 86 69 70 111 101 101 115 112 113 69 66 69 87 85 99 85 83 87 70 68 73 112 110 113 155 153 160 131 130 133 123 120 123 117 116 125 67 66 76 91 86 99 86 86 94 90 87 89 91 78 78 87 87 92 73 67 76 104 103 107 105 102 113 90 81 89 114 113 118 91 82 88 88 79 96 87 80 88 101 98 108 86 77 88 85 83 105 78 70 87 78 67 79 59 51 88 36 27 63 113 80 82 95 76 77 94 78 79 124 107 109 113 99 99 76 46 53 110 93 93 82 77 77 126 120 120 115 107 109 105 83 84 116 99 101 124 113 113 113 104 108 106 100 102 107 87 94 108 92 93 93 82 82 117 106 114 94 87 89 55 41 46 75 61 61 84 78 78 73 65 67 87 80 82 49 42 57 86 78 86 89 79 83 90 78 83 90 67 77 73 67 74 87 87 89 70 62 71 103 92 100 89 78 88 108 107 110 93 89 93 98 96 98 65 60 60 108 107 108 102 99 105 127 125 126 120 116 123 126 123 137 123 120 123 72 71 80 121 115 123 89 86 91 80 80 83 99 96 97 105 101 101 65 57 72 107 104 113 116 109 114 107 103 112 95 95 103 86 86 92 107 101 108 92 86 94 71 66 72 65 65 72 80 65 72 47 47 87 55 50 85 78 55 57 126 110 110 93 82 82 97 81 81 101 88 88 128 114 114 98 88 90 87 76 80 101 91 91 96 80 80 105 96 99 115 105 109 105 81 86 125 118 118 124 110 111 93 85 88 94 84 86 133 122 125 108 92 93 79 70 70 93 73 73 95 82 84 98 88 88 111 93 96 73 56 56 67 44 46 68 67 70 95 83 85 91 77 81 85 79 81 76 67 70 96 92 92 86 79 82 106 102 103 68 53 59 105 93 99 97 93 102 77 65 76 83 77 91 96 92 105 100 97 104 85 80 84 115 114 121 92 89 99 112 101 121 146 140 148 104 96 100 91 86 94 66 61 74 132 125 130 89 88 92 98 88 102 130 123 126 93 92 96 54 50 63 97 89 101 89 82 92 119 113 125 106 100 109 101 101 111 87 80 92 71 56 61 51 45 82 80 76 130 82 75 76 102 91 91 121 116 116 122 108 109 85 74 76 103 92 96 98 92 94 117 105 105 130 116 116 117 99 100 122 108 108 100 93 95 82 71 72 113 103 103 119 99 103 135 123 124 125 117 118 109 101 103 104 87 87 65 43 46 81 62 62 78 53 53 99 90 93 95 77 81 103 87 92 109 102 104 109 101 102 67 59 65 98 95 96 100 85 91 114 105 106 82 73 77 80 72 77 74 66 67 63 51 55 91 86 88 79 78 84 61 57 70 97 92 99 86 85 91 82 73 82 90 90 99 121 115 123 106 105 117 85 81 87 93 93 96 117 115 120 100 97 105 77 76 77 115 112 121 103 103 105 54 51 70 102 100 108 102 100 110 98 91 102 94 93 112 91 82 93 91 78 82 108 101 107 39 27 36 107 107 112 53 41 58 40 38 67 40 34 65 106 76 79 131 124 128 111 85 86 116 93 95 115 95 95 94 62 72 93 87 87 95 90 91 98 76 77 99 82 82 125 114 114 122 114 117 126 108 108 116 104 106 95 82 83 104 91 91 121 109 111 72 54 54 69 40 50 115 92 93 88 77 78 124 111 113 95 79 81 104 97 97 113 107 111 84 73 78 96 90 93 97 83 87 54 42 42 85 66 70 96 86 90 105 95 101 79 74 80 87 87 95 106 104 110 72 58 72 103 99 100 87 87 95 66 61 70 98 92 109 76 70 87 58 52 68 84 83 91 78 73 79 101 100 102 100 95 102 128 124 126 93 91 96 114 106 120 117 111 119 92 90 99 85 81 92 84 74 92 136 128 130 93 92 100 81 80 84 77 65 85 96 92 103 102 85 92 65 62 69 88 84 101 90 83 96 41 39 69 63 62 109 87 57 57 120 105 109 122 101 102 85 63 65 119 111 114 117 108 111 122 109 111 119 103 105 99 93 93 57 31 34 70 50 53 98 92 93 99 78 81 130 122 124 117 108 110 121 112 112 92 68 68 87 72 77 85 59 61 90 62 63 86 65 66 93 74 74 76 63 69 100 87 88 111 91 93 70 57 57 97 86 88 90 81 84 93 79 79 109 93 93 104 91 93 138 132 133 108 108 108 141 138 140 117 113 121 110 103 109 98 96 99 95 89 104 59 46 47 111 105 107 91 87 89 78 75 91 91 91 96 74 67 75 106 106 106 83 78 81 109 106 111 85 79 86 99 97 100 96 93 100 121 118 122 72 68 75 102 102 110 115 115 122 101 101 108 93 90 94 110 104 113 76 73 77 71 63 84 74 72 81 73 69 83 79 75 87 57 39 68 55 50 86 93 54 55 125 117 118 90 79 80 106 96 98 112 88 91 113 104 104 75 67 68 117 102 102 129 112 112 83 52 53 58 31 35 121 108 108 119 111 111 103 88 89 119 119 119 104 99 100 82 59 63 62 44 47 128 107 107 85 63 65 109 95 96 101 80 80 105 97 97 108 87 88 68 65 72 94 89 91 101 85 88 100 71 74 94 72 79 67 59 59 129 111 111 118 110 113 125 118 123 96 91 91 140 140 142 122 111 123 109 100 107 139 137 139 88 87 110 105 105 111 120 119 127 94 93 103 84 80 96 85 84 95 115 115 126 96 95 98 104 101 114 101 97 103 99 99 105 106 102 108 144 144 147 88 81 92 86 84 91 86 86 97 110 105 108 55 50 65 82 74 79 113 113 123 89 87 102 89 81 90 109 100 110 61 56 69 41 40 71 56 49 87 78 56 56 119 100 102 102 94 95 96 87 89 100 87 89 94 73 76 110 89 97 138 125 128 107 95 96 123 107 107 106 91 92 111 85 88 112 107 108 121 110 112 112 102 103 94 70 70 83 71 73 94 74 75 79 53 56 81 67 71 97 81 81 105 90 91 115 106 106 59 27 33 117 108 108 97 80 81 81 56 56 104 83 85 95 73 77 131 124 124 135 131 132 134 128 130 92 84 94 155 147 147 111 109 112 120 114 119 140 137 140 100 99 104 62 62 74 106 104 111 107 103 109 108 106 116 85 80 81 88 88 94 87 87 91 91 90 101 89 84 100 120 119 123 75 64 73 115 114 121 108 108 114 87 77 88 87 85 94 79 75 79 59 50 58 98 88 99 97 94 95 122 110 119 68 63 72 72 67 72 51 50 63 58 56 80 54 50 82 44 36 65 93 50 51 107 91 95 81 73 78 89 63 66 71 54 58 119 111 113 122 110 112 99 99 99 83 58 58 125 118 121 118 100 103 117 97 97 103 87 88 108 100 102 109 96 97 89 70 72 80 53 59 99 83 84 118 94 95 94 73 77 114 95 98 113 101 102 110 96 98 118 110 111 99 97 98 115 94 94 80 53 57 100 67 69 109 92 93 120 109 111 125 125 125 124 122 124 122 122 122 136 131 136 91 83 90 119 113 120 131 129 136 94 93 99 62 60 68 152 150 154 133 132 142 116 113 119 98 96 107 65 63 80 94 91 100 101 99 109 95 86 98 123 121 124 79 75 84 111 105 109 78 65 74 95 92 102 120 118 122 98 94 102 62 57 68 106 99 107 57 48 54 103 102 110 78 77 82 104 104 112 75 60 73 79 76 80 55 51 90 53 53 92 134 89 89 133 118 119 117 106 106 80 59 61 82 82 87 135 126 126 125 114 114 112 95 96 98 85 89 93 78 78 119 104 105 132 122 123 101 82 82 84 68 68 90 72 73 70 48 49 67 46 46 104 83 83 117 97 97 105 84 84 92 83 84 103 94 95 105 99 101 107 104 105 131 125 126 104 91 91 108 90 91 122 96 98 135 130 130 102 101 101 120 117 118 120 115 123 60 51 59 104 104 106 81 78 81 105 100 109 115 113 116 138 137 138 126 124 132 99 98 107 136 131 132 122 120 123 91 87 102 74 72 87 90 90 105 97 94 102 83 79 88 107 106 111 100 97 108 110 109 119 85 83 99 113 109 121 115 111 121 62 56 62 99 94 106 62 58 78 92 92 96 87 86 96 108 106 109 68 60 75 75 70 78 65 57 81 36 31 69 41 41 79 99 78 78 102 92 93 136 116 116 109 102 102 97 80 84 101 90 92 73 54 54 119 101 104 85 65 68 93 86 90 81 62 63 108 94 95 59 45 47 115 102 102 64 34 36 115 91 93 112 95 95 84 65 67 92 74 76 55 31 39 84 70 75 97 82 85 115 112 112 107 97 99 112 97 97 116 99 99 87 72 72 101 89 89 103 90 90 136 115 115 97 93 100 132 122 124 98 92 100 128 125 133 91 89 90 107 99 103 80 75 75 130 129 134 144 142 150 126 124 129 106 106 107 133 132 142 82 78 79 91 87 98 90 89 91 86 84 96 129 126 132 102 101 114 120 118 123 49 30 32 61 53 56 88 82 89 78 77 84 87 79 83 95 91 104 57 52 64 76 70 80 75 68 76 88 76 93 72 66 69 73 58 70 104 91 100 51 49 90 53 45 76 102 66 67 135 116 116 118 102 103 138 130 131 112 91 91 145 135 136 100 91 94 117 104 105 121 106 108 137 128 128 96 78 81 100 93 93 94 80 80 92 69 69 103 88 89 78 44 46 105 81 85 118 89 91 84 66 66 58 34 42 73 54 55 108 96 97 115 102 102 122 100 100 142 129 130 135 113 114 90 72 73 112 97 98 136 122 122 125 105 109 66 55 64 101 89 91 107 104 109 104 96 103 130 128 131 110 110 116 81 80 88 114 107 120 116 116 117 96 95 96 136 136 139 113 110 117 106 102 114 107 103 115 80 78 89 94 93 109 98 97 104 106 105 108 89 81 89 105 99 104 81 81 89 98 84 95 52 47 52 113 106 117 115 112 112 88 81 84 70 70 82 82 81 85 92 86 91 63 56 80 88 85 86 60 58 80 44 37 66 39 33 60 97 66 66 99 84 84 109 91 91 109 96 96 89 69 71 91 72 73 119 107 108 100 83 83 102 99 99 106 86 87 127 113 114 128 119 119 104 95 98 102 89 89 76 44 46 59 31 31 81 64 68 98 76 76 96 78 79 66 58 58 81 65 65 109 96 97 135 126 126 136 128 128 118 113 114 119 103 103 95 75 78 115 108 108 139 124 125 135 132 133 95 83 84 107 94 101 146 140 143 114 109 112 126 125 131 120 117 119 109 108 114 74 71 81 114 110 115 92 89 100 116 114 126 67 63 71 107 103 120 120 120 126 116 116 122 76 76 93 109 108 116 107 107 118 77 75 87 96 92 97 62 59 74 81 79 87 72 68 85 84 82 87 101 93 97 39 38 64 80 78 84 80 78 92 86 79 91 85 82 90 67 66 81 88 85 106 61 55 97 45 41 85 88 63 63 128 111 112 105 91 93 122 110 114 108 88 89 96 85 85 97 91 92 77 60 61 94 74 75 69 59 59 109 98 98 93 84 85 123 99 101 123 99 99 80 47 47 98 58 58 134 102 102 122 103 105 94 78 79 108 84 87 128 117 118 118 107 107 106 89 89 133 124 124 146 130 132 128 123 125 115 102 105 148 139 142 136 132 134 81 79 80 122 116 121 128 105 108 99 94 96 75 67 71 72 67 77 115 111 114 105 99 105 125 125 130 65 63 69 84 80 88 128 123 130 148 145 154 108 107 118 108 105 116 97 94 106 78 75 87 90 88 100 116 110 123 113 107 112 118 117 125 77 75 88 106 98 105 78 74 85 92 88 92 99 83 88 73 70 73 79 78 85 56 47 57 82 79 84 95 91 106 71 66 75 103 98 106 45 43 75 43 34 76 121 79 83 90 78 79 112 102 104 133 111 112 131 123 127 100 89 89 120 104 105 109 91 92 92 84 85 126 121 121 98 95 96 108 95 95 127 113 114 66 48 48 92 54 55 81 47 49 75 62 64 108 85 85 131 107 111 103 96 96 128 109 110 144 130 130 178 170 171 147 139 141 110 97 97 90 86 86 100 90 90 102 97 98 131 123 123 154 143 145 125 120 120 133 127 130 116 109 113 120 114 115 109 100 102 126 124 134 106 96 107 88 86 94 92 90 103 115 113 121 108 105 109 103 103 107 112 109 118 119 115 122 79 79 85 97 94 108 81 72 74 90 89 93 106 104 109 102 102 111 73 68 86 109 109 118 87 74 85 87 86 93 108 96 103 79 79 89 55 53 70 87 78 97 65 57 71 86 82 86 62 61 73 84 82 98 46 42 74 47 42 78 95 71 74 122 110 110 72 66 66 102 95 95 105 88 89 114 104 104 115 96 97 127 119 119 150 136 137 110 99 99 107 102 103 96 86 89 107 98 98 90 85 86 135 108 109 82 45 47 106 84 84 79 43 44 121 100 101 85 74 76 117 83 84 119 113 115 111 102 108 146 137 138 105 97 100 107 91 91 120 109 110 108 103 103 100 93 93 106 97 99 117 106 108 117 108 108 117 108 110 68 62 82 78 78 86 89 89 97 79 75 75 110 108 114 90 87 91 78 77 84 103 103 103 51 49 69 123 122 138 100 97 106 121 118 126 73 73 82 89 88 95 83 83 83 100 97 105 71 65 65 76 67 76 90 80 94 85 78 84 100 97 108 72 71 78 84 80 94 77 76 83 97 93 108 87 81 82 89 84 101 75 70 81 98 91 97 51 42 73 33 24 51 113 81 82 118 101 107 113 93 98 95 88 90 102 86 86 133 129 133 95 83 86 111 91 92 106 84 89 124 110 111 87 71 71 69 40 42 76 57 57 101 76 79 93 82 86 76 59 59 117 81 82 103 90 90 84 68 68 101 96 96 120 103 103 165 151 152 141 129 129 103 98 102 141 123 125 149 140 140 113 105 105 125 113 115 136 130 131 97 89 91 128 119 121 97 82 82 134 110 116 51 51 51 115 113 115 114 111 115 103 102 108 88 88 91 114 113 118 103 98 111 119 116 124 90 86 98 114 113 118 145 144 158 141 141 146 116 114 123 75 75 82 86 85 92 118 117 123 110 109 116 96 92 107 102 101 105 106 99 111 100 96 101 82 73 84 105 100 109 98 92 102 36 36 62 66 63 71 65 65 65 104 100 107 59 57 79 50 48 90 54 51 88 120 86 87 133 116 119 94 71 72 87 72 72 58 47 53 100 76 77 116 105 107 106 98 100 111 100 100 133 120 121 97 80 82 110 90 90 112 96 100 114 99 102 81 49 55 83 68 68 95 74 75 97 78 79 117 96 96 93 78 79 77 58 63 131 120 120 142 128 128 121 112 112 129 106 108 117 105 105 129 120 122 111 100 102 100 99 100 81 68 76 113 108 113 117 109 110 74 68 74 88 77 84 101 97 98 71 70 82 130 126 126 107 106 113 113 113 122 75 72 78 77 75 76 83 82 87 113 112 117 126 123 139 59 58 67 71 70 77 128 127 130 74 73 81 115 115 115 102 97 100 61 55 69 124 119 124 87 84 91 87 82 93 112 111 124 92 87 106 98 91 97 94 85 96 76 70 74 86 86 89 66 62 72 89 88 99 35 34 80 41 41 74 98 77 78 95 81 81 118 112 112 111 87 90 125 108 112 127 114 115 86 60 65 136 124 124 107 93 94 62 58 58 59 59 59 120 114 114 84 69 70 119 113 113 85 76 80 97 86 90 73 52 57 99 83 83 103 73 74 120 103 103 103 90 90 126 115 115 130 117 117 124 114 115 142 135 135 120 99 102 91 79 82 126 118 120 119 118 127 99 96 96 91 81 85 119 117 121 113 102 105 115 110 111 81 80 88 91 88 91 91 84 93 126 123 130 121 120 128 110 104 111 109 108 111 120 120 131 121 120 127 117 115 125 115 110 119 94 91 99 83 82 94 108 108 111 83 79 91 131 126 134 89 89 91 70 65 76 92 91 105 125 119 124 76 63 78 102 92 102 69 69 81 96 96 99 58 43 67 113 109 111 28 23 46 54 54 73 67 59 104 31 29 56 104 88 88 94 73 79 126 111 111 123 102 108 100 92 97 133 121 122 98 88 93 102 99 99 117 106 109 97 76 80 127 111 111 80 68 68 126 116 118 114 99 99 88 75 76 125 109 110 97 83 83 108 86 87 107 89 90 121 98 98 98 82 82 101 97 97 146 134 134 131 130 130 139 137 137 140 134 136 129 118 121 112 107 109 139 133 136 102 91 92 107 91 95 102 96 96 93 84 89 98 87 93 100 93 104 107 103 106 99 97 105 107 106 109 124 122 126 90 90 106 103 97 103 135 135 137 95 91 99 99 99 108 71 63 78 98 97 104 117 116 121 59 56 65 120 119 128 87 82 87 80 80 84 102 99 103 61 59 67 61 60 65 92 87 100 92 88 88 101 94 111 105 103 112 83 82 85 86 82 88 68 67 76 76 70 87 41 41 72 48 48 89 108 71 72 101 84 84 100 80 80 120 107 108 134 121 121 113 97 97 93 73 76 89 76 76 91 72 72 80 64 66 127 111 113 96 85 85 93 79 81 112 100 100 50 41 42 93 87 87 99 76 78 101 74 74 116 97 97 114 96 97 83 60 64 127 114 114 145 137 138 145 141 141 131 122 123 127 115 117 110 97 103 131 121 123 103 103 103 80 56 60 92 83 89 92 72 75 91 84 87 102 96 100 105 103 108 67 61 71 84 83 91 67 56 69 143 140 143 122 119 132 119 119 127 88 79 84 113 111 117 101 98 109 89 89 101 99 98 109 91 89 103 106 104 113 78 74 87 109 106 112 84 84 90 101 95 105 90 85 93 80 76 79 79 73 77 91 87 95 112 112 120 76 69 81 86 85 92 44 39 68 47 45 59 51 50 64 51 48 87 59 58 97 107 79 82 96 82 86 102 84 85 99 92 95 119 98 101 106 92 93 117 99 99 125 115 115 110 95 95 92 80 85 87 76 77 83 73 76 72 42 50 115 96 97 119 111 113 130 119 119 134 119 119 87 79 79 99 76 78 113 88 89 118 96 96 116 96 96 102 85 86 92 73 74 128 121 121 111 105 105 144 130 131 92 79 82 104 102 106 98 84 89 145 134 136 112 95 98 123 113 119 110 110 113 70 69 75 79 79 83 115 113 115 88 86 88 85 82 95 124 124 130 109 106 114 88 86 93 110 109 111 94 92 98 81 79 86 69 64 70 86 85 90 97 93 100 99 98 107 99 91 94 76 68 70 95 89 105 63 62 77 99 93 99 93 85 95 92 88 100 57 48 57 105 99 101 79 79 79 90 86 92 92 91 104 68 60 81 36 28 52 42 36 67 100 77 80 130 117 122 86 74 74 110 102 102 131 116 118 106 93 96 129 110 110 71 70 77 109 92 94 122 99 100 113 95 95 112 97 97 101 84 84 101 97 99 139 129 129 88 72 74 126 113 113 124 117 117 137 132 132 98 65 66 77 67 67 119 110 112 111 94 94 98 81 82 111 96 98 153 144 144 87 78 79 107 97 97 131 121 122 110 91 93 127 118 119 133 129 129 104 95 101 97 96 102 96 84 86 137 137 141 131 130 134 132 128 133 135 132 139 130 125 130 80 77 87 108 105 108 123 121 129 90 80 95 64 59 78 104 104 113 94 94 98 67 66 66 93 81 83 105 99 109 114 113 123 95 94 94 96 92 96 87 87 95 75 74 81 65 63 70 39 31 52 99 98 119 90 85 95 98 96 109 70 57 63 82 71 83 47 32 60 49 43 80 112 81 81 101 76 79 85 65 69 71 66 69 97 83 88 108 103 104 84 71 72 111 95 95 109 97 98 103 93 96 124 108 108 104 98 100 86 65 65 109 89 90 91 86 87 89 86 86 130 118 118 84 73 73 161 140 140 108 99 101 76 67 68 77 57 57 98 92 95 109 85 88 135 123 123 135 117 118 123 112 115 138 135 135 130 122 122 84 71 73 113 108 110 93 88 93 139 136 137 137 127 128 114 112 116 117 116 123 138 136 137 116 116 116 121 118 120 103 99 113 142 140 150 128 127 137 83 80 91 124 117 134 94 93 100 102 99 107 58 54 67 101 100 101 100 96 99 112 105 112 103 99 102 103 99 110 119 117 128 78 77 81 102 95 110 117 112 119 71 71 77 100 93 98 95 89 99 103 101 109 76 66 83 87 86 96 46 42 69 34 34 64 93 69 70 67 63 65 107 91 96 100 89 93 123 111 111 94 80 81 125 116 120 116 103 103 136 118 120 125 111 111 115 103 106 93 86 88 123 111 114 114 88 88 145 125 127 74 66 70 132 114 116 100 81 81 107 92 92 124 115 115 91 85 86 79 70 71 91 65 66 103 90 91 93 76 78 100 89 89 128 116 116 123 114 116 90 72 72 126 108 108 156 149 149 169 162 165 139 132 132 124 121 126 104 91 98 90 86 94 118 118 123 128 120 128 126 126 132 153 150 157 93 89 98 133 132 144 139 136 150 101 100 113 56 56 68 83 83 91 122 117 123 114 111 120 157 155 161 122 122 130 85 74 75 113 109 123 125 124 135 73 72 76 74 74 92 69 63 76 104 104 116 56 41 58 84 74 82 74 74 87 107 102 115 80 74 95 52 50 91 55 55 94 119 86 86 93 82 85 114 100 100 93 74 78 118 101 104 120 113 113 116 102 102 82 64 64 99 90 90 100 73 74 136 123 123 96 89 95 80 76 77 120 106 106 132 127 129 91 76 77 115 105 106 73 69 70 124 108 109 118 99 102 95 66 66 98 58 59 56 33 35 91 63 64 95 80 80 112 88 92 106 97 98 103 95 95 126 105 106 111 105 105 142 131 131 133 128 128 157 154 155 146 145 146 97 93 93 132 120 127 116 112 116 104 104 108 117 117 117 106 104 111 94 88 92 127 127 129 122 121 128 85 85 93 118 116 130 91 87 92 130 129 134 109 106 107 99 91 96 112 102 110 115 111 113 117 111 118 119 119 129 84 81 93 92 87 96 77 77 92 92 89 98 85 80 94 67 61 65 89 86 93 76 68 93 56 48 64 50 50 86 43 43 73 113 89 91 113 92 92 110 100 103 89 86 87 77 65 74 105 85 85 105 83 84 101 83 90 105 77 78 102 84 88 123 102 109 88 65 67 88 67 67 83 68 69 94 80 81 83 81 83 135 120 121 84 59 63 105 94 98 122 111 112 106 99 101 78 55 55 90 77 77 77 54 56 101 66 69 98 86 86 101 89 92 93 80 81 100 90 90 116 102 105 143 129 130 134 127 132 127 114 116 116 110 112 131 116 117 135 123 127 99 98 102 113 111 112 116 116 121 140 139 145 121 121 132 121 118 121 112 112 118 69 69 79 101 99 102 106 105 107 122 117 120 141 137 137 119 115 120 90 90 91 81 81 82 85 80 88 106 104 113 113 105 118 93 91 107 83 81 93 90 88 94 95 83 98 101 99 114 62 53 61 67 59 75 78 78 92 55 48 86 47 46 87 87 70 71 132 118 118 111 92 93 136 123 127 102 82 82 131 117 122 122 112 112 105 91 93 118 103 104 114 101 104 79 66 72 134 115 115 87 64 69 117 109 109 105 77 80 120 117 118 107 87 92 100 91 94 112 100 101 115 108 108 123 105 105 88 73 73 82 56 57 106 68 68 107 83 83 96 83 83 122 109 109 160 150 150 137 132 134 122 114 114 122 106 108 99 86 89 125 116 124 113 102 102 133 124 126 125 114 115 119 112 118 111 111 112 113 104 109 117 112 124 135 132 142 100 97 100 114 111 119 105 101 115 86 84 98 91 91 91 128 125 131 130 125 125 123 117 121 81 80 93 107 105 114 104 103 104 107 105 110 68 63 72 91 82 92 85 78 87 46 46 62 95 94 102 96 93 103 91 90 92 85 76 82 72 67 75 40 36 66 52 38 68 102 54 56 97 81 83 131 127 130 115 104 109 144 132 134 114 95 95 110 82 83 128 110 112 101 84 87 125 104 111 99 79 79 102 88 98 111 101 105 100 91 91 88 76 80 81 57 61 104 86 86 124 116 119 124 108 109 119 94 94 102 88 89 122 98 98 103 81 81 103 73 73 91 69 70 95 82 83 75 61 62 174 161 161 177 163 163 127 112 114 114 100 101 101 92 94 110 96 97 135 125 126 100 85 88 112 106 109 122 117 121 106 96 109 65 63 64 84 80 89 86 80 94 79 77 101 105 105 117 100 99 116 125 125 135 103 101 105 107 106 108 126 123 125 92 86 89 113 108 117 69 65 70 74 71 87 96 96 108 99 99 106 87 80 87 70 70 84 132 131 135 41 31 56 75 73 79 84 80 90 86 85 88 79 72 88 50 40 79 39 37 78 81 45 48 114 97 97 130 114 117 103 76 76 83 72 72 82 81 82 110 90 91 144 128 128 117 105 110 112 105 105 119 100 100 116 97 97 105 94 101 89 80 85 118 103 106 124 112 112 95 80 81 140 122 124 107 93 95 113 97 99 104 89 91 112 103 104 79 61 61 79 70 70 90 73 76 119 115 116 135 118 118 112 99 99 128 126 126 128 117 124 106 98 101 103 103 103 107 103 103 147 142 142 111 99 101 116 108 115 89 79 82 86 77 77 62 62 62 87 87 92 130 128 134 105 105 119 97 95 101 87 86 95 133 132 148 96 95 99 115 112 120 91 88 92 113 110 112 107 107 108 114 113 123 137 135 143 121 120 125 123 122 128 84 79 84 66 61 72 100 94 100 78 77 81 112 110 121 93 81 91 53 53 53 71 62 86 23 22 38 51 46 84 99 59 60 87 72 82 138 130 132 63 54 58 134 120 120 119 90 91 125 119 123 84 79 82 130 120 122 96 89 89 86 70 75 86 65 65 104 89 93 106 96 96 109 91 91 107 103 104 113 104 104 108 94 98 97 84 85 110 107 107 121 108 108 116 96 96 70 52 54 90 68 71 94 92 97 110 87 87 106 92 92 91 73 73 127 94 94 119 107 107 140 133 133 146 142 143 147 131 133 140 131 133 119 101 111 96 91 91 131 129 132 73 68 78 108 103 108 94 91 94 119 119 123 120 117 128 115 112 123 123 122 132 93 92 104 91 88 97 121 119 126 129 129 132 82 82 85 91 90 103 87 87 100 95 93 108 72 66 71 63 60 77 84 79 83 48 48 51 74 69 84 50 47 50 55 52 63 102 92 100 119 114 116 72 61 75 46 42 88 27 26 47 117 76 78 126 104 104 122 109 113 112 99 100 95 90 95 98 87 93 130 122 124 122 102 103 84 70 73 115 99 102 119 101 103 125 102 103 103 89 93 104 83 87 133 117 118 92 77 77 121 112 113 121 109 109 102 91 95 102 85 85 100 85 85 93 73 73 91 54 56 75 64 68 68 53 53 103 73 73 99 78 80 83 77 78 102 90 91 128 125 125 148 141 141 133 116 116 167 157 160 137 126 127 110 101 103 100 95 99 120 114 121 105 99 101 105 101 105 107 104 109 76 76 82 142 141 147 170 170 174 72 64 76 100 100 109 90 87 96 94 94 99 96 94 102 84 84 90 109 108 120 103 101 111 83 79 88 79 77 88 110 102 109 94 85 93 90 88 102 93 82 98 99 97 107 105 102 108 66 59 59 89 87 93 85 78 87 30 23 38 49 45 77 84 69 69 111 103 104 113 108 111 116 103 104 117 93 93 119 110 110 95 82 89 93 88 89 131 125 128 103 97 97 94 89 90 88 72 80 122 111 111 122 110 118 114 104 104 93 80 84 62 43 45 98 85 85 120 104 108 107 84 84 106 94 96 68 51 52 63 33 34 92 67 68 77 62 62 86 74 76 110 95 95 120 108 110 142 128 128 104 98 98 117 109 112 145 134 138 136 126 126 133 127 127 150 149 154 95 90 93 117 117 119 136 129 135 77 77 78 95 88 93 94 91 101 106 106 113 138 137 142 85 84 103 124 122 129 115 112 122 111 111 116 104 103 110 104 100 106 91 91 94 79 77 99 62 62 75 82 81 90 93 85 97 99 92 110 85 81 88 77 70 77 111 107 116 108 107 121 90 84 100 109 97 106 70 58 79 36 35 63 52 50 89 98 57 59 104 94 100 77 60 61 104 88 90 96 71 73 101 92 92 112 105 109 89 72 73 118 105 107 84 77 77 54 46 48 104 90 90 115 98 104 113 95 95 118 107 110 112 98 98 103 93 96 76 75 75 117 113 113 131 121 123 81 68 70 80 55 55 83 62 63 103 79 79 95 81 81 123 118 118 95 80 80 132 120 121 128 115 116 102 94 94 105 92 92 150 140 141 136 127 128 97 92 96 103 90 94 90 83 86 85 83 86 113 108 113 114 102 108 113 109 113 98 98 105 126 125 134 143 139 144 123 122 128 105 103 114 92 91 100 78 74 82 62 60 70 100 100 103 75 75 87 99 97 100 102 100 112 136 133 140 97 96 110 88 84 85 78 73 79 97 94 100 104 99 102 97 85 98 87 77 82 60 54 73 66 64 69 45 40 70 56 45 81 87 69 70 93 77 79 129 108 108 109 102 102 100 86 89 119 98 99 109 99 100 111 105 106 87 63 63 101 79 80 102 84 92 79 61 62 107 92 94 121 110 114 94 82 85 92 81 84 107 94 94 109 99 105 130 108 109 81 69 70 77 54 54 72 48 50 101 82 82 107 76 79 96 74 75 131 122 125 117 112 112 134 127 127 147 136 137 129 111 115 111 102 103 107 92 92 106 95 95 69 69 75 115 97 97 70 57 62 120 113 121 128 123 123 79 70 73 107 97 108 109 108 121 129 127 137 126 125 130 129 126 133 121 119 133 96 95 99 92 88 97 66 65 72 112 112 117 113 112 120 76 76 78 119 119 125 102 96 106 92 88 95 38 38 65 70 56 68 105 96 108 64 63 86 87 80 96 76 65 74 57 56 68 65 52 70 49 40 85 64 55 97 74 52 52 104 79 79 96 87 90 63 63 71 89 79 80 119 109 109 123 107 110 96 72 73 119 109 114 105 95 97 146 123 125 109 106 106 81 68 68 82 59 61 108 100 104 114 97 97 111 107 109 116 95 96 102 97 97 99 93 96 72 42 42 47 41 41 87 60 60 81 75 76 130 120 122 147 142 144 103 96 96 132 122 125 98 89 94 125 114 114 115 112 114 110 105 107 90 85 87 116 101 102 112 107 109 90 86 93 113 102 105 141 130 131 82 75 80 104 96 102 109 105 110 112 110 118 87 86 88 147 146 159 113 109 117 119 119 126 115 112 125 72 67 79 87 87 101 94 91 98 97 97 106 103 102 105 112 112 115 107 103 111 98 90 102 98 90 100 114 102 111 93 93 111 89 87 98 81 75 85 56 52 66 66 64 77 41 37 69 40 31 54 82 52 55 106 94 94 137 127 127 102 87 87 90 71 71 147 124 124 136 132 133 99 87 88 122 113 113 104 98 98 143 119 121 71 53 54 119 104 105 109 99 99 107 94 94 83 72 76 113 95 95 128 118 118 139 135 135 86 70 70 80 64 67 88 56 59 117 100 102 110 96 98 132 121 125 151 143 143 124 120 120 92 85 85 120 108 108 94 85 85 126 115 116 75 43 47 124 115 117 110 95 103 100 94 102 120 114 121 117 115 118 126 122 126 89 81 86 106 106 112 85 83 90 116 113 120 123 121 130 138 136 141 123 122 124 140 140 140 122 120 125 81 78 87 98 97 111 95 91 96 67 64 80 57 47 57 52 52 65 79 78 95 98 98 107 97 93 99 89 78 90 93 91 99 94 93 104 69 57 69 100 95 104 55 55 73 37 24 54 48 47 82 109 102 102 119 105 105 86 76 77 98 84 84 132 121 121 104 84 84 90 90 90 104 66 66 105 92 95 139 129 130 100 91 96 121 111 111 122 104 105 85 59 72 81 71 74 105 76 76 116 98 99 115 105 106 92 71 72 90 53 55 50 41 47 88 67 67 83 69 69 86 71 71 106 92 95 128 118 118 109 91 92 121 106 106 132 120 120 164 154 156 107 104 105 141 131 134 141 141 141 116 101 105 132 130 133 132 128 131 134 118 121 108 103 104 128 123 130 72 69 77 100 99 112 124 124 129 114 113 115 125 123 127 130 128 135 124 123 128 149 147 149 156 155 161 92 89 96 81 79 96 74 74 84 99 98 107 81 79 96 98 93 97 80 79 84 110 100 103 77 76 84 70 59 73 66 59 72 59 50 56 111 104 111 55 52 62 39 33 61 52 46 84 100 67 67 120 111 114 104 79 81 93 76 76 82 71 76 78 72 78 103 90 92 122 105 105 99 87 90 134 123 123 114 98 98 76 73 75 116 97 100 106 91 95 89 80 80 112 96 97 121 109 111 91 79 79 84 75 78 68 58 58 50 30 33 86 61 61 68 50 50 132 122 122 144 137 138 134 127 129 159 155 155 146 137 137 117 104 105 138 126 126 86 76 76 100 88 89 135 131 134 109 100 101 99 93 102 134 131 131 111 108 112 111 101 105 112 106 112 63 59 66 110 104 115 90 88 94 87 80 87 101 100 107 142 142 144 135 133 137 137 136 137 121 120 126 83 81 101 110 110 116 87 86 89 115 114 125 92 90 101 77 68 75 48 46 52 93 89 104 52 49 63 97 93 108 112 108 114 68 60 68 60 60 92 72 58 72 41 37 70 54 52 85 138 100 103 115 111 112 77 53 53 106 89 91 99 77 77 98 90 90 128 117 118 94 70 71 82 69 70 86 62 63 106 98 99 97 83 88 120 113 114 96 94 97 99 90 90 100 89 90 106 93 93 118 101 101 103 75 77 78 53 54 55 49 54 100 63 66 93 84 84 140 125 125 128 120 126 113 107 110 115 107 107 135 120 120 117 96 97 114 113 114 146 139 141 118 113 118 125 115 120 105 104 105 114 111 111 136 125 127 109 100 103 121 104 106 117 103 110 90 90 96 81 75 80 96 88 101 110 107 118 90 80 85 116 113 115 92 91 101 87 87 98 127 126 131 135 133 138 81 80 84 54 49 55 91 89 108 96 94 94 37 30 50 115 113 119 92 92 94 98 91 102 85 85 89 77 76 86 77 72 84 90 83 98 53 45 73 40 40 70 64 56 97 88 63 67 127 106 109 71 65 70 85 61 63 138 123 124 87 47 50 113 105 107 126 112 120 127 112 112 127 109 114 118 110 110 105 82 86 80 67 68 104 86 86 110 105 105 99 90 91 103 86 88 87 78 81 84 67 68 79 61 62 106 78 79 115 88 92 100 71 75 98 75 77 154 140 142 116 102 106 134 129 132 63 46 50 140 132 134 120 94 95 121 113 114 123 122 125 91 69 72 125 109 115 150 145 146 133 122 124 145 134 135 125 117 117 119 113 114 115 110 119 118 114 120 89 87 89 95 91 95 107 99 109 96 92 96 109 109 118 142 137 143 141 141 147 137 134 146 87 85 106 93 90 97 89 87 91 78 73 81 50 47 51 86 83 97 89 88 103 62 62 67 153 149 150 74 72 89 95 91 96 81 75 90 76 70 80 42 41 79 29 29 58 111 92 92 107 93 93 102 90 93 127 118 118 97 86 90 91 85 85 104 96 97 54 45 47 78 65 69 104 101 103 130 116 116 109 94 97 109 94 96 85 74 82 75 67 72 113 104 104 133 124 125 117 95 96 106 97 99 83 59 59 31 31 31 62 39 46 102 85 85 121 112 113 130 118 118 105 97 97 101 92 92 114 103 109 103 90 90 89 80 80 143 136 139 103 86 87 116 104 106 107 101 106 147 140 143 150 148 149 112 106 106 116 105 107 137 128 131 96 93 101 117 116 121 75 74 83 108 105 110 93 90 99 72 66 72 113 111 115 84 81 88 95 95 98 108 107 117 84 83 88 59 59 66 82 80 93 88 88 101 92 87 94 99 97 101 58 53 68 92 82 92 72 65 76 86 86 91 102 101 107 102 88 97 34 31 51 47 33 58 34 31 58 92 57 62 112 99 99 94 80 81 100 83 84 119 109 109 124 111 113 123 110 110 102 88 89 90 84 85 46 28 38 131 121 121 82 77 77 85 76 79 93 72 73 107 96 99 86 69 70 109 96 98 74 64 64 95 80 80 92 70 70 118 104 104 74 55 55 105 77 81 143 125 125 107 98 99 102 94 94 114 99 102 127 114 125 136 129 129 94 90 94 138 133 134 139 127 127 137 120 121 133 130 130 92 80 80 170 156 156 114 100 101 130 121 123 94 92 100 103 102 107 97 92 97 96 92 94 110 107 114 107 102 109 101 99 104 108 99 109 128 126 130 80 80 88 135 135 144 85 81 96 92 92 105 89 84 90 73 73 76 95 92 109 94 89 93 60 60 73 67 67 77 106 93 110 85 84 85 86 86 95 63 55 69 63 62 71 50 49 85 61 52 90 63 56 58 105 85 86 88 65 65 103 98 99 115 100 101 122 108 111 92 85 91 102 84 90 77 57 57 111 99 101 116 96 99 133 122 122 103 92 92 97 81 82 76 69 71 84 79 82 117 102 104 128 114 115 76 61 69 94 51 51 56 28 29 93 80 81 109 85 86 75 51 51 120 117 117 88 61 62 81 69 69 99 92 95 101 91 98 112 109 111 116 111 113 140 130 131 106 97 97 107 93 93 115 110 110 152 136 137 141 136 139 98 90 92 82 78 81 109 108 118 78 74 85 104 104 109 107 101 106 69 64 75 130 127 132 85 84 91 118 115 125 116 113 127 84 83 89 94 93 99 69 69 84 95 94 106 112 109 114 113 111 120 69 66 69 97 96 108 93 93 96 112 108 112 78 76 82 63 63 80 58 53 72 77 76 80 45 39 76 39 35 74 63 35 42 134 121 121 89 80 82 123 114 115 105 93 98 100 85 86 100 90 92 95 75 76 120 111 111 95 73 77 110 85 85 102 89 90 117 104 105 89 74 76 104 97 97 88 84 86 85 67 67 103 91 91 98 77 79 94 76 80 115 93 93 83 65 66 80 69 69 134 127 127 117 115 115 91 85 85 120 112 116 112 105 109 124 118 118 89 81 84 119 115 117 135 133 136 110 99 100 134 128 130 124 121 122 135 128 128 135 134 137 100 82 84 104 93 96 82 79 91 119 115 119 109 109 109 93 93 93 93 87 91 97 97 107 99 95 102 89 88 95 113 111 118 107 99 105 89 88 103 61 54 66 100 99 106 73 71 89 70 69 80 73 73 80 85 79 82 100 96 107 90 89 102 90 89 98 85 84 92 88 84 101 80 79 82 38 38 72 56 52 94 108 74 76 93 77 77 117 111 111 40 29 46 106 83 83 101 94 95 107 89 92 106 100 102 131 118 121 86 67 68 114 104 104 82 66 72 130 119 122 95 88 92 67 53 53 101 87 87 100 86 88 82 72 74 119 101 103 90 63 63 104 89 89 92 75 76 103 91 92 137 108 109 120 116 116 115 104 105 131 121 122 102 99 106 93 86 91 90 77 82 115 110 113 108 97 100 131 122 123 71 53 61 115 97 97 108 104 104 125 118 120 138 133 136 108 97 101 110 110 112 90 89 96 118 114 116 93 92 100 89 86 86 88 87 87 89 83 88 106 105 106 100 97 102 123 119 123 66 64 74 103 101 111 83 78 81 85 85 91 60 53 69 85 78 80 96 90 100 89 83 89 68 63 72 71 62 72 73 60 75 72 70 79 65 65 73 42 38 69 49 45 82 79 41 46 126 114 118 130 119 119 63 51 51 135 119 120 99 85 87 113 101 105 94 83 85 109 102 103 105 92 96 108 90 90 106 92 92 84 62 63 112 98 101 83 64 70 134 121 124 100 80 83 115 108 110 56 34 36 77 50 50 81 68 68 92 74 75 74 56 57 84 67 68 118 110 112 116 98 101 124 109 109 58 57 59 86 82 83 131 123 127 93 80 80 116 103 103 113 100 104 108 99 99 128 120 120 126 126 126 133 118 121 106 93 99 89 83 86 122 119 121 100 94 106 88 87 88 62 57 61 112 111 119 124 121 124 117 114 118 80 78 83 116 114 116 90 88 94 98 96 103 52 50 69 79 77 89 74 73 78 79 79 84 55 51 60 62 60 67 110 104 113 79 77 90 96 92 96 58 58 74 47 47 58 58 55 72 48 47 80 40 38 74 115 76 78 110 106 106 111 86 87 96 88 89 118 98 99 102 90 90 92 78 78 101 88 93 114 101 101 120 100 102 105 102 102 111 99 99 124 111 112 108 100 101 79 68 69 119 102 103 92 83 87 96 87 87 105 89 89 98 72 77 105 98 99 97 65 65 86 58 59 110 84 86 130 115 117 115 103 105 104 96 99 103 96 103 116 104 107 106 105 109 128 123 129 136 127 128 120 101 106 120 107 111 114 100 100 127 115 116 109 104 107 101 95 101 81 77 77 94 84 93 126 123 130 133 128 132 72 70 72 128 120 122 94 89 91 99 96 103 95 94 102 113 111 122 115 114 122 62 56 68 67 63 78 61 59 62 103 101 108 97 94 108 74 73 79 69 68 72 66 54 61 89 84 88 71 62 67 107 100 103 39 39 49 55 54 73 44 33 65 41 38 74 122 83 85 96 84 84 137 122 122 72 65 66 71 55 63 119 111 111 90 84 86 115 94 97 91 70 74 80 61 61 100 79 80 93 79 81 114 95 99 104 96 96 116 112 114 68 39 46 107 88 88 66 50 51 68 49 50 58 32 34 56 50 51 102 72 76 88 66 74 93 77 77 97 88 94 107 97 100 99 90 90 111 105 107 84 68 80 109 108 112 102 95 99 119 116 118 124 107 109 114 95 95 124 112 114 137 134 137 130 127 129 105 100 105 95 95 105 111 105 105 99 92 100 112 110 116 94 89 91 98 91 98 69 67 82 114 114 122 138 138 145 118 118 130 97 95 100 73 72 76 34 32 34 71 66 82 90 87 94 90 90 101 72 67 76 86 81 96 75 72 76 99 95 99 111 109 121 58 49 68 71 70 75 86 80 86 35 34 62 40 35 70 88 69 76 101 94 96 110 100 100 82 80 83 106 97 99 61 46 51 95 83 83 92 77 77 100 84 85 111 99 99 76 70 70 89 73 74 92 81 84 100 90 93 82 61 61 84 55 55 79 54 55 94 80 80 103 85 85 94 62 64 81 51 53 100 80 82 95 90 92 98 88 93 126 110 112 163 144 146 143 139 140 113 110 112 119 108 113 123 107 109 118 105 109 104 91 94 99 89 94 114 94 94 127 119 121 91 81 81 117 113 117 102 98 102 121 119 122 111 106 117 115 112 119 99 97 105 115 110 117 134 130 138 123 117 118 122 122 129 102 101 102 93 92 103 71 70 72 86 83 100 69 64 77 64 57 60 74 72 81 28 24 47 65 62 87 81 81 97 84 76 84 91 91 91 43 40 50 102 101 109 79 76 82 33 33 62 60 56 99 25 18 42 97 58 58 105 85 85 101 88 90 98 87 91 88 76 76 106 98 99 54 51 61 94 75 75 108 95 95 74 59 59 106 89 90 134 116 116 80 64 64 113 102 105 98 66 67 89 66 67 66 48 54 112 90 90 85 66 70 103 67 72 124 103 105 100 75 76 89 64 64 88 74 76 60 36 44 112 102 102 91 81 88 112 102 106 97 91 95 110 109 111 86 71 77 95 91 92 77 70 70 113 100 100 101 86 96 125 117 119 155 140 144 128 119 123 122 115 115 144 143 153 127 124 130 103 102 105 124 122 127 113 113 114 90 88 93 76 73 81 58 57 74 110 100 107 85 81 98 110 108 114 72 70 74 94 90 103 34 31 52 54 44 73 93 91 95 43 41 43 38 38 67 51 47 69 77 72 78 70 65 78 88 82 89 60 56 73 37 28 53 46 42 79 77 57 59 72 59 60 107 91 91 79 76 76 109 101 101 94 87 87 113 105 105 117 106 107 102 82 82 81 75 80 76 47 49 86 72 72 88 73 74 103 95 97 65 54 54 103 86 87 107 83 86 63 33 35 76 59 59 89 71 72 87 64 65 109 82 84 101 78 79 78 68 69 102 95 99 103 98 99 121 111 113 128 118 118 116 104 105 114 104 104 105 99 101 116 109 116 55 40 44 91 77 79 104 101 105 120 116 116 119 108 108 111 111 113 123 120 125 107 104 113 90 85 85 97 94 97 132 130 135 123 108 112 105 96 104 100 96 99 138 131 135 94 94 98 109 107 115 98 94 102 115 114 123 87 84 84 73 72 90 33 33 52 21 20 42 53 53 65 46 46 48 96 90 102 88 87 92 83 82 91 51 31 39 69 69 80 36 24 58 27 26 54 85 57 57 94 86 91 116 107 110 94 75 77 116 103 106 77 67 67 94 81 81 95 74 77 80 71 71 97 86 86 111 103 103 82 71 71 97 88 91 70 51 51 68 63 63 66 49 50 95 65 68 85 54 54 80 67 67 75 58 59 81 65 65 87 75 75 107 102 102 111 100 104 95 82 86 107 104 108 83 79 79 133 120 121 103 94 95 133 124 129 104 87 87 118 105 106 99 88 89 80 70 73 92 74 75 118 105 113 121 114 114 124 113 115 71 69 85 86 85 98 131 129 137 89 83 88 157 151 156 115 106 110 107 106 115 106 105 110 112 112 116 124 104 106 89 84 100 90 90 91 103 103 115 104 103 107 98 94 107 75 73 93 80 79 85 38 32 51 70 65 79 58 52 64 48 46 57 70 69 77 52 51 62 84 74 78 35 33 54 33 28 63 91 67 75 70 57 64 116 101 101 85 68 68 95 83 83 105 85 86 86 74 78 101 93 93 106 88 90 72 65 65 128 117 117 86 81 81 78 68 69 84 72 73 58 40 40 63 47 51 68 34 35 70 36 41 61 31 33 77 53 55 132 127 129 77 66 70 111 84 88 108 103 108 115 114 117 124 124 125 128 118 120 125 112 113 102 94 98 102 92 92 111 108 108 116 109 109 83 66 68 93 79 83 111 106 113 119 116 116 130 127 128 143 136 141 121 117 119 126 123 124 110 109 112 127 127 130 102 83 88 98 97 101 106 102 104 100 99 103 111 111 120 102 95 95 99 95 98 121 114 124 100 98 105 113 111 118 84 77 82 62 60 71 63 63 68 69 68 77 58 58 62 45 45 63 52 49 60 85 85 90 41 31 48 93 88 103 33 33 63 39 34 69 83 48 52 59 31 36 80 54 59 71 56 58 82 69 69 87 74 78 89 80 81 74 60 68 101 81 81 51 25 25 102 83 84 76 67 75 107 89 90 103 84 84 90 67 67 62 37 38 90 73 73 88 71 71 88 59 60 79 56 57 105 86 86 113 86 88 121 104 105 118 101 101 105 102 105 86 69 70 99 93 94 120 112 123 118 113 114 113 96 98 93 89 89 90 80 84 99 91 99 88 83 84 111 104 104 121 121 121 109 105 105 112 112 113 98 89 103 103 103 107 124 122 126 90 85 88 100 100 105 72 64 72 121 113 115 100 99 105 109 104 107 107 99 106 86 86 96 93 92 95 74 73 78 84 80 90 102 100 109 68 64 67 97 91 101 96 95 103 85 83 92 89 87 92 53 44 48 77 75 81 76 74 82 44 42 72 25 24 51 62 55 95 69 52 52 73 54 55 57 52 52 73 48 49 81 60 60 81 62 63 71 55 60 63 63 63 73 44 44 62 49 50 89 71 71 93 73 74 82 71 72 76 61 61 97 85 85 57 53 53 65 48 49 51 37 37 90 87 87 65 65 65 74 73 74 48 40 40 83 69 71 130 118 122 98 79 82 114 95 95 118 106 108 100 88 90 123 107 109 121 111 111 78 66 66 103 91 92 109 95 96 107 88 90 99 84 87 104 97 100 119 112 114 109 108 111 98 97 106 103 101 105 112 110 117 100 90 104 74 73 80 95 84 95 86 85 86 68 64 68 133 133 141 99 94 94 128 122 124 68 58 69 96 94 100 90 90 92 58 56 63 19 19 31 68 65 80 72 72 80 30 24 57 61 59 68 84 83 84 91 89 102 81 79 87 44 42 59 37 37 67 48 45 79 