P3
64 64
255
81 63 63 85 67 68 85 65 67 74 55 58 89 71 73 87 65 66 91 74 78 80 64 67 70 57 59 82 68 70 77 58 62 88 69 72 88 71 73 82 65 66 95 78 79 85 61 68 85 69 74 84 70 74 87 73 75 73 60 63 80 68 72 61 51 53 86 69 72 89 70 74 88 73 78 92 80 83 87 74 76 79 69 71 79 66 71 60 49 56 77 72 74 81 71 81 84 77 81 70 61 70 73 67 74 79 68 72 82 73 80 86 79 87 86 79 88 82 77 80 80 73 80 66 58 65 82 72 78 80 75 81 69 62 71 81 74 82 76 70 80 72 69 80 87 84 88 82 79 88 76 70 77 80 77 86 76 69 82 85 82 90 69 64 75 67 62 75 64 56 69 76 69 80 70 64 77 58 51 70 70 64 78 73 65 78 62 57 74 63 53 75 78 51 52 86 56 59 81 63 66 88 74 77 79 64 66 72 52 56 92 76 79 82 66 70 77 63 63 81 68 71 77 54 57 107 92 93 83 67 69 93 80 81 81 66 69 75 63 63 80 68 70 78 65 69 81 64 66 80 65 66 84 69 72 83 69 72 78 66 69 72 61 67 76 64 67 83 71 72 77 65 68 63 53 54 69 61 65 79 70 73 79 65 69 76 66 70 66 60 70 84 75 79 76 67 72 72 64 68 81 73 81 76 72 77 88 84 88 76 71 77 77 73 80 73 64 70 74 71 81 69 67 73 77 71 78 72 71 87 73 66 76 82 78 87 83 79 84 71 69 79 76 73 81 65 63 74 75 68 80 60 54 63 86 82 92 66 58 68 71 66 75 86 80 89 65 57 66 63 56 67 65 61 75 64 62 72 56 50 75 54 47 84 84 59 59 101 92 93 88 72 74 100 86 87 89 76 78 89 82 83 85 73 74 92 76 76 75 64 66 100 88 90 87 68 70 97 81 82 89 74 76 89 80 82 102 98 99 88 73 75 102 88 90 109 100 101 76 63 65 87 73 75 94 83 84 88 77 78 83 73 77 84 73 76 87 78 80 97 84 85 92 83 85 73 63 64 91 82 84 89 80 81 75 66 70 85 78 82 106 98 101 87 81 83 80 73 79 93 81 83 86 80 85 88 81 85 87 80 84 78 75 82 79 69 73 82 77 80 97 88 93 80 75 80 92 87 93 83 77 86 79 73 80 87 80 90 79 75 82 87 82 88 79 71 76 72 67 75 83 77 83 78 70 78 75 69 76 69 64 74 88 86 93 68 61 67 82 72 79 94 91 97 78 72 80 51 45 55 41 37 69 41 38 69 89 67 68 83 73 75 86 78 79 101 91 93 89 71 75 87 77 81 87 76 77 88 72 74 85 75 77 101 81 81 89 80 81 82 70 74 73 60 61 100 85 87 90 76 80 90 76 80 89 75 77 90 76 79 93 80 81 98 84 86 101 83 86 87 76 78 74 59 61 98 83 85 93 81 85 100 88 90 99 81 83 88 81 84 74 64 67 95 87 88 76 61 63 91 82 86 80 67 73 89 77 81 89 83 85 82 78 83 97 91 93 86 80 83 86 83 85 75 71 79 81 76 80 94 91 96 99 94 97 90 88 95 88 82 88 74 71 79 84 80 84 82 76 83 91 88 91 84 77 88 84 80 82 93 85 91 75 63 73 84 75 87 79 74 80 85 82 88 87 82 90 78 70 79 72 64 70 80 75 84 61 53 66 81 74 86 47 44 79 49 43 78 84 54 55 100 82 86 97 79 79 91 77 78 74 62 66 84 73 74 91 74 78 89 77 80 99 88 88 93 81 83 92 77 78 93 80 83 92 80 84 101 89 91 85 72 74 93 82 84 72 65 67 93 79 80 92 86 87 92 80 83 91 77 79 108 98 100 98 85 85 85 77 80 75 68 73 96 87 90 87 80 84 78 67 72 79 70 76 73 60 65 88 76 80 92 80 83 88 77 82 81 72 74 77 70 75 88 81 87 82 76 81 99 94 98 84 81 83 89 84 91 66 62 71 96 90 97 90 79 84 85 79 87 73 70 79 92 86 90 77 72 78 83 79 86 83 82 90 94 86 93 87 79 87 85 81 88 78 73 80 97 90 97 77 75 83 75 65 76 81 75 88 84 81 89 77 73 81 66 59 70 59 55 64 69 59 70 41 38 72 47 40 72 89 56 58 99 86 88 85 76 76 88 72 73 97 76 78 86 71 72 97 82 84 93 82 84 86 64 66 100 85 86 92 77 79 91 81 83 96 82 85 78 68 69 92 77 79 92 77 78 93 76 78 109 98 100 95 82 82 91 80 82 93 81 81 94 83 86 92 79 82 96 82 83 82 66 69 79 70 73 83 77 79 91 80 83 98 88 90 94 87 90 84 83 88 78 72 75 79 68 74 84 79 80 82 75 76 100 96 100 102 100 105 82 76 85 83 76 82 95 90 94 79 77 80 104 98 104 79 76 82 97 95 104 94 92 96 86 79 87 91 85 94 92 87 93 99 93 105 79 76 81 76 72 78 84 77 79 96 91 98 89 83 94 73 70 78 71 66 74 88 83 90 91 85 94 81 73 83 78 74 88 87 83 88 64 58 73 52 45 80 47 38 68 106 77 78 86 72 74 90 76 77 98 81 82 107 88 90 86 77 78 103 94 95 92 81 82 79 62 65 88 76 79 91 77 80 95 88 89 95 86 87 90 74 75 99 87 89 95 87 88 92 80 83 82 67 69 101 96 96 99 92 93 102 89 90 95 87 88 101 88 90 89 74 77 96 88 90 89 76 78 82 75 79 86 80 84 87 78 79 94 84 84 74 70 74 87 80 82 90 78 80 96 90 92 109 104 108 113 112 116 107 105 109 101 96 104 89 86 93 79 69 79 96 88 96 89 81 89 90 87 90 88 81 86 86 80 88 97 93 98 89 82 88 99 93 98 101 95 101 102 98 106 88 82 86 87 84 94 79 73 82 61 58 73 84 79 88 77 73 81 78 74 82 71 67 76 105 102 112 72 68 76 76 68 76 90 81 90 51 46 84 45 40 75 96 74 75 109 88 90 108 93 95 84 74 75 92 75 77 88 77 78 108 92 92 90 78 79 82 73 75 84 69 72 94 81 84 100 88 90 92 81 83 95 76 79 88 78 78 101 87 89 99 89 92 88 78 80 98 85 88 95 89 92 90 75 76 87 78 80 104 90 93 95 88 89 103 98 99 109 93 94 92 87 88 93 85 87 92 84 85 91 82 85 90 85 87 87 80 88 96 92 97 101 94 95 97 95 101 99 96 98 110 109 113 104 101 106 85 82 89 93 89 92 99 94 98 95 91 94 80 75 84 95 90 92 76 71 77 84 77 80 90 84 90 91 89 94 99 95 99 91 86 96 82 79 81 79 73 83 65 58 69 101 95 101 94 90 100 80 75 84 81 77 87 82 80 93 71 67 77 70 66 76 74 71 79 69 64 73 45 39 70 51 45 79 87 51 51 98 83 84 88 71 73 89 74 77 104 88 89 100 83 84 93 81 83 100 81 83 100 85 85 107 91 91 114 103 104 102 89 90 94 85 86 107 94 94 98 88 88 106 97 97 92 79 80 113 107 108 105 98 100 94 85 87 93 84 85 92 85 87 93 83 84 94 87 89 102 98 99 83 77 78 102 92 95 89 83 83 85 79 80 88 78 82 95 89 91 117 111 114 116 110 115 113 109 113 110 107 111 86 80 86 105 101 106 101 100 103 88 82 86 72 68 79 90 86 91 82 80 84 88 88 97 110 105 113 106 102 106 102 99 104 77 71 80 92 88 96 90 82 90 88 81 87 75 69 79 86 81 87 97 92 99 94 87 95 80 70 79 75 65 71 86 82 89 73 66 79 82 76 86 82 81 89 59 55 69 71 63 80 42 38 69 41 33 59 101 77 79 93 83 84 108 97 100 98 85 88 112 101 102 105 95 96 89 78 81 95 81 83 113 102 103 106 94 95 94 85 86 101 93 95 98 88 90 109 93 94 109 102 103 127 117 118 98 87 88 120 105 106 113 101 102 109 99 100 81 64 67 81 70 72 89 74 75 92 83 84 91 78 79 115 105 107 99 92 92 107 99 103 109 102 104 116 108 110 123 114 115 119 113 117 137 135 137 138 133 136 123 120 123 110 107 109 93 91 95 104 98 102 104 103 109 95 89 95 94 92 96 107 102 108 109 106 113 88 84 93 104 99 106 94 90 95 87 86 92 98 92 97 90 83 94 91 89 96 84 81 87 101 93 100 92 88 96 91 87 96 82 79 85 86 82 89 79 74 83 75 68 77 87 81 86 87 77 87 81 73 90 77 69 82 49 44 82 44 38 67 93 67 68 103 90 92 111 94 96 102 86 89 95 76 81 94 81 83 85 75 76 108 94 95 94 82 83 96 81 81 120 109 111 106 97 98 112 99 100 112 99 99 116 107 108 124 113 113 120 111 111 117 108 109 119 108 109 98 82 84 90 82 83 91 77 79 93 81 83 113 103 107 123 113 114 111 106 109 118 108 111 110 101 102 114 106 109 121 116 117 133 130 131 115 107 111 131 124 127 114 110 113 130 126 130 123 120 123 115 112 116 103 102 104 94 90 93 98 94 102 108 105 108 115 111 117 121 116 123 95 93 100 91 89 97 113 109 115 94 89 96 103 100 108 97 95 100 89 86 92 98 94 101 99 93 103 92 81 93 96 87 96 92 85 92 94 91 99 87 78 89 93 82 92 85 81 89 88 84 93 72 66 74 72 70 85 48 40 75 50 46 83 92 69 70 107 93 94 95 82 84 99 81 82 102 90 93 105 89 89 108 92 95 108 95 96 101 90 93 94 76 76 93 79 80 107 95 98 106 98 99 117 109 109 121 109 110 116 109 110 132 122 123 109 95 95 94 81 82 94 83 85 91 75 76 97 85 86 116 107 108 109 95 98 129 118 119 127 121 122 126 118 119 123 118 120 115 104 106 116 108 111 103 90 94 83 74 79 103 99 101 103 97 102 108 102 106 130 126 131 127 126 130 112 110 113 113 110 116 114 110 115 102 101 107 98 96 101 98 94 102 95 93 101 86 82 89 95 90 96 93 87 96 98 93 99 96 95 99 84 79 84 80 72 81 90 83 89 80 77 83 87 84 91 71 66 70 91 88 95 79 71 85 74 70 82 88 82 92 93 85 92 82 79 90 71 65 77 42 37 67 49 44 74 84 49 50 103 92 94 107 93 94 115 102 103 97 85 87 111 96 98 102 84 85 95 79 81 94 80 81 88 73 74 80 54 54 98 88 90 99 86 87 123 109 109 114 101 103 129 119 119 120 105 106 111 93 96 100 80 81 89 73 75 97 85 87 97 89 91 116 110 111 133 125 126 121 111 112 132 121 123 132 120 123 124 111 112 96 80 82 95 84 88 119 113 113 135 131 133 112 109 114 132 131 134 128 124 130 120 117 120 120 117 120 132 131 133 121 116 120 128 125 130 139 137 141 98 95 99 96 92 103 96 90 100 99 98 102 79 76 82 96 93 103 99 96 105 92 90 96 91 87 95 97 90 102 91 86 95 97 93 98 84 80 87 81 76 82 91 87 96 90 86 96 80 73 87 73 70 80 87 81 89 99 96 102 63 62 68 44 39 68 48 42 75 111 84 84 109 87 88 106 93 93 103 87 88 105 91 92 97 87 87 93 74 75 106 97 98 104 88 90 103 90 90 81 63 64 95 78 81 99 84 85 115 102 104 103 92 94 142 125 125 99 80 83 81 57 58 87 72 74 93 80 82 97 76 77 118 108 110 132 122 124 139 131 132 110 95 96 148 142 144 124 111 112 111 100 101 111 91 94 106 96 99 113 105 106 121 111 113 103 98 100 109 107 110 111 110 115 133 130 132 111 109 114 111 110 113 121 117 124 128 127 135 123 120 127 119 118 125 82 79 85 86 84 93 89 85 93 98 96 103 110 105 109 87 81 85 87 78 85 98 94 101 87 82 90 66 60 71 98 91 99 92 85 93 87 82 89 95 94 102 80 76 85 96 90 98 83 77 87 82 75 86 88 85 96 91 84 94 43 40 74 47 44 75 108 78 79 108 85 86 99 81 85 110 97 99 116 102 103 118 108 109 104 89 91 109 97 98 103 91 91 100 87 89 94 75 76 80 68 69 111 101 102 94 80 82 99 89 90 115 97 97 72 58 60 104 82 82 102 79 80 112 99 101 115 101 103 123 111 114 130 122 124 121 112 113 124 110 111 133 122 123 108 92 94 83 68 73 103 92 93 121 110 110 109 106 108 108 103 106 104 98 104 123 120 124 118 106 109 112 107 112 115 113 119 107 104 107 127 126 129 120 119 123 121 118 125 122 120 125 112 111 117 77 73 79 119 115 120 70 68 76 84 80 85 107 102 108 89 88 97 94 90 101 114 113 118 100 97 103 86 79 90 84 80 84 88 83 94 85 79 86 86 84 91 98 89 97 97 93 102 77 73 78 84 80 93 71 67 85 48 43 79 52 46 85 104 74 74 115 102 103 113 101 102 102 83 85 93 81 84 100 91 93 101 88 90 100 85 88 113 99 101 96 80 81 101 85 85 79 60 61 114 105 106 109 94 94 107 95 97 102 78 79 105 82 83 97 73 75 114 97 98 98 83 84 119 107 107 127 119 120 133 124 124 135 128 130 145 137 137 105 94 95 94 71 72 103 90 93 122 112 113 124 115 116 116 104 107 108 104 107 106 100 103 105 101 103 101 96 101 102 99 101 101 98 105 122 119 126 115 113 120 117 115 122 126 125 127 132 130 136 134 131 138 96 91 97 100 99 107 110 108 114 84 80 88 94 91 99 101 99 105 98 94 99 101 98 104 82 75 82 88 84 89 93 87 96 86 81 91 85 81 88 80 75 84 90 86 93 79 75 86 67 60 69 60 52 67 70 62 69 38 27 55 47 41 71 111 85 86 106 89 91 110 97 98 112 102 103 107 94 96 117 106 109 112 102 103 111 95 97 107 94 95 119 106 107 82 64 64 79 60 61 105 96 97 106 92 93 123 113 115 84 63 64 70 54 56 83 66 68 95 80 81 108 95 96 132 120 121 119 110 110 129 117 118 114 107 107 132 120 122 97 80 81 104 85 86 101 91 92 121 111 112 136 127 129 109 105 107 101 94 98 101 98 103 90 82 89 106 99 102 104 98 103 98 96 101 124 122 127 118 116 121 116 113 119 121 118 123 107 105 111 127 125 133 106 105 110 84 82 89 100 96 103 96 93 101 91 88 95 112 109 113 113 110 115 73 70 81 86 81 93 93 86 93 93 88 96 87 84 92 93 90 101 94 89 98 69 65 77 70 66 76 76 69 78 94 91 99 61 57 65 47 42 84 47 41 71 91 68 69 110 97 99 95 80 83 105 90 91 114 102 104 107 90 94 116 100 102 112 104 107 96 81 83 101 86 88 102 86 87 87 71 72 93 71 72 106 88 89 128 116 118 91 58 59 95 77 79 108 89 90 120 101 102 111 95 98 137 124 126 127 114 115 124 115 116 139 129 130 155 146 147 104 89 91 92 72 72 92 80 81 115 107 109 110 101 102 109 101 103 100 96 101 111 109 112 109 107 114 122 116 119 114 108 111 115 114 118 122 120 127 124 122 129 120 118 123 127 126 131 121 119 125 108 104 110 109 106 115 111 111 117 98 95 103 98 97 105 98 93 100 97 94 100 98 94 101 96 95 102 87 80 93 86 81 93 102 99 107 88 83 91 86 76 83 86 79 85 92 86 96 83 78 89 88 82 92 86 82 97 67 57 67 47 39 68 43 38 70 109 81 84 104 91 92 128 107 109 98 85 88 103 96 97 113 99 101 121 108 111 116 101 102 100 84 86 107 98 99 120 104 105 103 91 92 98 77 78 94 79 81 98 76 76 75 48 50 88 75 75 109 91 92 92 78 79 126 111 111 117 101 102 128 114 116 142 135 136 136 125 125 142 133 133 102 93 95 103 83 83 86 72 73 124 114 115 138 130 132 105 103 105 115 106 110 105 104 109 132 129 133 121 118 123 132 124 129 140 138 142 134 131 135 115 112 121 125 122 128 106 103 107 125 122 130 115 112 118 129 127 133 112 110 116 88 86 90 92 89 99 93 89 97 91 87 94 92 89 96 97 91 103 89 85 96 95 89 96 101 97 104 89 79 87 86 81 89 90 87 98 97 91 98 88 79 91 85 80 90 86 79 91 79 77 84 53 47 87 53 49 87 107 84 86 96 82 84 115 101 103 111 97 99 115 102 103 124 114 116 117 97 97 106 96 97 113 100 101 116 103 103 125 112 113 108 92 92 97 82 83 82 61 62 87 65 66 80 57 58 99 78 79 90 69 70 87 74 75 124 112 112 127 112 113 127 117 118 118 110 111 123 113 113 126 117 118 115 103 105 103 80 81 113 97 99 116 108 109 131 123 124 130 126 128 135 132 135 127 125 129 133 129 132 92 88 94 126 123 126 133 131 136 107 105 111 117 116 124 100 96 103 115 112 118 110 109 116 119 118 122 110 108 115 135 135 141 85 82 94 94 92 103 106 102 110 100 97 106 92 89 95 92 90 99 82 79 90 97 92 102 84 82 90 84 82 90 84 83 93 92 80 91 76 69 76 90 86 93 90 86 94 90 79 89 92 85 97 47 43 77 58 51 90 110 86 87 118 107 109 112 94 97 123 108 109 105 87 91 104 87 89 104 88 90 113 98 99 105 90 90 107 98 100 105 92 92 112 94 94 96 77 79 90 71 74 76 52 53 97 71 72 89 68 69 93 68 70 108 94 94 105 92 92 115 98 99 119 113 113 132 119 120 140 132 133 122 112 113 126 115 116 108 99 99 101 87 88 116 98 99 118 108 110 119 111 115 135 131 136 126 119 122 96 93 97 111 106 115 108 106 113 107 105 111 136 134 140 108 106 113 105 102 105 98 96 101 104 102 106 112 109 116 129 128 133 125 124 130 89 85 94 88 86 94 87 84 92 105 103 111 95 93 101 109 107 114 94 89 98 99 92 99 79 71 82 85 79 90 91 87 93 67 63 73 72 70 78 84 82 92 93 87 99 80 78 91 78 74 87 42 38 70 56 49 86 108 70 72 99 87 88 114 99 101 106 92 92 126 109 111 105 91 94 126 113 114 116 97 98 87 74 75 115 99 100 100 85 87 115 99 101 106 88 89 92 77 77 81 60 60 86 56 58 85 61 62 102 80 82 87 76 77 102 89 89 113 93 94 126 113 114 131 121 123 137 128 129 146 137 138 122 112 114 125 110 110 119 103 104 89 74 75 100 91 94 108 98 100 133 125 126 146 140 143 132 126 129 116 110 116 125 123 129 112 111 119 111 109 115 111 109 115 92 91 101 108 106 115 103 102 110 112 111 121 117 116 124 142 141 147 89 88 97 88 86 97 74 72 78 78 75 79 92 88 97 90 88 98 91 90 97 109 105 116 91 84 91 96 93 101 94 90 101 73 70 86 93 87 96 92 87 96 102 97 102 78 71 83 82 77 90 45 41 75 44 37 67 110 82 84 111 99 100 97 85 88 105 91 93 116 104 105 117 102 107 107 94 96 105 90 92 115 97 98 113 101 103 130 117 118 104 90 92 121 105 105 88 71 72 73 52 54 76 48 49 87 63 65 109 83 83 96 82 83 116 100 102 116 100 101 135 120 121 141 133 133 138 130 130 134 124 125 134 126 127 147 139 139 126 117 118 133 122 123 119 110 114 119 110 111 107 97 99 113 107 109 111 101 103 102 97 103 103 100 109 114 112 117 120 118 123 126 125 130 112 110 119 108 105 112 124 123 127 121 120 128 131 130 134 136 136 144 106 104 117 91 89 97 94 90 95 85 83 91 104 102 112 92 89 101 109 104 111 102 98 108 89 80 88 90 87 93 97 92 100 82 76 80 91 85 94 90 86 94 89 80 89 87 81 94 73 67 85 43 41 75 52 46 82 99 67 69 105 90 91 129 115 115 100 89 89 108 94 95 111 100 101 112 102 106 122 105 106 119 101 102 114 105 105 122 102 104 95 77 78 110 96 96 107 89 91 86 64 66 89 60 61 101 72 73 79 54 56 105 82 83 96 79 80 104 89 90 121 105 106 129 119 120 125 115 117 153 143 144 135 125 126 140 130 131 128 117 119 124 116 118 121 111 111 134 130 131 133 125 126 122 118 120 132 127 130 117 114 119 129 127 130 103 102 109 116 114 124 122 119 123 117 114 119 116 115 121 125 123 129 123 121 127 135 133 140 112 112 121 88 87 98 93 92 101 77 73 83 83 79 86 91 89 97 96 93 99 101 97 104 78 72 82 96 92 105 110 106 110 77 67 77 76 64 77 97 91 97 84 77 88 71 66 81 65 61 70 83 77 96 53 51 89 49 43 75 117 90 92 109 93 96 123 107 108 114 99 100 106 95 96 113 102 103 107 90 93 110 94 97 109 91 92 114 97 99 119 102 104 111 97 99 127 111 111 94 83 83 89 66 67 81 52 53 86 57 58 88 69 70 95 73 74 103 82 83 106 88 88 104 92 93 121 107 107 126 119 121 128 122 123 128 123 123 123 114 116 140 132 133 141 131 134 140 131 134 125 116 117 142 138 138 110 107 109 138 134 136 121 118 121 115 110 114 118 114 120 115 113 116 103 100 105 116 114 121 128 126 130 137 135 141 122 121 129 115 112 122 94 92 100 90 87 96 99 97 104 96 94 99 83 80 86 109 106 112 94 90 94 98 95 104 106 101 110 95 90 100 84 80 89 81 75 83 83 77 85 83 77 85 84 80 90 86 82 94 89 85 96 62 60 75 42 34 67 45 42 77 90 58 62 107 90 91 112 99 99 113 103 104 113 100 103 106 98 99 109 96 98 107 91 92 112 103 104 119 103 106 108 92 93 102 89 90 116 98 99 100 85 86 81 63 65 79 57 57 83 63 64 94 68 69 86 65 67 104 80 81 92 71 73 115 101 101 125 117 118 108 98 98 140 131 133 120 109 109 127 117 119 146 135 138 127 123 126 121 116 119 124 116 119 110 101 106 129 123 127 132 128 130 117 112 115 124 121 126 126 123 129 124 122 127 127 125 131 133 132 138 111 110 118 110 108 115 114 113 120 95 93 100 87 86 96 98 96 104 104 102 108 106 104 114 102 99 107 81 78 87 100 94 98 93 90 99 91 86 93 104 98 105 100 96 104 88 80 93 86 78 90 84 76 84 73 68 83 96 88 100 73 67 79 63 56 69 48 43 78 51 44 80 110 79 82 118 108 110 112 94 97 105 90 91 114 102 105 99 79 80 111 93 95 108 93 94 109 94 95 113 99 101 102 88 89 111 97 98 103 88 89 104 88 89 83 61 64 72 52 53 82 62 63 90 67 67 100 81 81 86 66 67 98 84 86 94 80 81 108 97 100 121 112 112 122 107 108 127 116 117 140 127 128 126 117 118 128 117 118 135 127 128 142 140 141 125 120 122 126 117 121 138 136 141 128 123 125 120 118 121 123 119 121 122 120 122 121 120 128 117 117 126 113 112 119 109 107 113 105 104 112 88 84 90 80 79 89 87 84 94 95 92 97 88 86 94 109 106 112 99 96 105 101 96 105 98 94 101 112 109 119 78 70 81 96 93 102 82 74 83 104 97 104 89 82 94 90 85 90 72 70 77 82 75 87 85 80 87 45 39 74 49 41 74 98 64 66 120 101 102 126 110 112 110 93 95 104 91 93 111 90 91 108 92 93 114 99 102 105 90 91 111 90 92 113 96 99 121 107 108 103 92 94 110 99 100 108 93 93 85 63 64 72 54 55 84 63 64 78 58 61 106 88 89 90 66 69 103 89 91 99 81 83 124 112 113 108 90 92 97 85 85 109 101 102 129 121 122 131 120 122 140 129 131 127 119 120 145 141 144 142 138 139 126 120 123 144 140 144 133 131 137 112 111 113 132 131 133 121 119 124 125 123 128 108 106 114 102 99 106 121 119 126 74 70 85 90 87 93 97 94 104 93 90 96 94 92 101 82 79 85 97 94 104 92 89 98 105 98 106 85 81 89 86 80 90 94 88 102 82 76 81 72 65 77 103 98 106 96 91 99 82 79 88 86 76 86 75 71 82 46 41 75 55 47 85 99 66 67 110 98 98 118 104 105 114 103 105 111 96 97 99 88 91 114 97 99 109 100 102 111 99 99 99 90 93 108 92 94 101 86 89 116 101 103 110 95 97 101 89 91 75 59 62 76 56 59 85 61 63 93 74 77 88 76 78 94 76 78 103 87 90 104 87 88 115 95 98 94 84 87 117 105 105 93 77 78 115 104 105 118 106 107 140 132 135 114 106 109 128 122 124 109 103 107 134 131 135 134 132 137 117 114 120 121 118 124 120 116 120 111 108 113 116 115 121 131 130 135 123 122 128 120 119 127 89 87 95 89 86 95 92 90 96 93 91 96 96 92 97 94 92 95 88 86 90 94 89 94 95 90 96 91 88 97 80 76 87 95 89 99 89 81 88 89 85 93 74 72 83 96 91 97 72 67 77 87 82 90 83 78 92 52 46 79 50 44 78 112 84 84 116 106 107 102 89 89 95 77 79 111 96 98 125 110 112 112 96 98 99 82 84 96 80 80 118 101 103 99 86 87 113 99 101 104 89 91 121 110 112 105 91 95 93 79 81 87 61 64 94 74 77 97 79 81 84 70 72 93 77 78 97 75 76 91 79 81 96 78 80 98 85 89 88 74 74 96 85 86 113 100 102 105 99 101 124 111 113 107 97 99 111 106 109 126 119 122 134 130 133 139 135 140 124 121 124 130 125 128 118 116 122 115 113 121 97 94 105 110 108 116 118 116 127 124 122 130 87 86 92 94 93 97 86 84 89 94 92 99 92 91 95 85 82 88 86 86 92 96 92 99 118 113 120 91 88 97 94 92 99 85 79 85 78 73 80 87 83 94 96 90 100 59 55 72 74 69 79 91 88 97 98 91 102 51 47 87 54 49 87 101 67 68 116 104 104 106 93 94 112 94 96 123 105 107 128 112 115 112 95 97 108 96 97 104 89 90 114 103 106 92 81 82 107 92 93 106 94 96 111 99 101 106 97 98 96 86 89 108 93 94 87 66 68 74 54 57 79 61 62 79 63 65 86 68 69 105 86 88 79 60 62 108 95 96 111 101 103 105 93 96 104 89 90 104 85 88 114 105 107 109 100 105 135 126 127 127 122 126 129 124 127 105 98 101 92 87 97 110 108 113 117 116 123 115 111 117 109 105 111 109 108 113 96 95 101 117 116 123 97 96 108 97 95 102 95 93 98 96 95 99 74 72 77 91 85 92 120 114 118 101 97 104 98 95 101 97 94 103 75 72 83 98 92 102 88 87 96 83 81 87 86 76 86 72 69 83 84 78 86 81 78 88 71 66 80 51 47 83 38 30 55 97 63 64 99 89 90 116 105 108 105 92 94 110 96 97 117 104 105 102 88 90 110 96 97 94 83 84 109 94 96 111 97 99 127 113 115 103 89 91 103 93 96 107 94 94 104 92 93 100 87 89 105 86 88 88 78 81 68 58 58 80 61 62 82 64 65 75 57 58 111 91 92 82 68 70 95 87 87 124 114 115 107 98 100 124 113 115 121 112 113 117 105 107 111 103 105 116 105 108 118 109 111 125 117 122 121 115 120 92 86 93 95 91 97 94 91 99 106 102 107 102 100 104 104 102 110 105 103 111 95 94 102 94 92 97 100 98 101 95 91 96 96 95 101 103 101 106 104 99 103 98 93 97 87 84 95 93 92 97 102 99 109 86 82 94 85 84 94 74 69 83 92 86 93 88 85 97 79 69 76 86 75 81 71 62 76 65 59 102 45 40 71 99 65 67 126 108 109 122 107 108 101 84 86 121 106 108 109 96 97 114 95 98 107 94 95 108 94 96 118 100 101 92 80 84 119 105 106 101 90 93 106 86 89 103 95 96 115 101 102 106 94 97 102 88 88 88 77 78 108 91 92 82 59 62 72 52 52 78 60 61 78 60 61 87 75 76 122 105 105 124 113 114 125 115 116 134 123 124 122 117 117 118 111 112 98 91 93 122 114 116 123 111 115 142 131 133 107 99 101 113 109 114 106 103 108 99 96 104 118 116 123 95 93 99 106 104 115 131 130 140 104 103 108 91 87 93 60 60 68 100 97 102 109 107 110 115 108 114 108 101 106 107 104 108 101 97 104 108 106 116 92 91 106 95 93 102 87 86 98 91 89 97 87 81 89 67 65 75 86 80 89 86 80 94 80 73 86 52 48 85 48 41 72 111 78 81 102 91 94 105 96 98 95 86 89 108 90 91 100 86 88 97 81 84 114 104 106 112 93 94 115 104 105 108 97 100 103 94 94 108 92 93 122 111 112 108 97 99 103 94 96 113 102 103 100 84 87 116 105 106 106 92 93 94 80 80 86 61 62 66 46 47 87 69 70 104 90 91 121 103 104 117 112 112 144 134 135 138 132 133 132 123 125 129 121 123 127 120 123 114 104 106 115 108 109 130 122 124 114 106 109 113 111 118 83 79 87 110 107 112 105 99 106 104 102 109 125 123 126 115 115 119 104 103 112 102 101 109 101 99 105 130 128 130 112 110 113 123 122 126 99 93 99 110 100 105 87 83 92 91 89 101 90 87 99 107 105 110 103 101 107 69 64 78 98 95 105 81 76 89 89 86 90 91 87 103 78 73 85 47 42 76 54 47 81 93 60 62 113 96 97 100 91 92 111 96 97 103 89 89 107 98 100 112 95 97 119 111 114 100 88 91 95 85 87 107 98 99 120 105 106 105 87 88 128 117 120 118 107 108 111 97 97 128 116 121 122 111 113 109 96 97 113 97 98 116 98 98 104 86 87 95 68 70 103 82 84 100 84 85 121 107 108 145 134 134 122 112 113 123 110 110 115 105 106 109 94 95 112 99 100 127 123 125 132 125 126 123 118 118 109 95 98 117 112 116 113 107 114 87 85 92 93 91 98 107 106 116 113 112 117 121 119 125 91 90 99 114 113 119 108 106 113 124 122 125 116 113 119 113 109 114 110 105 111 99 97 103 104 102 112 71 69 80 85 83 94 99 97 109 91 88 97 92 87 96 90 86 95 79 71 81 74 69 75 76 68 79 73 64 80 42 39 71 39 36 63 110 78 79 96 82 84 122 107 109 117 99 100 115 101 102 107 92 93 110 98 99 99 85 87 109 91 94 112 98 99 91 82 85 93 84 85 117 104 107 107 96 99 94 84 87 102 83 84 117 96 96 118 107 108 105 90 90 112 92 94 112 99 99 82 59 61 94 65 66 99 75 76 102 80 82 106 89 89 105 91 92 138 123 124 143 134 135 129 122 123 132 121 123 133 127 130 149 136 137 117 108 109 127 114 117 114 109 111 114 110 115 101 97 102 97 93 102 116 112 119 112 111 115 115 113 121 124 121 130 101 98 107 108 107 117 122 120 126 114 113 116 99 95 101 120 114 117 113 107 111 110 107 114 125 124 131 90 87 99 99 96 105 87 85 92 84 80 90 93 92 100 90 81 89 88 83 95 71 70 78 95 87 98 84 76 90 40 36 72 50 45 81 89 67 70 119 102 103 114 102 102 113 101 102 101 92 95 119 107 109 112 96 99 97 82 85 128 118 119 111 96 98 117 104 107 107 89 91 128 112 112 122 109 111 107 93 95 107 93 95 97 82 84 110 94 96 90 80 81 121 107 108 104 92 94 84 59 59 103 79 80 97 75 76 95 76 77 101 87 88 108 92 93 90 76 77 123 117 118 129 120 123 129 120 121 132 122 124 129 119 120 123 116 117 115 108 113 126 120 124 92 87 92 99 92 99 81 76 84 96 91 100 92 90 95 107 104 115 131 129 134 75 74 91 109 107 113 109 107 113 105 101 106 117 115 118 119 116 122 114 109 119 120 116 124 103 99 109 94 90 102 69 65 78 92 91 103 77 76 84 93 91 100 90 88 101 77 76 88 85 82 92 64 58 74 69 63 79 45 41 73 41 37 68 114 87 88 94 78 81 103 93 95 114 100 103 115 97 100 107 99 99 102 86 86 110 95 97 101 89 89 95 81 83 114 102 103 108 93 94 104 93 94 112 101 101 114 101 105 112 103 106 98 85 87 106 93 95 108 95 95 119 105 105 100 85 86 80 58 60 76 56 56 88 70 72 98 89 91 85 68 69 95 77 79 94 77 77 118 107 108 135 127 129 147 138 139 118 106 107 140 129 130 119 110 110 112 108 110 96 87 88 108 102 108 106 98 103 89 84 91 89 85 92 96 92 103 107 105 111 124 123 132 108 106 117 94 92 100 103 101 109 116 114 119 118 114 117 116 114 122 113 110 115 91 89 102 74 72 87 80 79 87 95 92 102 99 97 106 84 75 82 98 91 100 83 75 85 92 85 98 88 82 92 89 82 91 77 72 88 48 43 79 48 42 75 98 69 69 104 90 91 102 93 95 96 85 88 109 96 97 99 76 79 117 105 105 106 88 90 98 84 87 101 87 88 118 109 111 107 95 97 106 98 100 112 92 94 103 83 85 108 98 100 125 118 120 110 98 98 121 109 110 117 100 100 94 83 83 99 82 82 95 61 62 83 57 58 98 82 82 105 85 86 93 81 83 89 70 71 103 88 89 117 106 107 128 119 121 109 100 102 113 107 108 139 126 128 115 107 110 115 103 107 120 114 117 98 89 95 97 93 99 107 103 109 103 100 107 117 114 120 122 121 129 105 104 112 108 107 116 119 117 122 124 123 129 115 114 118 126 125 131 121 120 126 73 71 85 95 94 102 85 83 89 74 72 84 97 93 102 89 85 97 102 95 105 94 86 94 87 82 93 85 81 93 77 71 88 77 72 79 42 38 70 54 49 87 99 72 73 110 99 102 104 91 93 116 98 100 118 102 105 108 97 98 101 84 85 111 99 101 115 98 99 104 92 93 104 89 91 107 94 95 111 101 102 98 82 83 126 111 113 115 103 104 126 115 116 114 97 98 106 96 97 94 82 83 109 94 95 117 95 97 86 69 70 91 69 69 88 65 67 103 87 88 104 95 96 123 108 109 94 82 83 120 105 107 143 133 133 114 104 106 136 128 130 107 100 103 110 99 102 106 97 100 115 110 112 94 86 90 96 89 93 105 100 106 91 90 96 105 103 106 125 123 128 114 112 126 109 108 115 98 95 104 115 113 121 125 123 129 112 112 117 86 85 92 92 91 101 103 102 109 78 75 82 88 82 87 80 76 85 95 91 100 89 80 87 75 70 81 89 85 98 91 84 95 88 83 88 77 73 85 56 51 90 47 41 72 94 64 67 103 83 87 109 99 100 98 82 82 117 105 109 106 93 95 113 92 94 117 104 106 108 94 95 98 86 89 106 99 100 118 106 107 95 84 86 119 106 107 108 98 100 119 107 110 114 105 106 110 97 98 122 112 112 111 95 96 106 90 90 105 89 90 84 52 53 93 72 75 100 84 84 108 88 89 91 77 79 116 103 104 109 99 100 105 88 89 117 107 108 120 111 113 123 116 118 104 95 97 115 106 112 100 90 95 132 125 128 98 91 95 107 103 108 96 93 101 105 105 115 100 97 104 115 113 123 113 112 119 110 108 117 129 127 132 124 123 129 114 112 119 79 77 85 106 104 112 91 89 97 108 101 110 95 90 101 101 98 104 81 78 86 94 90 96 86 83 91 79 73 90 86 78 88 99 93 102 74 68 79 77 72 87 45 41 72 51 42 77 101 71 72 82 67 70 116 104 104 117 107 108 120 104 106 112 98 99 105 90 93 105 91 92 109 93 95 103 92 93 121 108 110 97 88 90 107 94 95 110 100 103 121 109 110 108 93 95 93 84 85 108 99 99 115 104 104 111 93 93 104 87 89 103 89 89 80 65 68 88 69 71 114 96 97 118 105 105 131 119 119 117 108 109 123 108 109 117 101 102 106 94 95 126 110 111 118 111 111 116 105 109 120 109 111 119 112 116 99 86 90 110 104 109 123 121 124 106 105 113 109 106 115 111 109 115 118 116 124 116 115 124 109 107 118 107 105 112 104 103 110 87 84 95 114 112 122 98 97 104 98 97 105 101 100 108 98 94 99 99 93 100 91 87 96 103 97 105 81 73 83 83 73 86 97 95 103 87 79 87 78 73 88 86 79 91 49 45 84 58 54 95 95 65 66 105 88 88 107 94 96 110 94 96 112 97 100 100 88 89 110 94 97 113 99 99 107 88 89 102 89 92 113 96 100 106 94 95 114 102 104 120 112 113 118 102 104 107 91 94 113 91 93 101 89 89 100 90 91 99 84 86 113 98 99 100 80 81 98 71 72 119 104 104 122 110 112 132 118 119 112 101 103 111 99 100 133 122 122 131 121 122 109 98 100 107 89 91 130 121 122 122 115 118 109 103 107 131 127 129 105 100 104 134 132 134 131 127 131 141 138 141 114 112 116 116 114 121 127 126 133 129 127 136 101 98 108 107 106 112 120 119 127 92 90 97 96 95 103 96 93 99 100 99 109 87 86 96 102 100 111 94 87 95 76 74 79 97 89 97 90 86 100 88 82 94 77 74 84 88 82 93 93 90 99 76 69 79 48 44 81 55 50 88 111 81 82 115 100 102 100 83 84 113 97 99 124 114 115 111 93 95 89 80 82 111 96 98 111 91 91 109 96 97 111 96 97 112 99 101 110 102 104 103 91 92 120 107 107 102 89 89 110 94 95 110 94 96 110 103 106 103 86 87 88 69 71 89 68 69 109 88 89 95 86 87 115 104 105 134 127 127 113 97 98 126 110 111 147 138 139 134 124 125 131 123 124 113 104 105 137 129 131 125 116 120 125 122 127 135 132 135 142 137 141 113 104 108 123 117 120 130 127 134 113 111 119 109 107 113 122 121 126 103 101 110 96 93 102 114 110 117 126 123 131 99 99 104 88 86 98 93 90 101 98 96 104 103 102 110 86 81 87 89 87 98 93 87 96 94 91 99 78 73 83 83 78 86 83 75 89 93 89 96 88 86 98 65 57 76 38 34 67 50 45 83 97 69 69 92 79 80 112 99 100 122 109 109 103 95 97 101 84 86 103 91 92 116 109 112 109 99 102 97 88 88 122 111 113 110 99 101 109 95 96 125 111 112 117 105 108 96 88 89 117 101 102 117 102 103 109 92 92 100 85 86 106 80 81 93 67 69 107 89 90 117 108 108 135 124 125 118 103 104 125 115 116 127 111 112 108 100 101 139 129 130 116 108 109 111 100 101 125 115 116 142 139 141 125 120 124 117 111 115 140 132 136 126 117 119 110 100 104 97 95 99 113 110 115 105 104 109 125 123 130 98 97 104 80 77 82 97 94 102 119 118 123 103 100 106 90 87 93 88 87 96 91 89 94 81 80 87 100 97 109 100 96 106 87 85 95 85 81 90 77 76 83 83 82 94 85 80 89 99 96 105 80 79 86 78 74 85 49 42 75 48 43 79 91 60 64 104 83 84 104 86 87 120 105 106 113 104 106 96 86 86 114 102 105 111 99 100 105 88 90 103 87 90 113 99 101 119 106 107 100 85 85 112 99 102 110 103 104 103 86 87 108 95 97 106 92 92 109 92 92 89 69 70 88 68 68 101 81 82 111 94 94 115 108 109 128 118 119 138 127 127 129 120 122 127 109 110 112 97 97 138 127 129 121 114 115 126 117 119 114 108 109 117 108 110 122 117 119 128 120 120 120 107 109 120 112 116 113 109 112 105 101 105 114 111 118 123 121 128 115 113 123 102 97 103 89 85 93 117 115 121 100 98 105 123 122 127 93 91 102 81 80 89 95 93 103 94 92 98 90 88 98 79 77 88 83 81 86 96 91 103 97 91 104 54 46 57 85 83 91 83 77 83 85 82 93 68 64 88 49 44 78 55 50 91 108 79 80 100 83 83 108 93 94 120 108 109 128 118 119 90 76 77 119 105 106 112 98 99 110 98 99 97 85 86 106 92 93 96 80 84 108 97 98 99 86 89 119 105 107 107 91 92 112 96 99 94 82 84 104 90 90 95 71 72 93 79 79 104 81 83 85 68 69 137 125 126 127 118 118 121 112 113 112 101 103 111 102 103 133 125 126 119 108 109 138 128 130 120 116 118 123 115 117 118 110 112 120 117 117 134 123 124 122 116 118 109 107 110 104 99 102 112 108 111 105 103 110 129 128 137 110 109 118 93 91 95 90 88 97 90 87 96 107 104 115 115 113 117 102 101 109 77 77 86 104 101 107 87 84 89 82 81 88 96 94 105 86 85 90 74 67 75 88 84 96 88 84 91 90 88 96 87 83 92 76 70 78 63 60 72 44 41 77 47 42 78 113 85 86 101 93 93 105 92 93 98 84 87 90 79 81 111 101 103 105 96 98 109 91 92 112 93 95 131 121 123 107 91 93 98 84 87 114 102 103 109 90 92 107 97 99 109 96 98 118 108 110 101 84 85 93 77 78 68 52 53 93 71 72 91 69 72 100 88 90 133 121 122 109 104 106 124 115 115 128 121 122 114 101 104 108 98 99 128 118 120 124 119 119 128 117 120 121 118 120 145 142 144 132 121 123 126 116 117 113 105 108 113 105 109 105 102 105 120 112 117 112 111 115 100 97 106 104 98 104 91 87 93 92 88 92 89 87 95 85 83 94 102 101 107 129 128 135 81 79 92 101 98 106 88 87 94 85 83 97 89 82 96 91 86 102 98 93 103 110 105 114 100 95 102 81 77 88 82 75 84 76 74 83 71 65 89 51 46 85 54 50 87 93 69 72 107 92 94 103 91 92 108 99 101 104 87 90 97 85 87 95 87 88 108 95 97 103 92 92 117 99 100 106 92 94 113 101 101 103 91 92 110 92 94 127 117 119 113 97 99 95 82 83 114 101 103 92 80 81 89 71 72 97 69 69 97 76 78 96 81 81 127 112 113 131 122 124 109 103 105 105 96 100 110 98 99 114 104 106 105 93 94 117 112 113 131 122 122 133 128 130 141 134 137 135 126 127 143 131 132 117 109 110 116 111 114 107 99 102 104 100 106 117 116 121 124 122 127 104 101 106 107 105 111 93 89 94 81 77 87 93 90 99 100 98 103 120 119 127 96 94 104 83 79 90 90 87 94 90 88 100 94 91 101 84 81 94 85 83 93 100 97 108 85 78 88 75 69 79 71 64 73 74 69 83 80 74 92 45 40 78 51 45 83 95 67 68 104 90 91 89 75 77 108 94 97 107 95 95 103 90 90 122 114 117 106 97 99 88 80 84 104 93 96 121 105 106 102 93 96 114 104 105 107 95 96 113 105 106 97 93 94 101 88 89 118 106 107 107 89 89 100 77 78 96 73 75 96 81 82 96 79 81 123 110 111 122 113 116 117 109 112 109 99 101 107 100 102 117 111 113 107 97 99 103 96 97 121 111 113 129 123 126 127 120 121 131 125 126 126 117 119 137 129 130 122 115 117 104 99 105 104 99 105 131 129 136 124 120 127 110 106 112 98 95 100 89 87 93 102 99 107 102 100 110 102 100 110 112 110 120 87 86 97 89 86 97 97 95 102 83 81 90 99 97 109 85 81 90 92 89 99 96 94 104 83 77 88 87 79 84 90 87 95 84 79 88 92 86 100 50 46 84 48 44 79 95 70 74 110 101 103 94 81 83 112 97 99 115 99 101 114 100 102 120 107 110 113 96 98 107 97 99 111 96 99 107 93 94 111 101 102 110 102 102 113 102 104 97 85 86 103 93 95 107 93 95 125 106 107 90 75 75 88 64 65 103 94 94 85 65 66 99 81 81 115 101 101 117 109 110 113 104 105 114 107 109 109 100 105 115 109 114 129 122 124 107 94 97 118 111 112 108 100 102 126 115 115 118 109 111 132 120 121 106 96 100 103 97 102 97 94 96 104 103 109 114 111 120 111 109 114 106 101 105 91 89 96 98 96 101 111 108 120 108 106 111 111 110 117 106 105 118 90 87 97 95 94 104 84 81 94 98 97 102 101 100 110 94 92 100 90 88 97 90 87 95 79 75 82 75 71 78 94 88 99 82 76 89 83 79 89 53 49 87 55 51 91 110 79 80 116 104 105 108 93 96 101 88 89 102 89 91 117 105 106 116 107 108 108 99 100 107 90 92 123 112 115 114 99 102 110 98 99 97 83 84 108 98 100 116 100 101 106 90 92 111 104 105 106 92 93 99 88 89 88 66 69 92 80 82 102 83 85 88 70 73 118 99 100 120 110 113 111 107 110 119 112 115 113 106 109 102 90 94 124 118 121 117 113 115 101 93 97 88 82 82 101 88 90 115 105 108 127 119 120 120 112 114 112 105 107 108 102 108 105 100 105 110 107 114 108 106 115 118 114 121 102 98 103 98 95 100 101 100 106 127 125 130 120 119 126 115 114 119 98 95 102 92 92 97 99 98 108 80 77 91 96 94 102 98 94 102 87 85 94 96 93 105 70 65 80 87 84 92 73 69 81 88 83 91 83 80 89 52 47 86 50 45 77 93 67 68 109 99 100 101 80 82 110 94 96 119 108 110 108 92 93 111 100 103 124 112 113 93 82 82 119 105 106 116 109 111 111 101 103 104 90 91 116 102 102 124 112 114 110 98 100 110 99 99 112 102 102 93 81 82 85 65 66 91 68 69 85 63 64 105 87 88 108 84 84 116 109 111 132 126 129 110 105 107 112 108 112 114 106 112 105 94 101 122 116 117 103 94 96 110 95 97 109 102 104 130 119 121 134 124 126 124 115 118 121 116 119 106 99 108 121 118 123 123 121 127 111 108 112 110 108 112 108 104 112 98 93 101 127 126 132 100 96 102 121 120 126 113 110 118 101 99 107 85 84 94 103 101 110 102 100 108 92 89 103 93 92 99 114 114 120 95 90 100 87 81 94 85 83 95 96 91 99 72 62 74 68 65 72 42 37 68 49 46 87 98 75 77 103 90 93 116 103 104 115 101 104 99 87 89 95 80 82 103 93 96 110 94 95 106 97 99 108 97 98 104 93 95 107 100 100 115 100 103 119 111 112 109 96 98 99 86 86 115 106 107 113 106 106 100 89 90 77 64 65 99 74 77 83 58 59 108 89 89 78 63 65 120 108 112 122 110 111 105 98 102 99 87 90 115 110 112 104 97 100 107 100 101 114 109 111 94 87 89 117 100 102 128 117 117 128 119 120 115 103 105 108 101 107 103 97 105 126 123 130 130 128 134 131 129 134 116 112 117 126 125 132 102 100 107 107 104 110 123 121 125 110 108 116 103 102 107 101 100 109 82 80 88 81 79 91 94 91 100 73 72 78 84 80 90 80 80 90 92 88 95 100 95 103 108 105 114 94 86 95 83 78 91 82 78 93 46 39 73 41 39 75 111 85 86 114 94 95 92 78 78 101 82 84 115 93 94 104 91 95 100 88 92 96 81 82 117 101 104 109 95 95 115 108 109 122 104 106 115 107 109 124 106 108 111 102 103 117 108 109 118 105 106 108 95 96 105 90 90 93 67 68 92 77 79 99 77 77 82 58 58 88 72 73 124 114 115 124 115 117 107 102 106 113 106 111 116 109 112 108 103 105 112 105 108 108 99 101 111 99 101 107 95 97 124 111 114 146 138 140 116 104 108 106 99 102 107 105 108 120 118 125 144 144 147 121 119 122 129 126 131 119 117 123 124 122 127 123 120 128 113 112 119 112 110 117 109 106 115 106 105 109 107 105 116 102 99 107 106 105 116 97 95 108 85 81 95 76 76 87 90 89 97 89 87 100 67 66 78 100 95 107 98 97 105 86 83 94 58 52 91 48 45 79 116 78 80 109 97 101 109 87 87 104 88 88 94 80 81 111 99 102 103 90 91 112 98 100 110 98 100 108 97 100 108 97 97 102 90 91 106 90 91 93 77 78 101 87 89 99 90 91 123 110 111 97 87 87 81 71 72 100 79 80 107 89 89 84 63 64 95 72 73 100 83 85 111 99 100 122 113 115 108 98 100 111 101 103 113 105 109 105 99 104 116 107 111 134 120 122 99 89 90 119 111 112 127 119 119 138 131 132 113 102 104 107 102 105 90 86 96 126 123 128 136 134 143 119 117 120 125 121 126 128 124 128 136 133 137 107 105 108 126 125 130 111 109 116 95 93 100 93 91 102 116 115 119 92 91 99 84 81 89 95 93 101 91 90 98 91 85 99 93 89 100 74 68 78 87 81 89 71 67 85 90 86 94 78 73 83 43 39 76 54 48 86 95 68 71 114 95 98 116 101 103 111 91 93 110 97 97 104 89 91 101 85 88 101 89 91 117 108 110 103 94 94 115 99 101 112 104 106 115 97 98 114 99 100 112 101 102 109 95 96 112 101 101 111 94 94 99 86 87 107 95 95 94 79 79 98 79 79 101 78 79 119 101 102 124 117 117 116 106 108 132 121 123 109 95 98 111 101 105 107 101 102 110 101 102 112 105 107 115 107 108 119 111 113 135 127 128 107 98 99 118 111 113 109 105 112 100 97 102 121 120 124 121 120 125 107 105 107 117 117 122 116 109 115 119 116 122 99 97 103 102 97 104 95 92 100 102 100 106 94 91 101 93 92 105 102 100 105 90 88 94 95 92 99 74 69 81 86 83 92 88 85 96 86 86 92 83 80 100 89 82 95 88 84 91 78 72 87 50 45 83 53 48 85 90 67 68 109 95 96 119 108 110 102 88 89 110 98 99 117 107 109 109 94 97 114 102 104 109 99 101 107 86 88 101 89 89 99 85 85 101 88 88 115 107 107 106 93 94 83 68 69 89 68 72 103 91 93 105 90 92 103 86 86 95 81 84 107 86 88 103 84 85 135 121 122 130 119 120 112 104 105 113 100 103 117 110 113 108 100 102 109 100 102 112 99 100 123 116 117 113 109 109 135 126 126 136 126 127 116 109 110 118 112 114 116 108 114 113 108 112 102 99 110 103 102 107 106 104 110 109 105 109 96 91 99 100 95 101 100 98 102 94 91 99 111 108 117 125 123 127 117 115 120 78 78 91 95 92 99 97 96 106 85 84 91 93 93 101 80 75 84 92 89 96 88 81 90 79 76 90 88 86 98 81 78 86 82 80 94 47 43 78 55 51 90 91 62 65 91 78 79 113 104 105 110 97 99 97 82 83 109 95 96 92 82 83 98 86 87 103 92 93 112 101 102 98 84 86 108 91 94 97 88 90 104 92 93 93 81 81 104 84 85 120 107 109 117 96 99 92 75 77 112 99 101 93 76 77 106 89 91 117 103 105 126 119 119 121 110 113 126 111 115 115 109 111 124 114 117 109 102 103 108 101 103 127 115 118 126 119 121 120 106 108 141 133 133 132 123 125 109 97 99 108 96 98 93 87 92 118 115 123 109 106 110 99 96 98 105 103 109 119 113 118 119 116 121 94 89 97 100 95 103 106 103 108 109 103 111 104 99 105 115 113 120 112 110 120 104 103 113 90 89 97 90 89 100 85 83 91 86 83 91 98 97 102 84 80 91 71 68 82 91 87 97 78 76 83 85 82 92 48 43 79 49 43 75 113 81 82 126 117 118 122 107 110 108 94 97 123 111 113 99 84 86 104 92 93 108 91 93 106 88 90 116 108 108 111 101 101 95 81 82 97 82 83 106 91 92 89 75 76 100 83 83 90 76 78 94 72 74 93 75 75 85 72 73 101 84 85 131 120 121 122 106 108 139 127 127 105 97 99 100 94 96 113 99 103 109 97 99 108 101 107 94 85 89 133 124 126 137 130 131 134 124 125 133 124 126 108 99 104 131 121 125 105 94 101 96 87 91 104 100 107 114 108 115 107 100 107 110 107 115 103 94 99 104 97 103 108 101 108 122 115 122 87 83 90 97 94 102 107 103 109 115 114 120 121 120 128 118 116 123 106 104 112 78 76 88 72 69 80 89 86 98 91 90 99 83 80 89 80 77 87 92 87 95 89 84 96 75 74 88 39 35 70 51 45 79 109 73 75 98 84 86 99 82 84 111 98 99 95 79 80 97 91 92 117 105 107 118 110 113 100 87 87 114 101 102 118 110 111 108 98 98 119 109 109 120 106 107 78 63 64 89 70 71 106 88 88 89 66 67 103 75 76 96 79 80 118 106 107 130 119 120 132 121 122 120 112 114 101 93 97 103 97 102 102 93 94 117 104 107 107 99 103 124 113 114 129 120 122 125 119 119 127 116 120 135 125 126 121 112 115 120 111 115 112 106 109 103 97 104 106 101 106 126 119 124 112 109 116 89 80 89 108 103 110 103 93 100 102 98 105 110 104 111 102 100 108 115 112 116 109 106 112 105 103 111 111 110 118 124 122 132 102 100 105 87 85 95 104 102 108 89 87 92 74 72 84 90 89 100 84 81 90 89 85 94 81 77 89 67 61 78 48 44 82 36 32 63 114 80 80 109 99 101 108 101 101 110 102 104 113 100 102 107 94 95 109 100 100 123 114 117 101 94 96 96 82 83 111 104 104 98 82 83 106 96 97 107 100 102 84 72 74 88 67 67 88 71 72 83 63 64 81 57 60 83 59 59 123 113 114 132 122 123 120 109 109 104 95 96 108 98 101 106 90 92 113 101 103 123 114 115 104 99 102 110 98 99 126 118 118 138 128 130 129 119 121 129 122 123 119 109 113 109 99 106 102 95 100 92 84 88 98 92 99 99 95 99 90 86 97 94 91 98 107 102 108 96 91 95 115 109 113 101 96 105 96 93 104 122 117 121 89 87 91 97 92 100 109 106 113 111 109 117 102 98 108 87 85 98 83 81 89 98 95 102 77 73 80 81 79 85 72 69 82 82 77 92 80 77 86 64 61 75 53 47 87 45 39 71 109 79 80 103 93 93 115 104 106 111 102 102 110 99 100 121 110 111 119 111 113 94 82 84 116 101 102 118 101 103 109 102 103 112 95 96 101 94 94 105 94 95 76 58 59 74 60 60 52 42 42 69 53 57 81 66 68 70 53 55 105 91 92 100 87 88 108 93 94 102 92 93 104 96 100 103 95 98 122 114 114 108 98 100 115 105 108 124 118 118 127 120 121 124 114 116 139 132 134 127 120 122 118 109 111 110 104 108 108 98 101 109 98 101 96 93 98 103 97 105 114 112 116 95 90 97 106 106 111 101 96 101 131 129 131 116 112 117 109 107 115 122 119 125 117 114 117 121 120 127 124 122 131 110 108 115 114 111 119 85 83 92 90 89 95 99 98 105 77 73 84 87 85 95 79 77 83 71 68 80 76 72 80 71 66 82 36 34 69 43 40 74 97 76 79 103 83 86 95 80 83 91 83 83 104 90 91 98 87 89 115 102 102 96 87 88 128 118 118 91 80 83 100 89 89 107 94 94 101 91 92 104 93 93 81 63 64 73 60 60 60 50 52 64 46 48 50 37 37 53 40 41 57 45 46 54 44 48 86 72 73 87 78 80 111 106 108 115 109 111 117 104 107 111 106 108 124 114 117 99 88 91 124 113 115 119 112 114 112 100 102 132 121 122 108 100 102 106 98 102 108 105 107 123 118 122 107 100 108 119 117 120 112 110 114 110 106 110 122 119 125 121 116 126 124 121 125 140 137 140 111 110 115 121 119 123 118 114 120 104 103 108 93 90 101 70 67 75 66 65 74 79 78 86 91 89 95 93 92 100 87 85 95 75 71 81 79 78 85 86 79 87 84 80 91 62 57 70 48 45 77 44 39 69 