P3
64 64
255
56 34 34 0 0 0 0 0 0 63 58 63 34 21 34 0 0 0 0 0 0 56 34 34 76 46 46 0 0 0 0 0 0 56 34 34 56 34 34 56 34 34 56 34 34 34 21 34 0 0 0 0 0 0 0 0 0 56 34 34 0 0 0 0 0 0 0 0 0 34 21 34 0 0 0 0 0 0 0 0 0 0 0 0 0 0 0 0 0 0 0 0 0 34 34 56 0 0 0 0 0 0 0 0 0 0 0 0 0 0 0 0 0 0 0 0 0 0 0 0 63 46 63 0 0 0 0 0 0 34 21 34 0 0 0 0 0 0 46 28 46 0 0 0 34 34 56 0 0 0 34 34 56 34 34 56 0 0 0 34 34 56 0 0 0 0 0 0 34 34 56 0 0 0 34 21 34 0 0 0 34 34 56 0 0 0 0 0 0 0 0 0 56 34 34 0 0 0 56 34 34 34 34 56 56 56 56 56 34 34 34 34 56 0 0 0 0 0 0 34 34 56 56 34 34 0 0 0 0 0 0 0 0 0 0 0 0 0 0 0 0 0 0 0 0 0 76 46 46 0 0 0 76 46 46 0 0 0 0 0 0 56 34 34 0 0 0 0 0 0 0 0 0 0 0 0 0 0 0 0 0 0 0 0 0 0 0 0 0 0 0 0 0 0 0 0 0 0 0 0 0 0 0 0 0 0 0 0 0 34 34 56 0 0 0 0 0 0 0 0 0 34 34 56 34 34 56 0 0 0 0 0 0 46 46 76 0 0 0 34 34 56 56 56 56 34 21 34 0 0 0 0 0 0 0 0 0 0 0 0 0 0 0 0 0 0 34 34 56 34 34 56 82 82 92 34 34 56 34 34 56 34 21 34 76 46 46 76 46 46 0 0 0 76 46 46 0 0 0 76 46 46 34 21 34 56 56 56 76 46 46 76 46 46 76 63 63 56 34 34 56 34 34 34 21 34 34 34 56 76 63 63 0 0 0 56 34 34 34 34 56 0 0 0 56 34 34 63 46 63 0 0 0 0 0 0 76 46 46 76 46 46 0 0 0 0 0 0 34 21 34 56 56 56 0 0 0 56 34 34 0 0 0 0 0 0 0 0 0 76 46 46 0 0 0 0 0 0 0 0 0 0 0 0 0 0 0 70 70 92 0 0 0 0 0 0 0 0 0 46 46 76 34 34 56 0 0 0 0 0 0 46 46 76 34 34 56 46 46 76 56 34 34 34 34 56 0 0 0 56 56 56 0 0 0 63 46 63 0 0 0 46 46 76 0 0 0 46 46 76 0 0 0 0 0 0 0 0 0 34 21 34 63 46 63 63 39 46 56 56 56 0 0 0 0 0 0 0 0 0 56 56 56 56 34 34 0 0 0 56 34 34 82 50 56 0 0 0 70 56 82 56 34 34 56 34 34 56 34 34 34 34 56 92 56 56 56 34 34 56 34 34 0 0 0 34 21 34 0 0 0 56 56 56 34 21 34 0 0 0 56 34 34 56 34 34 34 34 56 76 46 46 0 0 0 0 0 0 56 34 34 56 34 34 56 34 34 46 46 76 0 0 0 34 21 34 0 0 0 56 56 56 0 0 0 0 0 0 34 34 56 0 0 0 46 28 46 0 0 0 0 0 0 0 0 0 0 0 0 82 70 82 34 21 34 0 0 0 34 34 56 63 58 96 34 34 56 34 34 56 0 0 0 63 46 63 34 21 34 56 56 56 0 0 0 56 34 34 56 34 34 56 34 34 76 46 46 56 34 34 0 0 0 56 34 34 0 0 0 34 21 34 96 63 76 87 63 87 0 0 0 56 34 34 56 34 34 56 34 34 0 0 0 0 0 0 34 34 56 56 56 56 56 34 34 0 0 0 0 0 0 56 34 34 0 0 0 0 0 0 0 0 0 56 34 34 56 34 34 0 0 0 34 34 56 56 56 56 46 39 63 56 34 34 0 0 0 0 0 0 56 34 34 34 34 56 56 34 34 56 34 34 56 34 34 34 34 56 63 46 63 46 46 76 0 0 0 0 0 0 34 34 56 0 0 0 0 0 0 0 0 0 0 0 0 0 0 0 0 0 0 34 34 56 46 39 63 0 0 0 56 50 82 0 0 0 76 76 105 0 0 0 63 46 63 70 56 82 56 34 34 56 56 56 63 58 63 56 56 56 0 0 0 56 34 34 0 0 0 56 34 34 76 46 46 0 0 0 0 0 0 105 76 76 34 21 34 56 34 34 96 58 63 34 21 34 56 34 34 34 21 34 0 0 0 34 34 56 63 39 46 0 0 0 56 34 34 34 21 34 56 34 34 34 34 56 34 21 34 0 0 0 63 46 63 0 0 0 76 63 63 0 0 0 56 34 34 34 21 34 56 34 34 56 56 56 0 0 0 0 0 0 70 56 82 92 70 70 0 0 0 0 0 0 56 34 34 0 0 0 70 56 82 34 34 56 0 0 0 0 0 0 46 46 76 34 34 56 0 0 0 0 0 0 34 34 56 0 0 0 56 56 56 34 34 56 0 0 0 63 63 76 0 0 0 56 34 34 70 56 82 0 0 0 46 46 76 56 34 34 46 39 63 34 34 56 46 46 76 56 34 34 56 34 34 56 56 56 0 0 0 0 0 0 56 34 34 76 46 46 76 46 46 76 46 46 56 34 34 56 34 34 56 34 34 76 63 63 0 0 0 76 63 63 56 34 34 76 63 63 0 0 0 92 82 82 76 46 46 56 56 56 0 0 0 63 63 76 0 0 0 56 34 34 0 0 0 0 0 0 63 63 76 56 34 34 0 0 0 56 34 34 76 63 63 56 34 34 0 0 0 56 56 56 56 34 34 76 76 76 0 0 0 34 21 34 34 21 34 34 34 56 0 0 0 46 46 76 0 0 0 34 34 56 34 34 56 0 0 0 56 56 56 34 34 56 34 21 34 46 46 76 56 56 56 34 21 34 34 34 56 34 34 56 56 56 56 34 34 56 0 0 0 0 0 0 46 46 76 0 0 0 0 0 0 56 56 92 34 21 34 0 0 0 56 56 56 0 0 0 0 0 0 56 34 34 0 0 0 0 0 0 56 43 70 56 56 56 34 21 34 0 0 0 63 46 63 56 56 56 76 46 46 0 0 0 63 46 63 0 0 0 76 76 76 0 0 0 0 0 0 92 70 70 0 0 0 0 0 0 63 39 46 56 50 82 0 0 0 56 34 34 0 0 0 76 46 46 0 0 0 34 34 56 56 56 56 0 0 0 56 34 34 70 56 82 0 0 0 0 0 0 56 50 82 34 34 56 70 56 82 0 0 0 34 34 56 34 34 56 34 34 56 34 34 56 34 21 34 34 34 56 46 46 76 34 21 34 0 0 0 70 56 82 63 46 63 63 63 76 34 34 56 34 34 56 34 34 56 34 34 56 0 0 0 0 0 0 76 63 63 56 34 34 46 46 76 0 0 0 0 0 0 0 0 0 0 0 0 0 0 0 76 46 46 34 34 56 34 21 34 92 56 56 56 34 34 56 34 34 0 0 0 0 0 0 76 63 63 34 21 34 0 0 0 63 39 46 0 0 0 0 0 0 0 0 0 63 63 76 0 0 0 56 34 34 0 0 0 46 39 63 34 34 56 0 0 0 76 63 63 76 63 63 0 0 0 34 34 56 0 0 0 56 34 34 0 0 0 82 70 82 56 34 34 0 0 0 0 0 0 34 34 56 56 56 92 34 34 56 46 39 63 0 0 0 0 0 0 0 0 0 46 46 76 34 34 56 0 0 0 0 0 0 70 70 92 56 34 34 46 46 76 0 0 0 63 39 46 70 56 82 46 46 76 0 0 0 63 58 63 0 0 0 0 0 0 0 0 0 34 34 56 34 34 56 34 34 56 46 39 63 34 34 56 76 46 46 0 0 0 56 34 34 82 56 70 63 39 46 56 56 56 82 66 70 56 34 34 0 0 0 100 66 82 34 21 34 76 46 46 56 34 34 63 46 63 0 0 0 82 70 82 56 34 34 56 34 34 76 63 63 56 34 34 0 0 0 34 34 56 0 0 0 56 34 34 82 56 70 76 46 46 56 34 34 34 34 56 0 0 0 0 0 0 56 34 34 0 0 0 34 34 56 70 56 82 46 46 76 34 34 56 0 0 0 56 56 56 63 63 76 0 0 0 56 34 34 0 0 0 0 0 0 87 84 96 46 46 76 0 0 0 70 50 70 56 34 34 63 46 63 0 0 0 46 46 76 46 39 63 56 56 56 46 46 76 70 70 92 0 0 0 0 0 0 34 34 56 63 63 76 34 34 56 0 0 0 56 56 92 34 34 56 63 46 63 34 34 56 0 0 0 56 34 34 92 70 70 56 34 34 92 56 56 0 0 0 82 50 56 0 0 0 63 39 46 63 46 63 0 0 0 76 46 46 0 0 0 0 0 0 76 63 63 0 0 0 0 0 0 56 34 34 0 0 0 92 56 56 0 0 0 105 63 63 0 0 0 92 70 70 76 63 63 76 63 63 63 58 63 92 56 56 56 34 34 92 82 82 82 70 82 63 46 63 0 0 0 0 0 0 70 70 92 0 0 0 63 63 76 46 46 76 63 46 63 0 0 0 0 0 0 70 50 70 34 34 56 34 21 34 0 0 0 0 0 0 0 0 0 0 0 0 0 0 0 63 63 76 0 0 0 0 0 0 63 39 46 0 0 0 46 46 76 56 34 34 0 0 0 0 0 0 34 34 56 63 58 96 34 34 56 0 0 0 0 0 0 56 34 34 34 34 56 56 34 34 56 34 34 0 0 0 70 50 70 63 63 76 56 56 56 56 34 34 0 0 0 63 39 46 56 34 34 0 0 0 76 46 46 56 34 34 56 34 34 0 0 0 56 34 34 56 34 34 56 34 34 0 0 0 63 46 63 34 34 56 56 34 34 56 34 34 100 92 108 0 0 0 56 56 56 63 46 63 0 0 0 76 46 46 70 70 92 56 56 56 0 0 0 56 56 56 105 63 63 34 34 56 0 0 0 34 34 56 63 63 76 34 34 56 0 0 0 63 63 76 0 0 0 34 34 56 0 0 0 0 0 0 70 56 82 34 34 56 0 0 0 56 34 34 34 34 56 56 43 70 63 46 63 0 0 0 0 0 0 0 0 0 34 34 56 0 0 0 46 46 76 34 34 56 0 0 0 0 0 0 0 0 0 0 0 0 105 87 87 0 0 0 56 34 34 76 76 76 76 46 46 0 0 0 92 70 70 0 0 0 56 34 34 56 34 34 76 46 46 0 0 0 0 0 0 0 0 0 0 0 0 0 0 0 0 0 0 0 0 0 63 39 46 0 0 0 76 63 63 56 34 34 56 34 34 82 56 70 92 78 100 0 0 0 0 0 0 76 46 46 76 46 46 0 0 0 0 0 0 56 56 56 0 0 0 0 0 0 63 63 76 0 0 0 70 50 70 34 21 34 34 21 34 34 21 34 34 34 56 0 0 0 56 56 92 0 0 0 0 0 0 56 56 56 34 21 34 34 34 56 0 0 0 63 63 76 34 21 34 0 0 0 46 46 76 34 21 34 0 0 0 63 46 63 0 0 0 34 34 56 34 34 56 63 63 76 0 0 0 0 0 0 0 0 0 56 56 56 0 0 0 56 56 56 56 34 34 76 63 63 0 0 0 56 34 34 0 0 0 63 63 76 63 39 46 56 34 34 0 0 0 0 0 0 34 21 34 56 34 34 56 34 34 76 63 63 0 0 0 56 34 34 56 34 34 96 76 87 34 21 34 0 0 0 56 34 34 0 0 0 0 0 0 56 34 34 82 70 82 56 34 34 76 46 46 0 0 0 63 63 76 0 0 0 63 46 63 0 0 0 63 46 63 63 63 76 70 70 92 34 34 56 63 63 76 63 63 76 0 0 0 0 0 0 34 34 56 34 34 56 34 34 56 0 0 0 0 0 0 46 46 76 34 34 56 0 0 0 34 34 56 63 46 63 46 46 76 0 0 0 34 34 56 56 34 34 34 21 34 34 34 56 56 56 56 34 34 56 34 34 56 0 0 0 0 0 0 0 0 0 0 0 0 56 34 34 56 34 34 34 34 56 0 0 0 76 46 46 0 0 0 0 0 0 0 0 0 34 21 34 0 0 0 0 0 0 0 0 0 0 0 0 56 34 34 34 34 56 0 0 0 87 63 87 82 56 70 0 0 0 56 34 34 63 39 46 34 34 56 0 0 0 56 34 34 76 46 46 56 34 34 76 46 46 56 56 56 56 34 34 56 34 34 56 34 34 34 21 34 56 34 34 56 34 34 63 63 76 0 0 0 34 34 56 34 34 56 0 0 0 0 0 0 46 39 63 0 0 0 0 0 0 0 0 0 46 46 76 63 63 76 56 34 34 34 34 56 0 0 0 46 28 46 70 56 82 34 34 56 46 39 63 34 34 56 0 0 0 46 46 76 34 34 56 0 0 0 0 0 0 63 63 105 0 0 0 0 0 0 0 0 0 0 0 0 0 0 0 34 21 34 76 63 63 56 34 34 56 34 34 0 0 0 0 0 0 0 0 0 56 34 34 56 34 34 0 0 0 56 34 34 0 0 0 0 0 0 56 34 34 56 34 34 56 34 34 76 46 46 0 0 0 0 0 0 34 34 56 56 34 34 56 34 34 56 34 34 0 0 0 56 56 56 0 0 0 0 0 0 70 56 82 34 21 34 0 0 0 0 0 0 87 53 63 56 34 34 63 63 76 0 0 0 56 34 34 46 39 63 63 63 76 34 21 34 0 0 0 56 56 56 34 34 56 0 0 0 56 56 56 34 34 56 56 56 56 34 34 56 0 0 0 46 46 76 56 56 92 70 70 92 34 34 56 63 63 76 34 34 56 56 56 92 0 0 0 76 76 105 46 39 63 56 56 92 56 34 34 0 0 0 0 0 0 0 0 0 56 34 34 0 0 0 56 34 34 0 0 0 56 34 34 0 0 0 92 70 70 56 56 56 0 0 0 63 46 63 76 46 46 0 0 0 76 46 46 0 0 0 76 46 46 82 50 56 56 34 34 56 34 34 63 39 46 0 0 0 82 82 92 56 56 56 56 34 34 63 39 46 92 56 56 56 34 34 0 0 0 56 34 34 34 34 56 56 34 34 0 0 0 76 46 46 0 0 0 0 0 0 82 50 56 56 34 34 0 0 0 63 58 63 63 63 76 34 34 56 46 46 76 46 28 46 0 0 0 0 0 0 34 21 34 0 0 0 0 0 0 34 21 34 34 21 34 34 34 56 56 56 56 56 56 56 34 34 56 46 46 76 63 46 63 56 56 56 0 0 0 0 0 0 34 34 56 92 82 82 34 34 56 0 0 0 56 34 34 0 0 0 92 56 56 56 56 56 76 63 63 63 39 46 0 0 0 70 50 70 0 0 0 0 0 0 0 0 0 56 34 34 0 0 0 0 0 0 56 56 56 56 34 34 56 34 34 0 0 0 63 39 46 0 0 0 56 34 34 34 34 56 76 46 46 0 0 0 0 0 0 56 34 34 76 46 46 0 0 0 0 0 0 0 0 0 34 21 34 0 0 0 82 50 56 56 34 34 56 34 34 92 61 82 0 0 0 0 0 0 63 63 76 0 0 0 46 39 63 46 39 63 0 0 0 0 0 0 0 0 0 0 0 0 0 0 0 34 21 34 56 56 56 0 0 0 0 0 0 34 21 34 92 82 129 56 34 34 56 50 82 63 46 63 0 0 0 46 28 46 63 46 63 87 76 96 56 56 92 0 0 0 34 34 56 0 0 0 34 34 56 63 63 76 0 0 0 0 0 0 0 0 0 56 34 34 0 0 0 0 0 0 0 0 0 76 76 76 0 0 0 56 34 34 63 46 63 34 34 56 76 46 46 76 46 46 0 0 0 0 0 0 76 63 63 56 34 34 56 56 56 34 34 56 70 70 116 34 34 56 0 0 0 0 0 0 0 0 0 63 46 63 76 46 46 63 39 46 0 0 0 56 34 34 63 39 46 63 63 76 56 34 34 92 56 56 63 46 63 0 0 0 63 63 76 34 34 56 46 46 76 0 0 0 63 58 96 34 34 56 34 21 34 70 66 82 34 34 56 34 34 56 34 34 56 34 34 56 34 34 56 56 56 56 0 0 0 0 0 0 0 0 0 56 50 82 34 34 56 0 0 0 70 66 82 46 39 63 0 0 0 34 21 34 0 0 0 56 56 56 34 34 56 56 56 56 0 0 0 0 0 0 56 34 34 56 34 34 0 0 0 56 34 34 56 34 34 56 34 34 76 63 63 34 34 56 56 34 34 0 0 0 0 0 0 0 0 0 56 34 34 0 0 0 76 46 46 63 39 46 63 46 63 56 56 56 0 0 0 82 70 82 0 0 0 76 46 46 56 34 34 92 56 56 87 53 63 70 61 70 56 56 56 0 0 0 70 56 82 34 34 56 0 0 0 34 34 56 34 34 56 56 34 34 70 66 82 46 28 46 82 56 70 56 56 92 56 56 56 34 34 56 56 34 34 46 46 76 0 0 0 0 0 0 0 0 0 34 34 56 70 70 92 34 34 56 34 34 56 70 56 82 70 56 82 0 0 0 46 46 76 46 46 76 0 0 0 34 21 34 70 70 92 34 21 34 34 34 56 0 0 0 0 0 0 34 34 56 0 0 0 0 0 0 76 46 46 63 46 63 56 34 34 0 0 0 46 39 63 56 34 34 56 56 56 76 46 46 63 46 63 56 34 34 63 39 46 0 0 0 0 0 0 0 0 0 0 0 0 0 0 0 56 34 34 76 46 46 0 0 0 63 46 63 0 0 0 34 21 34 76 72 96 56 34 34 56 34 34 0 0 0 92 56 56 56 56 56 56 34 34 56 34 34 56 56 56 56 34 34 56 34 34 34 34 56 46 46 76 34 34 56 34 21 34 0 0 0 34 34 56 0 0 0 0 0 0 0 0 0 34 34 56 56 56 92 34 21 34 46 39 63 46 46 76 70 56 82 56 56 92 34 34 56 56 56 92 34 34 56 0 0 0 0 0 0 46 46 76 0 0 0 0 0 0 63 46 63 0 0 0 76 46 46 56 34 34 34 34 56 0 0 0 0 0 0 0 0 0 56 34 34 76 63 63 34 21 34 70 43 56 92 56 56 92 56 56 56 34 34 76 76 76 0 0 0 0 0 0 0 0 0 0 0 0 92 56 56 63 39 46 76 46 46 56 34 34 56 56 56 34 34 56 56 34 34 34 34 56 0 0 0 34 34 56 0 0 0 63 63 76 56 34 34 56 34 34 63 58 63 0 0 0 0 0 0 76 46 46 0 0 0 56 56 56 0 0 0 63 63 76 0 0 0 0 0 0 56 50 82 46 46 76 46 39 63 56 50 82 0 0 0 34 21 34 0 0 0 0 0 0 34 34 56 46 39 63 0 0 0 0 0 0 0 0 0 34 34 56 70 50 70 34 34 56 46 46 76 46 39 63 46 39 63 34 34 56 0 0 0 34 34 56 0 0 0 0 0 0 0 0 0 46 46 76 63 39 46 56 56 56 34 21 34 0 0 0 76 63 63 63 46 63 46 39 63 56 34 34 63 46 63 56 34 34 56 34 34 76 46 46 0 0 0 56 34 34 76 46 46 34 21 34 56 56 56 0 0 0 0 0 0 0 0 0 0 0 0 56 34 34 56 34 34 0 0 0 56 34 34 56 56 56 56 34 34 0 0 0 0 0 0 63 39 46 76 46 46 56 34 34 56 34 34 82 70 82 56 56 56 0 0 0 87 76 96 34 34 56 76 63 63 63 63 76 70 66 82 0 0 0 46 46 76 63 63 76 0 0 0 0 0 0 56 56 92 34 21 34 34 34 56 63 46 63 46 46 76 0 0 0 76 63 63 34 21 34 46 39 63 0 0 0 46 46 76 63 46 63 0 0 0 56 34 34 46 46 76 0 0 0 63 46 63 34 21 34 0 0 0 63 39 46 63 58 63 56 34 34 56 34 34 34 21 34 0 0 0 63 46 63 63 46 63 76 46 46 0 0 0 0 0 0 56 34 34 0 0 0 0 0 0 56 34 34 82 50 56 34 21 34 34 34 56 0 0 0 0 0 0 0 0 0 0 0 0 0 0 0 0 0 0 0 0 0 0 0 0 56 34 34 0 0 0 56 34 34 56 34 34 0 0 0 92 70 70 56 34 34 0 0 0 34 21 34 46 46 76 34 34 56 56 34 34 0 0 0 0 0 0 46 46 76 63 46 63 34 34 56 0 0 0 0 0 0 63 58 63 34 34 56 0 0 0 56 56 56 46 39 63 0 0 0 0 0 0 0 0 0 0 0 0 0 0 0 0 0 0 0 0 0 0 0 0 34 21 34 0 0 0 56 56 56 34 34 56 56 34 34 92 70 70 0 0 0 56 34 34 0 0 0 63 58 96 56 34 34 0 0 0 0 0 0 0 0 0 0 0 0 0 0 0 56 34 34 70 56 82 0 0 0 34 21 34 56 34 34 0 0 0 92 56 56 82 56 70 34 34 56 0 0 0 34 34 56 46 46 76 82 70 82 56 56 56 56 34 34 82 70 82 56 34 34 56 34 34 76 46 46 0 0 0 0 0 0 56 34 34 0 0 0 0 0 0 0 0 0 34 34 56 46 46 76 34 34 56 34 34 56 34 34 56 0 0 0 0 0 0 34 34 56 0 0 0 0 0 0 34 34 56 0 0 0 0 0 0 0 0 0 63 58 63 34 34 56 46 39 63 63 63 76 76 76 76 56 56 56 34 34 56 34 34 56 34 34 56 34 34 56 0 0 0 0 0 0 0 0 0 76 46 46 63 39 46 56 34 34 0 0 0 0 0 0 34 21 34 76 46 46 34 34 56 56 34 34 0 0 0 63 39 46 76 46 46 0 0 0 56 34 34 0 0 0 56 34 34 34 21 34 0 0 0 63 39 46 76 46 46 34 34 56 34 34 56 34 34 56 0 0 0 56 34 34 34 21 34 56 34 34 0 0 0 0 0 0 0 0 0 34 34 56 0 0 0 0 0 0 34 34 56 56 34 34 0 0 0 46 46 76 34 21 34 34 34 56 46 46 76 63 63 76 34 34 56 46 46 76 34 34 56 56 56 56 34 34 56 56 56 56 0 0 0 0 0 0 46 46 76 0 0 0 34 34 56 70 66 82 0 0 0 34 34 56 34 34 56 63 63 76 34 34 56 46 46 76 63 46 63 0 0 0 56 34 34 0 0 0 0 0 0 76 63 63 0 0 0 34 34 56 56 34 34 34 34 56 0 0 0 76 63 63 0 0 0 76 63 63 0 0 0 56 34 34 76 46 46 63 39 46 105 63 63 0 0 0 0 0 0 56 56 56 76 46 46 76 63 63 76 63 63 0 0 0 0 0 0 82 70 82 0 0 0 56 34 34 34 34 56 56 34 34 0 0 0 34 21 34 34 34 56 63 46 63 0 0 0 56 34 34 76 46 46 56 34 34 0 0 0 63 46 63 34 34 56 46 28 46 56 50 82 0 0 0 34 34 56 34 34 56 0 0 0 46 46 76 0 0 0 46 46 76 46 39 63 63 63 76 34 34 56 63 46 63 34 34 56 46 46 76 0 0 0 76 72 96 63 63 76 0 0 0 0 0 0 63 46 63 0 0 0 56 56 56 0 0 0 0 0 0 56 34 34 34 21 34 92 56 56 56 56 56 0 0 0 34 21 34 34 21 34 34 34 56 56 56 56 56 34 34 76 63 63 70 56 82 92 70 70 0 0 0 56 34 34 0 0 0 56 56 56 0 0 0 0 0 0 56 34 34 63 39 46 0 0 0 34 21 34 0 0 0 0 0 0 0 0 0 76 46 46 0 0 0 0 0 0 34 21 34 0 0 0 0 0 0 56 34 34 56 56 92 56 56 56 0 0 0 0 0 0 0 0 0 34 21 34 0 0 0 34 34 56 0 0 0 0 0 0 34 21 34 0 0 0 34 21 34 0 0 0 0 0 0 63 63 76 0 0 0 56 34 34 63 46 63 56 34 34 34 34 56 34 21 34 56 56 56 34 21 34 0 0 0 70 66 82 46 39 63 0 0 0 34 21 34 56 56 56 0 0 0 0 0 0 0 0 0 0 0 0 0 0 0 63 46 63 56 34 34 34 34 56 70 50 70 0 0 0 0 0 0 56 34 34 0 0 0 70 43 56 56 34 34 34 34 56 0 0 0 76 46 46 0 0 0 0 0 0 0 0 0 0 0 0 76 46 46 56 34 34 34 21 34 56 34 34 76 46 46 34 34 56 0 0 0 0 0 0 76 63 63 34 34 56 46 39 63 0 0 0 34 34 56 0 0 0 0 0 0 34 34 56 63 39 46 46 46 76 46 39 63 0 0 0 0 0 0 0 0 0 46 46 76 0 0 0 0 0 0 0 0 0 34 21 34 34 34 56 0 0 0 34 21 34 56 34 34 0 0 0 0 0 0 34 34 56 34 21 34 56 56 56 70 56 82 0 0 0 34 21 34 0 0 0 0 0 0 76 63 63 0 0 0 0 0 0 0 0 0 0 0 0 0 0 0 0 0 0 56 34 34 0 0 0 0 0 0 63 39 46 34 21 34 92 92 92 0 0 0 76 46 46 34 21 34 76 46 46 0 0 0 56 34 34 56 34 34 0 0 0 56 56 56 0 0 0 76 63 63 0 0 0 92 56 56 63 63 76 56 34 34 34 34 56 63 46 63 56 34 34 56 34 34 56 34 34 56 34 34 0 0 0 34 34 56 56 34 34 0 0 0 56 56 56 0 0 0 0 0 0 63 46 63 46 46 76 63 46 63 63 46 63 0 0 0 0 0 0 0 0 0 0 0 0 34 34 56 0 0 0 34 34 56 0 0 0 0 0 0 0 0 0 0 0 0 34 34 56 0 0 0 34 34 56 0 0 0 0 0 0 63 46 63 0 0 0 0 0 0 34 21 34 0 0 0 0 0 0 56 34 34 56 56 56 56 34 34 0 0 0 63 39 46 34 34 56 0 0 0 0 0 0 56 34 34 76 63 63 56 34 34 0 0 0 63 46 63 0 0 0 56 34 34 56 34 34 56 34 34 0 0 0 0 0 0 56 34 34 63 39 46 63 46 63 0 0 0 34 34 56 56 56 56 56 34 34 0 0 0 46 46 76 56 34 34 0 0 0 0 0 0 46 46 76 0 0 0 0 0 0 70 66 108 63 46 63 46 39 63 0 0 0 34 34 56 63 39 46 34 21 34 70 70 92 34 34 56 34 21 34 0 0 0 0 0 0 56 56 56 56 34 34 0 0 0 0 0 0 0 0 0 0 0 0 56 56 56 34 34 56 0 0 0 46 46 76 0 0 0 34 34 56 0 0 0 0 0 0 34 34 56 34 34 56 34 34 56 0 0 0 0 0 0 56 56 56 56 34 34 0 0 0 0 0 0 0 0 0 0 0 0 0 0 0 34 34 56 56 34 34 76 63 63 0 0 0 34 21 34 76 46 46 0 0 0 34 34 56 0 0 0 56 34 34 76 46 46 0 0 0 56 34 34 34 21 34 46 39 63 0 0 0 0 0 0 0 0 0 56 34 34 34 34 56 56 56 56 56 34 34 0 0 0 34 34 56 56 56 56 0 0 0 63 63 76 0 0 0 0 0 0 63 63 76 46 46 76 0 0 0 34 21 34 0 0 0 34 21 34 34 34 56 0 0 0 0 0 0 0 0 0 56 56 92 0 0 0 0 0 0 34 34 56 34 34 56 0 0 0 0 0 0 34 34 56 0 0 0 46 46 76 46 39 63 34 34 56 0 0 0 34 34 56 0 0 0 0 0 0 0 0 0 0 0 0 56 34 34 34 34 56 56 34 34 0 0 0 63 39 46 63 39 46 63 46 63 34 34 56 56 56 56 0 0 0 76 46 46 0 0 0 63 63 76 0 0 0 0 0 0 63 39 46 34 21 34 0 0 0 0 0 0 56 34 34 63 58 63 0 0 0 63 39 46 56 34 34 56 34 34 0 0 0 34 34 56 76 63 63 0 0 0 0 0 0 0 0 0 0 0 0 0 0 0 0 0 0 0 0 0 0 0 0 0 0 0 0 0 0 0 0 0 0 0 0 34 34 56 56 50 82 0 0 0 0 0 0 0 0 0 0 0 0 0 0 0 34 34 56 56 56 92 0 0 0 0 0 0 34 21 34 34 34 56 34 34 56 0 0 0 63 46 63 34 34 56 63 46 63 34 34 56 34 34 56 34 34 56 0 0 0 34 34 56 0 0 0 76 46 46 56 56 56 0 0 0 34 21 34 0 0 0 0 0 0 56 34 34 76 46 46 56 34 34 63 46 63 56 34 34 0 0 0 56 34 34 63 39 46 0 0 0 0 0 0 0 0 0 0 0 0 0 0 0 56 34 34 0 0 0 82 50 56 34 34 56 56 34 34 0 0 0 92 56 56 56 34 34 0 0 0 0 0 0 34 34 56 34 34 56 0 0 0 63 63 76 63 39 46 56 34 34 0 0 0 34 21 34 0 0 0 63 63 76 46 46 76 46 39 63 0 0 0 34 34 56 0 0 0 0 0 0 0 0 0 0 0 0 46 46 76 46 39 63 46 46 76 56 56 56 34 34 56 0 0 0 56 56 56 46 28 46 0 0 0 0 0 0 76 76 76 56 56 56 63 63 76 0 0 0 0 0 0 34 34 56 0 0 0 0 0 0 56 34 34 56 34 34 56 34 34 76 46 46 82 56 70 63 46 63 63 46 63 92 56 56 56 34 34 0 0 0 63 46 63 76 63 63 0 0 0 0 0 0 56 34 34 0 0 0 34 21 34 0 0 0 56 34 34 34 21 34 0 0 0 70 50 70 34 34 56 63 46 63 34 21 34 0 0 0 34 34 56 0 0 0 34 34 56 0 0 0 0 0 0 0 0 0 34 34 56 0 0 0 56 56 56 0 0 0 56 34 34 56 34 34 56 56 56 34 21 34 46 28 46 46 39 63 0 0 0 0 0 0 34 34 56 0 0 0 56 50 82 56 56 56 46 39 63 46 46 76 34 34 56 63 63 76 56 34 34 56 50 82 0 0 0 46 46 76 34 34 56 0 0 0 63 46 63 0 0 0 0 0 0 56 56 56 34 34 56 105 63 63 56 34 34 0 0 0 56 56 56 34 34 56 0 0 0 0 0 0 0 0 0 0 0 0 63 46 63 63 63 76 0 0 0 76 46 46 0 0 0 56 34 34 0 0 0 0 0 0 0 0 0 76 46 46 34 21 34 56 34 34 76 46 46 0 0 0 63 39 46 0 0 0 34 34 56 63 63 76 0 0 0 46 39 63 34 34 56 34 34 56 0 0 0 0 0 0 34 34 56 0 0 0 0 0 0 0 0 0 0 0 0 0 0 0 34 34 56 34 34 56 34 34 56 63 63 105 56 56 56 46 39 63 0 0 0 0 0 0 34 34 56 46 46 76 0 0 0 0 0 0 0 0 0 56 56 56 34 34 56 46 39 63 46 46 76 46 46 76 76 63 96 0 0 0 0 0 0 0 0 0 0 0 0 56 56 56 34 21 34 63 46 63 56 34 34 56 56 56 63 39 46 0 0 0 56 34 34 34 21 34 76 46 46 76 46 46 0 0 0 56 34 34 56 34 34 56 34 34 0 0 0 0 0 0 63 46 63 34 21 34 56 34 34 0 0 0 0 0 0 0 0 0 56 34 34 0 0 0 63 39 46 0 0 0 70 50 70 0 0 0 56 56 92 46 46 76 46 46 76 0 0 0 46 46 76 0 0 0 0 0 0 0 0 0 56 56 56 0 0 0 56 34 34 63 58 63 46 39 63 0 0 0 34 34 56 46 28 46 46 39 63 0 0 0 63 58 96 0 0 0 34 34 56 0 0 0 34 34 56 34 34 56 34 34 56 34 21 34 34 34 56 0 0 0 46 46 76 34 34 56 56 56 56 56 56 56 0 0 0 56 34 34 0 0 0 0 0 0 56 34 34 82 56 70 56 34 34 0 0 0 56 34 34 0 0 0 56 34 34 56 34 34 34 21 34 56 34 34 56 34 34 56 34 34 0 0 0 56 56 56 0 0 0 63 63 76 0 0 0 56 34 34 82 56 70 56 34 34 56 34 34 0 0 0 34 21 34 76 46 46 56 34 34 56 34 34 63 39 46 0 0 0 34 34 56 63 46 63 0 0 0 0 0 0 34 21 34 0 0 0 56 34 34 56 34 34 76 46 46 56 56 56 56 34 34 76 46 46 0 0 0 0 0 0 34 34 56 34 34 56 46 39 63 46 46 76 0 0 0 56 34 34 0 0 0 34 34 56 0 0 0 63 63 76 34 34 56 0 0 0 0 0 0 34 34 56 63 46 63 46 39 63 0 0 0 34 34 56 0 0 0 0 0 0 0 0 0 0 0 0 0 0 0 0 0 0 76 46 46 34 21 34 56 56 56 0 0 0 0 0 0 0 0 0 56 34 34 56 34 34 56 34 34 34 21 34 0 0 0 56 34 34 76 46 46 0 0 0 0 0 0 92 56 56 56 34 34 76 63 63 56 34 34 56 34 34 56 34 34 76 46 46 0 0 0 34 34 56 46 46 76 0 0 0 46 46 76 0 0 0 56 56 56 46 39 63 0 0 0 56 34 34 34 34 56 56 34 34 0 0 0 0 0 0 46 46 76 0 0 0 0 0 0 0 0 0 46 46 76 0 0 0 63 58 96 0 0 0 0 0 0 63 46 63 0 0 0 34 34 56 0 0 0 0 0 0 34 34 56 46 39 63 0 0 0 0 0 0 0 0 0 63 46 76 34 21 34 0 0 0 34 21 34 0 0 0 56 34 34 34 34 56 0 0 0 56 34 34 56 34 34 0 0 0 0 0 0 56 34 34 63 39 46 76 46 46 56 34 34 56 34 34 0 0 0 96 58 63 56 56 56 56 34 34 0 0 0 0 0 0 0 0 0 56 34 34 0 0 0 0 0 0 0 0 0 34 21 34 0 0 0 56 34 34 56 34 34 56 56 56 63 63 76 0 0 0 0 0 0 0 0 0 0 0 0 34 34 56 0 0 0 0 0 0 0 0 0 56 56 92 34 34 56 56 34 34 34 21 34 56 56 56 0 0 0 34 34 56 34 21 34 0 0 0 0 0 0 0 0 0 0 0 0 0 0 0 0 0 0 34 34 56 34 34 56 34 34 56 0 0 0 46 46 76 34 34 56 63 46 63 63 46 63 63 58 63 34 34 56 0 0 0 34 34 56 56 34 34 0 0 0 0 0 0 34 34 56 82 50 56 0 0 0 63 46 63 56 34 34 0 0 0 56 34 34 76 63 63 56 34 34 34 34 56 0 0 0 92 56 56 76 46 46 0 0 0 76 46 46 56 34 34 63 63 76 0 0 0 76 46 46 0 0 0 0 0 0 0 0 0 0 0 0 63 58 63 92 56 56 34 34 56 0 0 0 76 46 46 56 34 34 34 34 56 46 46 76 56 34 34 0 0 0 34 34 56 76 46 46 0 0 0 56 34 34 63 39 46 0 0 0 82 50 56 96 72 76 70 56 82 34 34 56 34 34 56 0 0 0 0 0 0 56 56 56 0 0 0 46 39 63 34 34 56 34 21 34 34 34 56 46 46 76 34 21 34 0 0 0 0 0 0 34 34 56 63 39 46 70 70 92 0 0 0 56 56 56 34 21 34 63 46 63 0 0 0 0 0 0 56 34 34 0 0 0 0 0 0 105 76 76 56 34 34 0 0 0 63 58 63 0 0 0 56 34 34 92 56 56 0 0 0 82 56 70 56 56 56 0 0 0 0 0 0 56 34 34 0 0 0 92 56 56 0 0 0 0 0 0 0 0 0 76 46 46 70 43 56 82 56 70 0 0 0 34 34 56 56 34 34 76 46 46 0 0 0 0 0 0 0 0 0 56 34 34 82 66 70 0 0 0 34 34 56 70 56 82 0 0 0 0 0 0 92 56 56 0 0 0 0 0 0 0 0 0 46 46 76 34 34 56 34 34 56 0 0 0 0 0 0 56 56 56 34 21 34 0 0 0 0 0 0 46 39 63 46 46 76 34 21 34 0 0 0 46 46 76 56 34 34 34 34 56 34 34 56 34 34 56 0 0 0 0 0 0 0 0 0 0 0 0 76 63 63 0 0 0 0 0 0 56 56 56 0 0 0 0 0 0 0 0 0 56 34 34 0 0 0 0 0 0 34 21 34 105 63 63 56 34 34 0 0 0 92 56 56 0 0 0 0 0 0 34 21 34 56 34 34 0 0 0 0 0 0 56 34 34 0 0 0 56 34 34 56 56 56 0 0 0 34 34 56 56 34 34 82 56 70 0 0 0 0 0 0 34 21 34 0 0 0 0 0 0 63 46 63 76 46 46 0 0 0 34 21 34 76 46 46 56 34 34 34 21 34 34 34 56 0 0 0 34 34 56 0 0 0 34 21 34 34 34 56 0 0 0 34 34 56 46 46 76 70 56 82 63 63 105 34 34 56 56 50 82 46 46 76 0 0 0 63 58 96 34 34 56 34 34 56 34 34 56 0 0 0 0 0 0 0 0 0 63 46 63 0 0 0 96 63 76 56 56 56 56 34 34 0 0 0 0 0 0 0 0 0 0 0 0 34 34 56 76 46 46 56 34 34 0 0 0 70 50 70 56 34 34 56 34 34 0 0 0 105 76 76 56 34 34 56 34 34 56 34 34 56 34 34 56 34 34 0 0 0 56 34 34 96 58 63 56 34 34 0 0 0 0 0 0 56 34 34 34 34 56 34 34 56 56 50 82 0 0 0 92 70 70 63 63 76 0 0 0 63 39 46 0 0 0 0 0 0 56 56 56 0 0 0 0 0 0 0 0 0 0 0 0 0 0 0 46 39 63 34 34 56 0 0 0 0 0 0 34 34 56 0 0 0 34 34 56 63 46 63 34 34 56 56 56 56 0 0 0 34 21 34 34 34 56 0 0 0 56 34 34 0 0 0 0 0 0 0 0 0 46 39 63 34 34 56 34 34 56 63 39 46 0 0 0 56 34 34 0 0 0 0 0 0 0 0 0 76 46 46 0 0 0 0 0 0 76 46 46 56 56 56 76 46 46 76 46 46 56 34 34 56 34 34 0 0 0 56 34 34 56 34 34 0 0 0 56 34 34 56 34 34 46 46 76 0 0 0 0 0 0 0 0 0 56 50 82 56 56 56 0 0 0 63 63 76 0 0 0 63 46 63 0 0 0 56 34 34 63 46 63 56 34 34 56 56 56 34 21 34 63 39 46 70 56 82 46 46 76 0 0 0 0 0 0 34 21 34 0 0 0 0 0 0 0 0 0 34 34 56 34 34 56 0 0 0 0 0 0 46 46 76 0 0 0 0 0 0 34 34 56 46 39 63 46 46 76 56 56 56 0 0 0 34 34 56 34 34 56 0 0 0 0 0 0 56 34 34 56 34 34 63 46 63 63 46 63 63 46 63 0 0 0 76 46 46 56 34 34 0 0 0 0 0 0 0 0 0 56 34 34 0 0 0 0 0 0 92 56 56 0 0 0 63 39 46 76 46 46 0 0 0 76 63 63 0 0 0 0 0 0 0 0 0 0 0 0 0 0 0 63 58 63 0 0 0 0 0 0 0 0 0 0 0 0 56 56 56 0 0 0 34 34 56 0 0 0 56 34 34 70 50 70 0 0 0 56 56 56 56 34 34 63 53 87 76 63 63 34 34 56 34 21 34 46 46 76 34 21 34 0 0 0 0 0 0 0 0 0 34 34 56 46 46 76 0 0 0 46 39 63 34 34 56 63 63 76 34 34 56 0 0 0 34 34 56 34 34 56 34 34 56 34 34 56 0 0 0 0 0 0 34 34 56 0 0 0 0 0 0 0 0 0 56 34 34 82 66 70 0 0 0 56 56 56 56 34 34 34 34 56 76 46 46 56 34 34 56 56 56 76 46 46 0 0 0 46 46 76 63 39 46 56 56 56 63 39 46 56 34 34 96 58 63 34 21 34 76 46 46 100 85 92 63 58 63 0 0 0 0 0 0 0 0 0 0 0 0 0 0 0 76 46 46 56 34 34 0 0 0 34 21 34 63 46 63 34 21 34 34 21 34 0 0 0 0 0 0 76 63 63 56 34 34 34 21 34 34 34 56 0 0 0 46 39 63 56 56 92 70 70 92 46 46 76 34 34 56 0 0 0 0 0 0 0 0 0 34 34 56 34 34 56 34 34 56 34 21 34 0 0 0 56 56 56 56 56 56 70 70 92 0 0 0 0 0 0 34 34 56 56 56 56 0 0 0 0 0 0 0 0 0 56 34 34 56 56 56 56 34 34 0 0 0 56 56 56 56 34 34 34 21 34 0 0 0 56 34 34 82 56 70 0 0 0 56 34 34 34 21 34 56 34 34 0 0 0 0 0 0 63 39 46 0 0 0 0 0 0 34 21 34 70 56 82 0 0 0 0 0 0 0 0 0 63 46 63 34 21 34 46 46 76 34 21 34 0 0 0 0 0 0 0 0 0 0 0 0 0 0 0 76 63 63 34 21 34 46 46 76 46 39 63 63 39 46 34 21 34 0 0 0 0 0 0 0 0 0 56 56 56 56 50 82 0 0 0 34 34 56 46 46 76 34 34 56 0 0 0 56 34 34 34 34 56 46 39 63 56 56 56 0 0 0 0 0 0 0 0 0 56 34 34 63 46 63 34 34 56 0 0 0 0 0 0 0 0 0 0 0 0 0 0 0 0 0 0 0 0 0 0 0 0 56 34 34 76 46 46 56 56 56 56 34 34 56 34 34 56 34 34 0 0 0 56 34 34 0 0 0 0 0 0 34 21 34 0 0 0 0 0 0 0 0 0 76 46 46 56 34 34 0 0 0 63 63 76 34 34 56 56 34 34 63 63 76 56 34 34 34 34 56 0 0 0 63 46 63 0 0 0 56 34 34 34 34 56 34 34 56 56 50 82 0 0 0 0 0 0 34 34 56 56 56 56 34 34 56 0 0 0 63 39 46 56 56 56 34 34 56 0 0 0 34 34 56 0 0 0 34 34 56 34 34 56 34 34 56 0 0 0 0 0 0 34 34 56 34 34 56 63 63 76 34 34 56 0 0 0 34 34 56 0 0 0 56 34 34 0 0 0 0 0 0 34 34 56 0 0 0 56 34 34 0 0 0 56 56 56 76 46 46 0 0 0 34 21 34 56 34 34 56 34 34 56 34 34 56 34 34 56 56 56 0 0 0 0 0 0 76 63 63 0 0 0 56 34 34 0 0 0 56 56 56 34 34 56 0 0 0 56 34 34 87 58 76 34 34 56 82 70 82 0 0 0 82 56 70 63 46 63 63 46 63 0 0 0 0 0 0 0 0 0 82 56 70 63 46 63 0 0 0 56 56 56 0 0 0 34 34 56 34 34 56 63 46 63 0 0 0 34 34 56 70 70 116 46 46 76 46 46 76 63 63 76 0 0 0 46 39 63 34 34 56 0 0 0 0 0 0 0 0 0 56 56 56 34 34 56 0 0 0 0 0 0 34 34 56 34 34 56 56 34 34 34 34 56 0 0 0 56 56 56 0 0 0 56 56 56 0 0 0 63 46 63 63 39 46 63 46 63 56 34 34 56 34 34 92 56 56 0 0 0 0 0 0 34 34 56 0 0 0 0 0 0 76 46 46 0 0 0 56 34 34 76 63 63 0 0 0 46 39 63 0 0 0 76 46 46 76 46 46 34 21 34 56 34 34 63 46 63 34 21 34 46 46 76 0 0 0 34 34 56 0 0 0 0 0 0 56 34 34 56 34 34 0 0 0 46 39 63 0 0 0 0 0 0 0 0 0 34 34 56 87 76 96 0 0 0 76 46 46 0 0 0 70 66 82 0 0 0 70 56 82 56 34 34 0 0 0 56 34 34 34 21 34 34 34 56 34 34 56 0 0 0 34 34 56 0 0 0 34 34 56 0 0 0 56 56 56 82 78 82 56 34 34 0 0 0 34 34 56 34 34 56 0 0 0 0 0 0 0 0 0 56 34 34 0 0 0 0 0 0 56 34 34 56 34 34 56 34 34 56 34 34 76 63 63 76 46 46 92 70 70 56 34 34 56 56 56 0 0 0 0 0 0 56 34 34 56 34 34 0 0 0 0 0 0 56 34 34 92 56 56 105 76 76 0 0 0 56 34 34 34 34 56 63 46 63 63 46 63 56 34 34 82 50 56 82 56 70 76 46 46 0 0 0 0 0 0 0 0 0 34 34 56 56 34 34 34 34 56 34 34 56 0 0 0 63 63 76 0 0 0 63 63 76 0 0 0 56 34 34 0 0 0 0 0 0 63 46 63 0 0 0 0 0 0 34 21 34 34 34 56 0 0 0 34 34 56 46 46 76 34 21 34 34 34 56 63 58 96 34 34 56 0 0 0 46 46 76 34 34 56 46 46 76 0 0 0 56 56 56 0 0 0 0 0 0 0 0 0 56 34 34 0 0 0 56 34 34 76 46 46 76 63 63 0 0 0 0 0 0 76 46 46 0 0 0 34 21 34 63 63 76 56 34 34 0 0 0 56 34 34 0 0 0 0 0 0 34 21 34 76 46 46 76 46 46 0 0 0 63 46 63 34 34 56 70 56 82 34 34 56 70 50 70 76 46 46 56 34 34 82 56 70 56 34 34 56 56 56 0 0 0 76 63 63 0 0 0 34 34 56 0 0 0 0 0 0 34 21 34 46 39 63 63 46 63 56 56 92 82 82 116 0 0 0 46 46 76 0 0 0 63 46 63 0 0 0 34 34 56 56 56 56 34 34 56 34 21 34 0 0 0 34 34 56 46 46 76 70 70 92 0 0 0 34 34 56 0 0 0 56 34 34 0 0 0 0 0 0 0 0 0 0 0 0 56 34 34 76 46 46 56 34 34 34 34 56 76 63 63 0 0 0 0 0 0 56 34 34 76 46 46 76 63 63 56 34 34 76 46 46 56 34 34 76 63 63 0 0 0 0 0 0 0 0 0 0 0 0 92 56 56 92 56 56 0 0 0 96 76 87 56 56 56 34 34 56 34 34 56 0 0 0 92 56 56 76 46 46 63 63 76 0 0 0 76 46 46 34 34 56 82 66 70 0 0 0 0 0 0 0 0 0 63 46 63 34 34 56 34 34 56 46 39 63 46 46 76 0 0 0 34 34 56 0 0 0 46 46 76 63 46 63 34 34 56 34 34 56 46 39 63 0 0 0 0 0 0 34 34 56 0 0 0 34 34 56 0 0 0 0 0 0 0 0 0 34 34 56 0 0 0 0 0 0 0 0 0 0 0 0 0 0 0 0 0 0 0 0 0 76 63 63 0 0 0 0 0 0 63 63 76 56 56 56 0 0 0 0 0 0 0 0 0 56 34 34 56 34 34 56 56 56 56 56 56 0 0 0 76 46 46 56 34 34 34 21 34 0 0 0 56 34 34 0 0 0 76 46 46 56 34 34 34 34 56 0 0 0 82 56 70 0 0 0 56 34 34 0 0 0 56 34 34 56 34 34 76 46 46 70 50 70 56 56 92 34 34 56 70 70 92 46 46 76 34 34 56 34 34 56 0 0 0 34 34 56 0 0 0 0 0 0 82 56 70 0 0 0 56 34 34 56 34 34 46 46 76 34 21 34 46 39 63 0 0 0 0 0 0 0 0 0 0 0 0 46 46 76 46 46 76 34 34 56 0 0 0 0 0 0 70 66 82 0 0 0 46 46 76 0 0 0 0 0 0 0 0 0 56 34 34 56 34 34 0 0 0 34 34 56 56 34 34 0 0 0 0 0 0 34 21 34 56 34 34 92 82 82 82 56 70 0 0 0 56 34 34 0 0 0 56 34 34 56 34 34 0 0 0 0 0 0 76 46 46 0 0 0 34 34 56 63 46 63 0 0 0 34 34 56 34 34 56 34 34 56 0 0 0 0 0 0 92 56 56 56 34 34 34 34 56 0 0 0 0 0 0 0 0 0 34 21 34 0 0 0 34 34 56 0 0 0 70 50 70 56 34 34 70 56 82 34 34 56 0 0 0 56 34 34 34 34 56 46 28 46 34 34 56 34 34 56 46 46 76 0 0 0 0 0 0 0 0 0 34 34 56 56 34 34 34 34 56 0 0 0 34 34 56 0 0 0 0 0 0 34 34 56 46 46 76 56 34 34 0 0 0 0 0 0 76 63 63 63 39 46 34 21 34 63 46 63 56 34 34 46 39 63 63 46 63 70 50 70 56 34 34 0 0 0 34 21 34 0 0 0 0 0 0 0 0 0 0 0 0 34 34 56 0 0 0 0 0 0 63 46 63 76 46 46 56 34 34 56 34 34 82 56 70 0 0 0 0 0 0 56 34 34 34 34 56 92 70 70 0 0 0 56 34 34 63 46 63 0 0 0 34 34 56 46 39 63 63 46 63 34 34 56 0 0 0 0 0 0 46 46 76 34 34 56 34 34 56 0 0 0 46 39 63 34 34 56 0 0 0 0 0 0 34 34 56 34 34 56 34 34 56 46 46 76 0 0 0 0 0 0 0 0 0 34 21 34 0 0 0 0 0 0 0 0 0 0 0 0 0 0 0 34 34 56 34 34 56 0 0 0 0 0 0 56 34 34 0 0 0 92 56 56 63 39 46 0 0 0 63 46 63 56 34 34 0 0 0 0 0 0 0 0 0 76 63 63 76 46 46 0 0 0 0 0 0 0 0 0 0 0 0 76 46 46 63 39 46 56 34 34 76 46 46 63 39 46 56 56 56 76 46 46 56 56 56 0 0 0 76 63 63 63 63 76 0 0 0 34 34 56 56 34 34 56 34 34 63 46 63 46 39 63 46 39 63 0 0 0 0 0 0 34 34 56 56 50 82 56 34 34 0 0 0 56 34 34 34 34 56 63 39 46 34 21 34 56 34 34 0 0 0 0 0 0 46 46 76 0 0 0 0 0 0 34 21 34 34 34 56 0 0 0 34 34 56 0 0 0 46 46 76 46 46 76 63 58 96 0 0 0 0 0 0 0 0 0 56 50 82 0 0 0 0 0 0 56 34 34 76 46 46 56 34 34 0 0 0 56 34 34 0 0 0 76 46 46 56 34 34 0 0 0 56 34 34 56 34 34 76 46 46 63 46 63 0 0 0 0 0 0 0 0 0 0 0 0 56 34 34 56 34 34 34 21 34 76 46 46 56 34 34 0 0 0 63 63 76 0 0 0 0 0 0 34 34 56 56 34 34 63 63 76 0 0 0 56 34 34 34 34 56 46 39 63 0 0 0 34 34 56 0 0 0 0 0 0 56 34 34 46 46 76 34 34 56 34 34 56 63 46 63 0 0 0 0 0 0 63 58 96 34 34 56 70 50 70 63 63 76 34 34 56 34 34 56 0 0 0 0 0 0 34 34 56 34 21 34 0 0 0 0 0 0 46 46 76 70 70 92 0 0 0 56 34 34 0 0 0 0 0 0 34 34 56 0 0 0 0 0 0 82 56 70 82 56 70 56 34 34 56 34 34 92 56 56 76 46 46 63 63 76 76 46 46 0 0 0 0 0 0 56 34 34 56 56 56 34 34 56 46 28 46 76 46 46 0 0 0 34 21 34 34 21 34 63 39 46 105 76 76 0 0 0 76 46 46 56 56 56 34 34 56 34 21 34 0 0 0 0 0 0 56 56 56 34 34 56 56 56 56 63 46 63 63 63 76 0 0 0 0 0 0 76 46 46 63 63 76 63 46 63 46 39 63 63 39 46 34 34 56 0 0 0 0 0 0 0 0 0 34 34 56 0 0 0 34 34 56 63 63 76 0 0 0 0 0 0 0 0 0 0 0 0 34 34 56 0 0 0 46 46 76 0 0 0 34 21 34 56 34 34 34 21 34 0 0 0 46 46 76 34 34 56 0 0 0 46 46 76 56 34 34 0 0 0 0 0 0 56 56 56 70 50 70 76 63 63 34 21 34 56 34 34 0 0 0 0 0 0 0 0 0 0 0 0 76 46 46 0 0 0 76 46 46 63 39 46 63 39 46 63 46 63 56 34 34 0 0 0 0 0 0 56 56 56 0 0 0 63 46 63 0 0 0 70 66 82 0 0 0 76 63 63 56 34 34 70 70 92 0 0 0 56 34 34 0 0 0 56 34 34 34 34 56 56 34 34 34 34 56 76 63 63 63 46 63 63 46 63 92 56 56 56 56 92 46 46 76 34 34 56 46 46 76 56 34 34 34 34 56 63 63 76 0 0 0 0 0 0 34 34 56 63 46 63 46 39 63 34 34 56 0 0 0 34 34 56 56 34 34 34 34 56 0 0 0 34 34 56 0 0 0 34 34 56 63 46 63 0 0 0 0 0 0 76 46 46 76 46 46 63 39 46 34 21 34 76 46 46 56 34 34 56 34 34 76 46 46 0 0 0 0 0 0 0 0 0 0 0 0 76 46 46 0 0 0 0 0 0 56 34 34 56 34 34 56 34 34 56 34 34 0 0 0 0 0 0 76 46 46 34 34 56 0 0 0 96 87 96 56 34 34 63 39 46 34 34 56 0 0 0 56 34 34 56 56 56 34 21 34 0 0 0 34 34 56 0 0 0 56 56 92 34 34 56 70 70 92 34 21 34 63 63 76 0 0 0 0 0 0 56 34 34 0 0 0 0 0 0 0 0 0 0 0 0 34 21 34 63 58 96 56 34 34 46 46 76 63 58 63 46 39 63 0 0 0 0 0 0 34 34 56 34 34 56 0 0 0 63 46 63 46 46 76 46 46 76 56 34 34 76 46 46 0 0 0 56 34 34 0 0 0 92 56 56 34 21 34 0 0 0 76 46 46 0 0 0 0 0 0 0 0 0 92 70 70 76 46 46 92 70 70 0 0 0 0 0 0 82 50 56 0 0 0 34 21 34 56 34 34 0 0 0 56 34 34 0 0 0 82 70 82 34 34 56 70 70 92 34 34 56 63 46 63 56 56 56 46 39 63 0 0 0 70 50 70 34 34 56 76 46 46 63 46 63 46 46 76 63 63 76 76 46 46 34 34 56 0 0 0 46 39 63 56 34 34 46 46 76 34 34 56 56 56 56 46 46 76 34 34 56 70 56 82 0 0 0 34 34 56 56 56 92 56 56 56 0 0 0 70 70 92 0 0 0 56 56 56 34 34 56 46 46 76 0 0 0 0 0 0 34 34 56 0 0 0 0 0 0 0 0 0 70 56 82 0 0 0 76 46 46 56 34 34 0 0 0 63 39 46 0 0 0 0 0 0 34 34 56 76 63 63 0 0 0 0 0 0 0 0 0 0 0 0 0 0 0 0 0 0 0 0 0 0 0 0 0 0 0 0 0 0 56 56 56 0 0 0 0 0 0 92 70 70 82 56 70 0 0 0 0 0 0 34 34 56 0 0 0 56 34 34 76 63 63 96 76 87 63 46 63 56 56 56 63 46 63 0 0 0 0 0 0 100 82 100 56 34 34 0 0 0 0 0 0 0 0 0 0 0 0 56 56 56 0 0 0 0 0 0 0 0 0 0 0 0 0 0 0 34 34 56 0 0 0 0 0 0 34 34 56 0 0 0 0 0 0 0 0 0 34 34 56 0 0 0 0 0 0 34 34 56 0 0 0 63 46 63 34 34 56 34 34 56 0 0 0 