P3
64 64
255
66 56 68 64 51 62 88 74 79 60 46 50 73 53 61 81 69 73 74 68 74 90 84 90 77 62 69 80 74 77 70 61 67 67 56 63 84 78 80 71 67 70 69 64 70 95 87 89 76 72 77 77 73 76 78 67 72 87 79 86 88 81 88 67 61 66 71 64 66 84 79 84 86 80 87 81 74 80 74 62 66 75 71 74 58 54 66 54 51 64 79 76 82 80 76 89 71 68 82 70 66 81 61 57 67 78 76 86 75 71 84 79 77 90 75 73 81 83 80 95 71 69 81 75 74 89 77 75 92 75 71 86 81 78 94 68 64 76 64 61 80 76 74 86 63 60 77 64 62 81 61 59 74 80 77 103 68 68 88 74 73 88 54 50 67 58 58 79 81 76 97 60 59 76 57 56 77 85 81 102 61 59 79 62 59 75 65 63 82 52 50 79 61 49 55 76 64 68 72 63 66 71 61 65 74 65 75 74 66 71 73 65 69 65 55 60 75 66 69 74 61 66 69 60 63 78 72 75 85 79 83 77 68 71 82 73 74 64 56 68 74 69 74 72 64 72 65 58 64 86 77 80 57 49 58 81 77 83 77 73 78 80 76 81 70 65 76 80 73 82 68 62 68 76 67 74 73 67 77 89 86 93 67 63 74 63 58 65 72 68 74 64 61 70 72 69 80 65 62 75 71 68 78 74 73 82 67 61 70 73 70 83 67 65 76 65 60 75 70 67 83 70 68 84 82 81 91 77 74 86 75 74 86 72 72 85 85 84 94 57 54 63 68 66 79 64 64 78 70 67 80 62 60 83 68 67 83 59 56 74 80 79 99 72 70 86 58 57 76 68 68 82 63 61 83 62 59 78 47 46 80 48 45 86 74 51 57 55 45 52 69 67 72 68 62 65 66 55 60 77 71 81 74 61 68 73 63 71 72 64 69 89 80 88 64 60 63 81 76 82 84 74 80 79 75 78 93 87 93 77 72 81 72 64 74 84 77 80 85 82 95 87 81 90 74 69 74 85 84 91 71 63 66 81 76 80 85 79 83 82 80 91 75 69 74 76 72 79 75 69 75 94 90 96 82 81 82 78 76 91 84 82 88 92 88 94 83 79 95 84 80 86 84 82 96 70 69 78 78 77 93 77 74 85 98 96 105 73 72 87 74 73 86 99 95 111 67 65 77 69 68 81 70 67 80 77 75 90 88 86 98 82 81 92 68 67 85 75 73 86 65 65 87 69 67 82 73 72 81 83 82 100 84 80 93 80 77 92 79 75 89 80 79 91 75 73 90 63 60 81 46 45 86 46 45 82 64 47 53 66 58 69 71 61 65 81 66 70 88 79 84 81 69 76 74 62 68 74 67 74 72 66 70 80 75 80 90 85 92 80 70 76 70 65 74 89 85 93 81 73 81 63 61 67 62 56 62 74 71 77 99 94 102 65 57 68 90 85 93 95 91 96 93 87 96 84 82 87 85 83 88 84 81 84 86 79 88 91 83 90 85 80 88 78 73 81 86 80 92 93 90 103 81 78 85 85 83 93 82 80 86 79 77 86 97 95 101 88 87 94 107 107 112 97 95 103 108 107 117 88 87 94 79 78 90 83 81 92 74 70 81 81 79 93 91 90 106 89 88 100 84 81 94 88 88 103 76 73 87 89 88 99 93 91 99 79 78 88 66 64 77 76 76 94 84 82 92 68 68 83 82 79 96 74 73 88 80 79 91 86 83 95 45 43 80 53 51 99 86 70 74 69 63 66 63 52 56 75 66 72 88 78 85 80 73 77 70 63 67 85 76 82 73 64 69 74 64 67 96 86 92 75 72 78 72 66 73 84 75 78 90 87 89 113 108 118 115 109 114 95 87 93 92 84 92 102 96 105 84 76 86 75 68 73 78 75 82 89 87 94 87 79 83 71 70 81 84 79 85 94 91 95 82 76 81 88 83 88 92 87 96 82 79 85 88 86 93 81 77 84 79 77 85 75 73 76 84 82 90 96 95 109 88 87 96 106 104 118 98 98 107 92 89 98 67 62 71 90 88 102 83 81 91 94 91 105 75 74 86 93 92 104 80 80 89 70 66 79 85 83 94 81 80 96 93 92 101 88 86 98 81 80 93 83 80 95 90 88 97 87 84 95 91 88 103 76 74 91 76 74 92 65 62 78 56 53 94 54 52 95 64 48 51 70 54 56 70 61 66 91 82 88 77 66 72 77 71 78 68 56 65 84 79 88 87 79 83 75 64 69 95 87 94 76 64 66 97 93 98 87 79 84 91 85 88 86 80 86 85 82 88 73 69 71 85 80 86 81 77 84 96 92 98 89 85 89 78 72 78 76 70 81 87 81 88 86 84 90 81 77 79 82 74 81 93 88 96 93 88 91 90 86 97 88 85 90 62 59 63 84 82 87 92 91 96 106 105 110 99 97 108 113 112 121 90 87 96 101 100 110 87 86 97 101 99 107 87 83 101 101 99 109 81 80 93 94 90 99 84 83 98 94 92 100 93 89 102 87 85 99 82 79 91 95 94 105 91 89 101 82 81 99 79 78 92 82 81 96 91 90 100 78 77 93 88 87 99 89 87 98 76 75 90 75 72 92 36 33 70 51 50 92 75 46 53 74 57 59 89 80 82 84 76 82 84 73 82 81 70 73 78 68 74 80 71 78 103 93 96 83 74 81 77 70 77 85 79 83 81 78 83 74 63 72 87 80 91 90 87 91 91 84 88 79 74 79 96 91 97 100 95 99 84 78 82 91 88 92 85 79 85 91 87 93 101 97 104 77 67 76 92 86 92 93 91 96 89 85 90 76 73 79 91 85 89 81 78 86 91 87 94 94 90 96 106 104 112 80 79 88 89 87 106 105 104 112 85 84 94 85 83 98 79 79 86 112 111 122 94 93 106 84 81 96 93 91 101 91 90 100 80 80 95 79 78 91 84 82 90 74 72 89 84 81 90 76 75 92 90 89 101 83 82 95 92 90 103 88 86 97 74 72 87 92 89 103 83 81 96 71 69 89 74 73 92 82 80 93 49 47 86 53 52 98 91 70 75 63 45 51 79 68 72 84 77 84 80 71 76 76 66 70 77 66 71 80 74 77 84 72 74 81 70 77 99 90 95 78 70 72 75 68 75 89 84 92 88 81 87 79 72 79 87 83 89 104 98 104 80 75 79 98 93 96 90 86 92 92 86 94 101 97 100 81 79 86 74 67 73 87 85 90 83 78 83 95 92 98 89 85 91 86 84 87 80 79 85 80 75 83 82 77 84 79 75 87 81 80 88 77 75 92 78 77 90 88 87 97 108 107 116 101 100 109 87 86 103 105 105 114 93 93 103 92 92 105 92 91 103 91 90 103 83 81 94 77 75 86 91 89 99 76 74 92 82 82 100 86 83 96 97 95 105 84 82 96 85 83 95 72 71 86 87 86 98 88 87 107 88 87 99 79 77 89 88 86 103 69 66 81 58 57 101 62 59 103 76 54 59 80 71 81 76 68 73 71 62 70 74 60 64 78 68 76 96 89 92 92 85 91 85 76 82 70 60 61 102 96 97 77 72 77 97 89 91 88 83 86 99 89 93 87 80 82 77 72 74 66 61 65 85 83 89 107 103 110 94 87 94 94 92 97 90 83 85 101 97 102 97 93 98 94 86 89 104 101 104 84 79 86 94 93 100 110 107 111 102 99 105 98 93 99 96 92 97 105 101 106 91 90 105 66 63 76 91 90 101 96 95 104 98 98 114 95 93 105 96 94 106 108 106 115 96 96 110 99 97 111 86 85 100 101 98 107 88 86 101 89 87 104 57 54 64 70 70 87 86 85 98 86 85 94 94 94 105 78 76 89 78 76 82 76 71 83 84 82 99 87 84 102 96 94 106 83 82 96 68 67 83 76 73 86 59 57 100 52 51 96 72 48 50 74 60 65 97 87 90 69 61 69 77 69 74 86 75 79 82 75 81 81 71 78 80 73 78 91 86 90 90 76 80 83 74 76 87 82 86 82 76 79 90 83 87 94 86 90 74 65 70 101 95 100 78 70 76 115 111 116 83 78 84 83 77 85 107 104 109 111 109 112 116 111 114 120 117 119 109 106 109 120 119 123 130 129 131 118 116 120 131 129 134 121 118 122 106 103 113 100 96 103 96 93 100 81 79 87 81 79 91 83 82 96 101 100 113 91 89 105 90 89 97 109 108 120 100 99 110 93 92 107 90 88 101 81 80 94 86 85 97 97 94 104 83 82 97 96 94 103 93 91 98 87 83 102 89 87 98 87 85 99 88 86 97 83 82 97 93 90 100 83 82 92 69 66 87 74 72 80 102 101 117 93 91 108 53 51 93 51 48 88 91 71 75 70 59 69 73 64 70 91 81 85 88 78 84 71 62 68 91 81 87 82 75 82 83 79 83 93 85 87 88 77 81 94 87 96 102 96 101 85 76 79 101 94 98 99 89 92 120 114 118 95 89 91 100 93 98 107 97 98 102 96 99 113 107 111 123 120 125 132 130 134 124 118 123 120 117 121 130 127 129 130 126 129 126 123 128 121 116 119 117 116 119 124 120 124 116 114 120 124 122 131 119 118 123 102 98 106 89 88 100 87 85 95 67 65 87 73 72 82 105 103 119 110 110 118 90 89 104 78 76 93 81 80 95 88 87 99 120 118 132 79 79 92 94 92 101 87 85 95 97 96 107 109 107 119 96 93 108 72 69 81 93 91 104 95 93 109 89 86 99 96 95 106 82 79 102 93 91 102 93 91 105 92 91 107 51 49 91 54 53 94 79 55 63 81 71 77 86 75 77 69 62 67 95 83 87 89 82 84 75 66 70 101 93 98 96 82 85 87 80 82 79 69 71 105 96 101 95 87 94 97 90 97 111 106 109 112 107 110 107 101 103 117 109 111 114 108 110 127 124 125 126 121 123 127 121 124 130 126 128 122 117 118 126 119 121 117 114 116 128 125 128 111 110 117 129 123 124 134 131 134 115 110 114 86 85 92 94 90 100 97 95 103 97 96 111 85 83 96 90 87 99 86 84 94 75 73 88 72 69 89 70 69 85 81 81 90 79 78 89 77 76 99 87 86 102 88 87 105 94 92 107 91 91 109 76 74 87 86 83 101 95 94 105 104 103 115 91 90 103 79 77 91 87 86 96 89 85 96 77 73 85 84 82 98 94 93 105 96 94 109 87 86 96 89 88 104 57 56 102 49 48 93 76 52 54 85 70 82 78 67 70 85 75 81 85 81 85 89 79 81 74 68 75 78 72 77 102 92 98 82 73 76 96 83 85 100 95 98 93 87 92 108 101 105 93 87 92 110 106 108 119 109 110 120 116 118 125 117 119 128 123 124 136 132 134 115 110 114 121 116 119 112 108 111 115 111 114 112 109 111 120 117 121 118 114 116 114 111 113 109 105 112 123 120 123 118 115 119 128 126 134 106 105 116 83 81 93 82 80 95 111 108 120 91 90 103 75 75 89 81 80 98 82 81 93 71 69 91 69 68 83 91 90 108 87 85 105 92 90 98 110 107 117 108 107 120 91 90 105 97 95 111 89 88 101 100 98 105 90 89 106 96 94 110 89 86 102 100 98 111 81 79 97 90 89 102 106 104 116 97 94 108 77 75 92 71 69 92 46 45 88 50 48 88 77 55 58 74 63 72 81 73 80 84 77 80 72 62 67 91 81 83 79 73 76 100 96 104 79 70 73 92 80 82 93 80 83 95 90 95 112 107 110 108 100 101 101 94 98 93 86 89 121 115 117 124 118 119 142 137 140 124 119 120 135 130 133 119 113 116 86 81 87 108 105 110 112 108 110 112 109 113 120 117 122 128 124 126 124 119 122 107 103 107 107 103 110 102 97 102 125 122 132 116 115 127 123 121 128 96 95 108 82 79 98 83 78 89 94 93 105 86 84 100 84 82 98 79 79 93 71 71 88 74 73 86 107 107 115 102 100 107 74 73 85 91 90 108 93 91 107 96 94 104 91 89 98 83 80 93 101 100 112 106 105 126 102 101 113 96 94 107 81 80 97 78 76 91 104 103 115 96 94 114 92 89 110 91 90 109 55 54 99 48 46 86 80 63 66 89 79 84 78 71 75 83 75 82 87 78 89 96 85 90 95 88 95 95 87 89 91 83 87 93 83 87 92 82 83 102 96 97 96 90 92 108 106 108 118 111 114 120 117 120 125 118 120 117 110 111 136 133 135 118 115 117 103 99 101 104 98 103 102 97 103 93 89 92 117 113 116 114 111 114 125 121 125 132 128 130 137 134 137 108 104 107 95 91 100 107 105 112 125 123 132 110 109 119 115 114 124 132 131 137 111 109 117 83 81 101 82 80 95 77 76 96 75 72 92 81 80 95 69 68 100 65 63 79 95 94 107 83 81 94 98 97 105 92 91 108 89 87 97 98 95 107 94 93 108 104 103 117 79 79 95 105 103 115 90 88 101 100 100 110 91 90 104 107 105 119 90 87 104 89 89 105 98 97 112 105 104 119 53 53 98 52 50 92 72 54 59 96 84 92 95 86 92 91 82 89 90 80 85 84 72 74 92 80 87 92 82 86 100 91 95 95 88 91 92 83 86 88 79 81 104 99 102 102 97 103 108 102 102 106 100 102 121 117 119 122 118 120 120 115 118 114 107 108 118 113 117 109 105 107 100 95 102 116 111 114 100 94 99 113 105 108 136 130 131 125 121 123 109 106 109 93 90 94 114 110 114 114 112 120 117 117 128 99 95 100 100 97 106 138 137 141 104 103 117 91 90 99 66 64 84 72 72 96 65 64 90 73 72 88 68 65 85 53 52 73 84 83 101 98 97 111 89 89 103 93 92 103 101 101 112 91 89 103 101 99 113 117 115 123 90 90 106 98 98 119 89 87 103 86 83 99 97 97 108 88 87 101 104 104 117 93 90 102 95 93 104 98 95 114 56 54 99 50 48 91 78 61 65 86 76 84 93 85 89 82 74 80 91 84 87 97 93 97 90 81 91 91 85 92 92 87 91 88 76 80 104 94 95 87 75 79 81 77 82 115 109 111 110 101 105 106 99 100 105 95 97 128 121 123 119 111 113 107 102 104 106 100 103 85 79 81 110 107 110 94 90 93 90 86 89 111 106 107 121 116 118 109 105 106 123 119 122 97 93 97 106 102 110 97 92 102 138 136 143 120 119 128 123 121 128 127 126 134 122 122 136 69 68 90 78 77 96 69 66 96 84 83 112 74 73 96 77 76 94 59 58 76 84 82 98 87 86 98 92 92 104 103 102 124 106 103 114 102 102 113 91 91 102 97 96 105 90 89 101 93 91 108 85 83 101 99 98 112 93 92 103 101 100 109 96 94 108 100 99 112 92 90 105 86 85 102 49 46 87 48 47 84 76 56 57 102 94 99 89 79 87 75 65 71 80 69 74 84 77 79 83 75 81 90 81 88 78 68 73 96 90 92 100 90 92 90 79 81 84 68 71 100 94 95 91 83 87 116 109 112 134 128 130 119 112 113 101 97 100 107 97 99 99 89 94 101 94 98 119 114 118 96 93 95 93 89 91 117 111 113 120 114 116 123 118 119 108 102 103 97 92 97 100 98 106 106 105 117 136 134 143 115 114 125 123 121 125 106 105 113 116 115 126 78 78 94 69 67 96 90 89 108 58 57 79 81 78 103 73 73 88 72 70 93 74 71 89 66 64 86 91 90 103 101 98 109 99 97 111 102 102 117 97 96 111 94 92 102 100 98 116 76 75 89 85 84 94 91 89 106 111 110 117 99 98 105 101 100 110 79 77 93 86 84 96 79 78 94 46 46 87 49 46 84 85 61 65 94 87 91 89 78 84 86 79 85 86 78 85 81 72 75 84 75 79 93 81 85 100 90 93 109 102 104 97 90 93 82 74 77 91 84 85 82 75 78 113 106 108 127 119 120 117 109 112 113 107 107 120 112 114 111 107 109 117 111 112 108 104 106 107 100 104 91 88 92 114 107 110 127 121 123 133 129 130 127 124 125 120 111 114 115 111 115 117 116 120 113 112 120 112 110 122 89 88 103 101 99 110 127 126 134 107 105 113 84 82 105 73 71 90 77 75 95 88 86 101 86 85 98 70 68 87 85 83 106 71 70 97 58 57 81 96 96 107 114 113 123 103 102 110 85 84 101 103 101 112 96 95 108 99 96 105 80 80 94 103 102 111 86 85 101 92 90 99 102 102 113 84 82 96 96 95 107 82 81 95 105 105 118 57 55 98 62 61 108 79 49 58 85 70 75 86 79 83 82 69 75 89 77 84 89 78 82 92 84 91 101 90 93 88 77 86 76 68 76 98 87 91 89 80 84 64 58 59 88 84 87 98 91 91 109 98 100 126 119 122 115 108 110 100 89 91 107 99 102 106 101 102 114 105 109 105 97 101 94 89 92 105 100 101 120 112 115 127 121 123 139 134 136 140 137 138 112 108 111 131 129 135 130 128 136 99 98 109 111 110 122 139 137 143 121 120 129 83 82 96 75 74 97 74 72 90 87 85 101 80 79 99 80 79 102 90 88 109 62 61 83 60 59 83 63 62 87 81 80 98 89 88 109 108 106 115 90 89 101 93 93 102 78 75 92 105 104 118 87 84 96 92 92 109 92 90 106 96 94 107 83 82 95 98 98 112 92 91 106 96 96 115 85 84 97 46 45 84 59 58 105 84 63 68 77 65 69 83 73 80 81 76 78 96 87 90 80 70 74 95 85 92 94 84 86 89 83 88 91 81 86 112 104 108 100 92 95 91 76 80 89 82 85 80 69 73 106 92 94 117 111 114 113 107 108 118 115 116 111 105 107 101 94 96 108 99 103 110 106 107 104 97 102 115 110 113 106 97 100 135 130 132 127 123 125 121 117 120 138 133 138 132 127 135 109 107 116 91 89 97 115 114 121 121 120 129 107 106 117 91 91 111 68 67 98 85 84 102 102 101 110 77 76 103 96 96 113 77 76 95 80 79 96 76 75 98 58 57 81 80 80 98 115 114 126 86 85 97 112 111 122 92 92 107 92 91 110 86 86 99 112 111 122 92 90 101 100 99 114 78 77 87 98 97 110 98 97 110 87 85 101 103 101 115 84 83 105 56 54 100 52 50 92 70 46 52 76 67 71 75 61 64 88 84 86 86 77 81 96 86 93 72 62 65 90 78 82 95 87 90 104 97 102 97 87 88 84 74 78 105 98 100 105 97 99 103 91 94 102 91 94 134 129 130 120 115 116 122 114 116 117 112 114 100 93 94 117 113 115 97 90 92 96 89 90 97 91 96 105 102 110 119 115 118 120 117 120 107 104 106 112 110 114 108 106 110 120 118 122 120 117 125 123 122 130 122 120 133 90 89 105 72 71 92 85 83 97 111 109 120 104 104 114 87 87 101 86 84 100 72 71 86 75 74 98 66 65 94 55 54 82 62 62 78 96 94 108 82 80 96 96 95 106 94 93 109 95 93 106 106 104 113 87 86 96 112 110 122 93 92 104 89 87 102 98 96 112 98 96 107 93 91 108 97 96 112 106 105 123 51 49 89 60 58 102 67 50 56 91 80 84 86 78 83 89 81 86 72 65 69 83 77 81 81 66 70 126 117 119 91 80 83 105 95 98 78 69 72 97 91 96 78 69 70 98 89 91 97 93 94 94 81 82 134 124 125 130 123 125 111 106 107 129 125 127 106 99 102 116 112 114 97 93 96 92 88 95 99 92 99 101 94 98 116 111 113 111 107 114 123 118 121 121 120 126 126 124 129 115 107 110 116 112 119 88 85 93 84 83 98 83 80 102 89 88 99 104 103 117 98 96 111 102 101 116 99 97 105 92 91 107 74 73 93 67 66 92 75 75 96 64 63 94 67 66 93 107 107 120 99 97 108 97 97 105 87 86 103 94 93 107 96 95 107 75 74 94 87 86 101 98 96 110 90 89 107 94 91 104 93 92 104 99 98 108 101 99 108 88 87 107 53 51 92 52 49 87 68 51 57 70 60 68 81 76 81 91 81 87 91 79 85 90 80 84 74 64 69 97 87 93 92 84 88 91 82 83 91 77 81 98 86 89 105 96 99 95 90 93 99 93 95 78 62 66 122 111 114 121 116 117 123 115 116 126 118 121 122 113 116 109 104 106 108 102 105 102 99 102 109 103 108 105 99 100 113 108 112 111 108 113 120 117 123 124 120 128 105 104 110 121 119 124 127 125 134 91 90 100 94 93 106 96 95 107 97 97 114 112 112 126 95 94 115 89 87 101 95 94 111 92 92 111 64 63 83 68 67 85 64 63 81 61 60 90 61 59 75 99 98 109 110 109 123 108 107 118 99 98 116 83 83 101 81 80 91 98 98 110 103 100 119 83 80 89 88 87 106 111 109 125 108 106 120 113 109 122 81 79 95 88 86 106 57 57 100 53 53 95 83 61 66 82 73 78 86 78 84 79 71 76 84 77 81 112 105 111 104 95 103 88 73 80 82 74 80 85 75 80 91 82 87 76 66 71 100 93 97 96 89 91 107 102 103 89 82 84 111 102 104 137 130 132 107 99 101 136 128 129 147 142 145 117 112 113 115 108 112 117 112 116 99 95 96 101 96 101 121 118 123 105 100 105 121 118 125 125 123 129 101 98 104 125 123 133 135 132 138 108 107 117 110 109 114 116 115 127 125 123 133 107 106 123 96 94 106 87 85 105 66 63 79 88 87 103 81 78 104 62 61 82 63 63 90 63 62 86 61 61 83 80 79 94 107 105 117 94 92 105 85 84 96 92 92 106 97 96 110 101 100 111 95 94 111 113 111 126 83 79 101 92 90 103 111 108 118 100 99 111 99 98 107 89 89 108 52 51 90 53 52 99 88 61 65 85 74 80 94 85 89 99 92 97 97 84 92 103 96 100 90 81 82 98 90 95 91 85 91 106 98 104 101 92 94 98 91 95 99 88 91 102 89 91 112 107 108 89 80 82 107 98 99 119 112 113 138 133 135 123 118 120 125 117 119 120 114 116 128 125 127 123 119 122 135 131 132 127 124 126 126 122 129 108 104 104 115 111 120 130 127 133 115 114 121 130 128 132 126 124 133 126 123 132 137 137 145 112 111 122 107 106 112 88 87 104 100 98 108 80 80 95 81 80 101 68 68 94 70 69 96 72 71 94 68 66 85 61 59 82 66 65 78 90 88 107 103 102 115 101 100 116 96 95 109 77 73 87 98 97 108 96 96 107 85 85 95 100 100 116 95 93 108 114 112 127 98 98 120 85 84 97 91 89 104 94 93 106 64 63 108 57 56 102 91 65 72 92 86 89 74 63 67 79 71 79 72 61 69 93 82 90 88 80 88 94 90 93 90 78 81 98 91 93 93 83 88 85 75 82 98 91 93 106 98 99 105 98 100 96 87 89 87 78 83 102 92 96 107 99 100 120 110 113 120 115 119 127 121 125 139 134 135 128 124 124 129 125 129 125 120 123 127 123 128 141 139 144 121 118 125 123 122 129 135 131 140 135 133 140 121 118 125 129 127 138 113 113 123 116 115 125 94 93 103 89 87 104 80 79 97 81 81 105 79 76 95 85 85 102 69 67 92 65 64 91 59 57 80 58 56 82 93 93 106 94 92 107 100 100 113 92 91 103 102 99 114 95 94 114 100 99 110 88 87 104 106 105 119 91 90 102 90 87 96 101 100 114 102 100 114 92 91 106 107 107 123 102 100 123 52 50 96 62 61 108 90 72 78 101 93 96 80 71 74 96 89 94 100 95 100 84 74 80 79 69 76 94 87 91 102 90 95 86 76 84 85 82 90 94 87 90 94 87 92 110 101 105 105 94 99 94 88 91 94 86 88 80 71 74 119 111 114 112 105 109 116 112 113 125 119 121 147 140 142 129 124 128 132 127 129 138 132 134 121 115 118 145 142 147 140 138 141 134 131 134 131 128 134 119 117 123 122 120 128 98 96 113 99 98 106 102 101 112 93 91 104 84 83 95 79 77 96 84 81 96 63 61 85 76 75 99 78 76 95 67 66 91 75 74 93 77 75 87 95 94 107 88 88 101 82 81 91 84 83 96 100 98 111 109 108 121 88 85 103 104 103 116 94 93 110 81 81 95 113 111 129 88 87 105 116 115 126 92 90 107 101 100 112 96 95 116 61 59 106 60 58 103 70 54 58 99 94 97 81 73 78 87 79 84 95 86 92 96 83 87 80 72 77 84 74 76 92 84 90 93 84 90 100 97 102 100 94 99 98 91 93 83 72 77 103 92 95 105 100 101 101 93 95 67 58 63 103 93 96 106 98 102 113 107 109 113 108 111 114 110 112 121 116 118 113 109 111 136 131 133 112 110 113 141 136 142 115 111 117 134 129 134 112 109 117 111 107 114 133 130 137 111 109 119 86 82 97 81 80 88 100 99 113 81 79 89 85 84 98 78 77 98 82 81 98 58 56 84 69 68 91 67 65 85 62 61 83 100 99 111 78 76 85 102 101 113 103 102 116 114 113 124 99 98 112 83 82 99 98 98 108 85 85 101 92 92 105 95 94 108 98 96 115 112 111 121 102 102 111 108 106 123 93 91 108 112 112 125 57 57 100 62 61 108 75 53 56 106 97 100 96 89 98 90 81 86 87 76 82 97 86 94 90 83 90 87 78 86 110 103 107 109 97 100 91 88 93 106 101 105 100 95 100 93 89 93 83 72 75 107 103 106 79 71 72 97 92 93 79 65 69 92 83 86 94 87 88 87 77 82 103 96 100 100 95 100 113 106 110 121 117 119 112 108 112 115 109 112 121 117 122 103 101 106 99 97 105 99 96 106 97 96 103 114 112 121 100 99 110 111 109 122 113 112 120 110 109 123 102 100 113 107 107 117 105 104 122 83 83 100 73 71 91 62 61 78 87 87 98 91 90 101 97 96 109 106 105 112 85 84 96 106 104 115 113 112 122 109 108 119 72 71 89 79 79 94 82 82 101 86 85 99 107 107 121 89 87 105 86 85 97 99 97 110 99 97 109 96 94 106 53 53 94 59 56 102 80 60 64 85 68 80 74 67 73 86 76 80 101 91 97 93 82 85 94 87 93 98 92 100 93 84 91 93 87 91 95 87 96 97 92 98 95 88 91 116 109 113 101 94 98 113 107 109 99 90 94 102 98 100 85 77 83 111 105 107 82 74 77 85 78 81 95 84 88 104 97 101 104 97 98 103 99 103 103 97 103 85 82 89 101 95 97 108 102 109 104 99 104 119 117 120 121 118 123 119 117 123 122 121 133 106 103 117 110 109 121 124 124 129 123 123 131 113 112 121 116 114 123 83 81 96 90 89 104 76 75 105 81 81 99 109 108 121 102 101 108 93 92 100 94 93 102 108 107 122 105 103 115 109 108 118 95 94 110 78 78 97 77 75 97 100 98 110 91 90 103 94 92 103 92 88 99 79 76 94 79 78 89 89 86 105 60 58 101 56 54 98 74 51 57 83 73 77 88 78 84 88 82 89 95 89 93 101 89 95 115 106 107 98 89 96 102 93 96 100 91 98 101 95 99 107 93 100 94 87 92 91 87 92 107 100 102 108 103 107 101 94 97 102 97 99 111 102 105 87 80 81 103 93 95 86 75 77 99 88 91 103 95 99 105 99 104 119 111 115 99 95 97 122 117 120 123 118 123 111 107 112 97 93 98 108 103 111 101 98 105 118 116 124 107 103 108 124 122 133 137 135 140 109 108 117 118 118 133 120 120 130 117 116 126 100 99 112 69 68 97 68 67 90 70 70 91 100 99 111 85 85 96 106 106 116 99 96 109 85 83 97 73 73 81 94 93 108 97 97 111 53 52 86 97 95 113 112 111 121 85 84 98 87 85 102 89 87 101 99 97 105 95 94 110 100 99 114 52 50 93 52 51 93 83 61 69 85 78 82 89 79 81 92 83 91 88 81 89 98 87 92 97 88 94 78 73 81 94 88 91 100 93 97 98 88 97 92 85 93 103 95 104 93 83 87 112 104 107 102 93 97 115 109 110 93 85 87 91 86 87 102 95 96 102 93 95 86 76 79 85 74 78 112 103 107 108 98 101 103 96 101 115 112 112 110 105 110 109 101 104 103 99 102 106 98 103 95 90 95 105 99 103 105 103 113 107 105 110 116 116 127 126 125 135 119 119 129 129 129 142 113 111 123 110 109 120 70 69 83 93 92 111 67 67 93 65 64 77 84 84 95 90 90 102 92 90 102 88 84 98 85 83 88 88 87 99 109 108 122 91 90 105 60 60 86 65 64 88 96 96 109 98 98 108 97 95 112 106 106 115 101 99 113 91 91 105 88 87 100 54 52 95 58 58 104 89 69 77 67 61 70 91 81 88 83 72 83 83 72 78 93 82 87 105 95 99 98 91 95 97 90 96 92 85 88 102 95 100 102 94 97 102 93 98 88 76 82 91 86 91 106 98 104 103 96 99 107 103 106 89 83 86 106 100 102 109 103 104 109 106 109 89 84 86 124 117 119 105 100 102 113 107 108 94 85 89 95 90 93 97 91 98 101 96 100 101 98 102 75 70 82 87 79 84 101 96 102 101 97 102 114 111 120 105 103 116 137 136 148 124 124 135 95 93 110 100 98 110 87 86 94 74 73 96 61 60 85 81 81 103 83 83 98 101 100 111 82 81 96 73 68 78 85 82 93 93 91 103 117 116 126 86 86 106 58 56 87 77 76 97 105 104 117 93 91 109 99 97 109 82 79 96 99 98 115 103 101 110 87 85 103 53 50 90 57 57 103 69 51 56 87 73 80 99 88 94 84 75 79 84 75 84 90 84 93 100 89 95 102 95 100 99 88 91 90 82 84 93 83 88 95 86 92 93 89 91 96 86 89 102 96 101 103 90 97 105 99 102 124 115 119 95 86 87 98 89 93 112 105 107 114 108 109 78 72 74 120 112 114 131 122 124 115 110 112 119 112 115 102 94 97 113 106 108 102 96 102 98 95 101 96 91 97 106 100 103 89 83 92 114 109 111 92 92 99 106 105 113 129 128 139 132 131 138 121 120 132 87 86 100 76 75 90 80 80 108 65 65 90 76 74 94 90 88 100 94 93 104 90 89 99 108 106 113 92 91 103 124 124 135 100 99 118 69 67 97 59 57 86 97 97 113 97 97 113 90 88 105 110 109 119 101 101 116 92 90 100 101 100 115 85 83 99 50 49 93 46 45 84 93 66 72 90 74 76 88 77 82 95 84 87 101 94 96 98 88 95 87 78 87 93 85 91 95 88 91 84 76 83 110 103 110 113 104 109 108 105 112 102 97 99 93 87 90 99 92 97 104 99 103 82 80 83 104 96 98 100 94 96 100 94 96 117 112 114 99 90 94 148 143 145 127 121 123 112 108 111 104 97 100 99 89 93 111 105 109 117 114 119 109 102 109 112 110 114 107 103 108 113 106 108 115 113 118 111 108 115 117 116 125 120 120 127 126 125 133 111 110 121 102 102 119 58 56 88 78 78 105 60 59 84 97 97 110 82 82 95 99 98 109 101 101 112 102 100 111 110 110 118 96 96 108 81 81 96 72 71 98 69 67 93 103 102 109 110 110 121 88 87 100 106 104 122 89 88 100 105 103 121 99 98 114 87 86 105 45 44 85 56 55 99 78 63 66 62 48 51 86 76 83 106 95 100 105 100 104 91 80 88 72 61 70 92 84 87 92 87 93 93 86 95 122 113 119 101 91 96 90 82 84 92 87 91 111 104 108 104 96 101 108 102 107 109 100 102 109 100 102 112 108 111 107 102 103 100 93 94 85 75 77 118 110 111 125 119 121 124 119 122 120 115 117 114 109 112 130 124 128 84 77 88 101 98 103 111 107 113 96 91 94 93 90 96 135 132 142 114 111 120 117 114 125 117 115 122 126 126 134 128 128 133 106 104 119 86 84 104 89 87 107 63 63 90 109 108 119 96 96 109 83 81 96 100 98 106 106 106 121 119 116 125 87 87 100 64 63 82 52 50 73 80 79 99 103 102 118 88 87 99 103 101 114 94 93 114 82 80 91 94 92 110 93 90 105 104 103 115 53 50 92 59 56 104 74 57 62 80 69 76 86 76 87 90 82 84 86 77 83 98 92 101 90 81 88 105 99 104 95 87 94 100 92 102 102 97 105 102 95 100 99 91 93 80 69 81 99 91 96 96 89 95 103 94 101 115 107 110 117 113 115 108 102 106 104 98 99 84 79 81 101 97 98 97 88 90 115 108 110 122 115 118 120 114 118 122 115 118 116 108 111 106 100 106 91 87 91 86 82 86 100 90 93 90 87 95 110 105 117 101 100 109 112 109 118 120 119 129 136 134 146 111 110 121 107 107 118 101 100 122 77 75 97 54 52 88 80 78 105 92 91 104 88 87 99 99 99 109 95 93 109 104 102 113 86 85 107 64 64 89 65 63 83 94 93 106 112 111 124 95 94 105 103 103 116 86 83 101 100 97 112 104 103 116 97 96 112 96 95 108 48 45 83 57 55 101 75 56 61 90 80 83 69 61 65 79 69 76 88 77 81 101 88 91 97 91 98 94 88 89 89 81 86 94 86 94 97 89 97 82 73 82 94 85 92 96 90 93 100 94 98 113 103 107 108 103 106 99 93 100 100 95 98 113 108 109 103 85 89 89 77 78 108 103 104 89 81 83 131 125 125 93 84 87 111 105 106 140 135 136 115 107 109 115 108 110 93 89 91 99 95 100 103 97 106 96 93 103 97 93 102 99 97 109 98 94 107 117 115 123 117 115 121 115 114 125 131 130 142 99 98 116 63 61 88 63 62 86 72 72 89 125 125 136 103 102 112 115 114 128 112 112 122 92 90 107 69 67 88 58 57 77 84 82 103 104 103 117 81 81 98 78 75 94 93 92 111 84 82 90 84 84 94 91 89 101 90 88 99 92 90 100 52 51 97 55 53 99 88 66 72 81 73 78 88 78 82 98 91 94 106 97 101 106 98 102 91 81 88 99 92 97 101 92 94 97 90 96 104 95 101 92 83 90 100 95 100 105 96 105 111 104 107 97 88 92 94 86 90 106 98 100 107 102 104 112 102 104 93 85 88 92 83 87 84 77 80 112 106 107 128 117 118 118 114 114 95 91 94 96 88 94 117 112 114 103 95 102 103 98 101 91 86 93 99 97 102 108 105 111 94 91 102 102 99 109 110 108 118 114 114 122 115 114 123 112 111 124 139 138 146 89 88 105 59 58 84 55 55 82 63 61 83 123 121 131 97 96 106 122 121 128 70 70 94 65 64 87 53 51 77 81 79 94 93 92 105 100 98 116 88 86 100 97 96 108 89 87 103 101 100 117 90 88 108 88 86 100 93 93 103 84 82 101 62 61 113 46 45 85 92 63 70 92 81 83 88 82 90 90 85 93 90 81 88 84 71 79 85 73 75 89 83 90 95 86 92 96 89 94 99 93 97 84 73 78 105 95 101 103 97 101 93 82 88 115 108 112 112 107 113 110 99 102 93 88 92 99 90 93 118 111 114 106 101 103 100 90 91 118 112 114 116 108 110 109 100 103 107 101 102 116 109 112 134 130 132 128 122 125 120 118 121 116 110 115 102 102 108 87 79 89 112 108 116 104 101 110 101 100 107 135 134 142 108 107 115 121 120 133 140 139 154 89 88 104 64 62 87 58 57 81 60 59 80 84 82 99 118 117 134 75 74 93 45 44 69 55 55 79 89 88 102 69 67 88 84 82 93 90 88 101 83 82 93 107 106 122 98 96 107 95 93 106 96 94 110 109 108 122 85 83 92 94 93 113 59 58 106 50 50 92 84 56 63 85 75 80 90 83 89 99 90 99 96 88 95 94 85 89 99 92 100 98 90 97 105 98 103 85 75 79 94 88 93 106 98 102 107 97 103 103 95 102 101 93 101 95 87 92 105 96 102 106 100 105 117 107 112 91 85 89 118 112 115 102 97 98 107 98 101 115 106 109 90 87 89 103 89 92 107 101 103 98 88 91 112 103 106 124 121 123 130 128 131 107 100 104 88 81 88 112 107 115 112 109 118 98 97 106 116 114 124 121 118 125 105 104 116 114 113 124 99 97 110 73 72 94 79 79 106 58 58 82 82 80 97 87 87 115 71 69 101 57 57 81 68 67 85 89 88 104 96 95 111 92 90 100 84 84 107 102 100 113 99 98 109 99 97 109 91 90 101 103 100 114 83 81 96 97 96 110 84 83 103 87 87 107 51 50 91 52 51 98 69 48 53 97 90 97 88 81 87 101 93 96 96 85 92 94 86 92 100 88 95 104 96 98 92 85 91 99 91 96 93 86 91 87 79 85 105 96 99 101 94 100 114 106 110 112 108 109 99 91 98 104 97 101 96 92 94 96 86 89 94 87 90 85 79 81 97 87 88 121 114 116 89 79 80 107 103 105 98 87 88 94 87 92 105 100 104 103 99 103 103 101 103 119 116 118 115 111 116 104 99 104 120 119 124 114 110 118 123 122 128 119 117 124 140 137 146 104 103 110 88 88 98 86 86 103 54 53 83 85 84 103 96 95 114 86 84 105 72 71 92 61 61 87 86 86 105 88 88 102 99 98 116 83 82 101 83 83 96 94 93 107 111 109 123 90 90 104 89 87 103 111 109 118 71 71 89 87 87 106 89 88 108 97 94 108 53 52 97 48 44 84 87 68 72 83 73 84 91 74 82 82 72 79 79 72 82 92 86 91 96 91 94 93 82 87 84 75 78 97 93 98 112 102 109 94 88 93 95 89 94 101 91 96 114 106 111 97 86 91 104 96 98 90 83 87 95 89 91 98 89 91 88 80 83 96 89 91 127 121 122 103 97 99 112 105 108 104 101 104 105 99 104 94 88 90 108 102 106 112 105 108 104 99 100 119 116 117 114 111 117 101 97 106 124 123 134 101 98 108 131 130 135 126 124 130 114 112 126 113 112 119 115 114 129 81 81 92 79 79 96 99 98 114 121 120 133 104 103 117 76 74 101 66 64 87 85 84 105 99 98 117 80 79 93 100 99 112 92 90 101 97 96 109 95 92 106 109 108 123 88 87 102 103 101 112 99 97 115 80 79 95 89 87 98 88 85 104 54 52 98 59 57 105 93 66 71 82 71 81 73 65 70 89 79 86 89 81 86 77 70 77 92 80 88 98 88 93 108 102 105 100 92 99 103 97 102 104 93 95 100 93 98 103 94 100 110 103 108 105 98 102 86 77 83 108 97 102 103 97 98 107 103 106 106 97 98 116 109 110 124 117 118 105 103 105 104 96 100 118 114 118 100 93 97 122 113 115 94 87 93 106 103 105 122 118 121 132 129 133 131 128 131 120 117 121 103 101 113 99 95 105 120 118 127 110 108 121 118 116 126 109 108 121 106 104 118 76 75 90 80 79 95 97 97 111 119 118 132 101 101 117 77 76 99 74 74 94 63 62 82 102 101 115 103 103 117 83 81 96 103 102 115 93 89 104 99 97 108 100 99 114 99 99 115 96 95 110 91 89 100 95 93 104 95 94 107 87 86 106 50 50 94 53 51 98 79 64 70 73 66 78 76 71 78 82 72 77 86 74 83 91 78 83 92 82 89 87 80 90 105 93 95 96 85 92 89 81 85 107 99 104 96 92 98 97 92 99 93 87 95 102 96 98 115 107 110 93 86 89 105 102 104 104 96 97 107 95 97 111 103 104 120 112 113 100 94 96 100 97 99 101 96 100 121 116 121 119 113 116 96 89 96 110 108 110 108 105 109 116 110 114 120 118 123 133 131 135 96 94 111 114 112 117 88 83 89 104 101 113 98 95 108 116 114 124 117 117 124 92 91 107 85 83 100 101 101 112 100 100 111 97 95 107 87 85 102 81 79 94 54 53 71 85 84 97 89 88 105 90 89 110 82 82 97 102 101 112 89 88 104 96 95 106 104 104 115 102 100 117 113 113 124 101 100 120 105 103 119 87 86 101 54 52 96 52 50 92 76 59 65 96 85 89 82 73 80 86 77 84 96 91 94 87 77 81 90 85 87 88 80 84 102 92 99 103 98 104 100 95 98 95 90 95 94 86 90 97 92 95 83 79 88 106 100 106 115 108 111 97 93 96 112 106 109 101 90 92 119 110 113 127 119 120 104 98 100 114 108 112 101 91 97 96 90 94 107 103 106 121 118 122 122 119 121 115 109 112 106 102 110 113 110 116 116 114 118 97 94 102 120 119 126 87 82 91 102 100 104 110 106 117 110 108 119 121 120 130 106 106 116 84 83 107 90 89 108 106 105 116 107 106 118 99 99 115 89 88 101 89 89 109 63 60 83 71 70 97 78 77 88 96 96 108 70 70 87 98 97 112 107 107 122 99 98 110 89 87 101 98 96 103 101 97 110 107 106 115 98 98 113 77 77 90 54 53 97 57 55 97 92 67 69 92 81 87 87 79 85 100 89 96 96 86 92 95 85 91 91 81 86 90 79 84 98 92 97 113 105 110 95 81 89 109 98 101 94 89 91 119 112 115 94 85 92 90 80 83 102 94 97 102 96 98 88 83 84 95 83 87 124 117 120 123 115 117 112 103 104 91 84 86 107 99 106 114 107 111 109 102 107 127 124 127 125 122 125 122 117 119 107 101 105 109 103 111 120 117 127 119 117 121 125 121 125 101 98 101 116 113 120 113 109 118 102 100 104 121 120 132 99 98 110 92 91 109 104 103 119 96 94 105 108 106 118 109 109 125 117 117 127 90 90 101 74 73 95 55 53 75 92 91 102 104 104 114 89 87 105 85 84 93 99 99 113 87 87 98 77 76 92 80 79 98 108 108 122 90 90 106 95 94 109 91 89 100 54 53 96 54 53 96 88 65 72 104 90 95 90 80 88 85 75 79 79 65 73 95 85 89 86 71 79 97 92 97 104 96 97 105 97 102 115 108 112 105 99 102 107 102 109 95 85 91 110 104 109 112 104 106 111 106 110 106 98 102 114 108 109 107 100 101 126 121 123 126 120 122 119 112 114 126 116 118 104 99 103 92 87 92 90 87 98 116 112 120 130 127 128 127 125 129 140 134 136 124 121 126 132 128 133 124 121 124 103 98 105 106 102 107 97 93 99 96 93 100 106 105 114 113 112 123 94 93 108 92 91 110 109 109 119 105 104 113 126 125 134 103 102 109 107 106 123 95 95 112 88 88 108 59 58 79 74 74 93 83 82 97 91 90 107 107 106 118 92 91 102 104 103 119 95 93 109 78 77 85 88 87 102 85 83 98 102 102 116 86 85 102 58 55 103 45 44 88 87 61 65 78 59 65 93 82 89 85 77 80 92 82 85 97 85 87 109 105 112 92 86 91 97 88 91 120 111 116 96 87 92 104 96 98 109 101 105 119 114 117 94 88 93 97 90 95 95 89 94 93 86 87 93 87 90 97 89 91 137 129 130 118 109 109 116 104 106 110 103 108 112 104 106 106 101 106 94 91 99 111 109 118 123 120 128 118 113 115 125 121 123 114 110 115 125 123 127 112 108 116 117 113 116 111 104 108 107 105 118 91 88 98 128 125 133 107 105 118 107 106 119 116 115 128 107 105 116 108 107 118 118 116 127 113 113 122 104 103 117 88 87 104 72 70 89 59 58 92 63 62 85 86 85 107 90 89 100 105 104 118 102 101 114 101 100 111 111 110 121 85 84 101 84 84 95 108 107 121 100 97 111 69 67 90 57 56 100 51 50 89 81 51 56 90 79 82 81 71 76 88 78 84 93 84 86 99 87 91 73 58 65 77 64 70 91 84 91 102 94 100 89 80 90 91 84 90 101 96 104 99 96 100 100 95 99 110 104 111 110 104 106 88 81 85 100 95 95 114 105 109 123 119 121 106 101 102 109 101 103 103 98 101 91 81 88 104 97 99 111 107 116 105 103 114 118 114 117 121 118 122 113 109 112 131 128 133 106 102 105 121 115 121 111 106 111 91 85 91 100 98 108 109 105 119 114 113 123 114 112 127 93 92 111 103 102 116 114 112 123 101 101 113 128 127 138 124 123 135 94 93 111 76 75 99 74 74 102 57 56 84 43 43 74 79 77 99 97 96 110 89 89 104 98 98 112 107 107 116 105 102 115 100 99 111 107 105 118 96 94 107 104 102 120 79 78 98 54 53 102 63 61 109 84 60 65 88 77 86 88 79 89 95 83 89 90 77 83 103 94 98 87 82 87 89 82 89 103 95 98 94 87 96 107 99 104 103 97 100 92 86 94 108 100 104 108 100 105 101 94 100 95 88 90 114 107 111 105 98 100 94 82 85 117 110 111 112 106 107 111 106 109 108 98 100 111 103 108 101 97 104 91 88 97 89 85 92 115 114 121 108 105 112 116 113 121 131 128 131 137 132 134 121 114 117 97 91 96 115 107 112 93 91 98 105 102 111 114 112 121 124 123 132 66 66 81 90 89 107 105 103 112 111 110 122 115 114 125 109 108 116 113 112 127 70 70 84 65 64 91 52 52 84 68 67 93 74 73 87 98 97 105 99 97 114 94 91 107 120 120 134 99 98 112 103 101 118 107 106 115 102 101 113 80 79 93 101 101 117 55 53 101 53 52 97 73 55 58 102 92 98 69 61 67 88 77 82 86 80 85 79 73 79 92 84 89 88 80 89 94 87 91 85 77 85 94 91 95 113 105 110 104 98 102 106 99 103 93 87 89 109 105 107 98 88 90 88 84 88 118 109 111 91 84 87 109 100 102 116 110 111 117 107 111 101 98 100 114 109 113 114 111 117 97 95 103 110 108 117 119 116 122 120 117 124 128 125 128 117 114 116 110 108 111 115 111 115 116 111 115 125 122 123 111 105 109 108 107 116 119 118 128 103 101 114 85 84 96 104 102 112 110 109 117 117 116 129 120 117 127 125 124 130 91 91 99 92 91 105 73 72 96 63 62 95 55 54 68 73 73 92 92 90 106 98 97 107 102 101 113 92 90 104 98 97 110 93 92 105 93 92 110 94 93 105 95 94 110 102 101 115 56 55 99 47 45 83 73 49 58 84 73 80 83 73 79 83 72 78 105 94 98 84 79 84 90 81 84 84 73 77 99 91 98 94 85 88 102 91 95 97 89 96 95 88 93 109 103 108 111 105 110 113 106 111 112 104 106 106 98 101 92 83 85 85 77 79 103 97 98 94 83 86 107 94 95 110 105 108 109 102 104 111 105 110 90 85 95 99 96 106 123 120 124 101 96 107 111 109 119 90 88 95 121 114 117 117 112 115 118 113 115 104 99 103 105 98 103 98 97 107 120 118 126 99 97 114 89 88 102 123 121 131 116 113 123 124 123 129 123 123 135 108 106 117 92 91 102 68 67 88 59 57 82 54 52 79 65 65 84 75 73 88 96 94 106 97 97 112 91 89 104 100 99 110 113 110 124 89 89 100 103 102 117 104 103 113 97 95 106 97 96 110 51 50 92 46 44 82 77 55 58 90 83 86 87 78 84 77 63 71 96 88 92 97 90 94 102 95 105 91 80 85 107 100 105 114 106 110 100 93 101 109 101 106 103 95 99 109 102 105 103 96 98 112 104 105 111 105 106 103 98 100 118 112 113 104 94 95 115 108 110 119 110 113 97 84 88 126 118 119 108 102 105 119 116 120 97 93 98 106 104 111 118 116 123 111 107 111 124 121 127 98 94 100 102 99 102 138 134 137 116 110 114 87 83 88 97 93 102 111 109 116 113 111 119 106 105 118 87 85 97 104 103 115 114 112 121 126 124 134 116 115 124 108 107 120 107 106 117 94 92 111 58 58 82 60 60 89 60 58 89 84 83 100 100 99 117 89 88 101 93 92 105 96 94 106 100 99 113 88 86 100 106 104 115 100 100 113 114 113 124 94 91 109 49 47 90 56 53 100 77 54 67 81 75 80 84 74 82 76 65 70 93 83 88 80 72 78 100 85 91 92 82 90 91 83 86 92 84 87 97 89 94 113 106 110 107 105 111 96 89 91 102 99 101 115 110 113 112 103 105 109 102 103 103 92 93 121 113 115 121 115 117 133 127 128 125 119 121 112 102 105 117 112 115 98 95 99 111 108 116 105 99 107 125 122 126 110 107 115 103 101 108 101 97 100 107 103 108 122 118 120 96 90 95 114 107 111 98 96 103 113 111 118 93 92 104 99 98 113 91 89 102 101 100 111 122 121 131 122 121 136 114 114 120 108 107 118 79 78 89 75 74 96 64 62 83 51 51 74 68 65 84 100 99 112 103 103 121 85 83 100 109 109 117 97 96 112 93 93 105 92 90 97 90 90 104 95 94 98 89 88 102 97 96 105 58 57 103 45 44 86 83 58 62 75 63 66 90 76 82 80 72 76 85 71 74 88 80 85 83 73 77 88 81 90 102 93 98 107 103 106 92 88 95 105 97 102 108 102 104 100 93 96 103 97 100 97 89 92 111 103 105 113 106 108 93 86 89 114 104 107 135 128 129 111 103 104 124 118 121 106 102 104 107 100 102 107 102 108 96 90 98 111 109 117 107 106 114 112 110 116 124 120 124 93 90 92 103 96 101 108 101 105 105 101 104 101 96 103 92 88 99 95 89 101 106 104 113 94 94 104 70 69 86 114 113 125 119 118 129 105 104 113 94 92 103 114 112 118 112 110 118 90 89 107 71 70 87 57 57 79 86 85 103 88 85 96 94 92 103 99 99 112 94 94 110 87 87 103 88 86 96 91 90 110 93 91 101 94 93 111 97 96 111 90 88 106 51 50 88 50 47 89 70 42 47 77 64 68 94 82 88 75 67 70 84 75 79 79 74 78 92 83 91 91 88 93 106 99 102 108 99 102 110 103 105 99 96 102 93 86 89 93 86 88 97 88 93 92 85 87 100 92 94 114 107 109 118 113 114 125 117 120 131 126 128 130 125 128 123 117 121 121 112 115 105 100 105 101 95 102 96 89 93 102 95 104 113 111 119 121 117 122 93 91 98 97 96 102 119 114 116 82 78 81 98 91 93 95 89 93 94 92 101 95 91 103 102 101 110 103 101 113 92 91 104 110 110 121 104 101 110 121 119 127 103 101 115 107 105 116 107 106 116 100 99 112 78 77 99 70 70 95 77 75 92 86 85 98 86 85 99 107 107 119 90 89 104 98 96 108 93 93 106 91 91 102 89 89 102 91 89 102 98 96 107 96 95 109 52 50 90 56 55 99 78 56 61 83 73 80 83 71 76 98 89 92 80 73 83 86 75 79 92 78 80 103 100 103 110 101 104 106 96 100 108 101 104 106 96 102 117 110 116 96 85 90 110 104 105 92 81 83 116 108 112 124 115 119 132 127 128 133 127 129 121 118 120 115 107 108 107 97 103 109 104 105 96 89 98 96 94 100 101 97 104 114 107 112 116 110 113 119 115 124 124 117 124 118 112 118 103 99 104 101 94 101 107 101 107 84 81 87 89 87 96 117 115 124 118 117 128 112 111 122 94 93 107 121 121 131 106 105 114 120 120 131 110 108 120 106 104 115 124 122 131 117 115 129 98 97 113 78 75 94 86 85 106 79 78 94 72 71 93 91 91 107 99 99 109 97 96 113 89 88 105 83 83 97 70 69 86 105 105 111 96 92 101 104 103 117 52 50 91 53 52 95 76 47 51 85 78 83 94 89 90 82 70 74 87 77 83 90 74 80 94 80 88 89 82 85 99 93 96 99 86 90 107 104 107 108 99 102 109 101 106 83 70 75 115 111 112 102 93 95 116 110 113 126 119 121 129 124 128 128 118 119 123 118 122 107 104 107 109 101 103 107 100 103 109 101 108 116 114 118 108 101 107 100 96 101 98 94 100 112 110 120 111 108 111 99 94 101 98 93 97 90 82 87 100 94 102 98 94 108 102 99 110 99 98 107 126 123 134 125 124 132 118 117 129 110 108 120 121 119 128 110 110 118 101 98 109 114 112 126 123 120 129 96 95 106 110 108 119 95 92 109 78 77 99 82 80 94 71 70 88 66 65 82 93 93 104 95 95 111 91 90 104 102 101 115 98 97 110 100 99 115 105 105 118 97 95 106 59 58 100 49 48 89 67 44 52 73 63 68 81 72 79 94 84 89 90 82 85 85 79 83 97 90 91 92 88 93 98 88 95 89 83 86 89 84 91 91 84 86 106 99 100 98 90 92 96 88 90 128 120 122 119 111 113 108 98 100 118 111 112 119 113 114 114 107 109 98 92 94 102 95 96 92 83 89 101 98 105 106 101 113 116 112 119 121 117 125 98 96 101 96 90 97 111 105 108 116 112 118 99 95 102 116 111 117 102 98 103 106 103 110 106 102 112 112 109 118 98 96 107 129 127 136 118 117 127 121 120 129 107 104 117 105 102 112 95 94 105 104 102 113 110 107 120 101 98 112 104 102 110 118 117 131 84 83 98 85 85 98 78 78 95 62 61 82 80 78 90 93 93 106 96 96 111 102 101 117 90 89 101 94 94 108 89 88 106 96 96 118 46 45 89 55 55 99 80 54 56 92 77 82 97 86 90 85 75 82 95 89 94 88 79 83 98 91 96 97 88 94 98 94 95 101 97 100 103 95 100 101 97 99 106 99 103 88 83 86 95 88 91 86 79 81 107 97 100 91 82 84 123 117 118 121 115 117 98 92 96 112 105 108 116 108 111 119 113 120 104 101 112 110 104 111 95 88 96 97 94 103 110 108 113 107 102 111 86 82 85 99 91 97 106 100 110 84 76 78 101 98 103 109 105 112 121 119 131 94 92 103 119 118 126 111 110 122 111 110 117 116 116 126 123 123 133 111 108 115 86 84 96 111 110 121 96 94 105 102 99 108 95 91 104 114 113 128 77 76 96 59 59 86 84 84 102 57 56 82 64 63 75 88 88 101 97 97 109 103 103 117 95 94 111 93 92 106 98 97 108 87 85 100 50 48 87 54 53 94 85 63 66 80 69 76 79 68 71 85 76 79 97 93 95 94 87 92 95 86 92 101 94 96 91 84 84 87 81 85 90 85 88 101 93 96 89 83 84 101 96 97 100 95 96 96 91 92 74 68 70 76 72 75 91 84 86 102 97 99 98 91 95 125 120 123 107 103 107 95 89 96 116 113 118 116 111 114 120 115 118 106 102 110 109 105 111 125 120 125 107 99 104 97 95 100 105 98 102 116 112 118 106 100 112 100 99 108 102 99 111 96 94 102 121 118 127 119 117 125 86 84 97 114 113 119 124 123 136 122 120 131 96 92 104 117 116 124 82 81 98 109 106 115 115 113 125 117 116 130 71 70 95 62 60 83 79 77 92 42 40 66 62 61 78 84 83 93 100 100 114 101 101 111 113 113 123 98 97 106 89 87 97 110 109 120 56 56 101 47 46 87 73 60 64 83 72 74 71 61 69 89 79 85 74 68 71 69 64 72 77 70 74 94 85 88 112 104 108 96 86 94 105 98 102 99 89 92 91 84 86 101 94 95 106 101 102 96 88 90 98 93 95 74 72 73 76 68 69 67 59 59 86 81 82 91 88 89 100 93 98 129 124 127 106 104 110 112 111 116 121 117 122 122 117 122 116 112 115 104 97 100 124 117 120 111 108 113 131 124 127 94 89 96 102 99 109 110 108 115 111 108 119 102 100 105 112 111 121 93 92 105 100 100 112 123 121 130 108 106 119 119 118 131 114 113 121 115 112 124 80 80 97 93 93 101 106 106 116 91 89 101 55 54 70 82 80 94 64 63 81 41 39 61 63 62 80 70 70 88 90 89 98 89 88 95 108 106 119 93 93 105 103 103 117 86 85 106 44 41 79 52 51 91 