P3
64 64
255
0 0 0 46 23 23 34 21 21 0 0 0 0 0 0 46 23 23 34 21 21 21 8 12 0 0 0 0 0 0 34 21 21 0 0 0 0 0 0 0 0 0 0 0 0 0 0 0 21 12 21 0 0 0 0 0 0 0 0 0 0 0 0 0 0 0 0 0 0 0 0 0 0 0 0 0 0 0 0 0 0 0 0 0 0 0 0 0 0 0 0 0 0 0 0 0 0 0 0 0 0 0 0 0 0 0 0 0 0 0 0 0 0 0 12 12 34 0 0 0 0 0 0 0 0 0 0 0 0 21 12 21 0 0 0 0 0 0 0 0 0 0 0 0 0 0 0 21 12 21 0 0 0 0 0 0 21 21 34 0 0 0 0 0 0 34 21 21 0 0 0 0 0 0 0 0 0 0 0 0 0 0 0 12 12 34 0 0 0 21 12 21 34 21 21 34 21 21 12 12 34 0 0 0 0 0 0 0 0 0 46 17 17 21 21 34 0 0 0 0 0 0 0 0 0 0 0 0 39 22 23 0 0 0 0 0 0 0 0 0 39 23 35 0 0 0 34 12 12 0 0 0 0 0 0 0 0 0 0 0 0 0 0 0 0 0 0 0 0 0 0 0 0 0 0 0 0 0 0 0 0 0 0 0 0 0 0 0 0 0 0 0 0 0 34 21 21 0 0 0 0 0 0 0 0 0 12 12 34 0 0 0 0 0 0 0 0 0 0 0 0 21 21 34 0 0 0 0 0 0 0 0 0 0 0 0 0 0 0 12 12 34 21 12 21 0 0 0 21 21 34 0 0 0 28 28 46 0 0 0 0 0 0 21 12 21 12 12 34 0 0 0 0 0 0 0 0 0 0 0 0 0 0 0 0 0 0 0 0 0 0 0 0 34 21 21 0 0 0 34 21 21 0 0 0 0 0 0 0 0 0 0 0 0 0 0 0 0 0 0 0 0 0 21 21 34 34 21 21 0 0 0 0 0 0 0 0 0 0 0 0 0 0 0 0 0 0 12 8 21 0 0 0 0 0 0 21 12 21 0 0 0 0 0 0 0 0 0 0 0 0 0 0 0 34 12 12 34 21 21 0 0 0 0 0 0 0 0 0 0 0 0 0 0 0 0 0 0 0 0 0 0 0 0 0 0 0 21 21 34 0 0 0 21 21 34 0 0 0 0 0 0 0 0 0 0 0 0 0 0 0 0 0 0 0 0 0 0 0 0 0 0 0 0 0 0 0 0 0 0 0 0 21 21 34 21 21 34 21 21 34 34 34 34 23 22 39 21 21 34 21 21 34 0 0 0 0 0 0 34 21 21 0 0 0 0 0 0 39 23 28 0 0 0 0 0 0 0 0 0 0 0 0 0 0 0 0 0 0 0 0 0 39 17 23 0 0 0 34 21 21 0 0 0 0 0 0 0 0 0 0 0 0 34 21 21 34 21 21 0 0 0 34 12 12 34 21 21 0 0 0 0 0 0 0 0 0 34 21 21 0 0 0 12 8 21 0 0 0 0 0 0 34 21 21 21 12 21 0 0 0 0 0 0 0 0 0 21 8 12 0 0 0 21 21 34 0 0 0 0 0 0 0 0 0 21 21 34 0 0 0 0 0 0 0 0 0 21 12 21 0 0 0 0 0 0 21 12 21 0 0 0 0 0 0 0 0 0 0 0 0 0 0 0 0 0 0 0 0 0 0 0 0 0 0 0 0 0 0 0 0 0 0 0 0 39 28 39 34 21 21 0 0 0 0 0 0 0 0 0 34 21 21 34 21 21 0 0 0 0 0 0 21 21 34 0 0 0 0 0 0 0 0 0 21 21 34 0 0 0 0 0 0 0 0 0 34 21 21 0 0 0 0 0 0 0 0 0 0 0 0 0 0 0 0 0 0 0 0 0 0 0 0 0 0 0 0 0 0 0 0 0 39 28 39 0 0 0 0 0 0 0 0 0 0 0 0 0 0 0 0 0 0 34 21 21 0 0 0 21 21 34 21 21 34 0 0 0 0 0 0 0 0 0 0 0 0 0 0 0 12 12 34 0 0 0 0 0 0 0 0 0 0 0 0 0 0 0 0 0 0 21 12 21 21 12 21 12 8 21 21 12 21 0 0 0 0 0 0 21 12 21 17 17 46 0 0 0 28 28 46 34 34 34 0 0 0 0 0 0 0 0 0 21 12 21 0 0 0 21 12 21 21 21 34 0 0 0 0 0 0 34 12 12 0 0 0 0 0 0 39 28 39 21 12 21 21 12 21 0 0 0 39 17 23 0 0 0 0 0 0 34 12 12 0 0 0 0 0 0 0 0 0 0 0 0 0 0 0 0 0 0 34 21 21 0 0 0 0 0 0 34 21 21 0 0 0 0 0 0 34 21 21 34 12 12 0 0 0 0 0 0 0 0 0 21 12 21 21 12 21 0 0 0 0 0 0 0 0 0 0 0 0 0 0 0 0 0 0 12 12 34 34 34 34 0 0 0 28 23 39 0 0 0 21 21 34 21 21 34 39 28 39 21 21 34 23 23 46 0 0 0 28 23 39 12 12 34 21 12 21 0 0 0 21 21 34 0 0 0 34 21 21 28 23 39 21 12 21 0 0 0 0 0 0 0 0 0 0 0 0 34 21 21 0 0 0 34 34 34 21 12 21 21 12 21 0 0 0 34 21 21 0 0 0 34 34 34 28 23 39 0 0 0 0 0 0 0 0 0 0 0 0 0 0 0 34 21 21 0 0 0 34 12 12 0 0 0 0 0 0 0 0 0 0 0 0 0 0 0 0 0 0 0 0 0 21 12 21 0 0 0 0 0 0 21 12 21 46 28 28 21 12 21 0 0 0 0 0 0 0 0 0 46 39 58 0 0 0 12 12 34 0 0 0 0 0 0 21 21 34 21 21 34 0 0 0 0 0 0 21 12 21 0 0 0 21 12 21 0 0 0 0 0 0 0 0 0 21 21 34 0 0 0 0 0 0 12 12 34 12 12 34 0 0 0 17 17 46 34 30 50 0 0 0 12 12 34 34 34 34 0 0 0 0 0 0 0 0 0 0 0 0 21 12 21 21 12 21 39 35 39 0 0 0 39 17 23 0 0 0 28 23 39 21 12 21 0 0 0 21 21 34 0 0 0 0 0 0 0 0 0 0 0 0 34 21 21 0 0 0 28 17 28 34 21 21 34 21 21 0 0 0 0 0 0 0 0 0 28 23 39 0 0 0 0 0 0 28 28 46 21 12 21 0 0 0 0 0 0 0 0 0 34 21 21 0 0 0 21 21 34 0 0 0 34 26 43 21 21 34 0 0 0 0 0 0 0 0 0 0 0 0 0 0 0 0 0 0 0 0 0 0 0 0 0 0 0 0 0 0 21 12 21 0 0 0 21 21 34 0 0 0 21 12 21 0 0 0 12 12 34 0 0 0 0 0 0 0 0 0 0 0 0 0 0 0 12 12 34 0 0 0 21 21 34 0 0 0 28 23 39 0 0 0 0 0 0 34 12 12 0 0 0 0 0 0 21 21 34 0 0 0 0 0 0 34 12 12 0 0 0 0 0 0 0 0 0 0 0 0 0 0 0 0 0 0 0 0 0 0 0 0 0 0 0 46 28 28 0 0 0 46 28 28 21 12 21 0 0 0 34 34 34 0 0 0 0 0 0 0 0 0 34 21 21 0 0 0 34 21 21 0 0 0 0 0 0 21 21 34 0 0 0 0 0 0 21 12 21 0 0 0 21 12 21 0 0 0 12 8 21 0 0 0 0 0 0 21 21 34 0 0 0 21 12 21 0 0 0 0 0 0 0 0 0 0 0 0 0 0 0 0 0 0 0 0 0 21 12 21 0 0 0 0 0 0 0 0 0 0 0 0 0 0 0 34 21 21 0 0 0 0 0 0 0 0 0 46 23 23 0 0 0 0 0 0 0 0 0 0 0 0 0 0 0 34 12 12 39 23 28 0 0 0 0 0 0 0 0 0 0 0 0 21 12 21 0 0 0 0 0 0 34 34 56 34 12 12 0 0 0 34 12 12 34 34 34 0 0 0 0 0 0 0 0 0 34 21 21 34 21 21 34 21 21 0 0 0 0 0 0 0 0 0 56 30 30 0 0 0 0 0 0 0 0 0 0 0 0 0 0 0 0 0 0 0 0 0 21 21 34 12 8 21 0 0 0 12 12 34 0 0 0 12 12 34 0 0 0 0 0 0 21 21 34 21 21 34 0 0 0 12 12 34 0 0 0 0 0 0 0 0 0 0 0 0 21 21 34 40 26 43 28 28 46 0 0 0 0 0 0 21 8 12 39 23 35 0 0 0 0 0 0 0 0 0 0 0 0 0 0 0 0 0 0 50 26 37 34 21 21 0 0 0 34 34 34 0 0 0 39 23 28 34 21 21 0 0 0 0 0 0 0 0 0 0 0 0 0 0 0 0 0 0 21 21 34 0 0 0 0 0 0 0 0 0 0 0 0 0 0 0 0 0 0 34 21 21 0 0 0 0 0 0 0 0 0 34 21 21 0 0 0 56 34 34 21 12 21 34 21 21 39 23 28 0 0 0 0 0 0 21 12 21 21 12 21 0 0 0 12 12 34 39 23 28 0 0 0 21 12 21 0 0 0 23 23 46 0 0 0 0 0 0 0 0 0 21 21 34 0 0 0 28 23 39 0 0 0 0 0 0 0 0 0 21 21 34 0 0 0 21 21 34 0 0 0 0 0 0 0 0 0 0 0 0 28 23 39 28 23 39 0 0 0 0 0 0 21 21 34 34 21 21 0 0 0 0 0 0 50 30 34 28 17 28 34 12 12 0 0 0 34 21 21 0 0 0 39 23 28 46 28 28 21 12 21 0 0 0 0 0 0 0 0 0 0 0 0 0 0 0 0 0 0 0 0 0 0 0 0 0 0 0 34 12 12 21 12 21 0 0 0 0 0 0 46 28 28 21 21 34 50 26 30 21 21 34 43 26 34 0 0 0 0 0 0 43 34 50 34 34 34 0 0 0 34 21 21 0 0 0 23 23 46 28 23 39 21 21 34 0 0 0 34 21 21 0 0 0 0 0 0 0 0 0 35 23 39 0 0 0 0 0 0 0 0 0 28 23 39 0 0 0 34 21 21 21 12 21 12 12 34 0 0 0 12 12 34 0 0 0 0 0 0 39 23 35 0 0 0 12 12 34 21 12 21 0 0 0 34 34 34 0 0 0 0 0 0 0 0 0 34 12 12 21 21 34 46 23 23 0 0 0 0 0 0 0 0 0 0 0 0 34 21 21 46 28 28 34 21 21 0 0 0 0 0 0 0 0 0 34 21 21 0 0 0 34 21 21 21 12 21 0 0 0 0 0 0 0 0 0 0 0 0 46 23 23 21 21 34 0 0 0 34 21 21 0 0 0 0 0 0 0 0 0 0 0 0 0 0 0 0 0 0 28 23 39 0 0 0 21 12 21 0 0 0 34 21 21 21 12 21 0 0 0 28 23 39 0 0 0 0 0 0 17 17 46 0 0 0 0 0 0 21 12 21 21 21 34 0 0 0 0 0 0 17 17 46 21 21 34 0 0 0 34 21 21 0 0 0 0 0 0 0 0 0 0 0 0 21 21 34 23 23 46 0 0 0 0 0 0 0 0 0 0 0 0 0 0 0 21 12 21 21 12 21 46 17 17 21 12 21 21 12 21 34 18 30 34 21 21 34 21 21 0 0 0 0 0 0 21 12 21 0 0 0 34 21 21 34 21 21 0 0 0 0 0 0 39 23 28 39 39 46 0 0 0 0 0 0 21 12 21 0 0 0 0 0 0 0 0 0 0 0 0 21 12 21 0 0 0 0 0 0 0 0 0 0 0 0 21 21 34 0 0 0 0 0 0 21 21 34 34 21 21 21 21 34 12 12 34 21 21 34 0 0 0 21 12 21 0 0 0 0 0 0 21 21 34 21 12 21 0 0 0 0 0 0 0 0 0 0 0 0 0 0 0 0 0 0 12 12 34 21 21 34 0 0 0 0 0 0 21 12 21 0 0 0 0 0 0 21 21 34 21 21 34 34 21 21 0 0 0 34 12 12 0 0 0 0 0 0 21 12 21 0 0 0 0 0 0 0 0 0 0 0 0 0 0 0 21 12 21 21 12 21 0 0 0 28 17 28 0 0 0 0 0 0 21 21 34 0 0 0 34 12 12 0 0 0 21 8 12 0 0 0 0 0 0 0 0 0 0 0 0 0 0 0 0 0 0 0 0 0 0 0 0 0 0 0 0 0 0 0 0 0 0 0 0 0 0 0 0 0 0 0 0 0 0 0 0 0 0 0 21 21 34 0 0 0 0 0 0 21 12 21 0 0 0 0 0 0 34 21 21 0 0 0 34 34 34 0 0 0 21 21 34 21 12 21 0 0 0 34 21 21 21 21 34 12 12 34 0 0 0 0 0 0 21 21 34 0 0 0 0 0 0 21 21 34 0 0 0 12 8 21 0 0 0 0 0 0 0 0 0 0 0 0 0 0 0 0 0 0 0 0 0 0 0 0 39 23 28 0 0 0 0 0 0 0 0 0 46 28 28 21 21 34 0 0 0 0 0 0 0 0 0 0 0 0 0 0 0 0 0 0 34 12 12 0 0 0 0 0 0 34 34 34 21 21 34 0 0 0 0 0 0 0 0 0 34 21 21 0 0 0 0 0 0 21 12 21 34 21 21 21 21 34 23 17 39 21 12 21 21 8 12 0 0 0 0 0 0 21 21 34 21 21 34 0 0 0 0 0 0 0 0 0 0 0 0 26 26 56 28 23 39 0 0 0 0 0 0 21 12 21 21 12 21 21 12 21 0 0 0 0 0 0 12 12 34 0 0 0 34 34 56 0 0 0 0 0 0 0 0 0 12 12 34 26 26 56 0 0 0 34 21 21 0 0 0 0 0 0 0 0 0 0 0 0 0 0 0 34 12 12 0 0 0 0 0 0 0 0 0 34 12 12 34 34 34 0 0 0 21 12 21 0 0 0 21 8 12 21 8 12 34 12 12 21 12 21 21 21 34 21 21 34 21 12 21 0 0 0 21 12 21 43 26 34 21 12 21 0 0 0 0 0 0 0 0 0 0 0 0 0 0 0 0 0 0 0 0 0 0 0 0 0 0 0 0 0 0 34 21 21 0 0 0 34 21 21 0 0 0 21 21 34 34 21 21 0 0 0 21 21 34 28 23 39 0 0 0 34 34 34 21 21 34 0 0 0 0 0 0 0 0 0 21 21 34 28 28 46 21 21 34 23 23 46 0 0 0 39 28 39 21 21 34 34 21 21 0 0 0 21 12 21 0 0 0 21 12 21 0 0 0 34 21 21 28 23 39 0 0 0 0 0 0 28 28 46 0 0 0 0 0 0 34 34 34 0 0 0 0 0 0 0 0 0 21 21 34 0 0 0 0 0 0 0 0 0 34 12 12 0 0 0 0 0 0 34 21 21 0 0 0 39 17 23 46 23 23 0 0 0 21 8 12 0 0 0 21 12 21 0 0 0 0 0 0 0 0 0 21 12 21 34 21 21 0 0 0 46 28 28 0 0 0 34 21 21 0 0 0 0 0 0 0 0 0 0 0 0 21 12 21 34 21 21 0 0 0 39 35 39 17 17 46 0 0 0 21 21 34 0 0 0 0 0 0 0 0 0 0 0 0 21 12 21 0 0 0 0 0 0 34 21 21 0 0 0 12 12 34 23 23 46 0 0 0 39 39 46 0 0 0 0 0 0 12 12 34 0 0 0 39 28 39 21 12 21 0 0 0 21 12 21 21 21 34 0 0 0 0 0 0 0 0 0 0 0 0 34 21 21 0 0 0 0 0 0 34 21 21 0 0 0 39 23 35 0 0 0 21 12 21 21 12 21 0 0 0 21 12 21 28 17 28 0 0 0 21 12 21 39 23 28 0 0 0 0 0 0 34 21 21 0 0 0 0 0 0 0 0 0 0 0 0 0 0 0 0 0 0 0 0 0 21 12 21 34 21 21 21 21 34 0 0 0 34 34 34 34 21 21 39 17 23 0 0 0 21 12 21 21 12 21 0 0 0 0 0 0 28 17 28 28 23 39 34 21 21 21 21 34 0 0 0 0 0 0 0 0 0 0 0 0 39 23 28 43 30 43 0 0 0 0 0 0 12 12 34 0 0 0 21 12 21 39 28 39 0 0 0 28 28 46 34 12 12 21 21 34 0 0 0 21 21 34 0 0 0 0 0 0 0 0 0 0 0 0 21 21 34 21 12 21 34 21 21 0 0 0 34 12 12 34 21 21 0 0 0 0 0 0 28 14 23 46 28 28 21 21 34 0 0 0 0 0 0 21 12 21 0 0 0 0 0 0 0 0 0 34 12 12 39 17 23 0 0 0 0 0 0 21 12 21 34 12 12 0 0 0 0 0 0 0 0 0 21 21 34 0 0 0 0 0 0 0 0 0 0 0 0 0 0 0 0 0 0 21 12 21 21 21 34 21 12 21 23 17 39 0 0 0 21 21 34 0 0 0 0 0 0 12 12 34 0 0 0 0 0 0 12 12 34 21 21 34 21 12 21 0 0 0 21 21 34 0 0 0 0 0 0 28 23 39 34 21 21 0 0 0 0 0 0 0 0 0 0 0 0 0 0 0 0 0 0 0 0 0 0 0 0 0 0 0 0 0 0 0 0 0 21 12 21 21 12 21 34 21 21 0 0 0 0 0 0 34 21 21 0 0 0 0 0 0 21 21 34 0 0 0 34 21 21 0 0 0 34 12 12 0 0 0 0 0 0 21 12 21 0 0 0 21 12 21 0 0 0 21 12 21 12 12 34 0 0 0 0 0 0 0 0 0 34 21 21 21 12 21 0 0 0 34 12 12 0 0 0 0 0 0 39 23 35 21 21 34 0 0 0 34 12 12 0 0 0 0 0 0 23 22 39 0 0 0 0 0 0 21 21 34 21 12 21 0 0 0 12 12 34 12 12 34 0 0 0 0 0 0 21 12 21 0 0 0 0 0 0 0 0 0 0 0 0 0 0 0 0 0 0 0 0 0 0 0 0 0 0 0 21 12 21 0 0 0 39 23 28 0 0 0 0 0 0 0 0 0 0 0 0 0 0 0 0 0 0 21 12 21 21 12 21 0 0 0 0 0 0 0 0 0 0 0 0 21 12 21 0 0 0 0 0 0 46 23 23 21 12 21 50 34 43 0 0 0 21 12 21 43 26 40 21 21 34 21 8 12 21 12 21 34 21 21 21 12 21 0 0 0 0 0 0 0 0 0 21 12 21 0 0 0 0 0 0 0 0 0 0 0 0 0 0 0 21 12 21 46 23 23 34 12 12 0 0 0 0 0 0 0 0 0 23 17 39 0 0 0 0 0 0 12 12 34 0 0 0 0 0 0 0 0 0 0 0 0 0 0 0 0 0 0 23 17 39 21 12 21 28 17 28 21 21 34 34 21 21 0 0 0 0 0 0 0 0 0 21 12 21 12 12 34 17 17 46 0 0 0 0 0 0 0 0 0 0 0 0 0 0 0 0 0 0 0 0 0 0 0 0 0 0 0 0 0 0 43 26 34 0 0 0 21 21 34 0 0 0 21 12 21 34 21 21 0 0 0 0 0 0 39 23 28 0 0 0 0 0 0 0 0 0 0 0 0 0 0 0 0 0 0 0 0 0 0 0 0 0 0 0 21 21 34 0 0 0 0 0 0 0 0 0 0 0 0 21 12 21 0 0 0 34 21 21 0 0 0 0 0 0 0 0 0 0 0 0 0 0 0 34 21 21 0 0 0 12 12 34 34 21 21 0 0 0 0 0 0 0 0 0 0 0 0 12 12 34 0 0 0 21 12 21 39 35 39 0 0 0 21 21 34 0 0 0 21 12 21 0 0 0 0 0 0 21 21 34 21 21 34 0 0 0 21 12 21 0 0 0 28 28 46 0 0 0 0 0 0 0 0 0 0 0 0 0 0 0 39 28 39 0 0 0 34 21 21 0 0 0 0 0 0 0 0 0 0 0 0 0 0 0 0 0 0 0 0 0 34 12 12 0 0 0 34 34 34 0 0 0 0 0 0 0 0 0 21 12 21 0 0 0 34 12 12 43 26 34 0 0 0 0 0 0 0 0 0 34 21 21 21 21 34 0 0 0 21 21 34 34 12 12 0 0 0 0 0 0 0 0 0 0 0 0 21 12 21 0 0 0 0 0 0 0 0 0 0 0 0 0 0 0 34 21 21 34 34 34 28 17 28 0 0 0 0 0 0 21 12 21 23 14 28 0 0 0 0 0 0 21 21 34 0 0 0 21 12 21 0 0 0 34 34 34 0 0 0 0 0 0 46 23 23 21 12 21 0 0 0 0 0 0 0 0 0 12 12 34 34 30 50 0 0 0 0 0 0 0 0 0 23 22 39 0 0 0 0 0 0 0 0 0 0 0 0 0 0 0 34 12 12 21 12 21 0 0 0 21 12 21 34 21 21 0 0 0 0 0 0 0 0 0 34 21 21 28 17 28 0 0 0 0 0 0 21 12 21 46 17 17 0 0 0 34 34 34 0 0 0 21 12 21 0 0 0 21 12 21 12 12 34 0 0 0 34 21 21 0 0 0 21 12 21 34 21 21 0 0 0 0 0 0 0 0 0 0 0 0 0 0 0 39 23 28 0 0 0 35 23 39 0 0 0 21 12 21 21 12 21 0 0 0 12 12 34 39 23 28 0 0 0 21 21 34 0 0 0 21 21 34 21 12 21 0 0 0 21 21 34 12 12 34 0 0 0 21 12 21 23 23 46 12 8 21 12 12 34 21 12 21 21 12 21 0 0 0 0 0 0 0 0 0 0 0 0 21 21 34 0 0 0 0 0 0 0 0 0 0 0 0 21 12 21 50 30 40 0 0 0 39 23 28 0 0 0 0 0 0 34 12 12 21 12 21 0 0 0 21 12 21 0 0 0 28 17 28 21 12 21 21 12 21 21 12 21 12 8 21 0 0 0 0 0 0 34 21 21 0 0 0 0 0 0 0 0 0 0 0 0 0 0 0 28 28 46 46 28 28 34 21 21 0 0 0 0 0 0 21 12 21 23 10 23 0 0 0 0 0 0 34 21 21 23 23 46 21 21 34 0 0 0 0 0 0 21 12 21 0 0 0 0 0 0 0 0 0 12 12 34 0 0 0 34 21 21 39 28 39 12 12 34 0 0 0 0 0 0 0 0 0 21 21 34 0 0 0 0 0 0 0 0 0 0 0 0 0 0 0 0 0 0 0 0 0 34 12 12 46 28 28 21 21 34 0 0 0 0 0 0 0 0 0 0 0 0 0 0 0 0 0 0 0 0 0 0 0 0 0 0 0 0 0 0 0 0 0 34 12 12 0 0 0 50 34 43 0 0 0 34 21 21 34 12 12 34 12 12 12 12 34 28 17 28 0 0 0 0 0 0 0 0 0 0 0 0 21 12 21 0 0 0 34 21 21 0 0 0 0 0 0 0 0 0 0 0 0 34 21 21 0 0 0 0 0 0 34 21 21 0 0 0 21 21 34 21 21 34 0 0 0 28 17 28 0 0 0 0 0 0 0 0 0 21 21 34 0 0 0 28 28 46 0 0 0 40 37 50 0 0 0 0 0 0 0 0 0 12 12 34 12 12 34 21 21 34 0 0 0 0 0 0 0 0 0 34 21 21 0 0 0 0 0 0 0 0 0 34 21 21 0 0 0 0 0 0 0 0 0 0 0 0 0 0 0 21 21 34 21 12 21 34 21 21 23 17 39 0 0 0 0 0 0 0 0 0 0 0 0 21 12 21 34 21 21 0 0 0 0 0 0 0 0 0 0 0 0 0 0 0 0 0 0 39 23 28 0 0 0 12 12 34 0 0 0 46 28 28 0 0 0 0 0 0 0 0 0 0 0 0 0 0 0 12 12 34 21 12 21 0 0 0 0 0 0 0 0 0 21 12 21 28 23 39 12 12 34 0 0 0 21 12 21 21 12 21 0 0 0 0 0 0 0 0 0 0 0 0 0 0 0 0 0 0 0 0 0 12 12 34 0 0 0 0 0 0 0 0 0 21 21 34 46 28 28 0 0 0 21 12 21 28 17 28 0 0 0 0 0 0 21 21 34 0 0 0 0 0 0 0 0 0 0 0 0 0 0 0 21 12 21 28 17 28 0 0 0 0 0 0 21 12 21 34 21 21 0 0 0 0 0 0 34 21 21 0 0 0 0 0 0 46 28 28 0 0 0 21 12 21 0 0 0 21 12 21 0 0 0 0 0 0 0 0 0 0 0 0 0 0 0 0 0 0 21 12 21 0 0 0 0 0 0 0 0 0 0 0 0 0 0 0 0 0 0 12 8 21 0 0 0 0 0 0 0 0 0 23 23 46 0 0 0 21 21 34 21 12 21 28 23 39 21 21 34 12 12 34 0 0 0 0 0 0 0 0 0 21 21 34 0 0 0 0 0 0 0 0 0 21 12 21 0 0 0 0 0 0 21 12 21 0 0 0 0 0 0 0 0 0 0 0 0 0 0 0 0 0 0 21 8 12 0 0 0 0 0 0 0 0 0 0 0 0 0 0 0 0 0 0 21 12 21 0 0 0 0 0 0 0 0 0 39 17 23 34 21 21 34 12 12 0 0 0 0 0 0 34 12 12 0 0 0 0 0 0 0 0 0 0 0 0 21 12 21 0 0 0 21 8 12 0 0 0 0 0 0 0 0 0 50 40 43 34 12 12 0 0 0 21 12 21 0 0 0 0 0 0 0 0 0 0 0 0 12 12 34 40 26 43 34 21 21 0 0 0 39 23 28 28 17 28 12 12 34 28 23 39 0 0 0 21 12 21 0 0 0 28 23 39 0 0 0 0 0 0 21 21 34 0 0 0 0 0 0 0 0 0 34 34 34 12 12 34 0 0 0 21 21 34 0 0 0 0 0 0 28 28 46 21 12 21 21 12 21 39 28 39 21 12 21 21 21 34 34 21 21 21 12 21 0 0 0 0 0 0 21 12 21 46 28 28 0 0 0 0 0 0 21 8 12 0 0 0 21 21 34 34 34 34 0 0 0 21 12 21 0 0 0 34 21 21 34 34 34 34 12 12 34 21 21 34 21 21 0 0 0 0 0 0 34 34 34 0 0 0 21 12 21 34 12 12 0 0 0 0 0 0 34 12 12 0 0 0 0 0 0 26 18 43 0 0 0 39 28 39 23 17 39 0 0 0 0 0 0 0 0 0 0 0 0 28 23 39 12 12 34 28 23 39 0 0 0 12 12 34 0 0 0 0 0 0 21 12 21 0 0 0 0 0 0 0 0 0 0 0 0 0 0 0 0 0 0 0 0 0 35 35 46 34 30 50 0 0 0 0 0 0 0 0 0 0 0 0 0 0 0 0 0 0 0 0 0 0 0 0 0 0 0 0 0 0 21 21 34 28 23 39 0 0 0 28 17 28 0 0 0 21 12 21 0 0 0 0 0 0 0 0 0 0 0 0 46 23 23 21 8 12 0 0 0 0 0 0 0 0 0 0 0 0 21 12 21 50 30 34 43 30 43 0 0 0 34 12 12 0 0 0 0 0 0 0 0 0 0 0 0 0 0 0 0 0 0 34 12 12 0 0 0 23 17 39 39 23 28 21 12 21 0 0 0 0 0 0 21 21 34 21 21 34 0 0 0 34 21 21 0 0 0 0 0 0 0 0 0 0 0 0 21 21 34 0 0 0 0 0 0 21 12 21 0 0 0 0 0 0 0 0 0 0 0 0 0 0 0 0 0 0 0 0 0 0 0 0 0 0 0 0 0 0 21 21 34 0 0 0 12 8 21 0 0 0 23 17 39 46 28 28 0 0 0 0 0 0 0 0 0 34 21 21 0 0 0 0 0 0 0 0 0 0 0 0 0 0 0 0 0 0 34 12 12 0 0 0 0 0 0 0 0 0 0 0 0 34 12 12 0 0 0 0 0 0 21 12 21 0 0 0 0 0 0 0 0 0 0 0 0 0 0 0 0 0 0 34 21 21 0 0 0 34 21 21 39 28 39 0 0 0 0 0 0 34 21 21 0 0 0 39 23 28 0 0 0 21 21 34 0 0 0 0 0 0 0 0 0 34 21 21 21 12 21 0 0 0 21 12 21 0 0 0 0 0 0 21 12 21 0 0 0 0 0 0 0 0 0 39 28 39 0 0 0 0 0 0 0 0 0 12 12 34 21 12 21 0 0 0 21 21 34 23 17 39 0 0 0 0 0 0 12 12 34 0 0 0 0 0 0 21 21 34 0 0 0 0 0 0 0 0 0 34 21 21 0 0 0 0 0 0 39 28 39 0 0 0 34 12 12 0 0 0 34 12 12 0 0 0 0 0 0 0 0 0 34 21 21 34 12 12 34 21 21 0 0 0 0 0 0 0 0 0 0 0 0 0 0 0 0 0 0 0 0 0 0 0 0 0 0 0 0 0 0 39 28 39 21 12 21 0 0 0 0 0 0 0 0 0 21 12 21 0 0 0 0 0 0 21 21 34 0 0 0 28 23 39 0 0 0 0 0 0 0 0 0 0 0 0 21 21 34 21 12 21 23 23 46 0 0 0 0 0 0 0 0 0 0 0 0 12 12 34 0 0 0 21 21 34 0 0 0 0 0 0 0 0 0 12 12 34 0 0 0 21 21 34 0 0 0 0 0 0 0 0 0 0 0 0 21 21 34 0 0 0 0 0 0 0 0 0 0 0 0 0 0 0 0 0 0 0 0 0 34 21 21 21 12 21 21 12 21 0 0 0 39 39 46 0 0 0 21 8 12 0 0 0 0 0 0 0 0 0 34 21 21 39 17 23 0 0 0 21 12 21 0 0 0 34 21 21 0 0 0 0 0 0 0 0 0 43 26 40 34 21 21 21 12 21 0 0 0 28 28 46 21 21 34 12 12 34 21 12 21 0 0 0 0 0 0 34 21 21 21 12 21 34 21 21 34 12 12 0 0 0 0 0 0 0 0 0 0 0 0 12 12 34 0 0 0 0 0 0 21 12 21 21 12 21 0 0 0 39 23 28 12 12 34 34 21 21 21 12 21 0 0 0 0 0 0 0 0 0 0 0 0 12 12 34 0 0 0 0 0 0 34 21 21 0 0 0 21 21 34 0 0 0 0 0 0 0 0 0 0 0 0 34 21 21 21 21 34 0 0 0 0 0 0 21 21 34 34 12 12 0 0 0 21 21 34 21 21 34 21 21 34 34 21 21 21 21 34 0 0 0 0 0 0 0 0 0 0 0 0 34 12 12 0 0 0 34 12 12 0 0 0 21 12 21 0 0 0 0 0 0 0 0 0 34 21 21 34 21 21 34 21 21 0 0 0 0 0 0 0 0 0 0 0 0 34 21 21 0 0 0 0 0 0 0 0 0 34 21 21 34 21 21 0 0 0 39 23 28 21 12 21 0 0 0 0 0 0 21 12 21 0 0 0 0 0 0 0 0 0 0 0 0 0 0 0 0 0 0 0 0 0 12 8 21 0 0 0 12 8 21 21 21 34 0 0 0 0 0 0 0 0 0 21 21 34 21 12 21 0 0 0 0 0 0 0 0 0 0 0 0 0 0 0 0 0 0 0 0 0 0 0 0 34 12 12 34 21 21 0 0 0 0 0 0 0 0 0 21 8 12 0 0 0 39 28 39 0 0 0 0 0 0 0 0 0 34 12 12 0 0 0 0 0 0 21 12 21 0 0 0 34 21 21 46 28 28 0 0 0 0 0 0 21 21 34 21 12 21 0 0 0 0 0 0 12 12 34 35 17 35 34 21 21 0 0 0 0 0 0 0 0 0 21 12 21 0 0 0 0 0 0 34 12 12 0 0 0 21 12 21 0 0 0 0 0 0 28 23 39 0 0 0 21 12 21 0 0 0 21 12 21 0 0 0 23 23 46 0 0 0 0 0 0 0 0 0 0 0 0 0 0 0 0 0 0 0 0 0 0 0 0 0 0 0 0 0 0 39 28 39 0 0 0 0 0 0 0 0 0 0 0 0 0 0 0 0 0 0 21 21 34 34 21 21 0 0 0 21 12 21 0 0 0 21 21 34 34 21 21 0 0 0 39 28 39 0 0 0 21 12 21 0 0 0 0 0 0 0 0 0 34 21 21 0 0 0 34 21 21 0 0 0 0 0 0 0 0 0 0 0 0 0 0 0 0 0 0 0 0 0 0 0 0 12 12 34 0 0 0 0 0 0 21 21 34 0 0 0 21 21 34 23 23 46 0 0 0 28 23 39 0 0 0 0 0 0 0 0 0 0 0 0 0 0 0 34 12 12 0 0 0 0 0 0 0 0 0 0 0 0 0 0 0 0 0 0 21 21 34 0 0 0 12 12 34 0 0 0 0 0 0 12 12 34 0 0 0 0 0 0 12 12 34 35 14 23 28 23 39 0 0 0 0 0 0 0 0 0 0 0 0 21 8 12 0 0 0 12 12 34 0 0 0 34 21 21 0 0 0 0 0 0 0 0 0 0 0 0 0 0 0 0 0 0 0 0 0 34 12 12 0 0 0 21 12 21 21 12 21 0 0 0 0 0 0 0 0 0 0 0 0 0 0 0 0 0 0 34 21 21 0 0 0 0 0 0 0 0 0 0 0 0 34 21 21 0 0 0 12 12 34 0 0 0 28 23 39 39 23 28 0 0 0 0 0 0 0 0 0 0 0 0 34 21 21 34 21 21 34 12 12 34 21 21 0 0 0 0 0 0 0 0 0 0 0 0 0 0 0 12 12 34 0 0 0 0 0 0 0 0 0 23 17 39 23 17 39 0 0 0 0 0 0 21 12 21 0 0 0 35 35 46 0 0 0 0 0 0 0 0 0 21 12 21 0 0 0 0 0 0 0 0 0 0 0 0 0 0 0 0 0 0 0 0 0 0 0 0 0 0 0 0 0 0 46 17 17 0 0 0 0 0 0 0 0 0 0 0 0 34 21 21 0 0 0 21 21 34 34 12 12 0 0 0 39 23 28 0 0 0 0 0 0 0 0 0 34 21 21 0 0 0 0 0 0 0 0 0 21 21 34 0 0 0 0 0 0 21 12 21 0 0 0 39 39 46 0 0 0 0 0 0 0 0 0 0 0 0 0 0 0 34 21 21 0 0 0 39 23 28 0 0 0 0 0 0 0 0 0 0 0 0 21 12 21 0 0 0 21 21 34 0 0 0 0 0 0 0 0 0 21 21 34 0 0 0 0 0 0 0 0 0 0 0 0 21 21 34 0 0 0 0 0 0 21 21 34 35 23 39 0 0 0 21 12 21 0 0 0 0 0 0 0 0 0 0 0 0 0 0 0 0 0 0 0 0 0 0 0 0 28 17 28 0 0 0 46 23 23 0 0 0 21 21 34 12 12 34 21 12 21 0 0 0 0 0 0 21 21 34 0 0 0 0 0 0 21 12 21 34 21 21 0 0 0 0 0 0 34 21 21 0 0 0 0 0 0 21 12 21 0 0 0 0 0 0 0 0 0 0 0 0 21 21 34 21 12 21 0 0 0 35 32 72 21 21 34 34 12 12 0 0 0 0 0 0 0 0 0 21 21 34 34 34 34 0 0 0 0 0 0 0 0 0 21 21 34 21 12 21 0 0 0 0 0 0 0 0 0 0 0 0 0 0 0 0 0 0 0 0 0 21 12 21 0 0 0 21 12 21 0 0 0 0 0 0 21 21 34 21 12 21 0 0 0 21 12 21 21 21 34 0 0 0 0 0 0 0 0 0 0 0 0 0 0 0 0 0 0 0 0 0 21 12 21 0 0 0 0 0 0 0 0 0 0 0 0 21 12 21 34 12 12 34 12 12 34 12 12 39 39 46 0 0 0 0 0 0 0 0 0 0 0 0 0 0 0 0 0 0 0 0 0 0 0 0 0 0 0 34 34 34 0 0 0 21 12 21 0 0 0 12 8 21 21 21 34 0 0 0 0 0 0 12 12 34 21 21 34 0 0 0 39 23 28 12 12 34 0 0 0 0 0 0 28 17 28 21 12 21 0 0 0 0 0 0 21 12 21 0 0 0 0 0 0 23 23 46 23 17 39 0 0 0 0 0 0 21 21 34 0 0 0 0 0 0 0 0 0 0 0 0 0 0 0 12 12 34 21 12 21 21 12 21 12 12 34 21 12 21 0 0 0 0 0 0 0 0 0 0 0 0 0 0 0 0 0 0 34 12 12 34 12 12 0 0 0 0 0 0 39 17 23 34 21 21 0 0 0 0 0 0 21 12 21 21 21 34 0 0 0 34 21 21 0 0 0 0 0 0 34 21 21 0 0 0 0 0 0 46 28 28 0 0 0 21 12 21 0 0 0 34 12 12 39 28 39 0 0 0 34 12 12 0 0 0 46 34 51 0 0 0 0 0 0 0 0 0 0 0 0 0 0 0 0 0 0 21 21 34 21 12 21 0 0 0 0 0 0 34 21 21 0 0 0 0 0 0 0 0 0 0 0 0 0 0 0 0 0 0 39 23 28 0 0 0 0 0 0 21 21 34 0 0 0 0 0 0 39 39 46 34 21 21 28 28 46 0 0 0 0 0 0 0 0 0 0 0 0 0 0 0 0 0 0 0 0 0 0 0 0 0 0 0 0 0 0 34 21 21 46 23 23 0 0 0 0 0 0 0 0 0 0 0 0 0 0 0 0 0 0 0 0 0 0 0 0 0 0 0 0 0 0 0 0 0 0 0 0 0 0 0 34 21 21 34 21 21 21 12 21 21 12 21 0 0 0 0 0 0 0 0 0 0 0 0 39 28 39 0 0 0 21 8 12 0 0 0 21 12 21 0 0 0 0 0 0 0 0 0 21 12 21 0 0 0 12 8 21 0 0 0 0 0 0 0 0 0 39 23 35 0 0 0 0 0 0 34 21 21 0 0 0 21 21 34 0 0 0 30 18 34 0 0 0 0 0 0 0 0 0 0 0 0 0 0 0 0 0 0 0 0 0 0 0 0 12 12 34 21 12 21 0 0 0 39 28 39 12 12 34 0 0 0 0 0 0 0 0 0 0 0 0 0 0 0 0 0 0 0 0 0 0 0 0 0 0 0 21 12 21 0 0 0 34 34 34 0 0 0 0 0 0 0 0 0 46 23 23 0 0 0 0 0 0 34 12 12 0 0 0 21 12 21 0 0 0 0 0 0 0 0 0 0 0 0 0 0 0 0 0 0 0 0 0 0 0 0 0 0 0 47 39 43 34 21 21 0 0 0 0 0 0 0 0 0 0 0 0 21 12 21 34 21 21 23 17 39 21 12 21 0 0 0 0 0 0 0 0 0 0 0 0 0 0 0 0 0 0 21 12 21 0 0 0 21 21 34 23 23 46 0 0 0 12 12 34 0 0 0 21 12 21 0 0 0 0 0 0 0 0 0 0 0 0 0 0 0 0 0 0 0 0 0 0 0 0 12 12 34 12 12 34 0 0 0 0 0 0 28 17 28 0 0 0 0 0 0 0 0 0 0 0 0 0 0 0 0 0 0 0 0 0 0 0 0 0 0 0 0 0 0 0 0 0 0 0 0 0 0 0 0 0 0 0 0 0 34 12 12 0 0 0 39 35 39 21 21 34 0 0 0 0 0 0 0 0 0 0 0 0 34 12 12 50 30 34 0 0 0 50 34 43 21 12 21 0 0 0 21 21 34 0 0 0 0 0 0 0 0 0 34 21 21 39 23 28 21 12 21 21 12 21 0 0 0 21 21 34 0 0 0 0 0 0 0 0 0 0 0 0 0 0 0 0 0 0 21 21 34 0 0 0 43 26 34 34 21 21 0 0 0 12 12 34 0 0 0 12 12 34 0 0 0 23 22 39 0 0 0 21 21 34 0 0 0 21 21 34 0 0 0 0 0 0 21 21 34 0 0 0 0 0 0 0 0 0 0 0 0 0 0 0 0 0 0 34 12 12 0 0 0 0 0 0 0 0 0 0 0 0 0 0 0 0 0 0 0 0 0 0 0 0 0 0 0 21 12 21 39 28 39 0 0 0 0 0 0 34 21 21 0 0 0 0 0 0 34 21 21 0 0 0 0 0 0 34 21 21 0 0 0 21 12 21 0 0 0 0 0 0 21 12 21 0 0 0 0 0 0 0 0 0 0 0 0 21 21 34 0 0 0 34 12 12 0 0 0 0 0 0 0 0 0 0 0 0 0 0 0 0 0 0 0 0 0 21 12 21 12 8 21 21 12 21 0 0 0 0 0 0 12 12 34 0 0 0 0 0 0 0 0 0 0 0 0 21 21 34 0 0 0 0 0 0 0 0 0 0 0 0 0 0 0 0 0 0 0 0 0 0 0 0 0 0 0 21 12 21 0 0 0 0 0 0 0 0 0 0 0 0 21 12 21 0 0 0 0 0 0 0 0 0 0 0 0 0 0 0 0 0 0 0 0 0 0 0 0 0 0 0 0 0 0 0 0 0 0 0 0 0 0 0 0 0 0 0 0 0 21 12 21 0 0 0 0 0 0 0 0 0 0 0 0 0 0 0 0 0 0 0 0 0 34 21 21 34 21 21 0 0 0 0 0 0 34 21 21 0 0 0 21 21 34 0 0 0 12 12 34 21 12 21 0 0 0 0 0 0 34 12 12 0 0 0 0 0 0 0 0 0 0 0 0 12 12 34 12 12 34 34 21 21 35 23 39 12 12 34 0 0 0 21 12 21 21 12 21 0 0 0 21 12 21 21 12 21 21 21 34 0 0 0 0 0 0 0 0 0 0 0 0 0 0 0 21 21 34 34 21 21 0 0 0 21 21 34 0 0 0 0 0 0 21 12 21 34 21 21 0 0 0 0 0 0 0 0 0 0 0 0 21 12 21 0 0 0 0 0 0 0 0 0 50 26 30 0 0 0 34 21 21 34 21 21 0 0 0 34 21 21 0 0 0 50 26 30 39 23 28 21 12 21 21 12 21 21 12 21 21 21 34 0 0 0 0 0 0 21 21 34 0 0 0 0 0 0 0 0 0 0 0 0 0 0 0 0 0 0 0 0 0 0 0 0 39 23 28 0 0 0 0 0 0 0 0 0 0 0 0 0 0 0 12 12 34 0 0 0 0 0 0 0 0 0 0 0 0 0 0 0 12 12 34 0 0 0 21 21 34 0 0 0 21 21 34 21 21 34 0 0 0 0 0 0 0 0 0 21 21 34 0 0 0 0 0 0 0 0 0 0 0 0 0 0 0 0 0 0 0 0 0 0 0 0 34 21 21 0 0 0 0 0 0 0 0 0 0 0 0 0 0 0 0 0 0 0 0 0 0 0 0 0 0 0 34 21 21 0 0 0 0 0 0 0 0 0 0 0 0 0 0 0 46 28 28 39 23 28 0 0 0 0 0 0 0 0 0 21 21 34 34 21 21 0 0 0 34 21 21 0 0 0 21 12 21 34 26 43 21 12 21 0 0 0 0 0 0 34 21 21 0 0 0 0 0 0 0 0 0 0 0 0 21 12 21 0 0 0 28 28 46 0 0 0 0 0 0 21 21 34 0 0 0 0 0 0 0 0 0 21 12 21 21 12 21 0 0 0 0 0 0 0 0 0 0 0 0 21 21 34 0 0 0 0 0 0 0 0 0 0 0 0 12 8 21 0 0 0 0 0 0 0 0 0 21 21 34 0 0 0 28 17 28 0 0 0 0 0 0 34 21 21 0 0 0 21 21 34 21 12 21 0 0 0 0 0 0 0 0 0 0 0 0 0 0 0 0 0 0 34 12 12 0 0 0 0 0 0 0 0 0 0 0 0 0 0 0 0 0 0 0 0 0 34 21 21 0 0 0 0 0 0 0 0 0 21 21 34 0 0 0 21 12 21 0 0 0 39 28 39 0 0 0 46 28 28 12 12 34 0 0 0 12 8 21 0 0 0 0 0 0 0 0 0 0 0 0 0 0 0 21 21 34 0 0 0 0 0 0 0 0 0 39 28 39 21 21 34 0 0 0 0 0 0 0 0 0 0 0 0 0 0 0 21 21 34 0 0 0 28 23 39 21 21 34 21 21 34 0 0 0 0 0 0 0 0 0 0 0 0 21 21 34 0 0 0 0 0 0 0 0 0 21 12 21 34 21 21 0 0 0 21 12 21 39 22 23 0 0 0 0 0 0 0 0 0 0 0 0 0 0 0 34 12 12 0 0 0 0 0 0 0 0 0 0 0 0 0 0 0 0 0 0 0 0 0 0 0 0 0 0 0 34 21 21 39 17 23 0 0 0 21 12 21 0 0 0 34 12 12 0 0 0 0 0 0 46 28 28 34 21 21 0 0 0 0 0 0 0 0 0 12 12 34 23 17 39 21 12 21 0 0 0 0 0 0 0 0 0 0 0 0 21 12 21 0 0 0 0 0 0 0 0 0 34 12 12 34 12 12 0 0 0 0 0 0 0 0 0 0 0 0 0 0 0 0 0 0 0 0 0 0 0 0 21 21 34 0 0 0 21 21 34 0 0 0 0 0 0 0 0 0 34 12 12 0 0 0 39 28 39 0 0 0 21 21 34 21 21 34 0 0 0 21 12 21 0 0 0 0 0 0 21 12 21 0 0 0 0 0 0 0 0 0 21 21 34 0 0 0 0 0 0 0 0 0 34 21 21 34 21 21 21 12 21 0 0 0 46 23 23 50 30 34 0 0 0 34 21 21 35 23 39 0 0 0 21 12 21 17 17 46 34 21 21 0 0 0 0 0 0 21 21 34 34 21 21 21 12 21 21 12 21 0 0 0 21 12 21 0 0 0 0 0 0 0 0 0 0 0 0 21 21 34 12 12 34 0 0 0 39 28 39 0 0 0 0 0 0 0 0 0 34 21 21 0 0 0 0 0 0 0 0 0 0 0 0 0 0 0 21 21 34 0 0 0 0 0 0 0 0 0 34 21 21 0 0 0 0 0 0 28 23 39 30 30 56 0 0 0 0 0 0 0 0 0 21 12 21 21 12 21 21 12 21 0 0 0 0 0 0 21 8 12 0 0 0 34 21 21 34 21 21 0 0 0 0 0 0 0 0 0 34 12 12 0 0 0 21 12 21 0 0 0 34 21 21 0 0 0 21 12 21 0 0 0 0 0 0 0 0 0 0 0 0 0 0 0 21 21 34 21 21 34 0 0 0 0 0 0 28 23 39 21 12 21 0 0 0 39 39 46 21 21 34 21 21 34 0 0 0 21 12 21 0 0 0 0 0 0 21 21 34 0 0 0 21 12 21 0 0 0 21 21 34 34 12 12 0 0 0 0 0 0 28 23 39 0 0 0 0 0 0 0 0 0 30 26 50 0 0 0 30 26 50 0 0 0 34 21 21 28 23 39 23 23 46 12 12 34 34 21 21 0 0 0 0 0 0 0 0 0 0 0 0 21 12 21 0 0 0 34 12 12 0 0 0 0 0 0 0 0 0 0 0 0 0 0 0 34 34 34 39 22 23 28 17 28 0 0 0 0 0 0 34 21 21 0 0 0 0 0 0 0 0 0 0 0 0 0 0 0 0 0 0 0 0 0 0 0 0 34 12 12 21 12 21 21 12 21 43 43 56 0 0 0 21 21 34 0 0 0 34 21 21 0 0 0 50 26 30 21 12 21 0 0 0 0 0 0 0 0 0 12 12 34 21 12 21 0 0 0 0 0 0 34 21 21 39 39 46 0 0 0 12 12 34 0 0 0 0 0 0 0 0 0 21 12 21 44 28 46 21 21 34 0 0 0 0 0 0 0 0 0 0 0 0 0 0 0 0 0 0 21 12 21 0 0 0 0 0 0 0 0 0 0 0 0 0 0 0 34 21 21 21 12 21 39 35 39 34 34 34 0 0 0 34 21 21 34 21 21 34 21 21 0 0 0 0 0 0 34 12 12 21 21 34 0 0 0 0 0 0 0 0 0 46 28 28 0 0 0 0 0 0 34 21 21 34 34 34 0 0 0 34 21 21 34 21 21 34 34 34 21 12 21 12 8 21 0 0 0 34 21 21 0 0 0 0 0 0 0 0 0 0 0 0 21 21 34 0 0 0 30 30 56 34 21 21 0 0 0 0 0 0 21 21 34 34 21 21 37 26 50 0 0 0 0 0 0 0 0 0 0 0 0 21 12 21 0 0 0 12 12 34 34 34 34 0 0 0 12 12 34 0 0 0 21 21 34 28 23 39 0 0 0 0 0 0 0 0 0 21 12 21 34 34 34 0 0 0 12 12 34 0 0 0 0 0 0 0 0 0 21 21 34 39 28 39 0 0 0 0 0 0 0 0 0 0 0 0 0 0 0 34 21 21 0 0 0 21 21 34 34 21 21 0 0 0 0 0 0 21 21 34 0 0 0 0 0 0 0 0 0 0 0 0 0 0 0 0 0 0 0 0 0 0 0 0 0 0 0 34 12 12 0 0 0 0 0 0 46 23 23 0 0 0 30 21 43 21 21 34 0 0 0 0 0 0 28 23 39 0 0 0 0 0 0 34 12 12 0 0 0 0 0 0 28 23 39 34 21 21 12 8 21 0 0 0 0 0 0 21 21 34 0 0 0 34 12 12 0 0 0 21 21 34 0 0 0 34 21 21 0 0 0 21 21 34 0 0 0 0 0 0 0 0 0 0 0 0 21 21 34 21 12 21 21 21 34 28 28 46 0 0 0 0 0 0 21 21 34 0 0 0 0 0 0 0 0 0 0 0 0 0 0 0 21 12 21 0 0 0 0 0 0 0 0 0 0 0 0 0 0 0 21 8 12 0 0 0 0 0 0 39 23 28 0 0 0 34 12 12 0 0 0 0 0 0 43 16 21 0 0 0 34 21 21 50 26 30 0 0 0 58 44 46 0 0 0 39 23 28 0 0 0 21 12 21 0 0 0 39 17 23 21 21 34 34 21 21 43 26 34 0 0 0 21 21 34 21 12 21 21 12 21 0 0 0 28 23 39 28 17 28 0 0 0 0 0 0 0 0 0 0 0 0 0 0 0 34 21 21 21 12 21 0 0 0 0 0 0 39 28 39 0 0 0 0 0 0 0 0 0 12 12 34 0 0 0 0 0 0 39 28 39 21 12 21 21 21 34 0 0 0 0 0 0 0 0 0 0 0 0 0 0 0 0 0 0 0 0 0 0 0 0 34 21 21 46 39 39 34 12 12 0 0 0 34 12 12 0 0 0 0 0 0 0 0 0 0 0 0 0 0 0 0 0 0 0 0 0 0 0 0 0 0 0 0 0 0 0 0 0 0 0 0 0 0 0 39 17 23 0 0 0 34 12 12 0 0 0 0 0 0 0 0 0 21 21 34 0 0 0 50 30 40 0 0 0 34 21 21 0 0 0 0 0 0 43 34 50 21 21 34 0 0 0 34 21 21 0 0 0 21 21 34 0 0 0 21 21 34 0 0 0 35 22 28 0 0 0 28 17 28 21 12 21 0 0 0 0 0 0 28 17 28 21 12 21 0 0 0 0 0 0 0 0 0 0 0 0 0 0 0 0 0 0 12 12 34 0 0 0 21 12 21 12 12 34 0 0 0 12 12 34 0 0 0 0 0 0 0 0 0 0 0 0 34 12 12 0 0 0 0 0 0 0 0 0 0 0 0 21 12 21 0 0 0 0 0 0 0 0 0 21 8 12 34 12 12 43 26 40 0 0 0 21 12 21 0 0 0 0 0 0 0 0 0 34 12 12 0 0 0 0 0 0 0 0 0 39 23 35 0 0 0 0 0 0 0 0 0 12 8 21 0 0 0 0 0 0 0 0 0 34 21 21 0 0 0 39 28 39 0 0 0 0 0 0 0 0 0 34 34 34 0 0 0 0 0 0 0 0 0 21 21 34 34 21 21 0 0 0 0 0 0 0 0 0 0 0 0 0 0 0 0 0 0 21 21 34 12 12 34 0 0 0 0 0 0 12 12 34 0 0 0 0 0 0 0 0 0 21 21 34 34 21 21 0 0 0 12 8 21 12 12 34 0 0 0 0 0 0 0 0 0 0 0 0 0 0 0 0 0 0 34 12 12 0 0 0 21 12 21 0 0 0 21 12 21 0 0 0 0 0 0 0 0 0 0 0 0 0 0 0 0 0 0 21 8 12 0 0 0 0 0 0 0 0 0 0 0 0 0 0 0 21 12 21 0 0 0 0 0 0 21 12 21 0 0 0 0 0 0 34 21 21 0 0 0 0 0 0 12 12 34 0 0 0 0 0 0 0 0 0 21 21 34 0 0 0 0 0 0 39 28 39 0 0 0 50 30 34 0 0 0 21 21 34 0 0 0 0 0 0 12 12 34 0 0 0 0 0 0 0 0 0 21 21 34 0 0 0 28 17 28 0 0 0 0 0 0 0 0 0 0 0 0 0 0 0 0 0 0 0 0 0 21 21 34 12 12 34 0 0 0 0 0 0 0 0 0 0 0 0 0 0 0 0 0 0 0 0 0 0 0 0 0 0 0 34 21 21 34 21 21 39 28 39 0 0 0 0 0 0 0 0 0 0 0 0 0 0 0 34 21 21 0 0 0 0 0 0 0 0 0 34 12 12 34 12 12 0 0 0 0 0 0 0 0 0 0 0 0 21 12 21 34 21 21 21 21 34 0 0 0 12 12 34 0 0 0 0 0 0 0 0 0 0 0 0 39 28 39 28 23 39 0 0 0 0 0 0 0 0 0 21 21 34 21 21 34 0 0 0 0 0 0 12 8 21 0 0 0 0 0 0 28 23 39 0 0 0 0 0 0 23 23 46 35 32 58 12 12 34 23 22 39 0 0 0 0 0 0 0 0 0 0 0 0 0 0 0 0 0 0 0 0 0 28 23 39 12 12 34 0 0 0 0 0 0 0 0 0 0 0 0 0 0 0 0 0 0 0 0 0 0 0 0 0 0 0 34 12 12 21 21 34 21 12 21 0 0 0 12 12 34 0 0 0 34 21 21 50 30 34 0 0 0 39 35 39 46 23 23 0 0 0 34 21 21 0 0 0 0 0 0 21 12 21 34 21 21 0 0 0 0 0 0 34 34 34 0 0 0 0 0 0 0 0 0 28 23 39 21 21 34 0 0 0 0 0 0 21 21 34 21 21 34 0 0 0 23 17 39 12 12 34 34 21 21 34 21 21 0 0 0 21 21 34 0 0 0 21 21 34 0 0 0 0 0 0 21 21 34 0 0 0 0 0 0 28 28 46 0 0 0 21 21 34 0 0 0 0 0 0 12 12 34 0 0 0 39 39 46 12 12 34 0 0 0 0 0 0 21 21 34 0 0 0 23 23 46 0 0 0 0 0 0 0 0 0 0 0 0 0 0 0 21 12 21 34 12 12 21 12 21 0 0 0 0 0 0 39 23 28 34 21 21 34 21 21 34 21 21 0 0 0 21 21 34 0 0 0 0 0 0 0 0 0 0 0 0 34 12 12 0 0 0 0 0 0 0 0 0 0 0 0 0 0 0 0 0 0 12 12 34 0 0 0 0 0 0 34 21 21 0 0 0 34 34 34 0 0 0 0 0 0 0 0 0 0 0 0 0 0 0 0 0 0 0 0 0 21 21 34 0 0 0 0 0 0 34 21 21 0 0 0 0 0 0 21 21 34 21 21 34 34 21 21 0 0 0 0 0 0 34 21 21 0 0 0 0 0 0 12 12 34 0 0 0 0 0 0 0 0 0 0 0 0 0 0 0 21 12 21 0 0 0 0 0 0 0 0 0 0 0 0 28 28 46 21 21 34 