P3
64 64
255
91 81 85 73 62 66 90 82 85 101 90 95 97 87 89 84 76 85 73 66 69 73 64 65 95 87 92 78 67 73 88 79 87 103 96 102 90 84 88 87 81 83 94 91 95 107 99 103 100 92 99 99 92 97 88 83 86 87 83 85 89 82 89 90 85 89 93 86 92 103 99 104 86 82 88 104 96 104 99 96 99 90 87 92 90 88 94 92 86 92 93 91 93 94 89 101 91 87 97 78 75 90 84 82 93 80 78 88 97 95 103 87 84 97 91 88 99 81 78 89 94 93 105 72 71 88 91 87 100 80 80 95 83 79 96 74 73 92 86 85 101 93 90 107 84 82 93 90 89 109 93 88 98 83 81 101 88 87 102 88 85 99 80 79 96 81 80 99 79 79 97 69 69 85 83 81 99 80 78 88 74 72 94 78 77 93 69 67 87 54 53 83 75 62 69 66 60 64 79 71 77 82 69 74 69 57 63 87 72 77 92 85 89 85 73 76 86 78 81 97 94 96 100 95 97 73 65 72 99 93 95 93 84 90 75 66 71 91 83 89 88 80 85 95 91 92 93 87 89 94 91 96 87 83 84 99 94 100 88 80 86 94 89 90 91 89 92 92 87 94 87 83 88 80 77 80 96 92 100 79 77 84 92 88 100 87 83 92 96 90 96 94 90 99 79 78 85 91 87 96 92 90 97 77 76 85 101 99 109 83 79 92 85 84 100 78 77 95 95 95 103 95 94 106 89 87 100 95 90 102 90 88 99 91 90 105 90 89 103 85 84 101 82 80 95 96 95 108 86 85 98 102 101 115 88 87 101 92 91 106 84 83 95 95 95 109 80 80 99 86 84 97 90 89 103 75 74 93 66 63 98 58 56 103 68 56 60 71 60 64 81 75 77 75 63 67 93 89 91 98 94 98 89 84 88 82 75 81 101 95 98 105 98 102 89 85 89 85 79 80 89 77 81 91 86 88 112 107 110 84 81 84 111 108 114 98 94 98 115 110 112 115 113 115 104 101 105 110 107 113 113 111 115 103 99 103 98 95 101 116 114 120 110 105 113 87 85 92 104 102 108 95 91 98 96 94 99 96 92 100 106 103 110 112 106 114 102 100 105 107 103 111 115 113 117 105 104 109 90 86 102 101 101 109 89 87 96 108 107 118 107 106 118 89 86 97 87 86 94 84 82 94 112 111 124 106 105 119 98 97 106 103 103 110 89 88 98 112 111 120 102 101 110 104 103 112 80 78 92 82 81 95 104 102 113 108 107 116 97 93 102 100 99 109 102 100 106 82 81 95 56 56 99 50 48 91 73 56 59 95 84 87 88 80 85 85 82 88 89 82 84 94 86 88 86 80 86 87 80 84 99 89 93 99 93 95 89 82 87 101 94 98 105 100 101 109 101 106 106 101 107 80 72 74 107 101 104 105 102 108 96 90 94 110 107 108 103 99 104 104 100 105 101 99 102 94 89 93 114 112 117 110 106 108 120 116 121 100 95 101 85 82 89 94 90 98 110 107 110 96 93 102 92 90 98 94 92 101 110 106 114 98 96 101 91 87 98 90 88 90 86 85 96 102 100 112 112 110 122 102 100 109 77 75 82 94 91 97 111 111 117 101 99 111 102 101 113 84 83 101 103 102 114 96 95 112 102 101 110 106 105 115 99 98 105 110 107 116 111 110 117 106 106 116 85 83 94 92 92 103 97 96 109 99 99 108 105 104 117 93 93 111 54 54 100 42 40 78 66 45 50 82 71 77 82 72 76 90 82 88 78 68 70 100 91 92 89 81 91 94 89 91 97 93 99 77 70 74 100 93 95 108 103 105 93 89 96 109 102 106 97 90 96 94 88 94 99 93 97 110 107 113 98 95 99 110 103 106 111 108 112 92 88 95 113 107 112 113 108 109 116 112 115 123 121 125 100 97 102 106 103 111 106 103 106 111 110 114 99 96 103 102 100 104 104 101 106 108 106 109 107 103 106 95 94 101 93 91 101 100 98 109 97 95 102 124 124 131 125 124 130 94 92 104 112 109 117 100 100 108 104 103 108 100 99 112 103 103 110 110 109 118 100 97 108 100 99 107 103 103 111 97 94 102 103 102 106 97 97 107 96 93 107 102 101 111 103 102 114 95 93 103 99 96 109 86 84 103 104 104 117 82 82 98 56 54 98 56 53 96 66 45 47 68 54 63 97 88 90 79 71 78 100 89 94 87 82 86 98 89 98 87 78 84 93 89 93 91 85 92 100 94 99 91 88 92 103 98 103 89 83 85 101 96 98 109 104 107 115 111 118 110 105 109 115 111 116 107 99 102 105 99 103 94 91 97 97 94 99 94 91 94 111 105 108 100 95 98 113 110 113 125 122 126 91 88 95 94 92 99 108 107 113 91 88 94 116 114 119 101 98 102 94 92 99 94 92 103 95 94 110 105 103 116 120 119 124 95 94 102 120 120 129 101 101 106 117 114 125 103 101 111 104 103 114 90 87 97 93 91 100 93 91 97 101 99 110 89 88 97 94 92 103 116 114 123 102 100 111 109 107 117 91 90 97 119 118 126 125 124 133 100 98 108 96 95 105 109 107 122 91 89 105 104 103 118 51 48 89 52 50 93 79 52 56 88 80 83 99 91 96 104 94 97 95 89 96 95 86 92 92 81 85 85 78 85 89 82 88 97 89 94 100 92 95 94 87 93 102 96 99 111 106 111 98 93 98 117 113 117 95 91 96 114 111 115 92 87 91 100 96 103 109 105 108 106 102 107 96 93 97 100 94 98 106 101 105 99 93 96 80 74 77 87 83 90 91 89 93 98 96 102 89 87 93 92 87 95 80 75 82 76 71 82 99 97 109 88 87 100 106 105 120 118 116 125 106 103 113 109 108 116 108 107 117 115 115 126 108 105 114 98 95 100 91 87 100 107 104 115 97 95 106 106 105 114 102 100 108 81 81 90 86 83 93 112 111 124 85 84 99 98 95 110 113 112 122 94 93 104 105 104 117 80 77 95 98 96 107 98 97 112 103 102 113 92 89 106 56 55 103 48 46 90 76 56 64 88 81 86 79 72 77 86 80 85 87 78 84 90 80 83 92 84 86 95 89 93 84 77 81 96 85 89 85 79 83 110 102 105 94 87 90 100 93 96 85 80 84 94 87 96 98 94 98 101 96 99 108 104 108 101 98 100 91 85 89 113 107 113 89 87 92 101 96 98 99 95 98 98 95 99 83 76 79 78 73 82 83 80 84 73 65 74 68 64 72 68 63 74 90 86 96 77 72 78 78 76 91 78 76 90 68 66 81 93 92 101 110 109 117 124 123 132 119 117 128 105 104 119 96 95 106 110 108 118 103 101 109 97 96 110 103 102 112 93 93 103 109 108 123 100 100 110 96 94 105 91 90 104 88 87 97 93 90 102 83 81 96 101 100 110 94 94 105 95 93 108 108 106 122 83 81 95 96 94 106 86 85 102 51 50 89 58 56 97 82 61 66 90 81 84 99 90 94 93 85 86 86 75 79 96 87 91 72 64 66 95 86 92 93 83 88 88 85 89 103 97 101 107 102 104 88 82 85 104 99 100 99 94 97 103 99 103 94 92 96 91 88 91 87 83 85 81 74 77 94 87 95 94 88 93 91 86 91 80 76 81 81 76 81 73 67 73 79 76 80 79 75 83 74 68 77 68 65 69 69 63 70 87 84 89 82 78 88 76 73 82 78 75 80 78 77 87 75 72 82 74 69 87 79 77 93 84 82 90 98 98 107 109 108 118 93 93 104 104 104 116 102 101 108 88 86 96 110 109 118 96 94 103 106 105 115 101 99 107 87 86 102 115 113 126 96 94 102 89 88 100 103 101 111 96 95 104 108 107 115 103 100 109 95 93 108 95 95 109 96 96 116 91 90 107 61 59 105 50 48 90 77 59 65 94 84 91 93 84 87 93 84 85 77 67 74 89 79 87 94 82 86 93 86 91 98 92 98 96 90 92 84 80 83 95 87 93 101 94 96 121 111 114 97 89 93 103 97 99 102 98 103 85 79 85 124 121 124 107 103 105 88 82 86 77 73 78 84 78 82 80 78 83 101 95 102 88 82 88 85 76 81 74 71 77 76 73 77 87 83 95 84 83 89 77 69 80 96 92 100 81 79 88 78 77 90 66 63 73 75 73 87 71 69 83 65 63 79 75 73 87 99 99 114 104 103 114 90 88 103 88 87 103 110 109 118 106 105 116 101 100 112 107 106 115 88 86 94 97 96 108 92 91 100 84 81 97 99 98 104 85 83 101 125 124 134 100 99 109 95 94 109 117 116 129 98 96 110 97 97 110 99 97 111 95 93 110 55 54 97 59 57 104 78 59 64 92 82 86 87 76 84 70 62 70 78 73 77 92 81 86 93 83 87 83 70 78 91 79 82 89 80 82 104 99 103 105 97 99 109 101 106 97 89 91 78 69 72 105 99 102 103 93 96 101 95 97 110 104 105 95 86 93 92 84 88 87 79 84 101 95 97 87 82 87 81 77 86 82 77 81 77 71 81 91 86 91 88 81 90 96 91 95 89 83 90 65 64 72 87 86 93 77 77 85 77 74 83 65 59 74 83 81 97 75 75 87 75 74 84 72 72 91 87 86 94 85 84 94 73 71 85 77 76 86 94 94 104 115 114 129 79 78 90 96 96 104 111 110 123 88 86 97 109 108 113 106 105 118 106 106 114 106 104 116 96 95 108 101 100 109 92 91 110 95 95 107 97 95 104 94 93 104 86 85 97 106 104 122 61 60 109 55 52 97 79 63 67 82 77 82 91 77 79 92 81 85 78 70 78 93 83 88 92 83 87 87 74 78 85 76 79 94 86 87 115 108 109 111 106 110 86 83 88 97 92 94 94 85 89 92 87 91 96 89 93 128 120 120 109 103 106 95 87 88 71 68 73 99 93 96 95 89 92 92 83 89 92 88 94 91 83 89 108 100 104 101 96 98 84 78 83 74 68 77 93 90 97 83 79 87 72 68 77 79 78 85 72 71 86 79 77 97 76 73 85 74 69 95 77 75 89 65 64 75 71 71 91 73 71 88 60 60 79 79 78 91 112 112 121 98 96 108 89 87 100 112 109 122 126 122 129 86 86 95 84 82 94 104 103 117 94 92 106 103 102 109 98 96 108 91 89 100 94 92 104 92 90 102 102 101 111 96 95 115 77 75 93 85 83 106 57 55 98 58 56 100 82 57 63 83 72 77 82 74 76 88 79 84 101 91 96 86 74 80 95 91 94 105 99 103 78 69 74 106 99 102 121 111 112 100 92 98 92 89 92 100 92 95 103 95 99 110 104 107 114 105 109 104 94 96 94 84 86 93 85 89 97 87 90 106 101 104 106 100 104 101 94 98 113 109 112 92 86 90 85 81 87 97 95 98 100 94 98 83 77 83 77 70 76 95 92 99 89 84 96 69 67 86 83 80 91 60 59 71 88 86 100 71 70 84 72 71 88 68 67 91 77 75 97 76 75 93 60 58 79 72 70 88 88 86 103 93 92 102 98 98 106 94 94 102 97 95 102 90 88 99 89 88 102 96 95 106 92 90 104 87 85 98 87 86 101 90 88 103 98 98 113 93 91 106 96 94 106 93 92 108 82 81 94 88 86 104 45 43 83 51 50 90 91 66 68 96 89 95 90 83 90 86 75 80 99 89 92 95 88 96 84 77 82 94 86 91 96 86 90 81 70 76 92 84 88 123 119 122 106 101 104 115 109 113 103 96 100 98 92 94 108 99 101 77 70 75 98 89 91 89 84 87 91 83 84 112 106 109 108 102 105 105 101 103 128 125 127 115 110 114 107 104 108 92 87 92 91 87 92 108 101 105 128 125 129 123 122 129 103 101 106 77 75 88 81 80 93 74 72 86 78 76 92 73 72 87 57 56 75 66 65 87 80 79 94 62 60 86 74 73 94 67 64 83 72 70 86 93 92 99 99 97 107 99 98 112 103 101 112 95 92 105 89 87 101 93 91 104 91 88 98 102 102 113 101 100 112 99 99 107 87 86 104 94 92 109 96 95 109 111 109 118 89 88 99 100 100 118 53 52 94 53 52 96 86 66 70 80 66 69 99 89 94 86 76 82 84 71 75 100 92 97 89 80 88 90 78 84 101 93 95 107 99 100 108 99 102 119 115 117 112 107 112 116 111 114 104 99 100 136 127 127 94 82 85 97 87 89 106 97 103 107 100 103 109 105 108 121 115 117 116 110 113 101 94 98 125 118 121 121 116 118 96 88 91 99 92 93 95 86 90 117 113 118 87 85 90 141 140 144 113 112 119 121 120 128 113 110 120 86 85 96 66 62 84 77 75 96 75 73 94 77 74 95 68 66 81 76 75 90 76 74 95 57 56 72 60 59 82 71 70 84 90 89 103 98 97 109 80 79 94 102 98 111 99 95 107 98 95 107 102 100 117 103 99 113 94 92 102 86 82 94 84 84 98 109 107 116 107 106 117 85 84 99 82 82 94 89 88 107 55 53 99 63 62 108 87 68 74 67 63 66 91 79 82 96 81 85 80 74 80 96 90 96 106 95 98 87 78 85 95 89 93 105 98 99 105 96 98 100 93 96 122 119 123 126 124 124 114 110 111 94 84 89 111 97 103 84 72 77 99 94 95 112 109 110 127 122 123 123 117 118 124 119 120 126 121 124 125 121 125 99 93 94 106 99 102 108 105 105 128 123 127 143 139 143 129 127 133 138 136 142 107 107 118 113 111 118 113 112 123 118 116 127 92 92 105 64 60 78 73 70 89 78 77 92 62 61 87 84 82 99 59 59 80 71 69 89 52 51 81 87 86 93 89 88 97 105 103 117 104 103 113 93 92 102 94 93 105 90 87 101 102 101 113 101 100 115 94 93 103 99 98 110 86 83 96 88 88 99 100 99 113 89 87 101 98 98 110 94 94 108 52 50 89 56 55 95 76 56 59 89 75 85 103 98 102 83 71 75 84 75 81 94 88 92 82 74 77 93 82 88 93 78 83 100 88 90 94 87 88 94 87 88 122 116 117 86 83 88 108 102 105 92 83 84 97 87 88 95 91 92 122 115 118 127 120 122 128 122 124 133 129 132 129 122 124 114 111 113 108 106 108 123 119 121 112 98 101 134 130 133 109 103 104 118 115 120 129 126 131 107 106 117 126 125 133 116 114 122 116 114 120 134 131 138 104 102 117 91 90 106 85 83 110 64 60 80 81 79 97 75 73 91 79 78 92 63 63 87 64 63 81 47 46 64 87 86 101 106 105 119 96 94 104 98 94 107 100 99 116 98 96 105 111 110 120 99 97 109 101 100 115 83 81 92 83 81 99 95 94 102 104 101 115 95 94 108 99 97 109 103 102 117 60 57 105 62 61 109 69 46 51 98 88 92 78 61 65 99 88 92 70 62 68 88 77 83 96 91 96 107 99 100 95 91 92 84 74 75 100 93 94 119 115 116 113 107 108 109 107 108 110 105 107 86 75 77 102 89 92 123 115 117 143 138 138 130 124 128 134 131 133 114 108 109 120 116 120 124 120 124 138 134 134 129 123 127 125 120 123 122 114 116 119 116 118 111 106 114 100 98 102 123 122 132 145 144 153 138 138 145 107 106 115 117 116 129 110 108 117 80 79 94 60 60 84 64 62 85 71 70 83 66 64 85 52 51 70 78 76 95 61 58 81 69 68 94 69 67 88 89 89 100 105 103 115 94 94 110 118 116 125 89 88 104 99 98 109 96 95 110 85 82 100 108 107 114 88 88 99 94 92 103 102 102 112 102 101 118 84 84 98 91 91 108 48 45 84 52 51 93 73 52 55 85 71 76 91 82 87 96 89 95 86 76 80 89 82 87 98 89 100 99 95 99 78 68 75 112 106 109 105 98 101 87 78 81 95 91 92 109 101 104 111 105 108 103 90 94 117 109 111 114 107 108 117 109 113 140 134 138 136 132 134 131 125 128 116 111 113 127 124 126 124 120 123 126 118 121 130 126 127 124 119 122 108 105 108 85 81 90 93 88 98 103 101 110 120 120 127 129 128 138 95 93 100 119 117 123 106 105 117 91 91 108 75 74 99 70 70 83 90 90 109 79 78 92 72 70 87 61 60 78 67 66 85 51 50 70 65 64 84 77 77 96 109 107 114 111 110 122 102 100 113 103 102 115 97 95 105 98 95 116 98 97 105 108 105 119 81 80 93 106 105 118 97 95 107 112 111 125 104 103 119 89 87 101 54 52 94 44 43 84 85 63 66 83 72 75 100 86 91 90 82 83 83 75 81 73 65 70 98 91 97 91 81 84 94 89 93 87 82 84 103 95 97 99 91 95 102 92 94 94 85 87 92 82 82 113 104 105 122 113 114 128 122 124 138 133 134 138 131 133 122 115 116 118 115 116 123 115 118 95 88 91 110 105 108 122 117 118 132 125 127 114 109 111 123 118 121 94 86 89 101 97 104 122 119 127 111 110 119 120 120 130 105 104 116 128 126 133 111 109 124 84 82 101 70 69 90 91 90 108 82 81 93 93 92 108 73 71 96 65 64 89 65 64 90 67 64 90 58 57 77 100 99 108 108 107 116 98 97 105 96 95 107 94 93 110 94 91 105 79 78 87 102 99 109 110 109 117 100 99 110 114 113 128 98 98 108 100 98 111 79 77 93 98 97 107 55 53 99 41 38 76 69 45 52 76 63 66 70 60 64 78 69 74 96 89 95 103 94 101 109 101 104 90 86 90 82 74 81 99 92 96 99 89 90 99 95 99 97 90 93 85 74 79 98 89 91 106 95 96 126 118 120 125 118 121 113 106 107 111 105 106 121 115 117 93 86 88 113 108 114 100 93 95 110 106 108 97 92 96 114 105 106 115 108 110 103 99 102 96 89 95 102 96 103 127 124 133 103 100 109 140 139 144 126 126 133 99 98 108 88 86 102 74 73 99 79 78 96 88 88 104 83 82 98 87 87 100 82 81 102 79 78 98 72 71 93 69 69 84 72 70 96 90 89 104 88 87 106 108 107 122 93 92 106 108 107 117 90 89 101 102 98 112 102 101 114 90 89 102 72 72 88 86 83 97 98 98 119 79 78 100 101 100 113 94 93 117 52 49 89 60 59 103 89 68 74 82 64 68 91 78 83 87 74 79 91 79 85 103 94 98 101 93 95 81 68 71 91 84 93 103 93 98 100 90 92 108 101 103 94 89 92 106 99 101 103 96 97 100 94 96 141 134 135 135 129 131 120 113 114 123 114 116 127 122 124 116 111 115 117 112 112 105 99 105 120 115 120 120 116 120 99 92 95 104 102 104 106 104 106 113 109 117 113 108 115 106 99 104 93 88 94 112 110 118 123 123 130 109 107 123 84 83 101 96 96 111 103 103 119 72 69 89 80 80 93 81 80 96 74 73 96 77 76 100 59 59 86 59 58 86 71 70 84 103 102 117 95 95 106 97 96 113 84 81 93 94 91 100 102 101 114 109 107 120 95 93 104 88 86 98 104 103 118 111 108 122 96 94 104 102 102 117 100 98 111 97 94 108 61 60 108 49 46 85 62 48 49 76 63 66 76 67 71 81 70 74 84 74 78 88 81 85 73 66 71 94 85 91 80 69 76 109 99 104 85 77 80 90 87 88 97 88 90 113 105 107 101 92 94 99 90 92 126 117 120 109 104 105 123 117 118 124 115 116 111 107 109 111 106 107 103 96 100 100 94 95 99 92 96 101 93 99 116 112 114 100 96 103 93 88 92 105 101 104 106 100 109 97 94 99 116 115 122 106 102 109 123 122 127 112 110 119 104 104 115 97 97 112 121 121 133 103 103 115 103 102 113 62 60 84 80 79 100 79 78 106 76 75 97 65 65 80 61 60 82 105 104 119 90 89 100 102 101 115 91 90 102 90 88 102 98 96 104 91 88 105 94 93 104 93 91 105 94 94 104 103 101 116 85 84 101 99 97 111 95 95 109 85 84 104 60 59 105 66 64 116 82 60 65 81 64 67 91 79 85 96 90 97 94 87 92 85 74 80 105 96 99 81 73 78 96 84 89 102 93 96 101 91 97 99 92 95 101 95 98 114 111 113 102 96 98 91 82 86 123 114 116 127 119 121 117 109 111 115 107 109 117 111 114 99 91 93 87 84 90 116 110 113 94 89 97 91 86 89 97 93 98 90 85 93 91 86 96 100 94 103 101 97 106 102 99 103 102 99 108 122 119 129 120 118 128 127 125 133 120 119 131 108 107 117 95 94 108 97 95 108 98 97 116 86 85 102 76 75 97 77 77 100 66 63 89 72 71 95 79 76 93 102 101 112 107 106 119 92 90 105 98 98 110 84 82 92 91 88 106 98 97 110 97 97 108 107 105 121 98 96 110 104 101 118 112 111 125 109 108 123 103 103 114 97 97 108 59 58 102 62 62 111 91 65 70 67 58 63 87 78 84 80 73 80 102 96 98 100 90 98 102 94 95 110 101 104 85 77 84 109 103 108 97 85 92 102 93 99 104 95 97 110 100 101 107 99 100 99 91 93 108 101 102 130 121 122 118 109 111 103 94 98 113 105 107 101 95 100 101 98 103 95 85 92 121 114 116 119 113 117 91 83 88 102 99 103 98 94 103 95 91 99 104 101 110 111 109 116 107 104 111 111 109 117 90 88 98 123 122 136 117 116 126 102 101 117 114 114 124 92 91 108 100 99 116 90 89 103 76 76 92 81 79 101 64 62 91 66 64 84 99 98 114 81 80 93 97 95 108 98 97 108 104 102 116 97 95 108 96 95 110 105 102 114 105 102 112 90 88 104 108 108 118 102 101 113 102 101 112 107 105 120 97 97 109 79 77 94 53 50 93 60 59 108 68 50 57 75 63 69 90 78 87 100 89 92 91 82 91 93 86 92 98 89 90 103 94 97 88 81 87 96 86 90 97 92 95 101 95 98 93 85 88 95 86 89 106 97 98 120 113 115 107 97 98 118 110 113 106 101 103 105 97 98 101 93 97 111 104 108 95 85 88 102 94 101 112 106 109 105 100 106 87 81 89 103 99 105 104 97 100 89 88 95 97 95 105 94 92 102 105 102 118 113 108 120 120 119 130 121 121 131 122 120 135 105 105 116 105 104 116 99 98 111 94 94 110 90 90 105 75 73 89 72 70 94 67 64 94 72 72 89 95 95 112 99 98 110 106 105 117 84 84 93 105 104 116 110 110 121 92 91 102 96 93 108 98 94 111 89 88 101 107 106 116 83 82 103 80 78 94 104 103 114 97 96 108 100 99 116 56 55 104 60 60 105 71 50 58 66 49 54 76 62 69 82 71 78 99 90 91 76 68 75 100 91 94 90 82 89 90 83 90 101 91 100 111 99 101 102 93 100 102 92 98 86 75 78 85 74 78 97 86 88 95 88 90 105 98 102 115 110 112 105 94 98 111 106 108 113 107 108 103 97 102 91 86 88 101 98 104 92 86 90 87 79 86 91 87 90 100 98 108 87 82 89 91 89 98 90 87 95 106 105 114 101 100 109 114 113 123 118 118 125 111 110 121 117 116 127 125 124 134 104 103 117 80 77 95 80 79 103 71 71 93 79 78 99 72 71 91 104 103 117 104 104 114 99 98 110 109 109 119 92 92 103 99 98 110 97 96 114 96 93 103 97 95 108 96 95 109 94 92 109 113 110 126 103 100 114 101 99 117 88 87 101 88 86 102 88 86 103 60 59 106 56 53 103 91 64 72 76 69 76 92 80 86 102 94 98 84 77 84 86 76 83 86 73 80 105 96 102 94 87 94 96 85 90 102 96 102 109 101 104 109 103 106 90 77 81 96 88 93 95 88 90 93 85 86 108 99 103 113 104 104 124 119 121 103 95 98 128 120 121 104 101 104 90 83 88 96 91 94 102 96 101 98 90 96 103 97 104 95 87 90 101 98 107 105 102 108 91 88 104 122 120 126 100 98 105 108 107 119 124 123 133 123 122 130 119 118 130 115 114 126 110 109 122 83 81 98 83 82 102 71 71 97 62 61 88 65 62 81 83 81 95 96 96 106 100 100 111 101 99 109 106 105 118 102 101 112 84 82 94 98 96 113 108 106 119 104 103 117 98 98 111 88 86 102 104 103 118 98 96 109 103 103 113 109 107 119 94 93 113 63 62 113 51 50 97 85 54 59 90 80 83 82 75 80 104 97 99 84 75 80 90 85 92 103 98 101 80 72 80 115 105 112 93 88 92 107 96 100 107 100 103 89 77 81 111 104 110 91 80 83 100 93 97 109 103 105 95 83 85 129 122 124 131 125 128 129 123 127 102 98 101 110 101 106 78 73 77 105 98 103 97 90 94 112 108 113 78 69 77 93 91 98 114 111 122 108 106 114 112 109 120 107 105 117 124 123 128 114 114 125 120 120 128 132 131 141 122 122 135 99 98 116 102 101 115 74 72 93 76 74 99 65 64 85 59 58 85 71 71 93 64 63 73 79 77 92 95 94 104 76 75 87 117 115 122 92 91 104 94 93 106 87 87 98 79 78 94 97 95 108 95 92 109 119 118 128 113 113 123 96 95 108 105 103 116 93 92 102 107 105 118 56 53 97 63 62 108 73 58 63 90 78 88 84 75 77 96 83 89 89 76 82 87 80 85 68 58 67 94 84 90 97 93 98 96 87 94 92 85 90 96 88 95 100 93 98 100 93 99 113 107 110 107 101 103 83 77 78 114 108 110 91 81 83 104 99 102 113 105 107 121 116 117 113 108 112 108 101 104 104 100 102 104 100 103 95 93 96 122 117 123 107 102 108 77 76 86 106 102 110 109 104 114 114 112 120 107 106 116 127 126 134 119 119 125 133 132 142 119 117 127 108 108 117 111 109 123 79 78 94 67 66 89 64 63 84 57 56 80 50 48 74 74 73 90 95 95 108 99 99 112 85 84 99 83 82 92 71 70 84 87 86 106 55 53 82 77 76 97 104 103 116 91 90 103 65 63 74 105 103 115 94 93 108 93 92 104 99 97 116 105 102 118 59 57 106 56 55 99 64 44 48 97 90 93 98 89 93 92 85 94 95 85 91 85 76 81 91 85 90 84 73 77 101 89 93 89 79 87 109 105 111 107 101 107 98 90 97 97 95 101 95 86 89 97 87 88 90 75 80 108 102 103 111 108 111 97 91 93 91 80 81 88 78 83 107 102 108 123 117 122 108 103 109 114 110 117 113 111 116 113 111 114 98 89 94 103 100 104 101 97 105 108 106 113 103 101 110 100 98 107 113 111 119 127 125 131 104 102 112 93 93 106 95 93 104 78 78 100 104 103 121 63 62 83 59 58 85 68 67 91 62 62 82 89 88 98 99 98 108 88 88 100 90 90 101 121 120 128 92 89 101 91 88 105 71 70 85 76 74 95 91 91 114 90 90 103 97 94 107 98 98 110 104 103 118 84 84 103 106 104 113 81 80 101 59 57 101 57 55 102 85 66 70 78 73 78 96 84 93 88 80 85 88 80 90 71 64 70 105 93 101 94 86 93 93 82 84 111 101 104 95 88 92 107 101 104 111 104 107 89 81 87 95 88 93 108 99 103 81 77 82 106 98 102 104 97 100 105 99 102 96 86 89 98 94 94 113 110 111 126 120 122 107 101 103 100 94 96 112 109 114 97 93 99 113 109 113 97 89 94 103 96 105 106 103 110 136 133 138 129 126 131 127 126 129 97 95 102 111 110 120 117 116 129 110 110 126 80 79 101 93 92 105 72 71 87 60 60 78 61 60 86 67 66 87 71 71 83 88 87 98 105 103 114 105 103 115 128 127 134 106 106 118 116 114 124 80 78 97 74 74 94 78 78 98 88 87 107 108 108 119 93 91 107 92 91 105 105 104 115 102 100 111 97 96 115 61 60 107 55 54 99 75 49 59 70 59 66 86 75 77 88 80 87 90 76 83 97 86 96 104 95 100 98 88 90 96 89 96 102 95 101 110 103 107 104 98 102 110 100 105 104 97 101 98 93 98 101 97 100 104 95 97 84 77 81 100 93 95 100 92 94 94 88 90 88 77 80 107 101 103 101 84 86 122 116 117 119 113 116 115 113 114 130 126 128 134 131 136 138 134 138 121 117 122 125 121 124 136 131 134 114 112 117 114 108 114 104 101 114 89 89 99 96 94 102 101 99 109 90 87 99 94 92 107 82 80 100 74 73 93 60 58 84 55 55 79 59 57 75 98 97 107 126 124 135 104 103 111 94 93 103 111 111 126 126 126 134 95 95 108 59 59 85 89 88 100 101 101 115 101 99 111 95 92 100 92 91 104 83 81 95 93 93 107 107 106 120 48 46 86 36 33 71 85 60 67 105 94 96 75 65 70 95 82 85 87 81 87 95 88 91 91 80 85 105 95 101 91 83 90 94 82 87 97 86 95 96 86 88 92 87 90 96 88 93 106 101 105 91 86 92 112 108 111 81 76 80 108 101 101 102 96 98 100 96 97 100 91 91 98 92 94 118 110 113 112 105 108 129 122 125 123 120 123 126 119 123 124 119 124 116 113 115 124 120 124 122 120 122 110 103 111 105 102 107 129 125 129 120 118 126 104 102 115 111 108 118 103 101 114 61 61 74 79 78 99 63 62 85 76 74 94 67 66 96 80 78 101 96 96 108 114 114 123 118 117 127 108 106 118 107 105 114 95 94 104 100 100 115 80 80 102 63 61 79 104 103 113 85 84 96 97 96 110 84 83 96 96 94 108 100 99 110 93 92 109 89 88 101 53 52 98 59 57 103 83 57 59 92 84 91 89 81 86 99 92 96 90 81 87 92 83 90 86 77 85 96 90 95 94 87 95 97 87 94 80 78 85 117 111 115 91 80 87 103 94 97 92 86 90 114 108 112 92 87 92 92 87 92 91 86 90 107 100 104 79 69 71 120 113 113 116 110 112 115 108 110 136 130 131 118 114 117 107 99 102 122 117 121 111 104 107 109 104 107 115 109 117 98 88 100 97 94 102 102 96 100 121 114 119 120 118 127 121 120 130 119 118 127 126 124 133 117 115 127 84 83 98 71 70 97 69 68 94 76 75 102 84 82 96 91 90 102 115 114 127 89 88 103 90 89 96 83 81 92 113 110 121 101 100 114 57 55 77 60 60 78 93 92 111 78 78 92 69 67 89 99 97 108 106 103 114 90 88 98 116 114 123 89 88 106 51 51 98 50 48 91 69 39 50 70 58 65 86 80 83 94 86 89 92 83 88 96 91 94 92 81 89 100 93 98 104 97 103 88 81 89 93 86 90 99 92 98 100 94 100 95 87 91 96 92 97 88 79 87 112 104 110 82 76 84 122 118 119 94 88 91 105 96 96 109 104 105 100 91 95 118 107 107 120 110 112 110 102 104 107 101 104 121 117 119 110 105 111 96 91 101 108 103 112 114 109 118 106 104 107 128 124 126 98 94 102 109 109 118 109 107 113 121 119 135 125 124 133 122 122 135 92 92 112 61 60 93 71 70 85 67 66 92 85 85 100 87 87 101 110 108 112 70 67 76 100 98 109 104 103 116 108 107 122 96 96 114 60 59 83 96 96 108 105 104 118 107 107 121 86 84 97 97 94 111 84 83 98 96 95 108 87 86 96 98 97 110 61 60 108 56 55 100 71 47 56 64 49 61 92 77 84 91 84 90 92 84 90 98 89 92 84 81 86 91 86 93 96 87 91 99 92 96 70 64 71 87 79 86 90 83 90 97 89 93 103 97 102 109 103 106 109 102 106 96 93 95 112 105 110 96 91 92 99 91 92 113 108 109 96 86 89 116 111 113 104 96 97 102 93 96 102 96 98 106 103 107 104 99 103 94 90 96 101 97 106 107 102 107 112 107 110 94 88 92 103 101 107 98 93 104 103 102 115 121 121 131 140 139 146 118 117 125 92 90 111 68 67 92 69 68 94 66 64 91 74 73 95 94 94 102 97 96 112 99 98 108 89 88 106 97 96 107 121 120 134 81 80 96 81 80 102 87 86 101 83 83 93 97 96 109 93 91 110 97 95 109 95 94 108 110 108 123 98 96 112 89 88 107 46 45 90 57 56 104 89 75 79 84 72 77 89 78 84 99 86 92 78 70 78 97 87 94 101 94 100 97 89 97 111 104 110 95 88 97 89 84 91 91 82 85 95 87 92 77 72 76 102 95 98 112 104 108 114 108 112 94 89 93 107 101 104 100 91 93 98 96 97 98 86 90 99 94 97 90 83 86 138 134 137 104 99 100 90 84 89 87 79 83 120 115 116 119 117 120 117 115 118 119 115 124 122 119 122 109 103 108 105 101 112 119 114 125 114 111 118 122 121 131 126 124 134 120 119 124 102 101 115 59 58 76 58 57 85 69 68 92 63 63 88 97 96 107 81 81 96 95 93 109 101 99 110 99 98 117 90 89 105 68 67 89 99 98 108 89 87 101 112 111 126 91 90 104 97 96 106 94 93 107 93 92 104 108 106 121 104 103 114 77 75 93 52 50 97 54 53 99 82 64 68 68 54 63 92 79 86 74 66 76 80 69 77 90 83 91 85 75 81 85 76 80 88 81 85 97 92 97 106 96 98 97 91 97 103 98 108 104 96 102 107 103 107 103 99 103 89 81 88 90 80 86 93 88 88 108 105 106 111 106 107 93 90 94 95 84 87 87 80 83 118 115 116 118 110 113 121 115 117 109 103 105 114 109 111 123 120 121 107 101 104 122 120 122 114 110 113 98 93 103 124 121 130 93 87 99 124 121 129 116 115 125 132 131 139 149 148 157 96 95 104 81 79 95 61 60 84 59 57 83 74 72 91 99 98 113 85 85 103 108 107 119 97 94 107 116 116 130 80 78 99 103 103 122 100 100 110 88 88 102 98 96 112 97 95 106 103 103 115 90 89 106 97 96 114 98 96 112 92 91 103 90 88 111 46 43 85 52 51 94 77 61 63 73 61 66 81 73 81 80 69 76 64 59 63 86 78 86 89 80 86 84 76 82 87 80 87 87 78 86 114 108 114 99 90 95 89 83 88 110 104 110 95 90 99 101 93 100 91 85 87 115 107 109 116 109 114 109 101 103 101 93 95 89 82 87 107 100 101 102 97 99 129 121 122 118 113 116 104 98 99 112 105 108 123 120 122 125 120 121 103 98 101 109 103 107 112 107 113 100 95 103 109 105 111 122 121 131 86 83 91 117 116 127 119 115 125 124 122 135 118 118 128 103 102 115 70 70 96 57 56 88 69 68 88 84 84 98 91 90 108 97 97 111 109 108 120 78 77 98 100 99 114 103 102 112 101 99 115 93 92 105 96 95 110 93 92 108 88 87 102 86 85 100 91 89 100 100 99 110 114 112 127 97 95 109 56 56 103 55 52 94 80 55 60 81 68 74 100 94 97 81 66 76 80 70 76 85 75 84 100 90 94 92 82 85 88 82 86 87 81 88 93 86 90 95 90 96 97 91 94 101 90 94 97 92 98 105 95 103 101 93 96 114 109 110 97 89 92 105 95 98 98 90 93 106 101 103 103 95 96 102 94 97 123 118 119 125 119 121 110 105 108 96 89 91 88 82 85 112 108 112 107 96 100 104 98 105 85 80 85 106 97 106 104 99 111 106 102 107 109 107 118 115 111 121 101 100 109 123 121 134 120 119 129 90 89 110 67 66 90 70 69 94 57 55 75 83 82 100 90 90 102 88 87 99 109 108 122 83 81 96 98 97 111 86 84 100 98 96 109 89 88 105 81 79 87 85 82 98 94 92 111 88 85 101 113 112 123 103 101 116 75 74 90 85 83 99 60 59 110 49 48 91 85 59 67 95 89 94 91 78 83 89 79 85 83 73 78 92 81 87 88 74 82 75 66 71 79 70 75 109 103 105 92 88 92 93 79 83 86 79 86 91 80 87 105 95 101 99 96 101 113 106 109 95 88 91 102 96 98 99 92 95 106 103 105 95 91 93 92 80 82 120 111 114 134 128 131 116 107 110 111 105 107 116 111 115 112 104 110 121 118 119 99 91 97 96 89 94 88 84 88 94 90 98 108 106 114 89 87 93 114 109 119 112 111 118 93 91 97 125 123 134 116 115 128 85 85 108 73 72 97 64 63 94 78 77 95 77 77 95 72 69 93 60 60 85 82 82 101 85 84 99 95 95 108 101 99 114 86 86 95 86 85 96 93 91 111 101 101 118 95 94 108 94 93 107 103 103 114 95 94 108 108 106 118 98 96 111 52 50 92 58 58 103 63 42 47 107 103 106 92 79 81 95 86 90 104 92 97 93 82 91 95 84 88 103 95 100 84 76 82 89 79 86 95 86 91 95 88 94 87 77 83 103 98 103 95 88 98 99 93 98 101 95 100 88 85 89 109 103 103 100 93 96 99 93 94 95 87 88 96 87 89 111 108 109 127 122 123 113 109 113 116 111 117 112 104 107 94 87 90 94 92 94 104 97 102 98 95 98 112 109 112 110 106 111 100 99 109 105 103 112 107 107 115 112 111 121 111 111 120 121 119 129 114 114 125 89 89 105 81 80 103 76 74 96 75 73 91 71 70 88 60 59 83 51 49 76 59 59 79 72 71 85 107 106 120 95 94 108 92 91 101 87 86 99 101 99 113 78 76 94 96 95 110 94 92 108 85 84 96 90 89 103 95 92 104 89 88 105 47 47 92 53 52 95 85 63 69 66 55 63 86 76 82 86 76 86 79 75 82 89 83 88 78 71 75 96 85 93 98 90 95 100 92 96 95 87 94 104 98 101 94 87 92 113 107 112 99 94 99 105 98 104 104 98 100 87 82 84 94 88 91 100 94 94 95 83 84 93 87 90 113 103 107 117 109 112 107 101 106 114 109 112 124 119 122 107 102 105 104 97 101 102 96 99 97 94 97 93 89 91 71 67 73 93 89 95 115 112 118 135 135 140 103 100 110 105 101 105 102 100 111 122 121 131 111 110 126 103 102 123 76 75 99 94 93 108 97 96 113 77 77 100 62 61 86 49 46 68 52 52 76 71 70 90 62 61 82 72 69 88 98 95 108 76 75 92 109 108 126 97 96 106 99 96 112 96 94 108 89 87 100 111 109 119 88 86 103 97 96 118 56 55 101 44 43 86 67 47 56 80 67 70 91 79 83 89 78 84 93 83 87 85 81 86 86 77 83 92 83 89 92 84 91 107 102 107 106 104 106 98 91 99 99 93 98 104 97 105 105 97 105 110 104 110 94 86 88 104 100 102 92 84 88 111 103 104 98 89 94 106 97 99 116 107 110 100 96 101 110 105 107 119 112 113 88 81 85 121 110 112 101 95 98 101 93 97 82 77 82 99 94 97 90 84 90 94 91 101 113 110 121 129 126 135 81 78 94 112 107 115 102 99 105 120 119 131 116 114 121 89 88 100 67 66 89 84 84 99 99 98 113 82 81 100 57 53 81 57 57 83 66 66 92 75 74 98 80 79 94 96 95 111 101 100 113 91 90 103 76 76 84 92 91 103 113 111 124 99 96 107 93 91 101 97 97 109 85 85 98 101 100 115 55 54 96 53 51 96 77 63 67 89 81 86 84 75 80 82 74 83 85 77 86 90 85 91 93 85 94 100 90 95 91 85 91 88 77 83 83 76 81 84 81 86 85 82 86 92 87 93 85 81 87 98 92 97 99 91 95 92 87 91 100 94 95 97 89 90 90 80 85 113 104 106 118 114 115 104 96 97 103 99 102 110 105 111 84 79 83 99 92 96 97 89 94 98 93 95 91 85 89 103 101 106 88 84 89 110 107 115 102 101 111 81 76 82 103 99 105 108 105 114 107 104 118 134 133 139 108 107 120 95 95 108 90 89 107 119 118 127 95 94 114 89 88 100 67 65 84 64 64 83 55 54 75 53 53 83 76 75 90 94 93 107 102 100 115 92 91 103 93 92 105 81 80 94 100 100 115 102 98 110 97 97 108 91 89 99 93 91 107 85 82 104 59 58 104 46 44 82 87 65 71 69 60 70 79 74 77 76 63 70 89 84 90 101 95 100 82 74 81 103 95 97 89 81 87 85 78 82 82 71 75 102 96 99 105 99 102 79 72 77 98 90 94 96 91 95 90 82 85 97 91 95 97 90 92 97 92 95 135 124 126 121 114 115 122 116 118 102 94 97 113 107 112 110 104 108 93 88 98 109 101 106 112 103 106 105 98 103 83 78 88 90 85 92 98 95 102 101 99 109 100 98 105 113 107 111 112 107 112 90 88 99 104 103 115 122 121 129 117 117 129 95 93 107 119 118 125 128 126 136 128 127 136 97 96 108 88 87 103 62 62 97 64 63 88 60 60 81 67 65 86 84 82 98 71 71 87 98 97 109 87 84 102 92 89 99 96 92 104 81 77 93 87 86 97 104 102 120 97 97 115 85 83 99 43 42 85 58 57 105 81 59 62 84 74 79 77 71 76 88 73 81 95 83 90 97 85 91 97 89 94 83 77 85 87 79 85 90 81 87 92 83 88 84 75 79 79 72 81 96 86 88 99 93 96 100 95 101 105 99 100 96 90 94 103 95 99 90 84 84 127 122 123 132 126 127 129 123 125 133 125 127 105 99 104 81 77 84 105 99 103 101 97 102 102 95 97 91 85 91 100 95 102 104 100 107 105 103 108 120 116 128 96 93 100 105 102 105 111 108 113 87 82 92 116 114 126 112 111 117 106 105 116 95 94 112 104 104 118 112 112 124 115 114 126 112 111 121 90 89 108 73 71 94 84 83 107 54 53 81 57 56 83 79 77 94 102 101 113 101 100 116 97 97 109 97 96 109 81 81 100 96 95 104 100 99 114 102 101 116 93 91 107 105 104 120 61 60 107 52 50 87 72 50 54 85 73 77 65 54 60 99 87 92 77 71 75 83 75 80 87 79 86 93 86 89 105 97 102 86 77 82 104 95 99 98 92 96 100 97 104 99 95 100 99 94 99 98 91 94 91 86 89 114 109 111 103 96 99 105 97 100 125 121 122 115 108 110 117 110 112 96 89 96 93 88 93 87 82 85 93 91 94 105 100 103 101 95 100 104 99 102 115 110 115 101 95 99 94 93 104 116 110 116 96 90 97 92 87 92 91 89 94 104 98 105 99 99 110 120 120 129 100 100 115 110 109 124 93 91 100 119 116 128 114 113 124 102 101 118 101 100 111 79 77 97 64 62 85 60 59 83 44 43 71 77 76 95 90 88 106 83 83 100 83 80 90 79 77 94 99 97 106 97 96 108 90 89 100 106 106 126 110 110 120 78 76 92 43 42 80 58 55 102 80 58 64 77 69 77 77 69 77 88 77 82 89 81 86 86 81 87 88 80 85 95 87 93 84 72 79 82 79 85 100 95 100 104 99 105 92 88 93 98 92 97 100 95 99 91 82 90 96 88 93 97 92 93 103 97 100 111 104 104 131 125 127 113 105 107 100 90 94 93 88 92 112 106 111 93 90 96 105 101 111 106 103 109 97 97 103 117 112 114 94 92 95 94 90 94 115 110 115 92 88 91 114 108 110 104 99 104 91 89 97 119 116 126 117 115 123 117 117 126 105 104 114 115 115 127 116 115 125 118 117 129 133 132 138 133 133 140 95 94 110 83 80 100 68 65 87 62 60 85 57 54 75 88 88 104 106 105 124 92 91 103 98 98 115 104 103 115 105 105 115 96 94 107 86 86 96 86 84 100 104 103 116 86 86 99 38 36 76 49 47 87 67 46 52 76 66 68 86 79 85 81 69 78 76 69 71 80 71 75 105 93 101 90 83 87 92 84 89 88 78 85 91 87 93 95 86 92 108 104 108 101 95 100 97 88 94 96 91 98 87 86 88 112 101 104 103 97 98 98 87 89 141 134 135 126 117 118 120 111 112 126 119 125 95 92 98 118 112 118 96 93 99 97 92 100 108 104 115 111 106 111 99 95 101 116 112 116 99 96 101 99 96 99 103 95 100 91 86 94 120 116 123 109 106 114 102 100 112 133 131 139 101 100 112 106 105 118 95 91 104 126 126 135 112 110 118 125 124 136 111 109 119 84 83 105 67 66 90 60 59 83 62 62 86 79 79 97 99 98 109 88 87 100 82 82 102 89 88 97 92 91 101 85 84 96 99 98 108 86 84 98 92 91 108 102 101 117 56 55 100 63 62 108 73 53 58 72 65 72 90 84 92 89 78 85 92 82 86 100 91 95 95 87 94 78 72 77 104 97 101 88 81 93 100 90 96 81 68 77 94 87 93 98 86 91 108 104 108 109 104 109 91 82 86 108 101 107 88 83 86 93 84 85 120 116 118 120 117 119 107 100 101 104 99 99 101 96 100 89 83 92 109 105 113 111 108 116 114 112 121 94 91 102 93 90 93 111 108 112 94 87 90 103 97 100 94 89 92 99 90 97 111 106 111 100 99 116 115 113 125 121 121 133 102 102 120 109 106 120 118 113 121 115 114 121 118 118 128 132 131 140 107 107 117 73 72 91 83 82 103 58 56 80 64 64 84 85 84 98 86 85 97 100 100 115 98 98 111 94 93 108 88 88 100 92 91 109 86 84 98 89 87 98 81 79 97 87 85 104 56 54 100 55 54 99 72 58 62 91 79 86 90 79 87 80 71 75 80 75 79 86 74 81 91 80 87 88 77 85 87 79 82 96 90 97 88 86 89 90 84 94 100 90 94 95 90 91 99 94 98 104 100 104 101 97 99 103 96 100 92 86 90 78 71 73 118 113 116 112 105 107 125 114 116 103 95 100 104 99 106 99 94 101 104 99 108 116 113 121 121 118 127 108 107 115 101 97 104 96 93 99 114 113 115 125 119 121 94 87 94 104 102 106 98 94 98 100 99 109 111 108 114 121 119 128 98 97 112 99 97 107 90 88 101 106 105 116 100 97 112 123 122 132 126 125 136 95 94 109 74 74 97 42 40 64 48 48 78 105 105 121 81 80 93 97 96 109 76 76 84 80 78 94 85 83 99 99 97 108 80 78 96 101 99 111 78 77 93 78 77 99 47 47 90 57 56 98 79 52 61 85 78 82 77 64 73 59 50 56 88 78 83 80 74 81 75 67 79 83 76 81 85 77 85 85 78 83 89 79 85 86 80 83 84 79 85 90 85 92 99 92 98 100 93 98 96 89 91 86 79 81 97 89 91 97 89 91 134 129 130 120 113 114 113 108 110 110 106 110 116 112 113 95 90 100 118 112 120 109 108 118 113 112 120 126 123 131 108 106 112 110 105 108 115 110 113 123 120 122 101 95 98 104 97 101 91 88 93 103 99 108 111 110 117 98 97 108 98 97 111 106 106 114 100 99 113 105 104 112 118 117 125 116 116 127 93 92 109 99 98 113 65 64 84 54 53 80 79 79 96 92 92 112 93 92 100 91 91 102 77 77 95 79 77 92 87 86 105 84 83 102 100 98 111 85 84 95 81 79 98 92 91 104 56 55 98 46 44 82 89 67 71 71 62 67 84 75 85 78 67 82 100 91 97 86 79 87 79 67 70 97 88 91 98 89 98 93 86 92 84 76 79 82 70 75 95 89 94 100 91 93 82 75 80 101 95 100 91 83 87 105 99 101 98 90 93 91 82 84 126 121 124 106 101 104 125 119 121 101 96 101 91 86 90 104 101 106 102 98 104 110 107 117 109 107 117 111 109 118 116 113 118 112 107 114 109 102 105 125 120 123 102 98 102 115 112 117 97 95 102 107 105 113 121 120 130 121 121 133 90 89 109 91 89 102 100 99 111 110 109 119 124 123 135 123 122 136 99 98 113 91 90 102 61 60 82 52 51 81 51 49 75 82 80 97 93 93 106 100 99 112 93 92 103 94 93 105 93 93 104 86 84 103 86 83 100 87 86 104 84 82 92 87 87 103 51 51 97 51 51 94 66 52 61 82 69 72 85 77 83 74 68 75 87 77 80 79 71 77 80 72 77 86 78 82 84 72 81 70 65 71 79 70 76 97 89 95 98 89 91 108 101 104 85 78 81 90 83 88 84 80 81 80 73 76 94 87 89 89 84 86 116 111 113 100 95 97 110 104 107 123 114 116 94 91 94 102 99 106 110 108 114 102 99 108 97 94 101 127 126 132 122 120 125 110 106 112 116 111 113 120 115 118 102 99 102 95 92 96 107 104 115 119 116 123 123 122 132 93 91 102 77 75 95 104 103 118 109 109 117 91 90 103 113 113 120 119 117 130 120 120 132 85 85 106 65 64 88 38 36 65 48 47 78 77 76 96 66 66 85 74 74 85 90 89 104 81 80 90 80 80 97 84 82 108 90 89 107 91 90 104 77 74 91 91 90 111 44 42 82 44 43 81 68 52 56 69 59 63 85 72 78 83 76 82 81 71 79 81 73 76 89 82 90 86 76 84 84 75 84 79 74 82 85 78 84 85 79 82 84 76 83 93 86 90 89 84 87 89 84 87 88 78 81 75 60 62 84 74 77 95 88 90 85 77 80 115 105 107 106 97 99 116 110 115 122 119 123 106 98 102 91 87 94 105 100 109 99 94 102 107 104 113 127 124 127 119 112 116 114 110 114 120 117 122 109 105 108 118 114 117 106 104 113 121 119 128 114 113 126 100 99 116 100 99 112 95 95 106 110 110 118 117 116 122 115 113 127 102 100 115 96 94 108 64 60 83 78 77 105 49 47 75 69 67 98 60 60 83 60 59 77 80 79 93 74 73 87 87 87 104 88 87 102 82 82 97 102 101 115 91 89 103 71 70 92 77 76 99 48 47 87 47 46 83 62 40 49 77 66 73 55 45 51 94 86 89 75 65 72 73 60 70 80 66 73 85 77 84 81 74 77 75 64 69 99 93 97 91 85 86 82 74 75 97 90 95 96 88 90 85 76 80 88 75 79 106 97 99 103 96 99 100 92 94 87 79 82 82 75 80 106 97 98 97 94 96 106 101 108 111 105 110 118 112 118 101 98 107 125 121 128 123 119 124 102 99 109 123 119 122 124 121 125 136 131 133 117 114 117 102 98 104 96 92 101 104 102 108 122 122 129 104 104 119 81 80 97 105 103 116 91 91 102 97 95 109 124 121 133 98 95 105 85 83 99 67 65 83 74 70 93 54 53 77 54 52 72 82 81 100 58 56 75 62 61 84 55 54 73 75 73 87 75 74 91 79 78 93 86 84 99 77 77 91 96 95 105 82 81 97 41 40 76 54 53 95 70 55 61 71 62 68 77 71 76 77 68 72 67 58 64 78 70 75 86 73 78 82 73 80 81 77 84 76 71 76 80 69 74 93 84 88 85 80 82 93 84 88 82 71 74 99 92 96 122 115 115 88 79 81 102 94 99 70 60 62 94 83 87 107 99 103 91 83 86 112 106 109 108 105 109 110 105 112 127 122 126 107 103 106 92 87 96 103 99 109 120 116 121 109 106 111 105 102 109 116 113 114 116 111 118 124 120 127 107 101 111 129 128 134 97 96 103 85 84 103 80 79 98 87 87 102 96 96 107 101 99 109 87 85 99 89 87 98 92 91 106 82 80 95 79 77 96 68 68 87 69 67 88 70 69 83 77 76 100 51 48 71 55 55 80 69 68 85 82 80 98 84 84 99 86 86 93 75 73 91 87 83 94 76 74 91 52 51 93 39 36 71 60 43 54 87 77 80 59 52 62 72 61 69 76 69 78 72 60 66 65 60 65 94 87 90 79 72 75 77 71 74 87 81 88 85 76 80 75 69 73 90 85 86 83 72 75 80 72 75 99 86 88 105 96 98 74 71 74 99 90 92 100 88 94 107 103 104 118 110 113 116 108 111 107 102 109 119 115 122 118 113 117 117 114 121 115 113 118 107 104 110 107 103 108 91 89 93 119 115 122 119 113 118 122 119 123 114 110 117 121 118 130 105 101 117 105 102 117 81 79 96 75 73 89 85 83 94 101 100 112 115 113 119 96 94 111 86 84 102 99 98 117 110 108 121 81 78 96 70 69 92 66 65 87 66 62 85 70 68 96 59 57 78 51 50 76 62 61 76 88 88 102 87 86 95 71 70 87 76 75 89 73 72 85 83 82 93 43 42 79 53 52 95 60 40 43 69 57 64 76 67 72 85 73 78 70 60 64 73 67 73 79 72 77 88 78 82 83 74 80 85 74 80 100 94 99 96 86 91 95 87 89 86 80 81 79 71 73 98 90 92 108 100 102 90 83 86 98 89 92 99 90 93 118 109 112 118 115 118 104 103 105 127 122 123 124 120 127 111 107 110 106 103 107 108 102 110 117 115 121 99 93 101 124 119 122 116 110 115 93 88 97 104 99 102 91 85 94 100 96 106 91 88 95 100 98 106 80 77 93 78 77 97 87 84 96 98 94 109 89 86 95 96 95 107 120 119 126 102 101 111 103 102 109 101 98 111 90 88 102 78 77 96 66 65 83 71 70 92 53 52 77 62 62 86 50 48 66 69 68 85 68 67 85 81 80 96 74 74 85 72 72 88 89 89 102 58 55 72 44 43 84 44 43 82 64 41 48 84 74 81 74 67 71 81 75 84 68 62 66 75 64 70 77 69 76 70 66 71 59 50 56 64 53 60 74 62 66 78 70 74 82 72 75 78 69 74 78 66 70 98 89 91 98 92 95 96 89 91 111 106 108 107 102 106 95 91 93 93 87 92 111 105 110 130 127 130 100 96 106 100 98 107 115 113 115 117 115 123 112 109 114 105 102 110 119 115 119 106 103 107 118 115 120 124 120 123 119 117 120 95 94 106 121 117 125 114 112 124 89 87 104 88 87 101 80 77 97 84 83 94 99 98 108 118 117 128 114 111 120 124 122 132 87 86 109 92 90 100 115 113 128 87 87 105 70 66 91 67 66 90 88 86 106 54 52 73 59 58 75 72 71 89 74 73 94 65 64 83 73 73 83 73 73 88 84 83 97 73 73 88 44 42 81 37 35 68 77 52 62 86 75 77 56 47 52 84 74 82 81 69 77 70 57 61 75 66 67 68 59 67 81 73 77 91 83 89 79 70 75 87 84 85 68 61 64 77 67 71 86 81 82 71 67 70 69 60 62 68 63 68 107 99 101 101 97 99 94 86 88 98 92 96 108 100 102 99 93 95 102 98 107 84 82 90 92 87 95 87 84 93 90 87 96 111 105 107 101 98 101 110 107 110 115 108 113 127 120 123 95 92 99 116 114 120 112 110 120 106 102 113 106 103 112 94 93 109 81 80 95 111 110 119 83 81 93 102 101 114 90 87 94 97 97 103 76 74 88 87 85 99 83 81 91 103 101 117 72 71 91 64 63 91 74 74 91 70 70 93 79 78 92 74 74 90 74 72 81 79 78 93 68 66 79 88 87 96 75 74 93 77 76 89 47 46 82 44 43 82 59 39 41 78 68 71 61 54 60 79 66 73 73 63 70 72 63 67 81 74 77 67 65 69 81 73 76 72 67 75 71 66 71 68 59 66 72 64 65 67 55 62 64 59 62 71 61 64 53 47 49 63 55 57 70 65 67 61 52 54 67 63 64 78 77 77 95 88 90 91 84 89 100 96 103 88 87 90 85 82 85 98 93 103 101 98 102 101 94 98 97 90 96 95 89 93 102 98 103 103 99 102 113 109 114 120 119 129 107 103 109 108 105 115 99 99 112 87 86 97 75 72 94 89 88 100 90 89 105 97 96 102 98 96 108 88 87 100 76 75 90 104 101 109 87 86 104 93 92 108 65 63 80 64 62 78 67 66 87 49 49 66 63 62 71 72 70 84 71 70 83 61 59 73 75 75 85 80 79 92 78 76 90 70 65 84 54 53 81 41 39 74 