P3
64 64
255
136 99 136 163 99 99 0 0 0 0 0 0 163 136 136 119 72 72 163 136 136 119 119 119 119 119 119 0 0 0 224 163 163 0 0 0 0 0 0 0 0 0 119 72 72 119 72 72 0 0 0 119 119 119 119 119 119 0 0 0 0 0 0 72 72 119 163 99 99 0 0 0 0 0 0 0 0 0 0 0 0 0 0 0 163 136 136 0 0 0 0 0 0 72 72 119 119 72 72 119 72 72 0 0 0 0 0 0 119 72 72 0 0 0 72 72 119 0 0 0 0 0 0 0 0 0 99 99 163 0 0 0 0 0 0 72 72 119 72 72 119 0 0 0 72 72 119 0 0 0 72 72 119 0 0 0 0 0 0 0 0 0 119 119 119 72 72 119 72 72 119 0 0 0 72 72 119 99 99 163 0 0 0 0 0 0 119 119 119 119 119 119 119 72 72 163 99 99 0 0 0 119 72 72 0 0 0 119 72 72 0 0 0 119 72 72 0 0 0 0 0 0 0 0 0 163 136 136 119 119 119 72 72 119 0 0 0 0 0 0 163 136 136 163 99 99 163 163 163 0 0 0 0 0 0 0 0 0 119 72 72 119 119 119 72 72 119 0 0 0 0 0 0 0 0 0 0 0 0 0 0 0 136 136 163 0 0 0 119 72 72 119 72 72 0 0 0 119 72 72 0 0 0 119 72 72 0 0 0 0 0 0 0 0 0 0 0 0 0 0 0 72 72 119 119 72 72 0 0 0 0 0 0 72 72 119 0 0 0 72 72 119 72 72 119 72 72 119 72 72 119 119 119 119 119 119 119 119 119 119 150 150 196 0 0 0 72 72 119 72 72 119 72 72 119 72 72 119 72 72 119 196 196 196 119 72 72 163 163 163 196 196 196 119 119 119 119 119 119 72 72 119 119 72 72 119 72 72 196 196 196 163 136 136 72 72 119 196 175 175 163 136 136 0 0 0 163 163 163 196 150 150 119 119 119 0 0 0 119 72 72 119 119 119 72 72 119 99 99 163 119 119 119 196 196 196 0 0 0 0 0 0 119 119 119 119 119 119 119 119 119 119 119 119 119 119 119 0 0 0 0 0 0 119 119 119 119 72 72 163 163 163 163 163 163 0 0 0 119 72 72 119 119 119 0 0 0 196 196 196 163 163 163 163 163 163 0 0 0 99 99 163 163 136 136 196 175 175 163 163 163 136 136 163 136 136 163 119 119 119 0 0 0 163 136 136 163 163 163 119 119 119 0 0 0 119 119 119 186 186 224 136 136 163 163 163 163 175 175 196 0 0 0 0 0 0 196 175 175 119 72 72 119 72 72 163 163 163 163 136 136 163 163 163 0 0 0 119 119 119 163 136 136 119 119 119 119 119 119 119 119 119 119 119 119 163 136 136 224 186 186 119 119 119 119 119 119 0 0 0 163 163 163 163 136 136 119 119 119 196 196 196 163 136 136 119 72 72 196 196 196 119 119 119 0 0 0 119 119 119 0 0 0 136 99 136 163 136 136 0 0 0 119 119 119 119 119 119 163 136 136 119 119 119 119 119 119 224 206 206 72 72 119 72 72 119 175 150 175 136 136 163 72 72 119 163 163 163 119 119 119 163 163 163 119 119 119 119 119 119 119 119 119 119 119 119 175 175 196 119 119 119 0 0 0 163 163 163 72 72 119 119 119 119 163 163 163 175 175 196 0 0 0 119 119 119 72 72 119 136 136 163 0 0 0 0 0 0 119 119 119 196 175 175 196 175 175 196 150 150 163 136 136 119 119 119 119 119 119 0 0 0 119 119 119 119 72 72 196 150 150 163 136 136 196 196 196 163 136 136 119 119 119 163 163 163 196 196 196 196 150 150 119 119 119 136 136 163 0 0 0 196 175 175 119 72 72 136 136 163 0 0 0 119 72 72 119 119 119 0 0 0 119 72 72 136 136 163 119 119 119 0 0 0 119 119 119 119 72 72 0 0 0 119 72 72 0 0 0 119 72 72 72 72 119 0 0 0 0 0 0 175 175 196 136 136 163 119 119 119 163 163 163 119 119 119 0 0 0 136 136 163 72 72 119 119 119 119 72 72 119 119 119 119 119 119 119 0 0 0 99 99 163 119 119 119 175 175 196 136 136 163 0 0 0 163 163 163 175 150 175 0 0 0 0 0 0 0 0 0 0 0 0 0 0 0 163 136 136 0 0 0 119 119 119 163 136 136 119 72 72 163 163 163 0 0 0 163 99 99 196 150 150 0 0 0 0 0 0 119 72 72 136 136 163 0 0 0 119 119 119 119 119 119 0 0 0 163 136 136 119 119 119 163 163 163 0 0 0 136 99 136 119 72 72 0 0 0 0 0 0 0 0 0 119 119 119 163 163 163 196 196 196 119 72 72 0 0 0 196 175 175 224 186 186 0 0 0 72 72 119 119 72 72 119 72 72 119 119 119 0 0 0 0 0 0 119 119 119 0 0 0 72 72 119 163 163 163 119 119 119 72 72 119 136 136 163 0 0 0 119 119 119 136 99 136 119 119 119 99 99 163 136 136 163 136 136 163 136 136 163 119 119 119 119 119 196 72 72 119 72 72 119 0 0 0 0 0 0 119 72 72 0 0 0 136 99 136 119 119 119 119 119 119 196 150 150 119 72 72 175 175 196 119 72 72 136 99 136 0 0 0 163 99 99 136 136 163 0 0 0 0 0 0 119 72 72 163 136 136 119 72 72 0 0 0 119 119 119 119 72 72 163 163 163 163 136 136 119 119 119 0 0 0 119 72 72 163 136 136 0 0 0 119 119 119 163 136 136 196 175 175 119 119 119 163 163 163 163 163 163 0 0 0 163 163 163 136 136 163 0 0 0 119 119 119 0 0 0 72 72 119 72 72 119 99 99 163 0 0 0 0 0 0 72 72 119 72 72 119 136 136 163 119 119 119 0 0 0 0 0 0 72 72 119 119 119 119 72 72 119 0 0 0 136 136 163 175 175 196 196 175 175 196 196 196 175 175 196 72 72 119 119 119 119 99 99 163 119 119 119 119 119 119 119 119 119 119 119 119 196 150 150 224 186 186 119 119 119 119 119 119 136 136 163 163 136 136 163 163 163 119 119 119 163 99 99 163 136 136 119 119 119 119 119 119 163 136 136 136 136 163 0 0 0 119 119 119 163 136 136 163 136 136 136 99 136 119 72 72 0 0 0 0 0 0 0 0 0 163 99 99 163 136 136 0 0 0 0 0 0 119 119 119 119 119 119 0 0 0 119 119 119 119 119 119 119 119 119 0 0 0 136 136 163 175 175 196 163 163 163 119 119 119 119 72 72 72 72 119 119 119 119 136 136 163 0 0 0 119 119 119 0 0 0 119 119 119 0 0 0 72 72 119 0 0 0 136 136 163 163 163 163 136 136 163 119 119 119 163 136 136 72 72 119 175 175 196 163 163 163 119 119 119 99 99 163 136 136 163 0 0 0 119 119 119 0 0 0 0 0 0 163 136 136 0 0 0 0 0 0 163 136 136 119 119 119 0 0 0 119 119 119 163 99 99 0 0 0 0 0 0 0 0 0 119 72 72 163 163 163 0 0 0 163 163 163 119 119 119 119 119 119 196 175 175 119 119 119 196 175 175 196 175 175 119 119 119 0 0 0 119 119 119 163 163 163 163 163 163 119 72 72 163 163 163 163 163 163 163 163 163 196 196 196 0 0 0 119 119 119 163 163 163 72 72 119 119 119 119 119 119 119 72 72 119 119 119 119 99 99 163 150 150 196 163 163 163 163 163 163 72 72 119 119 119 119 72 72 119 175 175 196 163 163 163 72 72 119 0 0 0 99 99 163 119 119 119 72 72 119 206 206 224 72 72 119 72 72 119 163 163 163 119 119 119 0 0 0 136 136 163 163 163 163 0 0 0 119 119 119 136 99 136 119 72 72 72 72 119 163 163 163 119 119 119 119 119 119 119 72 72 119 72 72 163 136 136 196 150 150 163 99 99 0 0 0 119 119 119 0 0 0 0 0 0 0 0 0 119 119 119 163 163 163 163 163 163 119 72 72 163 136 136 196 196 196 163 163 163 163 163 163 119 119 119 119 119 119 119 72 72 163 136 136 163 136 136 119 119 119 119 119 119 163 163 163 196 196 196 119 119 119 136 136 163 163 163 163 72 72 119 119 119 119 0 0 0 72 72 119 119 119 119 0 0 0 119 119 119 136 136 163 72 72 119 119 119 119 0 0 0 150 150 196 72 72 119 0 0 0 136 136 163 136 136 163 196 196 196 0 0 0 72 72 119 119 119 119 72 72 119 0 0 0 119 119 119 119 119 119 136 136 163 0 0 0 163 163 163 0 0 0 119 119 119 119 72 72 163 99 99 0 0 0 163 136 136 163 136 136 119 119 119 163 136 136 119 72 72 0 0 0 119 119 119 119 72 72 0 0 0 0 0 0 119 119 119 163 136 136 72 72 119 119 119 119 163 136 136 119 119 119 119 119 119 0 0 0 163 163 163 119 119 119 119 119 119 163 163 163 196 196 196 119 119 119 163 99 99 119 72 72 119 119 119 163 163 163 119 119 119 196 196 196 119 119 119 119 119 119 119 119 119 99 99 163 136 136 163 72 72 119 99 99 163 119 119 196 99 99 163 119 119 119 136 136 163 119 119 119 119 119 119 0 0 0 119 119 119 163 163 163 119 119 119 72 72 119 99 99 163 119 119 119 119 119 119 119 119 119 99 99 163 99 99 163 136 136 163 0 0 0 0 0 0 119 119 119 0 0 0 99 99 163 163 99 99 163 136 136 0 0 0 119 72 72 196 150 150 163 136 136 150 119 175 119 72 72 163 136 136 0 0 0 163 136 136 119 119 119 119 119 119 119 119 119 0 0 0 0 0 0 224 186 186 119 119 119 0 0 0 119 119 119 119 119 119 0 0 0 196 196 196 119 119 119 163 163 163 119 119 119 0 0 0 119 119 119 163 163 163 119 119 119 163 136 136 163 163 163 119 119 119 119 119 119 163 163 163 119 119 119 163 163 163 163 163 163 119 119 119 119 119 119 119 119 119 119 119 119 99 99 163 72 72 119 0 0 0 0 0 0 163 163 163 119 119 119 119 119 119 0 0 0 119 119 119 119 119 119 0 0 0 72 72 119 72 72 119 163 163 163 150 150 196 163 163 163 119 119 119 99 99 163 163 136 136 119 119 119 163 163 163 0 0 0 119 119 119 119 72 72 0 0 0 136 99 136 163 99 99 163 99 99 72 72 119 196 196 196 163 136 136 119 72 72 163 136 136 119 119 119 0 0 0 163 136 136 0 0 0 163 136 136 163 163 163 119 119 119 119 119 119 0 0 0 196 175 175 163 99 99 0 0 0 163 163 163 224 163 163 163 99 99 163 136 136 163 99 99 119 119 119 119 119 119 119 72 72 163 163 163 136 136 163 175 150 175 0 0 0 119 119 119 0 0 0 119 119 119 119 119 119 119 119 119 119 119 119 224 224 224 0 0 0 99 99 163 119 119 119 196 196 196 99 99 163 136 136 163 119 119 119 72 72 119 136 136 163 0 0 0 136 136 163 136 99 136 136 99 136 72 72 119 0 0 0 72 72 119 119 72 72 119 119 196 72 72 119 72 72 119 0 0 0 119 72 72 119 72 72 0 0 0 119 119 119 119 119 119 0 0 0 163 136 136 119 72 72 163 136 136 0 0 0 196 119 119 0 0 0 0 0 0 119 119 119 0 0 0 0 0 0 163 136 136 119 119 119 0 0 0 196 175 175 163 163 163 163 163 163 0 0 0 119 119 119 0 0 0 119 119 119 163 163 163 163 136 136 0 0 0 119 119 119 175 175 196 119 119 119 0 0 0 163 136 136 0 0 0 136 136 163 175 150 175 0 0 0 136 136 163 119 119 119 119 119 119 119 119 119 119 119 119 119 119 119 119 119 119 0 0 0 136 136 163 163 163 163 119 119 119 119 119 119 72 72 119 163 163 163 0 0 0 119 119 119 72 72 119 72 72 119 150 150 196 72 72 119 119 119 119 72 72 119 72 72 119 119 119 119 119 119 119 119 72 72 0 0 0 0 0 0 0 0 0 163 136 136 119 72 72 0 0 0 196 175 175 196 175 175 163 136 136 163 136 136 119 119 119 0 0 0 196 150 150 163 163 163 0 0 0 119 72 72 119 119 119 163 163 163 0 0 0 163 163 163 119 119 119 119 119 119 224 206 206 72 72 119 119 72 72 163 136 136 0 0 0 163 136 136 119 72 72 0 0 0 119 72 72 0 0 0 163 99 99 163 163 163 0 0 0 136 99 136 175 175 196 99 99 163 99 99 163 163 163 163 119 119 119 0 0 0 163 163 163 175 175 196 119 119 119 136 136 163 196 196 196 0 0 0 150 150 196 163 163 163 136 99 136 119 119 119 136 136 163 119 119 196 0 0 0 0 0 0 72 72 119 0 0 0 72 72 119 119 119 119 136 99 136 119 119 196 99 99 163 119 119 119 72 72 119 0 0 0 163 99 99 163 136 136 119 119 119 119 72 72 0 0 0 0 0 0 0 0 0 72 72 119 119 72 72 0 0 0 119 72 72 119 119 119 196 150 150 119 72 72 0 0 0 196 119 119 119 119 119 0 0 0 72 72 119 0 0 0 119 119 119 0 0 0 119 119 119 119 72 72 163 136 136 119 72 72 163 99 99 72 72 119 136 136 163 0 0 0 136 99 136 119 72 72 0 0 0 119 119 119 175 175 196 136 136 163 206 206 224 0 0 0 136 136 163 163 163 163 72 72 119 0 0 0 0 0 0 136 136 163 0 0 0 0 0 0 196 196 196 175 175 196 72 72 119 119 119 119 72 72 119 0 0 0 0 0 0 136 136 163 119 119 119 99 99 163 163 163 163 119 119 196 72 72 119 72 72 119 119 119 119 119 72 72 163 163 163 0 0 0 0 0 0 119 72 72 136 136 163 163 99 99 163 136 136 196 150 150 196 150 150 119 119 119 0 0 0 0 0 0 119 72 72 163 99 99 119 72 72 119 119 119 119 72 72 196 196 196 119 72 72 119 72 72 119 119 119 119 119 119 119 119 119 119 119 119 119 72 72 119 119 119 0 0 0 119 119 119 163 99 99 119 119 119 0 0 0 119 119 119 163 136 136 163 99 99 196 175 175 119 119 119 72 72 119 72 72 119 119 119 119 163 163 163 0 0 0 72 72 119 0 0 0 72 72 119 72 72 119 0 0 0 0 0 0 136 136 163 0 0 0 136 136 163 0 0 0 72 72 119 206 186 206 196 196 196 0 0 0 0 0 0 72 72 119 99 99 163 163 163 163 72 72 119 119 119 196 72 72 119 0 0 0 0 0 0 119 119 119 163 163 163 119 72 72 119 72 72 163 163 163 163 99 99 0 0 0 119 119 119 72 72 119 119 72 72 119 119 119 119 119 119 119 72 72 119 72 72 196 119 119 163 163 163 119 72 72 196 119 119 163 99 99 119 119 119 0 0 0 119 72 72 0 0 0 0 0 0 0 0 0 163 136 136 0 0 0 163 99 99 0 0 0 119 119 119 136 99 136 119 119 119 0 0 0 119 72 72 119 119 119 196 175 175 163 136 136 119 119 119 99 99 163 0 0 0 119 119 196 136 136 163 0 0 0 206 206 224 72 72 119 119 119 119 175 175 196 119 119 119 136 136 163 119 119 119 99 99 163 119 119 119 119 119 119 136 136 163 175 175 196 99 99 163 0 0 0 119 119 119 72 72 119 119 119 196 72 72 119 119 119 119 119 119 119 119 72 72 72 72 119 119 72 72 163 136 136 119 72 72 163 136 136 0 0 0 0 0 0 136 99 136 163 99 99 119 119 119 163 136 136 0 0 0 0 0 0 119 72 72 119 119 119 163 99 99 119 72 72 0 0 0 0 0 0 0 0 0 163 99 99 119 119 119 119 119 119 136 136 163 119 119 119 119 72 72 0 0 0 119 72 72 119 119 119 0 0 0 0 0 0 0 0 0 0 0 0 163 136 136 0 0 0 163 136 136 150 119 175 72 72 119 0 0 0 72 72 119 119 119 196 0 0 0 72 72 119 99 99 163 136 136 163 163 163 163 163 163 163 72 72 119 119 119 119 119 119 119 119 119 119 0 0 0 0 0 0 72 72 119 136 136 163 119 119 119 0 0 0 150 119 175 136 136 163 0 0 0 150 150 196 136 136 163 0 0 0 119 119 119 0 0 0 163 99 99 119 119 119 0 0 0 0 0 0 0 0 0 196 150 150 119 119 119 119 72 72 0 0 0 119 72 72 0 0 0 119 72 72 0 0 0 0 0 0 0 0 0 119 72 72 196 119 119 119 72 72 119 119 119 163 136 136 0 0 0 119 119 119 119 119 119 0 0 0 0 0 0 119 119 119 119 72 72 0 0 0 119 72 72 0 0 0 163 99 99 163 136 136 119 72 72 0 0 0 0 0 0 0 0 0 119 119 119 99 99 163 0 0 0 72 72 119 99 99 163 72 72 119 99 99 163 119 119 119 0 0 0 0 0 0 119 119 119 150 150 196 163 163 163 163 163 163 0 0 0 99 99 163 119 119 119 119 119 196 0 0 0 119 119 119 99 99 163 0 0 0 163 163 163 136 136 163 136 136 163 0 0 0 0 0 0 72 72 119 119 119 119 119 119 119 136 136 163 163 99 99 163 163 163 0 0 0 119 72 72 163 99 99 119 119 119 0 0 0 119 119 119 0 0 0 196 175 175 163 99 99 0 0 0 119 72 72 196 119 119 119 72 72 119 72 72 0 0 0 119 119 119 0 0 0 0 0 0 119 72 72 163 136 136 119 119 119 119 119 119 0 0 0 163 99 99 119 72 72 196 150 150 163 136 136 0 0 0 119 119 119 196 175 175 72 72 119 0 0 0 136 136 163 72 72 119 0 0 0 99 99 163 163 163 163 99 99 163 72 72 119 136 136 163 99 99 163 119 119 119 0 0 0 72 72 119 72 72 119 72 72 119 72 72 119 72 72 119 136 136 163 72 72 119 119 119 119 119 119 119 72 72 119 136 136 163 136 136 163 0 0 0 0 0 0 0 0 0 196 175 175 119 72 72 206 163 186 0 0 0 163 163 163 119 72 72 119 119 119 163 99 99 196 150 150 0 0 0 119 72 72 0 0 0 119 72 72 163 136 136 0 0 0 163 99 99 196 119 119 119 72 72 0 0 0 119 119 119 175 150 175 0 0 0 119 119 119 0 0 0 0 0 0 0 0 0 0 0 0 163 163 163 0 0 0 119 119 119 0 0 0 163 99 99 0 0 0 119 119 119 119 72 72 119 72 72 150 119 175 163 99 99 0 0 0 119 119 119 119 119 119 99 99 163 99 99 163 72 72 119 99 99 163 72 72 119 119 119 119 0 0 0 119 119 119 0 0 0 119 119 119 72 72 119 72 72 119 72 72 119 119 119 119 72 72 119 99 99 163 72 72 119 72 72 119 163 163 163 72 72 119 72 72 119 0 0 0 0 0 0 0 0 0 0 0 0 163 136 136 196 119 119 163 163 163 196 175 175 119 72 72 0 0 0 0 0 0 119 72 72 0 0 0 196 119 119 163 136 136 119 72 72 119 72 72 0 0 0 0 0 0 196 150 150 163 136 136 163 99 99 119 119 119 119 72 72 119 119 119 175 175 196 0 0 0 163 163 163 119 119 119 119 119 119 163 136 136 119 119 119 0 0 0 0 0 0 163 163 163 119 119 119 119 119 119 72 72 119 72 72 119 175 175 196 0 0 0 0 0 0 72 72 119 99 99 163 72 72 119 72 72 119 99 99 163 99 99 163 72 72 119 72 72 119 0 0 0 0 0 0 163 163 163 99 99 163 175 175 196 72 72 119 163 136 136 119 119 196 72 72 119 0 0 0 0 0 0 119 119 119 119 72 72 119 119 119 72 72 119 0 0 0 0 0 0 163 136 136 196 150 150 163 136 136 119 119 119 119 72 72 0 0 0 0 0 0 163 99 99 119 119 119 0 0 0 163 99 99 163 136 136 119 119 119 119 72 72 119 72 72 119 72 72 119 72 72 0 0 0 119 72 72 163 163 163 119 119 119 163 163 163 163 163 163 119 119 119 163 163 163 119 119 119 163 163 163 175 175 196 0 0 0 163 99 99 119 72 72 119 119 119 0 0 0 224 186 186 72 72 119 175 150 175 72 72 119 119 119 119 0 0 0 72 72 119 0 0 0 150 150 196 72 72 119 119 119 196 99 99 163 72 72 119 136 136 163 163 163 163 72 72 119 72 72 119 0 0 0 119 119 119 150 150 196 119 119 119 119 119 119 119 119 119 72 72 119 119 119 119 99 99 163 99 99 163 136 136 163 0 0 0 0 0 0 163 136 136 119 72 72 163 136 136 119 72 72 119 119 119 196 150 150 163 136 136 163 136 136 119 72 72 163 136 136 0 0 0 0 0 0 163 99 99 163 136 136 0 0 0 119 119 119 119 72 72 163 99 99 196 119 119 196 150 150 196 150 150 163 163 163 163 163 163 119 119 119 0 0 0 0 0 0 0 0 0 119 119 119 119 72 72 119 119 119 119 119 119 196 196 196 163 136 136 0 0 0 0 0 0 119 72 72 136 136 163 0 0 0 0 0 0 99 99 163 119 119 119 0 0 0 119 119 119 72 72 119 0 0 0 72 72 119 0 0 0 72 72 119 72 72 119 0 0 0 0 0 0 99 99 163 0 0 0 0 0 0 72 72 119 72 72 119 0 0 0 136 136 163 119 119 119 119 119 196 72 72 119 72 72 119 119 119 119 119 119 119 0 0 0 119 119 119 119 72 72 163 99 99 0 0 0 0 0 0 163 136 136 0 0 0 0 0 0 196 150 150 0 0 0 119 72 72 119 72 72 119 72 72 119 119 119 119 119 119 119 72 72 196 119 119 163 99 99 0 0 0 119 72 72 0 0 0 175 175 196 163 163 163 0 0 0 0 0 0 119 119 119 163 99 99 163 136 136 196 150 150 119 72 72 119 72 72 163 163 163 163 136 136 163 136 136 119 119 119 0 0 0 72 72 119 0 0 0 72 72 119 72 72 119 136 136 163 72 72 119 72 72 119 72 72 119 0 0 0 99 99 163 99 99 163 72 72 119 0 0 0 136 136 163 99 99 163 0 0 0 119 119 119 136 136 163 163 136 136 0 0 0 119 119 119 119 119 119 72 72 119 119 72 72 72 72 119 119 119 119 163 163 163 72 72 119 0 0 0 163 99 99 196 175 175 163 136 136 119 119 119 0 0 0 119 72 72 0 0 0 0 0 0 163 136 136 0 0 0 119 72 72 163 99 99 163 99 99 163 136 136 163 136 136 163 136 136 119 72 72 163 163 163 196 119 119 119 72 72 136 99 136 136 136 163 175 175 196 119 72 72 0 0 0 119 119 119 0 0 0 119 119 119 119 119 119 0 0 0 119 119 119 119 119 119 163 99 99 136 136 163 72 72 119 0 0 0 0 0 0 119 119 119 0 0 0 99 99 163 99 99 163 136 136 163 72 72 119 72 72 119 0 0 0 72 72 119 0 0 0 0 0 0 119 119 119 119 119 119 175 175 196 72 72 119 119 119 119 72 72 119 119 119 119 0 0 0 119 119 119 136 136 163 72 72 119 72 72 119 0 0 0 0 0 0 119 119 119 119 72 72 0 0 0 119 119 119 119 72 72 196 150 150 163 99 99 0 0 0 119 72 72 119 72 72 0 0 0 119 119 119 119 72 72 196 175 175 163 136 136 0 0 0 119 72 72 0 0 0 119 72 72 0 0 0 0 0 0 163 99 99 0 0 0 119 119 119 119 72 72 119 119 119 0 0 0 119 119 119 119 119 119 119 119 119 119 119 119 119 119 119 196 175 175 119 119 119 119 72 72 136 136 163 119 119 119 163 163 163 0 0 0 119 119 119 72 72 119 0 0 0 99 99 163 119 119 119 0 0 0 0 0 0 0 0 0 136 136 163 0 0 0 72 72 119 0 0 0 0 0 0 136 136 163 72 72 119 72 72 119 136 136 163 119 119 196 150 150 196 136 136 163 119 119 119 72 72 119 72 72 119 0 0 0 0 0 0 119 119 119 0 0 0 196 150 150 196 150 150 119 72 72 196 175 175 119 72 72 0 0 0 119 72 72 119 72 72 119 72 72 119 119 119 196 119 119 163 99 99 119 72 72 119 72 72 0 0 0 119 72 72 0 0 0 119 72 72 0 0 0 0 0 0 163 136 136 163 99 99 196 175 175 119 72 72 119 119 119 72 72 119 163 136 136 119 119 119 0 0 0 136 136 163 163 136 136 119 72 72 119 119 119 119 119 119 0 0 0 0 0 0 0 0 0 150 150 196 99 99 163 99 99 163 99 99 163 72 72 119 72 72 119 0 0 0 0 0 0 0 0 0 0 0 0 163 163 163 0 0 0 0 0 0 119 119 119 136 136 163 0 0 0 0 0 0 72 72 119 119 119 119 0 0 0 163 163 163 119 119 119 72 72 119 0 0 0 119 72 72 72 72 119 0 0 0 163 99 99 119 119 119 119 72 72 0 0 0 196 150 150 224 136 136 196 119 119 163 99 99 163 136 136 119 72 72 119 119 119 0 0 0 0 0 0 0 0 0 163 163 163 119 119 119 0 0 0 0 0 0 119 72 72 119 72 72 119 72 72 72 72 119 0 0 0 163 136 136 0 0 0 196 175 175 163 136 136 72 72 119 136 136 163 99 99 163 136 99 136 0 0 0 119 119 119 119 119 119 72 72 119 0 0 0 119 119 119 163 163 163 72 72 119 119 119 196 72 72 119 72 72 119 0 0 0 99 99 163 0 0 0 0 0 0 0 0 0 0 0 0 119 119 119 72 72 119 0 0 0 0 0 0 136 136 163 99 99 163 0 0 0 99 99 163 136 136 163 119 119 119 0 0 0 72 72 119 99 99 163 0 0 0 119 119 119 0 0 0 196 150 150 119 72 72 0 0 0 119 119 119 163 136 136 196 175 175 119 119 119 119 72 72 0 0 0 119 119 119 119 119 119 119 72 72 196 175 175 119 72 72 0 0 0 119 72 72 119 72 72 0 0 0 119 72 72 119 72 72 119 72 72 0 0 0 119 72 72 0 0 0 163 99 99 0 0 0 119 119 119 0 0 0 119 119 119 119 119 119 175 175 196 72 72 119 136 99 136 136 136 163 0 0 0 175 150 175 0 0 0 163 163 163 163 163 163 72 72 119 72 72 119 119 119 196 0 0 0 0 0 0 0 0 0 119 119 119 72 72 119 99 99 163 163 163 163 72 72 119 150 150 196 150 150 196 72 72 119 175 175 196 0 0 0 0 0 0 72 72 119 119 119 196 150 119 175 72 72 119 119 119 119 0 0 0 119 72 72 0 0 0 163 163 163 119 119 119 163 136 136 0 0 0 163 136 136 0 0 0 119 72 72 163 136 136 119 119 119 119 72 72 119 119 119 119 72 72 119 72 72 119 119 119 119 119 119 119 72 72 163 163 163 0 0 0 0 0 0 0 0 0 163 136 136 0 0 0 163 99 99 119 72 72 163 136 136 0 0 0 119 72 72 163 163 163 99 99 163 119 72 72 119 119 119 72 72 119 0 0 0 0 0 0 163 136 136 163 163 163 119 119 119 163 163 163 0 0 0 136 136 163 99 99 163 136 136 163 0 0 0 0 0 0 0 0 0 0 0 0 0 0 0 119 119 119 136 136 163 72 72 119 136 136 163 72 72 119 99 99 163 99 99 163 186 186 224 119 119 119 150 119 175 72 72 119 72 72 119 119 119 119 0 0 0 119 119 119 136 99 136 163 99 99 119 72 72 119 72 72 119 119 119 163 99 99 119 72 72 119 72 72 163 136 136 196 150 150 163 136 136 119 72 72 119 119 119 119 72 72 119 72 72 119 119 119 0 0 0 163 136 136 0 0 0 0 0 0 0 0 0 0 0 0 119 119 119 119 72 72 163 99 99 163 136 136 119 72 72 196 150 150 0 0 0 136 136 163 206 186 206 72 72 119 0 0 0 0 0 0 119 119 119 119 72 72 163 136 136 163 136 136 119 119 119 72 72 119 0 0 0 136 136 163 136 136 163 175 175 196 72 72 119 0 0 0 0 0 0 0 0 0 0 0 0 119 119 119 119 119 119 119 119 196 99 99 163 72 72 119 72 72 119 119 119 119 0 0 0 119 119 119 99 99 163 150 150 196 119 119 119 136 136 163 0 0 0 119 72 72 0 0 0 0 0 0 119 119 119 163 99 99 119 72 72 119 119 119 0 0 0 163 136 136 0 0 0 163 163 163 119 72 72 119 72 72 0 0 0 163 99 99 0 0 0 196 175 175 119 72 72 119 72 72 0 0 0 0 0 0 163 136 136 0 0 0 119 72 72 119 72 72 119 72 72 119 72 72 0 0 0 119 72 72 0 0 0 0 0 0 72 72 119 136 136 163 119 119 119 0 0 0 0 0 0 119 119 119 0 0 0 136 136 163 0 0 0 119 72 72 136 136 163 163 163 163 72 72 119 0 0 0 99 99 163 136 136 163 136 136 163 72 72 119 119 119 119 119 119 119 136 136 163 72 72 119 72 72 119 0 0 0 0 0 0 99 99 163 119 119 196 136 136 163 196 175 175 0 0 0 136 136 163 136 136 163 119 119 119 119 119 119 0 0 0 163 136 136 196 150 150 119 72 72 119 72 72 0 0 0 0 0 0 196 119 119 196 150 150 119 72 72 0 0 0 163 136 136 0 0 0 0 0 0 196 119 119 119 72 72 0 0 0 163 136 136 0 0 0 119 72 72 119 72 72 0 0 0 163 99 99 0 0 0 163 99 99 0 0 0 119 119 119 119 119 119 119 72 72 175 175 196 136 136 163 119 119 119 136 136 163 0 0 0 150 150 196 136 136 163 119 119 119 163 163 163 119 72 72 0 0 0 0 0 0 0 0 0 175 175 196 119 119 196 72 72 119 136 136 224 136 136 163 119 119 119 136 136 163 136 136 163 0 0 0 119 119 119 99 99 163 72 72 119 99 99 163 0 0 0 72 72 119 72 72 119 72 72 119 72 72 119 119 119 196 175 175 196 136 136 163 119 119 119 119 119 119 119 72 72 163 99 99 0 0 0 119 119 119 119 72 72 0 0 0 119 119 119 119 72 72 119 119 119 0 0 0 119 72 72 119 72 72 163 136 136 0 0 0 119 72 72 119 119 119 0 0 0 119 72 72 0 0 0 0 0 0 0 0 0 163 136 136 119 72 72 163 99 99 119 119 119 0 0 0 99 99 163 163 136 136 72 72 119 150 150 196 119 119 119 72 72 119 136 136 163 0 0 0 163 163 163 119 119 119 0 0 0 0 0 0 0 0 0 0 0 0 72 72 119 72 72 119 72 72 119 0 0 0 99 99 163 119 119 119 119 119 119 0 0 0 119 119 119 119 119 119 72 72 119 99 99 163 119 119 119 0 0 0 0 0 0 119 119 119 0 0 0 119 119 119 99 99 163 0 0 0 0 0 0 0 0 0 119 72 72 0 0 0 196 175 175 0 0 0 0 0 0 119 72 72 119 72 72 119 119 119 119 119 119 163 99 99 0 0 0 0 0 0 119 72 72 119 119 119 119 119 119 119 119 119 163 136 136 0 0 0 119 72 72 119 72 72 119 119 119 0 0 0 0 0 0 163 99 99 119 72 72 163 99 99 196 150 150 0 0 0 119 119 119 175 150 175 72 72 119 119 119 119 0 0 0 136 136 163 0 0 0 99 99 163 119 119 119 119 119 119 0 0 0 119 72 72 0 0 0 72 72 119 119 119 196 72 72 119 72 72 119 72 72 119 136 136 163 99 99 163 119 119 196 72 72 119 99 99 163 119 119 119 99 99 163 0 0 0 0 0 0 163 163 163 119 119 119 72 72 119 150 150 196 0 0 0 72 72 119 163 99 99 150 150 196 163 163 163 0 0 0 0 0 0 0 0 0 163 136 136 163 136 136 0 0 0 72 72 119 163 136 136 175 119 150 196 119 119 119 72 72 119 119 119 163 163 163 0 0 0 119 72 72 0 0 0 119 119 119 0 0 0 119 119 119 163 136 136 119 72 72 119 72 72 119 72 72 0 0 0 119 72 72 119 72 72 0 0 0 0 0 0 119 119 119 0 0 0 99 99 163 119 119 119 0 0 0 163 163 163 136 136 163 0 0 0 163 163 163 0 0 0 0 0 0 119 119 119 119 119 119 0 0 0 196 119 119 0 0 0 136 136 163 119 119 119 72 72 119 136 136 163 119 119 119 72 72 119 119 119 119 0 0 0 99 99 163 72 72 119 72 72 119 150 150 196 0 0 0 0 0 0 136 136 163 72 72 119 150 150 196 136 136 163 119 119 119 0 0 0 119 119 119 0 0 0 224 163 163 163 99 99 163 163 163 163 136 136 119 72 72 163 136 136 163 136 136 0 0 0 0 0 0 119 72 72 0 0 0 119 119 119 119 72 72 0 0 0 119 119 119 119 119 119 0 0 0 119 72 72 0 0 0 0 0 0 163 163 163 0 0 0 119 72 72 163 163 163 119 119 119 119 119 119 119 119 119 119 119 119 0 0 0 0 0 0 72 72 119 136 136 163 136 136 163 119 119 119 119 119 119 0 0 0 163 163 163 119 72 72 0 0 0 0 0 0 163 136 136 136 136 163 136 136 163 99 99 163 99 99 163 99 99 163 99 99 163 0 0 0 119 119 119 119 119 119 0 0 0 0 0 0 99 99 163 72 72 119 136 136 163 72 72 119 99 99 163 0 0 0 72 72 119 0 0 0 72 72 119 72 72 119 196 196 196 0 0 0 119 72 72 163 136 136 136 99 136 163 163 163 196 150 150 0 0 0 0 0 0 119 72 72 119 72 72 119 119 119 119 72 72 119 72 72 163 163 163 0 0 0 0 0 0 119 119 119 119 72 72 163 99 99 0 0 0 119 72 72 119 119 119 0 0 0 119 72 72 0 0 0 119 119 119 72 72 119 72 72 119 163 163 163 119 119 119 119 119 119 136 136 163 163 163 163 72 72 119 72 72 119 0 0 0 136 136 163 0 0 0 0 0 0 0 0 0 119 72 72 119 72 72 175 175 196 0 0 0 119 119 196 136 136 163 72 72 119 163 163 163 175 175 196 72 72 119 72 72 119 119 119 119 72 72 119 99 99 163 0 0 0 72 72 119 163 163 163 72 72 119 163 136 136 119 119 119 0 0 0 119 119 119 0 0 0 119 119 119 0 0 0 0 0 0 163 163 163 163 136 136 119 72 72 136 99 136 136 99 136 196 119 119 0 0 0 0 0 0 163 136 136 0 0 0 0 0 0 196 175 175 119 119 119 119 72 72 119 119 119 0 0 0 196 175 175 119 72 72 119 72 72 119 72 72 119 72 72 119 119 119 0 0 0 0 0 0 72 72 119 72 72 119 119 119 119 0 0 0 0 0 0 119 119 119 0 0 0 99 99 163 72 72 119 119 119 119 119 119 119 163 163 163 119 119 119 0 0 0 0 0 0 119 72 72 72 72 119 99 99 163 0 0 0 150 150 196 72 72 119 72 72 119 0 0 0 72 72 119 72 72 119 136 136 163 163 163 163 119 119 119 0 0 0 119 119 119 99 99 163 136 136 163 150 150 196 150 150 196 150 150 196 72 72 119 0 0 0 0 0 0 0 0 0 163 99 99 0 0 0 206 163 186 119 72 72 119 119 119 0 0 0 0 0 0 119 119 119 119 72 72 119 119 119 0 0 0 0 0 0 119 72 72 119 72 72 0 0 0 0 0 0 119 72 72 119 119 119 119 72 72 0 0 0 0 0 0 163 99 99 119 72 72 163 99 99 136 136 163 0 0 0 136 136 163 119 72 72 136 136 163 72 72 119 72 72 119 119 119 119 0 0 0 163 163 163 0 0 0 72 72 119 119 119 119 119 119 119 119 72 72 0 0 0 119 119 119 99 99 163 72 72 119 72 72 119 99 99 163 0 0 0 72 72 119 119 119 119 0 0 0 72 72 119 72 72 119 99 99 163 72 72 119 136 136 163 0 0 0 72 72 119 0 0 0 136 136 163 0 0 0 72 72 119 119 119 119 0 0 0 119 119 119 0 0 0 119 119 119 163 99 99 163 136 136 0 0 0 163 136 136 0 0 0 0 0 0 163 136 136 119 72 72 163 99 99 163 99 99 0 0 0 119 119 119 163 163 163 163 136 136 163 136 136 119 119 119 163 163 163 0 0 0 163 99 99 119 72 72 163 99 99 163 99 99 119 119 119 196 119 119 119 119 119 119 72 72 119 119 119 119 119 119 0 0 0 0 0 0 136 136 163 163 163 163 119 72 72 0 0 0 119 119 119 0 0 0 119 119 119 119 119 119 119 119 119 119 119 119 136 136 163 72 72 119 150 150 196 136 136 163 119 119 196 0 0 0 0 0 0 0 0 0 0 0 0 119 119 119 0 0 0 0 0 0 0 0 0 72 72 119 136 136 163 0 0 0 72 72 119 72 72 119 72 72 119 99 99 163 0 0 0 0 0 0 0 0 0 163 99 99 119 72 72 0 0 0 119 119 119 163 136 136 0 0 0 0 0 0 0 0 0 163 136 136 119 119 119 0 0 0 163 99 99 163 99 99 119 119 119 196 175 175 163 163 163 163 99 99 119 119 119 0 0 0 119 72 72 0 0 0 163 136 136 163 99 99 0 0 0 163 99 99 72 72 119 0 0 0 119 72 72 0 0 0 119 72 72 119 72 72 136 136 163 72 72 119 0 0 0 0 0 0 163 136 136 0 0 0 0 0 0 0 0 0 0 0 0 163 163 163 175 175 196 72 72 119 99 99 163 136 136 163 119 119 196 0 0 0 0 0 0 0 0 0 0 0 0 163 163 163 72 72 119 72 72 119 163 163 163 136 136 163 119 119 196 175 175 196 0 0 0 0 0 0 0 0 0 163 136 136 0 0 0 0 0 0 0 0 0 0 0 0 163 136 136 0 0 0 163 136 136 119 72 72 119 72 72 0 0 0 119 119 119 196 175 175 119 72 72 0 0 0 119 72 72 163 99 99 0 0 0 163 136 136 0 0 0 163 136 136 196 175 175 0 0 0 0 0 0 119 72 72 0 0 0 0 0 0 0 0 0 0 0 0 175 175 196 0 0 0 163 163 163 99 99 163 163 163 163 150 150 196 119 119 119 136 136 163 0 0 0 72 72 119 163 163 163 119 119 119 0 0 0 119 72 72 0 0 0 0 0 0 72 72 119 72 72 119 72 72 119 72 72 119 72 72 119 72 72 119 99 99 163 150 150 196 0 0 0 72 72 119 99 99 163 0 0 0 0 0 0 99 99 163 119 119 119 72 72 119 72 72 119 119 119 119 99 99 163 136 136 163 0 0 0 0 0 0 119 119 119 224 136 136 0 0 0 119 72 72 119 72 72 163 136 136 0 0 0 163 99 99 163 136 136 0 0 0 163 136 136 163 136 136 119 72 72 0 0 0 0 0 0 119 119 119 0 0 0 119 119 119 0 0 0 0 0 0 163 99 99 163 99 99 163 136 136 119 119 119 119 119 119 119 119 119 119 119 119 119 119 119 119 119 119 119 119 119 0 0 0 72 72 119 0 0 0 99 99 163 163 136 136 175 150 175 0 0 0 119 119 119 163 99 99 163 163 163 119 119 119 163 163 163 163 163 163 99 99 163 119 119 119 99 99 163 99 99 163 163 163 163 72 72 119 0 0 0 72 72 119 0 0 0 119 119 119 136 136 163 99 99 163 72 72 119 119 119 119 175 175 196 72 72 119 136 136 163 150 150 196 99 99 163 0 0 0 119 72 72 0 0 0 119 72 72 119 119 119 0 0 0 163 136 136 119 119 119 163 136 136 119 119 119 0 0 0 119 72 72 119 119 119 0 0 0 0 0 0 119 119 119 163 136 136 163 136 136 119 72 72 119 119 119 0 0 0 163 99 99 163 136 136 163 99 99 119 72 72 99 99 163 0 0 0 119 119 119 119 119 119 119 119 119 150 150 196 175 175 196 119 119 119 119 119 119 0 0 0 0 0 0 0 0 0 0 0 0 0 0 0 72 72 119 0 0 0 119 72 72 0 0 0 0 0 0 72 72 119 72 72 119 72 72 119 0 0 0 136 136 224 99 99 163 72 72 119 99 99 163 0 0 0 163 163 163 99 99 163 72 72 119 72 72 119 0 0 0 119 119 119 136 136 163 72 72 119 72 72 119 119 119 119 99 99 163 136 99 136 119 119 119 119 119 119 163 163 163 119 72 72 119 119 119 0 0 0 119 72 72 163 163 163 163 99 99 119 119 119 0 0 0 0 0 0 119 119 119 163 163 163 119 119 119 119 119 119 119 119 119 0 0 0 119 119 119 119 72 72 119 72 72 163 99 99 163 99 99 119 72 72 119 72 72 119 119 119 119 119 119 163 136 136 196 150 150 136 99 136 119 119 119 136 99 136 0 0 0 0 0 0 0 0 0 119 72 72 136 136 163 0 0 0 119 72 72 119 119 119 163 99 99 0 0 0 119 119 119 0 0 0 99 99 163 99 99 163 0 0 0 150 150 196 119 119 119 72 72 119 99 99 163 72 72 119 0 0 0 163 163 163 0 0 0 72 72 119 72 72 119 72 72 119 0 0 0 150 119 175 136 136 163 136 136 163 136 136 163 0 0 0 119 72 72 0 0 0 119 72 72 0 0 0 196 150 150 0 0 0 0 0 0 119 72 72 119 72 72 119 72 72 119 119 119 119 72 72 0 0 0 119 119 119 163 136 136 119 72 72 119 119 119 0 0 0 0 0 0 0 0 0 163 136 136 119 72 72 163 136 136 119 72 72 119 119 119 136 99 136 99 99 163 163 136 136 0 0 0 0 0 0 0 0 0 206 136 163 0 0 0 119 119 119 119 72 72 72 72 119 0 0 0 0 0 0 72 72 119 0 0 0 0 0 0 224 206 206 136 136 163 99 99 163 0 0 0 119 119 119 0 0 0 119 119 119 136 136 163 72 72 119 99 99 163 0 0 0 72 72 119 0 0 0 136 136 163 175 175 196 72 72 119 136 136 163 0 0 0 72 72 119 150 150 196 0 0 0 72 72 119 0 0 0 0 0 0 0 0 0 119 119 119 0 0 0 175 150 175 163 163 163 163 99 99 119 119 119 163 136 136 0 0 0 119 72 72 119 72 72 0 0 0 119 72 72 0 0 0 119 119 119 119 119 119 119 119 119 163 136 136 119 72 72 0 0 0 163 99 99 119 72 72 119 119 119 196 175 175 119 119 119 136 99 136 99 99 163 119 119 119 119 72 72 0 0 0 175 150 175 163 99 99 72 72 119 72 72 119 72 72 119 0 0 0 196 196 196 163 163 163 136 136 163 0 0 0 119 119 119 119 119 119 163 163 163 72 72 119 0 0 0 0 0 0 99 99 163 119 119 119 0 0 0 150 150 196 0 0 0 136 136 163 136 136 163 72 72 119 72 72 119 119 119 119 99 99 163 0 0 0 119 119 119 72 72 119 72 72 119 99 99 163 0 0 0 0 0 0 0 0 0 119 119 119 163 136 136 196 150 150 0 0 0 0 0 0 119 119 119 0 0 0 119 72 72 0 0 0 119 72 72 163 136 136 119 72 72 119 119 119 119 72 72 0 0 0 119 72 72 0 0 0 119 72 72 119 72 72 119 119 119 119 72 72 119 119 119 119 119 119 72 72 119 119 119 119 72 72 119 119 119 119 119 72 72 136 136 163 119 119 119 136 136 163 0 0 0 119 72 72 0 0 0 163 136 136 72 72 119 136 99 136 119 119 119 119 72 72 0 0 0 0 0 0 119 119 119 0 0 0 163 163 163 72 72 119 0 0 0 0 0 0 99 99 163 0 0 0 136 136 163 99 99 163 136 136 163 72 72 119 72 72 119 99 99 163 175 175 196 99 99 163 99 99 163 0 0 0 99 99 163 0 0 0 0 0 0 0 0 0 163 136 136 119 72 72 119 119 119 119 72 72 119 72 72 163 163 163 119 119 119 163 163 163 196 119 119 119 119 119 163 136 136 119 72 72 163 136 136 0 0 0 0 0 0 163 136 136 163 136 136 0 0 0 0 0 0 119 72 72 119 72 72 119 119 119 119 119 119 72 72 119 119 119 119 175 175 196 0 0 0 163 163 163 163 136 136 0 0 0 119 72 72 119 119 119 119 72 72 136 99 136 136 136 163 0 0 0 0 0 0 119 119 119 136 99 136 72 72 119 163 163 163 119 119 119 136 136 163 0 0 0 119 72 72 0 0 0 99 99 163 119 119 119 0 0 0 119 119 119 136 136 163 136 136 163 119 119 119 119 119 119 0 0 0 0 0 0 0 0 0 136 136 163 119 119 119 119 119 119 119 119 119 119 119 119 72 72 119 0 0 0 0 0 0 163 136 136 119 72 72 163 99 99 119 72 72 119 119 119 119 119 119 0 0 0 163 136 136 196 196 196 119 72 72 119 72 72 119 72 72 0 0 0 119 119 119 163 136 136 163 136 136 0 0 0 119 72 72 119 72 72 0 0 0 119 119 119 119 72 72 119 119 119 163 163 163 0 0 0 163 163 163 119 119 119 163 136 136 163 136 136 0 0 0 119 72 72 196 175 175 163 163 163 119 119 119 136 136 163 119 119 119 0 0 0 119 119 119 119 72 72 72 72 119 119 119 119 0 0 0 72 72 119 0 0 0 163 163 163 119 119 119 119 119 119 136 136 163 72 72 119 0 0 0 136 136 163 99 99 163 0 0 0 72 72 119 119 119 119 0 0 0 72 72 119 72 72 119 0 0 0 99 99 163 72 72 119 163 163 163 119 72 72 119 119 119 119 72 72 119 72 72 119 72 72 0 0 0 196 150 150 163 99 99 163 163 163 163 136 136 163 99 99 163 99 99 119 72 72 119 119 119 0 0 0 119 119 119 0 0 0 0 0 0 0 0 0 0 0 0 0 0 0 119 72 72 0 0 0 0 0 0 119 119 119 136 136 163 0 0 0 119 72 72 119 72 72 119 119 119 163 99 99 0 0 0 196 119 119 119 119 119 0 0 0 136 136 163 0 0 0 72 72 119 0 0 0 72 72 119 163 136 136 0 0 0 163 163 163 119 119 119 196 175 175 163 163 163 119 119 119 72 72 119 119 119 196 150 150 196 72 72 119 0 0 0 136 136 163 0 0 0 119 119 119 72 72 119 136 136 163 119 119 119 0 0 0 0 0 0 150 150 196 0 0 0 136 136 163 0 0 0 163 136 136 72 72 119 119 119 119 0 0 0 0 0 0 136 136 163 119 72 72 163 99 99 196 175 175 119 72 72 0 0 0 0 0 0 119 72 72 0 0 0 163 136 136 119 72 72 0 0 0 119 72 72 119 72 72 0 0 0 119 72 72 0 0 0 196 119 119 119 72 72 0 0 0 136 136 163 0 0 0 119 72 72 196 175 175 119 119 119 119 72 72 119 119 119 119 119 119 163 163 163 72 72 119 136 136 163 72 72 119 119 119 119 72 72 119 136 136 163 0 0 0 136 136 163 0 0 0 0 0 0 119 119 119 72 72 119 119 119 119 119 119 119 72 72 119 0 0 0 72 72 119 119 119 119 0 0 0 0 0 0 119 119 119 0 0 0 119 119 119 119 119 119 136 136 163 0 0 0 0 0 0 0 0 0 72 72 119 119 119 119 119 119 119 163 163 163 163 136 136 163 163 163 119 72 72 0 0 0 0 0 0 119 72 72 163 136 136 119 119 119 0 0 0 119 72 72 0 0 0 119 72 72 0 0 0 119 119 119 0 0 0 119 119 119 0 0 0 119 72 72 196 119 119 0 0 0 163 99 99 119 119 119 163 136 136 119 119 119 175 175 196 163 163 163 163 163 163 163 163 163 119 72 72 0 0 0 0 0 0 0 0 0 119 119 119 72 72 119 119 119 119 136 136 163 72 72 119 119 119 119 0 0 0 186 186 224 0 0 0 72 72 119 119 119 119 0 0 0 72 72 119 163 136 136 99 99 163 119 119 119 119 119 196 136 136 163 119 119 119 119 119 119 72 72 119 72 72 119 72 72 119 119 119 196 0 0 0 0 0 0 0 0 0 72 72 119 150 150 196 72 72 119 0 0 0 0 0 0 0 0 0 0 0 0 119 72 72 119 119 119 119 72 72 119 119 119 119 72 72 0 0 0 0 0 0 119 119 119 119 119 119 0 0 0 119 72 72 0 0 0 119 72 72 119 119 119 0 0 0 163 99 99 0 0 0 0 0 0 224 186 186 0 0 0 163 136 136 99 99 163 72 72 119 119 119 119 119 119 119 163 136 136 119 119 119 119 72 72 136 136 163 119 119 119 0 0 0 163 163 163 72 72 119 72 72 119 72 72 119 163 163 163 119 119 119 136 136 163 72 72 119 72 72 119 0 0 0 119 72 72 0 0 0 0 0 0 163 136 136 136 136 224 72 72 119 0 0 0 0 0 0 136 136 163 0 0 0 163 163 163 0 0 0 136 136 163 72 72 119 0 0 0 163 163 224 0 0 0 136 136 163 0 0 0 119 72 72 119 72 72 163 163 163 0 0 0 163 99 99 163 136 136 163 163 163 0 0 0 119 72 72 163 99 99 163 163 163 0 0 0 0 0 0 119 119 119 119 119 119 0 0 0 196 119 119 0 0 0 119 72 72 119 119 119 0 0 0 163 99 99 0 0 0 163 99 99 0 0 0 136 136 163 196 196 196 163 163 163 0 0 0 163 99 99 163 136 136 163 163 163 119 119 119 163 136 136 72 72 119 136 136 163 99 99 163 72 72 119 196 196 196 72 72 119 0 0 0 136 136 163 119 72 72 0 0 0 99 99 163 0 0 0 72 72 119 163 163 163 136 136 163 119 119 119 72 72 119 0 0 0 72 72 119 72 72 119 119 119 119 99 99 163 136 136 163 136 136 163 0 0 0 72 72 119 119 119 119 72 72 119 163 163 224 119 119 119 119 72 72 0 0 0 163 99 99 119 72 72 0 0 0 0 0 0 0 0 0 163 136 136 119 119 119 119 72 72 163 99 99 163 163 163 119 119 119 0 0 0 0 0 0 0 0 0 119 72 72 119 72 72 119 72 72 0 0 0 196 150 150 119 119 119 119 72 72 163 163 163 0 0 0 72 72 119 0 0 0 119 119 119 119 119 119 119 72 72 136 136 163 196 196 196 72 72 119 136 99 136 206 206 224 196 196 196 163 163 163 119 119 119 175 175 196 150 150 196 0 0 0 0 0 0 72 72 119 119 119 119 119 119 119 119 119 119 163 163 163 175 150 175 136 136 163 163 163 163 72 72 119 0 0 0 72 72 119 72 72 119 72 72 119 0 0 0 136 136 163 0 0 0 136 136 163 196 196 196 0 0 0 136 136 163 99 99 163 0 0 0 0 0 0 119 119 119 119 72 72 163 99 99 119 72 72 119 72 72 119 72 72 206 186 206 163 136 136 119 119 119 196 196 196 163 163 163 163 163 163 0 0 0 119 119 119 119 72 72 0 0 0 163 99 99 163 99 99 0 0 0 163 136 136 163 136 136 119 72 72 163 136 136 72 72 119 119 119 119 99 99 163 119 72 72 163 163 163 163 163 163 163 163 163 72 72 119 163 163 163 119 119 119 119 72 72 72 72 119 119 119 119 0 0 0 196 196 196 0 0 0 0 0 0 136 136 163 136 136 163 136 136 163 99 99 163 196 150 150 163 163 163 119 72 72 163 163 163 0 0 0 72 72 119 136 136 163 99 99 163 0 0 0 0 0 0 0 0 0 0 0 0 119 119 119 119 119 119 119 119 119 136 136 163 163 163 163 163 163 163 0 0 0 119 119 119 0 0 0 163 136 136 196 150 150 119 119 119 119 72 72 119 72 72 163 136 136 163 136 136 119 119 119 119 72 72 163 136 136 119 119 119 163 136 136 119 119 119 196 175 175 163 136 136 119 119 119 119 72 72 0 0 0 163 99 99 0 0 0 163 99 99 196 196 196 163 163 163 0 0 0 119 119 119 119 119 119 119 119 119 0 0 0 0 0 0 163 136 136 0 0 0 119 119 119 119 119 119 119 119 119 119 119 119 72 72 119 163 136 136 119 119 119 0 0 0 0 0 0 119 119 119 136 136 163 0 0 0 163 163 163 0 0 0 119 119 119 72 72 119 119 119 196 99 99 163 99 99 163 99 99 163 99 99 163 119 119 119 0 0 0 175 175 196 72 72 119 119 119 119 0 0 0 119 119 119 72 72 119 72 72 119 119 119 119 119 119 119 163 136 136 163 136 136 163 99 99 119 119 119 119 72 72 163 136 136 119 119 119 196 175 175 163 163 163 119 119 119 119 119 119 163 136 136 0 0 0 0 0 0 0 0 0 163 136 136 196 119 119 119 72 72 196 150 150 163 99 99 119 72 72 175 119 150 119 119 119 0 0 0 119 72 72 175 175 196 163 163 163 136 136 163 119 119 119 224 224 224 119 119 119 119 119 119 0 0 0 196 175 175 119 119 119 163 163 163 163 163 163 0 0 0 119 119 119 99 99 163 163 163 163 136 136 163 119 119 119 0 0 0 72 72 119 0 0 0 175 175 196 0 0 0 72 72 119 136 136 163 136 136 163 0 0 0 72 72 119 175 175 196 72 72 119 0 0 0 136 136 163 136 136 163 0 0 0 136 136 163 99 99 163 0 0 0 163 163 163 196 175 175 0 0 0 119 72 72 163 99 99 119 119 119 163 136 136 196 175 175 163 163 163 0 0 0 0 0 0 119 119 119 163 136 136 0 0 0 163 99 99 163 163 163 0 0 0 163 163 163 0 0 0 163 136 136 196 175 175 119 119 119 119 72 72 163 163 163 163 136 136 136 136 163 119 119 119 119 119 119 163 163 163 0 0 0 119 119 119 72 72 119 119 119 119 0 0 0 119 72 72 119 72 72 0 0 0 119 119 119 0 0 0 72 72 119 163 163 163 119 119 119 0 0 0 0 0 0 163 163 163 163 163 163 136 136 163 0 0 0 99 99 163 119 119 119 163 163 163 99 99 163 196 196 196 136 136 163 72 72 119 119 119 119 136 136 163 0 0 0 163 163 163 119 119 119 72 72 119 136 136 163 119 119 119 119 119 119 0 0 0 163 163 163 0 0 0 119 72 72 0 0 0 119 72 72 119 119 119 0 0 0 0 0 0 163 136 136 119 119 119 0 0 0 119 72 72 119 119 119 163 163 163 119 72 72 119 72 72 0 0 0 0 0 0 119 72 72 119 72 72 163 163 163 0 0 0 0 0 0 0 0 0 163 163 163 0 0 0 175 175 196 0 0 0 119 119 119 163 163 163 196 196 196 119 119 119 0 0 0 163 136 136 196 196 196 0 0 0 0 0 0 0 0 0 163 163 163 163 163 163 119 119 119 119 119 119 163 163 163 119 119 119 119 119 119 119 119 119 163 163 163 163 163 163 119 119 119 119 119 119 119 119 119 163 163 163 119 119 119 99 99 163 72 72 119 0 0 0 119 119 196 72 72 119 136 136 163 119 119 119 0 0 0 72 72 119 99 99 163 119 119 119 196 196 196 