P3
64 64
255
50 21 26 0 0 0 0 0 0 0 0 0 0 0 0 0 0 0 0 0 0 21 12 21 0 0 0 21 8 12 0 0 0 0 0 0 0 0 0 0 0 0 28 14 23 56 40 40 0 0 0 0 0 0 0 0 0 34 21 21 34 12 12 0 0 0 21 12 21 0 0 0 0 0 0 0 0 0 0 0 0 0 0 0 0 0 0 0 0 0 0 0 0 0 0 0 0 0 0 0 0 0 0 0 0 0 0 0 0 0 0 0 0 0 0 0 0 0 0 0 0 0 0 0 0 0 0 0 0 0 0 0 0 0 0 0 0 0 0 0 0 0 0 0 0 0 0 0 0 0 0 0 0 0 0 0 0 0 0 0 0 0 12 12 34 21 12 21 0 0 0 0 0 0 0 0 0 39 17 23 0 0 0 0 0 0 12 12 34 34 34 34 21 12 21 21 21 34 0 0 0 0 0 0 0 0 0 0 0 0 34 21 21 0 0 0 0 0 0 21 8 12 0 0 0 39 23 28 0 0 0 50 40 43 0 0 0 46 23 23 0 0 0 0 0 0 0 0 0 0 0 0 0 0 0 0 0 0 21 8 12 0 0 0 21 21 34 0 0 0 0 0 0 0 0 0 21 12 21 0 0 0 0 0 0 0 0 0 0 0 0 0 0 0 0 0 0 0 0 0 0 0 0 0 0 0 0 0 0 12 12 34 0 0 0 0 0 0 0 0 0 0 0 0 0 0 0 0 0 0 21 12 21 0 0 0 0 0 0 0 0 0 12 12 34 0 0 0 21 12 21 0 0 0 0 0 0 21 12 21 12 8 21 0 0 0 21 12 21 21 12 21 21 21 34 21 21 34 0 0 0 0 0 0 34 21 21 34 21 21 0 0 0 0 0 0 39 23 35 0 0 0 34 12 12 0 0 0 0 0 0 0 0 0 34 12 12 34 12 12 0 0 0 34 21 21 21 12 21 0 0 0 0 0 0 21 21 34 12 12 34 21 12 21 0 0 0 0 0 0 0 0 0 0 0 0 0 0 0 0 0 0 0 0 0 0 0 0 0 0 0 0 0 0 0 0 0 21 12 21 0 0 0 0 0 0 21 12 21 0 0 0 0 0 0 0 0 0 0 0 0 28 28 46 21 21 34 12 12 34 0 0 0 0 0 0 34 34 34 0 0 0 12 12 34 0 0 0 0 0 0 0 0 0 39 28 39 0 0 0 34 12 12 21 21 34 0 0 0 39 28 39 0 0 0 0 0 0 0 0 0 0 0 0 21 21 34 0 0 0 0 0 0 0 0 0 0 0 0 0 0 0 0 0 0 0 0 0 50 21 26 21 12 21 0 0 0 0 0 0 34 21 21 0 0 0 34 21 21 28 14 23 0 0 0 0 0 0 0 0 0 34 21 21 0 0 0 0 0 0 0 0 0 34 21 21 47 26 40 21 21 34 0 0 0 28 23 39 0 0 0 0 0 0 28 17 28 0 0 0 21 12 21 0 0 0 39 23 28 0 0 0 0 0 0 0 0 0 0 0 0 21 12 21 0 0 0 0 0 0 21 12 21 21 21 34 12 12 34 0 0 0 0 0 0 21 21 34 34 21 21 0 0 0 0 0 0 0 0 0 0 0 0 34 12 12 21 8 12 0 0 0 21 21 34 0 0 0 34 12 12 0 0 0 34 34 34 21 21 34 0 0 0 0 0 0 0 0 0 0 0 0 0 0 0 34 34 34 0 0 0 0 0 0 0 0 0 21 12 21 0 0 0 0 0 0 0 0 0 0 0 0 46 17 17 21 12 21 21 12 21 34 21 21 34 12 12 0 0 0 34 21 21 0 0 0 0 0 0 46 28 28 0 0 0 0 0 0 34 21 21 0 0 0 0 0 0 0 0 0 34 12 12 21 12 21 0 0 0 46 23 23 0 0 0 0 0 0 34 21 21 0 0 0 0 0 0 0 0 0 0 0 0 0 0 0 34 12 12 0 0 0 0 0 0 0 0 0 0 0 0 0 0 0 0 0 0 0 0 0 0 0 0 0 0 0 0 0 0 0 0 0 0 0 0 35 35 46 21 21 34 0 0 0 0 0 0 0 0 0 34 21 21 0 0 0 0 0 0 0 0 0 12 12 34 28 23 39 0 0 0 0 0 0 0 0 0 0 0 0 0 0 0 0 0 0 0 0 0 0 0 0 0 0 0 21 21 34 0 0 0 0 0 0 0 0 0 0 0 0 0 0 0 34 21 21 0 0 0 0 0 0 0 0 0 0 0 0 0 0 0 0 0 0 56 34 34 39 28 39 21 21 34 46 28 28 34 21 21 0 0 0 21 12 21 21 21 34 0 0 0 34 21 21 34 21 21 0 0 0 0 0 0 0 0 0 0 0 0 0 0 0 0 0 0 0 0 0 21 21 34 21 12 21 0 0 0 21 21 34 0 0 0 0 0 0 28 23 39 0 0 0 0 0 0 0 0 0 34 21 21 0 0 0 21 21 34 0 0 0 0 0 0 21 12 21 34 34 34 0 0 0 0 0 0 0 0 0 0 0 0 21 12 21 12 12 34 21 12 21 0 0 0 0 0 0 21 21 34 0 0 0 39 23 28 50 26 30 34 21 21 0 0 0 0 0 0 0 0 0 0 0 0 0 0 0 34 21 21 0 0 0 0 0 0 46 28 28 0 0 0 34 21 21 21 21 34 0 0 0 34 12 12 21 21 34 0 0 0 0 0 0 39 23 28 34 21 21 0 0 0 34 21 21 12 8 21 0 0 0 0 0 0 0 0 0 0 0 0 21 12 21 0 0 0 0 0 0 0 0 0 0 0 0 0 0 0 0 0 0 0 0 0 0 0 0 0 0 0 21 12 21 0 0 0 0 0 0 0 0 0 0 0 0 21 21 34 0 0 0 0 0 0 0 0 0 34 21 21 21 12 21 0 0 0 12 12 34 21 12 21 21 12 21 0 0 0 0 0 0 21 21 34 21 21 34 21 21 34 21 12 21 28 28 46 23 17 39 21 21 34 28 28 46 21 21 34 34 12 12 0 0 0 34 21 21 21 12 21 34 12 12 0 0 0 34 12 12 35 23 39 21 12 21 34 21 21 21 12 21 46 28 28 34 12 12 0 0 0 34 21 21 34 21 21 23 17 39 0 0 0 21 12 21 34 21 21 0 0 0 0 0 0 0 0 0 39 28 39 0 0 0 0 0 0 0 0 0 0 0 0 0 0 0 0 0 0 0 0 0 0 0 0 0 0 0 34 21 21 39 23 35 34 21 21 0 0 0 21 21 34 0 0 0 21 21 34 0 0 0 30 30 56 21 21 34 0 0 0 0 0 0 0 0 0 0 0 0 0 0 0 21 21 34 0 0 0 0 0 0 0 0 0 0 0 0 0 0 0 0 0 0 21 12 21 0 0 0 0 0 0 0 0 0 21 21 34 0 0 0 0 0 0 0 0 0 34 21 21 0 0 0 0 0 0 0 0 0 0 0 0 34 12 12 46 28 28 0 0 0 21 12 21 0 0 0 0 0 0 0 0 0 0 0 0 34 21 21 0 0 0 0 0 0 0 0 0 0 0 0 0 0 0 21 12 21 0 0 0 0 0 0 0 0 0 0 0 0 34 21 21 0 0 0 46 23 23 34 21 21 34 21 21 43 30 43 34 12 12 21 21 34 34 21 21 34 21 21 0 0 0 34 34 34 0 0 0 0 0 0 0 0 0 0 0 0 21 21 34 12 12 34 21 12 21 0 0 0 0 0 0 21 21 34 0 0 0 0 0 0 0 0 0 0 0 0 0 0 0 21 12 21 40 26 43 34 21 21 21 21 34 0 0 0 0 0 0 34 12 12 0 0 0 0 0 0 0 0 0 23 17 39 0 0 0 0 0 0 0 0 0 0 0 0 34 21 21 0 0 0 34 12 12 0 0 0 34 21 21 0 0 0 35 17 35 21 12 21 34 21 21 0 0 0 0 0 0 21 21 34 0 0 0 0 0 0 39 28 39 0 0 0 0 0 0 0 0 0 0 0 0 34 21 21 28 17 28 34 34 56 34 21 21 0 0 0 0 0 0 0 0 0 0 0 0 21 12 21 21 21 34 0 0 0 50 40 43 0 0 0 21 21 34 21 12 21 0 0 0 34 21 21 0 0 0 0 0 0 0 0 0 12 12 34 0 0 0 0 0 0 0 0 0 0 0 0 0 0 0 0 0 0 0 0 0 21 12 21 12 12 34 0 0 0 0 0 0 21 12 21 28 28 46 0 0 0 0 0 0 0 0 0 0 0 0 21 21 34 0 0 0 40 26 47 0 0 0 34 12 12 0 0 0 56 34 34 0 0 0 0 0 0 21 12 21 0 0 0 34 21 21 34 12 12 21 12 21 0 0 0 0 0 0 34 21 21 21 8 12 0 0 0 0 0 0 0 0 0 0 0 0 0 0 0 0 0 0 21 12 21 34 12 12 0 0 0 34 12 12 21 21 34 21 21 34 0 0 0 0 0 0 39 35 39 21 12 21 34 12 12 0 0 0 34 12 12 0 0 0 23 17 39 34 21 21 28 28 46 21 21 34 21 12 21 0 0 0 0 0 0 34 34 34 34 21 21 21 21 34 0 0 0 0 0 0 0 0 0 0 0 0 0 0 0 0 0 0 0 0 0 0 0 0 34 21 21 0 0 0 0 0 0 0 0 0 21 21 34 0 0 0 0 0 0 0 0 0 21 21 34 0 0 0 28 28 46 0 0 0 0 0 0 0 0 0 0 0 0 0 0 0 0 0 0 21 12 21 34 21 21 0 0 0 21 21 34 0 0 0 0 0 0 0 0 0 0 0 0 0 0 0 0 0 0 0 0 0 0 0 0 34 34 34 0 0 0 39 28 39 34 21 21 0 0 0 0 0 0 0 0 0 0 0 0 39 28 39 0 0 0 34 21 21 21 12 21 21 12 21 34 21 21 34 21 21 0 0 0 0 0 0 34 21 21 0 0 0 0 0 0 0 0 0 0 0 0 0 0 0 34 21 21 0 0 0 0 0 0 21 12 21 0 0 0 39 28 39 0 0 0 21 21 34 0 0 0 0 0 0 28 28 46 21 21 34 0 0 0 21 21 34 0 0 0 0 0 0 0 0 0 12 12 34 0 0 0 34 21 21 0 0 0 0 0 0 21 21 34 0 0 0 0 0 0 0 0 0 0 0 0 34 12 12 0 0 0 0 0 0 0 0 0 0 0 0 34 12 12 0 0 0 34 21 21 0 0 0 39 17 23 46 28 28 39 28 39 0 0 0 21 12 21 39 23 28 28 28 46 0 0 0 21 21 34 0 0 0 0 0 0 0 0 0 21 12 21 21 21 34 0 0 0 0 0 0 0 0 0 21 12 21 12 12 34 0 0 0 0 0 0 40 40 56 21 21 34 21 21 34 28 28 46 0 0 0 0 0 0 23 17 39 0 0 0 21 12 21 0 0 0 21 21 34 0 0 0 0 0 0 0 0 0 21 21 34 12 12 34 0 0 0 0 0 0 21 21 34 21 21 34 0 0 0 0 0 0 0 0 0 23 17 39 0 0 0 0 0 0 12 12 34 21 21 34 35 35 46 0 0 0 21 21 34 21 12 21 0 0 0 0 0 0 39 23 28 0 0 0 0 0 0 0 0 0 28 23 39 0 0 0 34 21 21 34 12 12 0 0 0 34 12 12 0 0 0 0 0 0 21 21 34 0 0 0 39 23 28 0 0 0 0 0 0 21 12 21 0 0 0 34 12 12 50 30 34 21 21 34 0 0 0 34 12 12 43 30 43 21 12 21 21 21 34 39 23 28 0 0 0 0 0 0 34 12 12 0 0 0 39 23 28 0 0 0 0 0 0 0 0 0 34 21 21 0 0 0 0 0 0 0 0 0 0 0 0 0 0 0 0 0 0 0 0 0 0 0 0 21 21 34 39 23 28 0 0 0 21 21 34 12 12 34 0 0 0 0 0 0 12 12 34 21 21 34 21 21 34 21 12 21 0 0 0 39 23 28 0 0 0 12 12 34 0 0 0 0 0 0 0 0 0 0 0 0 39 23 28 28 23 39 21 12 21 39 23 28 34 21 21 0 0 0 0 0 0 0 0 0 0 0 0 39 23 28 34 21 21 0 0 0 12 12 34 34 21 21 0 0 0 50 26 30 34 12 12 34 34 34 39 28 39 0 0 0 0 0 0 43 37 43 0 0 0 21 21 34 0 0 0 0 0 0 21 12 21 0 0 0 0 0 0 21 12 21 0 0 0 0 0 0 0 0 0 0 0 0 43 30 43 0 0 0 0 0 0 21 21 34 21 12 21 0 0 0 0 0 0 0 0 0 12 12 34 0 0 0 0 0 0 0 0 0 21 21 34 21 21 34 0 0 0 0 0 0 0 0 0 0 0 0 0 0 0 21 21 34 12 12 34 21 21 34 39 23 28 12 12 34 21 21 34 0 0 0 0 0 0 0 0 0 0 0 0 0 0 0 39 23 28 0 0 0 0 0 0 0 0 0 0 0 0 39 28 39 0 0 0 46 28 28 0 0 0 34 21 21 39 28 39 0 0 0 0 0 0 0 0 0 21 21 34 0 0 0 0 0 0 34 21 21 0 0 0 0 0 0 0 0 0 0 0 0 34 12 12 39 23 28 34 21 21 0 0 0 0 0 0 0 0 0 0 0 0 34 21 21 0 0 0 0 0 0 0 0 0 0 0 0 0 0 0 0 0 0 34 34 34 12 12 34 21 21 34 12 12 34 28 17 28 12 8 21 0 0 0 21 21 34 0 0 0 12 12 34 0 0 0 0 0 0 0 0 0 0 0 0 39 35 39 21 21 34 0 0 0 0 0 0 0 0 0 0 0 0 12 12 34 0 0 0 0 0 0 34 21 21 0 0 0 0 0 0 0 0 0 0 0 0 0 0 0 0 0 0 0 0 0 21 8 12 0 0 0 21 21 34 21 12 21 39 22 23 0 0 0 0 0 0 34 21 21 0 0 0 0 0 0 34 21 21 0 0 0 34 21 21 0 0 0 21 12 21 34 21 21 34 34 34 0 0 0 0 0 0 0 0 0 0 0 0 0 0 0 0 0 0 34 12 12 39 23 28 0 0 0 34 21 21 0 0 0 0 0 0 39 35 39 21 12 21 46 28 28 34 21 21 34 21 21 34 34 34 39 28 39 21 21 34 21 21 34 21 12 21 21 21 34 0 0 0 23 17 39 0 0 0 0 0 0 0 0 0 21 21 34 34 12 12 0 0 0 34 21 21 21 12 21 0 0 0 21 12 21 21 12 21 12 12 34 0 0 0 0 0 0 0 0 0 0 0 0 0 0 0 21 21 34 34 12 12 12 12 34 39 17 23 34 34 34 0 0 0 34 21 21 21 12 21 34 21 21 21 12 21 34 21 21 0 0 0 0 0 0 0 0 0 46 23 23 34 12 12 21 12 21 21 12 21 0 0 0 0 0 0 0 0 0 35 22 28 21 21 34 0 0 0 0 0 0 21 21 34 21 12 21 0 0 0 21 12 21 0 0 0 0 0 0 0 0 0 0 0 0 0 0 0 34 12 12 21 21 34 21 12 21 28 28 46 0 0 0 12 12 34 0 0 0 12 8 21 0 0 0 21 21 34 40 30 50 21 12 21 34 21 21 0 0 0 0 0 0 0 0 0 0 0 0 0 0 0 0 0 0 0 0 0 26 26 56 21 12 21 0 0 0 0 0 0 39 17 23 21 21 34 34 21 21 35 23 39 0 0 0 50 34 43 0 0 0 0 0 0 34 21 21 0 0 0 21 21 34 21 12 21 0 0 0 21 12 21 0 0 0 21 12 21 34 21 21 0 0 0 34 21 21 0 0 0 0 0 0 0 0 0 21 12 21 34 12 12 0 0 0 0 0 0 34 21 21 12 12 34 0 0 0 34 21 21 0 0 0 34 12 12 21 8 12 0 0 0 0 0 0 0 0 0 21 12 21 0 0 0 0 0 0 0 0 0 34 21 21 0 0 0 0 0 0 0 0 0 0 0 0 0 0 0 21 21 34 0 0 0 0 0 0 28 23 39 0 0 0 0 0 0 0 0 0 39 28 39 0 0 0 0 0 0 46 28 28 12 12 34 0 0 0 21 12 21 0 0 0 0 0 0 0 0 0 0 0 0 0 0 0 21 21 34 0 0 0 0 0 0 0 0 0 0 0 0 0 0 0 34 21 21 0 0 0 0 0 0 46 28 28 0 0 0 34 21 21 46 28 28 39 17 23 0 0 0 0 0 0 34 21 21 34 21 21 0 0 0 0 0 0 0 0 0 21 12 21 50 26 30 21 12 21 21 12 21 28 22 35 0 0 0 0 0 0 0 0 0 0 0 0 34 21 21 0 0 0 0 0 0 34 12 12 21 8 12 34 21 21 34 21 21 0 0 0 21 12 21 0 0 0 0 0 0 0 0 0 40 26 47 0 0 0 34 30 50 0 0 0 21 12 21 0 0 0 21 12 21 0 0 0 0 0 0 0 0 0 0 0 0 21 12 21 34 21 21 34 21 21 0 0 0 34 34 34 28 17 28 12 12 34 0 0 0 0 0 0 0 0 0 0 0 0 21 12 21 21 21 34 0 0 0 21 21 34 0 0 0 0 0 0 34 21 21 0 0 0 21 12 21 0 0 0 0 0 0 0 0 0 0 0 0 21 21 34 0 0 0 0 0 0 21 12 21 39 23 28 0 0 0 0 0 0 0 0 0 21 8 12 0 0 0 21 12 21 21 12 21 0 0 0 0 0 0 0 0 0 0 0 0 23 17 39 0 0 0 0 0 0 0 0 0 0 0 0 34 21 21 34 12 12 21 12 21 21 12 21 0 0 0 0 0 0 0 0 0 21 12 21 0 0 0 0 0 0 0 0 0 0 0 0 0 0 0 0 0 0 0 0 0 0 0 0 0 0 0 12 12 34 0 0 0 21 12 21 0 0 0 0 0 0 0 0 0 21 21 34 0 0 0 0 0 0 0 0 0 21 21 34 41 31 53 0 0 0 0 0 0 0 0 0 12 12 34 0 0 0 39 17 23 0 0 0 28 28 46 0 0 0 0 0 0 46 23 23 34 12 12 0 0 0 0 0 0 0 0 0 0 0 0 0 0 0 0 0 0 0 0 0 21 12 21 21 8 12 0 0 0 34 12 12 0 0 0 34 12 12 34 21 21 35 23 39 12 12 34 0 0 0 21 12 21 0 0 0 21 12 21 34 21 21 34 21 21 0 0 0 0 0 0 0 0 0 39 17 23 0 0 0 0 0 0 0 0 0 0 0 0 39 23 35 28 28 46 0 0 0 0 0 0 0 0 0 0 0 0 0 0 0 0 0 0 12 12 34 0 0 0 0 0 0 28 23 39 0 0 0 12 12 34 28 28 46 28 23 39 21 21 34 21 12 21 0 0 0 0 0 0 0 0 0 34 34 34 21 12 21 0 0 0 0 0 0 21 21 34 0 0 0 0 0 0 21 21 34 21 12 21 0 0 0 50 37 40 39 23 35 34 21 21 46 28 28 0 0 0 0 0 0 34 34 34 0 0 0 0 0 0 0 0 0 34 12 12 0 0 0 0 0 0 46 28 28 34 21 21 0 0 0 0 0 0 21 12 21 12 12 34 34 34 34 0 0 0 0 0 0 46 23 23 0 0 0 0 0 0 0 0 0 0 0 0 0 0 0 39 28 39 0 0 0 21 12 21 0 0 0 34 21 21 12 12 34 0 0 0 0 0 0 0 0 0 28 17 28 21 12 21 0 0 0 12 12 34 0 0 0 0 0 0 34 34 34 21 21 34 0 0 0 0 0 0 0 0 0 30 30 56 21 12 21 39 23 28 0 0 0 0 0 0 0 0 0 21 12 21 0 0 0 21 21 34 21 21 34 0 0 0 0 0 0 34 12 12 34 21 21 35 17 35 0 0 0 21 12 21 21 12 21 0 0 0 0 0 0 21 21 34 21 21 34 21 12 21 0 0 0 0 0 0 34 21 21 0 0 0 34 12 12 0 0 0 0 0 0 0 0 0 0 0 0 34 21 21 34 21 21 12 12 34 0 0 0 0 0 0 21 21 34 0 0 0 21 21 34 56 43 43 0 0 0 0 0 0 34 12 12 0 0 0 21 12 21 0 0 0 0 0 0 0 0 0 21 12 21 34 21 21 28 17 28 0 0 0 0 0 0 0 0 0 12 12 34 21 21 34 21 12 21 0 0 0 0 0 0 0 0 0 0 0 0 12 12 34 28 23 39 21 12 21 21 12 21 0 0 0 39 28 39 0 0 0 0 0 0 12 12 34 0 0 0 0 0 0 21 21 34 21 21 34 0 0 0 0 0 0 0 0 0 0 0 0 21 12 21 0 0 0 0 0 0 0 0 0 21 12 21 0 0 0 34 12 12 0 0 0 0 0 0 0 0 0 0 0 0 34 34 34 21 12 21 21 12 21 0 0 0 0 0 0 34 12 12 0 0 0 0 0 0 21 21 34 0 0 0 0 0 0 0 0 0 0 0 0 0 0 0 0 0 0 34 21 21 34 21 21 34 21 21 0 0 0 21 12 21 0 0 0 0 0 0 39 23 28 34 34 34 0 0 0 0 0 0 0 0 0 39 23 28 21 21 34 12 12 34 21 21 34 0 0 0 21 21 34 0 0 0 0 0 0 0 0 0 21 12 21 0 0 0 28 23 39 0 0 0 21 21 34 0 0 0 21 21 34 0 0 0 28 23 39 0 0 0 21 21 34 21 21 34 0 0 0 0 0 0 0 0 0 0 0 0 0 0 0 0 0 0 21 12 21 34 12 12 34 21 21 21 21 34 0 0 0 0 0 0 0 0 0 46 28 28 0 0 0 21 12 21 39 22 23 21 8 12 0 0 0 21 21 34 0 0 0 34 12 12 34 12 12 0 0 0 34 12 12 0 0 0 34 21 21 0 0 0 21 12 21 0 0 0 0 0 0 0 0 0 0 0 0 12 12 34 0 0 0 0 0 0 46 28 28 0 0 0 0 0 0 23 14 28 21 12 21 0 0 0 0 0 0 0 0 0 0 0 0 0 0 0 0 0 0 34 21 21 0 0 0 0 0 0 21 21 34 0 0 0 0 0 0 12 12 34 0 0 0 0 0 0 30 26 50 28 28 46 0 0 0 12 12 34 0 0 0 0 0 0 34 21 21 0 0 0 0 0 0 0 0 0 0 0 0 0 0 0 21 12 21 21 12 21 0 0 0 34 21 21 0 0 0 39 17 23 0 0 0 21 12 21 0 0 0 0 0 0 0 0 0 0 0 0 34 12 12 39 23 28 0 0 0 0 0 0 0 0 0 34 12 12 21 21 34 0 0 0 21 12 21 0 0 0 0 0 0 28 23 39 23 22 39 0 0 0 21 21 34 0 0 0 0 0 0 34 21 21 0 0 0 0 0 0 21 8 12 0 0 0 34 12 12 0 0 0 34 12 12 21 21 34 0 0 0 21 21 34 21 12 21 0 0 0 21 21 34 21 12 21 21 12 21 0 0 0 0 0 0 0 0 0 0 0 0 21 21 34 0 0 0 21 21 34 0 0 0 0 0 0 0 0 0 23 17 39 0 0 0 0 0 0 0 0 0 21 21 34 0 0 0 0 0 0 0 0 0 0 0 0 0 0 0 34 21 21 21 12 21 0 0 0 0 0 0 0 0 0 0 0 0 0 0 0 0 0 0 0 0 0 0 0 0 0 0 0 34 21 21 0 0 0 0 0 0 0 0 0 0 0 0 0 0 0 21 12 21 34 12 12 0 0 0 0 0 0 34 21 21 21 12 21 0 0 0 23 23 46 34 21 21 0 0 0 0 0 0 21 12 21 21 21 34 34 12 12 21 21 34 34 21 21 0 0 0 0 0 0 34 21 21 0 0 0 0 0 0 21 12 21 39 23 28 28 17 28 28 17 28 34 21 21 0 0 0 12 12 34 21 21 34 0 0 0 0 0 0 0 0 0 0 0 0 0 0 0 0 0 0 0 0 0 21 21 34 34 21 21 21 21 34 0 0 0 12 12 34 0 0 0 0 0 0 21 12 21 0 0 0 0 0 0 0 0 0 34 21 21 34 21 21 0 0 0 0 0 0 0 0 0 34 34 34 0 0 0 0 0 0 34 21 21 0 0 0 21 21 34 34 21 21 0 0 0 34 12 12 0 0 0 0 0 0 0 0 0 34 12 12 0 0 0 21 8 12 21 12 21 34 21 21 0 0 0 0 0 0 21 21 34 0 0 0 34 21 21 0 0 0 0 0 0 34 21 21 0 0 0 34 21 21 0 0 0 0 0 0 0 0 0 21 21 34 47 33 50 0 0 0 21 21 34 28 17 28 0 0 0 0 0 0 0 0 0 0 0 0 0 0 0 0 0 0 0 0 0 0 0 0 0 0 0 0 0 0 12 8 21 0 0 0 21 21 34 21 12 21 0 0 0 30 21 43 30 26 50 0 0 0 0 0 0 0 0 0 0 0 0 0 0 0 0 0 0 21 12 21 21 12 21 0 0 0 34 21 21 0 0 0 0 0 0 0 0 0 34 21 21 0 0 0 34 21 21 0 0 0 46 23 23 0 0 0 0 0 0 0 0 0 21 21 34 0 0 0 0 0 0 21 12 21 0 0 0 0 0 0 28 23 39 0 0 0 0 0 0 34 21 21 0 0 0 0 0 0 0 0 0 34 21 21 0 0 0 34 21 21 0 0 0 0 0 0 39 28 39 0 0 0 0 0 0 0 0 0 21 12 21 21 21 34 0 0 0 0 0 0 0 0 0 0 0 0 0 0 0 0 0 0 0 0 0 0 0 0 0 0 0 0 0 0 0 0 0 0 0 0 0 0 0 0 0 0 28 23 39 21 21 34 0 0 0 0 0 0 0 0 0 0 0 0 0 0 0 0 0 0 0 0 0 0 0 0 0 0 0 0 0 0 0 0 0 34 21 21 0 0 0 0 0 0 0 0 0 34 21 21 0 0 0 0 0 0 0 0 0 0 0 0 39 28 39 0 0 0 0 0 0 0 0 0 21 12 21 0 0 0 0 0 0 0 0 0 0 0 0 21 12 21 0 0 0 0 0 0 34 21 21 56 30 30 0 0 0 0 0 0 21 21 34 0 0 0 21 12 21 34 21 21 0 0 0 0 0 0 21 21 34 50 26 30 0 0 0 0 0 0 39 23 28 28 23 39 21 12 21 0 0 0 12 8 21 0 0 0 12 12 34 0 0 0 0 0 0 21 21 34 0 0 0 0 0 0 0 0 0 0 0 0 12 12 34 0 0 0 0 0 0 0 0 0 0 0 0 23 17 39 0 0 0 0 0 0 0 0 0 0 0 0 0 0 0 0 0 0 0 0 0 34 21 21 0 0 0 0 0 0 0 0 0 0 0 0 39 28 39 0 0 0 46 28 28 34 21 21 21 21 34 0 0 0 0 0 0 0 0 0 0 0 0 0 0 0 0 0 0 0 0 0 0 0 0 0 0 0 21 12 21 21 12 21 0 0 0 0 0 0 0 0 0 0 0 0 39 17 23 21 12 21 21 12 21 21 21 34 0 0 0 21 12 21 21 21 34 0 0 0 46 28 28 21 21 34 0 0 0 39 35 39 0 0 0 43 26 40 0 0 0 12 12 34 0 0 0 0 0 0 21 12 21 0 0 0 0 0 0 0 0 0 0 0 0 0 0 0 12 12 34 0 0 0 0 0 0 0 0 0 0 0 0 35 22 28 21 12 21 0 0 0 0 0 0 0 0 0 21 12 21 12 12 34 21 12 21 0 0 0 23 23 46 39 28 39 34 12 12 0 0 0 0 0 0 21 12 21 0 0 0 0 0 0 34 12 12 0 0 0 0 0 0 21 12 21 0 0 0 0 0 0 21 12 21 0 0 0 0 0 0 34 34 34 0 0 0 0 0 0 46 17 17 0 0 0 34 12 12 34 12 12 46 28 28 21 12 21 0 0 0 34 21 21 0 0 0 0 0 0 0 0 0 39 28 39 0 0 0 21 21 34 34 21 21 28 23 39 0 0 0 0 0 0 34 12 12 34 21 21 0 0 0 0 0 0 0 0 0 21 12 21 0 0 0 28 23 39 0 0 0 28 23 39 21 12 21 0 0 0 28 28 46 0 0 0 0 0 0 0 0 0 0 0 0 0 0 0 0 0 0 0 0 0 0 0 0 0 0 0 0 0 0 0 0 0 0 0 0 34 12 12 12 8 21 0 0 0 0 0 0 0 0 0 0 0 0 0 0 0 0 0 0 0 0 0 34 21 21 0 0 0 0 0 0 28 17 28 0 0 0 21 12 21 21 12 21 0 0 0 0 0 0 34 12 12 0 0 0 0 0 0 0 0 0 0 0 0 0 0 0 0 0 0 0 0 0 0 0 0 34 12 12 21 21 34 0 0 0 21 12 21 39 39 46 21 12 21 0 0 0 0 0 0 0 0 0 21 12 21 0 0 0 0 0 0 21 12 21 0 0 0 21 12 21 0 0 0 21 12 21 21 12 21 0 0 0 0 0 0 0 0 0 0 0 0 28 17 28 0 0 0 23 23 46 0 0 0 21 21 34 21 12 21 0 0 0 0 0 0 21 12 21 0 0 0 0 0 0 0 0 0 0 0 0 0 0 0 0 0 0 34 21 21 21 12 21 34 21 21 0 0 0 0 0 0 0 0 0 12 8 21 43 30 43 0 0 0 21 12 21 34 21 21 39 17 23 0 0 0 0 0 0 0 0 0 46 28 28 0 0 0 21 21 34 0 0 0 0 0 0 0 0 0 0 0 0 0 0 0 21 12 21 34 21 21 39 23 35 0 0 0 21 12 21 35 17 35 28 23 39 0 0 0 21 12 21 21 12 21 0 0 0 0 0 0 0 0 0 0 0 0 0 0 0 21 21 34 21 21 34 0 0 0 0 0 0 39 35 39 21 12 21 34 21 21 0 0 0 23 23 46 0 0 0 12 12 34 0 0 0 23 14 28 0 0 0 34 21 21 0 0 0 0 0 0 21 21 34 21 12 21 0 0 0 0 0 0 0 0 0 0 0 0 43 34 50 34 34 34 21 21 34 0 0 0 34 21 21 0 0 0 0 0 0 0 0 0 21 12 21 34 21 21 46 28 28 0 0 0 0 0 0 0 0 0 34 12 12 0 0 0 39 17 23 34 12 12 34 21 21 28 17 28 0 0 0 0 0 0 0 0 0 0 0 0 0 0 0 21 21 34 50 26 30 0 0 0 0 0 0 0 0 0 0 0 0 0 0 0 0 0 0 0 0 0 34 21 21 34 34 34 0 0 0 0 0 0 0 0 0 0 0 0 0 0 0 0 0 0 0 0 0 0 0 0 0 0 0 21 21 34 12 12 34 0 0 0 0 0 0 0 0 0 0 0 0 21 21 34 21 21 34 0 0 0 28 23 39 21 12 21 21 21 34 0 0 0 21 21 34 43 37 43 21 12 21 0 0 0 0 0 0 21 21 34 23 22 39 0 0 0 21 12 21 0 0 0 0 0 0 0 0 0 0 0 0 34 12 12 34 21 21 0 0 0 0 0 0 46 28 28 28 17 28 34 21 21 0 0 0 34 21 21 0 0 0 39 23 28 0 0 0 0 0 0 21 12 21 21 21 34 0 0 0 0 0 0 0 0 0 21 12 21 0 0 0 34 21 21 0 0 0 0 0 0 0 0 0 0 0 0 21 21 34 0 0 0 0 0 0 39 28 39 12 12 34 0 0 0 0 0 0 0 0 0 0 0 0 21 12 21 0 0 0 0 0 0 0 0 0 0 0 0 39 23 28 0 0 0 21 21 34 0 0 0 0 0 0 0 0 0 21 21 34 0 0 0 0 0 0 12 12 34 0 0 0 21 12 21 0 0 0 0 0 0 0 0 0 0 0 0 28 23 39 0 0 0 21 12 21 0 0 0 34 34 34 0 0 0 0 0 0 34 24 40 34 21 21 0 0 0 0 0 0 21 21 34 28 23 39 34 21 21 0 0 0 0 0 0 21 12 21 0 0 0 21 12 21 0 0 0 0 0 0 34 12 12 0 0 0 21 12 21 50 30 34 0 0 0 0 0 0 0 0 0 0 0 0 43 26 34 0 0 0 34 21 21 0 0 0 0 0 0 34 21 21 12 8 21 0 0 0 21 21 34 0 0 0 0 0 0 0 0 0 0 0 0 0 0 0 39 23 28 21 12 21 0 0 0 39 39 46 34 21 21 0 0 0 0 0 0 0 0 0 0 0 0 0 0 0 0 0 0 0 0 0 34 21 21 0 0 0 0 0 0 0 0 0 0 0 0 0 0 0 0 0 0 0 0 0 0 0 0 0 0 0 21 12 21 0 0 0 0 0 0 0 0 0 21 8 12 0 0 0 0 0 0 0 0 0 0 0 0 0 0 0 0 0 0 21 12 21 0 0 0 21 12 21 28 23 39 46 23 23 0 0 0 0 0 0 0 0 0 0 0 0 46 28 28 0 0 0 0 0 0 34 12 12 0 0 0 0 0 0 0 0 0 21 12 21 0 0 0 46 28 28 0 0 0 0 0 0 34 21 21 39 28 39 0 0 0 0 0 0 0 0 0 0 0 0 0 0 0 21 12 21 21 21 34 0 0 0 0 0 0 0 0 0 34 21 21 0 0 0 21 21 34 23 23 46 21 12 21 0 0 0 0 0 0 0 0 0 0 0 0 21 21 34 28 28 46 0 0 0 0 0 0 12 12 34 28 23 39 0 0 0 0 0 0 23 17 39 21 12 21 0 0 0 21 21 34 0 0 0 21 21 34 34 34 34 0 0 0 0 0 0 39 23 28 34 21 21 0 0 0 35 14 23 0 0 0 0 0 0 0 0 0 0 0 0 34 12 12 0 0 0 0 0 0 0 0 0 0 0 0 0 0 0 0 0 0 0 0 0 0 0 0 0 0 0 0 0 0 21 12 21 21 21 34 0 0 0 50 26 30 21 12 21 21 21 34 0 0 0 21 12 21 0 0 0 21 21 34 34 21 21 12 12 34 23 22 39 0 0 0 0 0 0 0 0 0 0 0 0 0 0 0 0 0 0 21 12 21 0 0 0 0 0 0 21 21 34 0 0 0 34 21 21 0 0 0 21 12 21 0 0 0 0 0 0 12 12 34 0 0 0 0 0 0 0 0 0 0 0 0 0 0 0 0 0 0 0 0 0 46 35 35 0 0 0 28 17 28 0 0 0 21 21 34 0 0 0 0 0 0 0 0 0 21 12 21 0 0 0 21 12 21 12 12 34 0 0 0 0 0 0 0 0 0 34 12 12 21 12 21 21 12 21 0 0 0 21 21 34 21 12 21 0 0 0 0 0 0 0 0 0 34 12 12 21 12 21 21 12 21 21 12 21 0 0 0 0 0 0 0 0 0 0 0 0 50 26 30 0 0 0 23 17 39 0 0 0 21 21 34 0 0 0 34 21 21 21 12 21 34 21 21 0 0 0 0 0 0 0 0 0 0 0 0 21 12 21 0 0 0 0 0 0 28 23 39 0 0 0 0 0 0 21 12 21 21 21 34 0 0 0 0 0 0 0 0 0 0 0 0 12 8 21 0 0 0 0 0 0 0 0 0 0 0 0 0 0 0 0 0 0 0 0 0 21 12 21 0 0 0 0 0 0 0 0 0 0 0 0 0 0 0 0 0 0 28 14 23 0 0 0 0 0 0 0 0 0 28 17 28 21 12 21 0 0 0 0 0 0 0 0 0 39 22 23 46 28 28 0 0 0 0 0 0 34 21 21 0 0 0 0 0 0 0 0 0 34 21 21 21 8 12 39 23 28 0 0 0 21 8 12 46 28 28 46 28 28 0 0 0 0 0 0 0 0 0 28 28 46 0 0 0 34 34 34 21 12 21 0 0 0 21 12 21 0 0 0 0 0 0 0 0 0 0 0 0 0 0 0 0 0 0 34 21 21 0 0 0 0 0 0 23 17 39 21 21 34 21 12 21 21 21 34 0 0 0 0 0 0 0 0 0 0 0 0 21 12 21 0 0 0 0 0 0 0 0 0 21 12 21 21 21 34 0 0 0 0 0 0 0 0 0 0 0 0 0 0 0 0 0 0 0 0 0 34 21 21 21 12 21 0 0 0 34 21 21 39 23 28 0 0 0 0 0 0 0 0 0 0 0 0 34 12 12 46 23 23 0 0 0 0 0 0 0 0 0 0 0 0 0 0 0 34 21 21 0 0 0 34 12 12 0 0 0 34 12 12 0 0 0 34 21 21 21 21 34 0 0 0 0 0 0 0 0 0 0 0 0 28 23 39 12 12 34 0 0 0 21 12 21 0 0 0 0 0 0 39 17 23 21 8 12 0 0 0 0 0 0 0 0 0 0 0 0 34 21 21 0 0 0 12 12 34 17 14 39 23 17 39 0 0 0 21 21 34 12 12 34 0 0 0 34 34 34 21 12 21 0 0 0 12 12 34 0 0 0 0 0 0 0 0 0 0 0 0 0 0 0 12 12 34 0 0 0 0 0 0 0 0 0 0 0 0 0 0 0 0 0 0 0 0 0 46 28 28 0 0 0 0 0 0 39 28 39 0 0 0 0 0 0 0 0 0 28 17 28 21 12 21 0 0 0 0 0 0 56 34 34 21 12 21 0 0 0 0 0 0 21 12 21 21 12 21 34 21 21 0 0 0 0 0 0 34 21 21 39 17 23 0 0 0 0 0 0 0 0 0 0 0 0 0 0 0 0 0 0 0 0 0 28 17 28 0 0 0 0 0 0 39 28 39 0 0 0 0 0 0 21 12 21 0 0 0 21 12 21 21 21 34 0 0 0 0 0 0 12 8 21 0 0 0 23 23 46 0 0 0 0 0 0 0 0 0 21 21 34 0 0 0 0 0 0 0 0 0 0 0 0 21 12 21 0 0 0 21 8 12 0 0 0 21 12 21 0 0 0 39 39 46 0 0 0 0 0 0 0 0 0 0 0 0 34 21 21 0 0 0 21 8 12 0 0 0 0 0 0 0 0 0 0 0 0 34 12 12 34 21 21 34 21 21 0 0 0 0 0 0 34 21 21 34 21 21 0 0 0 0 0 0 0 0 0 0 0 0 0 0 0 0 0 0 46 28 28 0 0 0 34 21 21 0 0 0 43 30 47 0 0 0 21 21 34 21 12 21 21 12 21 0 0 0 0 0 0 0 0 0 21 21 34 0 0 0 0 0 0 21 12 21 21 12 21 0 0 0 0 0 0 0 0 0 0 0 0 21 12 21 21 12 21 34 30 50 34 30 50 0 0 0 23 17 39 0 0 0 0 0 0 0 0 0 0 0 0 0 0 0 0 0 0 0 0 0 0 0 0 0 0 0 0 0 0 0 0 0 0 0 0 0 0 0 21 12 21 34 21 21 0 0 0 0 0 0 0 0 0 21 12 21 34 21 21 34 12 12 0 0 0 0 0 0 0 0 0 28 23 39 0 0 0 21 12 21 0 0 0 0 0 0 0 0 0 34 21 21 0 0 0 0 0 0 34 12 12 0 0 0 0 0 0 0 0 0 0 0 0 0 0 0 0 0 0 0 0 0 21 21 34 34 12 12 0 0 0 0 0 0 12 12 34 0 0 0 0 0 0 0 0 0 34 12 12 0 0 0 0 0 0 34 12 12 0 0 0 0 0 0 0 0 0 0 0 0 0 0 0 21 21 34 0 0 0 21 12 21 0 0 0 0 0 0 0 0 0 0 0 0 0 0 0 12 12 34 0 0 0 0 0 0 21 12 21 0 0 0 0 0 0 23 14 28 0 0 0 21 21 34 21 12 21 0 0 0 0 0 0 0 0 0 34 12 12 0 0 0 0 0 0 0 0 0 0 0 0 34 34 34 0 0 0 0 0 0 28 23 39 43 26 34 34 21 21 28 23 39 21 12 21 0 0 0 21 12 21 0 0 0 0 0 0 0 0 0 21 12 21 21 12 21 0 0 0 0 0 0 21 8 12 21 12 21 0 0 0 0 0 0 0 0 0 0 0 0 0 0 0 12 12 34 21 12 21 21 21 34 21 12 21 0 0 0 0 0 0 35 22 28 0 0 0 0 0 0 0 0 0 21 21 34 34 21 21 21 12 21 0 0 0 0 0 0 0 0 0 0 0 0 21 12 21 0 0 0 21 12 21 0 0 0 40 24 34 28 23 39 0 0 0 21 12 21 0 0 0 34 34 34 0 0 0 0 0 0 21 21 34 39 23 28 0 0 0 0 0 0 21 12 21 0 0 0 21 12 21 21 12 21 0 0 0 21 8 12 0 0 0 34 21 21 0 0 0 34 21 21 0 0 0 0 0 0 34 12 12 0 0 0 34 21 21 34 12 12 0 0 0 21 12 21 34 21 21 0 0 0 21 12 21 34 21 21 34 21 21 34 12 12 0 0 0 0 0 0 0 0 0 39 23 28 34 21 21 34 12 12 0 0 0 34 21 21 0 0 0 0 0 0 0 0 0 0 0 0 34 12 12 21 21 34 21 12 21 0 0 0 35 17 35 39 23 35 0 0 0 0 0 0 0 0 0 12 12 34 0 0 0 21 21 34 0 0 0 0 0 0 21 21 34 34 34 34 12 12 34 21 12 21 0 0 0 28 28 46 0 0 0 0 0 0 0 0 0 0 0 0 0 0 0 0 0 0 21 12 21 21 12 21 28 23 39 0 0 0 34 21 21 0 0 0 0 0 0 0 0 0 0 0 0 34 34 34 50 26 30 34 12 12 39 28 39 34 21 21 0 0 0 0 0 0 34 21 21 21 21 34 34 21 21 0 0 0 34 21 21 0 0 0 34 12 12 0 0 0 34 12 12 0 0 0 0 0 0 34 21 21 0 0 0 21 12 21 0 0 0 0 0 0 0 0 0 0 0 0 21 12 21 0 0 0 21 21 34 0 0 0 0 0 0 0 0 0 34 12 12 34 21 21 0 0 0 12 12 34 0 0 0 0 0 0 0 0 0 21 21 34 0 0 0 21 21 34 21 12 21 0 0 0 28 28 46 0 0 0 0 0 0 0 0 0 0 0 0 0 0 0 0 0 0 12 12 34 0 0 0 0 0 0 12 12 34 21 8 12 21 21 34 0 0 0 21 12 21 12 12 34 0 0 0 0 0 0 0 0 0 34 21 21 0 0 0 34 21 21 0 0 0 0 0 0 0 0 0 0 0 0 0 0 0 34 12 12 0 0 0 39 28 39 46 23 23 0 0 0 0 0 0 34 12 12 0 0 0 0 0 0 21 21 34 0 0 0 0 0 0 0 0 0 0 0 0 34 21 21 21 21 34 0 0 0 39 23 28 34 21 21 21 12 21 0 0 0 34 12 12 0 0 0 21 21 34 0 0 0 0 0 0 21 12 21 28 23 39 34 21 21 21 12 21 21 12 21 21 21 34 0 0 0 0 0 0 0 0 0 0 0 0 0 0 0 0 0 0 12 8 21 0 0 0 28 23 39 21 21 34 21 21 34 0 0 0 21 12 21 21 12 21 0 0 0 0 0 0 0 0 0 0 0 0 0 0 0 0 0 0 0 0 0 0 0 0 0 0 0 0 0 0 34 21 21 0 0 0 0 0 0 34 21 21 0 0 0 28 23 39 39 17 23 21 12 21 39 17 23 21 12 21 21 21 34 0 0 0 0 0 0 21 12 21 0 0 0 34 21 21 34 21 21 34 21 21 39 23 28 34 21 21 34 12 12 34 21 21 21 21 34 21 12 21 44 31 51 0 0 0 21 12 21 34 21 21 0 0 0 0 0 0 21 21 34 0 0 0 0 0 0 34 34 34 0 0 0 0 0 0 34 21 21 0 0 0 0 0 0 21 12 21 0 0 0 0 0 0 0 0 0 0 0 0 21 12 21 12 12 34 34 21 21 0 0 0 0 0 0 0 0 0 0 0 0 0 0 0 0 0 0 23 17 39 21 21 34 34 21 21 12 12 34 12 12 34 0 0 0 0 0 0 0 0 0 0 0 0 0 0 0 21 21 34 0 0 0 0 0 0 0 0 0 0 0 0 0 0 0 0 0 0 34 21 21 34 21 21 0 0 0 0 0 0 0 0 0 39 23 28 56 21 21 0 0 0 0 0 0 0 0 0 21 12 21 46 23 23 21 12 21 21 12 21 0 0 0 0 0 0 0 0 0 21 12 21 0 0 0 34 21 21 21 21 34 0 0 0 34 21 21 0 0 0 0 0 0 0 0 0 23 23 46 0 0 0 0 0 0 0 0 0 0 0 0 0 0 0 34 21 21 21 12 21 0 0 0 0 0 0 0 0 0 21 8 12 21 12 21 0 0 0 0 0 0 21 12 21 0 0 0 0 0 0 0 0 0 0 0 0 0 0 0 0 0 0 0 0 0 12 12 34 0 0 0 34 21 21 21 21 34 0 0 0 0 0 0 0 0 0 0 0 0 0 0 0 0 0 0 34 21 21 0 0 0 12 8 21 0 0 0 0 0 0 34 12 12 0 0 0 0 0 0 34 21 21 21 12 21 0 0 0 0 0 0 0 0 0 34 21 21 21 12 21 0 0 0 34 21 21 46 39 39 46 23 23 34 12 12 0 0 0 0 0 0 21 12 21 46 28 28 0 0 0 0 0 0 0 0 0 0 0 0 0 0 0 0 0 0 0 0 0 21 12 21 0 0 0 28 28 46 12 8 21 0 0 0 34 21 21 0 0 0 0 0 0 0 0 0 0 0 0 0 0 0 0 0 0 0 0 0 34 21 21 0 0 0 21 21 34 0 0 0 0 0 0 0 0 0 0 0 0 0 0 0 0 0 0 0 0 0 0 0 0 0 0 0 0 0 0 0 0 0 0 0 0 0 0 0 21 12 21 34 21 21 34 21 21 0 0 0 0 0 0 0 0 0 34 21 21 0 0 0 46 23 23 0 0 0 0 0 0 34 21 21 46 23 23 0 0 0 0 0 0 0 0 0 21 12 21 0 0 0 0 0 0 0 0 0 34 12 12 46 17 17 34 12 12 39 22 23 23 17 39 0 0 0 0 0 0 0 0 0 0 0 0 34 21 21 0 0 0 0 0 0 0 0 0 21 12 21 21 12 21 21 12 21 0 0 0 0 0 0 0 0 0 0 0 0 21 21 34 21 8 12 21 21 34 0 0 0 21 21 34 0 0 0 34 21 21 0 0 0 0 0 0 0 0 0 0 0 0 0 0 0 21 12 21 0 0 0 0 0 0 0 0 0 0 0 0 0 0 0 0 0 0 28 17 28 0 0 0 0 0 0 0 0 0 0 0 0 0 0 0 34 21 21 0 0 0 0 0 0 0 0 0 0 0 0 39 35 39 0 0 0 34 21 21 34 12 12 34 21 21 0 0 0 0 0 0 0 0 0 0 0 0 0 0 0 0 0 0 0 0 0 0 0 0 34 21 21 0 0 0 21 21 34 0 0 0 21 12 21 34 21 21 21 12 21 21 21 34 0 0 0 0 0 0 34 12 12 0 0 0 0 0 0 34 21 21 21 12 21 0 0 0 0 0 0 21 12 21 0 0 0 0 0 0 0 0 0 39 23 28 0 0 0 0 0 0 0 0 0 12 12 34 21 21 34 0 0 0 34 12 12 12 12 34 21 12 21 0 0 0 0 0 0 39 39 63 0 0 0 0 0 0 0 0 0 21 21 34 0 0 0 0 0 0 21 12 21 0 0 0 21 12 21 0 0 0 0 0 0 0 0 0 0 0 0 0 0 0 0 0 0 34 21 21 56 30 30 0 0 0 0 0 0 34 21 21 0 0 0 0 0 0 21 12 21 0 0 0 0 0 0 0 0 0 0 0 0 21 21 34 0 0 0 0 0 0 0 0 0 34 12 12 0 0 0 46 28 28 34 12 12 46 28 44 12 8 21 21 12 21 21 12 21 0 0 0 0 0 0 39 28 39 0 0 0 0 0 0 21 12 21 21 12 21 46 28 28 0 0 0 0 0 0 0 0 0 0 0 0 0 0 0 21 12 21 21 12 21 0 0 0 28 23 39 0 0 0 0 0 0 21 21 34 34 34 34 21 21 34 0 0 0 21 21 34 39 28 39 0 0 0 0 0 0 0 0 0 0 0 0 21 21 34 12 12 34 0 0 0 0 0 0 21 21 34 0 0 0 0 0 0 0 0 0 21 21 34 34 12 12 34 12 12 0 0 0 34 21 21 0 0 0 0 0 0 0 0 0 46 28 28 34 21 21 0 0 0 34 21 21 34 12 12 21 12 21 0 0 0 0 0 0 0 0 0 34 21 21 21 12 21 0 0 0 21 12 21 34 21 21 34 21 21 39 23 35 0 0 0 39 23 35 21 21 34 39 23 28 12 12 34 0 0 0 0 0 0 0 0 0 21 21 34 0 0 0 0 0 0 0 0 0 34 21 21 0 0 0 0 0 0 0 0 0 21 21 34 12 12 34 0 0 0 0 0 0 0 0 0 0 0 0 39 28 39 23 17 39 23 17 39 0 0 0 0 0 0 0 0 0 0 0 0 0 0 0 21 21 34 0 0 0 0 0 0 0 0 0 0 0 0 0 0 0 0 0 0 0 0 0 0 0 0 0 0 0 34 21 21 34 21 21 0 0 0 0 0 0 46 23 23 0 0 0 0 0 0 0 0 0 0 0 0 34 21 21 0 0 0 0 0 0 21 21 34 0 0 0 0 0 0 21 12 21 21 12 21 0 0 0 39 23 28 0 0 0 34 12 12 0 0 0 34 12 12 0 0 0 0 0 0 0 0 0 21 21 34 0 0 0 21 12 21 0 0 0 0 0 0 0 0 0 34 21 21 0 0 0 0 0 0 0 0 0 21 21 34 21 12 21 34 21 21 12 12 34 21 21 34 0 0 0 12 12 34 0 0 0 21 8 12 0 0 0 0 0 0 0 0 0 0 0 0 0 0 0 0 0 0 12 12 34 28 23 39 21 12 21 0 0 0 0 0 0 0 0 0 0 0 0 0 0 0 0 0 0 0 0 0 12 12 34 0 0 0 0 0 0 0 0 0 0 0 0 0 0 0 0 0 0 46 23 23 0 0 0 0 0 0 0 0 0 34 21 21 0 0 0 0 0 0 0 0 0 0 0 0 21 12 21 0 0 0 34 12 12 0 0 0 21 12 21 34 12 12 0 0 0 46 17 17 0 0 0 39 23 28 0 0 0 0 0 0 0 0 0 0 0 0 0 0 0 34 21 21 0 0 0 0 0 0 21 21 34 0 0 0 0 0 0 0 0 0 21 21 34 0 0 0 21 12 21 0 0 0 34 21 21 0 0 0 0 0 0 0 0 0 28 17 28 0 0 0 0 0 0 0 0 0 0 0 0 21 21 34 21 21 34 21 12 21 0 0 0 0 0 0 12 12 34 21 21 34 0 0 0 21 21 34 0 0 0 0 0 0 21 21 34 0 0 0 0 0 0 34 34 34 0 0 0 0 0 0 0 0 0 0 0 0 0 0 0 46 17 17 34 12 12 34 21 21 34 21 21 0 0 0 34 21 21 34 21 21 0 0 0 0 0 0 0 0 0 0 0 0 46 28 28 0 0 0 0 0 0 21 12 21 34 21 21 0 0 0 0 0 0 0 0 0 0 0 0 34 21 21 0 0 0 0 0 0 0 0 0 0 0 0 21 12 21 12 12 34 35 23 39 21 21 34 39 23 35 0 0 0 0 0 0 0 0 0 12 12 34 12 12 34 21 12 21 23 23 46 21 12 21 34 21 21 0 0 0 34 21 21 12 8 21 21 21 34 23 17 39 0 0 0 21 12 21 23 23 46 0 0 0 0 0 0 0 0 0 0 0 0 21 21 34 21 12 21 0 0 0 0 0 0 0 0 0 0 0 0 0 0 0 0 0 0 0 0 0 0 0 0 0 0 0 46 23 23 34 21 21 0 0 0 0 0 0 0 0 0 34 21 21 0 0 0 0 0 0 34 21 21 0 0 0 34 12 12 0 0 0 0 0 0 0 0 0 0 0 0 0 0 0 34 21 21 46 23 23 0 0 0 28 23 39 46 23 23 0 0 0 12 12 34 0 0 0 21 21 34 21 12 21 0 0 0 0 0 0 0 0 0 0 0 0 21 12 21 34 21 21 34 34 34 12 12 34 0 0 0 0 0 0 0 0 0 0 0 0 0 0 0 21 21 34 12 12 34 0 0 0 21 21 34 0 0 0 21 12 21 0 0 0 0 0 0 23 17 39 12 12 34 12 12 34 39 28 39 0 0 0 0 0 0 0 0 0 12 12 34 34 21 21 0 0 0 39 28 39 34 21 21 0 0 0 0 0 0 0 0 0 0 0 0 50 26 30 34 21 21 34 21 21 0 0 0 0 0 0 46 28 28 0 0 0 0 0 0 0 0 0 0 0 0 0 0 0 0 0 0 0 0 0 0 0 0 0 0 0 0 0 0 21 12 21 0 0 0 34 12 12 0 0 0 0 0 0 21 21 34 21 12 21 0 0 0 0 0 0 0 0 0 28 28 46 0 0 0 0 0 0 0 0 0 34 21 21 34 21 21 34 34 34 21 21 34 12 8 21 28 28 46 0 0 0 23 17 39 0 0 0 0 0 0 21 12 21 0 0 0 0 0 0 0 0 0 0 0 0 0 0 0 0 0 0 0 0 0 21 12 21 28 28 46 21 12 21 0 0 0 0 0 0 0 0 0 0 0 0 0 0 0 21 21 34 0 0 0 34 21 21 0 0 0 0 0 0 34 34 34 28 23 39 0 0 0 0 0 0 34 12 12 21 12 21 39 23 35 0 0 0 39 23 28 0 0 0 0 0 0 0 0 0 0 0 0 0 0 0 0 0 0 0 0 0 0 0 0 0 0 0 0 0 0 0 0 0 39 28 39 0 0 0 0 0 0 21 12 21 46 28 28 21 21 34 39 28 39 21 12 21 0 0 0 0 0 0 21 21 34 0 0 0 0 0 0 0 0 0 0 0 0 12 12 34 0 0 0 12 12 34 0 0 0 21 12 21 0 0 0 39 28 39 0 0 0 21 12 21 0 0 0 0 0 0 28 28 46 0 0 0 0 0 0 21 12 21 0 0 0 35 23 39 21 12 21 21 12 21 12 12 34 0 0 0 0 0 0 39 35 39 37 24 43 0 0 0 0 0 0 0 0 0 0 0 0 21 21 34 0 0 0 28 28 46 0 0 0 0 0 0 0 0 0 0 0 0 0 0 0 0 0 0 0 0 0 0 0 0 0 0 0 0 0 0 0 0 0 21 12 21 0 0 0 0 0 0 0 0 0 0 0 0 21 21 34 0 0 0 0 0 0 0 0 0 0 0 0 0 0 0 0 0 0 0 0 0 21 21 34 0 0 0 28 23 39 0 0 0 23 17 39 0 0 0 0 0 0 21 21 34 0 0 0 0 0 0 0 0 0 0 0 0 0 0 0 0 0 0 34 21 21 0 0 0 21 21 34 0 0 0 21 12 21 0 0 0 0 0 0 0 0 0 21 21 34 0 0 0 0 0 0 0 0 0 34 34 34 0 0 0 0 0 0 0 0 0 21 21 34 12 12 34 12 8 21 0 0 0 0 0 0 0 0 0 21 21 34 0 0 0 12 12 34 0 0 0 