P3
64 64
255
89 73 73 107 91 92 100 84 84 98 79 80 108 93 94 99 83 85 100 88 90 109 92 95 91 78 81 100 82 84 82 71 71 105 93 94 85 71 71 101 93 94 90 75 77 94 77 78 112 97 97 93 74 75 94 85 86 89 77 81 104 89 90 104 85 88 95 82 84 97 85 87 99 90 91 103 98 99 92 81 84 90 84 86 99 94 97 85 81 85 95 84 88 74 65 69 106 97 100 89 83 88 93 86 93 73 66 78 96 89 92 97 91 96 91 85 89 115 109 114 97 94 102 97 91 99 91 88 92 89 84 95 92 85 96 98 95 102 100 94 102 88 83 88 88 86 92 97 92 99 100 97 104 100 96 104 80 75 86 86 82 90 91 88 97 98 93 102 98 95 102 93 87 97 76 69 82 81 77 94 81 78 95 64 60 74 75 69 78 64 58 81 86 59 59 73 57 59 104 88 88 102 87 88 116 105 105 104 86 86 102 89 92 103 85 86 105 92 94 91 82 83 91 81 82 102 85 86 113 104 105 82 74 76 107 92 95 107 89 92 95 86 88 88 80 81 85 74 75 104 99 101 85 79 81 90 81 82 86 79 83 99 92 95 108 101 103 89 84 85 103 93 94 93 84 88 98 90 92 86 80 82 108 99 102 93 83 89 81 76 81 112 108 109 88 84 89 89 83 89 85 81 87 94 89 95 93 87 94 90 89 95 113 110 118 88 83 87 107 103 107 83 78 81 95 93 101 98 97 101 99 95 100 100 97 104 100 97 100 92 86 93 96 92 97 81 74 82 95 89 95 86 81 92 98 92 101 86 81 89 72 67 78 93 88 94 82 80 90 100 98 105 73 66 77 64 58 73 67 61 85 49 40 75 94 72 74 97 87 88 95 83 84 104 95 95 118 106 106 117 107 109 120 110 111 103 93 94 104 91 92 108 99 101 94 86 87 111 102 104 114 106 108 105 97 98 103 94 94 113 106 108 106 99 100 121 113 117 110 105 105 101 95 97 111 100 102 117 109 110 109 97 97 102 92 93 94 90 93 104 97 100 119 110 111 108 104 105 109 103 105 112 104 106 90 82 84 91 86 88 91 86 90 107 100 103 109 105 109 119 116 120 105 98 102 107 103 105 122 115 119 107 104 108 107 103 106 98 93 95 102 99 105 87 83 88 93 91 98 102 100 102 113 110 116 102 99 106 96 94 98 96 94 100 93 86 95 89 86 94 93 89 96 94 86 93 92 88 94 93 88 96 92 88 93 82 76 85 93 88 98 82 80 86 85 81 89 75 69 76 38 33 62 50 47 85 87 60 62 106 95 97 112 99 99 113 105 108 113 102 104 136 127 127 107 100 101 117 104 106 101 89 90 96 87 90 101 88 92 116 109 111 111 102 103 105 94 95 123 109 110 102 90 93 108 99 100 113 107 108 114 108 109 113 107 109 109 106 108 99 86 90 103 93 97 116 107 108 91 84 87 110 101 104 106 97 99 105 99 101 109 98 102 103 96 98 107 103 106 96 90 92 104 97 104 110 102 103 94 87 92 105 102 106 113 106 111 90 85 87 99 96 100 105 102 104 116 113 117 119 114 119 99 94 103 100 98 102 101 98 101 97 93 99 115 105 113 115 112 116 92 88 94 107 101 107 95 92 98 114 110 114 102 100 105 96 95 104 98 94 104 87 84 89 95 92 101 81 77 87 72 71 83 90 88 92 82 77 83 75 73 86 50 45 81 49 45 79 97 73 74 122 107 108 96 87 89 103 93 94 120 110 112 112 101 103 95 81 82 115 101 103 96 81 84 109 97 97 111 99 101 105 92 94 120 104 104 120 110 112 104 94 96 117 110 112 112 98 98 107 99 100 117 108 109 109 103 105 122 114 117 114 107 108 93 85 88 106 98 100 96 90 93 95 82 83 109 104 105 109 104 108 111 100 103 109 104 108 106 100 103 115 106 109 101 92 96 98 93 97 101 93 95 100 95 98 77 70 73 103 100 105 114 111 116 110 109 112 104 101 109 113 108 112 113 110 115 110 107 111 98 96 100 111 107 111 111 108 111 109 107 114 108 102 108 102 98 104 102 99 104 100 95 103 77 75 89 87 79 85 92 87 94 81 73 80 89 87 95 72 68 82 85 81 87 81 77 85 68 61 75 76 71 82 50 47 82 52 43 77 98 78 80 105 95 95 100 92 92 113 100 103 107 97 98 118 104 105 107 99 100 109 92 95 110 97 98 93 80 81 113 106 107 102 88 89 117 106 108 116 108 110 109 99 102 112 103 104 101 94 95 114 103 104 93 82 84 96 86 87 98 91 95 117 109 111 113 103 104 116 109 111 118 111 112 116 110 112 108 102 106 121 116 118 102 95 97 112 105 107 93 86 87 107 102 104 111 104 106 91 83 88 71 64 65 90 87 91 101 97 100 100 97 102 101 98 103 114 111 118 110 108 117 113 109 114 108 103 111 110 105 109 111 106 112 107 101 108 107 104 107 96 92 96 89 85 95 114 111 118 87 84 94 94 92 101 101 94 103 96 93 103 102 99 105 85 77 87 87 82 91 79 72 84 90 88 95 74 70 82 78 74 82 90 83 95 55 50 88 42 36 64 96 73 75 110 98 100 93 80 81 113 101 102 95 84 86 105 90 91 111 102 103 106 97 100 110 94 98 115 108 109 125 115 116 101 89 91 96 84 87 121 112 113 105 98 100 115 106 109 105 95 96 98 91 93 112 103 105 109 100 101 103 92 93 105 100 102 114 108 109 103 94 95 90 78 80 102 94 96 80 72 76 101 92 94 99 89 91 76 69 74 85 71 75 80 72 73 71 64 66 81 75 78 103 100 105 97 92 97 116 114 119 115 110 113 107 103 110 111 108 113 102 100 107 105 103 109 114 109 113 106 102 108 108 103 109 108 105 115 106 102 108 106 99 108 103 101 106 89 85 97 116 111 118 96 94 104 95 91 102 89 85 92 99 94 102 93 91 102 96 90 98 81 77 84 96 92 100 81 77 92 92 87 95 71 66 82 45 41 76 40 34 60 112 86 86 113 96 98 96 85 86 116 101 101 88 78 80 111 97 99 123 111 113 109 94 95 107 98 99 103 96 97 111 106 107 105 95 96 103 93 95 97 82 85 95 85 87 88 78 82 110 102 104 110 101 103 103 98 100 108 100 103 91 85 86 99 88 89 100 91 93 75 64 66 88 73 77 93 80 84 78 69 73 78 70 72 81 73 76 80 69 72 76 73 76 89 81 85 76 69 72 86 80 87 97 93 98 94 90 94 102 98 107 109 106 108 109 108 112 113 108 112 117 112 119 118 115 119 111 105 109 110 109 115 99 95 101 112 109 114 122 116 120 111 107 112 112 107 111 84 81 87 99 96 101 100 94 99 100 95 102 90 88 94 91 87 90 72 66 77 76 71 86 94 91 100 63 57 72 94 87 94 83 77 85 77 76 87 46 42 73 48 43 78 122 94 95 99 84 85 130 116 117 107 98 98 118 111 113 123 117 119 120 107 110 97 82 85 108 99 100 100 84 85 112 95 96 92 78 81 108 96 97 119 103 104 100 90 91 114 108 109 103 90 91 74 67 69 87 81 83 75 68 70 95 89 91 74 61 64 65 59 64 75 64 67 76 69 73 92 81 83 88 77 79 88 80 83 77 70 73 94 84 86 83 74 77 93 85 90 84 76 80 83 73 76 100 94 97 80 76 82 90 88 93 81 76 81 85 83 89 103 99 104 112 110 117 141 139 143 120 117 121 121 120 124 113 110 117 109 105 109 93 87 95 114 109 114 89 86 90 103 99 103 102 98 103 93 90 99 107 98 105 81 74 87 86 81 90 74 67 74 88 81 89 97 88 93 80 73 81 91 86 89 85 77 91 65 62 77 54 49 84 43 42 77 102 70 72 117 101 102 115 101 102 106 92 95 116 105 106 130 116 118 107 93 93 128 116 118 105 92 92 109 88 89 95 77 77 96 81 81 109 100 101 111 99 100 114 107 109 119 111 111 112 107 108 104 93 94 121 113 113 100 97 98 80 73 74 68 59 64 77 66 68 94 81 85 90 80 80 85 73 75 73 61 66 79 71 74 91 79 81 84 71 74 95 88 91 84 76 80 97 92 94 86 82 86 92 88 93 75 68 77 93 91 96 82 76 81 85 83 90 106 104 108 116 114 118 119 116 121 111 109 115 94 91 99 120 119 125 107 104 110 86 82 87 112 108 113 110 107 114 98 92 97 113 108 115 96 90 97 95 90 99 101 95 102 80 75 84 91 85 88 85 79 85 93 92 103 78 72 80 88 85 95 99 94 101 93 91 102 40 36 67 54 49 83 96 64 66 117 102 102 107 99 99 112 101 104 120 108 110 109 96 98 107 97 98 114 98 100 103 92 93 107 91 92 106 94 96 108 92 95 96 85 86 116 100 101 115 100 102 126 112 115 95 83 86 124 116 116 114 103 103 90 78 80 85 69 71 87 74 78 78 69 71 97 86 88 99 89 91 79 65 65 93 84 85 87 75 76 93 79 80 83 74 76 84 74 78 101 90 95 87 84 88 73 67 73 91 81 86 91 86 94 69 60 67 90 86 94 79 74 78 89 82 89 88 87 96 107 105 113 122 121 130 104 102 107 90 88 95 110 106 110 93 86 95 102 99 104 95 93 101 112 107 113 108 103 113 101 96 101 103 96 105 90 85 91 82 75 87 104 101 106 95 91 98 77 74 82 79 77 84 87 80 85 89 86 99 78 73 86 45 39 73 58 53 93 106 73 74 95 83 84 99 85 85 104 95 96 110 98 99 126 116 116 105 93 94 113 99 100 107 94 95 94 73 74 137 129 130 111 103 104 105 89 90 106 89 93 119 107 108 117 102 103 127 118 119 115 102 103 95 78 80 82 61 63 88 69 70 92 71 74 92 81 83 91 73 74 89 71 73 85 74 75 86 75 78 87 80 82 90 84 85 84 77 81 90 78 81 87 81 86 86 82 86 93 85 88 94 87 91 93 87 92 94 89 94 98 95 100 88 82 92 75 71 84 76 67 77 90 88 97 125 121 126 103 101 106 96 93 103 94 88 94 95 89 97 98 95 102 83 80 89 100 93 98 113 111 116 104 98 105 86 77 83 105 101 107 90 82 93 89 84 88 87 81 92 76 72 82 94 89 98 66 63 75 75 72 82 64 60 72 49 46 85 47 44 80 112 85 87 111 97 100 107 89 91 117 102 104 102 88 88 104 92 92 106 91 92 108 93 95 88 76 78 115 105 105 93 78 80 117 109 111 113 104 105 102 94 95 122 110 111 115 102 102 122 109 110 76 58 60 93 70 72 87 72 74 80 62 64 97 83 84 102 91 93 90 73 76 115 102 104 108 90 92 91 80 81 85 75 78 101 86 87 84 72 75 99 86 89 92 85 88 93 87 89 88 80 89 84 80 83 84 80 87 87 84 92 89 83 88 91 84 92 96 93 106 90 87 94 85 84 93 90 86 95 102 100 108 98 95 100 107 104 111 107 105 115 91 86 95 88 83 90 94 91 98 105 102 107 98 94 101 102 99 107 98 93 103 89 85 92 85 83 91 89 83 91 83 78 85 82 78 85 95 91 99 90 85 101 82 75 84 38 35 63 53 48 82 101 78 79 111 95 96 123 108 110 112 96 98 114 103 104 101 93 94 126 108 109 122 108 110 105 94 94 120 110 110 96 72 74 104 96 98 106 92 93 108 92 93 114 105 106 118 105 108 95 78 78 82 65 67 103 82 82 90 65 67 96 87 89 88 71 71 92 76 78 88 79 83 95 85 86 98 87 89 96 87 88 80 69 70 99 80 82 95 84 87 124 116 119 130 124 126 128 124 127 103 102 106 110 106 113 99 94 98 78 73 80 91 88 94 91 88 96 104 101 106 88 84 93 91 88 103 67 65 75 73 71 80 115 112 118 114 113 119 118 117 120 90 87 97 102 97 103 94 91 97 85 77 83 109 104 110 83 81 89 89 83 92 89 85 95 96 88 95 90 86 95 80 77 88 95 91 103 94 86 98 84 78 88 65 59 78 53 45 83 50 47 82 97 68 69 104 86 86 103 89 92 118 104 104 102 84 85 107 91 92 101 90 91 114 96 98 110 97 99 97 82 82 110 92 92 102 91 91 119 109 112 107 97 98 116 105 105 105 93 93 77 58 60 85 68 69 99 76 76 93 70 70 102 87 88 93 83 83 106 87 87 95 83 86 104 92 93 93 80 81 100 88 92 91 71 74 88 73 76 113 102 102 104 95 100 132 127 129 126 123 127 105 101 107 120 116 123 122 118 123 114 110 115 100 98 107 91 85 95 101 99 108 102 100 105 96 92 99 83 81 90 96 93 100 111 108 115 100 97 101 106 104 112 87 83 92 103 99 106 101 97 102 94 90 97 100 99 107 101 95 107 85 78 87 82 78 89 116 111 120 100 95 106 72 67 74 98 90 96 89 87 99 76 74 87 71 69 82 48 42 77 49 45 80 105 80 80 109 99 99 112 93 94 99 89 90 113 100 101 114 105 105 110 96 97 107 96 98 110 98 99 111 100 101 106 93 93 95 79 80 113 106 107 107 99 100 120 109 109 82 64 64 78 61 64 76 61 62 93 75 75 95 80 82 88 75 78 95 82 83 100 85 87 111 96 98 107 98 98 91 73 75 73 55 58 87 72 75 87 72 75 112 96 96 140 136 137 126 123 126 130 128 131 139 136 139 123 119 121 109 106 110 133 129 135 110 108 112 91 88 97 115 113 118 119 117 121 103 99 109 98 95 106 89 85 98 98 95 99 84 81 87 97 96 103 118 116 120 80 77 86 82 82 89 92 86 92 102 97 104 101 96 105 100 94 103 101 98 106 97 93 102 86 81 89 73 69 76 87 85 96 84 79 90 80 74 84 73 65 74 52 48 86 54 48 83 87 57 59 114 100 101 115 99 99 97 85 87 113 98 100 114 103 104 111 99 101 109 93 94 119 106 106 127 117 117 102 86 87 93 76 78 121 110 111 119 107 109 94 85 87 91 69 69 84 60 62 94 72 75 92 75 76 86 70 70 106 88 91 115 96 97 82 67 67 95 81 81 91 79 81 98 85 86 98 81 82 92 77 78 112 100 102 111 103 104 120 114 117 130 126 128 118 116 121 123 120 124 116 112 114 112 108 113 123 117 123 118 117 119 105 103 111 112 111 119 103 101 108 119 117 124 95 92 101 98 92 99 86 83 97 102 100 108 96 94 101 98 94 99 113 111 118 94 93 98 109 103 111 93 91 101 105 101 110 103 98 105 90 86 97 83 79 85 89 76 86 82 78 89 97 93 102 72 68 77 75 69 85 85 76 85 52 44 79 51 48 85 103 81 82 116 100 103 102 90 91 102 91 92 117 105 105 112 97 99 101 83 84 116 101 102 108 94 96 108 94 97 100 88 89 113 101 101 99 81 81 101 84 86 107 84 86 98 69 70 96 74 75 96 78 80 98 82 85 104 87 88 106 93 96 107 98 98 111 92 93 117 101 104 109 95 96 93 77 79 85 68 69 110 89 91 117 109 111 118 111 112 101 96 100 103 95 100 109 106 111 107 102 110 101 95 101 117 112 116 96 94 100 117 114 121 117 116 124 129 127 131 120 117 119 118 114 121 93 90 97 89 87 100 71 69 81 93 90 101 92 90 97 109 104 110 105 103 110 112 106 112 111 109 117 99 96 102 101 96 106 88 81 87 90 84 92 99 96 104 88 84 94 93 89 97 91 90 99 68 63 76 89 84 92 72 62 75 42 39 70 46 42 77 113 88 88 112 100 101 110 98 99 111 98 101 97 88 89 116 96 98 95 81 83 123 108 109 101 84 84 114 94 95 117 111 111 107 94 95 99 83 84 89 67 68 96 87 87 75 50 52 83 62 63 98 76 77 109 90 91 97 87 89 95 85 86 91 78 80 111 103 105 115 101 102 125 115 116 101 89 89 98 78 80 105 96 96 121 113 114 126 119 119 112 106 110 104 96 98 93 89 94 103 100 105 120 115 119 88 86 92 90 86 94 101 97 106 118 115 123 117 115 121 128 125 129 128 126 129 112 111 120 102 100 110 86 84 95 71 69 81 92 91 99 95 95 102 90 87 95 95 92 103 99 95 101 91 88 95 94 90 100 90 87 93 88 82 90 90 85 92 94 92 99 80 77 85 88 81 90 97 93 101 81 76 88 87 83 93 55 51 90 45 42 74 110 77 78 114 101 102 109 90 92 102 82 86 112 95 98 97 88 90 121 106 107 123 109 111 121 110 111 108 93 94 125 114 115 116 105 106 117 102 104 98 68 69 87 67 67 89 60 61 95 75 75 95 71 73 91 75 75 111 102 103 108 89 90 123 105 106 115 102 103 124 112 113 120 108 109 122 110 110 107 93 93 90 72 74 124 112 112 124 110 112 113 104 106 109 103 107 97 91 94 104 98 101 88 85 90 99 97 105 112 109 115 116 115 122 115 115 123 118 118 124 108 107 115 136 135 138 111 108 116 101 99 107 88 87 95 88 85 95 93 91 97 101 97 103 105 103 111 102 99 106 102 93 101 116 112 118 82 79 85 101 93 100 97 89 98 92 84 92 89 83 96 83 80 90 99 94 100 80 73 85 82 78 91 106 103 113 45 41 74 49 46 83 104 81 83 116 100 101 106 88 90 112 95 96 111 91 91 115 102 104 109 92 94 124 114 115 106 93 94 112 103 104 108 97 98 98 88 88 111 97 98 96 81 82 86 63 66 88 60 61 86 68 68 99 73 74 84 60 62 96 77 80 88 79 80 103 89 90 116 104 105 127 111 112 131 118 118 125 115 116 116 100 101 137 128 128 116 104 105 128 120 122 97 89 95 113 108 112 125 121 123 121 117 120 121 118 121 104 103 105 137 135 142 123 122 127 113 111 119 136 133 139 127 125 131 118 117 123 129 126 133 124 122 130 104 102 110 91 90 99 93 90 98 90 88 95 105 104 111 94 93 98 88 87 97 111 106 117 107 101 107 96 94 98 77 75 87 87 77 86 85 83 88 83 79 87 96 90 98 82 76 86 67 64 77 83 79 88 51 44 77 45 38 70 101 70 71 105 93 94 121 108 110 103 87 89 109 95 97 124 111 112 115 100 102 112 93 94 122 110 112 118 103 104 97 87 88 121 105 105 109 98 98 99 79 80 77 51 53 82 56 57 102 77 77 94 75 76 110 90 91 122 104 106 116 100 100 122 112 112 120 109 110 143 134 135 146 135 136 134 118 119 115 105 107 116 105 107 150 143 144 119 112 113 107 99 103 100 95 97 120 111 112 104 99 101 81 75 81 92 91 98 130 128 134 134 133 139 117 116 123 109 106 112 101 100 103 100 97 102 112 110 115 119 117 124 117 114 124 96 94 101 102 100 105 99 97 103 95 92 102 102 100 106 100 98 103 98 94 104 99 95 103 106 99 105 110 107 110 91 90 96 92 86 96 93 87 97 104 96 108 67 61 76 90 86 99 76 73 87 51 44 80 47 43 78 93 67 68 121 107 110 95 85 87 120 112 114 89 81 84 113 98 99 123 109 109 103 96 97 103 88 89 121 107 110 122 110 111 115 97 98 105 93 94 98 84 86 96 72 74 84 60 62 103 77 78 94 73 74 90 73 73 108 92 93 111 96 97 127 117 117 131 117 119 119 105 106 132 124 126 151 143 144 125 114 115 127 116 118 114 106 107 114 104 107 125 109 111 130 120 121 110 107 109 108 100 104 99 91 98 114 111 116 106 104 112 97 94 102 97 95 105 98 95 100 112 110 115 105 102 112 121 120 129 123 122 127 107 106 112 106 103 115 103 102 109 86 81 89 100 99 107 101 97 102 97 92 99 81 77 85 104 101 110 96 92 99 89 85 89 98 95 101 93 90 99 94 89 96 102 96 101 96 92 107 80 72 83 72 66 83 55 47 84 48 45 82 106 79 80 101 85 85 99 82 84 104 93 96 109 96 99 105 89 90 108 91 93 113 102 104 113 104 106 113 97 99 118 101 102 112 100 101 109 98 100 100 87 88 119 97 98 92 68 70 101 82 84 100 72 74 92 76 77 125 113 114 102 88 90 136 123 124 122 109 110 137 125 126 107 93 94 119 111 112 117 105 106 116 110 110 112 102 103 109 95 97 110 100 101 118 106 107 113 102 104 102 96 99 115 112 117 97 93 101 102 98 103 113 109 115 109 107 113 93 92 97 82 79 84 126 124 129 124 122 133 123 122 132 134 132 143 94 93 104 96 94 98 105 104 108 98 97 101 100 94 100 80 75 85 84 79 88 104 98 106 87 83 91 103 99 105 72 67 75 82 73 80 99 93 99 82 79 91 86 84 93 85 82 92 74 70 82 47 44 75 47 40 72 99 72 73 103 91 93 90 70 71 127 113 115 97 80 84 109 96 100 109 89 92 117 95 98 111 97 98 113 102 103 96 80 82 102 84 84 107 95 96 110 93 94 115 98 99 76 55 56 85 64 66 78 56 56 107 86 87 112 96 97 103 93 94 134 119 119 129 116 116 144 134 135 123 115 115 117 106 107 121 106 108 127 116 117 110 99 103 110 100 102 103 98 100 98 86 91 108 98 102 91 83 86 97 91 95 93 87 93 95 91 101 100 97 105 122 118 124 99 96 106 98 96 107 103 100 108 126 124 132 104 104 114 121 119 124 99 98 106 98 96 104 118 115 123 100 96 104 105 101 108 95 89 96 112 106 114 94 89 98 98 89 99 92 88 97 99 94 105 84 80 87 95 90 100 71 65 78 77 73 87 82 76 85 84 80 90 50 47 84 52 46 85 106 81 83 109 94 96 109 99 100 109 93 94 109 84 86 121 101 104 103 94 95 109 94 96 108 93 94 106 85 87 126 111 113 119 101 101 108 93 95 120 108 109 99 87 89 104 81 81 88 59 59 86 60 60 100 80 81 109 92 93 123 105 106 132 124 124 140 133 134 138 132 132 115 109 110 116 108 111 121 112 115 109 98 100 110 101 102 114 105 108 87 78 81 112 105 106 104 92 95 89 83 91 97 90 95 93 88 95 110 105 108 101 98 102 93 89 95 99 97 104 80 78 86 89 85 97 103 101 108 120 118 126 114 112 122 92 91 100 84 83 93 94 93 103 104 102 108 97 95 102 111 107 115 110 106 113 93 90 98 115 105 113 79 75 85 77 75 85 85 84 91 82 78 87 88 80 89 95 93 100 93 91 100 96 91 103 43 40 71 51 44 79 106 77 77 111 96 98 106 93 94 101 83 84 110 98 99 106 93 94 101 83 84 97 83 85 115 110 111 106 95 95 108 90 90 125 106 107 108 95 95 117 99 101 107 93 94 87 74 75 94 66 67 96 74 75 102 84 84 114 100 101 111 105 105 123 110 112 145 133 134 133 122 123 116 102 102 127 113 114 119 114 116 110 102 104 115 105 107 114 105 107 103 96 97 100 89 95 109 107 111 94 85 89 108 102 108 92 89 95 106 102 110 98 95 100 104 103 107 104 102 111 105 104 112 123 119 125 117 115 121 122 121 127 90 86 95 96 94 104 93 89 98 94 90 95 112 108 114 91 85 91 91 88 90 97 92 102 91 85 95 94 91 100 95 90 96 102 95 103 88 84 97 91 85 93 72 68 80 104 101 112 80 74 85 75 72 83 56 54 94 52 46 82 93 63 65 109 99 101 114 97 98 100 82 83 104 91 93 112 97 101 112 98 99 108 93 94 107 91 95 113 98 98 89 76 77 103 91 93 106 87 88 128 115 117 114 99 100 113 100 101 81 60 62 98 80 81 108 87 88 117 95 96 114 103 104 126 115 116 126 115 116 127 120 120 118 110 111 128 121 122 116 107 108 121 115 115 121 113 115 106 94 96 115 105 109 111 101 104 114 108 113 87 78 83 116 109 114 102 96 106 98 96 102 106 104 113 95 91 100 118 115 124 111 109 115 122 119 127 133 132 137 94 93 103 103 101 110 96 95 105 98 96 101 88 86 95 98 93 101 97 96 105 105 100 108 87 83 91 75 69 74 111 108 114 90 85 91 90 82 91 77 75 84 88 83 95 89 82 91 83 78 91 95 91 101 87 80 94 53 47 83 53 50 86 116 87 87 103 90 92 113 97 98 111 96 97 116 97 98 108 94 97 120 106 107 120 106 108 114 100 102 114 100 102 98 86 88 109 95 97 102 93 94 102 93 96 101 82 83 94 84 84 105 93 93 102 84 85 94 66 67 101 86 89 103 90 91 116 104 105 111 100 101 147 134 135 123 114 115 137 129 130 125 117 120 120 114 116 113 101 104 102 91 94 121 111 115 117 112 114 112 105 110 87 80 84 103 100 105 88 87 93 94 88 91 89 86 92 105 101 107 96 94 98 108 107 112 99 97 104 101 99 107 85 83 90 103 102 109 88 87 98 93 92 95 100 97 105 113 111 119 107 105 111 88 83 88 61 60 70 100 96 104 90 85 93 106 100 107 93 90 100 92 90 97 78 71 89 97 91 100 83 77 84 76 72 81 95 92 101 52 48 88 51 43 81 107 78 80 113 99 101 120 104 105 105 92 94 97 87 88 84 67 69 109 94 95 106 94 96 104 89 91 97 79 82 113 104 106 93 81 84 109 96 98 92 76 77 104 98 100 114 96 97 98 84 84 104 86 86 85 67 68 78 69 70 109 93 95 110 89 91 127 116 117 113 100 101 131 120 121 132 125 128 129 119 119 119 108 111 114 109 112 122 113 115 120 109 112 108 101 103 110 107 109 108 105 107 99 94 103 110 102 108 113 108 112 107 106 111 103 100 106 101 100 106 107 104 112 98 98 108 99 98 107 75 75 87 88 86 98 97 96 101 102 99 106 88 87 95 80 79 85 78 77 82 85 80 86 72 69 80 83 82 96 85 83 91 101 98 103 96 91 99 88 82 89 83 78 91 80 73 83 84 80 90 75 71 82 93 89 95 49 45 81 47 42 73 97 63 65 107 95 98 105 94 94 110 96 97 114 100 101 120 109 109 120 109 111 106 94 96 98 86 88 104 93 95 108 96 96 106 96 100 116 102 103 101 82 84 107 92 92 97 87 87 109 94 96 105 95 95 102 93 93 105 90 91 100 81 82 103 85 88 101 85 86 129 117 118 127 120 120 124 114 115 124 116 117 127 118 122 134 124 125 127 121 123 126 120 122 115 108 113 119 111 113 105 96 101 118 108 112 103 98 102 122 121 124 118 114 118 120 119 124 112 111 118 101 96 103 120 118 129 89 87 97 94 90 99 72 70 75 91 90 97 88 86 89 81 78 81 85 82 89 100 93 101 115 111 115 124 122 128 87 85 97 65 61 76 90 87 95 77 73 84 88 83 96 77 72 82 87 82 91 91 88 93 88 85 94 58 54 70 41 36 65 51 47 83 103 68 69 113 98 100 124 111 114 112 101 102 96 82 84 118 105 107 117 102 104 121 102 104 114 100 101 118 107 110 98 89 92 110 96 97 102 90 91 118 107 108 101 87 88 108 98 99 109 92 92 128 110 112 104 90 92 110 99 99 93 70 71 82 67 68 99 80 81 115 103 104 132 119 120 137 125 127 138 125 126 133 120 121 131 118 119 143 136 137 115 108 110 146 137 138 114 107 110 133 127 130 117 111 114 109 106 110 125 121 127 122 118 123 115 110 116 122 120 126 120 118 121 134 133 140 118 117 124 106 104 114 94 92 97 77 75 82 80 78 82 81 78 84 111 107 111 138 136 142 116 111 116 117 114 121 123 122 127 94 92 103 86 83 93 70 67 81 93 91 98 89 86 95 76 72 88 88 85 93 89 82 90 76 71 89 50 46 79 45 38 68 102 75 76 115 103 104 105 93 94 108 94 95 122 106 108 133 118 119 107 97 98 102 91 93 105 93 95 106 89 91 109 98 100 106 90 94 99 87 88 137 119 119 115 98 98 98 87 90 110 96 97 107 92 92 120 103 104 100 87 88 103 91 92 85 64 64 90 70 71 91 74 75 103 92 93 124 110 112 124 112 113 109 96 97 113 103 104 118 109 110 140 136 137 151 144 146 128 119 120 138 133 138 133 126 129 125 119 120 107 105 107 102 102 105 107 102 108 121 119 125 126 125 130 127 126 133 114 112 118 96 93 104 67 65 75 70 68 73 92 88 94 136 134 138 139 133 137 119 116 122 122 118 122 113 107 114 118 116 123 94 93 105 90 89 98 86 82 90 94 89 96 94 89 100 90 83 92 84 79 91 76 69 82 47 44 61 38 35 67 49 45 79 101 76 77 110 96 98 108 91 94 120 109 110 114 100 101 119 100 101 114 102 102 111 94 96 101 88 88 115 102 102 108 92 94 110 96 98 119 101 103 111 99 101 98 88 91 116 101 101 100 87 88 121 107 108 95 85 87 107 92 92 106 93 94 83 59 60 67 43 47 102 78 79 92 75 76 91 76 78 112 103 103 97 88 88 127 120 122 121 112 113 121 112 116 133 127 129 117 111 113 147 139 141 92 83 84 109 103 107 137 135 139 140 137 142 110 107 110 128 126 133 110 108 116 116 115 119 130 127 134 84 83 93 117 116 124 115 114 118 133 132 137 110 109 113 132 129 133 130 126 130 104 96 104 103 98 107 110 109 119 93 91 104 89 86 95 90 86 94 78 75 86 80 77 87 80 74 88 85 82 93 71 65 76 62 58 73 49 44 81 52 47 84 104 77 78 112 97 99 116 101 104 102 85 87 105 92 94 116 103 105 94 85 87 97 82 83 96 79 82 100 87 90 92 80 82 110 101 102 101 93 94 111 98 100 94 90 92 103 87 87 118 107 108 106 92 94 117 107 108 88 68 69 123 105 105 82 59 60 95 74 75 86 65 65 112 97 97 105 86 86 116 105 105 119 106 108 120 109 110 136 125 127 130 123 124 130 120 123 135 125 128 129 122 123 111 93 94 121 111 114 129 124 129 98 94 98 103 100 109 119 118 122 108 106 111 127 125 135 129 127 135 110 109 119 122 120 124 135 133 139 137 136 140 119 114 118 109 106 113 115 110 115 84 77 88 100 97 103 96 94 103 90 88 99 82 77 86 82 81 88 78 73 82 108 101 110 79 76 85 78 76 85 82 79 90 79 72 86 46 40 75 57 51 88 118 79 81 115 101 103 108 95 97 100 91 93 110 101 102 111 100 102 107 99 101 117 103 104 101 93 94 119 102 105 109 92 96 119 109 110 115 103 104 98 86 86 113 97 98 112 100 100 98 87 88 113 102 102 98 82 83 111 100 100 117 104 105 81 70 71 86 60 60 98 75 76 104 93 93 109 87 87 107 97 98 121 110 110 120 112 112 131 125 127 121 107 110 107 95 100 135 126 127 113 105 108 113 104 105 118 103 107 104 100 105 108 103 111 114 112 119 101 100 104 112 107 112 116 113 121 109 108 117 97 94 103 130 129 136 120 119 124 128 128 132 98 98 102 101 97 100 107 102 111 89 86 93 94 92 97 109 108 120 85 83 89 81 79 87 76 69 83 85 79 91 85 83 94 80 77 86 75 73 86 82 75 86 63 55 65 48 41 78 47 42 74 106 77 78 104 83 87 119 104 106 117 101 102 116 107 109 117 106 106 101 88 88 112 97 98 103 91 92 110 99 100 100 86 87 114 105 108 99 89 90 111 96 98 93 77 79 102 90 91 107 94 96 95 85 86 101 89 89 119 106 107 110 85 87 99 77 78 98 75 76 97 77 79 96 73 74 115 104 104 126 115 115 132 120 120 123 114 115 128 116 118 115 107 109 128 116 117 110 97 99 123 114 115 106 98 102 115 106 111 107 104 106 107 100 105 94 89 97 108 104 108 109 108 114 91 90 100 106 104 112 99 97 104 119 119 123 111 109 115 103 102 105 124 121 125 86 82 90 92 87 93 105 101 112 88 86 95 108 106 117 69 65 74 99 95 103 72 64 75 92 89 98 84 81 89 74 70 81 95 89 97 63 52 66 82 78 96 48 41 75 46 41 75 119 89 91 104 91 92 110 100 100 99 80 80 85 76 78 109 95 97 99 85 88 113 98 101 102 91 92 113 97 97 107 96 98 102 87 91 100 86 88 111 99 101 115 101 106 106 93 94 91 75 77 109 96 97 125 106 107 82 68 71 102 86 88 101 90 90 79 60 62 95 73 74 87 76 78 105 92 93 119 109 109 122 107 108 114 108 109 127 113 114 131 125 126 118 109 112 122 114 114 137 126 128 124 115 118 104 90 94 103 94 97 100 95 99 103 99 104 109 105 107 115 111 115 108 105 113 85 83 95 99 97 106 108 107 113 99 97 104 103 100 108 95 90 96 92 89 96 105 100 109 115 111 117 110 107 117 100 96 103 89 88 97 88 80 86 96 93 103 88 82 91 95 89 97 85 81 89 89 83 97 86 81 91 77 72 85 45 40 72 47 42 75 111 83 84 114 104 105 95 83 86 121 110 112 110 102 104 116 102 104 107 94 97 102 82 86 110 99 101 101 86 87 110 101 103 108 95 97 91 78 80 95 82 82 113 97 99 88 78 81 102 90 91 104 91 92 109 97 98 110 97 98 99 86 87 116 101 102 71 51 52 95 73 73 97 79 80 92 78 79 111 96 98 113 100 101 105 92 93 123 112 112 121 109 110 148 139 140 131 125 127 120 110 112 111 103 105 103 96 98 102 97 101 114 106 112 108 100 104 94 89 95 112 108 115 123 120 129 106 104 114 96 94 106 95 94 103 105 104 110 95 94 100 104 101 107 104 101 109 103 100 108 105 104 114 93 92 100 93 90 99 93 90 101 85 81 89 100 96 107 78 72 83 83 80 89 91 88 96 74 65 78 75 66 76 83 76 90 41 37 69 46 42 73 95 73 74 127 111 112 109 94 96 126 112 115 106 95 96 100 89 91 109 101 101 107 102 102 106 92 95 103 90 93 114 101 102 88 79 81 104 91 91 106 91 92 107 98 99 98 86 88 104 91 93 121 111 111 99 84 86 119 104 104 102 90 92 100 82 83 80 53 56 87 68 68 94 71 71 109 91 93 108 92 92 100 83 84 108 91 91 107 92 93 135 126 128 132 125 126 122 110 113 99 89 93 114 109 114 117 114 119 116 109 113 102 100 103 106 103 110 103 98 104 106 103 110 113 110 118 126 124 131 92 90 99 96 94 104 94 92 101 104 101 105 100 99 105 94 92 99 77 74 84 99 98 104 77 73 83 84 81 88 99 96 108 86 82 86 71 70 80 88 84 95 76 69 81 93 87 94 76 72 82 89 84 95 72 61 79 54 48 84 44 38 69 99 67 68 109 93 94 98 88 89 116 101 102 108 97 97 118 101 102 103 89 90 111 99 100 111 99 101 117 104 104 102 87 87 114 94 97 116 101 102 118 105 107 101 89 92 114 102 105 93 82 85 110 90 92 101 87 87 98 85 86 98 85 86 87 72 72 72 45 47 94 67 69 103 84 85 104 90 91 102 93 93 108 94 95 110 88 88 96 79 80 135 122 123 131 125 126 119 107 109 94 84 86 107 99 104 113 104 107 126 122 125 95 90 95 110 110 113 98 95 98 93 92 97 118 117 124 121 120 131 113 111 119 88 87 101 100 98 107 113 111 119 96 92 104 106 105 113 94 92 99 104 101 106 66 64 76 90 87 99 93 92 103 88 82 92 80 76 84 88 86 99 75 69 80 98 91 98 76 74 88 85 79 88 81 75 89 43 38 71 48 40 72 107 82 84 114 98 100 106 89 92 112 96 97 117 102 103 117 108 110 109 96 98 109 93 97 99 88 91 98 84 85 103 89 93 99 90 91 115 101 102 108 92 94 109 93 96 128 112 113 101 90 92 115 99 100 100 83 85 113 99 100 94 74 74 78 60 60 85 63 64 84 63 65 97 76 78 94 79 81 105 94 95 124 114 116 124 114 115 123 115 116 135 128 129 116 103 104 124 116 117 126 117 118 125 118 122 115 110 112 114 102 107 103 96 100 94 91 98 104 101 105 96 91 100 128 127 135 150 149 156 133 131 139 116 113 119 98 95 108 107 102 108 97 95 103 104 103 110 92 89 100 84 80 88 93 91 101 89 85 96 93 89 96 79 75 82 83 76 85 87 81 91 78 72 85 92 88 95 91 83 96 72 69 81 79 77 90 41 32 59 58 53 93 110 75 76 111 101 103 106 98 98 101 86 88 107 96 97 117 103 104 108 95 98 110 99 100 119 101 103 94 75 77 98 81 81 106 91 93 102 89 91 108 98 100 99 88 90 102 91 92 104 91 92 117 103 104 113 97 99 94 81 83 86 62 65 68 52 53 88 71 73 103 85 86 118 98 99 107 90 91 135 122 123 112 99 99 133 121 121 127 116 117 131 121 121 120 109 110 123 116 119 92 88 92 104 95 99 85 80 84 123 116 118 111 104 108 98 90 96 99 93 98 111 108 111 109 108 114 111 109 117 121 119 122 119 117 122 102 98 103 96 95 104 92 91 98 74 71 82 96 94 102 79 74 84 88 86 95 84 77 88 103 100 108 86 80 86 94 91 100 89 88 94 79 73 84 79 75 86 88 77 89 79 70 80 83 81 87 56 48 86 49 45 82 103 77 78 125 109 111 110 95 97 126 115 118 128 112 114 119 109 111 111 99 102 114 98 98 105 95 97 108 93 97 118 106 107 100 88 90 110 94 100 114 100 101 99 86 88 106 94 95 121 108 108 105 92 93 109 95 95 85 68 70 79 61 64 91 67 68 85 66 66 100 80 82 119 107 108 130 123 123 114 101 101 137 123 124 117 105 105 129 116 117 130 119 120 122 110 113 136 126 128 99 92 94 81 75 80 122 119 122 125 113 117 105 100 102 94 91 95 108 103 106 102 101 106 117 116 120 129 128 137 116 115 120 137 135 142 103 102 110 113 112 119 74 71 80 98 96 104 79 76 81 86 82 96 86 84 94 112 109 117 98 97 104 94 89 100 87 81 89 88 85 90 66 62 75 95 92 96 74 67 79 70 67 78 80 76 85 50 45 78 46 40 74 115 88 90 108 97 99 98 80 81 113 99 102 102 88 90 110 96 97 131 116 118 105 87 87 109 97 99 104 93 96 101 82 82 101 91 93 97 86 87 109 97 98 114 107 107 109 96 101 111 94 94 110 96 96 115 97 98 96 70 71 83 60 61 99 77 78 104 84 85 121 107 108 119 106 108 134 120 121 132 123 124 117 109 109 139 125 126 135 127 129 107 96 98 131 122 123 119 110 112 116 107 112 113 110 116 105 99 101 109 105 106 107 98 100 104 101 103 108 103 107 113 111 117 98 96 104 134 132 141 127 125 131 109 105 111 134 131 135 99 98 107 86 84 97 104 102 109 100 97 105 98 94 103 85 83 92 94 92 97 82 79 90 87 85 91 92 90 96 74 66 73 92 86 94 97 92 100 82 76 88 72 67 81 66 59 70 37 36 68 39 33 62 110 84 85 99 86 87 109 96 98 116 96 97 98 83 84 101 91 92 106 91 92 107 96 97 114 101 102 113 96 98 113 102 103 110 98 100 102 92 95 110 95 96 107 97 98 99 82 83 115 103 103 118 104 105 89 71 74 88 64 64 90 63 63 87 63 65 107 90 91 127 116 116 137 126 128 144 137 137 122 106 106 132 121 122 131 124 124 126 116 117 120 110 112 133 123 125 134 126 127 103 99 102 122 118 122 115 108 111 133 126 129 125 116 117 118 111 114 95 90 96 104 102 106 115 113 121 115 113 118 118 115 119 126 123 131 113 112 119 121 119 127 101 99 110 77 75 82 89 87 95 101 100 107 89 88 96 76 74 84 94 91 100 94 90 99 79 77 87 99 97 105 100 98 103 82 77 91 75 68 78 81 77 86 75 72 88 38 34 65 40 35 64 104 79 81 119 109 109 112 100 100 107 95 98 113 94 96 119 110 111 107 99 102 109 98 99 114 96 96 88 73 76 112 103 104 104 90 92 118 103 103 123 107 108 95 87 88 109 95 96 122 107 108 118 103 103 95 75 75 98 76 77 88 64 67 100 75 76 93 70 72 133 120 121 126 117 118 134 125 127 126 117 117 119 110 113 119 111 113 134 124 126 115 104 105 122 113 114 124 116 119 105 99 102 99 94 97 132 126 128 136 127 128 128 121 123 100 90 96 113 107 110 115 114 119 107 104 112 113 109 117 104 99 104 117 115 118 108 106 112 127 126 131 127 125 130 88 85 91 88 86 94 78 76 83 89 89 99 90 87 100 92 89 94 84 83 95 88 81 92 97 89 98 80 76 86 85 80 88 87 81 92 70 68 75 86 83 94 55 50 87 50 44 81 102 70 72 112 103 105 119 101 101 113 102 104 106 79 79 89 75 76 102 90 91 108 93 97 117 102 103 126 106 106 104 91 93 99 89 91 99 89 90 103 85 86 119 107 107 114 96 98 99 84 86 97 85 85 96 78 79 96 72 73 106 77 78 76 54 55 95 79 81 117 104 106 124 113 113 115 102 103 107 98 102 122 114 115 147 142 143 130 121 121 123 116 119 114 105 107 112 104 109 118 110 114 125 117 118 142 137 137 122 113 116 114 104 106 108 99 104 74 70 79 116 113 118 116 113 119 111 103 110 104 97 100 110 107 111 112 111 116 112 109 115 136 136 143 114 112 119 80 78 90 72 69 82 70 69 81 85 84 94 86 83 92 95 89 97 85 81 91 98 93 100 87 85 97 95 89 95 85 80 89 92 89 93 72 62 75 49 45 87 47 41 74 94 60 61 98 84 86 104 91 92 78 61 64 107 95 97 99 87 91 95 85 85 110 103 104 109 97 98 114 100 101 108 97 98 106 94 96 119 104 104 111 92 93 100 78 82 99 89 89 117 103 106 107 94 96 97 84 85 81 54 55 102 71 73 101 83 83 100 80 82 125 110 111 138 127 129 120 113 115 132 123 124 130 122 123 131 121 122 137 128 128 118 107 107 101 90 92 101 95 98 112 106 109 131 123 124 135 126 128 124 119 120 109 100 104 108 102 106 96 91 96 91 88 94 99 96 101 102 96 103 97 93 99 97 94 103 104 101 109 114 112 122 128 126 132 120 117 124 93 91 101 91 88 97 93 91 99 76 72 82 99 98 106 89 85 94 88 86 92 82 77 85 82 80 86 97 94 102 83 78 85 86 79 88 69 66 75 51 47 81 39 34 64 98 70 71 111 96 98 109 95 95 98 87 88 112 99 101 97 88 88 115 100 103 96 83 85 101 92 95 106 95 98 101 91 94 116 100 100 102 91 93 105 93 97 116 103 105 101 86 89 121 109 110 96 81 83 92 75 75 98 77 78 97 77 78 94 73 74 91 70 71 124 110 111 150 136 138 105 94 97 117 105 110 106 98 100 134 124 125 133 123 125 127 122 123 116 106 107 111 101 102 134 125 126 140 133 134 130 121 123 122 114 116 121 112 116 96 85 90 111 107 115 117 116 123 110 108 114 107 104 111 101 99 104 95 93 100 96 93 103 110 106 114 111 109 117 122 120 129 81 78 89 86 82 92 97 95 102 81 76 86 82 79 87 91 88 96 70 66 76 76 73 82 86 82 89 86 83 95 85 78 87 76 67 75 80 73 87 44 41 74 51 43 78 94 68 69 120 104 105 93 82 85 101 90 93 115 102 104 104 94 95 92 81 84 100 88 90 107 100 103 99 83 85 98 88 90 91 82 82 102 86 88 105 93 95 98 84 84 102 88 89 91 78 80 95 80 81 97 82 83 84 67 67 103 84 84 90 64 68 101 80 82 124 111 112 134 122 122 110 98 99 98 87 89 102 94 98 107 102 106 128 119 121 107 98 100 136 132 135 131 123 124 126 115 116 133 125 126 153 144 144 123 114 116 93 82 87 100 94 100 88 83 90 114 111 120 97 94 99 104 102 108 105 102 108 102 96 101 112 111 116 92 90 100 108 106 114 130 128 134 93 91 100 94 92 103 86 82 90 84 82 90 91 89 97 91 89 96 81 77 90 90 85 95 77 72 80 94 87 97 78 73 85 77 74 83 69 65 75 49 47 85 50 47 84 92 72 72 100 87 88 92 69 70 109 96 97 103 89 91 104 90 91 87 74 77 99 90 91 92 76 81 111 95 97 100 85 87 110 96 98 109 101 101 99 80 82 101 86 88 96 84 87 109 96 96 104 83 84 94 75 75 84 56 57 95 79 80 91 62 63 88 68 69 126 119 119 137 131 132 127 118 120 102 95 96 109 96 103 109 101 105 99 89 92 116 107 108 112 103 104 137 128 128 119 109 110 120 114 116 129 117 118 123 117 119 113 110 115 84 79 86 113 109 117 108 105 111 109 103 109 115 110 116 120 115 121 97 93 98 98 95 98 94 92 97 101 99 108 125 123 130 92 90 96 85 82 89 75 74 86 85 81 89 84 81 92 86 85 90 80 76 81 83 78 93 78 74 87 69 60 73 70 68 85 84 79 89 74 71 80 39 33 61 47 41 76 102 69 70 97 79 82 102 87 87 99 87 88 102 89 91 111 97 99 109 99 99 89 79 81 115 99 101 103 92 94 110 97 101 116 103 105 113 101 101 90 81 82 98 84 86 112 100 101 91 74 76 104 86 87 100 88 89 87 57 59 76 61 63 91 67 69 100 76 77 96 83 86 132 125 126 105 93 96 123 114 116 114 106 110 88 80 85 103 94 96 106 98 101 123 112 114 116 106 106 114 104 105 118 109 110 137 126 128 119 113 116 99 90 99 98 93 100 95 91 95 104 100 107 108 105 110 97 90 96 84 80 85 115 111 115 94 91 97 95 92 99 105 103 107 112 110 117 103 101 108 72 69 83 89 87 97 90 87 92 83 80 87 91 86 94 82 78 90 94 92 99 79 77 88 93 88 94 88 81 88 89 81 86 81 78 91 35 32 61 37 34 64 94 65 68 110 94 95 104 89 90 99 85 88 101 84 85 116 102 104 101 88 92 94 85 86 97 82 84 104 84 86 105 94 97 121 110 111 120 103 104 109 99 102 87 70 72 99 84 85 102 92 94 104 89 89 97 79 80 79 63 64 85 69 70 84 67 68 85 67 68 119 106 107 120 112 112 107 97 100 96 83 85 103 87 88 101 88 92 100 89 95 86 85 89 113 106 107 117 105 106 116 105 107 141 131 132 132 122 122 117 108 109 97 89 94 92 87 92 93 91 99 96 92 99 103 99 106 92 90 94 92 86 91 98 95 101 92 91 98 93 90 97 104 104 109 101 99 104 91 91 98 85 85 93 98 95 101 87 86 89 82 79 87 77 74 85 79 72 82 73 68 82 86 84 90 73 71 82 97 92 100 79 72 83 68 64 71 31 26 55 36 33 63 88 65 66 102 90 90 113 98 100 97 82 83 98 84 87 94 80 82 98 89 90 88 74 76 117 101 102 91 77 78 96 82 82 94 79 82 89 78 80 89 75 78 111 99 100 104 90 91 104 91 91 103 89 89 106 84 86 97 67 69 88 72 72 89 69 71 92 64 66 114 102 104 121 109 110 134 126 127 119 108 111 102 92 97 99 94 95 125 118 120 127 120 121 121 111 112 111 101 103 122 111 113 106 97 99 139 131 132 125 118 120 109 100 104 101 97 101 123 120 126 113 111 117 110 103 106 104 98 100 121 117 119 106 97 103 80 77 86 89 86 94 119 117 122 112 110 116 104 102 108 77 76 90 97 95 101 82 81 88 81 80 88 87 83 94 83 80 92 71 68 82 67 63 71 63 52 66 81 74 87 71 70 80 65 58 74 44 40 73 41 36 70 88 58 60 89 74 76 105 89 89 93 80 81 106 93 96 92 78 80 113 100 102 105 90 92 110 100 101 103 91 93 107 94 95 99 87 89 111 91 92 99 74 76 103 90 91 87 72 73 103 85 87 90 68 69 79 57 57 87 65 66 96 75 76 86 65 66 92 63 65 85 72 73 119 108 110 109 98 100 110 103 104 112 99 103 108 97 101 102 94 96 110 98 99 123 111 111 107 97 98 92 82 84 114 106 107 133 126 127 123 115 118 111 105 107 105 102 107 111 109 114 109 106 113 105 101 107 100 98 102 110 107 112 101 100 104 94 92 99 103 101 109 105 102 112 111 110 119 81 79 89 72 70 79 86 83 90 89 87 93 80 77 86 87 87 93 80 79 85 72 67 73 65 63 76 79 76 88 75 70 75 56 51 64 69 59 78 49 46 83 38 32 60 86 56 57 91 79 80 92 81 84 102 85 87 98 85 85 98 86 87 86 72 72 85 72 74 111 96 98 88 76 78 88 80 81 102 87 90 93 78 82 99 81 82 104 93 93 99 83 83 90 70 72 70 62 65 83 60 61 81 65 65 94 71 73 79 55 56 93 73 73 82 66 67 121 109 111 121 112 113 102 93 96 105 97 102 125 118 122 107 102 104 117 111 113 129 123 125 107 92 93 102 88 92 125 118 121 123 117 119 97 91 93 100 91 93 106 99 107 103 101 109 126 124 130 131 129 134 103 98 104 117 112 117 123 118 122 101 100 106 109 107 113 105 104 111 112 109 119 67 65 81 59 57 69 86 85 96 89 86 92 82 78 85 94 92 103 69 67 75 70 67 78 85 81 90 86 81 88 81 76 85 79 73 78 71 70 78 50 44 82 36 31 61 102 73 75 102 89 90 93 78 81 86 76 78 94 81 83 93 80 82 105 94 95 98 87 88 109 93 93 97 79 81 104 83 86 96 85 86 91 74 77 101 81 81 85 72 73 78 53 56 95 79 81 89 67 69 83 60 61 93 75 76 104 84 85 91 74 74 91 72 72 95 82 84 115 106 108 121 111 114 118 110 111 117 107 110 123 115 117 116 108 112 138 132 134 105 98 98 104 87 88 107 98 98 115 104 105 132 123 125 123 117 119 72 68 75 125 123 127 106 105 109 126 121 125 112 107 111 110 108 113 113 110 114 116 113 116 106 102 106 103 101 106 91 88 97 95 92 101 70 67 80 72 70 84 67 66 76 85 82 88 87 85 94 67 66 75 90 88 95 59 54 69 89 86 93 76 72 78 66 63 72 84 80 85 81 76 87 37 34 61 43 39 76 96 67 67 95 83 83 93 78 81 88 74 77 105 91 92 100 92 93 98 86 86 102 87 90 81 63 64 76 66 70 99 90 92 86 71 72 102 87 88 101 87 87 82 56 57 95 76 77 85 62 63 89 75 75 93 69 71 79 62 63 98 76 77 95 70 75 100 84 85 82 65 68 104 90 91 114 98 99 127 117 119 118 107 108 113 106 110 120 112 113 98 88 91 95 76 79 102 87 89 102 91 93 118 111 113 115 106 109 111 102 104 121 116 121 106 106 109 109 108 114 132 130 136 109 104 110 105 101 105 105 95 98 106 101 110 104 99 105 104 102 112 106 101 109 76 74 85 76 73 81 81 78 89 83 81 89 61 61 75 82 79 90 71 71 76 83 82 87 67 59 67 53 50 64 77 74 83 65 58 71 71 68 79 92 87 95 43 39 71 40 34 69 86 60 61 82 73 75 98 83 85 98 85 87 102 87 88 98 87 89 89 73 74 99 91 92 101 90 92 93 84 85 102 87 90 104 90 91 100 92 93 91 77 78 81 62 63 76 53 55 84 69 69 82 64 64 93 71 72 97 72 75 102 81 83 110 84 85 116 104 106 119 100 101 109 94 97 118 111 111 122 111 112 130 120 122 117 106 110 113 102 104 92 81 85 93 79 80 92 81 82 98 87 88 107 97 104 126 117 122 117 114 117 116 108 114 120 115 121 111 108 117 138 135 141 117 110 114 131 126 129 123 120 126 116 111 115 105 99 106 129 125 131 132 127 131 107 105 114 89 87 99 84 79 91 108 106 115 68 67 74 80 79 87 78 76 86 58 55 68 70 69 76 87 82 90 76 76 87 75 67 79 72 68 77 46 39 51 37 34 68 43 40 73 85 54 55 88 69 71 93 84 85 107 93 95 90 76 77 79 68 70 89 79 80 83 73 76 93 79 80 103 87 89 90 75 77 99 90 90 94 75 75 100 89 90 86 59 60 86 59 59 90 64 66 92 66 69 86 59 61 85 65 66 111 95 97 102 90 91 106 95 96 114 100 102 96 88 92 129 120 122 116 106 111 116 107 109 112 104 109 113 108 110 111 101 102 90 80 83 94 86 90 96 77 82 99 91 98 117 105 109 93 88 91 121 115 120 121 117 120 134 131 134 117 114 120 115 112 115 127 123 128 111 104 108 111 107 110 129 123 129 107 104 108 109 104 109 105 105 110 119 117 126 87 85 92 99 96 105 94 91 96 72 69 85 90 89 95 76 73 81 65 65 75 66 64 73 71 68 78 52 51 61 60 52 65 74 69 76 39 34 68 39 31 61 95 68 69 78 65 66 101 88 90 100 89 91 88 79 81 77 65 66 91 75 76 83 65 68 79 62 66 76 67 70 98 88 90 92 75 76 92 77 78 87 72 73 93 77 77 87 66 68 81 56 59 94 64 65 94 67 71 97 73 75 108 100 101 105 93 95 112 95 95 119 108 110 117 107 111 121 112 116 123 112 113 119 108 110 124 113 115 117 106 108 103 88 92 99 85 88 102 89 91 94 74 77 109 103 106 113 106 109 136 129 130 123 113 118 123 120 123 123 121 127 115 114 117 124 121 124 109 107 111 109 105 113 119 112 115 104 99 102 104 102 108 112 109 113 84 80 85 111 110 117 116 114 119 111 111 122 99 98 106 73 71 83 75 74 85 78 75 87 61 57 69 63 61 67 54 47 60 68 68 78 69 62 71 60 54 67 42 39 70 34 31 61 68 51 52 65 52 54 90 76 76 63 47 49 84 70 71 68 55 58 95 80 83 94 80 82 84 68 70 96 83 84 95 82 83 85 73 75 84 71 71 92 81 83 96 85 85 94 81 82 75 66 66 84 68 70 88 72 73 90 74 77 97 88 89 86 72 74 112 95 97 120 112 115 91 79 83 107 95 97 102 90 92 117 106 110 101 94 96 93 81 84 108 97 100 123 114 116 98 85 86 115 103 104 134 128 130 120 115 120 100 92 94 103 94 95 120 117 125 102 100 105 113 111 119 103 96 104 99 95 100 91 88 93 103 94 98 82 74 79 95 93 102 84 78 83 98 90 96 97 94 100 107 106 111 92 90 98 79 76 86 70 68 76 70 68 77 63 58 68 73 70 81 83 81 92 58 54 67 64 63 68 72 65 75 55 51 61 41 36 68 49 43 78 71 50 53 75 63 65 78 59 59 87 70 71 76 58 59 83 73 75 94 80 83 84 62 64 95 84 85 83 65 66 93 78 79 90 76 77 82 67 69 89 73 75 88 67 67 72 54 55 70 47 47 87 79 80 74 67 68 68 60 60 73 66 68 73 62 64 76 63 68 95 85 86 85 79 82 111 101 102 126 112 114 88 82 83 113 102 104 90 80 82 102 89 89 112 102 107 109 95 97 100 88 90 133 122 124 86 82 86 107 101 102 113 110 112 101 99 101 82 79 85 85 81 87 89 85 91 78 74 82 102 97 104 99 95 98 79 78 86 97 95 99 103 99 101 104 99 103 97 94 98 95 92 98 82 79 85 59 58 68 58 56 65 65 62 72 54 51 61 78 75 87 61 58 66 58 53 66 58 56 69 63 60 70 58 50 59 36 29 51 44 37 65 