P3
64 64
255
56 34 34 56 34 34 0 0 0 56 34 34 0 0 0 0 0 0 56 34 34 56 34 34 0 0 0 34 21 34 0 0 0 63 39 46 56 34 34 76 46 46 56 34 34 0 0 0 0 0 0 0 0 0 63 58 63 34 34 56 56 34 34 0 0 0 56 34 34 0 0 0 0 0 0 0 0 0 0 0 0 0 0 0 76 76 76 34 34 56 56 34 34 0 0 0 34 34 56 63 46 63 0 0 0 63 46 63 63 39 46 70 50 70 0 0 0 0 0 0 0 0 0 0 0 0 34 34 56 63 46 63 56 34 34 0 0 0 34 34 56 34 34 56 0 0 0 34 34 56 0 0 0 46 39 63 34 34 56 56 34 34 34 21 34 63 46 63 34 34 56 0 0 0 0 0 0 0 0 0 46 46 76 34 34 56 0 0 0 63 39 46 76 46 46 56 34 34 82 50 56 0 0 0 0 0 0 76 46 46 0 0 0 56 34 34 56 34 34 0 0 0 0 0 0 0 0 0 0 0 0 63 46 63 0 0 0 0 0 0 70 56 82 34 34 56 34 21 34 0 0 0 34 34 56 0 0 0 56 56 56 56 34 34 0 0 0 0 0 0 0 0 0 0 0 0 0 0 0 92 56 56 0 0 0 63 46 63 56 34 34 0 0 0 34 34 56 0 0 0 46 46 76 34 34 56 46 46 76 0 0 0 34 34 56 0 0 0 0 0 0 0 0 0 34 21 34 56 34 34 0 0 0 56 56 92 0 0 0 56 56 56 56 56 56 34 34 56 46 46 76 34 34 56 63 58 63 0 0 0 0 0 0 0 0 0 34 34 56 56 34 34 34 34 56 34 34 56 70 66 82 0 0 0 56 34 34 63 46 63 56 56 56 92 56 56 56 56 56 34 34 56 92 82 82 0 0 0 56 34 34 56 34 34 34 34 56 34 34 56 46 28 46 92 56 56 56 34 34 76 63 63 63 39 46 0 0 0 76 46 46 96 72 76 0 0 0 0 0 0 76 63 63 0 0 0 56 56 56 56 34 34 0 0 0 0 0 0 87 58 76 0 0 0 46 39 63 56 56 56 0 0 0 56 43 70 34 34 56 0 0 0 56 34 34 63 63 76 0 0 0 56 56 56 70 70 92 0 0 0 46 46 76 56 34 34 46 46 76 56 34 34 34 34 56 34 21 34 34 34 56 46 46 76 0 0 0 96 63 76 34 34 56 56 56 56 34 34 56 46 46 76 0 0 0 0 0 0 34 21 34 0 0 0 0 0 0 34 34 56 0 0 0 63 46 63 70 56 82 0 0 0 34 21 34 56 34 34 0 0 0 0 0 0 76 46 46 56 34 34 46 46 76 34 34 56 0 0 0 34 34 56 56 34 34 0 0 0 46 28 46 0 0 0 0 0 0 63 46 63 0 0 0 34 34 56 56 34 34 34 34 56 56 56 92 76 46 46 0 0 0 0 0 0 0 0 0 56 56 56 0 0 0 0 0 0 34 34 56 56 56 56 76 76 105 0 0 0 63 46 63 34 34 56 0 0 0 63 63 76 34 34 56 0 0 0 0 0 0 63 46 63 46 46 76 63 63 76 56 34 34 34 34 56 0 0 0 0 0 0 46 46 76 34 34 56 63 39 46 34 34 56 34 34 56 0 0 0 56 34 34 0 0 0 56 56 56 56 56 56 34 34 56 34 21 34 87 72 87 34 34 56 34 34 56 46 46 76 0 0 0 56 34 34 34 34 56 87 53 63 0 0 0 0 0 0 0 0 0 46 39 63 56 34 34 76 46 46 56 56 56 56 34 34 0 0 0 56 34 34 76 63 63 82 56 70 56 56 56 0 0 0 34 34 56 0 0 0 34 21 34 0 0 0 34 34 56 0 0 0 34 34 56 0 0 0 70 43 56 63 46 63 0 0 0 63 46 63 56 34 34 34 34 56 0 0 0 63 46 63 108 92 100 0 0 0 0 0 0 56 34 34 0 0 0 56 34 34 56 34 34 56 56 56 76 76 76 34 34 56 63 46 63 0 0 0 76 46 46 46 39 63 56 56 56 34 34 56 76 63 63 82 70 82 70 70 92 0 0 0 34 21 34 34 34 56 70 56 82 56 56 92 34 34 56 34 34 56 63 46 63 34 34 56 0 0 0 0 0 0 34 34 56 34 21 34 34 34 56 76 46 46 63 46 63 0 0 0 76 63 63 0 0 0 56 34 34 63 46 63 0 0 0 82 56 70 0 0 0 56 34 34 56 56 56 56 56 56 56 34 34 46 28 46 70 50 70 63 39 46 0 0 0 63 46 63 56 34 34 56 34 34 34 34 56 34 21 34 56 34 34 0 0 0 0 0 0 34 34 56 76 63 63 0 0 0 34 34 56 56 34 34 0 0 0 46 46 76 76 63 63 0 0 0 46 46 76 0 0 0 34 34 56 34 34 56 56 56 56 0 0 0 46 46 76 56 56 56 56 56 92 0 0 0 76 46 46 63 39 46 56 34 34 46 46 76 46 39 63 56 34 34 56 56 56 34 34 56 63 63 76 34 34 56 34 34 56 56 56 56 0 0 0 70 56 82 46 39 63 0 0 0 34 34 56 0 0 0 0 0 0 0 0 0 56 34 34 34 34 56 63 46 63 76 63 63 34 34 56 70 56 82 0 0 0 76 46 46 92 70 70 63 46 63 63 46 63 63 46 63 63 39 46 56 56 56 63 46 63 82 56 70 56 34 34 92 70 70 76 63 63 0 0 0 34 34 56 56 34 34 0 0 0 0 0 0 56 34 34 76 46 46 56 34 34 56 34 34 92 56 56 0 0 0 0 0 0 34 34 56 34 34 56 56 34 34 76 76 76 0 0 0 0 0 0 34 34 56 46 39 63 34 34 56 0 0 0 0 0 0 63 63 76 70 56 82 0 0 0 34 34 56 70 70 92 0 0 0 34 34 56 56 34 34 34 34 56 34 34 56 0 0 0 34 34 56 0 0 0 56 56 56 46 39 63 0 0 0 46 46 76 0 0 0 0 0 0 0 0 0 70 56 82 76 46 46 56 34 34 63 39 46 56 34 34 56 34 34 0 0 0 56 34 34 0 0 0 56 34 34 56 34 34 76 46 46 82 56 70 56 34 34 0 0 0 76 63 63 0 0 0 63 39 46 56 34 34 76 46 46 34 34 56 0 0 0 63 39 46 46 46 76 0 0 0 76 63 63 0 0 0 0 0 0 0 0 0 76 46 46 46 46 76 56 34 34 34 34 56 34 34 56 82 70 82 82 78 82 34 34 56 70 66 108 56 56 56 82 56 70 34 21 34 46 46 76 56 34 34 46 46 76 34 34 56 34 34 56 34 34 56 70 70 92 34 34 56 46 39 63 0 0 0 63 46 63 46 39 63 46 39 63 34 34 56 0 0 0 34 34 56 70 50 70 63 63 76 0 0 0 46 46 76 56 34 34 76 46 46 56 34 34 56 34 34 0 0 0 56 34 34 34 21 34 92 82 82 56 34 34 0 0 0 0 0 0 56 34 34 87 63 87 0 0 0 63 39 46 0 0 0 63 39 46 0 0 0 56 34 34 76 46 46 0 0 0 34 21 34 63 58 63 34 21 34 56 34 34 0 0 0 0 0 0 0 0 0 46 46 76 0 0 0 56 34 34 0 0 0 46 39 63 56 34 34 34 34 56 34 21 34 70 56 82 63 39 46 0 0 0 0 0 0 56 56 56 34 34 56 34 34 56 92 70 70 0 0 0 34 34 56 0 0 0 34 21 34 46 46 76 63 46 63 34 21 34 96 93 119 46 46 76 63 63 76 76 58 87 63 46 63 46 46 76 56 50 82 56 34 34 63 63 76 34 21 34 46 39 63 34 34 56 56 34 34 0 0 0 0 0 0 0 0 0 63 46 63 63 58 63 0 0 0 34 21 34 56 34 34 56 34 34 76 46 46 56 34 34 82 66 70 76 63 63 63 46 63 56 56 56 0 0 0 56 56 56 56 34 34 0 0 0 76 46 46 0 0 0 0 0 0 56 34 34 34 34 56 56 34 34 0 0 0 34 34 56 0 0 0 56 34 34 0 0 0 76 76 76 0 0 0 56 43 70 56 34 34 56 50 82 34 21 34 0 0 0 56 56 56 0 0 0 34 21 34 63 63 105 34 34 56 0 0 0 56 34 34 63 63 76 56 34 34 34 34 56 82 56 70 0 0 0 46 46 76 34 21 34 0 0 0 63 46 63 34 21 34 34 34 56 0 0 0 0 0 0 0 0 0 56 34 34 0 0 0 34 34 56 46 46 76 34 21 34 34 34 56 0 0 0 56 56 56 70 43 56 76 46 46 56 34 34 0 0 0 0 0 0 76 63 63 76 46 46 56 34 34 76 63 63 0 0 0 56 34 34 56 34 34 0 0 0 0 0 0 63 58 63 56 56 56 56 56 56 56 34 34 76 46 46 0 0 0 63 46 63 56 56 56 76 46 46 63 39 46 34 34 56 0 0 0 34 34 56 56 34 34 0 0 0 70 50 70 56 34 34 0 0 0 46 46 76 63 39 46 76 63 63 0 0 0 92 82 82 0 0 0 34 34 56 0 0 0 34 34 56 56 34 56 46 46 76 0 0 0 46 39 63 34 34 56 63 46 63 34 34 56 46 46 76 46 46 76 56 34 34 34 34 56 56 34 34 63 39 46 0 0 0 34 21 34 0 0 0 34 34 56 70 56 82 0 0 0 34 34 56 34 34 56 0 0 0 56 34 34 56 34 34 76 46 46 70 50 70 76 46 46 56 34 34 56 34 34 76 63 63 63 58 63 0 0 0 63 58 63 0 0 0 0 0 0 34 34 56 56 34 34 0 0 0 0 0 0 56 34 34 92 70 70 0 0 0 63 46 63 0 0 0 63 46 63 0 0 0 34 34 56 34 21 34 56 34 34 0 0 0 46 39 63 34 21 34 0 0 0 0 0 0 34 21 34 0 0 0 100 70 92 76 46 46 34 34 56 0 0 0 0 0 0 56 34 34 70 56 82 56 50 82 34 34 56 63 46 63 0 0 0 63 46 63 46 46 76 0 0 0 0 0 0 34 34 56 34 34 56 46 46 76 46 39 63 0 0 0 56 56 56 0 0 0 34 34 56 34 34 56 0 0 0 56 34 34 76 63 96 46 46 76 0 0 0 34 34 56 34 34 56 34 21 34 56 34 34 76 46 46 76 63 63 96 72 76 0 0 0 56 34 34 0 0 0 0 0 0 56 34 34 56 34 34 56 34 34 70 50 70 46 28 46 0 0 0 34 34 56 34 21 34 0 0 0 56 34 34 63 63 76 76 58 87 0 0 0 82 56 70 0 0 0 63 46 63 56 34 34 34 21 34 92 70 70 34 21 34 56 50 82 0 0 0 0 0 0 76 46 46 34 21 34 56 56 56 0 0 0 56 34 34 0 0 0 34 21 34 0 0 0 34 34 56 34 34 56 63 46 63 56 34 34 56 56 92 34 34 56 0 0 0 0 0 0 34 34 56 34 34 56 56 56 56 46 46 76 56 34 34 34 34 56 0 0 0 76 63 63 0 0 0 0 0 0 34 34 56 56 56 56 63 63 76 0 0 0 56 56 56 0 0 0 56 34 34 63 46 63 0 0 0 92 70 70 63 39 46 76 63 63 34 21 34 87 53 63 0 0 0 56 56 56 0 0 0 56 34 34 34 21 34 63 46 63 70 43 56 0 0 0 63 39 46 92 82 82 56 34 34 96 58 63 76 63 63 0 0 0 56 34 34 56 34 34 46 39 63 56 34 34 34 21 34 56 34 34 56 34 34 34 21 34 0 0 0 92 56 56 34 21 34 56 56 56 56 56 56 0 0 0 34 34 56 56 56 56 0 0 0 0 0 0 0 0 0 0 0 0 76 58 87 56 34 34 34 34 56 0 0 0 63 63 105 46 46 76 63 63 76 56 50 82 70 70 92 34 21 34 0 0 0 56 34 34 34 34 56 0 0 0 0 0 0 0 0 0 34 34 56 34 34 56 56 34 34 34 34 56 34 21 34 0 0 0 34 21 34 34 21 34 70 50 70 34 34 56 56 56 56 0 0 0 0 0 0 56 56 56 63 46 63 82 82 92 76 46 46 0 0 0 56 56 56 0 0 0 34 34 56 63 63 76 56 56 56 0 0 0 0 0 0 56 34 34 0 0 0 63 39 46 0 0 0 0 0 0 0 0 0 63 46 63 56 34 34 56 34 34 0 0 0 63 46 63 0 0 0 0 0 0 34 34 56 0 0 0 46 39 63 46 28 46 63 58 63 0 0 0 0 0 0 0 0 0 63 46 63 34 34 56 46 39 63 34 21 34 34 21 34 0 0 0 0 0 0 0 0 0 0 0 0 70 56 82 46 46 76 63 63 76 0 0 0 34 34 56 56 56 92 46 46 76 56 56 56 63 58 63 0 0 0 0 0 0 34 21 34 0 0 0 56 34 34 56 34 34 0 0 0 0 0 0 0 0 0 76 46 46 76 46 46 82 66 70 63 63 76 63 46 63 63 46 63 56 34 34 56 34 34 34 34 56 76 63 63 0 0 0 76 46 46 0 0 0 92 56 56 56 34 34 56 34 34 56 34 34 0 0 0 34 34 56 34 21 34 0 0 0 0 0 0 0 0 0 0 0 0 34 34 56 56 56 56 63 63 76 34 21 34 0 0 0 46 46 76 34 34 56 46 46 76 63 46 63 34 34 56 34 34 56 46 39 63 46 39 63 56 34 34 0 0 0 34 34 56 56 56 56 56 34 34 0 0 0 46 39 63 56 56 56 56 56 56 0 0 0 0 0 0 0 0 0 56 34 34 46 46 76 82 56 70 0 0 0 0 0 0 63 63 76 34 34 56 82 56 70 56 34 34 0 0 0 46 46 76 0 0 0 87 72 87 76 63 63 0 0 0 0 0 0 56 34 34 63 46 63 34 21 34 34 21 34 56 34 34 63 58 63 0 0 0 0 0 0 56 34 34 56 34 34 46 39 63 56 56 56 56 34 34 56 34 34 56 34 34 76 63 63 34 34 56 0 0 0 76 46 46 56 34 34 0 0 0 56 34 34 0 0 0 56 34 34 56 34 34 82 70 82 46 46 76 56 34 34 46 39 63 0 0 0 70 50 70 0 0 0 0 0 0 34 34 56 56 56 56 63 46 63 0 0 0 46 46 76 63 63 76 46 28 46 0 0 0 34 34 56 56 56 56 0 0 0 0 0 0 34 34 56 34 34 56 34 34 56 34 34 56 0 0 0 63 63 76 0 0 0 46 46 76 46 46 76 34 21 34 63 63 105 46 46 76 34 34 56 56 34 34 0 0 0 34 34 56 34 21 34 0 0 0 92 56 56 63 46 63 70 50 70 56 56 56 56 34 34 76 46 46 0 0 0 56 34 34 0 0 0 56 34 34 46 46 76 56 34 34 0 0 0 76 46 46 56 34 34 76 46 46 0 0 0 0 0 0 46 39 63 0 0 0 63 46 63 76 63 63 76 46 46 0 0 0 34 34 56 34 34 56 63 46 63 96 96 105 46 46 76 56 56 56 70 56 82 0 0 0 56 56 56 0 0 0 0 0 0 46 46 76 34 34 56 0 0 0 56 34 34 34 34 56 0 0 0 63 46 63 56 34 34 46 46 76 76 63 63 0 0 0 56 56 56 0 0 0 0 0 0 34 21 34 34 21 34 34 34 56 0 0 0 0 0 0 34 34 56 0 0 0 46 46 76 0 0 0 34 34 56 0 0 0 56 34 34 0 0 0 0 0 0 76 63 63 0 0 0 76 46 46 56 56 56 96 63 76 0 0 0 63 46 63 63 46 63 76 46 46 0 0 0 76 46 46 0 0 0 0 0 0 0 0 0 56 34 34 56 34 34 0 0 0 0 0 0 0 0 0 76 46 46 0 0 0 0 0 0 92 56 56 76 46 46 34 34 56 56 34 34 56 34 34 96 76 87 56 34 34 0 0 0 56 56 56 34 21 34 34 34 56 56 34 34 63 63 76 0 0 0 76 76 105 76 76 76 70 70 92 34 34 56 63 58 63 46 46 76 56 56 56 0 0 0 56 34 34 0 0 0 0 0 0 34 34 56 0 0 0 34 34 56 46 46 76 56 34 34 56 56 92 0 0 0 76 58 87 46 46 76 46 46 76 0 0 0 0 0 0 0 0 0 56 34 34 56 34 34 34 34 56 0 0 0 56 34 34 63 46 63 34 21 34 56 34 34 63 46 63 0 0 0 0 0 0 76 76 76 56 34 34 56 34 34 0 0 0 76 46 46 34 21 34 96 58 63 56 34 34 96 63 76 0 0 0 0 0 0 0 0 0 0 0 0 34 21 34 0 0 0 56 56 56 0 0 0 56 56 56 56 56 56 34 34 56 34 34 56 63 46 63 63 46 63 0 0 0 0 0 0 0 0 0 76 63 63 0 0 0 46 39 63 0 0 0 34 21 34 63 58 63 0 0 0 46 39 63 0 0 0 0 0 0 46 46 76 46 46 76 70 70 92 34 21 34 0 0 0 76 53 76 34 34 56 46 39 63 34 34 56 34 21 34 76 72 96 34 34 56 0 0 0 34 21 34 56 34 34 46 46 76 0 0 0 0 0 0 0 0 0 63 39 46 0 0 0 34 21 34 34 21 34 76 63 63 34 34 56 92 56 56 56 34 34 56 34 34 0 0 0 63 63 76 63 46 63 0 0 0 56 34 34 34 34 56 0 0 0 76 63 63 76 46 46 56 34 34 56 56 56 56 34 34 76 46 46 0 0 0 0 0 0 34 34 56 0 0 0 82 70 82 0 0 0 56 34 34 0 0 0 0 0 0 0 0 0 0 0 0 63 46 63 0 0 0 34 34 56 46 46 76 46 39 63 0 0 0 0 0 0 0 0 0 34 34 56 0 0 0 0 0 0 46 39 63 0 0 0 46 46 76 56 56 92 46 46 76 46 46 76 34 34 56 56 56 92 0 0 0 34 34 56 34 34 56 46 46 76 46 39 63 56 34 34 0 0 0 0 0 0 34 34 56 0 0 0 56 34 34 34 34 56 34 21 34 76 46 46 63 39 46 0 0 0 82 56 70 76 46 46 0 0 0 92 56 56 76 46 46 0 0 0 56 34 34 34 34 56 0 0 0 63 39 46 0 0 0 56 34 34 0 0 0 76 46 46 96 76 87 0 0 0 0 0 0 76 63 63 0 0 0 0 0 0 0 0 0 56 56 92 56 56 56 0 0 0 46 46 76 63 39 46 34 34 56 0 0 0 70 50 70 0 0 0 63 63 76 63 63 76 0 0 0 56 56 56 34 21 34 82 82 92 34 34 56 34 34 56 0 0 0 0 0 0 34 21 34 46 39 63 34 34 56 0 0 0 0 0 0 34 34 56 63 63 76 0 0 0 0 0 0 34 34 56 63 46 63 0 0 0 46 39 63 46 46 76 34 34 56 0 0 0 34 34 56 34 34 56 0 0 0 0 0 0 76 46 46 96 72 76 0 0 0 34 34 56 56 56 56 0 0 0 0 0 0 0 0 0 56 34 34 56 34 34 0 0 0 82 66 70 56 34 34 76 46 46 0 0 0 63 46 63 0 0 0 34 21 34 92 56 56 0 0 0 63 46 63 82 50 56 34 34 56 56 34 34 46 46 76 63 63 76 56 34 34 56 34 34 34 34 56 46 28 46 34 34 56 92 56 56 56 34 34 0 0 0 56 34 34 0 0 0 56 34 34 56 56 56 56 56 56 46 46 76 46 39 63 34 34 56 0 0 0 0 0 0 0 0 0 0 0 0 0 0 0 0 0 0 0 0 0 0 0 0 63 63 76 34 34 56 34 34 56 63 39 46 0 0 0 34 21 34 34 34 56 63 46 63 0 0 0 0 0 0 0 0 0 56 56 56 70 56 82 56 56 56 0 0 0 56 34 34 34 34 56 56 34 34 63 39 46 46 39 63 0 0 0 56 34 34 0 0 0 0 0 0 0 0 0 76 63 63 0 0 0 0 0 0 34 21 34 0 0 0 56 34 34 56 34 34 63 58 63 76 46 46 56 34 34 0 0 0 0 0 0 56 56 56 0 0 0 76 63 63 0 0 0 56 34 34 0 0 0 63 39 46 34 34 56 34 34 56 0 0 0 92 56 56 34 21 34 82 56 70 0 0 0 76 63 63 34 21 34 82 78 108 82 74 100 56 56 56 0 0 0 46 46 76 0 0 0 56 56 56 34 34 56 34 34 56 34 34 56 34 34 56 56 56 92 34 34 56 0 0 0 34 34 56 0 0 0 56 56 56 0 0 0 76 63 63 46 46 76 0 0 0 63 63 76 0 0 0 0 0 0 0 0 0 56 34 34 0 0 0 82 70 82 0 0 0 0 0 0 0 0 0 56 34 34 56 34 34 0 0 0 76 63 63 0 0 0 0 0 0 0 0 0 0 0 0 56 34 34 0 0 0 0 0 0 92 56 56 76 46 46 76 46 46 34 34 56 0 0 0 0 0 0 46 46 76 0 0 0 76 46 46 0 0 0 0 0 0 76 53 76 0 0 0 63 58 63 34 21 34 34 34 56 34 34 56 0 0 0 0 0 0 56 34 34 46 46 76 34 34 56 0 0 0 0 0 0 34 34 56 46 46 76 34 34 56 34 34 56 82 70 82 0 0 0 0 0 0 0 0 0 46 46 76 34 34 56 0 0 0 0 0 0 56 34 34 56 34 34 0 0 0 46 46 76 34 34 56 46 46 76 0 0 0 0 0 0 0 0 0 34 34 56 0 0 0 0 0 0 0 0 0 56 34 34 34 21 34 0 0 0 34 21 34 76 63 63 0 0 0 0 0 0 56 34 34 34 21 34 0 0 0 46 46 76 63 46 63 0 0 0 0 0 0 76 63 63 34 34 56 34 21 34 76 46 46 0 0 0 56 56 56 46 46 76 34 34 56 46 46 76 46 46 76 56 34 34 0 0 0 0 0 0 56 34 34 76 46 46 0 0 0 56 34 34 0 0 0 63 46 63 0 0 0 0 0 0 34 34 56 56 34 34 46 46 76 34 34 56 34 34 56 0 0 0 56 34 34 0 0 0 46 46 76 34 34 56 34 34 56 34 21 34 56 34 34 96 63 76 56 50 82 0 0 0 63 46 63 70 70 92 63 46 63 63 63 76 0 0 0 34 21 34 0 0 0 63 58 63 56 56 56 0 0 0 0 0 0 0 0 0 0 0 0 56 34 34 0 0 0 56 56 56 46 39 63 46 46 76 82 56 70 0 0 0 56 34 34 0 0 0 63 39 46 56 34 34 0 0 0 0 0 0 56 34 34 34 21 34 56 34 34 96 63 76 82 50 56 56 34 34 0 0 0 34 34 56 76 63 63 34 34 56 34 34 56 0 0 0 0 0 0 63 46 63 0 0 0 0 0 0 70 66 82 0 0 0 34 34 56 0 0 0 34 34 56 34 21 34 34 34 56 63 46 63 34 34 56 0 0 0 0 0 0 46 39 63 34 34 56 0 0 0 34 34 56 0 0 0 56 43 70 63 63 76 0 0 0 34 34 56 0 0 0 46 46 76 34 34 56 46 46 76 63 46 63 0 0 0 46 39 63 82 66 100 34 34 56 46 46 76 56 34 34 0 0 0 0 0 0 0 0 0 34 21 34 56 34 34 56 34 34 76 46 46 0 0 0 76 46 46 0 0 0 56 34 34 56 56 56 76 63 63 76 46 46 82 66 70 56 34 34 56 34 34 0 0 0 0 0 0 70 43 56 0 0 0 0 0 0 63 58 63 0 0 0 0 0 0 46 28 46 76 63 63 56 34 34 0 0 0 0 0 0 76 46 46 34 34 56 46 46 76 0 0 0 0 0 0 0 0 0 34 34 56 63 63 76 0 0 0 82 70 82 76 46 46 70 56 82 0 0 0 56 56 56 34 34 56 0 0 0 0 0 0 46 46 76 56 34 34 56 43 70 34 21 34 34 21 34 70 70 92 0 0 0 34 34 56 0 0 0 56 56 56 34 34 56 70 66 82 34 34 56 34 34 56 0 0 0 34 34 56 34 21 34 0 0 0 34 21 34 63 63 76 56 56 56 34 34 56 56 56 56 56 34 34 76 46 46 56 34 34 34 34 56 0 0 0 63 46 63 76 76 76 0 0 0 34 34 56 0 0 0 0 0 0 56 34 34 82 56 70 56 34 34 0 0 0 34 34 56 63 46 63 56 56 56 0 0 0 46 39 63 0 0 0 0 0 0 34 34 56 0 0 0 46 46 76 34 34 56 34 34 56 63 46 63 76 63 63 0 0 0 63 46 63 0 0 0 0 0 0 56 56 56 63 46 63 0 0 0 0 0 0 46 46 76 46 46 76 0 0 0 76 76 105 70 70 92 34 34 56 46 39 63 0 0 0 63 63 76 34 34 56 56 56 56 63 58 63 0 0 0 46 46 76 0 0 0 76 63 96 63 63 76 63 63 76 63 46 63 56 56 56 0 0 0 0 0 0 0 0 0 56 34 34 0 0 0 56 34 34 82 66 70 56 34 34 34 34 56 34 21 34 34 34 56 0 0 0 0 0 0 56 34 34 46 28 46 0 0 0 34 21 34 0 0 0 82 50 56 76 46 46 0 0 0 63 39 46 56 34 34 92 56 56 56 34 34 63 63 76 76 46 46 34 34 56 0 0 0 34 34 56 56 34 34 56 34 34 0 0 0 70 50 70 56 56 56 0 0 0 76 76 76 34 34 56 34 34 56 34 34 56 63 63 76 0 0 0 70 70 92 34 34 56 0 0 0 0 0 0 0 0 0 56 56 56 56 50 82 0 0 0 0 0 0 34 34 56 76 63 96 63 46 63 63 46 63 76 76 105 46 39 63 0 0 0 34 21 34 34 34 56 0 0 0 0 0 0 0 0 0 34 21 34 0 0 0 0 0 0 0 0 0 56 34 34 76 46 46 56 56 56 56 34 34 92 56 56 76 46 46 0 0 0 0 0 0 0 0 0 56 34 34 56 34 34 56 34 34 0 0 0 0 0 0 63 39 46 0 0 0 34 21 34 34 21 34 0 0 0 63 39 46 96 63 76 56 56 56 56 56 56 34 34 56 34 21 34 0 0 0 0 0 0 0 0 0 63 58 63 76 46 46 34 34 56 56 34 34 0 0 0 76 63 63 56 34 34 46 46 76 0 0 0 56 56 56 34 21 34 0 0 0 34 34 56 56 34 34 34 34 56 0 0 0 63 46 63 63 39 46 0 0 0 63 58 96 56 34 34 34 34 56 34 34 56 34 34 56 0 0 0 0 0 0 46 46 76 0 0 0 46 46 76 82 70 82 34 34 56 56 34 34 0 0 0 0 0 0 0 0 0 0 0 0 56 34 34 56 34 34 0 0 0 56 34 34 63 46 63 0 0 0 0 0 0 76 46 46 0 0 0 34 21 34 76 46 46 76 46 46 34 34 56 76 63 63 46 28 46 0 0 0 56 34 34 34 34 56 63 39 46 56 34 34 0 0 0 0 0 0 96 72 76 56 34 34 0 0 0 0 0 0 56 56 56 0 0 0 76 63 63 76 63 63 56 56 56 56 34 34 63 58 63 0 0 0 87 72 87 56 56 56 34 34 56 0 0 0 46 39 63 34 34 56 56 56 92 63 63 105 34 21 34 0 0 0 34 34 56 76 63 63 0 0 0 0 0 0 34 34 56 34 34 56 34 34 56 0 0 0 0 0 0 34 34 56 56 34 34 34 21 34 34 21 34 34 34 56 0 0 0 63 46 63 63 39 46 0 0 0 0 0 0 0 0 0 76 46 46 0 0 0 56 34 34 56 34 34 0 0 0 56 56 56 56 34 34 56 34 34 56 34 34 56 34 34 0 0 0 56 34 34 46 28 46 56 34 34 0 0 0 63 39 46 0 0 0 0 0 0 0 0 0 34 34 56 0 0 0 0 0 0 76 46 46 76 46 46 0 0 0 34 34 56 56 34 34 63 46 63 63 46 63 63 63 76 76 76 105 56 56 56 0 0 0 70 50 70 70 43 56 56 56 56 46 39 63 0 0 0 0 0 0 0 0 0 46 46 76 34 34 56 46 46 76 0 0 0 34 34 56 34 34 56 46 46 76 0 0 0 0 0 0 63 63 76 0 0 0 34 34 56 87 87 105 0 0 0 63 46 63 0 0 0 0 0 0 56 56 92 56 34 34 82 50 56 46 46 76 0 0 0 56 34 34 76 46 46 0 0 0 63 39 46 0 0 0 63 39 46 0 0 0 34 21 34 82 56 70 0 0 0 76 63 63 0 0 0 63 58 63 0 0 0 0 0 0 0 0 0 34 21 34 56 34 34 0 0 0 56 34 34 76 46 46 76 63 63 0 0 0 34 34 56 92 56 56 63 46 63 0 0 0 56 34 34 34 34 56 63 46 63 56 34 34 63 46 63 92 56 56 0 0 0 76 46 46 34 21 34 46 39 63 0 0 0 82 70 82 0 0 0 56 34 34 56 56 56 34 34 56 34 34 56 0 0 0 46 46 76 0 0 0 46 39 63 34 34 56 0 0 0 34 34 56 34 34 56 34 34 56 34 34 56 34 34 56 63 58 63 0 0 0 34 34 56 56 34 34 56 50 82 56 34 34 0 0 0 34 34 56 56 56 56 0 0 0 0 0 0 63 46 63 0 0 0 0 0 0 34 34 56 0 0 0 0 0 0 76 46 46 0 0 0 76 46 46 56 34 34 56 56 56 56 34 34 34 21 34 0 0 0 87 53 63 0 0 0 0 0 0 0 0 0 56 34 34 56 34 34 56 34 34 92 70 70 56 34 34 56 34 34 56 34 34 76 63 63 56 34 34 0 0 0 34 21 34 34 21 34 34 34 56 63 63 76 63 39 46 0 0 0 46 39 63 0 0 0 46 46 76 0 0 0 63 63 76 0 0 0 63 63 76 34 21 34 34 34 56 0 0 0 0 0 0 34 34 56 34 34 56 56 34 34 46 46 76 46 46 76 34 34 56 46 46 76 46 46 76 0 0 0 46 46 76 63 46 63 34 34 56 70 56 82 0 0 0 34 34 56 34 34 56 56 34 34 76 46 46 46 46 76 0 0 0 0 0 0 0 0 0 82 56 70 56 34 34 56 34 34 56 34 34 34 34 56 0 0 0 0 0 0 70 50 70 0 0 0 0 0 0 0 0 0 76 46 46 0 0 0 96 63 76 56 34 34 76 63 63 76 46 46 0 0 0 63 58 63 56 56 56 34 34 56 76 46 46 56 34 34 56 34 34 76 46 46 0 0 0 46 46 76 56 34 34 70 50 70 56 34 34 56 56 56 34 34 56 46 46 76 56 34 34 56 56 92 63 39 46 0 0 0 34 34 56 34 34 56 46 39 63 34 34 56 0 0 0 34 34 56 34 34 56 46 46 76 34 34 56 100 92 108 0 0 0 0 0 0 0 0 0 46 46 76 34 21 34 70 56 82 56 34 34 0 0 0 56 56 56 0 0 0 63 63 76 63 46 63 0 0 0 0 0 0 0 0 0 0 0 0 0 0 0 92 56 56 0 0 0 34 21 34 0 0 0 76 63 63 63 46 63 34 34 56 96 63 76 0 0 0 0 0 0 56 34 34 56 34 34 0 0 0 56 34 34 56 34 34 34 34 56 0 0 0 56 34 34 56 34 34 0 0 0 76 46 46 70 50 70 56 56 56 56 34 34 0 0 0 0 0 0 0 0 0 0 0 0 34 34 56 34 34 56 0 0 0 70 50 70 0 0 0 0 0 0 34 34 56 76 63 63 0 0 0 0 0 0 34 34 56 46 39 63 63 63 76 34 34 56 0 0 0 34 21 34 0 0 0 46 46 76 34 34 56 63 46 63 46 46 76 34 34 56 56 50 82 70 50 70 0 0 0 46 46 76 34 34 56 63 63 76 0 0 0 56 56 56 0 0 0 0 0 0 76 46 46 82 56 70 56 34 34 105 87 87 63 46 63 56 56 56 0 0 0 34 34 56 0 0 0 56 34 34 76 63 63 0 0 0 56 34 34 0 0 0 56 34 34 0 0 0 0 0 0 0 0 0 0 0 0 56 34 34 0 0 0 34 21 34 76 46 46 76 46 46 76 46 46 0 0 0 56 34 34 56 34 34 0 0 0 0 0 0 76 46 46 0 0 0 0 0 0 0 0 0 34 21 34 34 34 56 46 46 76 56 34 34 0 0 0 76 76 105 63 63 76 46 39 63 56 56 92 0 0 0 34 34 56 46 39 63 34 34 56 34 34 56 46 28 46 56 34 34 34 34 56 0 0 0 34 34 56 34 34 56 34 34 56 63 63 76 0 0 0 34 34 56 0 0 0 0 0 0 56 56 56 34 34 56 56 56 92 0 0 0 34 34 56 0 0 0 0 0 0 0 0 0 76 46 46 34 34 56 63 39 46 56 34 34 56 34 34 63 39 46 56 34 34 0 0 0 56 34 34 0 0 0 0 0 0 56 34 34 56 34 34 56 34 34 63 46 63 0 0 0 0 0 0 92 56 56 0 0 0 56 34 34 56 34 34 56 34 34 56 34 34 76 46 46 56 34 34 34 34 56 0 0 0 56 34 34 0 0 0 34 34 56 0 0 0 0 0 0 0 0 0 34 34 56 0 0 0 56 56 92 70 56 82 34 34 56 0 0 0 34 21 34 0 0 0 0 0 0 46 46 76 0 0 0 63 46 63 34 21 34 76 76 76 0 0 0 34 34 56 0 0 0 46 46 76 87 84 96 56 34 34 0 0 0 34 34 56 46 46 76 0 0 0 46 46 76 0 0 0 0 0 0 34 21 34 56 34 34 0 0 0 0 0 0 56 34 34 56 34 34 0 0 0 0 0 0 92 56 56 76 46 46 56 34 34 56 34 34 56 34 34 56 34 34 56 34 34 82 70 82 63 39 46 63 39 46 56 34 34 56 34 34 63 39 46 34 21 34 0 0 0 105 63 63 76 46 46 56 34 34 0 0 0 76 63 63 70 56 82 96 76 87 63 63 76 0 0 0 63 63 76 0 0 0 34 34 56 34 34 56 0 0 0 0 0 0 63 46 63 0 0 0 56 34 34 56 43 70 0 0 0 34 21 34 34 21 34 0 0 0 0 0 0 0 0 0 34 21 34 0 0 0 0 0 0 0 0 0 0 0 0 34 34 56 34 34 56 46 46 76 46 46 76 56 34 34 34 34 56 46 46 76 0 0 0 0 0 0 0 0 0 56 56 56 0 0 0 56 34 34 0 0 0 76 46 46 0 0 0 63 46 63 56 34 34 76 46 46 76 46 46 76 46 46 63 39 46 76 63 63 56 34 34 0 0 0 56 34 34 92 56 56 76 46 46 76 63 63 92 56 56 76 46 46 76 46 46 0 0 0 56 34 34 56 34 34 0 0 0 0 0 0 56 34 34 56 34 34 34 34 56 56 34 34 34 34 56 34 21 34 46 39 63 56 34 34 34 34 56 0 0 0 0 0 0 0 0 0 0 0 0 0 0 0 34 34 56 0 0 0 46 46 76 34 34 56 0 0 0 34 21 34 0 0 0 0 0 0 34 34 56 0 0 0 0 0 0 56 34 34 0 0 0 0 0 0 46 39 63 0 0 0 34 34 56 0 0 0 0 0 0 34 34 56 0 0 0 0 0 0 34 34 56 0 0 0 63 63 76 0 0 0 0 0 0 63 46 63 56 34 34 0 0 0 56 34 34 0 0 0 63 46 63 0 0 0 56 34 34 0 0 0 56 34 34 63 46 63 0 0 0 56 34 34 56 34 34 56 34 34 34 21 34 63 39 46 63 39 46 56 34 34 92 56 56 76 46 46 56 56 56 70 43 56 76 63 63 56 56 56 56 34 34 82 50 56 56 34 34 56 50 82 56 56 92 34 34 56 63 46 63 34 21 34 56 56 56 34 21 34 0 0 0 56 56 56 34 34 56 70 66 82 0 0 0 34 34 56 0 0 0 46 46 76 63 58 63 0 0 0 0 0 0 34 34 56 34 34 56 0 0 0 0 0 0 0 0 0 0 0 0 46 46 76 0 0 0 0 0 0 0 0 0 70 70 92 0 0 0 63 46 63 76 76 76 56 56 56 0 0 0 34 21 34 76 63 63 76 46 46 0 0 0 56 34 34 56 34 34 34 34 56 0 0 0 76 46 46 0 0 0 34 21 34 0 0 0 56 34 34 0 0 0 56 34 34 34 21 34 0 0 0 63 39 46 56 34 34 56 34 34 76 46 46 0 0 0 0 0 0 63 46 63 0 0 0 76 46 46 0 0 0 56 34 34 34 34 56 34 21 34 56 34 34 0 0 0 34 34 56 0 0 0 0 0 0 56 34 34 0 0 0 46 28 46 56 56 56 34 34 56 46 46 76 46 39 63 0 0 0 34 34 56 0 0 0 0 0 0 63 63 105 34 34 56 34 34 56 34 34 56 56 56 56 70 50 70 76 63 63 56 56 92 0 0 0 46 46 76 56 56 92 34 21 34 0 0 0 0 0 0 34 34 56 34 34 56 0 0 0 0 0 0 0 0 0 0 0 0 56 34 34 56 34 34 76 46 46 0 0 0 0 0 0 0 0 0 105 63 63 0 0 0 0 0 0 0 0 0 56 34 34 56 34 34 0 0 0 76 46 46 0 0 0 46 39 63 63 39 46 34 34 56 56 34 34 0 0 0 76 63 63 0 0 0 0 0 0 56 34 34 63 39 46 63 39 46 76 46 46 34 34 56 34 34 56 56 56 56 34 34 56 63 63 76 0 0 0 0 0 0 63 63 76 34 34 56 34 34 56 0 0 0 34 34 56 34 34 56 0 0 0 0 0 0 34 34 56 56 34 34 0 0 0 34 21 34 34 34 56 0 0 0 0 0 0 0 0 0 0 0 0 34 34 56 34 34 56 63 46 63 56 56 56 56 56 56 34 34 56 0 0 0 34 34 56 0 0 0 0 0 0 34 21 34 76 46 46 76 46 46 56 34 34 76 46 46 56 34 34 56 34 34 56 34 34 76 46 46 0 0 0 34 21 34 0 0 0 56 34 34 0 0 0 56 34 34 56 56 56 0 0 0 76 46 46 0 0 0 0 0 0 34 21 34 56 34 34 0 0 0 76 76 76 56 34 34 63 46 63 46 28 46 76 46 46 0 0 0 63 46 63 0 0 0 56 34 34 56 56 56 0 0 0 34 34 56 70 70 92 34 34 56 34 34 56 56 56 56 34 34 56 34 34 56 63 63 105 0 0 0 34 34 56 34 34 56 46 39 63 46 46 76 0 0 0 34 34 56 34 34 56 46 39 63 0 0 0 63 63 76 34 34 56 0 0 0 56 56 56 46 46 76 34 34 56 34 34 56 56 56 56 34 34 56 0 0 0 46 46 76 0 0 0 34 34 56 0 0 0 0 0 0 82 50 56 0 0 0 0 0 0 56 34 34 56 34 34 0 0 0 0 0 0 56 34 34 0 0 0 0 0 0 0 0 0 0 0 0 0 0 0 34 21 34 56 34 34 56 34 34 0 0 0 0 0 0 96 58 63 56 56 56 76 46 46 0 0 0 34 34 56 0 0 0 56 56 56 63 39 46 0 0 0 0 0 0 0 0 0 0 0 0 46 39 63 56 56 92 34 34 56 34 34 56 0 0 0 0 0 0 0 0 0 34 34 56 0 0 0 34 21 34 34 34 56 34 34 56 34 21 34 0 0 0 34 34 56 34 34 56 0 0 0 0 0 0 0 0 0 46 46 76 0 0 0 63 63 76 34 34 56 0 0 0 63 46 63 56 56 56 56 56 56 34 34 56 56 34 34 0 0 0 56 56 56 56 34 34 0 0 0 63 63 76 56 34 34 105 63 63 0 0 0 0 0 0 0 0 0 96 84 87 76 46 46 0 0 0 76 46 46 0 0 0 56 56 56 34 21 34 0 0 0 0 0 0 56 34 34 82 50 56 56 56 56 63 39 46 56 34 34 56 56 56 96 58 63 56 34 34 0 0 0 63 58 63 56 34 34 0 0 0 0 0 0 92 56 56 56 34 34 0 0 0 56 56 92 0 0 0 0 0 0 0 0 0 0 0 0 0 0 0 0 0 0 0 0 0 46 39 63 34 34 56 34 34 56 0 0 0 46 46 76 34 34 56 0 0 0 0 0 0 70 70 92 34 34 56 0 0 0 34 34 56 0 0 0 34 34 56 63 58 63 34 21 34 56 34 34 63 46 63 34 34 56 34 34 56 0 0 0 34 34 56 0 0 0 76 46 46 0 0 0 0 0 0 0 0 0 56 34 34 0 0 0 0 0 0 82 50 56 92 56 56 56 34 34 56 34 34 56 34 34 92 56 56 0 0 0 63 39 46 56 34 34 56 34 34 56 34 34 56 56 56 0 0 0 63 46 63 96 63 76 0 0 0 56 34 34 56 34 34 0 0 0 82 56 70 0 0 0 34 34 56 0 0 0 70 56 82 56 34 34 46 46 76 34 34 56 34 34 56 63 58 96 0 0 0 76 76 76 34 21 34 76 63 63 56 56 56 34 34 56 0 0 0 0 0 0 0 0 0 0 0 0 0 0 0 70 70 92 0 0 0 56 56 56 34 34 56 0 0 0 0 0 0 34 34 56 0 0 0 56 56 56 46 46 76 46 46 76 34 21 34 70 70 92 56 56 92 0 0 0 34 34 56 0 0 0 0 0 0 0 0 0 0 0 0 56 34 34 56 56 56 0 0 0 56 34 34 56 34 34 0 0 0 63 46 63 63 39 46 0 0 0 92 56 56 76 46 46 34 21 34 0 0 0 0 0 0 92 56 56 56 34 34 0 0 0 34 21 34 0 0 0 63 46 63 108 70 82 63 46 63 0 0 0 56 56 56 63 46 63 56 34 34 56 34 34 56 34 34 46 46 76 0 0 0 0 0 0 56 34 34 76 72 96 0 0 0 70 56 82 0 0 0 0 0 0 0 0 0 63 46 63 34 34 56 46 46 76 63 46 63 56 50 82 56 56 92 34 34 56 34 34 56 34 21 34 0 0 0 0 0 0 34 34 56 63 63 76 76 63 96 34 34 56 70 56 82 0 0 0 34 21 34 46 46 76 0 0 0 70 70 92 56 34 34 56 34 34 0 0 0 76 46 46 82 70 82 34 34 56 96 72 76 56 34 34 0 0 0 0 0 0 56 34 34 56 34 34 56 34 34 0 0 0 56 34 34 56 34 34 56 34 34 56 34 34 56 34 34 0 0 0 0 0 0 56 34 34 0 0 0 0 0 0 56 34 34 0 0 0 56 56 56 76 63 63 0 0 0 0 0 0 56 34 34 63 39 46 0 0 0 63 46 63 63 46 63 56 56 56 46 46 76 76 76 76 0 0 0 0 0 0 56 56 56 0 0 0 82 82 92 70 61 70 34 21 34 46 46 76 34 34 56 0 0 0 34 34 56 0 0 0 46 39 63 0 0 0 34 34 56 34 34 56 0 0 0 34 34 56 0 0 0 63 58 96 56 56 92 34 34 56 46 46 76 56 34 34 46 46 76 34 34 56 0 0 0 34 34 56 0 0 0 96 58 63 46 28 46 56 34 34 0 0 0 63 58 63 56 34 34 76 63 63 0 0 0 56 34 34 56 56 56 76 46 46 56 34 34 56 34 34 76 63 63 82 66 70 63 39 46 76 63 63 92 56 56 0 0 0 0 0 0 63 46 63 87 68 76 56 34 34 82 56 70 56 56 56 56 34 34 0 0 0 56 34 34 34 34 56 0 0 0 34 34 56 76 46 46 63 46 63 34 34 56 56 56 56 0 0 0 0 0 0 0 0 0 0 0 0 63 46 63 63 46 63 82 82 92 0 0 0 56 56 56 0 0 0 0 0 0 0 0 0 0 0 0 0 0 0 34 34 56 34 34 56 0 0 0 34 34 56 46 39 63 34 34 56 56 34 34 76 76 76 34 34 56 34 34 56 0 0 0 0 0 0 56 34 34 0 0 0 0 0 0 46 39 63 0 0 0 0 0 0 0 0 0 34 34 56 76 63 63 56 34 34 0 0 0 0 0 0 76 46 46 56 34 34 46 39 63 56 56 56 0 0 0 0 0 0 56 34 34 56 34 34 34 34 56 0 0 0 56 34 34 56 34 34 0 0 0 46 46 76 0 0 0 0 0 0 0 0 0 0 0 0 0 0 0 56 34 34 63 63 76 56 34 34 0 0 0 0 0 0 92 70 70 46 46 76 56 56 56 46 46 76 87 76 96 63 58 63 34 34 56 34 34 56 34 34 56 0 0 0 34 34 56 56 50 82 0 0 0 0 0 0 0 0 0 0 0 0 0 0 0 0 0 0 0 0 0 0 0 0 0 0 0 0 0 0 0 0 0 0 0 0 34 34 56 34 21 34 34 34 56 0 0 0 0 0 0 56 56 56 34 34 56 0 0 0 0 0 0 56 34 34 63 46 63 56 34 34 0 0 0 0 0 0 56 34 34 34 34 56 56 34 34 56 56 56 0 0 0 0 0 0 0 0 0 0 0 0 56 34 34 0 0 0 56 34 34 70 50 70 34 34 56 0 0 0 0 0 0 0 0 0 76 46 46 0 0 0 34 34 56 56 56 56 76 63 63 82 70 82 0 0 0 0 0 0 0 0 0 0 0 0 56 56 56 82 70 82 46 46 76 0 0 0 34 34 56 76 63 63 63 63 76 34 34 56 0 0 0 46 39 63 34 34 56 0 0 0 34 34 56 0 0 0 34 34 56 0 0 0 34 34 56 0 0 0 0 0 0 46 46 76 46 46 76 34 34 56 63 39 46 0 0 0 0 0 0 87 58 76 56 34 34 0 0 0 56 34 34 0 0 0 63 46 63 0 0 0 63 63 76 0 0 0 56 34 34 92 56 56 56 34 34 92 56 56 76 46 46 0 0 0 92 56 56 56 34 34 0 0 0 76 46 46 0 0 0 0 0 0 56 34 34 92 56 56 0 0 0 92 56 56 56 34 34 0 0 0 0 0 0 46 46 76 34 21 34 56 34 34 34 34 56 0 0 0 0 0 0 34 34 56 76 46 46 56 34 34 0 0 0 0 0 0 0 0 0 34 34 56 63 63 76 56 56 56 34 34 56 56 56 56 0 0 0 46 39 63 56 56 56 0 0 0 34 34 56 34 34 56 0 0 0 46 46 76 56 56 56 0 0 0 0 0 0 0 0 0 0 0 0 0 0 0 34 34 56 0 0 0 0 0 0 56 34 34 46 46 76 34 34 56 0 0 0 56 34 34 56 34 34 0 0 0 0 0 0 0 0 0 0 0 0 76 46 46 76 63 63 56 34 34 0 0 0 76 46 46 56 34 34 70 56 82 0 0 0 56 34 34 63 39 46 0 0 0 76 46 46 0 0 0 0 0 0 0 0 0 34 21 34 105 87 87 76 46 46 46 39 63 34 21 34 0 0 0 34 34 56 34 21 34 63 46 63 0 0 0 0 0 0 56 34 34 56 34 34 0 0 0 63 46 63 63 46 63 34 34 56 0 0 0 70 61 70 34 34 56 0 0 0 0 0 0 34 34 56 82 82 92 0 0 0 56 34 34 56 56 56 34 34 56 34 21 34 0 0 0 34 34 56 63 63 105 0 0 0 0 0 0 34 34 56 34 34 56 46 46 76 0 0 0 0 0 0 0 0 0 34 34 56 56 34 34 56 34 34 76 76 76 34 34 56 0 0 0 56 34 34 82 66 70 56 34 34 0 0 0 63 39 46 56 56 56 0 0 0 0 0 0 63 39 46 92 56 56 0 0 0 105 63 63 56 34 34 0 0 0 0 0 0 0 0 0 56 34 34 56 34 34 76 46 46 96 84 87 0 0 0 0 0 0 0 0 0 0 0 0 0 0 0 56 34 34 34 34 56 0 0 0 0 0 0 0 0 0 0 0 0 0 0 0 0 0 0 0 0 0 0 0 0 0 0 0 0 0 0 34 34 56 0 0 0 0 0 0 0 0 0 0 0 0 0 0 0 0 0 0 0 0 0 63 58 63 0 0 0 34 21 34 34 34 56 0 0 0 34 34 56 34 34 56 56 56 56 46 46 76 0 0 0 0 0 0 70 70 92 0 0 0 0 0 0 0 0 0 56 56 56 63 46 63 34 34 56 0 0 0 0 0 0 0 0 0 76 63 63 0 0 0 56 34 34 0 0 0 56 34 34 63 58 63 63 39 46 76 46 46 34 34 56 63 39 46 34 34 56 0 0 0 0 0 0 56 56 56 0 0 0 56 34 34 76 63 63 0 0 0 0 0 0 0 0 0 0 0 0 34 34 56 34 34 56 46 39 63 0 0 0 0 0 0 0 0 0 56 56 56 0 0 0 63 46 63 34 34 56 56 56 56 56 34 34 0 0 0 0 0 0 63 63 76 34 34 56 56 56 56 82 78 82 46 46 76 34 34 56 34 34 56 82 82 92 96 76 87 46 46 76 56 50 82 70 70 92 46 39 63 0 0 0 63 58 63 34 21 34 46 46 76 46 46 76 0 0 0 46 28 46 56 56 92 0 0 0 0 0 0 34 34 56 63 63 76 56 34 34 34 34 56 0 0 0 0 0 0 0 0 0 0 0 0 0 0 0 56 34 34 0 0 0 56 56 56 76 46 46 76 46 46 76 46 46 76 63 63 0 0 0 63 46 63 0 0 0 56 34 34 0 0 0 105 63 63 0 0 0 63 39 46 56 34 34 34 34 56 34 34 56 0 0 0 0 0 0 0 0 0 34 34 56 0 0 0 34 21 34 92 70 70 0 0 0 0 0 0 0 0 0 56 34 34 0 0 0 0 0 0 0 0 0 0 0 0 56 34 34 63 46 63 34 21 34 34 34 56 0 0 0 56 56 56 34 34 56 46 46 76 34 34 56 34 34 56 46 46 76 46 46 76 34 34 56 56 56 56 46 46 76 63 63 76 46 46 76 70 70 92 63 63 76 0 0 0 34 21 34 63 39 46 46 46 76 56 56 92 0 0 0 34 34 56 0 0 0 0 0 0 56 34 34 0 0 0 56 34 34 92 56 56 56 56 56 56 34 34 0 0 0 63 46 63 56 34 34 34 34 56 34 21 34 56 34 34 63 46 63 92 56 56 0 0 0 0 0 0 56 34 34 56 34 34 56 34 34 34 21 34 56 56 56 0 0 0 0 0 0 70 50 70 0 0 0 0 0 0 0 0 0 0 0 0 0 0 0 34 34 56 0 0 0 0 0 0 0 0 0 0 0 0 87 76 96 46 46 76 0 0 0 0 0 0 0 0 0 0 0 0 0 0 0 34 34 56 0 0 0 34 34 56 63 63 76 34 34 56 46 46 76 0 0 0 0 0 0 34 34 56 34 34 56 0 0 0 34 34 56 46 46 76 0 0 0 0 0 0 70 56 82 0 0 0 46 39 63 0 0 0 0 0 0 0 0 0 56 34 34 76 46 46 56 34 34 0 0 0 82 66 70 0 0 0 56 34 34 56 34 34 105 63 63 56 34 34 56 56 56 76 46 46 92 56 56 0 0 0 0 0 0 0 0 0 0 0 0 0 0 0 0 0 0 0 0 0 0 0 0 56 34 34 0 0 0 56 34 34 56 56 56 0 0 0 34 21 34 0 0 0 0 0 0 0 0 0 0 0 0 0 0 0 56 34 34 56 34 34 34 34 56 76 46 46 0 0 0 0 0 0 0 0 0 34 34 56 0 0 0 0 0 0 0 0 0 0 0 0 0 0 0 0 0 0 0 0 0 34 34 56 0 0 0 0 0 0 34 34 56 0 0 0 0 0 0 56 56 92 0 0 0 76 63 96 0 0 0 34 34 56 34 34 56 46 46 76 34 34 56 46 46 76 63 46 63 0 0 0 56 56 56 0 0 0 76 46 46 63 39 46 56 34 34 76 63 63 0 0 0 56 34 34 56 34 34 76 46 46 0 0 0 0 0 0 92 70 70 56 34 34 0 0 0 0 0 0 0 0 0 56 34 34 0 0 0 76 46 46 63 46 63 34 34 56 0 0 0 34 21 34 56 34 34 0 0 0 0 0 0 56 34 34 0 0 0 0 0 0 0 0 0 0 0 0 34 34 56 0 0 0 0 0 0 0 0 0 0 0 0 34 34 56 56 56 56 34 34 56 0 0 0 56 34 34 46 46 76 0 0 0 46 46 76 0 0 0 46 39 63 34 34 56 0 0 0 0 0 0 0 0 0 0 0 0 34 34 56 34 34 56 56 50 82 63 63 76 0 0 0 0 0 0 46 46 76 46 46 76 56 56 56 63 63 76 34 21 34 34 34 56 0 0 0 56 34 34 92 70 70 0 0 0 56 34 34 0 0 0 56 56 56 34 21 34 0 0 0 0 0 0 76 63 63 34 34 56 0 0 0 63 39 46 0 0 0 56 34 34 76 46 46 0 0 0 92 56 56 56 34 34 56 34 34 34 34 56 0 0 0 56 34 34 0 0 0 34 34 56 56 34 34 0 0 0 0 0 0 56 34 34 0 0 0 76 63 63 46 39 63 0 0 0 0 0 0 34 21 34 34 34 56 0 0 0 0 0 0 0 0 0 70 56 82 0 0 0 34 34 56 56 34 34 0 0 0 0 0 0 34 21 34 70 56 82 0 0 0 0 0 0 0 0 0 0 0 0 63 63 76 63 58 63 34 34 56 34 21 34 70 56 82 0 0 0 46 46 76 46 46 76 34 21 34 63 63 76 56 34 34 0 0 0 0 0 0 0 0 0 56 34 34 0 0 0 56 34 34 105 63 63 92 56 56 63 58 63 0 0 0 34 34 56 56 34 34 0 0 0 56 34 34 56 34 34 56 34 34 0 0 0 0 0 0 63 39 46 56 34 34 34 21 34 0 0 0 0 0 0 56 34 34 34 34 56 56 34 34 56 34 34 56 34 34 0 0 0 0 0 0 34 21 34 0 0 0 0 0 0 0 0 0 0 0 0 0 0 0 0 0 0 56 34 34 0 0 0 34 34 56 0 0 0 34 21 34 0 0 0 46 39 63 34 34 56 0 0 0 56 34 34 56 34 34 46 46 76 0 0 0 46 46 76 0 0 0 0 0 0 34 21 34 0 0 0 56 56 92 56 34 34 56 56 56 46 46 76 63 46 63 34 34 56 34 34 56 0 0 0 34 21 34 0 0 0 56 34 34 56 34 34 76 63 63 63 46 63 56 34 34 76 46 46 56 34 34 0 0 0 0 0 0 0 0 0 0 0 0 0 0 0 0 0 0 56 34 34 82 56 70 0 0 0 0 0 0 0 0 0 0 0 0 0 0 0 56 34 34 0 0 0 0 0 0 0 0 0 0 0 0 0 0 0 0 0 0 56 34 34 0 0 0 0 0 0 0 0 0 0 0 0 0 0 0 0 0 0 34 34 56 56 34 34 34 34 56 0 0 0 0 0 0 0 0 0 0 0 0 0 0 0 0 0 0 34 34 56 0 0 0 34 34 56 0 0 0 34 34 56 0 0 0 0 0 0 56 56 56 34 21 34 0 0 0 0 0 0 0 0 0 0 0 0 0 0 0 0 0 0 56 34 34 0 0 0 34 34 56 34 34 56 0 0 0 34 34 56 