P3
64 64
255
70 54 56 72 58 61 72 53 54 82 68 71 69 51 52 78 61 63 83 65 65 80 61 62 82 70 71 76 62 62 79 62 64 83 66 68 72 59 62 82 69 71 74 61 62 80 64 67 74 63 65 75 68 71 75 62 65 73 59 62 77 66 68 71 61 63 72 62 65 73 60 62 67 58 61 62 52 53 69 61 64 68 59 63 69 62 64 70 65 70 71 62 63 68 62 64 73 65 69 68 62 67 71 64 66 69 63 68 71 66 69 67 64 73 72 66 71 76 73 80 73 70 76 65 63 68 68 66 75 71 69 74 71 66 71 64 61 71 69 65 72 61 57 63 73 69 77 65 63 73 68 65 73 70 68 75 69 66 72 74 71 78 61 55 70 61 57 65 67 64 72 62 61 72 73 71 80 57 53 66 70 67 75 66 64 75 60 55 69 48 44 68 51 43 43 81 68 69 73 62 63 70 55 57 79 65 65 92 76 76 85 69 69 84 71 72 79 64 65 80 63 65 87 72 73 80 69 70 83 68 68 84 74 74 82 65 65 75 60 62 73 64 66 77 68 69 77 64 65 81 70 71 80 69 71 77 71 73 77 70 72 82 74 75 74 66 68 78 73 75 74 65 67 71 66 68 72 68 69 84 76 80 80 75 77 76 71 74 76 71 73 82 74 78 78 73 77 70 66 69 73 69 72 77 74 79 71 68 73 66 64 66 87 85 88 87 82 85 85 83 87 72 68 75 68 66 72 82 78 85 80 77 81 80 79 85 83 81 89 77 73 79 83 80 84 57 54 67 72 70 78 70 67 72 71 69 76 76 74 83 75 73 82 66 63 74 74 72 80 65 63 72 66 61 72 66 64 71 48 44 66 38 34 63 38 32 32 94 82 83 92 84 86 94 81 82 92 79 80 96 85 85 84 76 77 100 89 90 99 88 90 103 93 93 92 84 85 83 71 73 97 91 93 101 91 92 105 96 97 93 83 84 97 89 90 88 78 79 101 91 91 96 90 92 92 86 88 92 85 87 105 98 100 106 98 101 94 86 89 98 92 95 93 88 90 92 85 87 99 93 95 91 86 87 90 83 85 97 92 95 95 90 92 87 82 86 90 86 88 95 90 93 95 87 88 98 94 97 88 83 86 91 87 90 88 84 88 91 88 92 103 100 104 99 96 100 97 93 97 100 96 100 98 96 99 98 94 99 100 98 103 97 95 100 97 94 100 95 93 98 85 83 88 86 81 87 87 85 90 83 80 87 73 68 75 74 73 78 79 77 83 83 81 87 71 69 76 74 69 78 37 35 63 43 40 71 44 41 42 88 82 82 102 88 89 105 92 93 95 85 85 97 86 87 99 86 87 99 89 90 95 82 83 101 86 87 95 86 87 102 92 93 94 84 86 99 91 93 94 82 84 83 73 74 99 89 90 88 78 81 95 87 89 97 88 89 100 90 92 89 80 81 96 87 88 94 88 92 104 97 98 102 98 98 97 90 92 102 96 98 95 89 91 100 95 98 100 95 97 108 103 106 95 90 92 92 88 90 90 83 86 91 88 90 87 84 87 89 84 88 90 86 91 101 97 100 98 93 97 100 96 102 91 88 93 98 93 98 88 84 90 95 93 96 85 83 88 93 88 95 95 93 96 92 90 96 80 77 82 88 85 94 87 84 89 82 80 88 90 87 96 82 79 88 91 90 95 80 77 86 82 80 89 77 75 84 68 66 76 74 72 84 52 50 79 43 40 71 40 32 32 87 70 70 90 78 78 96 87 87 92 81 82 92 83 84 102 91 91 94 87 88 88 79 81 98 87 89 97 89 90 93 82 84 106 94 96 95 85 85 100 94 95 103 91 92 94 88 89 100 90 92 102 92 94 103 95 96 93 87 88 105 98 98 111 104 106 92 85 85 103 96 98 91 83 87 100 92 94 91 85 88 101 92 93 97 91 93 104 99 101 98 94 96 96 91 94 84 83 85 98 93 95 93 89 91 97 93 96 94 92 94 96 92 97 100 97 100 89 86 89 85 81 85 101 97 100 94 92 97 96 95 100 102 99 105 111 108 113 101 100 103 93 90 93 101 98 102 96 94 100 95 92 96 87 84 89 91 89 95 87 84 90 85 82 88 81 78 87 81 77 87 81 79 86 75 73 80 72 70 78 79 77 86 53 50 73 45 41 74 41 31 31 97 84 85 85 70 71 101 91 91 99 89 89 102 89 90 101 87 88 96 87 87 90 79 80 89 78 78 101 90 90 104 96 96 111 102 103 93 82 83 103 94 95 94 87 89 99 91 92 99 90 91 104 95 97 102 91 91 104 96 98 96 89 90 103 97 99 94 86 87 105 99 101 99 95 97 97 92 94 101 96 98 99 96 98 96 93 95 98 95 96 82 76 80 103 101 104 94 88 92 98 93 95 97 93 97 112 107 110 100 97 99 98 96 99 104 101 103 103 99 103 94 92 95 96 93 97 89 86 91 92 90 96 108 104 109 100 96 100 90 88 94 103 100 103 94 91 96 97 96 101 84 83 88 84 81 87 91 89 96 89 86 93 96 94 100 95 92 98 82 78 85 87 85 92 83 82 90 80 78 87 82 79 87 42 40 63 46 42 74 49 43 43 99 85 86 101 91 91 107 95 96 104 92 93 102 90 90 84 75 77 98 87 88 96 86 87 91 78 80 104 93 94 97 87 88 102 94 94 96 87 88 97 88 88 101 92 94 99 92 93 89 81 82 104 93 94 100 94 95 100 93 94 97 89 90 104 98 99 106 99 101 107 100 102 104 98 99 109 104 107 96 91 92 101 97 98 107 103 105 98 94 96 115 111 114 108 102 105 104 99 102 101 98 101 103 100 103 98 96 98 104 103 107 99 97 100 112 110 114 99 96 99 100 97 100 86 84 89 112 108 110 100 99 102 89 88 93 101 100 104 95 94 99 89 85 89 103 100 105 95 91 96 84 80 85 100 98 104 86 83 88 87 85 93 93 92 98 79 76 82 91 88 96 88 86 94 84 80 86 70 67 79 77 76 83 46 44 65 44 42 75 36 30 30 106 95 96 89 80 80 101 86 86 96 85 87 101 91 93 98 89 90 96 85 86 109 99 100 105 93 93 102 90 91 116 105 107 104 93 94 100 91 92 110 98 99 104 92 93 101 92 93 97 86 88 110 103 105 105 98 99 108 100 102 104 99 101 97 90 91 103 95 97 96 88 89 109 103 104 85 79 81 77 72 74 69 63 65 85 82 83 84 79 81 82 79 81 79 74 78 88 85 86 91 87 90 95 92 95 102 99 102 108 104 106 100 99 102 117 114 116 100 96 99 107 105 108 101 99 102 107 105 109 101 98 102 94 92 97 102 100 103 104 102 106 106 104 109 107 104 110 96 93 98 100 99 105 102 99 105 91 87 95 96 94 101 104 101 109 85 84 89 88 86 96 80 78 85 90 88 98 91 89 94 88 85 92 48 45 66 45 41 73 53 50 50 104 93 93 103 92 93 93 80 81 106 94 94 100 90 90 102 89 90 96 87 88 111 98 99 110 101 101 101 91 91 93 84 85 112 102 103 115 106 107 104 94 95 106 94 96 102 94 95 112 106 106 96 89 90 105 98 99 104 96 97 106 99 100 90 84 85 86 79 82 69 61 64 76 70 72 80 74 76 77 72 74 80 74 75 83 79 81 82 79 80 76 71 73 77 74 77 68 63 67 84 81 83 78 76 77 67 64 67 82 78 80 82 79 83 95 93 96 94 92 94 107 105 108 96 93 98 105 104 108 106 103 108 106 104 109 107 106 109 107 103 107 110 108 111 101 98 104 100 99 103 97 94 100 98 97 102 88 86 93 99 96 102 94 91 99 107 105 108 79 77 85 93 92 97 82 79 89 84 80 89 82 79 92 46 43 67 48 45 79 50 40 41 105 92 93 105 94 95 103 89 90 106 97 97 107 98 99 112 102 102 107 96 96 116 106 107 113 100 101 102 88 89 107 96 96 105 94 95 113 102 103 101 92 92 112 105 105 113 102 103 110 101 102 101 94 96 104 95 95 88 82 83 69 60 62 80 72 74 74 67 69 80 73 73 84 80 81 85 78 79 78 74 76 79 71 74 87 85 87 81 78 79 75 71 73 85 79 81 89 85 88 86 82 85 87 84 85 87 85 88 88 87 91 87 86 88 82 80 83 81 79 84 101 99 103 105 103 106 112 110 113 104 102 106 99 98 103 107 104 109 111 109 115 120 118 121 107 106 109 107 104 109 98 96 102 99 98 102 99 98 103 103 101 107 96 92 99 89 89 96 97 95 101 94 92 101 82 80 87 81 78 87 85 82 91 49 48 73 47 45 79 36 24 25 107 97 98 109 99 100 104 93 94 104 95 96 107 98 98 107 97 97 107 95 97 106 99 100 117 106 106 105 95 96 111 99 99 114 103 104 105 96 97 109 101 102 105 96 97 109 100 100 107 100 101 90 79 81 72 62 63 71 61 62 84 75 77 88 82 83 92 83 85 80 73 74 78 73 75 92 87 88 89 82 84 92 86 89 88 84 85 82 78 79 89 86 88 89 85 87 90 85 87 95 90 91 92 89 90 83 79 81 100 97 99 80 77 80 85 83 86 83 81 84 77 74 79 83 82 87 93 91 95 105 103 107 113 113 116 118 117 120 105 103 108 111 109 114 100 98 102 102 100 106 106 104 109 109 107 112 96 94 98 88 86 94 102 101 109 99 98 105 90 89 97 94 92 100 84 81 90 81 80 89 82 79 89 59 57 81 42 40 71 50 45 46 111 99 99 108 92 93 112 100 100 114 105 106 117 106 107 107 97 98 109 100 100 100 88 88 107 97 98 108 95 95 113 102 102 112 99 100 106 98 99 96 88 88 99 90 91 86 77 78 79 66 67 74 64 65 79 69 70 86 78 79 71 61 61 91 85 86 92 85 87 88 82 83 86 81 82 83 79 80 83 79 81 93 88 89 92 87 89 99 95 96 93 89 91 94 91 94 90 88 89 87 82 84 89 86 89 94 91 93 86 84 86 87 84 87 94 91 93 91 88 92 91 88 90 86 83 87 85 82 86 86 84 88 98 96 101 108 107 112 113 112 116 103 101 106 104 102 107 107 105 109 111 110 112 107 105 109 106 105 110 101 100 104 88 86 92 101 99 104 88 85 92 90 89 97 103 101 107 92 90 97 90 86 94 54 52 75 47 43 76 53 47 47 109 97 98 105 90 91 111 98 98 105 94 95 104 91 91 98 86 86 108 94 95 107 96 96 115 104 104 112 98 98 108 98 99 118 108 109 117 107 108 109 97 98 78 62 62 78 69 70 78 66 67 82 76 77 75 65 66 83 76 78 90 82 83 82 76 77 95 90 92 84 80 81 90 85 86 99 93 95 87 83 85 89 86 88 96 93 95 89 84 86 94 89 91 92 90 92 96 94 96 89 86 88 91 88 91 97 95 97 97 94 97 82 79 83 97 94 96 91 89 92 98 96 98 98 95 99 81 79 83 89 86 90 80 78 83 91 90 94 113 112 117 110 110 113 112 111 115 115 113 118 104 102 108 109 107 113 97 96 102 105 104 111 94 91 100 95 94 104 94 93 101 91 89 98 84 82 90 96 94 101 77 75 87 62 60 82 41 38 68 57 53 53 101 86 87 108 93 93 107 93 94 110 102 102 112 100 100 109 101 101 115 103 104 110 97 97 104 94 95 114 103 103 110 100 100 111 102 103 104 96 97 85 75 75 80 66 68 76 67 69 74 64 66 82 75 76 87 78 80 86 77 78 93 85 87 91 79 80 88 85 86 98 93 93 96 91 92 91 85 86 97 93 94 92 87 88 92 87 89 79 73 74 93 89 90 99 96 99 99 96 98 94 91 94 92 88 90 101 99 101 89 85 86 102 100 101 91 88 91 91 89 91 89 86 90 96 94 98 94 91 94 91 89 91 81 80 84 85 83 86 87 85 91 103 102 107 111 110 115 109 108 112 108 107 112 104 102 107 110 109 115 99 98 104 93 92 100 105 102 110 94 92 101 93 92 103 86 84 94 82 79 89 78 77 88 61 59 85 45 43 75 56 50 50 114 102 103 106 97 97 112 99 100 103 96 97 104 93 94 110 97 98 116 107 107 109 101 102 112 105 106 109 98 98 116 106 106 105 93 94 85 73 74 84 73 75 74 65 66 79 66 68 81 72 74 81 70 72 86 77 77 86 75 77 79 69 71 89 78 79 87 79 80 91 85 86 93 87 88 98 94 95 87 85 86 93 90 91 93 88 90 96 93 94 99 95 97 98 96 98 106 104 105 98 96 98 95 92 94 96 94 97 96 94 97 88 85 87 98 96 98 95 93 95 90 86 89 90 87 90 91 89 92 100 98 101 105 103 105 88 86 89 88 86 92 82 80 84 107 106 111 109 108 115 113 112 117 111 109 116 108 106 112 116 115 121 95 94 100 95 93 100 99 98 106 96 93 101 87 85 92 94 93 100 89 86 96 57 56 80 49 46 82 49 43 43 111 100 100 115 101 101 113 100 101 99 92 92 114 102 103 105 95 96 104 89 90 110 98 98 112 103 103 104 89 89 102 93 93 80 66 67 79 64 66 82 67 68 78 70 70 85 74 76 88 79 80 89 78 80 83 75 77 95 87 89 94 83 86 93 86 87 101 95 97 101 94 95 92 88 89 96 91 93 107 102 103 101 98 99 86 84 85 89 85 86 96 94 96 99 97 98 95 91 91 98 94 98 99 95 97 105 102 105 97 94 97 91 89 92 102 99 101 91 90 94 98 96 99 85 82 84 103 101 103 86 84 89 90 88 91 83 81 86 91 88 93 80 78 84 76 74 80 104 103 108 108 107 113 106 105 111 106 104 109 104 103 109 97 96 102 97 94 105 103 102 109 97 95 102 88 87 93 85 83 94 92 89 95 45 44 76 40 37 66 58 54 54 117 106 107 120 109 109 114 102 102 116 106 106 123 109 110 114 102 102 115 106 106 111 99 99 117 105 106 93 79 79 72 52 53 77 59 61 77 67 68 86 73 74 84 75 77 85 76 76 93 83 84 80 67 69 100 91 93 80 75 76 99 94 95 86 79 80 96 90 91 93 88 89 94 91 92 87 82 83 89 82 85 99 97 98 108 103 104 102 99 100 92 88 91 101 97 99 103 99 103 104 100 101 102 99 101 102 100 101 95 92 95 94 91 94 96 95 97 97 95 97 98 97 99 87 84 89 97 96 101 92 90 93 102 100 105 82 79 84 87 86 90 78 76 83 80 77 87 91 90 97 111 109 115 109 108 116 111 110 116 100 99 108 106 105 111 96 95 103 89 87 95 96 95 103 89 87 95 92 90 100 82 81 92 49 48 75 41 40 71 54 48 48 100 89 90 105 90 91 109 98 99 110 96 97 108 98 98 101 89 89 108 98 99 110 99 99 98 87 88 81 63 65 71 56 58 71 56 58 88 75 75 83 74 74 84 71 72 89 75 76 80 72 73 85 74 75 93 85 87 83 75 75 97 88 89 95 87 88 83 75 76 111 107 107 103 99 100 100 96 96 89 84 86 93 89 90 102 98 100 98 94 95 91 88 89 96 91 94 104 102 104 96 92 93 92 88 90 100 96 98 104 102 105 108 105 107 100 98 100 105 104 107 90 88 92 90 89 94 95 94 98 97 96 99 77 75 79 91 90 92 86 84 87 93 90 95 83 81 87 80 78 85 92 91 96 109 108 116 118 116 123 96 94 103 112 111 115 111 110 116 92 90 99 93 91 101 109 107 113 86 85 94 82 81 89 46 45 74 43 41 73 59 53 54 125 111 112 114 100 101 119 108 108 117 106 107 110 97 97 108 95 95 117 104 104 108 93 93 84 67 69 73 57 58 77 69 70 83 67 68 84 73 75 81 72 73 78 67 68 87 75 75 92 82 82 81 74 75 96 89 90 93 86 86 101 93 93 91 84 85 95 87 88 98 92 93 95 90 92 97 92 93 98 92 93 99 97 97 104 100 101 100 96 98 92 88 88 104 102 104 103 100 103 112 109 111 99 96 98 97 94 97 102 101 104 96 93 96 97 93 97 108 106 108 96 94 97 98 96 99 98 96 100 95 93 96 103 101 103 98 96 99 86 85 88 94 93 95 87 84 89 78 75 80 84 82 89 95 94 101 113 112 117 105 103 108 93 91 97 106 105 111 95 93 100 99 98 104 95 93 104 94 93 103 89 87 96 49 47 74 41 40 70 56 48 48 111 99 99 104 91 91 121 111 111 115 102 102 115 97 97 106 94 95 100 86 87 98 83 83 78 60 61 73 51 54 78 68 69 77 62 63 80 68 69 88 74 75 96 84 85 89 79 81 83 70 72 87 80 81 91 83 84 96 88 90 91 83 84 96 88 89 102 97 98 90 84 85 92 86 86 112 108 109 94 88 89 96 90 93 97 92 94 101 97 97 98 94 95 103 101 103 97 94 96 93 90 94 99 95 96 102 101 102 96 92 94 107 106 108 103 101 104 104 102 104 96 96 98 106 104 107 101 100 101 87 85 90 101 100 103 93 92 97 95 94 98 88 86 91 81 80 86 81 79 87 82 81 86 81 80 88 105 104 111 101 100 106 103 103 110 89 88 95 86 85 93 92 91 99 89 88 95 88 87 95 88 87 96 63 62 90 41 39 71 64 56 57 111 98 99 117 106 106 108 97 97 120 109 110 120 107 108 102 87 88 97 84 85 77 57 58 81 60 60 69 54 55 79 66 67 78 65 66 89 76 78 96 85 86 83 77 77 80 71 71 92 82 83 83 75 76 90 84 85 92 83 84 95 89 90 86 77 78 90 86 87 93 87 88 97 93 94 95 89 90 101 97 97 102 99 99 108 102 103 103 99 101 94 91 92 106 102 103 93 90 93 105 101 103 101 98 100 95 93 94 105 103 105 103 101 103 104 102 105 100 99 100 110 108 111 100 98 101 94 92 93 109 108 112 95 92 97 100 99 103 102 101 104 94 92 98 95 93 97 82 82 88 88 87 95 80 79 86 92 91 98 98 97 104 98 97 103 101 101 108 94 92 101 91 90 99 97 96 102 96 96 105 88 87 96 51 50 73 41 39 71 58 53 54 116 103 103 114 99 100 118 108 109 111 98 99 100 87 88 99 85 86 83 66 67 80 59 59 81 65 66 78 66 66 81 69 70 85 73 73 77 60 61 82 69 71 91 81 82 96 86 87 96 84 85 96 88 89 98 92 93 96 88 89 93 87 87 98 90 91 107 99 101 102 95 96 101 93 95 99 92 94 107 102 103 105 101 102 100 95 96 100 97 99 101 98 100 111 107 108 105 102 103 100 96 98 100 97 99 103 101 104 111 109 110 106 104 106 106 105 107 101 99 102 105 102 105 92 90 94 96 94 98 102 100 104 94 91 95 105 103 107 100 99 103 94 92 97 78 75 81 95 94 100 87 86 93 83 82 90 82 81 92 104 103 109 92 91 97 110 110 117 92 91 99 94 92 99 103 101 111 90 90 98 91 90 102 62 61 80 43 42 74 55 46 47 116 102 102 104 94 94 112 99 99 127 115 115 113 99 99 101 85 85 75 56 56 76 56 57 84 63 64 82 67 68 82 69 70 82 71 72 77 69 70 91 77 78 83 72 74 75 65 65 90 77 77 102 91 92 98 90 90 93 89 90 95 88 89 92 83 84 95 91 92 106 100 102 107 102 103 103 99 100 102 98 99 111 105 106 101 99 100 97 94 95 101 98 99 109 107 109 107 102 104 96 93 95 104 102 106 111 108 109 96 94 97 105 102 106 99 97 100 103 100 102 99 97 99 91 89 92 101 100 103 94 92 95 97 95 101 101 101 105 98 97 103 88 86 90 106 104 109 100 99 104 79 78 84 84 82 90 74 73 79 87 86 94 105 105 111 106 105 112 100 99 108 97 96 103 99 98 106 88 87 96 90 87 97 52 51 83 42 39 69 50 44 44 109 96 97 111 99 99 111 101 102 112 102 102 100 88 89 84 63 64 65 45 47 74 50 52 82 64 66 70 56 58 76 62 63 89 77 78 79 70 70 87 77 77 90 82 83 102 89 90 83 76 78 90 78 78 95 87 88 85 81 81 89 83 84 97 88 90 94 89 91 98 91 91 105 101 103 99 94 94 89 84 85 95 93 94 95 93 94 93 88 90 106 104 105 102 98 100 98 95 97 100 96 98 101 97 99 103 102 105 104 101 104 98 95 99 97 96 98 93 91 94 111 109 111 102 99 102 100 97 101 102 101 105 103 101 105 101 100 104 105 104 107 90 88 92 96 95 101 87 85 91 82 81 86 89 86 93 71 70 78 75 73 82 101 100 107 106 106 113 95 93 102 88 87 95 90 90 98 94 94 104 84 83 91 57 56 83 35 34 60 50 46 46 119 107 108 107 94 95 108 93 94 107 95 96 94 77 77 79 54 55 76 53 55 71 60 61 80 63 63 85 67 67 91 74 75 84 72 73 84 71 72 85 74 74 91 80 82 101 88 89 93 86 87 96 85 86 97 87 89 98 86 87 87 82 84 96 90 91 94 88 89 100 93 94 99 93 94 103 100 101 107 102 103 97 93 94 104 102 103 101 97 99 90 87 89 101 98 99 88 86 88 104 103 105 99 95 99 93 91 93 99 97 99 98 97 99 100 98 101 95 94 97 106 103 107 103 101 104 100 98 101 103 101 104 105 103 107 95 93 96 101 99 103 95 94 100 97 96 100 88 87 91 84 83 89 79 78 85 75 73 80 74 73 82 92 90 100 95 94 101 100 99 106 86 85 92 98 97 106 84 83 92 81 80 91 52 52 82 43 41 72 50 42 42 112 101 101 103 89 89 116 103 103 92 80 80 83 66 67 74 51 52 79 52 54 73 56 57 83 68 69 77 60 61 88 77 78 87 72 72 92 76 77 94 85 86 88 75 76 97 88 88 96 86 87 97 88 89 94 86 87 101 95 96 88 81 81 101 95 95 97 92 93 97 91 92 92 85 86 99 95 96 101 95 97 105 101 101 104 99 100 103 100 102 96 92 93 101 98 100 108 106 107 97 94 97 102 101 102 97 95 96 96 96 97 93 92 93 106 104 107 110 107 108 101 100 102 93 92 96 104 102 106 102 100 102 104 103 106 100 98 103 98 97 102 98 97 102 84 82 85 98 97 102 86 85 93 81 80 86 85 83 91 73 71 80 80 79 85 103 103 111 94 92 98 96 95 102 100 99 104 89 88 98 83 82 91 55 53 79 42 42 75 48 40 40 101 92 92 106 95 95 103 88 89 86 70 70 84 59 60 68 46 46 72 56 58 79 60 61 76 59 60 88 74 75 84 70 71 81 68 70 87 79 80 86 78 78 97 84 84 83 75 75 84 73 74 100 94 95 92 84 85 95 87 88 90 82 83 94 90 92 106 101 101 91 86 87 95 91 92 100 95 97 105 101 102 99 95 96 104 100 102 98 95 96 94 93 94 100 96 97 101 98 99 105 103 103 109 105 107 100 98 100 109 107 109 103 101 103 93 91 93 101 99 101 104 102 105 101 99 101 97 95 100 103 102 104 96 94 97 102 101 103 95 94 99 94 93 97 96 94 99 88 86 91 93 90 97 85 83 89 86 85 92 77 76 83 74 73 83 95 94 101 100 99 106 99 98 105 89 89 96 85 85 93 89 89 96 53 52 73 42 42 78 46 43 43 111 96 97 118 102 103 100 87 87 92 74 75 76 50 52 73 52 54 74 56 56 76 55 57 87 72 72 82 68 69 90 77 77 93 83 84 95 81 82 92 80 81 91 82 83 94 86 87 97 89 90 93 87 88 94 86 87 96 86 87 90 83 83 104 98 99 96 92 93 101 95 96 92 88 89 94 88 89 90 86 88 104 97 97 91 86 87 110 108 108 91 89 91 103 101 103 106 104 106 111 107 108 107 105 108 110 108 110 100 95 97 90 88 90 100 98 100 104 103 106 110 109 112 104 102 105 96 94 97 100 98 101 108 106 111 93 93 96 104 101 106 91 90 94 96 95 100 97 96 100 95 94 98 93 92 97 79 77 86 76 74 83 72 70 79 85 85 92 108 107 114 87 86 96 82 79 89 91 90 98 78 77 88 41 41 64 39 37 68 42 32 32 107 96 96 113 100 100 103 89 90 86 65 66 72 45 45 74 54 55 76 61 61 78 60 61 81 68 69 84 67 68 92 77 79 84 74 75 86 69 70 96 80 81 92 82 83 88 77 79 87 78 79 85 76 77 91 83 83 89 77 78 93 88 88 93 87 88 92 85 85 86 82 83 91 88 90 102 98 98 101 96 98 111 108 109 98 94 95 110 108 108 99 97 99 96 92 92 98 95 99 109 107 109 102 99 100 105 101 103 96 94 97 108 105 107 109 108 110 107 105 107 103 102 105 103 101 105 88 86 91 93 92 96 97 96 99 96 95 97 96 95 100 103 102 105 85 83 88 92 91 96 94 92 97 89 88 93 86 84 91 80 77 85 80 78 85 80 79 87 101 100 107 91 90 98 94 94 102 101 100 110 82 81 96 53 53 82 38 38 71 52 45 45 113 102 102 101 86 86 91 76 76 84 63 64 72 44 45 67 46 47 76 55 56 71 56 57 78 64 65 80 67 69 78 60 61 101 86 86 89 78 79 92 80 81 88 76 78 97 87 88 104 96 97 95 85 86 81 75 76 97 90 92 95 87 88 92 86 87 100 94 94 92 86 87 99 93 94 105 101 101 95 92 93 107 104 105 96 92 93 104 101 102 105 101 102 102 97 98 101 99 100 114 112 114 104 102 104 100 98 100 95 92 95 95 93 95 97 95 99 100 98 101 97 95 97 104 101 104 92 91 93 95 94 97 100 99 103 89 88 93 96 95 98 103 102 106 96 95 101 99 97 101 88 87 92 99 98 105 84 83 88 75 73 80 75 74 83 67 66 74 100 100 108 95 93 100 99 98 105 91 90 97 92 91 101 48 48 70 41 39 68 59 50 50 102 88 88 101 88 88 87 68 69 70 51 51 66 41 41 67 47 48 76 56 57 80 65 66 86 71 72 85 69 70 91 77 78 72 64 65 78 64 65 86 72 72 83 72 73 88 81 82 91 81 82 89 79 80 94 86 87 91 82 83 91 86 87 95 87 88 101 95 96 89 82 84 93 88 90 95 91 92 102 98 99 96 93 94 105 100 102 101 97 99 101 98 99 97 95 96 97 92 94 100 97 100 103 99 102 100 98 99 111 107 108 110 108 110 100 98 99 104 102 106 97 96 98 110 108 112 98 97 100 95 94 97 90 89 93 94 93 97 86 84 88 104 102 108 98 96 102 92 91 96 84 83 90 87 86 92 83 81 88 87 85 91 85 83 90 64 63 76 92 91 103 85 84 91 99 98 105 83 83 89 88 87 96 52 52 82 44 44 79 56 48 48 108 95 95 100 87 88 97 80 80 73 48 49 60 41 42 66 48 49 84 64 64 77 56 58 81 65 66 74 61 62 85 73 74 86 73 74 90 77 77 78 70 71 93 83 84 88 79 79 101 88 89 92 86 86 88 80 81 87 78 78 83 78 80 96 89 91 103 96 97 99 93 96 99 93 94 95 91 92 93 89 90 92 88 89 92 87 88 112 109 111 99 94 96 107 103 103 103 101 102 105 104 106 95 93 95 107 105 106 97 95 98 89 87 89 105 104 106 93 92 94 93 90 94 92 89 93 100 98 100 101 101 102 103 101 106 97 94 98 101 100 107 96 95 99 104 103 107 87 85 90 91 89 94 90 89 93 89 88 94 79 78 85 84 83 92 80 79 88 95 95 101 79 78 88 91 91 102 90 89 97 86 86 93 41 41 62 40 39 70 62 59 59 108 93 93 105 88 89 94 76 77 75 50 50 71 45 46 69 50 53 71 49 50 77 60 61 70 53 54 82 66 67 82 71 72 84 72 73 82 70 71 89 76 77 89 80 81 88 78 79 94 83 85 86 77 77 89 77 79 94 85 87 100 90 92 95 88 88 100 95 96 92 87 89 104 100 101 97 91 92 83 82 83 101 95 97 98 96 97 103 99 101 106 102 103 97 91 94 95 93 95 98 93 94 95 91 93 105 102 105 108 106 109 102 100 103 93 90 92 97 96 98 93 91 96 106 105 108 96 95 99 94 93 96 97 95 99 94 91 95 92 91 93 87 85 90 100 99 102 97 96 101 73 73 79 93 92 98 87 86 93 77 73 81 75 74 82 61 58 71 98 97 105 95 94 101 86 86 94 90 90 100 74 74 84 50 50 80 38 38 71 52 45 45 104 87 87 99 85 85 91 73 73 80 52 52 63 40 42 71 52 53 67 47 49 74 58 60 77 63 63 82 68 69 85 70 71 84 72 72 83 68 70 94 83 84 94 85 87 99 90 91 88 78 79 91 81 82 90 79 81 91 83 84 91 85 86 92 84 85 91 87 87 91 86 87 101 96 97 94 89 90 93 88 89 102 98 100 90 85 87 100 94 97 96 94 95 98 97 98 98 95 97 105 103 104 114 110 113 95 93 94 96 95 97 98 96 100 102 99 100 97 96 100 99 97 100 105 103 106 109 108 109 93 92 94 87 86 89 103 102 105 91 89 95 93 92 97 91 89 93 81 80 85 80 79 85 89 87 93 80 78 83 78 77 83 78 76 86 74 74 83 96 96 105 85 84 93 90 89 96 83 82 92 89 88 96 51 49 81 43 42 75 49 47 47 113 99 99 100 86 87 84 67 67 71 48 50 69 42 43 69 52 53 70 51 52 78 56 57 77 62 62 79 63 64 84 68 69 86 73 73 81 68 68 89 75 77 92 79 80 93 82 83 95 81 82 86 76 76 100 90 91 89 82 83 98 92 93 91 86 88 92 87 88 95 87 88 104 100 102 98 92 94 102 100 101 94 90 91 90 88 89 95 91 93 95 91 93 100 97 97 101 97 99 97 93 94 101 98 100 95 94 96 104 101 105 102 100 102 100 97 99 107 106 108 104 102 104 96 95 96 102 100 103 102 100 103 102 101 104 91 90 94 93 91 97 89 87 92 94 92 98 104 102 108 83 81 87 82 81 86 78 77 83 77 75 82 66 64 70 79 77 84 96 96 105 95 94 102 91 90 98 93 92 99 80 79 89 59 59 79 43 42 76 51 48 48 111 99 100 99 86 86 79 60 60 71 42 43 71 47 47 69 48 50 77 53 54 75 58 59 84 64 65 82 70 71 85 71 72 81 67 67 86 71 72 90 78 79 89 79 80 86 78 79 82 73 73 104 95 96 94 84 86 84 75 76 101 95 96 95 89 90 95 89 90 82 75 76 90 87 89 88 83 84 98 94 95 96 92 93 88 83 84 91 89 91 104 99 101 107 103 105 97 94 97 102 99 102 93 91 94 98 94 95 101 97 98 94 93 94 94 92 95 100 98 101 98 97 100 99 96 101 103 102 103 95 94 97 100 99 102 90 89 94 91 90 95 91 90 94 95 93 101 87 86 94 88 87 92 86 84 90 84 82 92 83 81 87 77 75 81 77 75 83 95 94 101 99 98 106 84 83 94 93 91 100 79 79 89 55 54 80 37 36 68 49 43 44 105 97 97 97 80 81 80 61 62 70 42 43 67 41 42 72 51 51 69 52 54 74 57 58 74 57 59 70 58 58 75 64 65 83 66 67 90 74 75 86 75 76 81 69 71 88 79 80 93 82 83 88 80 82 85 80 80 92 85 86 97 89 91 91 86 87 98 92 93 97 91 92 95 92 93 93 88 89 101 96 97 98 95 96 99 95 96 91 87 89 102 98 99 102 99 100 95 93 94 96 95 96 91 89 90 97 95 98 90 88 89 99 97 100 97 95 98 100 97 101 102 100 104 100 98 101 91 91 94 105 104 108 105 105 110 86 85 89 91 90 94 87 85 92 91 90 95 89 88 93 87 84 92 89 88 94 78 77 83 78 76 83 71 69 77 78 77 85 96 95 104 96 95 104 85 84 92 97 97 105 80 80 89 53 53 78 43 41 74 48 38 40 113 99 99 94 84 84 91 73 73 76 55 57 63 43 45 73 48 49 71 49 50 77 56 57 84 67 69 84 68 69 82 67 67 81 66 67 83 67 69 91 77 78 83 74 75 85 73 75 91 84 84 92 85 85 81 72 74 76 69 71 87 79 80 82 75 76 87 81 82 94 89 90 92 87 89 100 95 96 96 91 93 99 95 96 97 94 95 97 92 94 101 98 99 97 95 96 99 95 97 97 95 97 105 104 105 95 93 95 100 98 101 100 98 100 96 93 94 100 98 101 103 102 106 98 95 99 94 92 96 96 95 97 90 88 92 89 86 91 95 94 98 88 86 91 92 91 96 88 87 93 85 83 88 89 88 92 75 72 82 74 71 81 71 69 79 83 82 92 94 93 100 89 89 96 95 94 103 92 91 100 85 84 91 41 40 69 41 40 73 59 52 52 106 90 90 97 86 87 90 72 73 68 44 45 68 45 46 70 46 47 66 47 48 78 55 56 74 57 58 85 70 71 83 70 70 83 68 69 87 77 79 78 69 71 89 79 81 82 72 72 89 78 78 84 74 75 87 77 78 84 77 77 97 90 91 91 86 86 93 86 87 87 80 80 96 91 92 90 86 87 99 95 96 91 84 86 84 81 83 97 91 92 100 98 99 95 92 93 90 87 89 103 101 102 102 99 101 95 94 96 97 94 96 96 95 99 84 81 85 102 100 103 98 95 98 99 97 99 93 91 95 95 94 99 90 88 92 104 103 107 88 88 92 94 92 97 89 87 91 85 84 90 84 83 89 86 84 91 72 69 79 77 75 84 55 54 64 89 89 96 94 94 100 90 89 95 88 87 96 81 81 92 92 91 99 61 60 87 36 35 64 55 47 47 113 102 102 101 88 89 88 72 73 66 42 42 71 46 47 68 46 48 64 43 44 81 60 61 73 54 56 76 60 61 79 65 66 91 81 82 76 65 66 92 80 81 87 71 72 83 73 75 79 66 67 99 86 87 94 88 89 88 83 84 88 83 83 79 70 70 84 79 80 97 92 92 105 97 98 101 96 98 95 92 93 107 100 101 91 86 86 102 98 100 93 92 94 87 81 82 97 94 96 98 95 96 95 93 94 105 102 106 98 96 99 99 97 98 95 93 95 93 90 93 91 89 92 100 99 102 94 93 96 99 99 102 87 86 91 95 94 99 90 88 92 85 84 87 90 90 97 89 86 92 89 87 94 73 72 80 79 78 85 72 72 84 67 64 74 94 93 101 97 96 102 100 99 105 85 84 92 84 82 91 95 94 102 47 46 75 43 41 73 54 45 46 113 101 102 106 93 93 89 73 73 81 57 58 68 46 47 59 39 41 66 46 47 78 58 59 69 51 53 76 58 58 81 68 70 68 55 56 73 60 62 90 78 79 87 79 79 78 69 70 77 69 70 85 77 78 91 83 83 94 87 87 92 86 86 96 89 90 87 82 83 96 90 91 96 89 90 91 86 88 100 94 95 89 83 84 91 88 89 97 94 96 89 85 85 89 86 88 95 92 93 93 89 92 103 101 103 96 93 96 96 93 95 91 88 90 88 85 88 91 90 93 97 95 98 98 96 100 97 95 99 92 90 95 79 78 85 87 85 88 90 88 92 80 78 83 91 90 95 77 75 81 81 79 86 83 82 89 83 82 90 68 66 77 69 68 78 102 101 108 91 90 100 92 91 99 95 93 101 79 78 90 85 84 92 52 51 78 47 45 78 43 40 40 108 98 98 102 85 85 92 75 76 78 58 59 79 50 51 66 46 48 65 45 46 71 51 52 66 56 57 74 55 56 81 68 70 73 55 56 88 73 73 83 70 71 79 70 71 78 67 69 91 81 82 91 82 83 90 83 85 92 84 85 90 81 82 86 80 82 81 77 78 83 77 79 94 90 91 92 87 88 94 89 89 86 81 83 96 91 92 89 84 86 90 86 88 89 86 88 97 94 97 83 79 81 91 87 88 88 86 90 92 90 93 99 96 97 95 93 96 88 86 88 88 86 89 100 98 99 85 84 87 91 89 93 87 85 89 85 83 88 89 88 92 94 92 97 82 79 86 81 80 85 71 70 79 68 66 76 68 66 76 61 60 70 81 79 87 103 103 108 90 90 100 90 89 98 90 89 97 77 77 88 85 84 92 50 50 74 41 40 72 48 43 43 110 99 99 101 85 85 89 75 76 83 65 66 83 59 59 72 49 50 64 43 45 67 51 52 77 57 59 73 60 61 80 66 67 90 72 73 77 66 67 78 67 68 86 76 76 79 69 71 85 70 72 85 76 77 91 81 81 81 72 74 87 80 82 90 85 86 90 84 86 96 88 90 96 90 91 90 85 86 97 93 94 97 93 94 100 95 97 99 96 97 87 85 87 91 89 91 86 81 82 98 97 100 96 93 94 98 95 97 97 95 98 93 92 96 100 98 102 89 85 88 87 86 90 90 89 94 101 99 102 86 84 88 79 77 80 91 90 94 90 88 93 83 81 87 90 88 94 84 82 92 72 71 77 78 76 81 76 73 86 55 54 65 89 88 96 97 96 103 80 78 87 94 93 100 82 81 88 85 83 91 85 82 92 52 51 77 36 33 60 52 46 46 104 93 93 116 103 103 94 82 82 84 71 72 69 52 52 76 52 52 69 46 47 78 53 55 67 52 54 67 55 56 77 59 59 76 62 63 76 60 61 86 76 77 89 78 79 83 74 75 85 77 77 87 74 75 89 80 80 89 79 81 91 83 84 84 77 79 91 84 85 80 72 73 84 81 82 81 78 80 93 87 90 90 86 87 89 85 86 93 88 90 100 95 96 79 74 75 86 81 84 99 96 98 86 84 85 82 79 82 95 92 94 94 91 94 95 93 96 96 94 97 91 89 92 91 89 92 96 95 98 82 79 85 88 86 91 94 92 96 88 86 91 89 88 91 86 85 91 85 83 89 82 80 85 75 74 82 72 70 83 79 78 84 94 92 99 105 104 111 84 83 93 91 89 97 86 85 91 79 78 87 91 91 97 45 43 66 43 41 74 53 43 44 108 96 97 111 99 99 103 88 89 90 76 76 83 60 60 79 55 55 74 51 51 66 47 48 73 47 48 72 50 52 72 58 59 91 72 73 80 68 70 73 60 63 77 64 65 90 80 80 84 75 76 88 79 80 73 64 65 95 85 86 94 87 87 81 74 75 90 85 86 87 84 86 94 89 89 80 71 74 93 87 89 100 95 95 95 90 91 99 95 98 97 94 95 93 90 91 92 88 90 97 93 95 88 84 87 87 81 84 93 91 93 91 88 91 92 90 93 101 99 101 86 84 86 87 85 90 90 88 92 89 86 91 88 87 90 92 89 94 78 76 81 87 85 89 75 74 80 78 76 83 80 77 86 73 71 78 64 62 72 103 102 110 104 104 109 104 103 111 94 92 100 91 91 99 82 80 88 95 94 103 95 94 104 50 47 79 39 37 68 47 45 45 116 100 100 102 92 92 109 93 94 102 85 87 85 71 71 74 57 58 81 56 57 67 47 49 67 49 50 65 48 50 83 64 65 78 59 60 73 61 61 78 61 63 83 71 72 83 74 74 89 78 79 81 71 72 82 73 74 80 72 74 94 84 85 88 80 81 86 79 81 80 74 75 79 74 77 87 81 82 85 80 82 90 86 88 90 87 88 86 81 82 101 97 99 97 94 96 90 88 91 97 95 97 89 87 89 86 84 86 82 80 84 101 99 103 87 85 87 83 81 84 94 90 93 85 82 87 80 78 83 88 87 91 85 83 87 88 87 93 88 85 92 76 74 80 80 78 84 77 75 83 78 75 85 69 68 77 78 76 82 104 103 111 107 107 115 83 81 90 88 87 95 88 87 95 85 84 91 94 93 102 87 85 97 53 52 80 39 37 68 51 46 46 109 96 96 107 97 97 109 94 94 104 89 89 95 79 79 82 64 65 67 52 52 71 51 52 64 48 50 73 56 57 65 51 54 68 51 54 75 61 61 72 59 60 78 65 66 86 75 75 81 71 74 81 73 75 80 72 73 92 83 84 82 75 76 78 72 73 85 77 78 90 85 86 81 70 71 93 86 87 85 78 79 92 88 89 92 89 90 90 86 88 91 87 89 81 78 80 89 86 88 94 92 94 89 85 87 103 101 104 94 90 92 85 82 84 94 91 94 92 90 93 91 89 92 91 90 93 86 85 91 86 84 89 88 87 91 89 88 93 79 77 84 75 71 79 83 82 85 72 70 75 64 63 73 68 67 76 76 74 83 91 90 99 96 95 103 97 97 104 99 97 105 90 89 99 101 100 107 84 83 93 84 83 93 54 53 81 42 39 69 44 34 34 105 91 91 105 91 92 114 102 103 103 86 87 98 83 84 90 72 73 79 57 58 80 55 55 74 55 57 68 53 53 70 50 51 74 56 57 75 59 60 76 65 65 76 63 66 77 66 67 73 62 63 80 69 70 83 74 75 96 88 89 86 82 82 86 81 81 78 72 74 85 77 79 82 80 81 88 82 83 78 71 73 92 89 89 85 81 83 83 79 82 100 97 98 94 88 90 93 90 92 95 92 95 94 90 92 83 80 82 93 91 94 88 86 90 84 80 83 89 86 90 88 85 89 88 86 89 78 76 78 85 83 88 95 92 98 81 78 83 77 75 82 72 70 79 72 68 76 62 60 69 62 59 66 101 100 105 98 98 104 96 95 100 97 96 104 93 93 100 92 91 100 91 90 97 93 93 101 88 88 95 73 72 80 58 57 91 42 40 75 56 46 46 98 85 87 109 94 95 114 101 101 109 98 98 103 85 86 92 79 80 78 65 66 80 58 60 78 57 58 73 54 55 62 49 50 67 51 52 74 65 67 74 62 63 77 67 68 75 62 63 70 58 59 76 65 68 75 67 69 77 69 70 85 78 81 83 77 78 91 81 82 80 74 76 70 64 66 90 86 87 90 82 84 81 77 78 92 89 89 83 79 81 98 93 94 92 89 91 87 86 88 87 84 87 90 89 89 91 87 90 87 85 89 79 77 81 86 83 85 83 80 84 89 87 91 87 86 89 78 75 77 88 87 91 75 74 79 75 72 78 81 79 83 77 75 81 71 69 75 78 75 83 73 71 79 105 104 110 101 101 107 96 94 102 108 107 112 106 104 112 102 102 109 94 93 100 91 90 96 84 83 88 87 86 94 56 56 81 47 44 77 50 42 42 105 90 91 110 96 96 109 99 99 102 89 90 104 90 91 92 77 79 89 72 73 82 59 60 77 53 54 76 50 52 76 55 56 62 51 51 63 44 46 73 57 57 74 60 61 77 66 66 76 64 65 74 65 66 84 73 74 75 67 69 79 75 78 83 76 77 75 67 67 84 77 79 91 84 86 90 86 89 79 73 75 93 86 88 78 75 77 82 78 80 87 83 86 84 81 84 86 83 84 84 79 81 77 74 76 86 82 86 91 88 89 86 83 85 88 87 90 88 87 88 86 83 88 80 76 82 87 85 89 83 81 87 71 68 74 79 77 82 79 77 82 77 76 81 58 57 64 67 65 75 107 107 113 102 101 107 91 89 96 97 95 102 103 102 109 89 88 97 99 97 103 86 86 92 87 85 92 90 88 97 91 89 96 54 53 81 44 42 74 56 48 48 111 92 92 110 99 99 107 97 97 105 93 94 99 85 86 98 84 85 93 77 78 87 65 65 83 63 64 66 51 52 74 57 58 63 49 51 65 51 51 67 53 55 65 54 55 67 57 58 74 59 61 84 75 76 79 73 75 78 71 72 80 70 71 81 73 75 75 70 70 95 87 88 78 71 72 83 78 80 74 71 73 84 78 79 86 83 83 93 89 91 79 76 79 86 81 84 81 78 81 85 81 84 81 77 78 82 79 82 83 78 82 85 82 85 84 83 86 85 83 87 78 76 81 88 87 89 85 82 87 81 80 85 78 77 81 74 73 77 68 64 69 72 70 75 72 70 81 95 94 98 112 111 118 101 100 106 103 102 109 100 98 105 91 90 95 98 96 103 87 85 91 86 85 92 98 95 102 84 82 93 88 88 97 57 56 84 46 45 81 43 37 38 101 86 87 102 91 92 121 112 112 106 91 91 107 95 95 92 75 76 90 73 74 84 73 74 72 59 61 70 54 54 77 56 57 74 59 60 73 58 59 67 55 57 66 57 58 78 68 70 67 55 57 77 65 66 82 72 72 76 67 69 81 73 73 68 61 63 86 77 78 81 77 78 86 78 79 84 76 79 87 80 82 84 80 82 82 75 77 90 86 88 76 71 75 87 81 83 92 88 90 81 76 80 75 71 74 85 82 85 94 90 91 91 89 92 83 80 84 81 79 81 80 76 81 83 80 83 77 75 78 72 70 76 81 79 89 76 76 83 63 61 70 64 62 70 89 87 93 99 98 105 117 117 121 99 97 102 115 114 119 108 107 112 91 90 94 82 80 88 94 92 102 95 93 100 87 86 92 98 96 104 86 84 95 50 49 77 43 41 74 57 51 51 94 83 83 91 79 80 114 102 102 101 90 91 112 100 100 118 109 109 99 87 88 108 94 94 95 82 83 85 68 68 72 51 52 77 54 56 72 55 56 74 59 62 69 54 55 64 56 57 68 58 59 83 71 73 77 69 70 80 68 70 71 61 63 69 60 61 84 73 74 83 73 75 75 69 69 87 84 84 82 76 79 82 75 77 91 84 86 83 78 81 76 71 73 84 80 82 77 74 77 81 76 79 81 77 81 83 81 85 77 74 79 83 81 83 77 76 79 85 81 85 75 70 74 80 78 83 80 79 83 78 76 80 71 69 74 74 71 78 69 68 77 87 85 90 107 106 110 106 105 109 104 102 108 111 110 115 107 106 113 94 93 99 93 92 97 97 96 100 95 93 101 94 92 101 98 97 105 93 90 97 78 77 85 53 51 80 45 42 75 44 38 39 110 97 97 110 97 98 99 89 90 103 91 92 117 107 107 101 91 91 104 95 95 109 99 100 97 86 87 87 76 77 84 68 70 74 59 60 87 70 71 71 53 54 72 58 60 66 56 57 69 60 61 77 64 66 68 61 61 67 59 61 75 68 69 74 66 70 85 76 78 79 70 71 76 66 68 79 73 75 76 70 73 74 70 72 79 76 77 82 74 77 78 73 75 78 74 76 76 72 75 77 73 75 86 81 84 83 78 80 80 77 80 87 84 88 79 74 79 66 64 67 80 79 83 67 67 73 74 72 79 70 69 75 69 67 71 76 75 80 93 92 99 108 107 111 100 98 105 100 98 104 101 100 105 110 108 112 101 100 108 111 110 115 95 94 104 92 91 99 95 93 100 80 77 87 95 94 102 82 80 88 91 89 99 53 52 80 48 45 78 54 47 48 110 97 98 102 96 97 109 97 97 103 92 93 116 106 107 111 98 99 104 95 96 104 93 93 106 94 95 93 81 81 93 79 81 84 69 71 78 61 63 69 56 58 80 67 68 64 49 50 69 61 62 72 63 64 69 57 59 62 54 55 69 60 62 76 69 71 72 66 67 76 70 72 75 70 71 80 72 74 79 72 72 68 60 62 81 74 77 90 86 88 73 70 72 76 74 76 71 66 70 85 81 85 70 67 70 80 76 79 78 75 78 83 79 82 69 67 71 70 65 70 74 70 74 82 79 85 71 69 73 65 62 66 84 83 88 103 102 106 106 105 109 108 106 110 106 105 110 107 104 110 102 100 106 112 110 115 101 100 109 105 103 109 106 105 112 101 100 105 86 85 95 87 87 95 102 100 108 83 81 88 86 84 97 54 53 78 45 43 76 47 36 36 113 101 102 106 97 97 108 94 95 111 98 99 108 98 99 111 100 101 98 90 91 112 102 103 111 100 102 93 81 82 94 82 83 94 82 83 89 74 75 74 63 65 73 55 57 67 52 53 74 63 64 73 63 63 65 59 60 73 63 64 67 59 61 65 60 61 72 64 67 77 69 71 69 63 65 70 66 68 68 61 64 75 70 72 71 67 69 79 74 78 78 75 76 83 80 81 79 76 79 78 74 77 80 76 78 72 69 73 76 72 77 75 72 75 64 61 68 66 63 68 70 67 70 68 67 72 64 62 65 97 95 99 105 104 108 111 110 114 101 100 105 105 104 109 95 94 100 107 105 110 108 105 109 95 94 100 106 104 110 100 98 101 96 93 102 87 85 92 84 82 89 96 94 101 92 89 98 84 83 89 91 88 97 53 52 78 41 38 71 56 51 51 111 98 99 107 98 100 96 83 84 105 94 95 100 90 90 106 97 97 117 110 110 108 97 98 111 102 103 98 89 90 98 87 88 100 91 92 95 82 83 89 79 80 79 65 67 71 61 62 76 63 64 70 59 61 68 57 58 72 61 62 59 53 55 68 60 63 72 65 67 62 53 56 77 69 70 78 71 73 71 68 70 74 68 71 68 62 64 65 60 64 76 72 73 73 71 74 82 79 82 79 75 78 69 65 68 70 67 71 75 72 75 72 70 75 69 67 72 66 63 68 76 74 78 83 81 87 103 101 107 113 111 114 110 108 110 113 112 115 105 103 107 105 103 107 109 107 111 98 96 102 107 106 110 97 95 100 96 96 102 89 88 94 98 97 103 84 83 91 90 87 96 89 86 95 90 87 93 92 91 99 84 82 91 44 42 66 50 48 83 51 44 44 109 100 101 115 101 101 106 95 96 99 88 89 102 94 95 112 102 103 98 87 87 102 91 91 105 98 99 101 93 93 110 102 102 108 98 99 94 84 84 98 91 91 96 84 85 83 72 73 82 68 69 81 66 66 72 60 61 79 66 68 75 62 62 64 56 58 66 60 61 65 59 60 67 59 60 69 64 65 73 69 70 66 60 62 65 60 63 61 58 61 76 71 74 70 66 70 65 63 65 65 62 64 70 66 70 72 68 71 57 54 60 65 63 69 63 61 65 77 74 80 94 91 96 98 97 99 117 114 118 116 115 118 108 105 111 102 100 104 103 101 105 101 100 103 108 105 111 107 105 110 108 106 112 102 100 104 103 100 108 92 90 96 97 94 102 96 94 100 106 104 109 98 96 103 87 86 91 86 84 94 87 85 94 51 48 76 46 43 75 49 45 45 106 92 92 101 89 89 105 95 96 103 92 93 110 98 99 103 92 93 104 97 98 102 94 95 111 101 102 115 105 105 96 89 90 109 99 100 113 99 100 103 96 97 99 89 91 106 94 96 84 74 76 86 75 77 80 69 71 75 60 61 68 52 55 71 59 61 73 64 67 75 66 70 71 64 67 70 62 64 69 62 64 72 62 65 76 70 72 62 58 59 68 62 65 79 74 76 64 62 67 73 68 69 61 59 62 81 76 79 78 75 79 80 77 81 104 101 103 104 101 105 95 93 98 111 109 113 107 105 110 103 101 103 105 102 105 100 98 104 113 112 115 107 106 108 113 111 115 99 97 101 99 97 102 95 94 98 93 90 94 99 97 105 98 96 103 100 97 103 95 94 99 100 98 104 91 89 97 88 85 94 94 93 102 49 47 77 46 44 78 57 51 52 95 86 87 111 102 102 94 85 86 112 101 102 100 88 89 106 97 97 109 99 100 111 102 102 114 104 105 105 94 95 104 95 96 105 96 96 102 93 94 113 103 104 106 98 99 108 97 98 107 99 100 96 87 88 96 88 91 97 89 90 91 84 85 79 70 72 79 68 70 75 66 67 73 64 66 71 64 66 79 71 73 63 59 61 78 74 77 73 65 68 72 65 66 71 65 69 73 65 69 76 68 73 85 82 84 86 82 84 97 93 97 102 101 103 107 105 109 105 101 106 104 102 105 103 100 103 98 96 101 116 114 119 105 104 106 109 108 111 104 102 106 115 113 118 98 96 102 104 101 106 101 99 102 104 101 107 105 103 108 96 93 98 96 94 101 93 90 95 97 95 103 94 92 98 80 77 85 86 84 91 86 84 92 63 60 86 41 38 72 51 49 49 102 92 93 103 93 93 99 84 84 117 106 107 112 102 103 111 99 100 107 97 97 109 99 100 104 97 98 108 102 102 105 95 96 105 98 99 115 108 109 111 106 107 113 106 107 108 101 103 110 103 105 103 94 96 114 105 106 98 91 91 89 82 83 93 86 88 82 76 77 69 63 67 83 74 77 78 67 71 85 79 80 75 71 74 88 84 86 85 79 82 91 87 89 86 81 86 88 85 87 93 90 93 88 85 87 105 102 104 105 101 103 112 108 111 105 103 106 103 100 103 125 123 126 102 98 102 114 110 114 111 110 113 100 99 102 106 104 108 102 100 105 98 97 100 109 107 110 102 100 105 101 100 105 103 101 106 100 99 104 88 88 94 99 98 103 99 97 103 100 98 105 97 95 101 93 90 96 84 82 88 85 84 92 53 51 77 48 45 78 47 46 46 107 96 96 96 87 87 111 104 105 106 98 99 110 102 103 104 95 96 104 95 96 102 92 93 107 99 100 106 100 101 106 100 101 112 104 105 102 95 96 108 96 97 105 96 96 102 94 96 103 93 94 108 101 102 103 97 98 107 101 102 103 97 97 107 101 102 102 95 96 103 98 99 98 91 93 101 94 96 100 95 96 97 91 92 99 94 95 111 108 110 99 93 95 98 95 97 107 104 106 108 105 106 105 101 105 98 95 98 98 94 96 104 103 107 116 113 116 118 115 118 116 115 117 107 105 109 107 104 108 106 103 109 109 108 113 117 115 119 107 105 110 106 105 111 113 110 114 112 111 114 105 103 109 95 92 98 105 102 108 96 95 100 99 97 102 97 95 102 97 95 98 90 87 92 98 97 101 85 84 90 80 77 85 57 52 79 46 43 76 50 42 42 102 93 93 102 93 93 105 95 96 101 92 93 99 89 90 102 93 93 111 103 104 108 102 103 106 96 97 114 106 107 117 107 107 92 83 84 109 102 103 103 96 97 109 101 102 106 99 100 102 96 97 110 104 105 104 100 101 107 100 102 104 100 102 104 99 99 103 96 98 106 101 102 107 102 103 108 104 106 109 104 105 111 107 109 104 99 101 107 103 106 110 104 106 94 91 93 104 101 103 110 108 110 105 102 104 96 93 97 107 105 108 105 102 106 105 102 104 105 102 105 106 104 107 110 108 111 104 101 104 110 108 112 118 116 119 97 95 99 102 100 104 102 101 104 115 113 117 100 98 102 98 97 101 97 94 100 104 103 107 102 100 105 95 94 98 100 98 103 90 89 93 85 82 86 83 80 87 82 80 86 85 82 89 48 46 80 41 39 69 23 19 19 52 47 49 41 40 40 61 54 54 51 45 45 48 42 43 42 40 41 50 46 47 39 36 36 48 43 44 57 54 54 50 45 45 54 50 50 59 55 55 54 52 53 44 41 41 51 47 47 49 45 48 50 47 48 47 45 46 55 52 52 62 58 58 46 44 46 32 27 28 57 55 55 44 40 40 48 48 49 53 50 52 54 53 54 48 45 45 34 33 34 39 37 37 54 52 53 45 45 45 49 49 51 55 54 55 46 46 48 46 45 46 51 49 51 41 39 40 54 52 53 58 56 58 40 40 44 50 49 50 46 45 47 46 44 47 52 51 52 36 36 38 53 53 54 53 51 53 52 51 54 54 54 55 51 49 52 48 47 49 51 50 52 48 47 49 45 45 47 30 27 36 39 39 44 25 25 31 45 43 48 36 34 37 34 32 54 41 39 70 