P3
64 64
255
0 0 0 0 0 0 0 0 0 0 0 0 30 18 30 0 0 0 0 0 0 0 0 0 0 0 0 0 0 0 0 0 0 0 0 0 0 0 0 0 0 0 0 0 0 0 0 0 0 0 0 0 0 0 30 18 30 0 0 0 0 0 0 0 0 0 30 18 30 49 18 18 0 0 0 0 0 0 0 0 0 0 0 0 0 0 0 0 0 0 0 0 0 0 0 0 0 0 0 0 0 0 0 0 0 0 0 0 0 0 0 0 0 0 0 0 0 0 0 0 0 0 0 0 0 0 0 0 0 0 0 0 0 0 0 0 0 0 0 0 0 0 0 0 0 0 0 0 0 0 0 0 0 0 0 0 0 0 0 30 18 30 0 0 0 0 0 0 0 0 0 0 0 0 0 0 0 0 0 0 18 18 49 18 18 49 18 18 49 18 18 49 0 0 0 0 0 0 0 0 0 0 0 0 0 0 0 30 30 49 49 18 18 0 0 0 0 0 0 0 0 0 0 0 0 0 0 0 0 0 0 0 0 0 0 0 0 30 18 30 0 0 0 0 0 0 0 0 0 0 0 0 0 0 0 0 0 0 0 0 0 0 0 0 0 0 0 0 0 0 0 0 0 0 0 0 0 0 0 0 0 0 0 0 0 0 0 0 0 0 0 0 0 0 0 0 0 0 0 0 0 0 0 0 0 0 0 0 0 0 0 0 0 0 0 0 0 0 0 0 0 0 0 0 0 0 0 0 0 0 0 0 0 0 0 0 0 0 0 0 0 0 0 0 0 0 0 0 0 0 0 0 0 0 0 0 0 0 0 0 0 0 0 0 0 0 18 18 49 0 0 0 0 0 0 0 0 0 30 30 49 0 0 0 0 0 0 0 0 0 0 0 0 49 30 30 0 0 0 0 0 0 0 0 0 0 0 0 0 0 0 0 0 0 49 30 30 0 0 0 0 0 0 49 49 49 0 0 0 0 0 0 0 0 0 0 0 0 0 0 0 0 0 0 0 0 0 0 0 0 0 0 0 0 0 0 0 0 0 0 0 0 0 0 0 0 0 0 0 0 0 0 0 0 0 0 0 0 0 0 0 0 0 0 0 0 0 0 0 0 0 0 0 0 0 0 0 0 0 0 0 0 0 0 0 0 0 49 30 30 0 0 0 0 0 0 0 0 0 0 0 0 0 0 0 0 0 0 0 0 0 0 0 0 0 0 0 0 0 0 18 18 49 0 0 0 0 0 0 0 0 0 30 18 30 0 0 0 0 0 0 0 0 0 0 0 0 0 0 0 0 0 0 0 0 0 0 0 0 0 0 0 0 0 0 0 0 0 0 0 0 0 0 0 0 0 0 0 0 0 0 0 0 0 0 0 0 0 0 0 0 0 30 18 30 0 0 0 0 0 0 49 18 18 0 0 0 0 0 0 0 0 0 0 0 0 0 0 0 0 0 0 0 0 0 18 18 49 0 0 0 0 0 0 0 0 0 0 0 0 0 0 0 30 18 30 0 0 0 0 0 0 0 0 0 0 0 0 0 0 0 0 0 0 0 0 0 0 0 0 0 0 0 0 0 0 0 0 0 0 0 0 49 18 18 0 0 0 0 0 0 0 0 0 0 0 0 0 0 0 0 0 0 0 0 0 0 0 0 0 0 0 0 0 0 0 0 0 0 0 0 30 30 49 0 0 0 0 0 0 18 11 30 0 0 0 30 30 49 0 0 0 0 0 0 30 30 49 0 0 0 0 0 0 0 0 0 49 18 18 0 0 0 0 0 0 49 30 30 0 0 0 0 0 0 0 0 0 0 0 0 0 0 0 0 0 0 18 18 49 0 0 0 0 0 0 0 0 0 0 0 0 0 0 0 0 0 0 30 18 30 0 0 0 0 0 0 0 0 0 0 0 0 0 0 0 0 0 0 0 0 0 0 0 0 0 0 0 0 0 0 0 0 0 0 0 0 0 0 0 0 0 0 0 0 0 0 0 0 0 0 0 0 0 0 0 0 0 0 0 0 0 0 0 30 18 30 0 0 0 0 0 0 0 0 0 0 0 0 0 0 0 41 41 67 0 0 0 0 0 0 0 0 0 0 0 0 0 0 0 0 0 0 0 0 0 0 0 0 0 0 0 0 0 0 0 0 0 18 18 49 0 0 0 0 0 0 0 0 0 0 0 0 0 0 0 0 0 0 0 0 0 49 18 18 49 30 30 0 0 0 0 0 0 0 0 0 0 0 0 0 0 0 0 0 0 0 0 0 0 0 0 0 0 0 0 0 0 0 0 0 0 0 0 0 0 0 0 0 0 0 0 0 0 0 0 49 18 18 0 0 0 30 18 30 0 0 0 0 0 0 0 0 0 0 0 0 0 0 0 0 0 0 0 0 0 0 0 0 0 0 0 0 0 0 0 0 0 0 0 0 30 30 49 0 0 0 0 0 0 0 0 0 0 0 0 0 0 0 30 30 49 0 0 0 0 0 0 0 0 0 0 0 0 0 0 0 0 0 0 0 0 0 0 0 0 18 18 49 0 0 0 0 0 0 0 0 0 0 0 0 0 0 0 0 0 0 0 0 0 0 0 0 0 0 0 0 0 0 0 0 0 49 18 18 49 30 30 0 0 0 30 11 18 0 0 0 0 0 0 0 0 0 0 0 0 30 30 49 0 0 0 49 30 30 0 0 0 0 0 0 49 30 30 0 0 0 0 0 0 0 0 0 0 0 0 0 0 0 0 0 0 0 0 0 0 0 0 0 0 0 0 0 0 0 0 0 0 0 0 0 0 0 30 18 30 0 0 0 30 18 30 0 0 0 0 0 0 30 30 49 49 30 30 0 0 0 0 0 0 0 0 0 49 30 30 0 0 0 0 0 0 0 0 0 0 0 0 0 0 0 0 0 0 30 18 30 0 0 0 0 0 0 30 30 49 30 30 49 0 0 0 30 18 30 30 18 30 0 0 0 18 18 49 0 0 0 56 41 56 0 0 0 0 0 0 0 0 0 0 0 0 0 0 0 0 0 0 0 0 0 0 0 0 0 0 0 0 0 0 0 0 0 30 18 30 0 0 0 0 0 0 0 0 0 0 0 0 0 0 0 0 0 0 0 0 0 0 0 0 0 0 0 0 0 0 0 0 0 0 0 0 0 0 0 0 0 0 0 0 0 0 0 0 0 0 0 0 0 0 0 0 0 0 0 0 49 30 30 0 0 0 30 30 49 0 0 0 0 0 0 0 0 0 0 0 0 0 0 0 0 0 0 0 0 0 0 0 0 0 0 0 30 18 30 0 0 0 0 0 0 0 0 0 0 0 0 0 0 0 0 0 0 0 0 0 0 0 0 0 0 0 0 0 0 0 0 0 30 30 49 30 30 49 0 0 0 0 0 0 0 0 0 0 0 0 0 0 0 0 0 0 0 0 0 49 30 30 30 30 49 30 18 30 30 18 30 30 30 49 0 0 0 0 0 0 0 0 0 0 0 0 0 0 0 0 0 0 49 18 18 0 0 0 0 0 0 0 0 0 0 0 0 0 0 0 0 0 0 49 30 30 0 0 0 0 0 0 30 18 30 0 0 0 0 0 0 0 0 0 0 0 0 0 0 0 0 0 0 0 0 0 0 0 0 0 0 0 0 0 0 0 0 0 30 30 49 30 30 49 0 0 0 0 0 0 0 0 0 0 0 0 0 0 0 30 30 49 0 0 0 0 0 0 0 0 0 0 0 0 30 30 49 0 0 0 0 0 0 0 0 0 0 0 0 0 0 0 0 0 0 30 18 30 0 0 0 0 0 0 0 0 0 0 0 0 0 0 0 0 0 0 0 0 0 0 0 0 0 0 0 0 0 0 0 0 0 0 0 0 0 0 0 0 0 0 0 0 0 0 0 0 0 0 0 0 0 0 0 0 0 49 18 18 0 0 0 0 0 0 0 0 0 0 0 0 0 0 0 49 30 30 49 18 18 49 18 18 0 0 0 30 18 30 49 30 30 0 0 0 0 0 0 0 0 0 0 0 0 0 0 0 30 30 49 0 0 0 0 0 0 0 0 0 0 0 0 30 30 49 0 0 0 0 0 0 0 0 0 0 0 0 0 0 0 0 0 0 49 30 30 49 49 49 0 0 0 0 0 0 0 0 0 49 30 30 0 0 0 30 30 49 30 30 49 49 30 30 0 0 0 30 30 49 0 0 0 0 0 0 30 30 49 0 0 0 0 0 0 0 0 0 0 0 0 18 18 49 0 0 0 0 0 0 0 0 0 0 0 0 0 0 0 0 0 0 30 18 30 0 0 0 0 0 0 0 0 0 56 41 56 0 0 0 0 0 0 0 0 0 0 0 0 0 0 0 0 0 0 0 0 0 0 0 0 0 0 0 49 30 30 49 30 30 49 49 49 0 0 0 0 0 0 0 0 0 30 18 30 49 30 30 0 0 0 49 30 30 0 0 0 0 0 0 0 0 0 0 0 0 0 0 0 0 0 0 0 0 0 0 0 0 67 41 41 0 0 0 30 30 49 49 30 30 0 0 0 0 0 0 0 0 0 0 0 0 0 0 0 0 0 0 0 0 0 0 0 0 0 0 0 0 0 0 67 67 67 0 0 0 18 11 30 0 0 0 49 30 30 0 0 0 0 0 0 0 0 0 18 18 49 0 0 0 30 30 49 0 0 0 0 0 0 0 0 0 0 0 0 0 0 0 0 0 0 0 0 0 0 0 0 0 0 0 30 30 49 30 30 49 0 0 0 0 0 0 0 0 0 0 0 0 0 0 0 49 18 18 0 0 0 0 0 0 0 0 0 30 30 49 0 0 0 0 0 0 0 0 0 0 0 0 0 0 0 49 30 30 0 0 0 0 0 0 0 0 0 0 0 0 0 0 0 0 0 0 0 0 0 0 0 0 0 0 0 0 0 0 0 0 0 0 0 0 30 18 30 0 0 0 0 0 0 0 0 0 0 0 0 0 0 0 0 0 0 0 0 0 0 0 0 0 0 0 18 18 49 0 0 0 0 0 0 30 30 49 0 0 0 0 0 0 49 30 30 0 0 0 0 0 0 0 0 0 30 18 30 0 0 0 0 0 0 0 0 0 41 34 56 0 0 0 0 0 0 18 11 30 0 0 0 0 0 0 0 0 0 0 0 0 30 30 49 0 0 0 0 0 0 0 0 0 0 0 0 18 18 49 0 0 0 0 0 0 0 0 0 0 0 0 0 0 0 0 0 0 0 0 0 67 25 25 0 0 0 49 30 30 0 0 0 0 0 0 0 0 0 0 0 0 0 0 0 30 18 30 0 0 0 49 18 18 0 0 0 0 0 0 0 0 0 0 0 0 30 30 49 0 0 0 30 30 49 0 0 0 0 0 0 0 0 0 0 0 0 0 0 0 0 0 0 0 0 0 0 0 0 0 0 0 30 30 49 0 0 0 0 0 0 49 49 49 0 0 0 0 0 0 0 0 0 0 0 0 0 0 0 30 30 49 0 0 0 0 0 0 0 0 0 30 30 49 0 0 0 0 0 0 0 0 0 0 0 0 0 0 0 0 0 0 0 0 0 0 0 0 49 49 49 0 0 0 0 0 0 18 18 49 0 0 0 0 0 0 0 0 0 0 0 0 0 0 0 0 0 0 0 0 0 49 18 18 0 0 0 0 0 0 0 0 0 0 0 0 49 18 18 30 30 49 0 0 0 49 30 30 0 0 0 0 0 0 0 0 0 0 0 0 0 0 0 0 0 0 0 0 0 0 0 0 30 18 30 0 0 0 0 0 0 0 0 0 0 0 0 0 0 0 0 0 0 0 0 0 0 0 0 0 0 0 0 0 0 0 0 0 0 0 0 0 0 0 0 0 0 0 0 0 49 49 49 30 18 30 18 18 49 0 0 0 0 0 0 0 0 0 0 0 0 18 18 49 0 0 0 0 0 0 18 11 30 0 0 0 18 18 49 0 0 0 0 0 0 0 0 0 0 0 0 0 0 0 0 0 0 0 0 0 0 0 0 0 0 0 0 0 0 0 0 0 0 0 0 0 0 0 0 0 0 0 0 0 0 0 0 0 0 0 0 0 0 49 30 30 0 0 0 0 0 0 0 0 0 30 18 30 0 0 0 0 0 0 0 0 0 0 0 0 0 0 0 0 0 0 0 0 0 0 0 0 49 30 30 0 0 0 0 0 0 0 0 0 0 0 0 0 0 0 30 30 49 0 0 0 0 0 0 0 0 0 0 0 0 0 0 0 0 0 0 0 0 0 30 30 49 49 30 30 0 0 0 0 0 0 0 0 0 49 30 30 0 0 0 0 0 0 0 0 0 49 30 30 0 0 0 0 0 0 0 0 0 0 0 0 0 0 0 0 0 0 0 0 0 0 0 0 0 0 0 0 0 0 0 0 0 0 0 0 0 0 0 0 0 0 0 0 0 49 30 30 0 0 0 0 0 0 0 0 0 0 0 0 0 0 0 49 30 30 0 0 0 0 0 0 0 0 0 0 0 0 0 0 0 0 0 0 0 0 0 0 0 0 0 0 0 0 0 0 0 0 0 0 0 0 67 25 25 0 0 0 0 0 0 0 0 0 0 0 0 0 0 0 0 0 0 0 0 0 0 0 0 0 0 0 0 0 0 49 18 18 49 30 30 0 0 0 0 0 0 0 0 0 0 0 0 0 0 0 0 0 0 0 0 0 0 0 0 30 30 49 0 0 0 30 30 49 0 0 0 0 0 0 0 0 0 0 0 0 18 18 49 0 0 0 0 0 0 0 0 0 0 0 0 49 30 30 30 18 30 0 0 0 41 41 67 30 30 49 0 0 0 30 30 49 0 0 0 0 0 0 0 0 0 0 0 0 0 0 0 0 0 0 0 0 0 0 0 0 0 0 0 0 0 0 0 0 0 0 0 0 0 0 0 0 0 0 0 0 0 0 0 0 0 0 0 0 0 0 0 0 0 0 0 0 0 0 0 0 0 0 0 0 0 0 0 0 49 18 18 0 0 0 0 0 0 0 0 0 0 0 0 0 0 0 49 18 18 0 0 0 0 0 0 0 0 0 0 0 0 0 0 0 49 30 30 0 0 0 49 30 30 0 0 0 0 0 0 0 0 0 0 0 0 0 0 0 0 0 0 0 0 0 0 0 0 0 0 0 0 0 0 0 0 0 0 0 0 0 0 0 0 0 0 0 0 0 0 0 0 34 25 56 0 0 0 0 0 0 0 0 0 0 0 0 0 0 0 0 0 0 0 0 0 30 18 30 0 0 0 0 0 0 0 0 0 0 0 0 49 30 30 49 49 49 30 30 49 0 0 0 0 0 0 0 0 0 0 0 0 0 0 0 0 0 0 0 0 0 0 0 0 0 0 0 0 0 0 0 0 0 49 30 30 0 0 0 49 30 30 0 0 0 0 0 0 0 0 0 0 0 0 49 30 30 49 30 30 0 0 0 49 18 18 0 0 0 30 30 49 0 0 0 0 0 0 0 0 0 0 0 0 0 0 0 0 0 0 30 30 49 0 0 0 0 0 0 0 0 0 30 18 30 0 0 0 0 0 0 0 0 0 0 0 0 0 0 0 0 0 0 0 0 0 49 30 30 30 30 49 0 0 0 0 0 0 0 0 0 0 0 0 0 0 0 18 11 30 0 0 0 0 0 0 56 51 56 0 0 0 0 0 0 0 0 0 0 0 0 0 0 0 0 0 0 0 0 0 0 0 0 0 0 0 18 18 49 0 0 0 0 0 0 0 0 0 0 0 0 49 30 30 0 0 0 0 0 0 0 0 0 0 0 0 0 0 0 0 0 0 0 0 0 49 18 18 0 0 0 30 30 49 0 0 0 0 0 0 0 0 0 0 0 0 30 11 18 0 0 0 0 0 0 0 0 0 0 0 0 0 0 0 30 18 30 0 0 0 0 0 0 0 0 0 0 0 0 0 0 0 0 0 0 0 0 0 0 0 0 0 0 0 49 18 18 0 0 0 0 0 0 0 0 0 30 30 49 49 18 18 0 0 0 30 30 49 49 49 49 0 0 0 0 0 0 0 0 0 30 30 49 0 0 0 30 30 49 0 0 0 0 0 0 0 0 0 0 0 0 0 0 0 0 0 0 18 18 49 0 0 0 0 0 0 30 30 49 0 0 0 0 0 0 0 0 0 0 0 0 0 0 0 0 0 0 30 30 49 0 0 0 0 0 0 0 0 0 0 0 0 0 0 0 0 0 0 0 0 0 0 0 0 0 0 0 0 0 0 0 0 0 0 0 0 0 0 0 0 0 0 0 0 0 0 0 0 0 0 0 0 0 0 0 0 0 49 18 18 0 0 0 0 0 0 0 0 0 0 0 0 0 0 0 0 0 0 0 0 0 0 0 0 0 0 0 0 0 0 0 0 0 0 0 0 0 0 0 0 0 0 0 0 0 51 51 67 0 0 0 30 18 30 0 0 0 0 0 0 0 0 0 30 30 49 0 0 0 49 30 30 0 0 0 0 0 0 0 0 0 0 0 0 18 18 49 30 30 49 0 0 0 0 0 0 0 0 0 0 0 0 41 34 56 0 0 0 0 0 0 18 18 49 0 0 0 30 18 30 0 0 0 0 0 0 0 0 0 0 0 0 0 0 0 0 0 0 0 0 0 0 0 0 0 0 0 0 0 0 0 0 0 0 0 0 0 0 0 0 0 0 0 0 0 0 0 0 0 0 0 0 0 0 0 0 0 0 0 0 0 0 0 0 0 0 49 30 30 49 18 18 30 18 30 0 0 0 0 0 0 56 25 34 0 0 0 0 0 0 0 0 0 0 0 0 0 0 0 49 30 30 49 18 18 0 0 0 0 0 0 0 0 0 30 18 30 0 0 0 0 0 0 49 30 30 0 0 0 0 0 0 30 18 30 30 18 30 41 34 56 0 0 0 30 30 49 0 0 0 0 0 0 0 0 0 0 0 0 0 0 0 30 30 49 30 30 49 0 0 0 0 0 0 56 34 41 0 0 0 0 0 0 18 18 49 0 0 0 0 0 0 0 0 0 0 0 0 0 0 0 0 0 0 0 0 0 0 0 0 0 0 0 0 0 0 0 0 0 0 0 0 0 0 0 0 0 0 0 0 0 0 0 0 0 0 0 0 0 0 0 0 0 30 30 49 0 0 0 0 0 0 0 0 0 0 0 0 0 0 0 0 0 0 0 0 0 49 30 30 0 0 0 30 18 30 0 0 0 0 0 0 0 0 0 0 0 0 0 0 0 0 0 0 0 0 0 30 30 49 30 30 49 30 18 30 0 0 0 0 0 0 0 0 0 30 30 49 0 0 0 30 30 49 0 0 0 0 0 0 0 0 0 49 30 30 0 0 0 0 0 0 0 0 0 0 0 0 0 0 0 0 0 0 0 0 0 0 0 0 0 0 0 30 30 49 0 0 0 0 0 0 0 0 0 30 30 49 0 0 0 30 30 49 0 0 0 0 0 0 0 0 0 0 0 0 0 0 0 0 0 0 0 0 0 0 0 0 0 0 0 0 0 0 0 0 0 0 0 0 0 0 0 0 0 0 0 0 0 0 0 0 0 0 0 0 0 0 0 0 0 0 0 0 0 0 0 0 0 0 0 0 0 0 0 0 49 30 30 0 0 0 0 0 0 0 0 0 30 18 30 0 0 0 49 30 30 0 0 0 0 0 0 0 0 0 0 0 0 0 0 0 30 30 49 0 0 0 0 0 0 0 0 0 30 30 49 0 0 0 0 0 0 30 18 30 0 0 0 0 0 0 0 0 0 0 0 0 30 30 49 0 0 0 49 30 30 0 0 0 30 18 30 30 18 30 0 0 0 0 0 0 18 18 49 0 0 0 18 18 49 0 0 0 30 18 30 0 0 0 0 0 0 0 0 0 0 0 0 0 0 0 0 0 0 0 0 0 0 0 0 0 0 0 30 18 30 0 0 0 18 18 49 0 0 0 0 0 0 0 0 0 0 0 0 0 0 0 0 0 0 0 0 0 0 0 0 0 0 0 0 0 0 49 18 18 0 0 0 0 0 0 0 0 0 49 18 18 0 0 0 30 18 30 0 0 0 0 0 0 0 0 0 30 30 49 0 0 0 49 18 18 30 18 30 0 0 0 0 0 0 0 0 0 0 0 0 0 0 0 0 0 0 0 0 0 30 18 30 0 0 0 0 0 0 0 0 0 0 0 0 0 0 0 30 30 49 0 0 0 0 0 0 49 30 30 30 30 49 0 0 0 0 0 0 0 0 0 0 0 0 0 0 0 0 0 0 0 0 0 0 0 0 0 0 0 0 0 0 18 11 30 0 0 0 0 0 0 0 0 0 0 0 0 0 0 0 0 0 0 0 0 0 0 0 0 0 0 0 18 18 49 0 0 0 0 0 0 0 0 0 0 0 0 0 0 0 0 0 0 0 0 0 0 0 0 0 0 0 0 0 0 0 0 0 0 0 0 0 0 0 0 0 0 0 0 0 30 18 30 30 18 30 0 0 0 0 0 0 56 25 34 0 0 0 30 18 30 0 0 0 56 41 56 30 18 30 30 18 30 0 0 0 0 0 0 0 0 0 0 0 0 30 18 30 0 0 0 0 0 0 56 41 56 0 0 0 0 0 0 0 0 0 0 0 0 0 0 0 0 0 0 0 0 0 0 0 0 0 0 0 0 0 0 0 0 0 0 0 0 0 0 0 0 0 0 0 0 0 18 18 49 0 0 0 0 0 0 0 0 0 0 0 0 30 30 49 0 0 0 0 0 0 30 18 30 18 18 49 0 0 0 30 30 49 0 0 0 0 0 0 0 0 0 0 0 0 0 0 0 0 0 0 0 0 0 0 0 0 0 0 0 0 0 0 0 0 0 0 0 0 0 0 0 0 0 0 0 0 0 0 0 0 0 0 0 0 0 0 0 0 0 0 0 0 0 0 0 0 0 0 49 30 30 30 11 18 0 0 0 0 0 0 0 0 0 0 0 0 0 0 0 0 0 0 0 0 0 0 0 0 0 0 0 0 0 0 0 0 0 0 0 0 0 0 0 0 0 0 0 0 0 0 0 0 0 0 0 0 0 0 67 41 41 49 30 30 0 0 0 30 18 30 0 0 0 0 0 0 0 0 0 0 0 0 0 0 0 0 0 0 18 18 49 0 0 0 49 30 30 0 0 0 0 0 0 0 0 0 0 0 0 0 0 0 0 0 0 0 0 0 0 0 0 0 0 0 0 0 0 0 0 0 0 0 0 30 18 30 0 0 0 0 0 0 0 0 0 0 0 0 0 0 0 0 0 0 0 0 0 0 0 0 49 18 18 0 0 0 0 0 0 0 0 0 30 18 30 0 0 0 0 0 0 30 18 30 0 0 0 0 0 0 49 18 18 0 0 0 0 0 0 0 0 0 0 0 0 0 0 0 0 0 0 0 0 0 0 0 0 0 0 0 0 0 0 0 0 0 30 30 49 0 0 0 0 0 0 0 0 0 0 0 0 0 0 0 0 0 0 30 18 30 0 0 0 0 0 0 0 0 0 0 0 0 0 0 0 0 0 0 0 0 0 0 0 0 0 0 0 0 0 0 0 0 0 0 0 0 0 0 0 0 0 0 34 34 67 0 0 0 0 0 0 0 0 0 0 0 0 0 0 0 0 0 0 30 30 49 30 18 30 0 0 0 0 0 0 0 0 0 0 0 0 0 0 0 0 0 0 49 49 49 49 30 30 0 0 0 0 0 0 0 0 0 0 0 0 0 0 0 0 0 0 0 0 0 0 0 0 0 0 0 0 0 0 0 0 0 0 0 0 0 0 0 0 0 0 0 0 0 49 49 49 0 0 0 0 0 0 0 0 0 0 0 0 30 18 30 0 0 0 30 30 49 0 0 0 41 41 67 0 0 0 0 0 0 0 0 0 0 0 0 0 0 0 0 0 0 0 0 0 18 18 49 0 0 0 0 0 0 0 0 0 0 0 0 18 18 49 0 0 0 0 0 0 0 0 0 0 0 0 0 0 0 0 0 0 56 34 41 0 0 0 0 0 0 0 0 0 30 30 49 30 30 49 0 0 0 0 0 0 0 0 0 0 0 0 30 30 49 0 0 0 0 0 0 30 18 30 0 0 0 0 0 0 0 0 0 0 0 0 0 0 0 0 0 0 0 0 0 0 0 0 0 0 0 0 0 0 0 0 0 30 18 30 0 0 0 56 25 34 0 0 0 0 0 0 0 0 0 0 0 0 49 18 18 56 21 25 0 0 0 0 0 0 0 0 0 0 0 0 0 0 0 49 30 30 0 0 0 49 30 30 0 0 0 0 0 0 0 0 0 0 0 0 0 0 0 0 0 0 0 0 0 0 0 0 0 0 0 0 0 0 49 30 30 0 0 0 30 30 49 0 0 0 0 0 0 0 0 0 0 0 0 0 0 0 0 0 0 0 0 0 0 0 0 30 30 49 0 0 0 0 0 0 0 0 0 34 25 56 0 0 0 0 0 0 0 0 0 18 18 49 30 18 30 0 0 0 30 30 49 30 30 49 0 0 0 0 0 0 0 0 0 0 0 0 0 0 0 0 0 0 0 0 0 0 0 0 0 0 0 0 0 0 0 0 0 0 0 0 0 0 0 0 0 0 0 0 0 0 0 0 0 0 0 0 0 0 0 0 0 0 0 0 0 0 0 0 0 0 0 0 0 0 0 0 0 0 0 0 0 0 30 18 30 0 0 0 0 0 0 0 0 0 49 18 18 0 0 0 0 0 0 18 18 49 0 0 0 0 0 0 0 0 0 0 0 0 0 0 0 0 0 0 30 18 30 0 0 0 0 0 0 0 0 0 0 0 0 18 18 49 0 0 0 0 0 0 0 0 0 0 0 0 0 0 0 0 0 0 0 0 0 0 0 0 0 0 0 0 0 0 0 0 0 30 18 30 30 30 49 0 0 0 0 0 0 0 0 0 0 0 0 0 0 0 0 0 0 0 0 0 0 0 0 0 0 0 0 0 0 0 0 0 0 0 0 0 0 0 0 0 0 0 0 0 0 0 0 0 0 0 41 25 41 0 0 0 0 0 0 0 0 0 0 0 0 0 0 0 0 0 0 0 0 0 0 0 0 0 0 0 0 0 0 0 0 0 0 0 0 0 0 0 0 0 0 0 0 0 0 0 0 0 0 0 0 0 0 30 18 30 0 0 0 0 0 0 0 0 0 0 0 0 0 0 0 0 0 0 30 18 30 0 0 0 0 0 0 0 0 0 30 30 49 0 0 0 0 0 0 0 0 0 0 0 0 0 0 0 30 30 49 0 0 0 18 18 49 0 0 0 0 0 0 0 0 0 30 30 49 0 0 0 41 34 56 0 0 0 0 0 0 0 0 0 0 0 0 0 0 0 0 0 0 0 0 0 0 0 0 0 0 0 18 18 49 0 0 0 0 0 0 0 0 0 0 0 0 0 0 0 0 0 0 0 0 0 0 0 0 0 0 0 0 0 0 30 18 30 49 30 30 0 0 0 0 0 0 0 0 0 0 0 0 0 0 0 30 18 30 30 18 30 0 0 0 0 0 0 0 0 0 0 0 0 0 0 0 0 0 0 0 0 0 0 0 0 0 0 0 0 0 0 0 0 0 0 0 0 30 18 30 0 0 0 0 0 0 30 18 30 0 0 0 0 0 0 0 0 0 0 0 0 0 0 0 0 0 0 0 0 0 0 0 0 0 0 0 0 0 0 0 0 0 30 30 49 0 0 0 18 18 49 0 0 0 0 0 0 0 0 0 0 0 0 30 18 30 0 0 0 30 18 30 0 0 0 0 0 0 0 0 0 0 0 0 30 30 49 41 34 56 0 0 0 30 18 30 0 0 0 0 0 0 0 0 0 30 18 30 0 0 0 0 0 0 0 0 0 67 41 41 0 0 0 0 0 0 0 0 0 30 18 30 0 0 0 49 18 18 0 0 0 0 0 0 30 30 49 49 30 30 0 0 0 49 18 18 0 0 0 0 0 0 30 18 30 0 0 0 0 0 0 0 0 0 49 18 18 30 18 30 0 0 0 0 0 0 0 0 0 0 0 0 0 0 0 0 0 0 0 0 0 0 0 0 0 0 0 0 0 0 0 0 0 0 0 0 0 0 0 0 0 0 0 0 0 0 0 0 0 0 0 0 0 0 0 0 0 30 18 30 30 18 30 0 0 0 0 0 0 25 25 67 0 0 0 0 0 0 0 0 0 0 0 0 0 0 0 0 0 0 0 0 0 0 0 0 18 18 49 0 0 0 0 0 0 0 0 0 0 0 0 0 0 0 0 0 0 0 0 0 0 0 0 0 0 0 0 0 0 30 18 30 0 0 0 0 0 0 0 0 0 0 0 0 0 0 0 0 0 0 0 0 0 49 30 30 0 0 0 0 0 0 30 18 30 0 0 0 0 0 0 0 0 0 49 30 30 30 18 30 0 0 0 0 0 0 49 18 18 0 0 0 0 0 0 0 0 0 0 0 0 0 0 0 0 0 0 0 0 0 0 0 0 30 18 30 0 0 0 0 0 0 0 0 0 30 30 49 0 0 0 0 0 0 0 0 0 30 30 49 0 0 0 0 0 0 30 30 49 49 30 30 34 25 56 0 0 0 0 0 0 0 0 0 0 0 0 0 0 0 0 0 0 0 0 0 30 18 30 0 0 0 0 0 0 34 34 67 0 0 0 0 0 0 0 0 0 0 0 0 0 0 0 0 0 0 0 0 0 0 0 0 0 0 0 0 0 0 0 0 0 0 0 0 0 0 0 0 0 0 0 0 0 0 0 0 0 0 0 0 0 0 0 0 0 0 0 0 41 25 41 49 18 18 0 0 0 0 0 0 0 0 0 30 30 49 0 0 0 0 0 0 0 0 0 0 0 0 0 0 0 0 0 0 49 49 49 0 0 0 30 30 49 0 0 0 30 30 49 0 0 0 0 0 0 0 0 0 0 0 0 0 0 0 0 0 0 0 0 0 0 0 0 0 0 0 30 18 30 0 0 0 0 0 0 0 0 0 0 0 0 0 0 0 0 0 0 30 18 30 0 0 0 18 18 49 0 0 0 0 0 0 0 0 0 30 30 49 0 0 0 0 0 0 30 18 30 0 0 0 18 18 49 0 0 0 0 0 0 0 0 0 0 0 0 30 30 49 0 0 0 0 0 0 0 0 0 30 30 49 0 0 0 0 0 0 0 0 0 0 0 0 0 0 0 0 0 0 49 18 18 49 18 18 30 18 30 0 0 0 49 18 18 0 0 0 30 30 49 0 0 0 0 0 0 0 0 0 0 0 0 0 0 0 0 0 0 0 0 0 0 0 0 49 30 30 0 0 0 0 0 0 0 0 0 0 0 0 0 0 0 30 18 30 0 0 0 30 18 30 0 0 0 0 0 0 30 30 49 0 0 0 0 0 0 0 0 0 30 30 49 0 0 0 0 0 0 0 0 0 0 0 0 0 0 0 49 49 49 0 0 0 0 0 0 0 0 0 0 0 0 0 0 0 30 18 30 0 0 0 30 18 30 30 18 30 0 0 0 0 0 0 18 18 49 0 0 0 30 30 49 0 0 0 0 0 0 0 0 0 30 30 49 0 0 0 0 0 0 0 0 0 0 0 0 0 0 0 0 0 0 0 0 0 0 0 0 0 0 0 0 0 0 0 0 0 49 18 18 0 0 0 0 0 0 30 18 30 0 0 0 0 0 0 0 0 0 0 0 0 30 18 30 0 0 0 0 0 0 0 0 0 0 0 0 0 0 0 0 0 0 0 0 0 0 0 0 0 0 0 0 0 0 0 0 0 0 0 0 30 30 49 18 18 49 0 0 0 0 0 0 18 18 49 30 30 49 0 0 0 0 0 0 0 0 0 0 0 0 0 0 0 30 30 49 0 0 0 0 0 0 0 0 0 0 0 0 0 0 0 0 0 0 0 0 0 0 0 0 0 0 0 0 0 0 0 0 0 0 0 0 0 0 0 0 0 0 0 0 0 0 0 0 0 0 0 0 0 0 0 0 0 0 0 0 49 30 30 49 30 30 0 0 0 49 30 30 0 0 0 0 0 0 49 18 18 0 0 0 0 0 0 41 25 41 0 0 0 30 18 30 49 30 30 0 0 0 0 0 0 30 30 49 0 0 0 0 0 0 0 0 0 0 0 0 0 0 0 0 0 0 30 18 30 0 0 0 0 0 0 0 0 0 0 0 0 30 18 30 0 0 0 0 0 0 0 0 0 0 0 0 0 0 0 0 0 0 0 0 0 0 0 0 30 30 49 30 30 49 0 0 0 0 0 0 0 0 0 0 0 0 0 0 0 0 0 0 30 30 49 0 0 0 30 18 30 49 30 30 0 0 0 0 0 0 0 0 0 0 0 0 0 0 0 0 0 0 0 0 0 0 0 0 0 0 0 0 0 0 0 0 0 0 0 0 0 0 0 0 0 0 0 0 0 0 0 0 0 0 0 0 0 0 0 0 0 0 0 0 0 0 0 0 0 0 0 0 0 0 0 0 0 0 0 0 0 0 0 0 0 0 0 0 0 0 0 30 18 30 0 0 0 0 0 0 0 0 0 0 0 0 30 18 30 0 0 0 0 0 0 56 51 56 0 0 0 0 0 0 49 18 18 0 0 0 30 18 30 0 0 0 0 0 0 0 0 0 30 18 30 0 0 0 0 0 0 0 0 0 0 0 0 0 0 0 30 18 30 18 11 30 0 0 0 0 0 0 0 0 0 18 18 49 0 0 0 0 0 0 0 0 0 49 30 30 0 0 0 0 0 0 0 0 0 0 0 0 0 0 0 30 18 30 0 0 0 30 30 49 0 0 0 0 0 0 18 18 49 0 0 0 0 0 0 0 0 0 0 0 0 0 0 0 0 0 0 0 0 0 0 0 0 0 0 0 0 0 0 0 0 0 0 0 0 0 0 0 0 0 0 0 0 0 0 0 0 0 0 0 49 30 30 0 0 0 0 0 0 0 0 0 0 0 0 0 0 0 0 0 0 0 0 0 0 0 0 41 34 56 0 0 0 0 0 0 0 0 0 0 0 0 67 34 34 30 30 49 0 0 0 0 0 0 0 0 0 30 18 30 0 0 0 0 0 0 18 18 49 0 0 0 49 30 30 0 0 0 0 0 0 0 0 0 0 0 0 0 0 0 0 0 0 18 18 49 30 30 49 0 0 0 30 30 49 30 18 30 0 0 0 0 0 0 0 0 0 0 0 0 0 0 0 0 0 0 0 0 0 0 0 0 0 0 0 0 0 0 0 0 0 30 30 49 0 0 0 30 30 49 0 0 0 0 0 0 0 0 0 0 0 0 0 0 0 0 0 0 0 0 0 0 0 0 0 0 0 0 0 0 0 0 0 0 0 0 0 0 0 0 0 0 0 0 0 0 0 0 41 34 56 0 0 0 0 0 0 49 18 18 49 18 18 0 0 0 0 0 0 0 0 0 0 0 0 49 18 18 49 30 30 0 0 0 30 30 49 0 0 0 0 0 0 0 0 0 0 0 0 0 0 0 0 0 0 0 0 0 0 0 0 0 0 0 0 0 0 0 0 0 0 0 0 0 0 0 0 0 0 0 0 0 18 11 30 0 0 0 0 0 0 0 0 0 0 0 0 37 30 72 0 0 0 0 0 0 0 0 0 0 0 0 0 0 0 0 0 0 49 49 49 0 0 0 0 0 0 0 0 0 0 0 0 0 0 0 30 30 49 0 0 0 30 18 30 0 0 0 0 0 0 0 0 0 0 0 0 0 0 0 0 0 0 0 0 0 49 30 30 0 0 0 0 0 0 49 30 30 0 0 0 0 0 0 0 0 0 0 0 0 0 0 0 0 0 0 0 0 0 49 30 30 0 0 0 0 0 0 0 0 0 0 0 0 0 0 0 0 0 0 0 0 0 0 0 0 0 0 0 0 0 0 0 0 0 0 0 0 0 0 0 0 0 0 0 0 0 0 0 0 0 0 0 30 30 49 0 0 0 0 0 0 0 0 0 0 0 0 0 0 0 0 0 0 18 18 49 0 0 0 30 30 49 30 18 30 0 0 0 0 0 0 0 0 0 0 0 0 0 0 0 0 0 0 0 0 0 30 30 49 0 0 0 0 0 0 0 0 0 0 0 0 0 0 0 0 0 0 0 0 0 0 0 0 0 0 0 0 0 0 30 18 30 0 0 0 0 0 0 49 49 49 0 0 0 0 0 0 49 18 18 0 0 0 0 0 0 0 0 0 56 25 34 30 18 30 0 0 0 0 0 0 0 0 0 0 0 0 0 0 0 0 0 0 0 0 0 0 0 0 0 0 0 49 30 30 0 0 0 0 0 0 0 0 0 0 0 0 0 0 0 0 0 0 0 0 0 0 0 0 30 30 49 30 30 49 30 18 30 0 0 0 49 30 30 30 18 30 0 0 0 0 0 0 0 0 0 18 18 49 0 0 0 0 0 0 0 0 0 0 0 0 0 0 0 0 0 0 0 0 0 0 0 0 30 30 49 0 0 0 0 0 0 0 0 0 0 0 0 18 18 49 0 0 0 18 18 49 0 0 0 0 0 0 0 0 0 0 0 0 0 0 0 0 0 0 49 30 30 0 0 0 0 0 0 0 0 0 49 30 30 0 0 0 0 0 0 0 0 0 0 0 0 0 0 0 49 18 18 0 0 0 0 0 0 0 0 0 0 0 0 49 30 30 0 0 0 0 0 0 0 0 0 0 0 0 0 0 0 56 41 56 0 0 0 0 0 0 0 0 0 0 0 0 0 0 0 0 0 0 0 0 0 0 0 0 0 0 0 0 0 0 0 0 0 0 0 0 0 0 0 0 0 0 0 0 0 0 0 0 56 34 41 0 0 0 56 34 41 30 30 49 0 0 0 0 0 0 0 0 0 0 0 0 0 0 0 0 0 0 0 0 0 0 0 0 0 0 0 0 0 0 30 30 49 0 0 0 30 30 49 18 18 49 0 0 0 0 0 0 0 0 0 0 0 0 0 0 0 0 0 0 0 0 0 0 0 0 0 0 0 0 0 0 0 0 0 0 0 0 0 0 0 0 0 0 0 0 0 0 0 0 0 0 0 0 0 0 0 0 0 0 0 0 0 0 0 0 0 0 0 0 0 30 18 30 0 0 0 0 0 0 0 0 0 49 30 30 0 0 0 0 0 0 30 30 49 0 0 0 0 0 0 49 18 18 30 18 30 0 0 0 56 51 56 0 0 0 49 30 30 0 0 0 0 0 0 0 0 0 0 0 0 0 0 0 18 18 49 0 0 0 0 0 0 0 0 0 0 0 0 0 0 0 30 30 49 30 18 30 0 0 0 0 0 0 0 0 0 0 0 0 0 0 0 0 0 0 0 0 0 0 0 0 0 0 0 0 0 0 0 0 0 0 0 0 0 0 0 30 30 49 0 0 0 30 30 49 0 0 0 49 30 30 0 0 0 56 34 41 0 0 0 0 0 0 0 0 0 0 0 0 0 0 0 0 0 0 30 18 30 0 0 0 0 0 0 0 0 0 0 0 0 30 30 49 0 0 0 0 0 0 0 0 0 0 0 0 0 0 0 0 0 0 0 0 0 30 18 30 0 0 0 30 11 18 0 0 0 49 30 30 0 0 0 0 0 0 0 0 0 0 0 0 0 0 0 0 0 0 30 18 30 0 0 0 18 18 49 0 0 0 0 0 0 0 0 0 0 0 0 0 0 0 0 0 0 30 30 49 0 0 0 49 30 30 0 0 0 49 30 30 0 0 0 0 0 0 0 0 0 30 30 49 18 18 49 0 0 0 49 30 30 49 30 30 0 0 0 0 0 0 30 18 30 0 0 0 0 0 0 0 0 0 0 0 0 0 0 0 0 0 0 0 0 0 0 0 0 0 0 0 0 0 0 0 0 0 0 0 0 0 0 0 30 18 30 0 0 0 49 18 18 0 0 0 0 0 0 0 0 0 0 0 0 30 18 30 30 18 30 0 0 0 0 0 0 0 0 0 0 0 0 0 0 0 49 30 30 0 0 0 49 30 30 49 49 49 0 0 0 49 30 30 0 0 0 0 0 0 30 18 30 0 0 0 56 41 56 0 0 0 0 0 0 0 0 0 49 18 18 0 0 0 0 0 0 0 0 0 0 0 0 56 41 56 0 0 0 0 0 0 0 0 0 0 0 0 0 0 0 0 0 0 18 18 49 0 0 0 30 18 30 0 0 0 30 30 49 30 18 30 0 0 0 0 0 0 44 37 72 0 0 0 30 18 30 0 0 0 0 0 0 0 0 0 0 0 0 0 0 0 0 0 0 0 0 0 0 0 0 0 0 0 0 0 0 0 0 0 0 0 0 30 30 49 0 0 0 0 0 0 0 0 0 0 0 0 0 0 0 49 30 30 0 0 0 0 0 0 0 0 0 0 0 0 0 0 0 49 18 18 0 0 0 0 0 0 0 0 0 0 0 0 30 30 49 0 0 0 0 0 0 30 30 49 49 30 30 0 0 0 49 18 18 56 34 41 0 0 0 0 0 0 0 0 0 0 0 0 0 0 0 0 0 0 30 18 30 0 0 0 0 0 0 0 0 0 0 0 0 0 0 0 30 18 30 30 30 49 49 30 30 0 0 0 0 0 0 49 30 30 0 0 0 56 41 56 0 0 0 0 0 0 49 49 49 0 0 0 0 0 0 0 0 0 0 0 0 0 0 0 0 0 0 0 0 0 0 0 0 0 0 0 0 0 0 0 0 0 0 0 0 0 0 0 0 0 0 0 0 0 0 0 0 0 0 0 0 0 0 0 0 0 0 0 0 0 0 0 49 30 30 0 0 0 0 0 0 0 0 0 0 0 0 0 0 0 0 0 0 0 0 0 30 30 49 0 0 0 49 30 30 0 0 0 30 18 30 0 0 0 30 30 49 0 0 0 49 30 30 0 0 0 30 30 49 0 0 0 49 30 30 18 18 49 0 0 0 0 0 0 0 0 0 30 30 49 0 0 0 30 30 49 0 0 0 0 0 0 0 0 0 49 30 30 49 30 30 30 30 49 30 18 30 0 0 0 49 30 30 0 0 0 0 0 0 0 0 0 0 0 0 0 0 0 0 0 0 0 0 0 0 0 0 56 41 56 0 0 0 0 0 0 0 0 0 0 0 0 30 30 49 0 0 0 0 0 0 0 0 0 0 0 0 0 0 0 0 0 0 0 0 0 0 0 0 0 0 0 49 30 30 0 0 0 0 0 0 0 0 0 0 0 0 0 0 0 49 30 30 0 0 0 0 0 0 0 0 0 49 18 18 0 0 0 0 0 0 0 0 0 49 18 18 0 0 0 30 30 49 0 0 0 0 0 0 0 0 0 0 0 0 0 0 0 0 0 0 0 0 0 49 30 30 30 30 49 0 0 0 0 0 0 0 0 0 0 0 0 0 0 0 0 0 0 0 0 0 0 0 0 0 0 0 49 30 30 0 0 0 0 0 0 0 0 0 0 0 0 0 0 0 0 0 0 0 0 0 0 0 0 0 0 0 0 0 0 0 0 0 0 0 0 30 30 49 30 18 30 0 0 0 18 11 30 0 0 0 0 0 0 0 0 0 0 0 0 30 30 49 0 0 0 0 0 0 30 18 30 0 0 0 0 0 0 0 0 0 0 0 0 0 0 0 0 0 0 0 0 0 0 0 0 0 0 0 0 0 0 0 0 0 0 0 0 0 0 0 49 30 30 0 0 0 0 0 0 49 30 30 0 0 0 0 0 0 0 0 0 0 0 0 0 0 0 30 18 30 0 0 0 0 0 0 0 0 0 0 0 0 0 0 0 0 0 0 0 0 0 0 0 0 0 0 0 49 18 18 0 0 0 0 0 0 49 30 30 30 30 49 49 30 30 0 0 0 30 18 30 0 0 0 49 30 30 30 18 30 0 0 0 0 0 0 49 18 18 0 0 0 0 0 0 0 0 0 0 0 0 0 0 0 18 18 49 0 0 0 49 30 30 51 34 56 0 0 0 0 0 0 0 0 0 0 0 0 0 0 0 0 0 0 0 0 0 0 0 0 0 0 0 0 0 0 30 11 18 0 0 0 0 0 0 0 0 0 0 0 0 0 0 0 0 0 0 0 0 0 0 0 0 0 0 0 49 30 30 0 0 0 0 0 0 0 0 0 0 0 0 0 0 0 0 0 0 0 0 0 49 30 30 30 18 30 0 0 0 0 0 0 30 18 30 0 0 0 30 18 30 0 0 0 0 0 0 0 0 0 30 30 49 49 30 30 49 30 30 0 0 0 49 30 30 0 0 0 0 0 0 0 0 0 0 0 0 0 0 0 0 0 0 0 0 0 0 0 0 0 0 0 0 0 0 30 30 49 0 0 0 30 30 49 0 0 0 0 0 0 0 0 0 0 0 0 0 0 0 18 18 49 69 58 72 49 18 18 0 0 0 0 0 0 0 0 0 0 0 0 0 0 0 0 0 0 18 18 49 0 0 0 0 0 0 0 0 0 0 0 0 0 0 0 0 0 0 0 0 0 49 18 18 0 0 0 0 0 0 0 0 0 0 0 0 0 0 0 0 0 0 0 0 0 30 18 30 0 0 0 0 0 0 0 0 0 0 0 0 0 0 0 30 18 30 0 0 0 41 34 56 0 0 0 0 0 0 0 0 0 0 0 0 30 11 18 30 18 30 0 0 0 0 0 0 49 30 30 0 0 0 0 0 0 0 0 0 0 0 0 0 0 0 0 0 0 0 0 0 30 30 49 30 18 30 30 30 49 0 0 0 0 0 0 30 30 49 0 0 0 34 34 67 0 0 0 0 0 0 0 0 0 0 0 0 0 0 0 0 0 0 0 0 0 30 30 49 0 0 0 0 0 0 0 0 0 0 0 0 0 0 0 0 0 0 18 18 49 18 18 49 30 18 30 0 0 0 0 0 0 0 0 0 0 0 0 0 0 0 0 0 0 0 0 0 0 0 0 0 0 0 49 30 30 0 0 0 49 18 18 0 0 0 18 18 49 0 0 0 49 30 30 0 0 0 30 18 30 49 30 30 0 0 0 0 0 0 0 0 0 0 0 0 0 0 0 49 18 18 30 18 30 62 30 44 56 34 41 0 0 0 30 18 30 0 0 0 0 0 0 0 0 0 0 0 0 0 0 0 49 30 30 0 0 0 0 0 0 0 0 0 51 34 56 0 0 0 30 30 49 0 0 0 0 0 0 0 0 0 0 0 0 0 0 0 0 0 0 0 0 0 0 0 0 0 0 0 0 0 0 0 0 0 30 30 49 0 0 0 0 0 0 0 0 0 0 0 0 0 0 0 18 11 30 0 0 0 0 0 0 0 0 0 0 0 0 0 0 0 0 0 0 0 0 0 0 0 0 0 0 0 49 18 18 0 0 0 18 18 49 0 0 0 0 0 0 0 0 0 0 0 0 0 0 0 0 0 0 0 0 0 0 0 0 56 34 41 0 0 0 0 0 0 49 30 30 0 0 0 30 18 30 49 30 30 0 0 0 0 0 0 0 0 0 0 0 0 49 49 49 0 0 0 0 0 0 0 0 0 0 0 0 0 0 0 0 0 0 0 0 0 0 0 0 0 0 0 0 0 0 0 0 0 30 30 49 0 0 0 0 0 0 49 30 30 0 0 0 0 0 0 0 0 0 0 0 0 0 0 0 0 0 0 0 0 0 0 0 0 0 0 0 0 0 0 0 0 0 0 0 0 0 0 0 0 0 0 0 0 0 0 0 0 0 0 0 0 0 0 0 0 0 30 30 49 0 0 0 0 0 0 0 0 0 0 0 0 0 0 0 49 30 30 0 0 0 0 0 0 0 0 0 0 0 0 0 0 0 49 18 18 0 0 0 0 0 0 0 0 0 0 0 0 0 0 0 49 30 30 0 0 0 0 0 0 0 0 0 0 0 0 0 0 0 0 0 0 0 0 0 0 0 0 0 0 0 0 0 0 0 0 0 0 0 0 0 0 0 0 0 0 0 0 0 0 0 0 0 0 0 0 0 0 56 34 41 0 0 0 0 0 0 49 30 30 0 0 0 30 18 30 0 0 0 49 49 49 0 0 0 18 11 30 0 0 0 0 0 0 0 0 0 30 18 30 0 0 0 0 0 0 30 30 49 0 0 0 0 0 0 0 0 0 0 0 0 0 0 0 0 0 0 0 0 0 30 30 49 0 0 0 30 30 49 0 0 0 30 18 30 18 11 30 0 0 0 0 0 0 0 0 0 0 0 0 0 0 0 0 0 0 0 0 0 0 0 0 0 0 0 0 0 0 0 0 0 0 0 0 0 0 0 0 0 0 49 30 30 0 0 0 0 0 0 0 0 0 0 0 0 0 0 0 30 18 30 0 0 0 0 0 0 0 0 0 0 0 0 0 0 0 0 0 0 0 0 0 0 0 0 0 0 0 0 0 0 0 0 0 0 0 0 0 0 0 0 0 0 0 0 0 0 0 0 49 30 30 0 0 0 0 0 0 0 0 0 0 0 0 0 0 0 0 0 0 0 0 0 0 0 0 0 0 0 0 0 0 0 0 0 0 0 0 0 0 0 0 0 0 0 0 0 0 0 0 0 0 0 18 18 49 30 18 30 0 0 0 0 0 0 0 0 0 30 18 30 0 0 0 0 0 0 0 0 0 30 30 49 0 0 0 0 0 0 49 30 30 0 0 0 0 0 0 0 0 0 0 0 0 0 0 0 0 0 0 0 0 0 0 0 0 0 0 0 49 30 30 0 0 0 0 0 0 30 30 49 0 0 0 0 0 0 0 0 0 0 0 0 0 0 0 0 0 0 49 18 18 0 0 0 0 0 0 0 0 0 0 0 0 0 0 0 0 0 0 0 0 0 0 0 0 0 0 0 0 0 0 0 0 0 0 0 0 0 0 0 0 0 0 0 0 0 0 0 0 0 0 0 0 0 0 0 0 0 0 0 0 0 0 0 0 0 0 0 0 0 0 0 0 0 0 0 0 0 0 0 0 0 0 0 0 0 0 0 0 0 0 0 0 0 0 0 0 0 0 0 0 0 0 0 0 0 0 0 0 30 30 49 0 0 0 0 0 0 0 0 0 0 0 0 0 0 0 0 0 0 0 0 0 49 18 18 30 18 30 0 0 0 0 0 0 30 18 30 0 0 0 0 0 0 0 0 0 0 0 0 49 18 18 0 0 0 0 0 0 0 0 0 0 0 0 0 0 0 67 34 34 0 0 0 0 0 0 0 0 0 0 0 0 0 0 0 0 0 0 0 0 0 0 0 0 0 0 0 0 0 0 0 0 0 0 0 0 0 0 0 0 0 0 49 30 30 0 0 0 0 0 0 30 30 49 0 0 0 49 30 30 0 0 0 30 30 49 0 0 0 0 0 0 0 0 0 0 0 0 0 0 0 18 18 49 0 0 0 41 34 56 0 0 0 0 0 0 0 0 0 0 0 0 0 0 0 18 11 30 0 0 0 0 0 0 0 0 0 0 0 0 0 0 0 30 18 30 0 0 0 0 0 0 0 0 0 0 0 0 0 0 0 0 0 0 56 41 56 49 18 18 49 30 30 0 0 0 0 0 0 0 0 0 0 0 0 0 0 0 0 0 0 0 0 0 0 0 0 49 18 18 0 0 0 49 18 18 0 0 0 0 0 0 0 0 0 30 18 30 0 0 0 0 0 0 30 18 30 0 0 0 0 0 0 0 0 0 0 0 0 30 30 49 0 0 0 0 0 0 0 0 0 0 0 0 0 0 0 0 0 0 0 0 0 0 0 0 0 0 0 30 30 49 49 49 49 0 0 0 30 30 49 0 0 0 0 0 0 0 0 0 0 0 0 0 0 0 0 0 0 0 0 0 49 30 30 0 0 0 0 0 0 30 30 49 0 0 0 30 30 49 0 0 0 0 0 0 0 0 0 0 0 0 0 0 0 0 0 0 30 30 49 0 0 0 0 0 0 30 18 30 0 0 0 0 0 0 0 0 0 0 0 0 30 18 30 0 0 0 49 18 18 0 0 0 0 0 0 41 25 41 0 0 0 0 0 0 0 0 0 0 0 0 49 18 18 0 0 0 0 0 0 0 0 0 0 0 0 49 18 18 49 30 30 0 0 0 0 0 0 0 0 0 0 0 0 0 0 0 49 18 18 0 0 0 49 18 18 0 0 0 0 0 0 0 0 0 0 0 0 0 0 0 0 0 0 0 0 0 0 0 0 0 0 0 0 0 0 0 0 0 0 0 0 0 0 0 0 0 0 0 0 0 0 0 0 0 0 0 0 0 0 0 0 0 0 0 0 0 0 0 0 0 0 0 0 0 30 30 49 0 0 0 0 0 0 0 0 0 0 0 0 0 0 0 0 0 0 0 0 0 0 0 0 0 0 0 0 0 0 30 30 49 0 0 0 0 0 0 0 0 0 30 18 30 0 0 0 0 0 0 0 0 0 0 0 0 30 18 30 30 18 30 0 0 0 0 0 0 0 0 0 0 0 0 0 0 0 0 0 0 30 18 30 49 30 30 30 18 30 18 18 49 0 0 0 0 0 0 0 0 0 0 0 0 49 30 30 0 0 0 0 0 0 0 0 0 0 0 0 0 0 0 0 0 0 0 0 0 0 0 0 0 0 0 0 0 0 0 0 0 0 0 0 0 0 0 0 0 0 0 0 0 0 0 0 0 0 0 0 0 0 0 0 0 0 0 0 30 30 49 0 0 0 0 0 0 0 0 0 0 0 0 0 0 0 0 0 0 0 0 0 0 0 0 0 0 0 30 18 30 0 0 0 30 18 30 0 0 0 0 0 0 30 30 49 0 0 0 0 0 0 30 30 49 0 0 0 51 34 56 0 0 0 0 0 0 0 0 0 0 0 0 0 0 0 0 0 0 0 0 0 0 0 0 0 0 0 30 18 30 0 0 0 0 0 0 0 0 0 0 0 0 0 0 0 0 0 0 0 0 0 0 0 0 0 0 0 0 0 0 0 0 0 0 0 0 0 0 0 0 0 0 0 0 0 0 0 0 0 0 0 30 18 30 0 0 0 0 0 0 0 0 0 0 0 0 0 0 0 56 25 34 0 0 0 0 0 0 0 0 0 0 0 0 0 0 0 0 0 0 0 0 0 0 0 0 0 0 0 0 0 0 0 0 0 49 18 18 0 0 0 0 0 0 0 0 0 0 0 0 0 0 0 0 0 0 0 0 0 0 0 0 0 0 0 0 0 0 30 30 49 0 0 0 0 0 0 0 0 0 0 0 0 0 0 0 0 0 0 30 18 30 0 0 0 0 0 0 49 18 18 0 0 0 0 0 0 0 0 0 0 0 0 0 0 0 0 0 0 0 0 0 0 0 0 0 0 0 0 0 0 30 18 30 0 0 0 0 0 0 0 0 0 0 0 0 0 0 0 0 0 0 0 0 0 0 0 0 0 0 0 0 0 0 0 0 0 0 0 0 0 0 0 0 0 0 0 0 0 0 0 0 0 0 0 0 0 0 0 0 0 0 0 0 0 0 0 0 0 0 0 0 0 0 0 0 0 0 0 0 0 0 0 0 0 0 0 0 0 0 0 0 0 0 0 0 0 0 0 0 0 0 0 0 0 0 0 0 0 0 0 0 0 0 0 0 0 0 0 0 0 0 0 0 0 0 0 0 0 0 0 0 0 18 18 49 0 0 0 0 0 0 0 0 0 30 18 30 49 30 30 