P3
64 64
255
0 0 0 34 12 12 34 12 12 0 0 0 0 0 0 0 0 0 34 12 12 0 0 0 0 0 0 34 12 12 28 17 28 0 0 0 0 0 0 0 0 0 0 0 0 0 0 0 0 0 0 0 0 0 0 0 0 0 0 0 0 0 0 21 12 21 0 0 0 0 0 0 0 0 0 0 0 0 0 0 0 0 0 0 0 0 0 0 0 0 0 0 0 0 0 0 0 0 0 0 0 0 0 0 0 0 0 0 0 0 0 0 0 0 0 0 0 12 12 34 0 0 0 0 0 0 21 21 34 0 0 0 12 12 34 0 0 0 0 0 0 0 0 0 0 0 0 0 0 0 0 0 0 0 0 0 0 0 0 0 0 0 0 0 0 12 12 34 0 0 0 0 0 0 0 0 0 12 12 34 0 0 0 21 21 34 0 0 0 21 21 34 0 0 0 0 0 0 0 0 0 0 0 0 0 0 0 0 0 0 0 0 0 0 0 0 0 0 0 0 0 0 34 12 12 0 0 0 0 0 0 0 0 0 0 0 0 0 0 0 34 21 21 0 0 0 0 0 0 0 0 0 0 0 0 0 0 0 0 0 0 0 0 0 0 0 0 0 0 0 0 0 0 0 0 0 0 0 0 0 0 0 0 0 0 0 0 0 0 0 0 12 8 21 0 0 0 0 0 0 0 0 0 0 0 0 0 0 0 0 0 0 0 0 0 0 0 0 0 0 0 0 0 0 0 0 0 0 0 0 0 0 0 0 0 0 0 0 0 0 0 0 0 0 0 0 0 0 0 0 0 0 0 0 0 0 0 0 0 0 0 0 0 0 0 0 21 12 21 21 12 21 0 0 0 0 0 0 21 21 34 0 0 0 39 17 23 0 0 0 21 12 21 0 0 0 0 0 0 0 0 0 34 21 21 12 12 34 0 0 0 39 23 28 0 0 0 34 21 21 0 0 0 39 17 23 21 21 34 0 0 0 0 0 0 0 0 0 21 12 21 34 21 21 0 0 0 0 0 0 0 0 0 0 0 0 0 0 0 0 0 0 12 12 34 0 0 0 0 0 0 34 21 21 0 0 0 34 21 21 0 0 0 0 0 0 0 0 0 0 0 0 0 0 0 0 0 0 0 0 0 0 0 0 12 8 21 0 0 0 12 12 34 21 12 21 0 0 0 0 0 0 12 12 34 0 0 0 0 0 0 34 12 12 0 0 0 0 0 0 0 0 0 0 0 0 0 0 0 0 0 0 0 0 0 0 0 0 0 0 0 0 0 0 0 0 0 0 0 0 21 21 34 0 0 0 21 21 34 0 0 0 0 0 0 0 0 0 34 12 12 0 0 0 0 0 0 0 0 0 0 0 0 0 0 0 0 0 0 0 0 0 0 0 0 0 0 0 0 0 0 0 0 0 0 0 0 0 0 0 21 12 21 0 0 0 46 23 23 21 12 21 0 0 0 0 0 0 0 0 0 34 12 12 21 12 21 0 0 0 21 8 12 0 0 0 0 0 0 0 0 0 21 8 12 0 0 0 21 12 21 0 0 0 0 0 0 0 0 0 28 23 39 0 0 0 34 12 12 0 0 0 12 8 21 23 17 39 39 28 39 12 12 34 0 0 0 23 23 46 0 0 0 0 0 0 0 0 0 0 0 0 0 0 0 0 0 0 21 12 21 0 0 0 0 0 0 21 12 21 0 0 0 0 0 0 21 12 21 0 0 0 0 0 0 0 0 0 34 21 21 46 23 23 0 0 0 0 0 0 0 0 0 34 12 12 0 0 0 0 0 0 0 0 0 34 21 21 0 0 0 34 12 12 0 0 0 0 0 0 0 0 0 0 0 0 0 0 0 21 12 21 0 0 0 12 12 34 0 0 0 0 0 0 39 23 35 0 0 0 0 0 0 12 12 34 0 0 0 0 0 0 0 0 0 0 0 0 0 0 0 0 0 0 0 0 0 0 0 0 0 0 0 0 0 0 0 0 0 0 0 0 0 0 0 0 0 0 0 0 0 0 0 0 0 0 0 0 0 0 0 0 0 0 0 0 0 0 0 0 0 0 0 0 0 0 0 0 21 21 34 34 12 12 0 0 0 0 0 0 0 0 0 0 0 0 0 0 0 30 30 56 12 12 34 34 21 21 0 0 0 0 0 0 0 0 0 0 0 0 0 0 0 0 0 0 0 0 0 0 0 0 0 0 0 0 0 0 0 0 0 0 0 0 0 0 0 0 0 0 21 12 21 34 21 21 0 0 0 0 0 0 34 21 21 0 0 0 0 0 0 39 17 23 0 0 0 0 0 0 0 0 0 0 0 0 0 0 0 0 0 0 0 0 0 0 0 0 0 0 0 0 0 0 12 12 34 47 30 43 0 0 0 0 0 0 0 0 0 0 0 0 0 0 0 0 0 0 0 0 0 0 0 0 0 0 0 0 0 0 0 0 0 0 0 0 0 0 0 0 0 0 21 12 21 21 12 21 0 0 0 0 0 0 21 21 34 0 0 0 0 0 0 0 0 0 0 0 0 0 0 0 0 0 0 21 21 34 34 21 21 0 0 0 28 23 39 0 0 0 0 0 0 21 21 34 21 21 34 0 0 0 0 0 0 34 21 21 0 0 0 0 0 0 39 17 23 34 12 12 21 12 21 0 0 0 34 21 21 0 0 0 34 21 21 34 21 21 0 0 0 0 0 0 39 28 39 0 0 0 21 21 34 46 23 23 0 0 0 0 0 0 0 0 0 0 0 0 0 0 0 0 0 0 21 21 34 0 0 0 0 0 0 0 0 0 0 0 0 0 0 0 0 0 0 46 28 28 0 0 0 34 21 21 0 0 0 28 23 39 0 0 0 0 0 0 0 0 0 21 21 34 0 0 0 0 0 0 0 0 0 0 0 0 21 21 34 0 0 0 12 12 34 21 21 34 23 17 39 0 0 0 0 0 0 21 21 34 0 0 0 0 0 0 0 0 0 0 0 0 0 0 0 0 0 0 0 0 0 21 12 21 0 0 0 0 0 0 0 0 0 0 0 0 0 0 0 21 12 21 34 12 12 34 12 12 0 0 0 0 0 0 0 0 0 0 0 0 0 0 0 34 21 21 34 12 12 34 12 12 0 0 0 0 0 0 0 0 0 34 12 12 0 0 0 0 0 0 0 0 0 0 0 0 0 0 0 0 0 0 0 0 0 28 28 46 34 21 21 0 0 0 0 0 0 0 0 0 34 21 21 0 0 0 21 21 34 39 23 28 0 0 0 0 0 0 0 0 0 0 0 0 0 0 0 0 0 0 35 23 39 21 21 34 21 12 21 28 28 46 23 23 46 0 0 0 21 12 21 0 0 0 21 21 34 34 21 21 12 12 34 17 14 39 0 0 0 0 0 0 0 0 0 21 21 34 23 23 46 0 0 0 0 0 0 0 0 0 0 0 0 0 0 0 0 0 0 21 21 34 0 0 0 0 0 0 0 0 0 0 0 0 21 12 21 21 21 34 0 0 0 34 21 21 34 34 34 0 0 0 0 0 0 0 0 0 0 0 0 0 0 0 0 0 0 0 0 0 0 0 0 34 12 12 0 0 0 0 0 0 0 0 0 0 0 0 0 0 0 34 21 21 0 0 0 28 23 39 21 12 21 46 39 39 0 0 0 0 0 0 0 0 0 0 0 0 0 0 0 0 0 0 0 0 0 0 0 0 21 21 34 0 0 0 0 0 0 34 21 21 0 0 0 0 0 0 0 0 0 39 28 39 0 0 0 0 0 0 21 21 34 0 0 0 0 0 0 30 26 50 21 12 21 21 21 34 0 0 0 21 21 34 21 12 21 0 0 0 0 0 0 0 0 0 21 21 34 0 0 0 21 21 34 21 12 21 0 0 0 0 0 0 0 0 0 21 21 34 0 0 0 0 0 0 0 0 0 39 23 28 34 34 34 0 0 0 0 0 0 0 0 0 43 30 43 0 0 0 21 21 34 0 0 0 0 0 0 0 0 0 0 0 0 21 21 34 34 21 21 34 21 21 0 0 0 21 12 21 21 21 34 21 12 21 34 21 21 0 0 0 0 0 0 0 0 0 34 21 21 34 21 21 0 0 0 21 12 21 0 0 0 21 12 21 0 0 0 0 0 0 0 0 0 28 23 39 0 0 0 0 0 0 0 0 0 0 0 0 35 23 39 0 0 0 0 0 0 0 0 0 0 0 0 0 0 0 0 0 0 0 0 0 0 0 0 21 21 34 0 0 0 0 0 0 0 0 0 12 12 34 0 0 0 0 0 0 0 0 0 34 12 12 0 0 0 0 0 0 0 0 0 34 21 21 0 0 0 0 0 0 0 0 0 34 21 21 0 0 0 34 12 12 0 0 0 0 0 0 34 22 37 0 0 0 34 12 12 21 12 21 0 0 0 0 0 0 0 0 0 0 0 0 0 0 0 21 21 34 0 0 0 21 21 34 0 0 0 0 0 0 34 12 12 34 21 21 0 0 0 39 23 28 39 28 39 34 21 21 0 0 0 0 0 0 0 0 0 0 0 0 0 0 0 34 21 21 0 0 0 34 34 34 0 0 0 21 21 34 0 0 0 21 12 21 0 0 0 0 0 0 21 12 21 0 0 0 21 21 34 0 0 0 21 12 21 0 0 0 12 12 34 21 21 34 21 21 34 0 0 0 0 0 0 0 0 0 0 0 0 0 0 0 0 0 0 21 21 34 0 0 0 0 0 0 0 0 0 12 12 34 0 0 0 0 0 0 0 0 0 0 0 0 0 0 0 39 23 28 0 0 0 39 17 23 0 0 0 46 28 28 0 0 0 0 0 0 39 17 23 0 0 0 0 0 0 0 0 0 0 0 0 0 0 0 0 0 0 21 21 34 0 0 0 0 0 0 0 0 0 28 28 46 0 0 0 46 28 28 0 0 0 0 0 0 0 0 0 0 0 0 0 0 0 28 17 28 0 0 0 0 0 0 0 0 0 21 21 34 0 0 0 12 12 34 0 0 0 34 26 43 21 21 34 39 23 35 21 21 34 34 21 21 0 0 0 0 0 0 21 21 34 21 21 34 21 21 34 0 0 0 0 0 0 0 0 0 0 0 0 21 21 34 21 21 34 0 0 0 0 0 0 0 0 0 34 21 21 0 0 0 0 0 0 0 0 0 0 0 0 21 21 34 0 0 0 12 12 34 0 0 0 21 21 34 0 0 0 0 0 0 0 0 0 0 0 0 21 12 21 34 21 21 34 21 21 34 12 12 34 12 12 0 0 0 0 0 0 0 0 0 0 0 0 34 21 21 21 12 21 0 0 0 34 21 21 0 0 0 0 0 0 34 21 21 21 21 34 46 28 28 0 0 0 0 0 0 34 21 21 21 12 21 21 12 21 0 0 0 0 0 0 0 0 0 0 0 0 0 0 0 0 0 0 21 21 34 0 0 0 0 0 0 0 0 0 0 0 0 34 21 21 0 0 0 0 0 0 21 21 34 21 21 34 0 0 0 21 21 34 12 12 34 43 30 43 0 0 0 0 0 0 12 12 34 0 0 0 0 0 0 21 21 34 0 0 0 21 21 34 21 21 34 0 0 0 0 0 0 0 0 0 21 21 34 0 0 0 0 0 0 0 0 0 0 0 0 21 21 34 0 0 0 0 0 0 0 0 0 21 12 21 34 12 12 39 17 23 0 0 0 34 12 12 0 0 0 0 0 0 0 0 0 0 0 0 39 17 23 0 0 0 0 0 0 0 0 0 0 0 0 0 0 0 0 0 0 0 0 0 50 30 40 0 0 0 0 0 0 0 0 0 34 21 21 0 0 0 21 21 34 34 12 12 0 0 0 34 21 21 0 0 0 21 12 21 0 0 0 28 23 39 34 21 21 23 17 39 0 0 0 0 0 0 0 0 0 0 0 0 43 30 43 0 0 0 21 21 34 0 0 0 0 0 0 34 21 21 0 0 0 0 0 0 0 0 0 28 28 46 0 0 0 0 0 0 21 12 21 0 0 0 23 17 39 21 21 34 0 0 0 21 12 21 0 0 0 0 0 0 0 0 0 0 0 0 0 0 0 0 0 0 0 0 0 0 0 0 0 0 0 0 0 0 34 21 21 0 0 0 0 0 0 0 0 0 34 21 21 34 21 21 34 21 21 34 21 21 34 21 21 0 0 0 39 28 39 21 12 21 0 0 0 21 12 21 34 34 34 34 21 21 0 0 0 0 0 0 21 12 21 0 0 0 28 23 39 0 0 0 0 0 0 0 0 0 0 0 0 0 0 0 34 12 12 12 8 21 0 0 0 0 0 0 21 21 34 0 0 0 0 0 0 0 0 0 0 0 0 21 21 34 34 34 34 34 21 21 0 0 0 0 0 0 34 21 21 0 0 0 39 23 28 28 28 46 0 0 0 0 0 0 0 0 0 0 0 0 23 17 39 0 0 0 0 0 0 0 0 0 0 0 0 21 21 34 0 0 0 21 12 21 40 26 43 0 0 0 34 12 12 0 0 0 21 12 21 34 12 12 0 0 0 0 0 0 0 0 0 46 28 28 46 23 23 0 0 0 0 0 0 21 12 21 21 21 34 0 0 0 46 23 23 0 0 0 0 0 0 0 0 0 21 12 21 0 0 0 0 0 0 34 21 21 0 0 0 0 0 0 0 0 0 0 0 0 0 0 0 0 0 0 0 0 0 21 12 21 0 0 0 0 0 0 21 12 21 0 0 0 0 0 0 28 17 28 21 12 21 0 0 0 12 12 34 21 12 21 0 0 0 0 0 0 0 0 0 0 0 0 43 30 43 0 0 0 0 0 0 28 28 46 0 0 0 0 0 0 0 0 0 0 0 0 0 0 0 0 0 0 12 12 34 0 0 0 0 0 0 0 0 0 0 0 0 0 0 0 0 0 0 21 21 34 39 23 28 0 0 0 0 0 0 0 0 0 0 0 0 34 21 21 0 0 0 0 0 0 34 12 12 34 21 21 0 0 0 21 12 21 34 21 21 46 28 28 0 0 0 0 0 0 46 28 28 0 0 0 0 0 0 0 0 0 0 0 0 34 21 21 21 12 21 0 0 0 0 0 0 39 23 35 21 21 34 0 0 0 0 0 0 34 21 21 34 21 21 0 0 0 39 23 35 0 0 0 21 21 34 0 0 0 28 28 46 0 0 0 0 0 0 21 12 21 0 0 0 46 32 46 0 0 0 0 0 0 0 0 0 21 21 34 39 28 39 0 0 0 28 28 46 12 12 34 21 12 21 12 12 34 21 21 34 0 0 0 0 0 0 0 0 0 0 0 0 0 0 0 0 0 0 0 0 0 0 0 0 21 21 34 21 12 21 0 0 0 0 0 0 0 0 0 0 0 0 0 0 0 39 23 35 0 0 0 21 21 34 0 0 0 0 0 0 0 0 0 0 0 0 0 0 0 0 0 0 21 12 21 0 0 0 21 12 21 0 0 0 39 23 28 39 17 23 34 21 21 0 0 0 39 23 28 21 12 21 0 0 0 0 0 0 21 21 34 0 0 0 0 0 0 0 0 0 21 12 21 34 21 21 0 0 0 0 0 0 35 35 46 34 21 21 0 0 0 0 0 0 0 0 0 21 21 34 21 21 34 0 0 0 0 0 0 0 0 0 12 12 34 0 0 0 0 0 0 0 0 0 12 12 34 0 0 0 12 12 34 0 0 0 21 21 34 0 0 0 0 0 0 21 21 34 0 0 0 21 21 34 0 0 0 21 21 34 21 21 34 0 0 0 12 12 34 0 0 0 0 0 0 0 0 0 21 21 34 0 0 0 0 0 0 0 0 0 0 0 0 21 12 21 0 0 0 39 23 28 0 0 0 34 21 21 0 0 0 0 0 0 0 0 0 0 0 0 34 12 12 0 0 0 0 0 0 0 0 0 0 0 0 0 0 0 34 21 21 0 0 0 0 0 0 0 0 0 0 0 0 21 12 21 0 0 0 0 0 0 43 30 43 0 0 0 34 21 21 34 34 34 21 12 21 23 23 46 12 12 34 34 21 21 0 0 0 17 17 46 28 17 28 0 0 0 21 12 21 0 0 0 0 0 0 0 0 0 21 21 34 21 12 21 0 0 0 0 0 0 0 0 0 0 0 0 28 28 46 12 8 21 21 12 21 35 23 39 0 0 0 21 12 21 0 0 0 0 0 0 0 0 0 0 0 0 0 0 0 0 0 0 0 0 0 39 28 39 21 12 21 0 0 0 0 0 0 0 0 0 0 0 0 0 0 0 0 0 0 0 0 0 34 21 21 0 0 0 34 21 21 34 21 21 0 0 0 21 12 21 0 0 0 0 0 0 0 0 0 0 0 0 34 12 12 39 14 17 0 0 0 21 21 34 0 0 0 39 35 39 21 21 34 0 0 0 0 0 0 0 0 0 0 0 0 34 12 12 0 0 0 0 0 0 0 0 0 21 21 34 34 21 21 0 0 0 0 0 0 0 0 0 21 21 34 21 21 34 0 0 0 0 0 0 0 0 0 0 0 0 23 17 39 0 0 0 0 0 0 0 0 0 21 21 34 0 0 0 21 12 21 0 0 0 0 0 0 0 0 0 0 0 0 0 0 0 0 0 0 0 0 0 0 0 0 0 0 0 0 0 0 0 0 0 21 21 34 0 0 0 0 0 0 0 0 0 0 0 0 34 21 21 0 0 0 0 0 0 34 21 21 0 0 0 0 0 0 0 0 0 0 0 0 0 0 0 0 0 0 0 0 0 63 39 39 0 0 0 0 0 0 34 21 21 0 0 0 39 17 23 0 0 0 0 0 0 0 0 0 39 23 28 0 0 0 0 0 0 0 0 0 21 12 21 0 0 0 35 22 28 21 21 34 0 0 0 0 0 0 0 0 0 0 0 0 0 0 0 0 0 0 0 0 0 0 0 0 34 21 21 0 0 0 0 0 0 0 0 0 0 0 0 0 0 0 21 21 34 12 12 34 21 12 21 0 0 0 0 0 0 30 30 56 12 12 34 21 21 34 21 21 34 23 17 39 30 21 43 0 0 0 0 0 0 0 0 0 0 0 0 21 12 21 0 0 0 0 0 0 28 23 39 21 21 34 0 0 0 0 0 0 0 0 0 46 28 28 34 21 21 21 12 21 34 21 21 34 21 21 0 0 0 46 28 28 0 0 0 0 0 0 0 0 0 0 0 0 0 0 0 0 0 0 21 12 21 46 23 23 0 0 0 0 0 0 0 0 0 39 17 23 0 0 0 39 23 28 0 0 0 0 0 0 0 0 0 21 12 21 0 0 0 34 34 34 0 0 0 0 0 0 34 12 12 0 0 0 21 12 21 46 35 35 0 0 0 21 21 34 0 0 0 28 23 39 12 12 34 21 12 21 21 12 21 0 0 0 0 0 0 30 26 50 0 0 0 28 28 46 0 0 0 0 0 0 0 0 0 21 21 34 0 0 0 39 23 28 30 30 56 21 21 34 0 0 0 21 12 21 0 0 0 21 12 21 0 0 0 0 0 0 0 0 0 34 21 21 0 0 0 0 0 0 0 0 0 0 0 0 0 0 0 0 0 0 0 0 0 34 12 12 0 0 0 0 0 0 0 0 0 34 12 12 0 0 0 0 0 0 0 0 0 0 0 0 21 12 21 0 0 0 0 0 0 0 0 0 21 12 21 21 21 34 34 12 12 0 0 0 0 0 0 0 0 0 0 0 0 34 21 21 34 21 21 0 0 0 21 21 34 28 23 39 39 23 28 12 12 34 21 21 34 0 0 0 51 35 53 21 21 34 0 0 0 0 0 0 0 0 0 0 0 0 0 0 0 0 0 0 0 0 0 30 30 56 0 0 0 0 0 0 0 0 0 23 17 39 0 0 0 21 12 21 23 17 39 21 21 34 0 0 0 21 21 34 0 0 0 0 0 0 21 21 34 0 0 0 0 0 0 35 23 39 12 12 34 0 0 0 0 0 0 0 0 0 0 0 0 0 0 0 0 0 0 21 12 21 0 0 0 0 0 0 0 0 0 21 12 21 0 0 0 0 0 0 0 0 0 0 0 0 50 21 26 0 0 0 34 34 34 34 12 12 0 0 0 0 0 0 21 21 34 0 0 0 0 0 0 0 0 0 0 0 0 0 0 0 34 21 21 0 0 0 0 0 0 0 0 0 0 0 0 0 0 0 21 8 12 0 0 0 0 0 0 21 12 21 0 0 0 0 0 0 0 0 0 34 34 34 0 0 0 21 12 21 0 0 0 0 0 0 21 21 34 35 35 46 0 0 0 23 17 39 0 0 0 21 21 34 0 0 0 0 0 0 21 21 34 0 0 0 28 23 39 17 17 46 28 23 39 0 0 0 21 21 34 0 0 0 0 0 0 0 0 0 0 0 0 0 0 0 0 0 0 0 0 0 0 0 0 0 0 0 0 0 0 0 0 0 0 0 0 21 12 21 0 0 0 0 0 0 34 21 21 21 12 21 0 0 0 34 12 12 0 0 0 21 12 21 34 21 21 0 0 0 43 26 40 0 0 0 0 0 0 0 0 0 34 12 12 0 0 0 21 12 21 34 21 21 0 0 0 0 0 0 21 21 34 21 12 21 21 12 21 0 0 0 17 14 39 0 0 0 21 21 34 0 0 0 0 0 0 0 0 0 0 0 0 34 21 21 0 0 0 0 0 0 28 23 39 21 21 34 0 0 0 0 0 0 0 0 0 0 0 0 0 0 0 0 0 0 0 0 0 39 23 28 0 0 0 0 0 0 0 0 0 12 12 34 0 0 0 0 0 0 21 21 34 12 12 34 0 0 0 21 12 21 0 0 0 21 12 21 21 12 21 0 0 0 0 0 0 0 0 0 0 0 0 0 0 0 34 12 12 34 12 12 0 0 0 0 0 0 34 12 12 0 0 0 0 0 0 46 23 23 0 0 0 21 21 34 0 0 0 0 0 0 0 0 0 34 21 21 0 0 0 34 21 21 0 0 0 34 12 12 0 0 0 0 0 0 21 12 21 0 0 0 0 0 0 34 21 21 0 0 0 21 12 21 0 0 0 0 0 0 21 21 34 0 0 0 21 12 21 0 0 0 0 0 0 0 0 0 28 28 46 21 12 21 0 0 0 0 0 0 0 0 0 21 12 21 21 21 34 0 0 0 21 21 34 21 21 34 0 0 0 43 34 50 0 0 0 0 0 0 21 21 34 21 21 34 28 23 39 0 0 0 12 12 34 0 0 0 0 0 0 21 21 34 0 0 0 0 0 0 0 0 0 0 0 0 0 0 0 0 0 0 0 0 0 0 0 0 0 0 0 0 0 0 34 12 12 0 0 0 28 23 39 34 12 12 34 21 21 39 17 23 0 0 0 0 0 0 0 0 0 0 0 0 34 12 12 0 0 0 0 0 0 0 0 0 0 0 0 0 0 0 0 0 0 39 22 23 0 0 0 0 0 0 0 0 0 0 0 0 0 0 0 0 0 0 39 28 39 0 0 0 0 0 0 0 0 0 0 0 0 0 0 0 0 0 0 0 0 0 12 8 21 21 21 34 0 0 0 0 0 0 21 21 34 0 0 0 30 21 43 0 0 0 23 23 46 0 0 0 0 0 0 0 0 0 0 0 0 28 23 39 0 0 0 0 0 0 0 0 0 0 0 0 0 0 0 0 0 0 21 21 34 21 12 21 0 0 0 0 0 0 0 0 0 0 0 0 0 0 0 21 12 21 0 0 0 0 0 0 46 23 23 0 0 0 0 0 0 34 21 21 21 12 21 34 12 12 28 17 28 34 21 21 21 12 21 0 0 0 0 0 0 39 17 23 21 12 21 0 0 0 0 0 0 0 0 0 21 12 21 0 0 0 0 0 0 34 21 21 0 0 0 21 21 34 34 21 21 0 0 0 0 0 0 0 0 0 0 0 0 0 0 0 34 21 21 0 0 0 0 0 0 0 0 0 0 0 0 34 21 21 12 12 34 0 0 0 0 0 0 34 21 21 21 12 21 0 0 0 0 0 0 21 21 34 0 0 0 21 21 34 0 0 0 0 0 0 0 0 0 0 0 0 0 0 0 21 12 21 23 17 39 0 0 0 21 21 34 0 0 0 21 12 21 0 0 0 39 28 39 0 0 0 0 0 0 0 0 0 0 0 0 0 0 0 34 21 21 0 0 0 28 17 28 0 0 0 34 21 21 0 0 0 0 0 0 34 21 21 34 12 12 0 0 0 0 0 0 39 17 23 0 0 0 34 12 12 0 0 0 34 21 21 0 0 0 50 26 30 0 0 0 46 28 28 0 0 0 0 0 0 21 21 34 21 8 12 21 12 21 0 0 0 0 0 0 0 0 0 0 0 0 0 0 0 0 0 0 34 21 21 0 0 0 0 0 0 21 8 12 0 0 0 0 0 0 0 0 0 21 21 34 0 0 0 0 0 0 21 21 34 12 12 34 0 0 0 0 0 0 26 21 50 23 14 28 21 12 21 0 0 0 21 12 21 0 0 0 21 21 34 0 0 0 28 17 28 0 0 0 0 0 0 0 0 0 21 21 34 0 0 0 0 0 0 0 0 0 0 0 0 34 12 12 34 12 12 21 21 34 0 0 0 21 12 21 0 0 0 0 0 0 0 0 0 0 0 0 0 0 0 39 17 23 0 0 0 0 0 0 28 17 28 0 0 0 0 0 0 0 0 0 0 0 0 0 0 0 0 0 0 34 12 12 34 21 21 21 21 34 0 0 0 34 21 21 0 0 0 21 12 21 0 0 0 40 24 34 0 0 0 0 0 0 21 12 21 0 0 0 0 0 0 21 12 21 23 23 46 0 0 0 0 0 0 0 0 0 21 12 21 0 0 0 0 0 0 21 21 34 12 12 34 21 12 21 34 21 21 21 12 21 0 0 0 28 17 28 0 0 0 0 0 0 28 17 28 0 0 0 12 12 34 0 0 0 0 0 0 0 0 0 0 0 0 0 0 0 0 0 0 0 0 0 21 21 34 0 0 0 0 0 0 46 28 28 0 0 0 0 0 0 0 0 0 34 12 12 0 0 0 34 12 12 34 12 12 39 17 23 34 21 21 0 0 0 39 23 28 0 0 0 34 12 12 0 0 0 0 0 0 0 0 0 0 0 0 0 0 0 34 12 12 0 0 0 39 23 28 0 0 0 0 0 0 0 0 0 0 0 0 0 0 0 0 0 0 0 0 0 0 0 0 0 0 0 21 12 21 0 0 0 0 0 0 0 0 0 21 12 21 0 0 0 28 28 46 39 28 39 0 0 0 12 12 34 0 0 0 0 0 0 21 21 34 0 0 0 23 17 39 21 12 21 0 0 0 0 0 0 0 0 0 0 0 0 0 0 0 0 0 0 0 0 0 0 0 0 0 0 0 0 0 0 0 0 0 0 0 0 0 0 0 0 0 0 0 0 0 0 0 0 0 0 0 0 0 0 21 12 21 0 0 0 0 0 0 50 26 30 34 21 21 0 0 0 34 21 21 34 12 12 28 17 28 0 0 0 0 0 0 34 12 12 0 0 0 0 0 0 0 0 0 21 12 21 21 21 34 34 21 21 0 0 0 34 21 21 0 0 0 21 12 21 34 12 12 0 0 0 0 0 0 0 0 0 0 0 0 0 0 0 0 0 0 0 0 0 0 0 0 0 0 0 12 12 34 0 0 0 34 21 21 0 0 0 0 0 0 12 12 34 21 12 21 0 0 0 21 12 21 0 0 0 0 0 0 0 0 0 34 21 21 0 0 0 0 0 0 12 8 21 21 12 21 0 0 0 0 0 0 0 0 0 0 0 0 21 12 21 0 0 0 12 12 34 0 0 0 21 12 21 0 0 0 0 0 0 0 0 0 0 0 0 0 0 0 34 21 21 34 21 21 0 0 0 0 0 0 0 0 0 21 12 21 34 12 12 0 0 0 0 0 0 21 12 21 21 12 21 0 0 0 34 12 12 46 23 23 21 12 21 0 0 0 0 0 0 0 0 0 0 0 0 0 0 0 0 0 0 34 12 12 0 0 0 0 0 0 0 0 0 34 21 21 0 0 0 0 0 0 0 0 0 0 0 0 0 0 0 21 12 21 0 0 0 0 0 0 0 0 0 34 21 21 0 0 0 21 21 34 21 21 34 21 21 34 0 0 0 0 0 0 21 21 34 12 12 34 0 0 0 21 12 21 26 26 56 0 0 0 0 0 0 0 0 0 0 0 0 12 12 34 0 0 0 32 28 58 0 0 0 21 21 34 0 0 0 0 0 0 0 0 0 0 0 0 0 0 0 21 21 34 34 21 21 34 21 21 0 0 0 0 0 0 34 21 21 21 12 21 0 0 0 21 12 21 0 0 0 0 0 0 0 0 0 34 21 34 0 0 0 0 0 0 0 0 0 39 23 28 34 21 21 28 23 39 0 0 0 0 0 0 34 12 12 21 12 21 0 0 0 0 0 0 0 0 0 50 26 30 0 0 0 34 21 21 0 0 0 0 0 0 0 0 0 34 34 34 0 0 0 23 17 39 34 34 34 0 0 0 12 12 34 0 0 0 0 0 0 0 0 0 34 21 21 28 17 28 23 17 39 28 23 39 21 12 21 0 0 0 0 0 0 23 22 39 0 0 0 0 0 0 0 0 0 21 12 21 0 0 0 21 12 21 0 0 0 12 12 34 0 0 0 0 0 0 21 21 34 12 12 34 0 0 0 0 0 0 39 39 46 0 0 0 0 0 0 0 0 0 34 12 12 0 0 0 0 0 0 21 21 34 21 12 21 0 0 0 0 0 0 0 0 0 0 0 0 21 12 21 0 0 0 0 0 0 39 23 28 0 0 0 0 0 0 39 23 28 39 23 28 0 0 0 0 0 0 0 0 0 0 0 0 0 0 0 39 23 28 34 21 21 34 12 12 0 0 0 0 0 0 28 23 39 0 0 0 21 12 21 0 0 0 21 12 21 0 0 0 34 12 12 0 0 0 0 0 0 0 0 0 12 12 34 0 0 0 0 0 0 0 0 0 21 21 34 0 0 0 21 12 21 0 0 0 12 12 34 28 28 46 0 0 0 0 0 0 0 0 0 21 21 34 12 12 34 12 12 34 0 0 0 0 0 0 0 0 0 21 12 21 0 0 0 0 0 0 0 0 0 0 0 0 0 0 0 0 0 0 0 0 0 0 0 0 0 0 0 0 0 0 0 0 0 0 0 0 21 12 21 0 0 0 46 17 17 39 17 23 0 0 0 56 26 26 0 0 0 0 0 0 0 0 0 0 0 0 0 0 0 21 12 21 34 21 21 34 12 12 0 0 0 21 21 34 0 0 0 34 21 21 0 0 0 0 0 0 0 0 0 0 0 0 0 0 0 21 21 34 21 21 34 0 0 0 0 0 0 0 0 0 21 21 34 0 0 0 21 21 34 21 21 34 0 0 0 0 0 0 34 21 21 0 0 0 0 0 0 0 0 0 21 21 34 0 0 0 0 0 0 12 12 34 21 12 21 12 12 34 0 0 0 0 0 0 12 12 34 0 0 0 0 0 0 0 0 0 0 0 0 21 21 34 21 21 34 34 21 21 21 21 34 21 21 34 0 0 0 0 0 0 0 0 0 0 0 0 0 0 0 0 0 0 0 0 0 0 0 0 21 12 21 0 0 0 0 0 0 0 0 0 0 0 0 39 23 35 21 12 21 0 0 0 0 0 0 0 0 0 0 0 0 0 0 0 0 0 0 0 0 0 0 0 0 0 0 0 0 0 0 0 0 0 0 0 0 0 0 0 39 28 39 0 0 0 12 12 34 34 21 21 21 21 34 23 23 46 21 21 34 0 0 0 0 0 0 28 23 39 34 34 56 0 0 0 21 12 21 39 28 39 0 0 0 0 0 0 0 0 0 21 12 21 0 0 0 0 0 0 21 12 21 12 12 34 0 0 0 0 0 0 21 21 34 12 12 34 0 0 0 0 0 0 0 0 0 0 0 0 21 12 21 0 0 0 39 28 39 28 23 39 0 0 0 0 0 0 0 0 0 0 0 0 0 0 0 21 12 21 0 0 0 0 0 0 0 0 0 39 17 23 0 0 0 34 12 12 46 23 23 0 0 0 0 0 0 21 12 21 34 21 21 34 21 21 0 0 0 46 39 39 0 0 0 0 0 0 28 17 28 0 0 0 34 12 12 0 0 0 21 8 12 0 0 0 21 12 21 21 12 21 39 23 35 34 21 21 0 0 0 0 0 0 0 0 0 21 21 34 21 21 34 0 0 0 28 28 46 0 0 0 21 21 34 0 0 0 0 0 0 21 21 34 0 0 0 21 21 34 21 12 21 0 0 0 17 17 46 23 23 46 21 12 21 21 12 21 0 0 0 28 17 28 12 12 34 21 21 34 21 12 21 0 0 0 0 0 0 0 0 0 0 0 0 28 28 46 0 0 0 0 0 0 21 12 21 0 0 0 0 0 0 0 0 0 0 0 0 0 0 0 0 0 0 0 0 0 0 0 0 0 0 0 0 0 0 21 12 21 34 21 21 21 12 21 0 0 0 46 23 23 34 21 21 46 28 28 28 23 39 0 0 0 39 39 46 21 12 21 0 0 0 0 0 0 21 12 21 0 0 0 0 0 0 0 0 0 0 0 0 0 0 0 0 0 0 0 0 0 0 0 0 0 0 0 21 21 34 21 21 34 0 0 0 0 0 0 0 0 0 0 0 0 0 0 0 0 0 0 21 21 34 0 0 0 39 28 39 21 21 34 0 0 0 21 12 21 39 23 28 28 28 46 0 0 0 21 12 21 21 21 34 21 12 21 0 0 0 34 34 34 0 0 0 0 0 0 0 0 0 0 0 0 0 0 0 0 0 0 0 0 0 0 0 0 0 0 0 0 0 0 0 0 0 0 0 0 34 21 21 21 12 21 21 12 21 0 0 0 34 21 21 0 0 0 0 0 0 21 8 12 0 0 0 34 21 21 21 12 21 0 0 0 0 0 0 0 0 0 34 21 21 0 0 0 0 0 0 21 12 21 28 17 28 21 12 21 0 0 0 34 21 21 39 28 39 39 17 23 0 0 0 0 0 0 21 12 21 34 21 21 35 35 46 21 21 34 0 0 0 0 0 0 21 21 34 0 0 0 21 21 34 0 0 0 0 0 0 21 21 34 39 28 39 34 21 21 0 0 0 0 0 0 0 0 0 21 12 21 21 12 21 21 21 34 0 0 0 21 21 56 0 0 0 0 0 0 0 0 0 12 12 34 0 0 0 0 0 0 0 0 0 0 0 0 0 0 0 34 21 21 0 0 0 21 12 21 0 0 0 0 0 0 0 0 0 0 0 0 0 0 0 0 0 0 0 0 0 0 0 0 0 0 0 34 21 21 0 0 0 0 0 0 34 12 12 0 0 0 0 0 0 0 0 0 28 23 39 0 0 0 34 21 21 21 8 12 0 0 0 34 21 21 0 0 0 0 0 0 0 0 0 0 0 0 0 0 0 34 12 12 40 26 43 0 0 0 0 0 0 21 12 21 34 21 21 0 0 0 0 0 0 0 0 0 43 30 43 21 12 21 0 0 0 0 0 0 0 0 0 0 0 0 21 21 34 0 0 0 0 0 0 0 0 0 21 12 21 21 21 34 28 17 28 0 0 0 0 0 0 0 0 0 0 0 0 17 17 46 0 0 0 0 0 0 34 21 21 0 0 0 0 0 0 21 21 34 0 0 0 0 0 0 0 0 0 0 0 0 0 0 0 0 0 0 0 0 0 0 0 0 0 0 0 0 0 0 0 0 0 0 0 0 0 0 0 0 0 0 0 0 0 21 12 21 34 21 21 0 0 0 0 0 0 0 0 0 0 0 0 0 0 0 0 0 0 0 0 0 21 12 21 21 12 21 21 12 21 21 12 21 34 12 12 0 0 0 0 0 0 21 12 21 21 12 21 34 21 21 34 12 12 34 21 21 21 12 21 21 12 21 34 21 21 21 21 34 0 0 0 0 0 0 0 0 0 0 0 0 0 0 0 21 12 21 21 21 34 0 0 0 28 23 39 0 0 0 35 22 28 0 0 0 0 0 0 0 0 0 23 23 46 35 23 39 21 12 21 0 0 0 0 0 0 0 0 0 0 0 0 12 12 34 21 12 21 0 0 0 0 0 0 21 21 34 0 0 0 12 12 34 0 0 0 0 0 0 0 0 0 0 0 0 0 0 0 0 0 0 21 12 21 0 0 0 0 0 0 0 0 0 46 23 23 34 12 12 21 12 21 21 12 21 34 12 12 46 28 28 0 0 0 0 0 0 0 0 0 0 0 0 34 21 21 39 22 23 21 12 21 0 0 0 0 0 0 0 0 0 34 12 12 0 0 0 0 0 0 0 0 0 0 0 0 34 21 21 39 23 28 0 0 0 0 0 0 28 23 39 0 0 0 0 0 0 0 0 0 21 21 34 0 0 0 12 12 34 0 0 0 28 28 46 21 12 21 0 0 0 39 39 46 34 21 21 0 0 0 34 21 21 0 0 0 12 12 34 12 12 34 21 21 34 21 12 21 0 0 0 0 0 0 0 0 0 0 0 0 21 12 21 12 12 34 0 0 0 21 21 34 0 0 0 0 0 0 0 0 0 0 0 0 0 0 0 34 21 21 0 0 0 0 0 0 34 12 12 21 21 34 21 12 21 46 28 28 34 12 12 0 0 0 34 21 21 34 21 21 28 17 28 0 0 0 21 21 34 0 0 0 0 0 0 0 0 0 34 21 21 0 0 0 0 0 0 21 21 34 0 0 0 34 21 21 34 21 21 0 0 0 21 8 12 21 21 34 0 0 0 0 0 0 0 0 0 0 0 0 0 0 0 0 0 0 0 0 0 0 0 0 0 0 0 0 0 0 12 12 34 0 0 0 0 0 0 0 0 0 0 0 0 23 17 39 12 12 34 28 23 58 0 0 0 21 21 34 34 21 21 0 0 0 21 12 21 0 0 0 34 21 21 28 17 28 0 0 0 0 0 0 0 0 0 43 30 43 0 0 0 0 0 0 0 0 0 21 21 34 21 21 34 0 0 0 0 0 0 0 0 0 0 0 0 21 12 21 0 0 0 34 12 12 21 12 21 0 0 0 0 0 0 0 0 0 0 0 0 0 0 0 34 21 21 0 0 0 34 12 12 0 0 0 0 0 0 0 0 0 34 21 21 34 21 21 0 0 0 34 21 21 0 0 0 0 0 0 21 12 21 0 0 0 21 21 34 0 0 0 28 23 39 39 22 23 0 0 0 21 21 34 0 0 0 0 0 0 0 0 0 21 12 21 0 0 0 34 21 21 21 12 21 21 21 34 0 0 0 0 0 0 0 0 0 21 12 21 0 0 0 0 0 0 0 0 0 12 12 34 39 23 28 0 0 0 0 0 0 0 0 0 12 12 34 21 21 34 0 0 0 0 0 0 0 0 0 21 21 34 0 0 0 0 0 0 12 12 34 0 0 0 0 0 0 0 0 0 0 0 0 0 0 0 0 0 0 0 0 0 0 0 0 0 0 0 21 8 12 0 0 0 0 0 0 0 0 0 0 0 0 0 0 0 0 0 0 0 0 0 39 17 23 28 23 39 0 0 0 0 0 0 0 0 0 34 21 21 34 26 43 39 23 28 0 0 0 0 0 0 21 12 21 0 0 0 28 28 46 0 0 0 0 0 0 0 0 0 28 23 39 21 12 21 0 0 0 0 0 0 0 0 0 0 0 0 0 0 0 34 21 21 0 0 0 12 12 34 0 0 0 21 12 21 0 0 0 0 0 0 0 0 0 0 0 0 0 0 0 0 0 0 17 17 46 21 21 34 0 0 0 0 0 0 0 0 0 21 21 34 0 0 0 0 0 0 21 21 34 28 28 46 39 28 39 0 0 0 21 21 34 0 0 0 0 0 0 0 0 0 0 0 0 0 0 0 21 12 21 0 0 0 0 0 0 0 0 0 0 0 0 39 17 23 46 23 23 34 12 12 0 0 0 34 21 21 34 21 21 34 12 12 0 0 0 0 0 0 21 12 21 39 23 28 21 21 34 0 0 0 0 0 0 46 28 28 21 12 21 0 0 0 0 0 0 0 0 0 34 12 12 0 0 0 34 21 21 21 21 34 0 0 0 0 0 0 0 0 0 0 0 0 21 21 34 0 0 0 0 0 0 0 0 0 39 23 28 0 0 0 0 0 0 0 0 0 0 0 0 21 21 34 0 0 0 0 0 0 34 21 21 21 12 21 0 0 0 0 0 0 0 0 0 0 0 0 23 23 46 21 21 34 0 0 0 0 0 0 35 23 39 0 0 0 0 0 0 0 0 0 0 0 0 0 0 0 0 0 0 21 21 34 0 0 0 0 0 0 34 21 21 0 0 0 21 21 34 21 12 21 56 34 34 0 0 0 21 12 21 0 0 0 0 0 0 0 0 0 0 0 0 28 17 28 0 0 0 21 12 21 21 21 34 0 0 0 34 21 21 39 22 23 34 21 21 50 30 34 0 0 0 0 0 0 34 21 21 0 0 0 0 0 0 21 12 21 21 21 34 0 0 0 0 0 0 34 21 21 35 23 39 0 0 0 12 12 34 0 0 0 46 28 28 21 21 34 28 23 39 0 0 0 21 21 34 0 0 0 21 12 21 28 23 39 34 21 21 28 28 46 0 0 0 21 21 34 21 21 34 0 0 0 0 0 0 0 0 0 28 17 28 0 0 0 12 12 34 0 0 0 35 22 28 21 21 34 0 0 0 0 0 0 0 0 0 21 21 34 21 21 34 34 21 21 0 0 0 0 0 0 0 0 0 0 0 0 0 0 0 0 0 0 0 0 0 0 0 0 0 0 0 0 0 0 0 0 0 0 0 0 0 0 0 0 0 0 0 0 0 0 0 0 0 0 0 21 12 21 28 14 23 34 21 21 34 21 21 21 21 34 34 21 21 34 12 12 0 0 0 34 21 21 39 39 46 34 34 34 0 0 0 50 43 50 0 0 0 53 32 44 0 0 0 0 0 0 21 12 21 21 21 34 0 0 0 0 0 0 12 12 34 21 21 34 0 0 0 34 21 21 21 12 21 28 23 39 0 0 0 21 12 21 28 28 46 21 21 34 21 21 34 12 12 34 12 12 34 0 0 0 0 0 0 0 0 0 0 0 0 21 12 21 0 0 0 12 12 34 0 0 0 0 0 0 0 0 0 0 0 0 0 0 0 0 0 0 21 21 34 0 0 0 0 0 0 0 0 0 0 0 0 0 0 0 39 35 39 0 0 0 0 0 0 34 21 21 34 12 12 0 0 0 0 0 0 0 0 0 21 12 21 0 0 0 34 26 43 0 0 0 0 0 0 0 0 0 34 21 21 0 0 0 21 21 34 34 21 21 34 21 21 46 28 28 21 12 21 34 21 21 34 21 21 0 0 0 50 43 50 21 21 34 34 21 21 21 21 34 0 0 0 34 21 21 0 0 0 0 0 0 0 0 0 23 17 39 0 0 0 21 21 34 0 0 0 17 17 46 0 0 0 0 0 0 0 0 0 12 12 34 23 17 39 21 21 34 0 0 0 0 0 0 0 0 0 12 12 34 12 12 34 0 0 0 0 0 0 39 35 39 21 21 34 12 12 34 0 0 0 43 21 30 21 21 34 0 0 0 0 0 0 21 12 21 0 0 0 0 0 0 0 0 0 21 12 21 0 0 0 21 12 21 0 0 0 0 0 0 0 0 0 0 0 0 39 17 23 39 23 28 0 0 0 46 28 28 0 0 0 0 0 0 0 0 0 43 34 50 34 21 21 0 0 0 0 0 0 0 0 0 0 0 0 34 12 12 34 21 21 21 12 21 0 0 0 0 0 0 0 0 0 0 0 0 0 0 0 34 21 21 0 0 0 12 12 34 28 28 46 0 0 0 21 12 21 0 0 0 21 12 21 12 12 34 0 0 0 0 0 0 21 21 34 0 0 0 0 0 0 39 28 39 0 0 0 0 0 0 21 12 21 0 0 0 0 0 0 21 21 34 0 0 0 12 12 34 0 0 0 12 12 34 23 17 39 0 0 0 12 12 34 0 0 0 12 8 21 21 21 34 0 0 0 12 12 34 34 21 21 0 0 0 21 12 21 34 12 12 34 12 12 0 0 0 34 21 21 0 0 0 34 12 12 0 0 0 0 0 0 0 0 0 0 0 0 0 0 0 0 0 0 39 34 35 0 0 0 0 0 0 21 12 21 0 0 0 0 0 0 0 0 0 21 12 21 0 0 0 21 12 21 0 0 0 0 0 0 0 0 0 0 0 0 34 21 21 0 0 0 34 21 21 0 0 0 21 21 34 21 21 34 34 21 21 21 21 34 0 0 0 21 21 34 21 12 21 0 0 0 0 0 0 0 0 0 0 0 0 21 21 34 39 28 39 0 0 0 21 21 34 21 21 34 0 0 0 0 0 0 28 23 39 34 21 21 0 0 0 0 0 0 0 0 0 0 0 0 0 0 0 0 0 0 0 0 0 28 28 46 0 0 0 0 0 0 34 21 21 43 37 43 28 17 28 34 21 21 0 0 0 0 0 0 0 0 0 0 0 0 34 21 21 0 0 0 0 0 0 0 0 0 39 23 28 0 0 0 0 0 0 0 0 0 39 28 39 21 21 34 21 21 34 34 21 21 0 0 0 0 0 0 0 0 0 0 0 0 0 0 0 21 12 21 0 0 0 28 23 39 0 0 0 0 0 0 0 0 0 46 28 28 39 28 39 0 0 0 0 0 0 0 0 0 21 21 34 12 12 34 0 0 0 0 0 0 0 0 0 12 12 34 28 28 46 0 0 0 0 0 0 0 0 0 0 0 0 23 23 46 34 21 21 0 0 0 12 12 34 0 0 0 21 21 34 23 23 46 0 0 0 0 0 0 0 0 0 21 21 34 0 0 0 0 0 0 0 0 0 0 0 0 0 0 0 21 21 34 0 0 0 0 0 0 0 0 0 0 0 0 34 12 12 0 0 0 0 0 0 21 21 34 34 34 34 0 0 0 0 0 0 0 0 0 0 0 0 21 12 21 0 0 0 0 0 0 0 0 0 0 0 0 34 12 12 34 21 21 0 0 0 34 21 21 0 0 0 0 0 0 0 0 0 0 0 0 34 26 43 34 21 21 0 0 0 50 30 34 0 0 0 0 0 0 0 0 0 0 0 0 0 0 0 21 12 21 12 12 34 0 0 0 0 0 0 12 12 34 28 28 46 0 0 0 34 21 21 21 21 34 21 12 21 21 12 21 0 0 0 0 0 0 12 12 34 28 23 39 39 23 35 0 0 0 21 8 12 34 12 12 0 0 0 21 12 21 0 0 0 12 12 34 0 0 0 21 21 34 0 0 0 0 0 0 0 0 0 0 0 0 0 0 0 46 28 28 21 12 21 0 0 0 0 0 0 0 0 0 34 21 21 21 12 21 0 0 0 28 17 28 0 0 0 34 12 12 0 0 0 0 0 0 34 21 21 0 0 0 0 0 0 46 28 28 0 0 0 34 21 21 0 0 0 21 12 21 34 21 21 0 0 0 0 0 0 0 0 0 0 0 0 0 0 0 50 34 43 0 0 0 0 0 0 21 21 34 21 21 34 0 0 0 0 0 0 0 0 0 34 21 21 0 0 0 0 0 0 0 0 0 21 21 34 21 21 34 0 0 0 0 0 0 0 0 0 0 0 0 28 28 46 0 0 0 23 23 46 0 0 0 21 12 21 0 0 0 0 0 0 39 28 39 28 28 46 0 0 0 0 0 0 0 0 0 0 0 0 0 0 0 0 0 0 0 0 0 0 0 0 0 0 0 0 0 0 0 0 0 21 21 34 34 12 12 0 0 0 0 0 0 0 0 0 0 0 0 34 21 21 0 0 0 0 0 0 0 0 0 34 12 12 0 0 0 0 0 0 34 21 21 0 0 0 21 21 34 21 12 21 0 0 0 0 0 0 0 0 0 0 0 0 0 0 0 0 0 0 0 0 0 0 0 0 0 0 0 0 0 0 0 0 0 34 21 21 0 0 0 0 0 0 0 0 0 34 21 21 0 0 0 28 28 46 34 21 21 43 30 43 21 21 34 0 0 0 34 21 21 21 21 34 0 0 0 0 0 0 12 8 21 0 0 0 21 12 21 28 28 46 0 0 0 0 0 0 0 0 0 0 0 0 34 34 34 0 0 0 21 12 21 0 0 0 0 0 0 21 21 34 21 12 21 0 0 0 21 21 34 0 0 0 0 0 0 21 12 21 0 0 0 0 0 0 34 21 21 0 0 0 0 0 0 0 0 0 0 0 0 0 0 0 34 21 21 0 0 0 34 21 21 0 0 0 12 12 34 0 0 0 0 0 0 0 0 0 0 0 0 21 21 34 0 0 0 0 0 0 34 12 12 21 12 21 0 0 0 0 0 0 0 0 0 0 0 0 0 0 0 0 0 0 34 21 21 0 0 0 0 0 0 0 0 0 0 0 0 21 21 34 21 21 34 0 0 0 0 0 0 0 0 0 0 0 0 0 0 0 21 21 34 0 0 0 21 21 34 0 0 0 12 12 34 0 0 0 12 12 34 0 0 0 0 0 0 0 0 0 12 12 34 0 0 0 0 0 0 28 23 39 21 21 34 39 28 39 0 0 0 0 0 0 0 0 0 0 0 0 21 12 21 21 21 34 0 0 0 0 0 0 34 12 12 39 28 39 0 0 0 0 0 0 21 12 21 0 0 0 34 21 21 34 12 12 0 0 0 0 0 0 21 12 21 21 12 21 0 0 0 0 0 0 0 0 0 0 0 0 0 0 0 0 0 0 0 0 0 0 0 0 34 12 12 0 0 0 0 0 0 21 12 21 0 0 0 0 0 0 0 0 0 0 0 0 0 0 0 12 12 34 21 21 34 0 0 0 0 0 0 0 0 0 0 0 0 21 12 21 21 21 34 21 21 34 0 0 0 23 17 39 28 17 28 21 21 34 0 0 0 0 0 0 12 12 34 0 0 0 39 17 23 0 0 0 0 0 0 0 0 0 0 0 0 0 0 0 21 21 34 12 12 34 34 12 12 0 0 0 0 0 0 0 0 0 12 8 21 0 0 0 21 12 21 50 47 50 0 0 0 34 12 12 0 0 0 0 0 0 34 12 12 34 21 21 34 12 12 0 0 0 0 0 0 0 0 0 0 0 0 0 0 0 46 23 23 0 0 0 0 0 0 21 21 34 21 12 21 0 0 0 0 0 0 21 12 21 34 21 21 0 0 0 28 23 39 0 0 0 0 0 0 0 0 0 0 0 0 0 0 0 0 0 0 0 0 0 0 0 0 21 21 34 0 0 0 0 0 0 0 0 0 0 0 0 0 0 0 0 0 0 21 12 21 21 21 34 0 0 0 0 0 0 21 21 34 23 17 39 23 14 28 0 0 0 0 0 0 0 0 0 0 0 0 0 0 0 21 12 21 21 21 34 0 0 0 0 0 0 0 0 0 0 0 0 0 0 0 21 21 34 21 21 34 0 0 0 21 21 34 21 21 34 28 23 39 21 21 34 21 21 34 34 21 21 0 0 0 39 23 28 0 0 0 21 12 21 39 23 35 0 0 0 39 28 39 0 0 0 35 17 35 21 12 21 34 21 21 0 0 0 21 12 21 28 17 28 0 0 0 0 0 0 0 0 0 0 0 0 34 21 21 0 0 0 21 21 34 21 12 21 0 0 0 0 0 0 34 12 12 34 21 21 0 0 0 0 0 0 0 0 0 0 0 0 0 0 0 0 0 0 0 0 0 0 0 0 0 0 0 0 0 0 0 0 0 21 12 21 21 21 34 0 0 0 0 0 0 0 0 0 0 0 0 0 0 0 34 21 21 12 12 34 0 0 0 0 0 0 0 0 0 0 0 0 0 0 0 12 8 21 39 23 35 0 0 0 21 12 21 0 0 0 21 21 34 0 0 0 34 30 50 0 0 0 12 12 34 21 21 34 0 0 0 0 0 0 34 21 21 34 12 12 0 0 0 0 0 0 21 12 21 0 0 0 34 21 21 34 21 21 0 0 0 0 0 0 0 0 0 0 0 0 0 0 0 0 0 0 0 0 0 0 0 0 34 12 12 21 12 21 34 21 21 21 12 21 46 28 28 0 0 0 0 0 0 34 12 12 0 0 0 0 0 0 0 0 0 0 0 0 0 0 0 0 0 0 0 0 0 0 0 0 0 0 0 0 0 0 0 0 0 0 0 0 0 0 0 0 0 0 0 0 0 0 0 0 0 0 0 0 0 0 21 21 34 0 0 0 0 0 0 0 0 0 21 21 34 0 0 0 0 0 0 0 0 0 0 0 0 39 28 39 21 21 34 0 0 0 0 0 0 0 0 0 12 12 34 21 21 34 21 21 34 28 28 46 0 0 0 0 0 0 21 21 34 0 0 0 21 21 34 46 23 23 0 0 0 0 0 0 0 0 0 0 0 0 34 21 21 12 8 21 0 0 0 50 40 43 0 0 0 0 0 0 0 0 0 0 0 0 0 0 0 0 0 0 21 21 34 0 0 0 21 12 21 34 21 21 34 12 12 0 0 0 0 0 0 0 0 0 21 12 21 21 12 21 0 0 0 0 0 0 21 12 21 0 0 0 12 12 34 0 0 0 12 12 34 21 21 34 0 0 0 0 0 0 0 0 0 0 0 0 0 0 0 0 0 0 0 0 0 21 21 34 21 21 34 0 0 0 21 21 34 0 0 0 46 39 39 0 0 0 0 0 0 21 12 21 0 0 0 0 0 0 21 12 21 21 12 21 21 21 34 21 12 21 0 0 0 0 0 0 0 0 0 39 28 39 28 17 28 0 0 0 0 0 0 0 0 0 34 12 12 0 0 0 0 0 0 0 0 0 0 0 0 0 0 0 34 21 21 34 21 21 0 0 0 46 28 28 0 0 0 34 21 21 21 12 21 40 30 50 34 21 21 0 0 0 21 12 21 0 0 0 0 0 0 0 0 0 34 21 21 0 0 0 0 0 0 39 23 28 0 0 0 0 0 0 0 0 0 0 0 0 0 0 0 0 0 0 0 0 0 0 0 0 0 0 0 0 0 0 0 0 0 28 23 39 0 0 0 21 12 21 0 0 0 0 0 0 12 12 34 21 12 21 21 12 21 0 0 0 12 12 34 0 0 0 0 0 0 21 12 21 34 12 12 21 12 21 21 21 34 0 0 0 34 12 12 0 0 0 0 0 0 0 0 0 12 12 34 21 12 21 0 0 0 21 21 34 0 0 0 21 21 34 0 0 0 34 21 21 46 17 17 0 0 0 34 21 21 0 0 0 0 0 0 0 0 0 34 12 12 0 0 0 0 0 0 0 0 0 0 0 0 0 0 0 0 0 0 34 12 12 0 0 0 0 0 0 0 0 0 0 0 0 0 0 0 0 0 0 0 0 0 0 0 0 0 0 0 21 12 21 0 0 0 0 0 0 0 0 0 0 0 0 12 12 34 0 0 0 0 0 0 0 0 0 0 0 0 0 0 0 0 0 0 0 0 0 0 0 0 34 12 12 34 12 12 0 0 0 0 0 0 34 21 21 0 0 0 0 0 0 0 0 0 0 0 0 21 12 21 0 0 0 0 0 0 0 0 0 21 12 21 0 0 0 0 0 0 0 0 0 34 21 21 0 0 0 0 0 0 0 0 0 0 0 0 12 12 34 0 0 0 0 0 0 34 12 12 