P3
64 64
255
69 59 64 70 58 60 71 62 66 72 63 66 73 63 66 74 64 69 76 67 70 70 61 63 79 69 71 74 66 68 77 69 72 71 63 69 77 69 73 77 68 72 80 72 73 76 71 74 75 69 73 80 76 77 70 65 69 71 63 65 68 66 69 68 63 67 69 66 71 77 72 74 68 62 68 70 66 74 67 61 66 66 63 71 66 63 68 64 59 67 67 63 66 68 67 72 69 67 75 61 59 67 64 61 72 63 59 70 65 63 77 68 65 75 60 58 67 65 63 70 54 50 60 68 66 77 60 59 73 72 70 82 67 66 78 69 67 75 57 57 74 72 69 81 68 65 81 68 67 83 53 51 71 65 62 77 68 67 83 72 70 85 73 71 91 64 62 82 62 60 80 60 58 77 60 60 79 66 64 79 67 66 82 65 64 81 56 54 79 47 47 75 51 46 50 66 56 60 73 66 68 72 62 64 63 53 57 76 67 71 78 69 72 75 66 68 63 54 57 81 75 79 79 72 73 66 60 63 78 72 74 84 75 77 68 63 67 75 71 74 79 74 77 80 74 76 77 73 74 77 72 74 75 69 72 75 70 73 75 72 76 73 69 73 75 70 74 84 78 82 71 69 74 75 72 78 76 73 77 78 74 78 70 66 73 80 77 81 74 72 77 75 72 78 70 68 73 63 61 68 70 67 74 76 75 84 67 66 76 75 74 86 80 78 89 74 71 82 56 53 67 69 68 77 74 72 85 84 82 94 71 71 87 65 64 79 78 77 90 72 71 82 66 65 80 77 76 89 66 65 82 73 72 83 76 75 94 60 58 73 78 76 90 74 73 91 69 67 83 73 71 90 61 60 76 59 59 74 54 53 85 44 43 80 40 40 40 83 79 81 88 81 83 80 73 76 88 82 84 86 82 84 91 85 88 86 81 83 84 77 80 87 83 87 86 80 83 92 87 88 97 93 96 94 90 91 83 78 80 90 86 91 91 86 91 86 83 84 90 86 90 99 96 98 87 81 84 82 77 82 92 88 90 98 95 99 88 84 89 86 85 89 90 86 92 95 92 96 90 87 91 97 95 99 87 85 91 90 88 93 93 89 94 86 86 92 96 96 99 89 88 93 80 77 85 93 91 96 87 86 95 93 91 96 88 86 92 87 86 96 88 87 93 89 88 96 86 85 92 86 86 92 92 91 101 93 92 99 86 84 93 86 84 96 89 88 97 87 85 94 92 91 99 84 83 94 82 82 91 83 82 94 89 89 94 78 78 93 80 79 90 70 69 83 78 77 87 82 81 92 56 55 85 51 50 93 58 55 56 84 76 79 82 77 79 85 78 81 91 86 87 89 86 87 91 87 91 91 85 88 79 72 74 90 84 88 95 89 92 105 101 104 93 87 89 96 91 94 96 92 95 103 99 102 100 95 97 99 94 97 94 90 92 101 98 102 97 94 96 95 92 95 96 94 99 93 89 94 99 96 98 95 93 97 99 97 100 98 97 101 89 87 93 97 94 99 94 91 97 101 100 106 90 88 94 89 87 93 84 82 86 88 87 93 96 95 100 91 88 97 91 90 97 99 97 106 98 96 106 84 84 96 93 92 98 79 77 85 87 86 91 85 84 93 91 90 101 85 83 90 89 88 98 82 81 92 89 88 99 77 76 85 80 78 87 91 89 101 86 84 97 86 84 94 82 81 96 76 76 91 83 82 92 82 81 93 82 81 95 95 94 106 57 57 91 49 48 91 39 34 34 79 71 73 91 82 84 89 80 82 88 80 82 87 78 80 99 91 95 99 95 97 97 90 91 102 96 98 95 92 96 94 89 91 93 88 91 100 96 99 100 94 97 92 86 88 93 89 92 105 100 104 104 99 102 93 87 90 94 91 93 88 86 89 94 92 95 93 91 95 97 94 97 97 94 97 90 87 91 97 93 97 91 88 91 102 100 103 90 86 92 88 86 89 87 84 90 86 83 87 89 87 92 95 94 101 93 92 100 80 79 86 86 84 92 87 87 93 94 93 100 92 91 99 91 90 100 97 96 107 94 92 99 90 89 99 86 85 96 93 92 103 101 99 110 81 79 91 89 88 97 106 105 113 80 79 91 91 90 98 90 89 102 89 87 101 92 92 105 81 80 92 86 85 100 92 92 104 71 70 85 93 93 106 56 55 92 48 47 88 42 38 41 93 84 86 87 77 80 86 80 83 86 78 82 101 94 98 101 94 96 95 90 93 98 93 96 92 86 89 96 91 94 98 92 96 92 88 90 106 103 106 97 93 95 102 97 99 102 99 101 104 100 102 109 105 107 109 105 107 101 98 101 110 107 109 94 89 91 104 101 103 96 93 94 103 101 103 97 94 96 100 97 100 95 93 98 96 94 98 94 92 95 92 91 97 94 92 97 90 88 93 93 92 98 92 89 96 87 85 90 96 95 103 93 91 98 93 92 96 95 95 101 100 99 108 95 95 103 83 81 91 85 84 94 89 88 97 86 85 97 89 88 99 81 79 88 95 93 103 89 88 95 88 87 99 81 80 89 90 89 101 86 86 96 92 90 100 99 98 107 90 89 100 84 83 99 83 82 96 74 73 86 88 88 100 54 54 88 47 47 86 26 24 25 81 72 75 79 74 75 97 89 93 90 83 86 103 97 99 104 100 101 94 88 90 97 91 94 102 97 100 106 102 104 108 103 104 99 93 96 110 105 106 103 97 100 96 91 92 115 112 114 105 98 102 102 98 102 103 100 103 96 92 96 95 91 93 100 97 101 107 104 106 108 105 108 101 96 98 106 103 106 101 100 103 97 94 98 88 85 88 98 94 97 100 98 102 103 101 105 102 100 102 99 98 105 103 102 107 92 90 96 98 97 103 85 84 93 99 97 105 104 102 111 94 93 100 88 86 98 91 90 98 84 82 95 97 96 105 101 100 107 94 93 105 100 99 109 81 79 88 98 96 107 83 82 94 81 79 90 88 87 100 101 100 109 87 86 99 88 87 100 89 86 99 80 79 93 79 78 95 94 94 107 83 82 97 68 67 103 54 53 96 40 37 39 80 74 77 87 78 80 93 85 86 97 88 92 94 89 92 98 92 92 93 87 90 102 96 98 99 91 93 97 91 94 102 96 98 100 93 97 97 93 95 110 106 109 105 101 104 104 100 103 106 105 106 103 99 100 111 107 108 98 92 96 107 105 107 104 101 105 95 93 95 97 94 97 104 102 105 93 92 94 92 90 92 86 82 85 67 65 69 70 69 71 79 77 81 81 79 87 77 74 78 80 78 81 83 81 87 102 100 106 95 94 100 92 91 98 91 89 96 101 100 105 98 97 105 85 84 93 90 89 98 96 95 108 98 97 104 82 81 90 91 91 101 99 97 108 97 96 106 84 84 95 90 89 99 98 97 111 92 91 100 93 92 104 87 86 95 85 85 100 94 93 107 98 97 109 92 91 105 98 96 109 86 85 98 60 59 94 51 50 88 41 38 38 102 95 98 99 91 92 95 87 88 96 89 92 98 92 93 98 91 92 101 96 98 99 94 95 101 95 96 98 93 95 106 101 103 98 93 95 109 105 108 101 98 99 100 96 98 110 105 107 115 111 113 99 93 96 103 100 103 108 105 107 102 96 98 101 97 99 89 85 87 77 76 79 71 69 71 79 76 80 81 80 84 78 76 81 75 72 77 85 82 85 82 82 87 77 75 79 79 78 83 73 71 76 71 69 75 73 72 79 74 74 79 87 86 92 76 76 84 86 85 93 100 100 107 95 93 100 99 97 105 95 94 102 91 91 96 108 108 116 91 90 100 98 98 107 89 88 98 95 94 102 103 102 112 92 91 100 94 93 104 93 92 104 93 92 105 94 93 105 87 86 100 85 84 99 86 85 99 101 100 114 91 91 105 53 52 88 54 53 93 39 36 37 93 86 88 95 89 90 97 91 94 105 96 97 84 80 82 103 96 97 111 104 106 109 105 107 103 98 100 106 100 103 102 96 99 105 99 101 105 100 101 122 119 121 107 104 106 107 102 104 114 111 112 105 99 101 103 99 101 96 93 96 71 68 72 74 71 74 89 84 87 75 72 73 85 81 85 83 80 85 85 82 84 86 83 89 85 83 85 82 80 85 77 76 80 83 80 84 84 82 87 77 76 82 90 89 93 74 73 80 73 71 78 75 74 81 72 71 82 69 67 75 87 86 94 92 91 98 92 91 101 95 95 103 95 94 103 103 102 114 99 99 107 97 96 106 99 98 109 96 95 108 94 93 101 106 105 116 93 92 104 98 97 109 91 90 100 90 89 106 97 97 108 90 89 102 95 93 104 91 90 103 83 83 94 60 60 96 53 52 93 47 43 45 88 79 80 89 80 81 99 94 96 95 89 92 102 97 99 112 105 107 105 97 99 99 95 96 93 87 89 102 99 102 99 94 97 112 108 109 110 105 107 110 106 108 107 102 104 116 112 114 98 95 98 85 83 86 81 79 80 82 79 81 79 76 78 86 83 87 81 78 81 82 79 81 88 85 86 88 86 88 86 84 88 90 87 92 101 99 102 89 88 91 75 74 76 91 90 93 73 72 79 79 77 82 83 82 89 71 69 73 83 81 87 75 73 77 80 77 85 78 76 84 67 66 74 66 65 75 90 89 97 104 102 109 96 95 105 97 97 107 105 103 114 101 99 108 102 101 111 88 88 96 104 104 116 90 89 102 99 98 109 105 104 115 94 93 104 102 101 111 97 96 107 93 92 105 85 84 102 97 97 110 88 87 100 59 59 97 56 55 96 51 47 47 94 88 91 88 79 80 98 92 94 96 89 91 98 93 95 102 94 95 101 93 95 105 98 99 106 101 103 102 99 100 113 107 108 107 103 106 108 102 103 108 104 106 108 102 104 119 115 117 79 76 79 94 91 93 79 75 78 77 75 77 85 82 86 89 85 88 96 94 97 97 96 99 97 95 97 96 95 98 89 87 91 102 101 104 91 90 93 101 100 102 90 88 92 96 93 97 82 79 84 85 83 87 86 85 91 83 82 89 85 84 91 68 67 73 72 71 78 76 75 83 70 69 77 74 73 84 74 73 83 67 67 77 94 94 103 108 107 119 104 103 113 91 91 102 97 96 105 96 96 106 97 96 106 102 101 112 94 94 105 104 103 115 93 92 102 92 91 104 102 101 111 98 97 108 89 89 102 89 88 105 99 98 111 64 63 100 55 54 99 42 39 39 90 82 85 95 90 91 97 89 92 106 100 101 109 104 105 104 98 99 109 103 104 111 107 109 110 105 107 108 104 107 116 109 110 119 114 117 112 108 109 113 109 110 84 80 82 79 74 78 92 89 91 77 73 76 85 82 85 92 88 90 85 83 85 91 88 91 91 88 90 91 90 92 95 93 96 102 100 104 79 76 79 89 87 93 99 98 101 83 82 85 93 90 93 85 83 87 93 91 96 94 92 98 93 91 96 78 77 82 91 90 94 82 81 87 82 81 88 90 89 99 80 79 88 74 73 80 67 65 75 70 68 79 71 70 81 74 74 82 97 96 109 101 101 111 101 100 111 102 101 111 98 98 106 98 98 109 90 90 98 94 92 107 100 99 111 90 90 104 99 98 110 91 91 104 85 85 96 91 90 104 93 93 106 60 60 93 57 56 103 46 43 43 94 85 87 94 86 88 87 78 81 108 101 102 106 100 102 109 104 106 105 98 99 106 101 102 117 111 112 104 97 98 109 104 106 120 113 115 106 101 102 89 85 87 88 85 87 93 91 93 92 88 90 94 90 92 91 87 89 81 78 80 94 90 92 88 86 90 93 90 94 106 104 106 100 98 102 89 86 90 97 95 99 95 92 96 99 98 102 92 91 94 97 95 99 95 93 98 95 94 99 84 82 86 80 80 87 92 90 95 91 90 99 79 78 84 86 85 92 86 85 92 78 78 87 73 70 75 70 70 78 69 68 81 70 70 82 71 69 79 65 64 80 90 90 100 106 106 117 114 114 127 96 95 108 110 109 122 100 99 108 100 100 111 98 97 109 87 86 99 96 96 109 103 102 115 96 96 110 101 100 114 101 101 115 57 56 95 56 56 100 48 41 41 87 80 83 108 100 101 106 98 99 104 96 97 117 110 113 112 107 109 112 108 110 109 103 106 110 104 106 108 105 106 106 101 102 117 113 114 88 82 85 83 78 81 91 87 89 87 84 86 97 92 93 87 83 85 96 93 94 86 82 86 100 97 99 102 100 102 98 96 98 91 89 92 92 90 93 102 100 102 97 94 96 94 93 98 89 87 91 93 91 96 100 98 103 94 93 96 80 79 84 101 100 107 82 81 86 88 86 93 96 96 100 87 85 94 91 90 96 88 87 92 82 81 88 76 74 83 78 77 86 73 70 80 80 79 89 70 69 81 73 71 82 66 66 80 94 94 104 101 100 109 97 96 109 103 103 114 103 102 112 96 95 108 99 98 112 94 93 103 99 99 112 100 100 111 93 93 106 93 93 108 102 102 116 66 65 103 57 57 102 48 45 47 100 93 94 88 81 82 106 100 101 95 88 90 100 95 96 103 98 99 109 103 104 105 100 101 115 110 112 103 98 99 112 108 109 80 74 77 75 70 71 81 77 79 91 88 91 97 93 94 90 87 89 95 92 94 101 98 100 92 89 91 96 92 94 94 92 93 85 83 86 93 90 92 99 97 100 94 90 93 97 96 99 91 90 95 96 96 98 102 101 103 101 100 105 96 94 99 91 90 95 96 94 99 92 89 95 82 81 88 93 91 96 86 85 91 80 77 84 84 83 92 84 83 93 80 78 88 72 72 81 77 76 88 81 80 89 70 69 79 70 69 81 57 56 73 74 73 86 89 88 99 101 101 113 99 99 110 90 89 103 105 105 113 108 108 120 95 94 106 96 96 106 102 101 116 106 105 115 97 96 110 108 108 121 73 72 106 55 54 98 39 35 36 96 92 93 109 102 103 109 102 103 114 107 109 100 94 97 109 102 104 120 112 114 109 102 104 107 101 103 116 110 111 93 90 92 82 77 79 91 84 87 95 90 92 100 96 98 96 91 92 101 96 97 88 85 88 110 107 109 98 96 99 101 99 102 98 94 96 97 96 98 103 101 103 97 95 100 100 98 101 93 90 93 97 96 99 94 93 96 97 95 98 100 99 102 101 99 102 99 98 104 99 98 102 88 87 92 90 89 95 89 87 91 81 81 88 92 91 96 84 83 91 79 78 88 84 83 90 84 83 94 80 79 89 84 82 95 73 72 82 74 73 83 66 64 73 63 62 76 64 62 79 95 94 107 100 100 109 106 104 119 105 105 117 104 104 112 104 103 115 94 93 108 90 90 101 98 97 112 102 101 116 93 92 107 58 58 97 55 55 100 41 39 40 91 83 84 100 91 92 90 83 85 102 95 96 101 97 98 106 98 100 104 97 98 110 104 105 110 105 106 95 88 90 86 80 82 86 81 83 89 85 88 81 77 78 91 87 89 95 92 95 110 106 107 99 94 97 91 88 92 104 102 104 89 87 89 100 98 100 106 104 106 108 106 107 92 90 93 103 102 104 110 109 112 102 101 105 92 91 92 100 99 103 106 105 110 94 92 97 95 93 96 99 97 102 94 92 97 93 92 97 86 85 93 89 88 94 82 81 90 95 94 101 85 84 90 89 88 95 90 90 98 86 85 92 78 76 85 81 81 92 70 69 83 67 66 79 67 66 77 60 59 73 64 64 83 94 94 107 100 99 112 93 92 104 105 104 117 105 105 114 94 94 109 98 97 109 94 94 107 96 96 110 98 97 110 60 60 95 60 59 103 51 48 49 93 85 86 98 91 93 103 95 97 108 103 104 106 99 100 107 100 103 105 97 99 116 110 111 91 83 85 86 77 78 83 78 80 97 92 93 84 77 79 93 87 88 97 94 96 102 99 101 95 90 93 98 93 95 99 96 97 102 101 102 97 93 94 100 97 99 96 93 97 101 98 101 98 96 97 99 98 100 97 94 100 102 101 103 105 104 107 102 101 104 93 90 95 94 93 97 103 102 105 92 90 94 102 101 107 87 85 89 86 85 90 88 87 93 89 87 95 78 78 84 83 82 89 87 86 93 83 81 92 71 69 80 83 82 93 81 79 88 69 67 81 72 71 85 66 65 80 53 52 72 55 54 71 77 76 91 98 98 110 92 92 101 90 89 104 99 99 109 99 99 110 95 94 108 107 107 118 94 94 107 100 100 115 63 62 104 50 49 91 44 40 42 95 88 89 96 90 92 96 91 92 114 108 109 100 91 92 116 111 112 115 109 109 101 96 97 86 80 81 91 86 87 85 78 79 89 84 86 91 87 88 98 93 95 103 100 101 102 97 99 102 98 100 98 96 97 105 102 104 101 96 98 101 98 100 104 101 103 96 93 95 96 93 95 105 104 106 107 106 108 104 103 105 97 95 97 100 98 101 96 95 99 93 92 95 94 93 97 101 99 102 100 99 104 85 83 90 92 90 98 86 85 90 100 98 103 90 90 95 89 89 95 82 81 89 78 77 87 80 79 87 92 91 100 74 73 84 84 83 95 80 78 90 70 69 81 69 67 82 62 60 78 63 61 76 57 55 74 83 82 96 100 100 112 95 94 103 90 89 103 110 109 120 95 95 110 102 102 116 108 108 120 102 102 120 66 65 103 53 53 96 43 36 37 90 82 82 102 92 93 100 92 93 100 95 96 113 107 108 105 99 100 116 110 112 96 88 90 82 75 76 94 88 89 101 97 97 88 83 85 103 98 99 102 98 100 103 99 101 102 99 100 106 101 102 97 94 95 97 95 96 100 97 99 108 103 106 104 102 103 108 104 107 104 102 103 101 98 102 101 99 101 97 95 99 101 100 104 104 102 104 98 96 100 98 96 100 106 105 110 96 95 100 93 91 96 94 92 98 91 90 94 83 82 86 83 82 86 89 88 93 88 86 94 87 85 94 81 80 90 75 74 89 83 81 90 80 79 90 68 68 77 72 71 83 69 68 81 65 64 77 70 69 81 61 60 75 60 60 81 66 64 85 76 75 91 100 100 113 109 108 120 105 104 119 105 105 117 93 92 107 110 110 120 101 100 112 69 69 112 51 50 91 47 39 39 99 90 91 97 92 93 111 103 104 96 91 92 107 100 101 117 111 112 102 93 93 74 69 71 81 74 75 84 76 78 90 84 87 92 84 85 111 105 108 99 96 97 93 89 92 107 104 106 98 93 95 104 102 103 98 95 97 94 91 94 108 106 108 111 108 109 105 102 104 100 98 99 100 98 100 106 105 107 105 103 107 102 99 101 102 100 104 95 94 97 97 96 99 95 94 98 86 85 90 82 81 87 93 92 95 97 95 101 100 99 105 89 89 95 88 87 95 90 89 97 92 91 97 85 84 91 89 88 96 80 80 89 75 75 84 79 78 89 73 72 83 70 69 84 74 73 87 67 66 82 64 62 77 58 55 80 57 57 78 77 76 96 98 97 112 94 93 107 99 98 108 102 101 114 98 98 108 105 104 118 111 110 123 68 67 110 55 54 99 47 45 46 93 87 89 107 96 98 106 97 97 108 101 103 107 99 99 113 107 108 98 90 91 79 71 73 87 81 82 91 83 85 100 94 95 88 83 84 103 99 100 97 92 94 105 103 105 107 103 105 96 94 95 100 97 98 106 103 105 95 92 94 102 99 102 96 93 94 100 98 99 93 91 93 106 105 107 105 103 108 106 104 107 105 102 106 102 101 103 99 98 101 106 105 107 86 85 90 93 91 98 107 105 108 103 103 108 88 87 94 80 79 83 88 87 94 90 89 98 88 87 93 86 85 91 89 89 96 92 91 102 92 92 101 82 81 92 76 74 88 73 72 87 81 81 92 69 68 79 64 64 81 60 58 76 66 66 79 50 48 69 51 50 74 88 88 102 98 98 112 104 104 117 109 108 121 102 101 114 107 106 118 100 99 114 68 68 103 58 57 102 33 27 29 91 85 86 101 93 94 102 95 96 111 103 105 114 106 108 97 90 91 90 81 82 80 75 76 84 78 80 80 75 78 99 95 97 88 85 86 95 90 92 98 93 94 97 92 94 101 98 100 104 99 101 106 101 103 91 88 91 94 91 93 97 94 98 104 100 103 110 109 112 101 98 101 97 94 98 105 104 106 101 98 100 104 102 105 109 108 111 98 97 100 93 91 94 101 100 104 100 99 103 100 99 106 92 91 95 89 88 91 98 98 101 91 90 97 89 88 92 92 91 99 90 90 97 93 92 98 87 87 96 79 78 91 72 71 83 86 85 96 77 76 89 81 81 91 73 72 87 65 65 79 69 68 85 67 65 82 58 58 79 56 55 77 66 65 81 82 81 98 108 108 120 104 104 118 98 97 109 100 100 112 103 102 116 64 64 101 53 53 98 51 49 49 105 97 98 102 95 96 106 98 100 117 110 111 98 93 94 99 93 93 74 64 66 81 75 78 94 85 87 88 84 86 96 91 93 96 93 94 91 86 88 100 95 96 92 88 90 96 93 94 105 102 103 97 94 96 106 102 104 99 97 99 115 113 114 107 105 107 101 98 101 102 100 101 97 95 99 88 85 88 107 106 108 100 98 100 99 97 99 97 96 101 98 97 100 99 98 101 98 96 102 100 99 102 87 86 92 98 96 102 95 93 97 85 84 92 93 92 98 92 90 98 88 87 93 88 86 93 77 75 86 78 77 87 88 88 96 77 76 86 81 80 91 73 72 86 77 77 92 69 67 81 68 66 82 63 62 80 67 66 83 55 54 73 54 53 75 87 87 100 84 84 100 97 96 113 100 100 112 93 92 106 97 96 110 66 66 105 50 49 93 44 39 40 99 89 90 99 91 93 102 96 97 105 96 97 109 102 104 76 67 68 80 72 72 85 76 78 96 90 92 83 76 79 100 98 99 92 88 89 98 94 95 94 90 92 94 90 92 105 100 103 97 96 97 103 100 102 103 99 101 107 104 106 91 89 90 100 96 99 96 94 98 107 105 106 101 99 101 95 94 96 108 105 109 93 91 95 96 95 99 94 93 97 96 94 99 107 105 108 106 104 109 95 94 97 87 86 93 88 86 91 87 86 93 96 95 101 92 91 98 88 87 95 90 88 96 82 81 87 79 78 87 90 89 100 88 88 96 82 81 92 83 82 87 70 70 83 80 79 94 60 57 73 70 69 81 68 67 85 58 58 76 58 57 78 46 45 63 65 64 86 92 91 104 92 91 104 96 96 109 97 97 109 97 96 110 69 69 105 52 52 94 35 31 31 92 83 85 105 99 100 105 96 97 98 92 93 97 89 89 72 62 64 77 70 71 74 66 69 81 72 74 96 89 91 108 102 103 103 96 97 99 95 96 93 89 90 99 94 95 103 100 102 95 91 93 92 91 92 108 106 108 99 96 97 101 99 101 97 94 96 98 96 99 96 94 98 101 97 100 94 93 96 105 102 105 97 96 100 100 99 102 92 90 96 105 104 110 88 86 89 96 95 99 98 97 102 103 101 106 98 97 102 93 92 98 99 98 103 90 90 97 84 83 93 78 76 85 79 79 88 91 90 95 81 80 88 85 85 94 73 72 87 80 79 90 75 74 83 71 70 85 68 67 83 68 68 85 66 65 83 63 63 82 53 52 75 47 46 74 51 51 72 84 83 102 103 102 116 96 96 111 106 106 119 104 104 115 60 59 99 52 52 96 45 38 38 96 86 88 105 98 99 102 96 97 101 91 92 92 82 83 78 69 70 79 71 72 94 88 89 92 84 86 92 87 88 93 90 92 102 96 97 95 89 91 97 94 95 104 100 102 93 89 91 99 95 97 104 100 102 102 99 100 99 97 99 105 102 104 102 99 100 105 103 105 95 92 95 114 111 113 99 97 100 101 99 101 98 96 99 96 94 99 101 100 105 83 82 86 100 99 102 105 103 106 94 94 98 96 96 98 100 99 105 98 98 103 96 96 100 94 93 99 85 84 92 89 88 96 92 91 100 92 91 97 76 75 88 77 76 85 76 76 89 82 81 93 74 73 86 82 81 91 81 80 92 61 59 76 62 61 82 60 59 78 61 61 84 43 41 66 56 55 80 84 83 101 87 86 103 101 101 115 87 86 101 94 93 110 66 66 106 53 53 98 47 41 41 99 91 92 104 100 100 106 100 101 103 96 97 93 83 84 81 70 72 80 74 75 98 91 92 92 88 89 99 91 93 101 97 99 97 91 93 110 106 107 103 100 102 98 94 96 102 100 102 101 98 101 101 99 100 101 98 100 114 112 113 105 102 103 109 107 108 107 104 106 96 95 97 105 102 105 110 108 110 98 97 101 108 107 110 101 99 104 99 98 102 105 105 109 97 96 99 96 94 98 100 99 102 94 92 95 92 91 96 93 91 99 94 93 99 92 91 99 94 93 101 99 98 104 97 96 104 79 79 89 84 84 95 78 77 87 71 68 83 82 82 91 80 79 93 78 78 91 73 71 85 71 69 87 65 63 77 62 61 80 59 58 77 46 45 68 42 41 67 69 68 90 84 84 99 94 94 107 100 100 112 88 88 103 67 67 104 53 53 97 53 49 50 99 92 93 102 93 94 110 102 103 105 95 96 77 70 70 82 73 74 81 75 76 97 89 91 95 90 92 97 92 93 107 103 104 98 93 94 97 93 95 101 97 99 103 99 100 98 94 96 85 82 84 106 103 104 104 102 104 94 91 94 97 94 97 96 92 94 99 97 99 98 97 98 104 102 104 102 100 103 101 98 101 87 86 89 95 93 97 90 89 92 100 100 105 107 106 110 96 96 100 88 86 92 100 99 105 94 92 98 98 97 101 97 96 100 89 89 93 86 85 92 86 85 92 83 82 89 83 82 90 93 92 102 75 74 85 78 77 89 84 83 95 83 82 97 73 73 83 67 66 79 66 65 83 64 62 83 57 56 75 56 55 76 50 49 73 47 45 69 59 59 80 75 74 90 94 93 102 87 87 106 92 91 102 60 60 100 56 56 105 47 45 45 96 89 89 101 91 92 103 95 96 96 87 88 74 67 69 87 77 79 81 72 74 77 69 71 92 86 88 83 78 79 92 87 88 96 93 93 100 98 99 97 93 94 97 94 96 102 98 99 97 93 94 101 98 99 90 86 88 112 110 113 86 84 87 92 90 93 95 94 96 103 101 103 91 89 92 95 94 99 94 92 94 98 96 100 99 98 100 97 94 98 93 91 93 90 89 92 100 99 102 99 97 103 104 103 107 103 102 105 99 97 104 91 89 96 102 101 109 86 85 91 77 76 83 85 84 96 73 72 82 79 78 91 82 81 92 86 86 97 73 73 83 73 73 84 59 57 68 67 67 77 67 66 77 70 69 84 67 66 85 54 52 77 44 43 61 45 43 69 53 52 80 72 72 88 93 93 107 96 96 112 97 97 114 65 65 99 48 48 90 45 41 42 101 91 92 90 81 82 97 90 91 103 96 96 78 70 72 75 69 71 87 79 81 89 80 81 94 88 90 95 88 89 90 84 87 100 96 98 97 92 93 103 98 100 95 91 92 112 106 108 99 97 98 92 88 90 96 93 96 100 98 99 93 90 94 91 89 91 96 94 96 97 95 96 106 105 108 98 96 100 98 97 99 89 88 91 96 94 99 94 92 96 94 92 97 97 96 99 95 93 98 89 88 92 95 94 98 97 95 102 94 93 97 82 80 85 83 82 87 90 89 94 93 91 100 79 79 87 91 91 98 87 86 98 79 79 87 82 81 90 75 74 84 64 63 77 63 62 80 70 68 84 65 64 74 59 59 74 58 57 73 56 54 76 52 51 76 51 50 74 51 51 72 70 69 87 95 95 109 97 96 111 101 100 114 62 62 105 46 45 88 43 38 38 92 85 87 98 90 90 96 89 90 102 95 96 71 61 63 85 73 74 78 73 75 76 67 69 92 87 88 96 91 92 102 96 98 98 92 93 94 90 91 90 87 88 109 106 106 89 84 86 106 103 104 102 99 101 107 105 107 106 103 107 107 105 106 99 98 100 100 97 100 102 101 103 99 97 99 90 88 90 97 93 95 105 102 104 102 101 103 93 91 96 85 85 88 102 101 106 93 92 94 96 96 100 104 104 106 100 100 105 91 91 96 81 80 88 85 84 90 93 92 98 92 91 96 83 82 91 86 86 93 82 81 93 80 79 88 84 83 95 72 71 83 75 74 87 75 74 87 81 80 92 65 64 82 59 58 79 58 56 70 58 58 78 54 53 73 42 41 68 50 49 75 81 81 99 90 89 109 96 95 111 102 102 118 61 61 101 50 50 92 51 48 48 99 91 91 96 90 91 91 84 85 107 98 100 76 65 67 81 75 76 84 76 78 97 90 92 100 94 96 88 84 85 90 84 86 91 85 88 92 89 90 102 99 100 102 99 100 93 90 91 96 93 95 86 85 86 97 95 96 104 101 102 107 105 106 90 89 91 97 95 97 100 97 99 102 100 101 103 102 104 93 91 95 103 102 106 99 98 101 90 88 92 97 96 98 92 91 97 100 100 103 86 83 87 92 92 97 100 98 102 99 98 103 84 83 92 86 84 92 87 87 92 91 91 96 94 93 100 86 85 93 80 80 88 71 70 82 75 74 84 79 78 92 81 80 90 69 69 81 70 70 86 66 66 82 66 65 84 60 60 77 51 50 67 47 46 65 48 48 69 47 46 71 67 65 85 90 89 106 86 86 99 95 94 110 70 70 108 49 49 91 33 30 30 102 94 95 89 83 84 103 94 95 104 99 99 76 70 71 65 54 56 79 71 72 98 91 92 85 78 80 86 81 82 96 89 90 87 82 84 93 88 90 97 92 94 90 88 89 88 85 87 105 102 104 103 100 102 96 94 96 95 89 91 109 106 108 106 104 105 100 99 102 98 97 99 100 97 100 90 88 91 108 106 108 82 81 84 105 104 107 105 103 107 92 90 94 98 95 100 96 94 98 96 95 98 100 99 105 92 92 97 92 91 97 84 82 87 91 90 95 83 82 90 86 85 94 94 93 101 83 83 91 80 80 89 84 83 94 87 87 94 79 77 87 85 84 95 79 78 97 77 76 90 65 64 82 58 57 75 59 57 73 55 54 75 45 43 67 45 45 68 47 47 74 75 74 90 78 77 92 99 99 111 91 90 108 61 61 94 46 46 86 32 29 29 103 94 95 101 93 94 99 94 94 106 95 96 81 73 74 77 66 67 80 70 73 83 76 80 94 88 89 90 85 86 91 86 88 94 90 91 92 87 88 94 89 91 98 93 94 94 89 90 98 94 95 97 96 97 98 94 95 101 99 101 103 100 101 96 93 96 104 102 103 103 101 104 91 88 91 98 95 97 97 94 97 95 95 96 104 102 105 100 99 102 98 97 102 92 92 94 89 88 91 88 87 92 88 88 91 88 87 92 83 82 88 100 99 103 90 90 96 79 79 87 84 84 89 81 81 88 92 91 96 86 85 97 90 89 99 74 74 82 71 70 80 76 75 87 64 63 73 78 77 89 65 64 81 65 63 82 67 67 87 49 47 68 51 50 73 41 41 69 53 53 78 76 75 92 86 85 102 94 93 108 102 102 114 61 61 95 58 58 104 37 32 34 98 88 89 102 94 94 110 100 102 102 95 95 96 86 88 80 73 74 90 82 83 80 75 76 90 85 87 97 91 93 92 88 90 88 85 87 96 89 92 100 96 98 95 90 93 99 94 97 100 95 98 103 100 102 96 92 94 106 104 106 102 100 102 90 87 89 110 107 109 90 88 93 98 96 97 97 94 98 90 87 88 106 105 107 89 87 89 100 98 101 106 104 107 102 100 101 93 92 97 86 85 90 96 95 99 91 90 95 96 95 102 91 90 95 83 82 88 83 81 90 82 80 89 77 76 86 87 86 94 66 64 75 77 77 88 78 78 89 68 68 78 82 80 89 78 77 92 65 65 80 66 65 77 59 58 82 53 52 71 56 54 76 46 45 73 50 49 77 52 52 71 61 61 78 80 79 99 97 97 110 105 105 120 47 47 84 50 49 92 40 34 34 88 82 82 96 86 87 96 89 90 97 91 92 90 80 81 77 70 71 82 76 76 83 75 76 81 75 76 84 79 82 94 85 88 89 84 85 94 90 92 83 79 81 102 97 98 96 91 93 98 93 95 95 92 94 99 96 98 100 97 99 102 100 102 98 97 99 99 97 99 94 91 92 100 97 100 105 103 105 92 91 94 99 96 99 99 99 102 106 105 109 100 98 103 91 89 93 94 91 95 89 88 94 103 102 107 74 73 82 96 95 100 89 88 92 88 87 96 88 87 96 86 84 91 82 82 89 76 75 85 85 84 94 78 77 87 68 67 78 76 75 88 72 71 88 71 70 86 62 62 76 68 66 83 55 54 72 59 58 75 50 47 70 45 43 67 49 48 75 48 48 72 68 67 84 88 88 104 91 91 107 92 92 107 59 58 90 49 49 91 47 46 46 94 84 85 93 84 87 100 91 92 103 95 96 88 80 82 72 62 65 78 71 73 83 75 78 86 81 82 87 84 86 100 94 96 89 82 83 91 86 87 93 89 90 95 92 94 97 92 93 95 90 92 95 91 93 92 90 92 98 94 96 98 95 98 94 93 96 100 98 99 94 92 93 96 95 98 86 82 85 88 87 91 97 94 98 86 84 88 86 84 88 97 96 100 90 88 91 91 90 94 89 88 91 99 98 102 91 90 95 76 75 81 89 87 95 86 84 93 73 71 80 76 74 83 84 82 88 81 81 88 79 79 89 75 74 85 70 69 80 77 76 87 73 73 85 75 74 85 61 59 74 62 61 78 64 64 82 54 53 75 54 53 77 43 42 66 47 45 67 50 49 75 80 79 100 78 78 96 107 107 116 89 89 103 58 58 92 50 50 91 51 48 48 94 89 90 91 86 87 85 77 79 94 86 87 93 87 87 71 60 62 75 67 69 75 69 71 83 76 78 89 85 87 86 78 80 86 80 81 98 94 96 95 90 92 90 85 87 97 94 96 84 80 81 103 100 101 96 93 96 84 82 84 102 99 101 104 101 103 94 91 95 102 101 102 90 89 92 92 90 91 92 91 94 100 99 104 98 97 101 96 95 97 84 83 87 90 89 92 82 80 89 86 86 90 93 93 97 94 93 98 91 90 95 89 88 94 97 96 103 90 89 96 90 89 97 91 90 100 78 76 86 83 82 93 76 74 84 76 74 85 73 73 86 74 73 87 65 64 81 69 67 82 61 59 78 57 55 74 57 55 74 47 46 70 44 43 71 50 50 73 53 52 74 71 70 89 76 76 93 96 96 106 99 99 112 74 74 109 49 49 91 44 43 43 85 77 78 95 85 85 93 87 89 112 106 106 95 90 90 82 72 73 73 62 64 78 68 70 75 70 71 77 71 72 86 78 80 94 88 90 92 89 90 97 91 93 93 90 91 86 81 81 96 93 94 89 85 86 96 92 94 89 86 88 89 86 87 96 93 96 97 95 97 94 92 94 99 97 99 98 96 98 98 96 100 90 90 94 97 94 97 87 86 89 87 85 89 104 102 105 90 89 93 85 84 88 82 82 89 97 95 101 84 83 87 80 80 86 85 84 93 83 82 90 87 86 94 76 75 83 89 88 98 79 79 87 87 85 93 74 73 82 81 80 92 57 56 71 67 66 77 60 59 71 62 61 79 63 62 83 56 55 79 50 48 74 48 44 70 57 56 80 59 58 82 73 72 90 76 76 91 93 93 104 105 105 118 58 58 98 50 50 95 46 44 44 96 88 89 97 86 87 100 89 90 103 96 97 102 96 97 90 82 83 84 73 75 77 68 70 81 73 75 91 84 86 87 80 82 93 86 87 101 96 97 95 89 90 89 86 87 101 98 100 90 87 87 95 90 91 77 75 77 99 95 97 95 91 92 108 106 108 92 91 93 83 83 85 88 86 89 88 85 89 97 95 98 93 91 94 94 92 96 95 93 97 90 89 93 95 93 98 97 94 99 91 89 92 80 78 84 81 80 85 90 89 94 86 85 90 74 73 82 93 92 97 82 80 87 82 81 91 76 75 85 85 85 93 68 67 79 71 70 80 71 70 83 85 84 98 63 62 75 68 66 84 66 65 79 49 49 64 45 42 62 46 44 71 50 49 69 51 50 70 60 60 81 86 85 101 96 96 109 96 95 112 97 97 114 65 64 105 54 54 97 52 48 48 91 83 85 93 85 87 81 76 77 101 92 93 97 92 93 100 95 96 65 51 53 65 58 61 84 76 79 78 75 76 84 78 81 89 83 85 91 84 86 92 88 89 89 84 86 89 86 88 96 91 93 101 99 101 97 95 98 97 93 95 102 100 104 105 103 105 99 96 98 99 97 98 88 86 89 96 95 97 101 98 99 91 90 92 100 98 100 97 96 99 83 82 87 88 86 91 82 81 85 89 87 93 94 93 97 86 84 92 86 85 90 88 87 92 82 80 87 81 80 85 88 87 94 82 80 88 63 61 70 72 71 82 71 70 82 80 79 90 67 66 77 62 61 75 63 63 77 58 56 70 61 60 74 47 47 65 49 49 70 47 47 69 52 51 72 55 54 77 64 64 79 78 77 89 89 89 102 95 94 109 98 98 113 66 66 108 49 49 90 46 42 43 97 89 92 106 99 100 104 95 96 98 91 93 106 99 100 100 95 96 90 83 83 74 67 69 80 72 75 82 76 80 87 81 84 92 88 89 92 86 87 84 79 81 85 81 83 83 80 82 90 86 88 104 99 102 85 83 88 101 97 100 89 87 89 100 97 99 109 107 110 89 88 90 90 88 91 96 94 97 98 96 98 87 85 87 85 84 89 99 98 102 87 85 88 89 88 92 102 101 103 82 80 88 84 82 89 84 82 90 86 85 92 87 85 93 82 81 90 85 84 90 80 79 85 76 75 86 69 69 78 78 77 88 69 68 82 83 82 92 70 69 86 68 65 83 62 61 78 54 53 71 63 61 74 53 52 72 54 53 73 53 52 74 53 52 74 50 50 69 68 66 85 83 82 97 95 95 108 103 103 117 112 112 121 60 59 98 55 55 100 30 27 27 103 96 98 92 83 84 98 87 88 107 98 99 106 99 100 97 91 92 96 91 93 65 58 59 73 65 67 77 71 72 90 81 82 82 76 78 84 81 81 94 89 90 89 85 87 90 86 89 95 92 93 86 82 83 89 87 89 96 92 94 94 91 94 98 95 97 86 83 86 93 91 94 90 88 92 102 98 101 86 85 86 87 84 88 90 88 92 84 83 86 92 90 94 80 79 84 91 90 93 85 83 89 91 90 93 88 86 92 84 82 88 81 79 85 79 78 83 84 82 90 88 86 96 76 74 82 83 82 90 67 66 77 75 73 85 82 81 91 70 69 83 64 62 77 63 63 74 58 57 75 55 54 73 51 49 72 50 49 67 55 54 75 55 55 71 71 71 93 82 81 98 94 94 107 95 95 106 86 85 98 101 100 116 61 60 95 49 49 89 51 47 48 94 86 87 98 87 88 89 80 82 98 91 92 101 92 94 100 93 94 110 101 102 88 82 83 73 67 69 82 74 75 82 76 78 75 69 71 81 73 75 89 84 85 88 83 86 91 86 88 81 76 78 87 84 86 93 90 91 93 89 91 93 91 92 90 86 88 85 82 84 104 101 102 89 85 89 92 89 92 89 88 91 82 80 82 89 89 92 94 92 96 93 92 96 93 91 95 82 81 85 83 82 89 93 92 97 88 87 92 85 83 87 79 79 86 75 73 82 80 79 87 81 81 88 72 72 83 70 69 83 77 76 86 78 78 87 72 71 83 71 71 79 67 65 79 59 57 73 55 54 71 55 53 73 49 49 66 57 55 74 55 54 77 62 62 85 71 70 87 79 79 95 91 90 100 85 84 97 95 95 109 94 94 110 64 64 100 50 50 91 45 37 37 98 88 89 89 81 82 94 88 89 103 95 96 88 81 82 109 104 105 106 98 100 91 87 88 64 54 57 66 60 62 78 72 73 87 80 82 76 71 73 82 74 76 93 86 88 80 73 77 81 76 78 81 77 80 92 89 91 91 87 89 88 84 89 89 85 86 94 91 93 92 88 90 87 85 86 95 94 97 71 69 75 86 83 87 82 81 85 91 90 94 91 89 93 80 78 86 90 89 94 92 91 97 90 87 92 88 87 93 76 75 79 78 77 83 81 79 88 83 82 89 67 65 76 81 80 87 72 72 82 74 73 87 67 65 76 65 64 77 65 65 82 67 65 78 56 54 74 46 44 65 52 51 72 38 38 60 53 52 73 58 58 82 61 60 81 69 68 85 82 81 100 93 93 105 95 95 111 94 94 106 108 108 123 68 68 104 53 53 97 41 36 36 96 88 90 104 97 98 111 104 105 96 89 90 99 93 94 108 100 101 113 106 108 116 108 109 87 80 82 63 54 57 83 76 78 83 75 78 81 74 76 84 81 83 81 76 78 85 83 85 95 90 92 86 81 83 93 90 91 96 90 92 93 91 92 79 77 79 87 84 87 71 67 70 92 90 92 87 85 88 87 85 89 85 82 86 83 79 83 88 86 89 83 83 88 95 93 98 84 82 87 81 80 84 84 83 90 81 79 84 94 93 100 81 80 89 86 85 92 76 75 85 67 66 76 75 74 85 68 66 75 70 69 80 67 66 79 71 70 83 56 54 69 61 60 73 55 54 69 52 51 65 43 42 62 53 51 71 51 50 75 56 55 75 67 66 85 81 80 94 89 88 103 102 101 117 94 93 105 111 110 120 93 93 108 60 59 99 56 56 100 40 39 39 100 91 93 93 84 85 108 101 102 108 102 103 105 99 101 96 91 92 111 104 104 101 97 98 112 107 107 87 78 80 65 59 62 77 70 73 77 73 75 61 58 61 84 81 82 89 84 86 86 83 84 86 82 84 84 80 82 87 84 85 90 84 85 82 78 80 81 78 82 89 86 89 86 84 86 85 82 84 83 80 83 84 81 85 83 82 83 81 78 83 86 83 87 81 80 84 87 86 89 82 81 87 78 77 83 80 79 84 75 72 79 76 75 83 82 80 88 83 81 90 80 79 87 71 69 78 68 66 76 74 73 84 71 70 81 65 64 79 48 46 60 62 61 74 59 57 76 50 48 66 54 53 65 53 52 75 53 53 76 65 64 81 82 81 99 93 93 107 89 88 103 97 97 108 96 96 107 93 92 107 99 98 110 64 63 103 53 52 95 36 27 29 90 78 81 106 97 97 103 94 95 101 94 96 106 100 101 112 106 107 110 105 106 109 102 102 112 107 108 99 93 93 76 69 71 74 66 68 69 60 62 74 67 70 81 76 78 84 80 82 83 78 81 88 83 85 86 83 85 94 89 92 80 77 80 87 84 86 83 81 83 83 80 83 87 85 88 84 80 84 79 78 82 75 73 81 80 77 80 85 82 86 89 86 93 88 87 91 76 75 80 86 84 88 78 77 82 84 82 88 83 83 89 88 86 96 71 70 79 66 65 72 67 66 76 73 71 81 74 72 84 72 71 81 68 67 77 66 64 79 59 58 70 59 58 70 58 57 76 61 60 80 50 49 73 51 51 74 64 64 82 76 75 92 85 84 99 94 93 107 92 91 102 98 97 110 96 95 111 94 93 109 104 104 121 61 60 99 52 51 92 47 44 45 95 86 88 92 84 85 94 85 88 111 107 108 95 89 90 109 102 103 107 100 101 107 101 103 113 109 110 100 93 96 108 100 102 73 67 69 72 67 69 70 65 68 71 68 72 82 79 82 88 82 85 87 84 85 83 80 82 96 93 94 84 82 85 80 78 81 85 82 86 86 84 86 79 75 79 77 75 78 76 74 78 84 81 84 80 79 84 83 81 84 91 88 93 77 76 82 83 82 85 84 83 87 88 86 92 71 69 76 76 74 83 86 85 91 72 71 77 68 66 76 70 69 81 68 66 78 72 70 78 71 69 80 61 60 72 43 39 51 53 52 68 56 55 67 48 46 63 54 53 71 47 46 69 64 63 84 60 59 73 68 66 86 97 97 107 96 96 108 91 90 103 103 102 115 93 93 106 94 93 106 95 94 111 67 65 102 52 51 95 41 35 36 95 89 91 92 84 85 96 89 91 97 90 91 100 93 95 98 90 92 116 110 111 110 104 105 105 99 100 103 96 97 116 112 113 103 95 97 73 64 67 71 64 66 72 67 69 68 60 65 73 68 70 77 73 78 77 74 75 87 83 85 83 80 82 78 76 79 88 85 87 90 86 89 86 83 87 77 75 80 80 77 82 81 78 83 83 80 84 90 89 94 83 82 86 81 80 84 76 75 78 76 74 81 79 78 82 70 68 75 69 67 75 65 63 69 64 63 70 73 72 83 75 73 83 62 59 68 71 71 78 61 59 71 59 59 68 64 62 78 60 58 72 63 62 79 55 54 73 52 51 69 58 57 77 71 69 86 83 82 96 98 97 110 84 83 101 105 103 115 99 99 113 106 105 115 86 85 97 90 89 105 96 95 111 62 62 98 50 49 88 43 36 37 85 76 78 99 91 92 97 87 89 97 91 93 98 90 92 98 91 92 87 79 81 100 90 92 106 97 98 103 99 101 95 90 92 109 104 106 100 95 96 71 65 66 67 60 62 67 62 64 70 64 66 74 69 70 85 82 85 78 74 75 79 75 79 81 78 81 70 68 69 87 85 86 73 69 72 73 71 74 87 85 89 88 86 90 80 78 82 84 80 83 71 69 74 79 78 82 84 82 87 72 70 79 77 75 80 69 68 74 74 73 79 71 70 78 77 77 88 76 75 84 66 65 71 65 64 76 69 67 78 61 60 72 58 56 68 60 59 70 54 53 68 56 55 72 64 62 80 56 54 71 70 69 85 72 72 83 90 89 103 101 100 112 98 98 112 99 99 107 93 92 104 99 98 112 100 98 114 102 102 114 100 100 116 64 63 105 58 57 101 36 29 30 93 84 86 99 93 95 103 98 100 95 89 91 101 94 96 102 95 96 100 97 97 103 95 96 113 108 110 105 100 102 113 108 110 101 97 98 114 108 109 101 96 97 89 85 86 79 73 75 67 62 65 76 71 73 79 75 78 69 64 67 80 76 79 72 68 70 78 76 79 78 75 77 75 73 74 77 75 77 78 76 80 82 80 85 76 72 78 73 71 75 82 80 84 87 85 89 80 78 85 79 77 83 78 76 82 72 71 80 73 71 79 72 71 79 65 64 69 66 64 71 63 61 74 66 65 77 55 54 63 60 60 70 50 49 62 53 52 66 56 55 70 52 51 65 59 57 73 70 68 85 85 83 96 91 90 102 97 97 109 91 90 102 100 99 111 93 92 108 100 100 110 93 92 104 99 98 111 97 96 107 87 86 103 66 65 99 55 54 97 42 38 38 96 88 89 99 89 91 102 96 98 101 94 95 103 97 97 107 100 102 108 102 104 106 100 102 107 102 103 104 100 102 111 107 108 113 108 109 122 116 118 105 100 101 105 100 102 91 87 89 80 74 77 72 67 70 78 75 77 75 72 74 80 78 82 81 77 79 79 75 78 70 65 70 71 68 74 79 77 79 82 79 81 83 81 84 74 71 76 81 78 82 82 79 82 72 69 74 80 78 84 68 67 71 63 62 67 70 68 76 75 73 84 74 72 79 72 70 77 62 59 69 67 65 76 65 63 74 54 53 64 50 48 56 63 62 74 53 52 72 67 66 79 67 65 79 77 76 87 79 78 88 84 83 94 99 99 111 96 94 104 102 101 113 100 100 112 98 97 110 99 98 111 98 98 112 106 105 117 103 102 118 94 94 110 65 64 101 54 53 96 35 31 32 86 78 80 93 83 84 105 99 100 99 93 96 99 91 93 102 96 96 115 109 111 108 103 105 103 94 96 104 99 101 113 106 107 113 109 110 111 107 109 106 102 103 104 98 99 92 88 90 92 84 86 72 67 71 74 71 73 71 70 72 65 61 64 71 67 68 76 73 76 72 68 70 72 67 73 70 67 72 73 71 78 73 71 74 72 69 73 77 75 79 76 74 78 77 74 80 78 75 80 68 67 74 67 65 71 66 65 73 63 60 70 65 63 71 72 72 80 59 58 70 64 62 73 65 63 74 60 58 70 58 57 68 58 57 69 65 64 77 65 64 81 77 76 92 76 74 90 90 90 103 99 99 109 100 98 108 104 103 113 94 93 104 98 98 110 90 90 103 110 109 118 99 98 108 97 97 108 96 96 108 103 101 114 70 69 104 51 50 90 33 28 29 86 77 79 93 86 87 95 90 92 104 97 100 99 91 92 105 100 101 108 103 105 102 96 98 117 112 114 115 110 110 114 110 112 100 95 97 101 97 98 109 105 107 106 103 103 102 99 101 115 111 113 96 91 93 78 75 77 72 68 72 67 61 65 72 70 72 67 63 67 70 65 66 68 64 67 68 66 70 64 63 67 77 73 78 65 62 67 68 66 71 58 55 64 71 69 77 67 64 70 65 64 70 69 68 73 67 65 72 64 63 69 50 48 55 64 62 69 54 53 63 57 56 72 59 58 69 49 49 63 65 63 77 58 56 70 78 77 91 67 66 80 85 85 95 103 102 113 95 94 103 99 97 109 91 90 101 90 89 100 94 92 104 92 91 101 104 103 117 105 104 114 99 98 109 89 88 103 91 90 100 97 97 111 66 65 99 53 52 94 41 38 40 100 94 95 104 96 98 89 82 83 93 87 90 94 88 90 99 93 96 112 108 109 104 98 99 109 105 106 104 99 101 98 93 96 107 102 105 117 112 114 117 113 114 101 97 98 114 109 111 113 109 111 106 104 105 93 90 92 92 88 91 90 84 86 69 64 66 76 73 76 62 58 63 61 56 60 66 63 66 67 64 66 77 74 78 64 62 67 69 67 69 61 59 65 67 65 70 62 60 64 72 70 77 64 63 69 62 59 62 75 73 81 64 62 68 63 61 70 61 60 70 55 54 63 66 66 78 60 58 69 69 68 80 68 67 77 88 87 98 95 94 103 91 89 100 89 88 98 105 104 112 109 108 115 97 97 108 98 98 105 99 98 107 105 104 117 99 98 110 93 92 104 94 94 103 86 86 95 92 91 103 105 105 117 64 63 99 53 52 95 45 41 42 97 89 91 90 80 82 97 90 92 101 95 96 98 94 97 98 94 95 108 102 104 110 105 106 94 91 93 104 99 102 113 110 112 101 96 98 114 110 111 106 101 103 112 107 109 117 112 114 109 105 107 120 117 119 115 112 114 106 104 106 102 100 102 87 83 86 86 81 82 78 73 77 73 68 70 65 59 62 66 63 67 66 64 68 63 61 66 70 67 72 72 69 74 60 58 64 64 61 67 62 60 66 65 62 71 64 63 69 63 60 73 65 62 70 76 75 83 62 60 71 68 67 79 79 78 87 71 69 83 89 87 97 73 73 85 86 85 97 103 102 108 108 108 117 99 97 108 89 88 97 103 102 112 103 103 113 99 99 109 101 101 110 100 99 111 111 109 121 89 89 100 94 93 105 98 97 111 101 101 114 94 94 105 63 63 99 63 62 109 47 43 43 82 76 79 85 80 81 93 87 89 103 96 99 95 91 93 112 108 109 108 103 104 94 89 91 112 108 109 110 107 109 93 89 92 109 105 107 124 121 122 112 107 109 109 104 107 106 102 104 104 100 103 103 101 105 119 116 119 111 106 108 110 106 109 105 102 105 101 98 101 96 91 93 91 88 92 81 77 81 73 71 74 74 70 76 62 58 64 63 59 64 73 69 76 68 65 68 64 59 65 73 70 75 70 68 76 66 64 72 65 63 72 68 67 77 80 78 87 79 77 85 82 80 89 81 79 87 98 97 102 94 94 103 91 90 98 104 103 111 102 101 111 93 91 102 98 97 109 102 101 109 93 93 104 102 101 108 110 108 120 101 99 110 94 93 101 101 101 113 98 97 109 81 80 92 87 86 98 104 103 119 101 101 114 66 65 99 56 56 98 46 42 44 90 82 84 104 98 99 92 84 86 94 87 89 97 93 96 95 91 93 100 95 98 106 101 102 109 104 107 113 107 109 114 108 111 104 100 101 108 101 103 117 113 116 116 112 114 114 110 112 117 113 115 110 107 110 106 103 105 99 96 100 103 99 102 111 108 111 102 99 101 113 109 111 98 95 98 98 94 97 93 90 95 88 85 89 88 86 90 87 84 91 83 79 84 83 81 88 81 78 84 84 82 89 77 74 81 82 81 87 87 84 92 89 86 97 90 89 96 78 76 84 90 88 97 96 95 102 98 97 106 94 93 101 100 98 107 99 97 105 103 101 108 93 92 102 99 97 106 100 99 107 102 101 110 90 89 97 99 98 110 96 95 107 99 99 108 96 95 105 93 92 103 96 95 106 97 97 109 102 101 111 98 98 112 65 64 101 54 53 96 46 42 43 90 86 87 95 90 91 96 93 94 90 85 88 101 96 99 103 96 97 104 101 103 106 100 103 94 90 91 104 99 100 108 104 105 97 93 97 111 104 107 111 107 109 106 103 105 114 112 113 112 107 108 105 102 104 102 99 101 108 105 108 112 109 113 106 103 106 108 105 108 101 98 100 97 95 99 117 113 115 115 113 117 108 106 110 97 96 101 92 90 96 93 90 93 88 85 89 98 97 102 93 91 96 92 91 96 99 98 103 88 86 93 93 92 101 99 99 105 97 96 102 101 100 108 107 105 113 105 104 110 104 104 111 104 103 111 100 99 109 99 97 107 106 105 114 102 101 109 104 103 112 90 90 99 108 106 113 101 101 111 99 98 107 97 97 106 102 101 111 102 101 109 95 93 104 81 80 92 102 101 113 89 87 100 61 60 96 57 55 99 41 39 40 89 81 82 92 86 87 92 86 88 103 96 98 94 87 90 99 92 95 104 101 102 98 94 97 101 96 96 103 99 101 112 107 108 100 96 97 111 106 108 105 102 104 106 102 104 104 100 103 108 106 107 118 115 116 110 104 106 110 105 107 111 108 111 107 104 107 116 114 117 107 104 109 100 97 100 115 112 117 99 96 101 107 105 108 108 107 111 99 98 101 101 100 104 93 92 96 108 107 110 112 111 115 101 97 102 105 104 112 106 104 110 102 100 105 101 99 104 99 98 104 100 98 103 104 103 110 99 97 104 100 99 106 103 102 112 98 96 103 104 104 110 90 90 99 107 107 111 95 94 102 103 101 110 107 106 115 103 102 110 98 98 105 104 102 111 88 86 95 101 100 107 99 99 108 108 108 118 89 89 100 95 95 103 60 60 97 47 46 84 14 14 14 41 40 40 45 43 44 36 32 32 58 54 55 53 51 51 45 41 42 45 43 43 40 37 39 50 47 47 52 51 52 48 47 48 38 36 36 53 51 52 47 46 47 46 44 45 59 58 59 46 43 46 59 57 57 52 50 52 54 51 54 54 54 55 57 56 58 47 46 47 51 49 50 50 50 52 51 50 50 50 49 49 66 66 66 53 52 53 50 50 53 53 53 53 49 49 53 52 52 55 48 48 53 45 45 47 49 49 52 47 46 50 51 50 52 50 50 53 56 55 57 51 51 56 54 54 58 49 49 51 45 45 51 45 44 49 50 50 53 40 40 46 46 45 51 53 53 56 51 50 54 49 49 54 45 44 50 41 41 46 54 54 58 42 42 46 47 46 51 50 50 58 43 43 46 44 43 46 39 39 42 50 49 54 44 43 71 52 51 90 