P3
64 64
255
76 46 46 56 34 34 76 46 46 0 0 0 56 34 34 0 0 0 0 0 0 0 0 0 0 0 0 56 34 34 0 0 0 0 0 0 0 0 0 0 0 0 0 0 0 0 0 0 0 0 0 56 34 34 56 34 34 0 0 0 0 0 0 0 0 0 46 28 46 0 0 0 0 0 0 0 0 0 0 0 0 34 34 56 34 21 34 0 0 0 0 0 0 0 0 0 0 0 0 0 0 0 0 0 0 0 0 0 34 21 34 0 0 0 0 0 0 0 0 0 34 34 56 0 0 0 0 0 0 0 0 0 0 0 0 0 0 0 0 0 0 0 0 0 63 39 46 34 34 56 0 0 0 34 34 56 0 0 0 34 34 56 0 0 0 34 34 56 0 0 0 56 56 56 0 0 0 0 0 0 0 0 0 46 39 63 34 34 56 34 34 56 0 0 0 0 0 0 0 0 0 0 0 0 0 0 0 34 21 34 0 0 0 0 0 0 56 34 34 0 0 0 0 0 0 0 0 0 76 46 46 56 34 34 0 0 0 56 34 34 0 0 0 0 0 0 0 0 0 0 0 0 63 46 63 0 0 0 0 0 0 0 0 0 0 0 0 0 0 0 0 0 0 56 34 34 34 21 34 0 0 0 0 0 0 0 0 0 0 0 0 0 0 0 0 0 0 0 0 0 0 0 0 0 0 0 0 0 0 34 21 34 0 0 0 34 34 56 34 34 56 0 0 0 0 0 0 0 0 0 0 0 0 0 0 0 34 34 56 34 21 34 0 0 0 0 0 0 0 0 0 0 0 0 56 56 56 0 0 0 0 0 0 46 46 76 34 34 56 0 0 0 34 34 56 34 21 34 34 34 56 0 0 0 0 0 0 56 34 34 0 0 0 56 34 34 0 0 0 76 46 46 0 0 0 0 0 0 0 0 0 56 34 34 34 34 56 56 34 34 63 39 46 34 21 34 0 0 0 56 34 34 76 46 46 56 34 34 0 0 0 0 0 0 0 0 0 0 0 0 56 34 34 0 0 0 46 39 63 34 34 56 0 0 0 63 39 46 0 0 0 0 0 0 76 46 46 56 34 34 0 0 0 56 34 34 0 0 0 56 34 34 34 21 34 0 0 0 34 34 56 0 0 0 0 0 0 0 0 0 0 0 0 34 34 56 34 34 56 0 0 0 46 46 76 34 34 56 34 34 56 46 46 76 0 0 0 0 0 0 0 0 0 46 46 76 34 34 56 34 34 56 0 0 0 34 34 56 34 34 56 0 0 0 34 34 56 34 34 56 0 0 0 0 0 0 76 46 46 0 0 0 0 0 0 0 0 0 0 0 0 82 56 70 56 34 34 56 56 56 0 0 0 56 34 34 76 46 46 34 34 56 56 34 34 0 0 0 0 0 0 56 34 34 56 34 34 56 34 34 34 21 34 34 21 34 56 34 34 0 0 0 0 0 0 34 21 34 0 0 0 56 34 34 34 21 34 56 34 34 34 34 56 56 34 34 0 0 0 0 0 0 0 0 0 34 21 34 0 0 0 0 0 0 63 63 76 63 39 46 56 34 34 56 34 34 0 0 0 34 34 56 0 0 0 76 46 46 34 34 56 34 34 56 0 0 0 46 39 63 0 0 0 0 0 0 0 0 0 34 34 56 0 0 0 34 21 34 34 34 56 0 0 0 0 0 0 34 34 56 46 39 63 0 0 0 34 34 56 34 34 56 34 34 56 34 34 56 0 0 0 0 0 0 56 34 34 0 0 0 34 21 34 105 63 63 0 0 0 0 0 0 56 34 34 0 0 0 0 0 0 0 0 0 92 56 56 56 34 34 76 46 46 56 56 56 56 34 34 34 34 56 76 46 46 56 34 34 0 0 0 0 0 0 0 0 0 0 0 0 56 34 34 0 0 0 0 0 0 63 46 63 0 0 0 34 34 56 0 0 0 0 0 0 0 0 0 0 0 0 63 46 63 0 0 0 34 21 34 0 0 0 46 28 46 34 34 56 0 0 0 0 0 0 0 0 0 34 34 56 34 21 34 0 0 0 0 0 0 0 0 0 46 46 76 0 0 0 46 46 76 34 34 56 46 46 76 0 0 0 0 0 0 0 0 0 0 0 0 46 46 76 82 56 70 34 34 56 46 46 76 34 34 56 0 0 0 0 0 0 0 0 0 56 34 34 0 0 0 76 46 46 56 34 34 76 46 46 76 63 63 82 56 70 34 34 56 56 34 34 0 0 0 0 0 0 56 34 34 0 0 0 0 0 0 0 0 0 76 46 46 0 0 0 56 34 34 56 34 34 56 34 34 34 21 34 56 34 34 56 34 34 0 0 0 0 0 0 0 0 0 56 34 34 0 0 0 34 34 56 0 0 0 0 0 0 0 0 0 0 0 0 0 0 0 0 0 0 56 34 34 0 0 0 63 46 63 0 0 0 0 0 0 34 34 56 0 0 0 63 46 63 0 0 0 34 34 56 0 0 0 0 0 0 0 0 0 0 0 0 34 34 56 46 46 76 46 39 63 63 63 76 56 34 34 34 21 34 34 34 56 34 34 56 63 46 63 0 0 0 46 46 76 0 0 0 0 0 0 0 0 0 0 0 0 105 63 63 76 46 46 76 46 46 0 0 0 105 76 76 76 46 46 56 34 34 0 0 0 0 0 0 56 34 34 34 34 56 0 0 0 76 46 46 34 34 56 34 34 56 34 34 56 0 0 0 0 0 0 0 0 0 56 34 34 0 0 0 63 46 63 56 34 34 0 0 0 56 34 34 0 0 0 0 0 0 105 76 76 82 70 82 0 0 0 82 70 82 63 46 63 76 46 46 34 34 56 34 34 56 76 76 76 34 34 56 0 0 0 0 0 0 56 34 34 0 0 0 0 0 0 0 0 0 0 0 0 46 46 76 34 34 56 34 21 34 56 56 56 0 0 0 56 34 34 56 56 56 56 34 34 34 34 56 0 0 0 0 0 0 0 0 0 46 46 76 0 0 0 0 0 0 34 34 56 34 21 34 56 34 34 0 0 0 0 0 0 56 34 34 0 0 0 56 34 34 0 0 0 56 34 34 56 34 34 56 34 34 0 0 0 34 34 56 70 43 56 0 0 0 76 46 46 0 0 0 56 34 34 76 46 46 0 0 0 34 21 34 0 0 0 56 34 34 0 0 0 0 0 0 76 46 46 63 46 63 76 46 46 56 34 34 70 56 82 105 63 63 0 0 0 0 0 0 56 56 56 56 34 34 0 0 0 0 0 0 34 34 56 0 0 0 63 63 76 34 34 56 56 56 92 56 34 34 34 34 56 63 46 63 34 34 56 0 0 0 0 0 0 34 34 56 0 0 0 0 0 0 34 34 56 34 34 56 34 34 56 87 84 119 56 50 82 0 0 0 56 50 82 63 46 63 0 0 0 34 34 56 0 0 0 34 34 56 0 0 0 0 0 0 56 34 34 34 34 56 56 34 34 56 34 34 0 0 0 63 46 63 56 34 34 56 34 34 76 63 63 76 46 46 34 21 34 0 0 0 0 0 0 56 34 34 0 0 0 76 46 46 0 0 0 0 0 0 63 46 63 0 0 0 0 0 0 76 63 63 76 46 46 56 34 34 76 46 46 76 63 63 34 34 56 0 0 0 56 56 56 0 0 0 0 0 0 0 0 0 76 63 63 34 34 56 92 82 82 63 46 63 0 0 0 56 56 56 0 0 0 76 63 96 34 34 56 56 34 34 56 34 34 56 56 56 0 0 0 0 0 0 0 0 0 34 34 56 34 34 56 0 0 0 0 0 0 34 34 56 34 34 56 34 34 56 34 34 56 0 0 0 34 34 56 34 21 34 0 0 0 0 0 0 76 76 76 34 34 56 0 0 0 56 56 56 0 0 0 0 0 0 56 56 56 56 34 34 0 0 0 76 46 46 56 34 34 76 46 46 0 0 0 0 0 0 56 34 34 92 56 56 0 0 0 56 34 34 0 0 0 0 0 0 0 0 0 76 46 46 34 21 34 0 0 0 46 46 76 76 63 63 0 0 0 0 0 0 119 93 96 0 0 0 0 0 0 0 0 0 56 34 34 34 34 56 0 0 0 0 0 0 63 63 76 56 34 34 76 76 76 56 34 34 56 34 34 56 34 34 56 56 56 56 56 56 0 0 0 34 34 56 46 46 76 56 56 56 0 0 0 34 34 56 34 34 56 0 0 0 34 34 56 0 0 0 34 34 56 46 46 76 56 34 34 34 34 56 63 63 105 46 46 76 56 56 56 34 34 56 34 34 56 0 0 0 46 46 76 0 0 0 63 46 63 34 21 34 0 0 0 0 0 0 56 34 34 0 0 0 76 46 46 0 0 0 56 34 34 56 34 34 76 46 46 0 0 0 92 56 56 56 34 34 0 0 0 0 0 0 0 0 0 56 34 34 0 0 0 0 0 0 34 21 34 56 34 34 0 0 0 87 58 76 0 0 0 0 0 0 46 46 76 0 0 0 76 63 63 76 46 46 34 34 56 56 34 34 92 56 56 87 63 87 0 0 0 63 46 63 87 84 96 0 0 0 56 34 34 46 46 76 46 46 76 34 34 56 56 34 34 70 56 82 0 0 0 63 46 63 0 0 0 63 63 76 76 76 105 0 0 0 63 63 76 34 34 56 0 0 0 34 21 34 0 0 0 34 34 56 34 34 56 34 34 56 34 34 56 34 34 56 70 70 92 34 34 56 46 46 76 34 34 56 70 70 92 0 0 0 0 0 0 0 0 0 56 34 34 56 34 34 0 0 0 0 0 0 0 0 0 0 0 0 34 34 56 0 0 0 0 0 0 0 0 0 56 34 34 63 46 63 56 34 34 56 34 34 56 56 56 0 0 0 56 34 34 0 0 0 34 34 56 63 46 63 0 0 0 63 63 76 56 34 34 76 46 46 0 0 0 0 0 0 63 46 63 0 0 0 0 0 0 0 0 0 0 0 0 56 34 34 0 0 0 0 0 0 0 0 0 0 0 0 87 63 87 0 0 0 34 34 56 0 0 0 0 0 0 34 34 56 34 34 56 0 0 0 56 56 92 34 34 56 34 34 56 34 34 56 0 0 0 34 34 56 46 39 63 46 46 76 34 34 56 0 0 0 34 34 56 0 0 0 34 34 56 34 34 56 63 46 63 46 46 76 34 34 56 0 0 0 0 0 0 63 46 63 0 0 0 0 0 0 76 63 63 0 0 0 56 34 34 92 56 56 0 0 0 56 56 56 56 34 34 34 21 34 76 46 46 34 21 34 56 34 34 56 34 34 76 63 63 0 0 0 34 34 56 96 58 63 76 63 63 56 34 34 63 63 76 63 46 63 56 56 56 46 46 76 0 0 0 76 46 46 0 0 0 82 56 70 63 63 76 0 0 0 56 56 56 0 0 0 0 0 0 76 46 46 34 34 56 0 0 0 34 21 34 0 0 0 76 76 76 63 63 76 34 21 34 46 46 76 34 21 34 56 34 34 0 0 0 46 46 76 0 0 0 56 34 34 0 0 0 0 0 0 34 34 56 34 34 56 0 0 0 0 0 0 46 28 46 0 0 0 34 34 56 34 34 56 0 0 0 34 34 56 34 34 56 0 0 0 0 0 0 0 0 0 0 0 0 0 0 0 76 46 46 56 34 34 56 34 34 92 56 56 0 0 0 76 63 63 56 34 34 56 34 34 0 0 0 0 0 0 0 0 0 92 56 56 63 39 46 56 34 34 76 46 46 0 0 0 76 76 76 0 0 0 56 34 34 56 34 34 0 0 0 96 63 76 0 0 0 0 0 0 0 0 0 0 0 0 34 34 56 63 46 63 0 0 0 0 0 0 0 0 0 70 56 82 0 0 0 0 0 0 63 46 63 34 34 56 0 0 0 0 0 0 0 0 0 34 34 56 56 56 92 46 39 63 0 0 0 34 34 56 63 63 76 46 39 63 0 0 0 0 0 0 0 0 0 34 34 56 0 0 0 56 56 56 46 46 76 56 34 34 34 34 56 0 0 0 0 0 0 46 46 76 34 34 56 0 0 0 0 0 0 63 46 63 63 46 63 56 34 34 76 46 46 56 34 34 70 56 82 56 56 56 0 0 0 63 39 46 56 34 34 0 0 0 56 34 34 56 34 34 0 0 0 56 34 34 76 63 63 0 0 0 76 63 63 63 46 63 105 63 63 76 46 46 0 0 0 56 34 34 56 34 34 56 34 34 63 39 46 56 34 34 34 34 56 0 0 0 56 34 34 96 76 87 0 0 0 76 76 76 0 0 0 0 0 0 34 34 56 0 0 0 46 46 76 34 34 56 46 46 76 0 0 0 0 0 0 46 46 76 46 46 76 56 56 92 34 34 56 0 0 0 34 34 56 46 46 76 34 34 56 34 34 56 34 34 56 56 50 82 34 34 56 0 0 0 0 0 0 0 0 0 34 34 56 46 46 76 0 0 0 56 34 34 46 46 76 34 34 56 0 0 0 0 0 0 56 56 56 0 0 0 56 34 34 56 34 34 82 70 82 56 34 34 0 0 0 0 0 0 56 34 34 56 56 56 0 0 0 76 46 46 56 34 34 56 56 56 56 34 34 105 76 76 0 0 0 56 56 56 0 0 0 34 21 34 0 0 0 56 34 34 76 76 76 56 34 34 34 21 34 56 34 34 0 0 0 63 46 63 56 34 34 0 0 0 56 34 34 34 34 56 0 0 0 92 82 82 0 0 0 56 56 56 56 56 92 0 0 0 0 0 0 0 0 0 34 34 56 0 0 0 34 34 56 34 34 56 63 46 63 46 46 76 0 0 0 63 58 63 46 39 63 34 34 56 0 0 0 0 0 0 0 0 0 0 0 0 34 34 56 34 34 56 0 0 0 0 0 0 0 0 0 46 46 76 0 0 0 56 56 56 56 56 56 34 34 56 0 0 0 0 0 0 0 0 0 0 0 0 0 0 0 0 0 0 0 0 0 0 0 0 56 34 34 76 63 63 56 34 34 76 46 46 34 21 34 0 0 0 92 56 56 56 34 34 105 63 63 76 63 63 76 46 46 0 0 0 56 34 34 0 0 0 63 46 63 76 46 46 56 34 34 34 34 56 56 34 34 56 34 34 0 0 0 56 34 34 63 46 63 0 0 0 70 56 82 56 56 56 56 56 56 0 0 0 0 0 0 63 58 63 0 0 0 0 0 0 0 0 0 0 0 0 0 0 0 56 50 82 46 39 63 34 21 34 82 82 92 63 46 63 0 0 0 63 58 96 34 34 56 0 0 0 34 34 56 34 34 56 0 0 0 0 0 0 34 34 56 0 0 0 0 0 0 0 0 0 0 0 0 63 46 63 0 0 0 0 0 0 0 0 0 56 34 34 56 34 34 0 0 0 56 34 34 63 39 46 56 34 34 87 58 76 63 39 46 92 56 56 82 70 82 0 0 0 56 34 34 0 0 0 63 39 46 56 34 34 76 46 46 63 58 63 0 0 0 56 34 34 56 34 34 63 39 46 0 0 0 56 34 34 0 0 0 76 63 63 34 34 56 63 46 63 56 34 34 87 87 105 34 34 56 0 0 0 0 0 0 82 70 82 76 46 46 34 34 56 34 34 56 0 0 0 34 34 56 82 70 82 46 39 63 56 43 70 34 21 34 63 63 105 0 0 0 0 0 0 34 34 56 46 39 63 46 46 76 34 34 56 46 46 76 0 0 0 0 0 0 0 0 0 34 34 56 46 46 76 0 0 0 0 0 0 0 0 0 0 0 0 46 46 76 0 0 0 0 0 0 34 34 56 0 0 0 0 0 0 0 0 0 0 0 0 56 34 34 0 0 0 34 34 56 0 0 0 100 74 82 56 34 34 0 0 0 56 56 56 92 56 56 34 21 34 0 0 0 56 34 34 92 70 70 34 34 56 56 50 82 56 34 34 56 34 34 63 39 46 56 34 34 56 56 56 76 46 46 0 0 0 63 46 63 0 0 0 63 46 63 0 0 0 34 34 56 0 0 0 46 46 76 0 0 0 63 46 63 0 0 0 34 34 56 63 46 63 0 0 0 34 34 56 0 0 0 56 34 34 34 21 34 34 34 56 82 82 92 63 46 63 56 34 34 63 46 63 0 0 0 34 34 56 34 34 56 0 0 0 46 46 76 0 0 0 34 34 56 34 34 56 56 56 92 46 46 76 34 34 56 46 46 76 56 56 56 0 0 0 0 0 0 0 0 0 0 0 0 56 34 34 56 34 34 0 0 0 56 34 34 0 0 0 56 34 34 0 0 0 76 46 46 0 0 0 76 46 46 34 21 34 76 46 46 56 34 34 56 34 34 56 56 56 34 21 34 76 46 46 0 0 0 34 21 34 56 34 34 63 46 63 0 0 0 34 34 56 56 34 34 56 34 34 0 0 0 34 34 56 56 34 34 0 0 0 63 46 63 0 0 0 92 56 56 0 0 0 56 56 56 0 0 0 0 0 0 34 34 56 76 72 96 46 39 63 0 0 0 0 0 0 0 0 0 0 0 0 34 34 56 76 63 63 70 70 92 46 46 76 34 34 56 46 46 76 34 34 56 0 0 0 0 0 0 0 0 0 0 0 0 56 56 56 34 21 34 46 46 76 34 34 56 0 0 0 0 0 0 0 0 0 0 0 0 0 0 0 0 0 0 56 34 34 0 0 0 56 34 34 56 34 34 0 0 0 0 0 0 82 50 56 76 46 46 0 0 0 0 0 0 0 0 0 56 34 34 56 34 34 34 34 56 0 0 0 56 34 34 56 34 34 56 34 34 56 34 34 76 63 63 76 63 63 34 34 56 34 21 34 0 0 0 0 0 0 56 34 34 56 34 34 0 0 0 34 34 56 76 46 46 46 46 76 0 0 0 63 63 76 34 34 56 0 0 0 0 0 0 56 34 34 63 58 63 56 56 92 63 46 63 46 46 76 63 63 76 46 39 63 34 34 56 0 0 0 63 63 76 56 56 92 46 46 76 0 0 0 46 46 76 0 0 0 0 0 0 0 0 0 0 0 0 0 0 0 34 34 56 34 34 56 0 0 0 0 0 0 34 34 56 0 0 0 0 0 0 0 0 0 0 0 0 56 34 34 0 0 0 76 46 46 0 0 0 34 34 56 0 0 0 56 34 34 56 34 34 0 0 0 92 56 56 56 34 34 56 56 56 0 0 0 92 70 70 34 34 56 0 0 0 92 56 56 56 34 34 56 34 34 76 46 46 76 46 46 56 34 34 0 0 0 56 34 34 0 0 0 46 39 63 82 50 56 76 46 46 0 0 0 0 0 0 56 34 34 34 34 56 34 34 56 63 63 76 34 34 56 0 0 0 76 63 63 70 66 82 56 34 34 0 0 0 56 56 92 63 46 63 56 34 34 56 56 56 0 0 0 56 56 56 46 39 63 0 0 0 46 39 63 0 0 0 34 34 56 34 34 56 34 34 56 0 0 0 34 34 56 0 0 0 56 34 34 0 0 0 0 0 0 46 46 76 0 0 0 0 0 0 56 34 34 0 0 0 76 63 63 56 34 34 0 0 0 0 0 0 0 0 0 63 39 46 76 46 46 56 34 34 0 0 0 0 0 0 0 0 0 56 34 34 34 34 56 56 34 34 76 46 46 56 34 34 0 0 0 76 63 63 76 46 46 76 46 46 0 0 0 56 34 34 34 34 56 0 0 0 56 56 56 0 0 0 0 0 0 56 34 34 56 34 34 0 0 0 56 34 34 34 34 56 63 63 76 34 34 56 70 56 82 56 56 56 76 63 96 0 0 0 0 0 0 0 0 0 46 46 76 34 34 56 56 56 92 34 21 34 56 56 56 56 56 92 46 39 63 34 34 56 0 0 0 56 56 56 0 0 0 63 58 63 34 34 56 34 34 56 0 0 0 34 34 56 76 76 76 0 0 0 0 0 0 46 46 76 34 34 56 0 0 0 0 0 0 0 0 0 0 0 0 0 0 0 0 0 0 56 34 34 0 0 0 0 0 0 56 34 34 56 34 34 0 0 0 56 34 34 63 39 46 0 0 0 96 72 76 0 0 0 56 34 34 0 0 0 34 34 56 46 46 76 46 28 46 82 50 56 34 34 56 46 39 63 100 66 82 0 0 0 56 56 56 92 82 82 0 0 0 34 34 56 0 0 0 63 46 63 0 0 0 56 56 92 0 0 0 56 34 34 63 58 63 46 46 76 56 34 34 34 34 56 0 0 0 63 46 63 0 0 0 0 0 0 82 78 108 34 34 56 0 0 0 0 0 0 0 0 0 34 21 34 34 34 56 0 0 0 56 50 82 70 70 116 63 53 87 46 39 63 34 34 56 34 34 56 34 34 56 34 34 56 0 0 0 34 34 56 0 0 0 0 0 0 0 0 0 0 0 0 0 0 0 0 0 0 56 34 34 56 34 34 0 0 0 76 46 46 56 34 34 46 46 76 34 34 56 56 34 34 0 0 0 56 34 34 76 46 46 56 34 34 0 0 0 0 0 0 63 46 63 0 0 0 0 0 0 76 46 46 0 0 0 56 34 34 0 0 0 76 46 46 56 34 34 0 0 0 56 34 34 0 0 0 0 0 0 0 0 0 0 0 0 0 0 0 56 56 56 56 56 56 34 34 56 0 0 0 0 0 0 0 0 0 0 0 0 34 34 56 0 0 0 34 34 56 0 0 0 0 0 0 34 34 56 0 0 0 34 34 56 0 0 0 76 63 63 0 0 0 0 0 0 0 0 0 70 70 116 0 0 0 0 0 0 0 0 0 34 34 56 46 46 76 56 56 56 0 0 0 34 34 56 0 0 0 0 0 0 0 0 0 56 34 34 0 0 0 56 34 34 0 0 0 56 34 34 56 34 34 0 0 0 76 46 46 0 0 0 0 0 0 56 34 34 34 21 34 76 46 46 76 46 46 56 34 34 92 56 56 0 0 0 56 34 34 56 56 56 0 0 0 56 56 56 0 0 0 34 34 56 56 34 34 56 34 34 56 34 34 0 0 0 63 46 63 0 0 0 0 0 0 0 0 0 63 46 63 0 0 0 56 34 34 0 0 0 34 34 56 0 0 0 56 56 56 34 34 56 0 0 0 34 34 56 0 0 0 34 21 34 0 0 0 0 0 0 0 0 0 34 34 56 0 0 0 34 34 56 46 46 76 34 34 56 34 34 56 46 46 76 56 50 82 34 21 34 0 0 0 56 50 82 34 34 56 56 56 56 0 0 0 70 56 82 0 0 0 0 0 0 0 0 0 56 34 34 56 34 34 56 34 34 56 34 34 0 0 0 0 0 0 0 0 0 92 56 56 56 34 34 56 34 34 0 0 0 63 58 63 46 28 46 56 34 34 0 0 0 0 0 0 56 34 34 63 39 46 56 34 34 0 0 0 56 56 56 56 56 56 56 34 34 0 0 0 0 0 0 63 46 63 56 34 34 0 0 0 56 34 34 0 0 0 0 0 0 56 34 34 0 0 0 34 34 56 46 39 63 34 34 56 0 0 0 63 46 63 56 34 34 63 58 63 0 0 0 46 39 63 56 56 56 34 34 56 34 34 56 0 0 0 70 70 92 34 34 56 34 34 56 0 0 0 34 34 56 0 0 0 0 0 0 34 34 56 34 34 56 34 34 56 0 0 0 0 0 0 0 0 0 0 0 0 34 34 56 0 0 0 0 0 0 0 0 0 56 56 56 0 0 0 0 0 0 34 21 34 76 46 46 63 46 63 0 0 0 0 0 0 46 46 76 0 0 0 0 0 0 0 0 0 0 0 0 0 0 0 56 34 34 63 46 63 92 56 56 56 34 34 0 0 0 56 56 56 82 56 70 56 34 34 63 46 63 34 34 56 0 0 0 34 34 56 56 34 34 56 34 34 0 0 0 34 34 56 76 72 96 63 39 46 63 58 63 34 34 56 0 0 0 0 0 0 34 34 56 56 34 34 0 0 0 34 34 56 0 0 0 46 46 76 56 50 82 46 39 63 46 46 76 56 50 82 56 56 56 34 34 56 0 0 0 56 50 82 0 0 0 34 34 56 63 63 76 0 0 0 46 46 76 0 0 0 34 34 56 0 0 0 0 0 0 0 0 0 0 0 0 0 0 0 0 0 0 0 0 0 0 0 0 0 0 0 0 0 0 56 34 34 34 21 34 0 0 0 56 34 34 0 0 0 0 0 0 0 0 0 92 70 70 56 34 34 56 34 34 56 34 34 0 0 0 0 0 0 0 0 0 0 0 0 0 0 0 0 0 0 0 0 0 56 34 34 70 56 82 0 0 0 56 34 34 34 34 56 56 34 34 56 34 34 63 63 76 0 0 0 56 34 34 0 0 0 63 46 63 0 0 0 0 0 0 0 0 0 0 0 0 56 56 92 0 0 0 0 0 0 70 61 70 0 0 0 70 56 82 0 0 0 34 34 56 34 34 56 34 34 56 34 34 56 0 0 0 56 50 82 0 0 0 0 0 0 46 46 76 0 0 0 0 0 0 34 34 56 0 0 0 34 34 56 34 34 56 34 34 56 0 0 0 0 0 0 0 0 0 56 34 34 56 34 34 56 34 34 56 34 34 56 34 34 56 34 34 76 46 46 105 63 63 56 34 34 76 46 46 0 0 0 92 70 70 0 0 0 92 56 56 34 34 56 0 0 0 34 34 56 76 46 46 63 39 46 46 28 46 0 0 0 105 63 63 76 46 46 56 34 34 0 0 0 34 34 56 0 0 0 0 0 0 0 0 0 56 34 34 34 34 56 34 34 56 63 39 46 0 0 0 34 34 56 0 0 0 34 34 56 0 0 0 34 34 56 34 34 56 56 56 92 0 0 0 34 34 56 34 21 34 34 21 34 46 46 76 0 0 0 34 34 56 34 34 56 0 0 0 0 0 0 0 0 0 0 0 0 46 46 76 0 0 0 63 58 96 0 0 0 0 0 0 34 34 56 56 56 56 0 0 0 0 0 0 0 0 0 0 0 0 0 0 0 76 63 63 0 0 0 76 46 46 0 0 0 0 0 0 0 0 0 56 34 34 63 46 63 56 34 34 76 46 46 0 0 0 0 0 0 0 0 0 76 46 46 34 21 34 56 56 56 0 0 0 0 0 0 56 34 34 0 0 0 0 0 0 34 34 56 0 0 0 63 46 63 0 0 0 0 0 0 63 58 63 0 0 0 0 0 0 56 34 34 34 21 34 0 0 0 56 56 56 0 0 0 0 0 0 0 0 0 63 46 63 63 46 63 46 46 76 63 46 63 34 34 56 0 0 0 0 0 0 34 34 56 34 34 56 34 21 34 0 0 0 34 34 56 46 39 63 34 34 56 46 39 63 0 0 0 70 56 82 34 21 34 46 46 76 0 0 0 0 0 0 46 39 63 34 34 56 46 46 76 34 34 56 0 0 0 0 0 0 0 0 0 56 34 34 76 46 46 0 0 0 56 34 34 56 34 34 56 34 34 34 21 34 0 0 0 63 46 63 0 0 0 34 21 34 76 46 46 76 46 46 96 58 63 56 34 34 56 34 34 56 34 34 0 0 0 0 0 0 82 66 70 82 50 56 63 39 46 0 0 0 56 34 34 0 0 0 0 0 0 0 0 0 34 34 56 46 46 76 56 56 56 0 0 0 56 34 34 56 34 34 34 21 34 34 21 34 34 34 56 0 0 0 34 34 56 34 34 56 0 0 0 34 34 56 76 72 96 0 0 0 0 0 0 34 34 56 56 34 34 0 0 0 56 56 56 0 0 0 34 34 56 34 34 56 63 58 96 46 46 76 46 28 46 34 34 56 34 34 56 34 34 56 0 0 0 0 0 0 34 34 56 46 46 76 34 34 56 0 0 0 0 0 0 0 0 0 0 0 0 63 39 46 56 34 34 92 56 56 56 56 56 0 0 0 56 56 56 0 0 0 56 34 34 0 0 0 76 46 46 0 0 0 0 0 0 0 0 0 76 63 63 76 46 46 82 56 70 0 0 0 56 34 34 0 0 0 0 0 0 63 46 63 0 0 0 56 34 34 56 34 34 34 34 56 34 34 56 0 0 0 0 0 0 34 34 56 34 34 56 34 34 56 34 34 56 0 0 0 0 0 0 0 0 0 0 0 0 46 46 76 46 46 76 0 0 0 0 0 0 0 0 0 56 56 56 0 0 0 34 34 56 0 0 0 46 39 63 0 0 0 34 34 56 34 34 56 0 0 0 56 50 82 46 39 63 34 34 56 0 0 0 0 0 0 46 46 76 0 0 0 0 0 0 34 34 56 0 0 0 0 0 0 0 0 0 0 0 0 0 0 0 0 0 0 0 0 0 82 56 70 56 34 34 56 34 34 63 46 63 0 0 0 76 46 46 56 34 34 56 56 56 56 56 56 0 0 0 56 34 34 34 34 56 105 87 87 76 46 46 0 0 0 0 0 0 0 0 0 76 46 46 0 0 0 96 63 76 0 0 0 34 21 34 0 0 0 0 0 0 34 34 56 0 0 0 0 0 0 0 0 0 0 0 0 34 21 34 0 0 0 63 63 76 34 21 34 34 34 56 0 0 0 0 0 0 34 34 56 0 0 0 0 0 0 46 46 76 34 21 34 56 50 82 34 34 56 56 50 82 46 46 76 34 34 56 76 72 96 56 56 56 46 46 76 46 46 76 34 21 34 46 28 46 0 0 0 0 0 0 0 0 0 56 56 92 63 46 63 0 0 0 56 34 34 56 34 34 56 34 34 0 0 0 56 34 34 56 34 34 63 39 46 76 46 46 0 0 0 0 0 0 0 0 0 0 0 0 82 50 56 87 58 76 56 34 34 56 56 56 0 0 0 0 0 0 34 21 34 0 0 0 56 34 34 0 0 0 34 34 56 56 34 34 0 0 0 56 34 34 63 39 46 56 34 34 63 46 63 0 0 0 0 0 0 76 46 46 34 21 34 0 0 0 0 0 0 63 63 76 63 46 63 63 46 63 0 0 0 0 0 0 34 34 56 34 34 56 56 34 34 0 0 0 63 46 63 0 0 0 34 34 56 34 34 56 46 46 76 0 0 0 0 0 0 46 46 76 46 39 63 0 0 0 34 34 56 34 34 56 0 0 0 0 0 0 0 0 0 34 34 56 0 0 0 0 0 0 0 0 0 0 0 0 0 0 0 0 0 0 56 34 34 0 0 0 0 0 0 34 34 56 34 21 34 76 46 46 0 0 0 0 0 0 56 34 34 56 34 34 76 46 46 105 76 76 56 34 34 0 0 0 56 34 34 76 46 46 56 34 34 56 34 34 34 34 56 0 0 0 76 63 63 0 0 0 0 0 0 0 0 0 63 46 63 63 39 46 0 0 0 56 34 34 34 34 56 56 34 34 0 0 0 0 0 0 34 21 34 0 0 0 34 21 34 0 0 0 34 21 34 63 46 63 34 21 34 34 34 56 34 34 56 0 0 0 34 34 56 63 46 63 34 34 56 0 0 0 56 56 56 46 46 76 34 34 56 34 34 56 0 0 0 0 0 0 56 43 70 46 46 76 0 0 0 0 0 0 76 63 96 0 0 0 34 34 56 56 56 92 34 34 56 0 0 0 0 0 0 0 0 0 56 34 34 0 0 0 56 34 34 0 0 0 105 63 63 0 0 0 63 39 46 56 34 34 56 56 56 56 34 34 92 56 56 56 56 56 34 21 34 76 46 46 76 46 46 76 63 63 76 46 46 76 46 46 56 34 34 0 0 0 76 46 46 56 56 56 0 0 0 0 0 0 56 56 56 56 34 34 56 56 56 34 21 34 34 34 56 56 56 56 34 34 56 34 34 56 56 56 56 56 56 56 34 34 56 34 34 56 0 0 0 0 0 0 0 0 0 0 0 0 63 46 63 0 0 0 46 46 76 0 0 0 46 46 76 0 0 0 0 0 0 56 50 82 0 0 0 63 63 105 34 34 56 63 63 76 34 34 56 0 0 0 0 0 0 0 0 0 92 82 108 0 0 0 0 0 0 34 34 56 34 34 56 0 0 0 0 0 0 0 0 0 0 0 0 0 0 0 0 0 0 56 34 34 0 0 0 76 46 46 0 0 0 34 34 56 56 34 34 92 56 56 0 0 0 56 34 34 76 46 46 56 34 34 56 56 56 0 0 0 0 0 0 63 39 46 56 56 56 0 0 0 0 0 0 0 0 0 0 0 0 76 46 46 0 0 0 0 0 0 56 56 56 34 34 56 0 0 0 63 46 63 0 0 0 0 0 0 34 34 56 34 34 56 63 46 63 0 0 0 0 0 0 34 34 56 34 34 56 34 34 56 34 34 56 34 34 56 0 0 0 0 0 0 76 46 46 34 21 34 34 34 56 0 0 0 46 46 76 0 0 0 46 46 76 0 0 0 0 0 0 0 0 0 34 34 56 34 34 56 0 0 0 34 34 56 0 0 0 34 34 56 63 63 76 0 0 0 0 0 0 0 0 0 56 34 34 0 0 0 56 34 34 0 0 0 0 0 0 0 0 0 92 56 56 82 56 70 56 34 34 34 21 34 0 0 0 76 46 46 92 56 56 76 63 63 0 0 0 0 0 0 92 56 56 56 34 34 56 34 34 56 34 34 0 0 0 56 34 34 56 56 56 56 34 34 0 0 0 46 46 76 34 21 34 34 34 56 0 0 0 34 34 56 34 34 56 34 34 56 56 56 56 0 0 0 34 34 56 0 0 0 0 0 0 34 34 56 0 0 0 56 34 34 0 0 0 70 66 82 56 50 82 0 0 0 0 0 0 70 56 82 63 46 63 56 50 82 56 56 92 34 34 56 0 0 0 56 50 82 34 34 56 46 39 63 0 0 0 0 0 0 0 0 0 34 34 56 63 63 76 0 0 0 46 46 76 0 0 0 0 0 0 0 0 0 56 34 34 56 34 34 0 0 0 56 34 34 76 46 46 0 0 0 56 56 56 0 0 0 0 0 0 56 34 34 76 46 46 0 0 0 56 34 34 0 0 0 0 0 0 56 34 34 0 0 0 0 0 0 0 0 0 0 0 0 34 34 56 76 46 46 0 0 0 34 34 56 34 34 56 0 0 0 0 0 0 76 63 63 0 0 0 46 46 76 34 34 56 34 34 56 34 34 56 0 0 0 0 0 0 0 0 0 0 0 0 70 70 92 56 34 34 46 46 76 0 0 0 87 68 105 0 0 0 34 34 56 0 0 0 0 0 0 0 0 0 0 0 0 0 0 0 0 0 0 46 46 76 34 34 56 46 46 76 56 56 56 0 0 0 34 34 56 0 0 0 0 0 0 0 0 0 0 0 0 0 0 0 0 0 0 0 0 0 56 34 34 0 0 0 56 34 34 0 0 0 56 34 34 56 34 34 56 34 34 34 21 34 56 56 56 0 0 0 34 34 56 34 21 34 76 46 46 63 39 46 34 34 56 0 0 0 56 34 34 63 39 46 56 56 56 56 56 56 76 63 63 0 0 0 0 0 0 56 34 34 63 63 76 0 0 0 0 0 0 0 0 0 56 34 34 56 34 34 0 0 0 34 34 56 63 63 76 0 0 0 70 70 92 0 0 0 0 0 0 0 0 0 0 0 0 0 0 0 0 0 0 0 0 0 46 46 76 46 39 63 34 34 56 34 34 56 34 34 56 0 0 0 0 0 0 34 34 56 34 34 56 0 0 0 46 46 76 46 46 76 56 56 92 56 56 56 0 0 0 0 0 0 34 34 56 0 0 0 34 34 56 0 0 0 0 0 0 0 0 0 34 34 56 56 34 34 0 0 0 56 34 34 56 34 34 0 0 0 0 0 0 56 34 34 56 34 34 0 0 0 76 46 46 56 34 34 0 0 0 82 50 56 0 0 0 0 0 0 56 34 34 0 0 0 76 63 63 0 0 0 0 0 0 56 34 34 56 34 34 56 56 56 0 0 0 76 46 46 0 0 0 46 46 76 92 82 82 70 56 82 56 56 56 0 0 0 76 46 46 46 46 76 0 0 0 0 0 0 82 56 70 34 34 56 0 0 0 56 56 56 56 56 56 34 34 56 0 0 0 0 0 0 0 0 0 0 0 0 34 34 56 0 0 0 0 0 0 70 70 92 46 46 76 46 46 76 0 0 0 56 56 56 34 21 34 56 56 92 34 34 56 0 0 0 0 0 0 34 34 56 34 34 56 0 0 0 0 0 0 0 0 0 0 0 0 82 56 70 0 0 0 0 0 0 0 0 0 0 0 0 0 0 0 56 34 34 56 34 34 0 0 0 76 46 46 105 63 63 0 0 0 56 34 34 56 34 34 0 0 0 0 0 0 56 34 34 56 56 56 0 0 0 34 34 56 56 34 34 56 34 34 56 56 56 0 0 0 46 46 76 0 0 0 92 56 56 0 0 0 70 50 70 56 34 34 0 0 0 0 0 0 70 70 92 0 0 0 56 34 34 0 0 0 63 63 76 0 0 0 0 0 0 0 0 0 46 39 63 34 34 56 0 0 0 34 21 34 63 46 63 56 34 34 34 34 56 34 21 34 70 70 92 0 0 0 0 0 0 63 46 63 0 0 0 46 46 76 34 34 56 70 50 70 0 0 0 56 56 56 0 0 0 34 34 56 34 34 56 0 0 0 0 0 0 0 0 0 92 56 56 0 0 0 56 34 34 0 0 0 56 34 34 0 0 0 0 0 0 0 0 0 56 34 34 56 34 34 34 34 56 82 50 56 92 56 56 76 63 63 34 21 34 56 34 34 0 0 0 56 34 34 63 46 63 56 34 34 0 0 0 34 34 56 56 34 34 56 34 34 46 39 63 0 0 0 63 46 63 82 56 70 34 34 56 56 34 34 34 34 56 63 46 63 46 39 63 34 21 34 76 63 63 56 56 56 0 0 0 34 34 56 34 34 56 56 34 34 34 34 56 0 0 0 0 0 0 0 0 0 56 34 34 34 34 56 0 0 0 46 46 76 56 56 56 46 39 63 56 56 92 46 46 76 0 0 0 0 0 0 34 34 56 34 34 56 0 0 0 34 34 56 0 0 0 56 34 34 34 34 56 0 0 0 0 0 0 0 0 0 0 0 0 56 34 34 34 21 34 76 46 46 63 46 63 56 34 34 56 56 56 56 34 34 0 0 0 92 56 56 56 34 34 0 0 0 0 0 0 76 46 46 56 34 34 56 34 34 56 34 34 56 34 34 56 34 34 76 63 63 56 56 92 56 34 34 76 46 46 0 0 0 0 0 0 56 34 34 56 34 34 76 46 46 0 0 0 0 0 0 76 76 105 63 46 63 63 46 63 56 56 56 34 21 34 70 70 92 0 0 0 0 0 0 0 0 0 76 46 46 63 46 63 34 34 56 0 0 0 0 0 0 34 34 56 56 56 56 56 34 34 0 0 0 0 0 0 0 0 0 0 0 0 0 0 0 0 0 0 0 0 0 34 34 56 56 34 34 0 0 0 63 46 63 0 0 0 34 21 34 56 56 56 0 0 0 0 0 0 0 0 0 0 0 0 56 34 34 56 34 34 0 0 0 56 34 34 56 34 34 0 0 0 56 34 34 0 0 0 56 34 34 76 46 46 63 39 46 56 34 34 34 34 56 56 34 34 63 63 76 92 56 56 0 0 0 0 0 0 63 46 63 0 0 0 96 63 76 56 34 34 0 0 0 34 34 56 0 0 0 82 82 92 56 34 34 76 46 46 56 34 34 56 56 56 56 34 34 63 63 76 0 0 0 34 34 56 0 0 0 0 0 0 0 0 0 46 46 76 76 76 76 56 50 82 56 56 92 0 0 0 46 46 76 63 63 76 56 34 34 34 21 34 46 46 76 56 56 92 34 34 56 0 0 0 0 0 0 0 0 0 56 56 56 56 34 34 63 63 76 46 46 76 0 0 0 34 34 56 56 56 56 0 0 0 56 34 34 34 34 56 56 34 34 0 0 0 56 56 56 0 0 0 56 34 34 92 56 56 0 0 0 56 34 34 56 34 34 0 0 0 56 34 34 0 0 0 92 56 56 56 34 34 56 34 34 0 0 0 0 0 0 0 0 0 76 46 46 56 34 34 63 46 63 34 21 34 63 46 63 76 46 46 63 39 46 56 56 56 63 46 63 0 0 0 0 0 0 56 56 56 0 0 0 0 0 0 70 56 82 46 46 76 56 34 34 0 0 0 0 0 0 0 0 0 70 70 92 0 0 0 0 0 0 34 34 56 56 56 56 0 0 0 34 34 56 82 70 82 46 46 76 0 0 0 46 46 76 63 63 76 34 21 34 46 46 76 46 46 76 34 34 56 0 0 0 0 0 0 0 0 0 0 0 0 70 70 92 63 63 76 34 34 56 0 0 0 63 46 63 0 0 0 0 0 0 0 0 0 92 56 56 63 46 63 56 56 56 56 34 34 34 21 34 0 0 0 0 0 0 0 0 0 56 34 34 76 46 46 56 34 34 76 63 63 76 46 46 92 70 70 0 0 0 56 34 34 108 78 82 0 0 0 0 0 0 34 21 34 56 56 56 87 63 87 63 63 76 0 0 0 0 0 0 34 34 56 82 56 70 70 66 82 56 34 34 34 34 56 82 70 82 87 63 87 63 58 63 34 34 56 0 0 0 63 39 46 70 70 92 46 46 76 56 56 56 34 34 56 34 34 56 34 34 56 34 34 56 46 46 76 46 46 76 56 56 56 0 0 0 0 0 0 63 63 76 0 0 0 34 34 56 34 21 34 0 0 0 56 34 34 34 34 56 34 34 56 0 0 0 76 46 46 46 46 76 34 34 56 34 34 56 0 0 0 0 0 0 0 0 0 0 0 0 76 46 46 0 0 0 56 34 34 63 46 63 76 46 46 92 56 56 34 21 34 56 56 56 56 56 56 56 34 34 0 0 0 56 56 56 0 0 0 76 46 46 63 46 63 56 56 56 70 56 82 82 50 56 34 34 56 56 34 34 46 46 76 34 34 56 56 34 34 34 21 34 0 0 0 0 0 0 63 46 63 76 46 46 34 34 56 34 34 56 0 0 0 76 63 96 70 50 70 56 56 56 0 0 0 34 34 56 82 50 56 0 0 0 34 34 56 34 34 56 46 46 76 34 34 56 46 46 76 0 0 0 46 46 76 0 0 0 46 46 76 34 34 56 0 0 0 0 0 0 34 34 56 0 0 0 46 46 76 76 63 96 0 0 0 56 34 34 63 63 76 0 0 0 34 34 56 34 21 34 0 0 0 56 34 34 0 0 0 0 0 0 34 34 56 92 70 70 92 56 56 56 34 34 56 34 34 63 39 46 0 0 0 76 46 46 56 34 34 0 0 0 0 0 0 0 0 0 0 0 0 0 0 0 34 34 56 0 0 0 82 56 70 56 34 34 56 34 34 56 56 56 0 0 0 0 0 0 56 56 56 82 56 70 56 56 56 46 46 76 76 76 76 56 34 34 34 34 56 34 34 56 0 0 0 0 0 0 56 56 56 0 0 0 63 46 63 34 21 34 34 34 56 0 0 0 34 34 56 0 0 0 0 0 0 46 46 76 46 46 76 76 72 96 34 34 56 63 63 76 0 0 0 46 46 76 34 34 56 34 34 56 34 34 56 0 0 0 0 0 0 0 0 0 34 34 56 34 34 56 46 39 63 0 0 0 0 0 0 0 0 0 0 0 0 0 0 0 0 0 0 76 46 46 63 39 46 56 34 34 0 0 0 34 21 34 56 34 34 76 63 63 34 34 56 63 46 63 0 0 0 0 0 0 56 34 34 0 0 0 76 46 46 56 34 34 76 46 46 0 0 0 63 39 46 56 34 34 0 0 0 0 0 0 70 50 70 76 46 46 76 76 76 34 34 56 34 34 56 56 34 34 56 34 34 63 39 46 34 34 56 56 34 34 0 0 0 0 0 0 63 63 76 56 34 34 56 56 56 0 0 0 0 0 0 34 34 56 63 63 76 63 46 63 76 63 63 63 46 63 46 46 76 34 34 56 63 63 76 0 0 0 0 0 0 0 0 0 0 0 0 63 46 63 0 0 0 63 46 63 76 76 105 46 46 76 0 0 0 46 46 76 0 0 0 63 46 63 56 34 34 0 0 0 0 0 0 0 0 0 0 0 0 56 34 34 0 0 0 0 0 0 76 46 46 0 0 0 76 46 46 0 0 0 82 50 56 56 34 34 56 34 34 34 34 56 34 21 34 76 46 46 0 0 0 56 56 56 0 0 0 92 56 56 70 50 70 0 0 0 76 46 46 0 0 0 0 0 0 0 0 0 56 34 34 63 58 63 56 34 34 56 34 34 34 34 56 0 0 0 56 34 34 0 0 0 56 56 56 46 46 76 34 34 56 46 46 76 92 56 56 0 0 0 34 34 56 34 34 56 70 70 92 46 46 76 82 56 70 34 34 56 0 0 0 56 56 56 0 0 0 34 34 56 56 56 56 46 39 63 63 46 63 46 46 76 0 0 0 0 0 0 63 46 63 46 46 76 56 56 92 76 63 96 46 46 76 0 0 0 34 34 56 0 0 0 0 0 0 0 0 0 56 34 34 0 0 0 56 34 34 0 0 0 56 34 34 76 46 46 56 43 70 82 66 70 105 63 63 56 34 34 0 0 0 0 0 0 0 0 0 56 34 34 76 46 46 92 56 56 76 46 46 92 56 56 63 46 63 56 34 34 56 34 34 0 0 0 0 0 0 70 56 82 56 56 56 56 34 34 34 21 34 56 34 34 56 34 34 46 46 76 0 0 0 0 0 0 0 0 0 56 34 34 34 34 56 70 70 92 0 0 0 34 34 56 34 34 56 34 34 56 56 56 56 0 0 0 56 34 34 34 34 56 0 0 0 46 46 76 34 34 56 87 76 96 0 0 0 34 34 56 34 34 56 46 46 76 0 0 0 0 0 0 0 0 0 0 0 0 34 34 56 0 0 0 34 34 56 34 34 56 34 34 56 34 34 56 56 34 34 46 39 63 56 34 34 56 34 34 56 34 34 56 34 34 82 66 70 56 34 34 0 0 0 76 63 63 76 46 46 0 0 0 56 34 34 0 0 0 56 34 34 0 0 0 0 0 0 0 0 0 0 0 0 76 63 63 76 46 46 0 0 0 63 46 63 56 34 34 82 66 70 56 56 56 0 0 0 76 63 63 0 0 0 108 82 92 34 34 56 76 46 46 76 46 46 0 0 0 0 0 0 0 0 0 0 0 0 56 34 34 100 82 100 46 39 63 34 34 56 46 46 76 34 34 56 34 34 56 70 66 82 0 0 0 34 34 56 0 0 0 34 34 56 0 0 0 46 46 76 0 0 0 34 34 56 56 56 56 46 46 76 0 0 0 46 46 76 34 34 56 46 46 76 34 34 56 0 0 0 34 34 56 34 34 56 34 34 56 0 0 0 56 34 34 0 0 0 76 46 46 63 46 63 0 0 0 82 56 70 0 0 0 0 0 0 0 0 0 0 0 0 82 56 70 0 0 0 0 0 0 56 34 34 0 0 0 0 0 0 56 34 34 0 0 0 56 34 34 0 0 0 56 34 34 56 56 92 0 0 0 63 46 63 56 56 56 56 34 34 34 34 56 0 0 0 76 46 46 34 34 56 0 0 0 56 34 34 0 0 0 0 0 0 34 34 56 0 0 0 0 0 0 34 34 56 0 0 0 0 0 0 0 0 0 46 46 76 0 0 0 34 34 56 0 0 0 0 0 0 46 39 63 70 70 92 70 66 82 46 39 63 0 0 0 56 56 92 34 34 56 0 0 0 0 0 0 0 0 0 34 34 56 0 0 0 0 0 0 34 34 56 46 46 76 34 34 56 0 0 0 0 0 0 0 0 0 56 34 34 34 34 56 76 46 46 56 34 34 56 34 34 76 63 63 56 56 56 0 0 0 63 39 46 92 56 56 0 0 0 0 0 0 82 56 70 63 39 46 76 46 46 34 34 56 0 0 0 56 34 34 0 0 0 56 56 56 0 0 0 0 0 0 0 0 0 82 70 82 34 34 56 0 0 0 63 46 63 34 34 56 0 0 0 0 0 0 0 0 0 0 0 0 34 34 56 70 66 82 46 46 76 34 34 56 34 34 56 34 34 56 34 34 56 0 0 0 0 0 0 0 0 0 56 56 56 56 34 34 0 0 0 0 0 0 34 34 56 34 34 56 34 34 56 0 0 0 56 56 92 0 0 0 76 46 46 0 0 0 34 34 56 34 34 56 0 0 0 46 46 76 63 58 63 34 34 56 34 34 56 0 0 0 0 0 0 76 46 46 0 0 0 92 56 56 56 34 34 56 34 34 34 21 34 56 34 34 0 0 0 56 34 34 0 0 0 76 46 46 56 34 34 56 34 34 76 46 46 76 46 46 56 34 34 34 34 56 56 34 34 63 46 63 70 66 82 0 0 0 34 34 56 56 34 34 56 56 56 0 0 0 34 34 56 0 0 0 34 21 34 76 46 46 0 0 0 0 0 0 0 0 0 0 0 0 56 56 56 0 0 0 0 0 0 0 0 0 0 0 0 0 0 0 0 0 0 0 0 0 56 34 34 0 0 0 34 34 56 0 0 0 0 0 0 34 34 56 34 34 56 0 0 0 56 34 34 76 46 46 0 0 0 0 0 0 56 50 82 34 34 56 63 39 46 76 63 63 34 21 34 34 34 56 0 0 0 34 34 56 0 0 0 0 0 0 0 0 0 0 0 0 96 63 76 56 34 34 56 34 34 56 34 34 76 46 46 96 63 76 92 56 56 0 0 0 63 46 63 63 58 63 56 34 34 63 39 46 0 0 0 56 34 34 56 34 34 0 0 0 46 46 76 56 34 34 0 0 0 56 34 34 34 34 56 34 34 56 0 0 0 34 34 56 82 56 70 63 46 63 0 0 0 0 0 0 0 0 0 56 34 34 56 34 34 0 0 0 34 34 56 0 0 0 56 56 56 46 46 76 0 0 0 0 0 0 0 0 0 34 34 56 56 34 34 0 0 0 0 0 0 63 46 63 0 0 0 34 34 56 63 46 63 56 56 92 34 34 56 46 46 76 0 0 0 0 0 0 34 34 56 34 34 56 34 34 56 0 0 0 34 34 56 0 0 0 0 0 0 0 0 0 63 63 76 0 0 0 0 0 0 34 34 56 34 34 56 92 70 70 76 63 63 0 0 0 0 0 0 0 0 0 0 0 0 56 34 34 92 56 56 56 34 34 0 0 0 0 0 0 56 34 34 76 63 63 56 34 34 56 56 56 0 0 0 34 34 56 0 0 0 0 0 0 34 21 34 0 0 0 0 0 0 92 70 70 56 34 34 34 34 56 34 34 56 0 0 0 0 0 0 0 0 0 34 34 56 0 0 0 56 34 34 0 0 0 56 56 92 34 34 56 0 0 0 34 34 56 34 34 56 63 46 63 0 0 0 0 0 0 46 39 63 34 34 56 0 0 0 63 58 96 0 0 0 0 0 0 46 39 63 34 34 56 0 0 0 0 0 0 34 34 56 56 56 92 0 0 0 34 34 56 34 34 56 46 46 76 0 0 0 63 63 76 0 0 0 63 63 76 0 0 0 76 63 63 56 34 34 82 56 70 0 0 0 76 46 46 0 0 0 0 0 0 0 0 0 0 0 0 56 34 34 56 34 34 56 34 34 56 34 34 56 34 34 0 0 0 56 34 34 56 34 34 56 34 34 0 0 0 56 34 34 63 46 63 56 34 34 0 0 0 56 56 56 0 0 0 0 0 0 56 34 34 0 0 0 0 0 0 34 34 56 46 39 63 46 46 76 56 34 34 34 34 56 0 0 0 34 34 56 76 46 46 0 0 0 34 34 56 0 0 0 0 0 0 0 0 0 0 0 0 63 63 76 0 0 0 0 0 0 34 34 56 0 0 0 34 34 56 34 34 56 82 82 92 34 34 56 56 34 34 34 34 56 34 34 56 0 0 0 34 34 56 56 34 34 0 0 0 46 46 76 34 34 56 56 56 56 0 0 0 34 34 56 34 21 34 0 0 0 56 34 34 56 34 34 56 34 34 0 0 0 56 56 56 56 34 34 56 34 34 34 34 56 46 39 63 0 0 0 56 34 34 46 39 63 76 46 46 0 0 0 0 0 0 0 0 0 0 0 0 76 46 46 0 0 0 76 63 96 0 0 0 63 46 63 0 0 0 0 0 0 0 0 0 56 34 34 0 0 0 0 0 0 0 0 0 0 0 0 0 0 0 0 0 0 56 50 82 0 0 0 0 0 0 0 0 0 0 0 0 70 56 82 56 56 92 46 46 76 0 0 0 34 34 56 0 0 0 70 56 82 56 34 34 34 34 56 0 0 0 34 34 56 0 0 0 0 0 0 0 0 0 0 0 0 34 34 56 0 0 0 34 34 56 0 0 0 56 56 92 0 0 0 63 53 87 34 34 56 63 39 46 34 34 56 34 34 56 92 56 56 0 0 0 56 34 34 34 34 56 56 34 34 63 63 76 0 0 0 56 34 34 0 0 0 0 0 0 34 34 56 0 0 0 0 0 0 0 0 0 34 34 56 0 0 0 76 63 63 0 0 0 0 0 0 0 0 0 0 0 0 76 46 46 56 34 34 76 46 46 34 34 56 92 56 56 0 0 0 0 0 0 46 39 63 0 0 0 46 39 63 56 34 34 56 34 34 0 0 0 34 34 56 56 34 34 34 34 56 56 34 34 56 34 34 0 0 0 56 56 56 0 0 0 0 0 0 0 0 0 34 34 56 46 46 76 63 46 63 34 34 56 56 56 56 0 0 0 0 0 0 34 34 56 56 34 34 63 46 63 0 0 0 0 0 0 0 0 0 0 0 0 63 63 76 34 34 56 34 34 56 34 21 34 34 34 56 92 56 56 0 0 0 0 0 0 76 46 46 76 46 46 56 34 34 76 46 46 0 0 0 56 34 34 56 34 34 34 34 56 0 0 0 56 34 34 0 0 0 0 0 0 0 0 0 56 34 34 56 34 34 76 46 46 0 0 0 56 34 34 34 34 56 0 0 0 46 39 63 34 34 56 0 0 0 0 0 0 0 0 0 76 46 46 56 34 34 76 46 46 0 0 0 34 21 34 0 0 0 0 0 0 63 46 63 0 0 0 0 0 0 0 0 0 0 0 0 0 0 0 56 34 34 34 34 56 0 0 0 34 34 56 0 0 0 0 0 0 46 39 63 70 56 82 34 34 56 46 46 76 46 46 76 0 0 0 0 0 0 0 0 0 0 0 0 34 34 56 34 34 56 34 34 56 0 0 0 0 0 0 46 46 76 34 34 56 0 0 0 0 0 0 0 0 0 56 34 34 0 0 0 56 34 34 0 0 0 63 46 63 0 0 0 34 21 34 56 34 34 0 0 0 56 34 34 56 34 34 56 34 34 0 0 0 0 0 0 0 0 0 0 0 0 0 0 0 34 21 34 0 0 0 0 0 0 34 34 56 0 0 0 56 34 34 0 0 0 0 0 0 0 0 0 34 21 34 0 0 0 0 0 0 0 0 0 56 34 34 56 34 34 0 0 0 0 0 0 0 0 0 0 0 0 0 0 0 0 0 0 34 21 34 0 0 0 0 0 0 34 21 34 34 34 56 0 0 0 34 21 34 0 0 0 0 0 0 0 0 0 34 34 56 0 0 0 0 0 0 56 56 56 0 0 0 46 46 76 34 34 56 34 34 56 0 0 0 0 0 0 0 0 0 0 0 0 0 0 0 34 34 56 