P3
64 64
255
74 63 68 85 74 77 83 76 79 87 76 78 82 77 79 86 77 80 99 94 97 95 88 89 86 79 81 88 81 83 85 80 82 87 81 82 93 87 88 98 93 95 94 87 91 90 84 88 98 93 95 100 97 99 88 83 87 92 87 90 94 90 92 97 93 97 99 94 98 75 71 74 89 85 90 101 99 102 92 91 94 91 87 92 83 79 84 96 94 99 85 82 87 92 90 95 90 89 95 93 92 98 87 86 93 85 83 90 84 82 90 93 91 102 79 78 86 85 83 90 84 83 90 90 88 96 89 89 97 79 77 89 88 87 94 84 83 94 82 81 95 83 82 96 82 80 91 88 88 98 84 83 96 89 88 96 89 88 100 90 89 100 88 87 97 88 87 99 86 85 97 87 87 100 83 82 98 87 86 97 88 87 101 84 83 95 84 83 101 56 56 86 56 52 53 88 81 83 84 77 78 88 80 81 93 85 87 89 82 83 93 89 91 93 88 91 96 91 94 101 95 98 101 96 97 100 95 96 98 94 96 95 91 93 104 101 102 106 101 103 107 103 105 107 101 104 97 93 95 107 105 107 103 100 103 90 86 90 86 83 85 104 100 102 95 92 96 100 98 102 102 99 103 105 103 107 97 95 98 99 96 100 93 92 96 105 102 106 95 93 97 85 83 90 102 100 104 95 94 99 93 91 99 96 95 101 98 97 105 96 95 100 94 93 101 92 90 99 99 98 106 95 94 103 93 92 99 93 92 101 96 96 103 91 89 96 88 87 97 81 80 92 90 89 99 93 93 105 92 91 103 90 89 99 90 89 102 95 94 102 88 88 100 80 79 92 84 84 96 86 86 100 89 88 101 89 89 106 69 68 97 57 56 98 47 43 44 96 86 89 71 66 69 92 87 90 99 93 95 97 92 93 114 108 110 103 97 100 115 110 112 112 104 106 106 100 101 111 106 108 103 99 100 100 96 99 103 100 101 113 109 110 105 102 103 116 111 113 99 96 98 103 99 103 107 105 107 117 115 117 108 106 108 108 105 108 109 105 107 114 111 112 113 111 114 100 97 101 109 108 111 103 101 106 109 107 109 103 101 107 110 107 112 108 107 112 108 106 111 95 93 96 110 109 113 99 97 103 103 102 105 96 95 100 104 103 107 109 108 113 101 99 107 98 97 104 109 109 115 103 102 112 114 113 122 109 108 113 107 106 113 108 108 115 96 95 107 103 102 110 109 108 117 103 102 112 105 104 113 107 106 116 96 95 105 101 99 110 103 102 113 101 100 111 100 100 112 90 90 105 68 68 100 53 52 93 52 47 49 83 74 75 94 91 93 89 82 85 103 95 97 99 93 95 105 101 102 103 95 98 107 103 104 101 95 98 105 100 103 108 105 108 113 109 111 118 114 116 105 100 103 107 104 107 110 106 108 115 111 112 114 110 112 112 108 111 113 111 113 108 105 108 110 107 111 108 106 108 109 106 110 105 103 105 112 109 113 96 92 95 108 106 112 109 108 111 118 116 122 104 101 106 97 96 104 107 105 110 105 102 109 108 106 112 113 111 117 99 98 103 98 98 105 107 106 111 102 101 109 100 98 104 107 106 113 98 97 103 101 101 110 99 97 106 100 99 107 106 105 113 113 112 119 100 100 110 102 101 107 103 102 111 110 109 119 96 95 104 95 94 104 107 106 112 100 100 109 98 98 107 96 95 105 107 106 117 94 93 105 102 101 114 65 64 102 56 56 101 40 37 39 94 85 87 97 89 92 91 86 88 92 86 89 107 99 101 104 99 100 99 94 97 100 92 93 107 104 106 113 109 110 101 96 100 110 104 106 108 103 106 107 104 107 111 106 109 110 104 106 108 105 107 108 102 104 108 104 106 107 103 106 118 115 117 106 103 106 105 100 102 110 107 108 100 96 99 111 107 110 100 98 101 101 99 101 99 97 101 94 91 94 96 95 100 103 100 104 95 94 100 98 96 100 89 88 96 99 97 102 89 87 92 93 92 99 100 99 106 98 96 102 98 97 105 110 109 113 96 94 101 100 100 107 113 111 120 99 98 105 102 101 110 96 95 103 98 97 110 95 95 102 102 101 109 104 104 117 96 95 106 97 97 108 101 100 110 97 95 105 108 107 120 94 93 105 91 91 106 86 85 101 99 98 110 61 60 99 57 56 99 45 41 41 90 82 83 96 90 92 101 92 94 110 106 108 108 102 104 113 107 109 101 94 97 109 102 104 112 106 109 105 102 104 120 115 119 110 107 109 112 107 110 108 102 104 119 115 117 116 112 113 106 102 105 109 106 109 118 115 118 101 98 102 114 110 111 111 108 111 113 111 114 109 107 110 103 99 102 101 99 103 99 97 100 89 86 92 86 83 89 80 77 82 88 86 90 81 79 84 71 69 76 79 77 81 79 77 85 84 83 89 78 76 82 93 92 98 94 93 100 87 86 94 91 89 98 94 93 99 95 95 102 104 103 110 97 97 107 102 101 110 93 92 101 90 88 98 104 103 112 93 92 101 104 103 112 103 103 113 101 99 110 96 96 109 96 95 103 92 91 102 96 95 108 99 98 105 104 104 117 91 91 104 101 100 112 69 69 106 57 56 99 40 34 36 86 78 81 91 82 85 82 74 76 104 96 98 102 96 98 110 105 107 101 94 95 107 101 102 106 101 102 106 101 103 107 102 104 108 102 105 110 106 110 107 104 107 106 101 104 118 113 115 104 100 102 125 120 124 119 116 118 114 112 114 110 107 110 102 100 103 113 109 111 97 94 95 94 90 94 88 84 88 82 78 81 79 74 80 74 70 75 76 72 78 72 70 75 62 60 67 68 65 72 70 68 77 64 63 70 67 65 74 66 64 74 70 68 80 76 75 84 79 78 87 76 76 88 87 84 94 95 93 102 90 89 98 96 95 105 94 93 103 102 101 110 110 108 115 98 98 109 93 92 103 110 109 118 97 95 106 97 96 108 106 104 115 89 89 102 100 99 113 94 93 103 100 99 114 99 98 113 89 88 101 99 99 112 60 60 93 50 49 90 49 46 47 97 89 91 88 82 84 91 82 85 103 96 98 103 96 98 95 90 92 100 96 99 105 95 96 104 97 98 107 102 104 110 104 105 105 98 101 114 111 113 101 96 98 112 109 110 112 106 108 110 107 108 114 112 114 97 91 95 105 102 104 103 100 102 85 83 87 86 81 85 75 70 73 73 68 72 70 66 72 60 57 61 63 60 64 62 58 64 61 58 63 68 67 72 72 69 74 64 62 66 67 65 72 66 63 72 64 60 68 61 60 66 58 57 67 65 63 74 61 59 71 68 65 78 68 66 73 79 77 88 86 85 96 87 87 97 90 90 101 95 94 106 105 104 112 100 99 108 97 97 107 96 95 107 99 97 109 97 97 107 95 94 104 97 96 106 99 98 108 89 88 101 97 96 108 103 102 112 101 100 112 94 94 106 60 59 96 53 52 92 38 34 34 92 86 88 94 85 88 101 93 95 96 89 90 102 95 96 99 92 95 104 98 100 97 91 93 111 104 106 105 99 101 106 102 104 111 107 110 96 90 92 115 109 111 112 108 110 105 102 104 123 119 120 106 100 103 95 91 94 90 85 87 76 68 71 66 61 66 72 68 71 72 70 74 68 64 69 61 58 60 66 62 67 58 54 59 75 73 76 67 65 69 65 64 70 68 67 71 74 73 78 70 68 75 65 64 70 62 60 69 68 66 73 61 58 67 61 59 72 62 61 72 67 65 78 60 58 73 70 68 79 76 74 89 62 60 74 80 78 90 86 85 96 87 86 97 103 102 111 109 108 118 100 99 111 98 97 109 100 99 110 87 85 97 99 97 109 89 89 100 103 102 113 95 94 110 96 95 107 94 94 107 88 88 103 65 65 102 50 49 89 41 35 37 102 93 95 102 95 96 92 82 84 91 85 89 111 105 107 102 96 98 111 106 107 98 94 96 109 103 105 112 107 108 111 106 107 109 103 105 107 103 104 117 113 114 106 102 104 107 103 105 108 105 107 90 86 89 81 75 77 75 70 72 70 66 71 69 67 69 69 65 67 73 70 72 74 69 73 78 75 79 68 65 68 74 72 78 70 68 73 70 68 72 72 69 73 70 66 74 67 66 69 71 69 76 66 65 76 67 66 72 71 70 78 58 57 66 60 58 68 62 61 73 61 59 71 53 53 65 64 62 74 60 59 72 64 62 79 74 73 87 79 79 89 86 85 97 94 93 105 97 96 108 92 91 105 94 94 104 105 105 115 98 97 107 101 101 111 100 100 112 91 90 103 100 100 114 99 98 110 103 103 116 97 97 111 63 62 99 52 50 92 42 37 38 97 89 90 99 92 94 107 100 103 90 82 85 97 90 92 101 94 96 107 101 103 108 104 106 106 102 104 119 114 115 107 101 102 103 98 101 110 107 108 108 105 106 113 108 109 104 100 101 92 88 90 73 70 71 67 61 64 75 71 74 74 71 74 80 77 80 72 68 72 67 63 68 78 74 79 85 82 86 74 72 75 80 78 81 82 79 85 82 80 84 65 63 70 78 76 82 75 72 79 76 72 81 69 67 76 63 60 67 65 65 71 59 57 68 61 59 69 61 59 68 62 60 75 64 63 73 61 59 70 61 60 69 58 56 74 57 55 69 66 64 78 73 72 84 77 76 89 95 94 103 85 84 98 94 93 105 99 99 112 105 104 115 99 98 108 109 109 119 83 81 93 99 99 110 98 97 110 99 98 110 101 100 113 62 61 94 55 54 99 41 33 33 91 84 87 85 76 76 99 89 91 102 96 97 92 82 83 106 99 102 105 99 101 116 112 113 102 97 99 116 112 114 106 101 104 107 101 103 106 102 103 111 107 109 102 97 98 79 74 75 69 63 65 80 75 76 77 73 77 77 73 78 76 72 75 74 71 75 75 71 76 76 73 76 80 77 81 78 77 82 77 75 80 73 69 76 71 68 72 80 78 83 73 70 75 82 81 86 76 74 77 81 79 84 70 69 76 75 73 80 64 62 69 71 71 82 62 61 69 63 62 71 60 58 71 67 65 73 60 59 74 61 59 72 61 60 73 64 64 74 63 62 79 62 62 76 64 63 80 72 71 83 77 77 92 92 91 103 94 93 105 106 106 116 97 96 108 101 101 111 92 92 104 91 90 102 105 104 117 102 101 113 90 89 108 55 55 94 56 55 99 51 45 46 95 85 87 108 100 102 98 90 92 97 88 90 108 101 103 108 104 105 93 86 88 102 96 98 112 107 108 105 99 100 99 95 96 124 119 120 113 110 111 98 91 93 75 70 73 60 56 58 76 71 74 77 71 74 76 73 75 83 80 82 92 87 90 86 82 84 91 89 91 77 74 76 78 75 79 77 75 79 72 71 75 73 71 75 81 78 85 74 72 76 73 72 77 80 78 83 77 75 79 75 73 76 77 75 83 77 76 84 67 65 72 71 69 77 63 62 70 78 77 86 71 69 78 59 58 68 63 63 69 56 54 68 56 55 69 55 55 69 56 55 68 57 56 75 65 64 79 68 67 86 86 85 99 80 79 95 90 89 101 92 92 103 108 108 118 96 95 106 102 101 110 110 110 120 100 100 110 96 95 111 104 104 116 63 62 97 57 56 98 43 41 42 84 76 78 92 84 87 95 85 87 97 92 94 99 90 92 95 89 91 113 106 108 101 97 98 114 110 112 108 103 104 107 103 104 113 106 107 101 97 99 78 71 73 80 76 78 81 76 79 78 74 76 79 76 78 80 74 77 85 78 80 67 62 64 84 82 86 74 69 74 83 80 83 82 79 82 72 70 73 71 67 71 83 80 84 77 75 80 84 81 85 81 80 84 82 79 83 74 73 80 75 74 82 72 71 77 78 76 83 67 65 73 66 63 71 67 67 74 66 65 72 65 64 76 73 71 79 65 64 75 55 53 68 56 53 68 61 60 73 55 54 66 61 60 78 56 55 76 57 56 80 78 77 92 73 72 89 91 90 104 99 99 114 97 96 110 101 100 111 100 99 112 112 111 124 95 94 105 89 89 104 99 98 111 56 55 95 53 52 94 43 39 40 88 81 83 102 94 97 95 88 90 109 102 103 99 93 94 102 94 96 108 104 105 111 107 108 112 106 107 110 104 105 114 107 108 98 90 91 77 71 73 73 66 70 84 77 79 79 75 76 77 72 75 86 82 85 87 85 86 82 78 83 83 80 83 92 89 92 86 83 87 88 86 89 88 85 89 87 85 89 81 78 82 83 82 85 76 73 77 77 76 80 77 75 79 75 73 80 78 76 82 77 76 81 71 69 77 76 75 80 80 78 85 69 68 77 79 78 85 67 66 75 77 77 87 81 80 87 64 61 76 64 63 73 57 55 67 64 64 76 60 59 73 53 52 66 62 61 77 51 50 67 59 58 78 68 68 84 83 83 98 93 93 103 92 91 105 97 96 105 100 99 113 91 90 103 91 90 102 99 98 114 98 98 114 69 68 107 53 52 93 37 33 33 88 79 81 88 81 83 104 94 95 113 105 106 88 80 81 95 88 89 93 89 91 109 103 104 106 101 102 109 103 104 105 100 103 79 76 78 69 64 68 84 78 80 82 76 77 83 78 81 90 84 88 87 83 85 85 81 82 88 84 87 82 78 81 85 81 83 76 70 73 85 83 87 83 80 85 73 70 76 78 75 79 86 83 87 92 90 92 79 77 83 81 78 83 81 80 86 89 88 91 80 79 84 77 75 79 81 80 87 76 73 79 80 79 87 77 76 85 73 72 82 72 70 75 68 67 79 69 68 80 66 66 75 62 61 71 59 57 72 64 63 83 49 48 62 53 52 67 59 58 75 57 55 72 59 58 83 71 70 87 74 73 89 93 92 111 102 102 114 100 99 109 98 96 108 103 102 115 92 91 108 92 90 106 65 65 100 52 51 94 46 39 39 96 89 92 105 98 99 102 95 97 99 90 92 108 101 102 105 100 102 101 93 95 103 96 97 104 98 99 111 105 106 80 71 73 67 59 61 80 73 74 76 73 76 74 69 71 91 86 89 85 81 83 81 77 79 86 82 86 87 82 84 81 76 78 97 94 96 91 88 90 87 85 88 81 78 81 85 84 87 74 72 78 84 81 83 82 82 88 92 89 92 91 88 92 82 79 85 80 78 85 92 90 98 79 78 84 77 76 82 73 72 77 76 74 82 78 76 84 75 74 84 68 68 78 77 76 84 60 59 70 62 59 70 71 70 84 68 67 81 69 66 82 54 53 67 48 47 64 55 54 74 69 68 88 59 56 79 57 56 74 71 70 85 80 79 93 94 93 104 90 89 99 93 93 105 98 98 114 105 104 119 97 96 113 69 69 106 56 55 99 52 43 43 88 79 83 94 83 85 101 95 97 113 105 106 100 93 95 101 96 96 106 99 101 105 94 95 102 94 96 85 79 82 75 69 72 81 77 79 81 74 76 74 69 72 86 80 83 76 70 72 88 85 87 88 85 86 95 91 92 85 81 83 87 83 86 84 80 83 89 85 88 91 89 91 91 88 93 90 86 90 90 88 91 91 88 92 88 86 89 88 87 91 97 95 97 85 84 89 80 78 84 70 69 73 87 84 90 73 71 79 83 82 87 79 77 85 83 82 89 84 83 90 68 67 78 65 63 71 70 69 79 70 70 78 65 64 74 63 61 75 68 67 78 49 46 66 61 59 71 53 52 69 59 58 75 54 53 72 58 55 76 68 67 87 69 67 88 88 86 98 86 84 96 94 93 107 90 89 103 96 96 108 96 96 111 64 63 98 48 48 89 41 38 38 96 87 89 93 84 86 92 85 85 96 88 90 87 80 82 99 91 92 99 94 95 97 92 94 98 90 91 71 63 65 70 64 66 76 70 72 79 73 75 76 68 70 95 89 90 71 64 65 92 88 91 96 94 97 93 88 90 91 87 89 94 91 93 87 85 87 91 87 91 95 92 95 97 94 97 82 80 83 88 84 87 82 80 85 88 87 90 78 76 80 86 85 89 82 80 86 75 73 79 87 86 91 83 81 88 81 78 84 84 82 88 79 76 82 80 79 89 74 70 78 79 76 82 84 82 90 72 70 82 64 64 76 72 71 82 66 65 81 77 76 91 70 69 86 60 59 74 53 51 68 54 53 72 54 53 72 43 42 60 51 51 71 66 66 87 82 82 95 100 99 111 93 93 102 85 84 96 96 95 105 95 95 108 69 68 99 49 49 89 45 41 41 95 87 88 107 97 97 105 98 99 102 92 93 93 86 88 108 101 102 106 100 102 111 106 106 79 70 72 66 59 62 76 65 66 83 76 79 81 74 77 81 73 76 85 82 83 85 82 84 84 81 84 78 74 77 96 91 94 95 91 94 94 91 92 92 90 92 88 85 88 95 92 96 89 87 90 87 85 88 89 87 90 93 90 94 91 90 95 93 92 97 92 90 94 81 80 86 80 78 82 86 84 91 94 93 99 80 78 83 78 76 83 90 88 94 75 74 83 76 74 86 83 82 92 69 68 78 72 71 83 71 70 81 82 81 94 71 71 82 63 62 75 56 55 71 61 59 75 56 54 71 54 52 70 51 50 73 54 53 73 48 47 72 64 63 84 77 77 93 91 91 106 95 95 109 107 106 117 101 101 115 88 87 103 68 68 110 49 48 87 39 33 33 94 84 86 94 86 87 100 94 95 94 88 88 107 100 101 102 95 97 101 94 95 95 87 88 75 68 69 69 64 66 81 74 76 76 70 72 73 69 71 88 83 85 88 82 84 77 72 75 89 86 87 97 92 95 92 88 90 88 85 87 91 88 91 92 90 92 92 91 93 91 88 92 98 96 100 87 85 89 86 85 87 91 89 91 90 87 92 85 82 87 86 85 90 89 86 90 86 84 89 86 84 91 92 91 95 91 90 95 89 87 94 86 85 93 80 78 87 73 71 78 80 78 88 68 67 75 68 67 79 69 68 79 71 70 80 69 68 78 68 67 80 69 68 85 64 64 81 63 62 77 60 59 78 53 52 72 50 49 71 54 53 77 60 59 80 69 68 87 87 87 105 101 101 116 102 102 114 106 106 117 91 90 107 62 61 96 50 49 90 45 40 40 94 88 89 96 88 89 94 87 88 99 92 93 105 98 99 102 94 95 92 86 87 80 65 67 73 66 69 82 74 76 80 74 76 79 73 74 90 83 85 85 79 81 93 88 90 89 86 87 91 87 90 89 85 89 80 75 77 96 94 97 94 91 94 92 89 91 92 89 92 89 87 90 89 88 92 93 91 93 97 95 97 90 88 92 86 83 86 98 96 100 93 91 95 87 86 88 90 90 95 83 82 86 85 83 88 95 94 99 73 72 77 79 78 85 80 79 88 79 78 87 81 80 87 78 77 86 76 75 86 72 71 85 67 66 79 75 75 84 72 71 82 66 64 78 64 63 80 48 47 66 51 49 71 52 51 73 48 46 69 41 40 65 55 54 80 64 63 82 75 74 90 87 85 102 102 101 114 93 92 105 104 104 116 62 62 101 57 56 101 41 36 38 100 92 93 90 81 82 95 86 88 86 77 78 98 89 91 109 102 103 86 76 78 72 63 64 79 74 75 85 80 82 86 80 83 88 84 85 83 79 80 93 88 90 95 92 93 90 86 88 87 83 84 90 85 87 96 91 93 96 92 94 95 91 93 92 89 92 84 82 86 87 85 86 97 96 99 86 83 86 95 93 95 102 101 104 86 84 86 108 106 109 91 90 96 89 87 91 92 90 96 84 82 89 94 92 98 95 94 100 90 88 93 96 95 101 85 84 92 87 86 93 78 76 84 75 74 85 82 80 90 70 69 80 71 70 82 78 77 91 72 70 82 70 69 81 63 62 80 61 60 79 64 63 80 57 55 75 46 44 67 49 49 70 51 49 75 67 66 83 82 81 96 94 94 107 96 95 109 94 93 108 80 79 95 64 64 101 49 49 90 48 45 45 95 90 91 91 84 86 100 94 95 103 95 96 101 95 95 108 98 99 75 64 65 80 71 72 80 73 76 79 74 76 76 67 69 89 82 84 96 92 93 90 83 84 98 96 98 96 93 96 89 85 88 109 106 108 96 92 95 93 90 93 97 94 96 90 89 91 97 94 96 100 98 101 103 102 105 88 86 90 95 93 97 93 91 93 99 97 100 96 94 97 89 87 92 86 84 88 94 93 97 85 83 89 102 101 107 76 75 81 92 91 97 71 70 81 85 83 88 78 77 85 90 89 97 84 83 90 72 71 80 73 72 83 74 72 80 71 70 82 70 68 80 60 59 73 53 53 71 65 63 81 58 58 74 44 43 55 55 53 77 48 47 65 52 51 77 53 52 77 67 66 87 86 86 101 91 90 101 98 98 113 90 90 108 69 69 104 50 50 91 50 45 46 99 88 89 98 93 93 97 88 90 98 92 93 98 88 90 93 84 86 70 62 63 77 70 71 85 78 80 95 88 89 76 69 70 88 82 85 89 86 87 80 75 77 89 85 87 96 90 92 87 82 83 99 95 97 96 93 96 104 102 103 94 91 93 101 98 100 93 90 93 93 92 94 106 103 105 98 97 100 94 93 95 90 88 92 100 99 102 87 86 91 86 85 90 93 92 97 90 89 93 85 83 88 98 97 102 76 75 83 87 86 92 82 80 85 95 94 99 92 91 97 86 84 92 86 85 94 72 71 84 80 79 87 78 77 87 75 75 86 73 72 84 67 67 84 64 63 77 60 59 72 53 51 69 56 54 73 46 45 62 48 47 69 53 52 77 48 48 72 59 58 75 78 78 94 98 98 110 93 93 106 96 96 109 64 63 102 49 49 92 52 48 48 88 79 79 97 87 88 105 99 100 99 92 93 93 84 85 78 67 68 71 60 62 79 72 74 89 82 83 83 77 79 95 89 91 93 89 90 82 75 77 100 95 96 100 97 99 92 88 89 91 88 90 94 92 93 105 101 103 99 97 99 94 93 95 104 101 102 95 90 94 100 97 99 98 97 100 101 98 103 86 85 87 89 87 91 93 91 95 93 92 96 95 93 98 94 93 98 88 87 94 92 91 96 90 89 95 89 87 90 93 92 97 90 88 95 78 76 84 82 81 85 83 82 91 74 73 83 74 73 83 76 75 85 83 82 92 78 77 89 80 79 91 72 71 86 69 69 83 66 64 79 61 60 75 55 54 69 52 51 73 55 54 75 47 46 71 53 52 77 54 54 74 74 73 90 81 81 96 94 93 108 101 101 115 60 60 104 58 58 105 37 33 34 90 83 84 97 87 88 101 93 96 101 93 95 99 94 95 72 57 59 85 78 78 73 65 66 90 83 85 79 74 75 90 86 87 94 89 91 83 79 80 99 96 98 98 94 95 94 87 89 98 94 97 91 86 89 95 92 94 94 91 92 100 97 99 94 91 93 104 103 105 105 104 108 97 95 98 97 94 96 95 93 95 98 97 99 92 91 93 94 93 96 89 88 92 80 79 85 98 97 102 88 86 89 108 107 109 94 92 99 88 87 92 92 91 96 84 83 87 85 84 91 82 81 90 85 84 91 72 71 82 71 70 80 75 74 85 82 80 93 76 75 87 84 82 92 61 60 74 62 61 72 69 69 83 66 64 82 56 54 81 51 51 66 45 44 66 47 45 66 60 59 79 75 74 91 93 92 105 91 90 105 90 90 108 57 57 96 50 50 92 51 46 47 94 85 86 96 89 91 95 87 87 100 91 92 91 80 81 72 62 64 73 66 66 82 75 77 75 70 72 89 84 85 88 84 86 84 78 81 93 87 89 85 80 82 99 96 97 88 84 85 91 89 91 98 95 97 94 90 92 100 97 99 94 92 95 110 107 108 100 98 100 97 95 98 104 102 104 93 92 94 93 91 94 95 93 97 99 97 100 101 100 102 84 83 87 96 94 99 93 92 98 91 90 94 97 97 100 83 81 89 91 91 97 85 84 90 90 89 97 79 78 86 86 85 91 84 83 91 74 73 82 78 76 84 71 70 81 77 76 87 80 79 89 72 71 81 67 66 80 71 69 84 63 62 78 71 70 85 53 52 72 56 54 76 49 48 71 53 52 73 50 49 69 69 69 85 84 84 97 101 101 114 92 92 106 63 63 97 50 49 96 41 37 37 90 85 86 90 82 83 95 87 88 97 88 90 94 85 86 74 62 64 82 73 74 79 74 74 85 78 81 94 89 91 97 93 94 88 84 85 96 91 93 94 90 91 103 100 101 88 84 85 104 102 104 95 90 92 95 93 96 98 95 97 100 98 101 98 96 97 96 95 97 95 93 95 97 95 98 106 105 108 100 98 100 101 100 103 96 95 99 89 87 89 80 79 83 99 97 100 83 82 87 86 85 93 84 83 89 88 87 91 98 96 101 87 85 91 86 84 91 91 89 97 95 94 102 79 78 88 82 81 90 76 75 85 81 79 89 78 78 92 79 79 91 76 76 88 64 63 84 66 65 81 68 67 82 67 65 79 57 56 76 58 57 76 43 42 67 47 47 75 52 50 73 70 70 85 90 89 107 88 88 102 107 107 120 67 67 102 51 51 96 44 39 39 85 78 78 88 77 77 103 95 96 102 96 97 78 72 73 72 62 64 75 68 69 89 83 85 90 84 86 87 80 81 82 78 80 97 93 95 75 70 71 89 85 87 97 94 96 96 93 94 96 93 96 95 90 93 94 91 92 100 98 99 107 104 105 92 88 91 95 92 94 99 97 100 94 91 92 100 99 102 101 100 102 99 98 101 98 96 100 95 93 95 100 99 102 92 91 95 93 92 97 100 99 102 94 93 99 94 93 98 86 84 90 78 77 89 84 84 90 86 85 91 92 92 101 80 80 89 92 92 98 79 78 88 82 81 90 68 67 78 81 81 93 68 67 77 76 75 89 72 72 87 65 64 80 61 59 80 63 63 77 51 50 75 45 44 72 48 46 70 49 49 75 65 64 83 82 82 94 102 101 114 97 96 111 73 73 107 55 54 99 42 39 39 95 88 88 96 88 89 95 88 88 102 95 96 72 66 67 73 66 67 89 82 85 93 89 90 89 81 82 95 90 92 96 90 92 93 86 87 100 95 97 94 90 92 96 92 92 100 95 97 101 96 98 97 94 95 101 99 100 101 97 100 104 103 105 95 93 94 107 106 108 92 89 91 97 95 97 110 106 108 104 103 106 100 100 103 99 97 100 93 92 95 103 101 105 103 102 106 96 94 99 94 92 97 89 88 93 93 92 96 81 80 86 91 90 95 84 83 90 88 87 95 82 81 86 82 81 90 85 85 93 69 68 78 87 87 95 73 73 84 74 73 88 73 72 83 71 70 81 72 70 84 61 59 76 57 56 75 52 52 73 50 49 69 55 54 79 44 42 64 56 56 82 56 55 77 85 85 103 101 100 116 101 100 113 59 58 92 45 44 85 49 47 47 100 94 94 92 81 83 101 94 95 100 93 93 86 73 74 75 67 68 87 81 82 84 77 80 93 85 87 81 76 77 102 96 97 91 86 87 95 90 91 95 90 91 99 93 94 98 95 97 100 97 99 97 94 96 109 106 108 98 95 97 109 106 108 98 96 98 94 93 95 103 100 102 92 90 93 87 84 87 100 99 100 92 91 94 102 101 104 104 103 106 93 91 96 91 90 94 98 97 100 94 92 96 98 97 101 94 93 97 73 72 78 92 91 96 86 85 90 97 97 106 83 82 89 82 81 91 91 90 97 70 68 80 77 76 88 74 73 83 76 75 87 73 72 88 65 64 78 71 69 82 62 60 78 66 64 83 61 60 79 50 49 73 47 46 67 45 44 73 51 49 74 69 68 83 85 84 102 97 97 112 97 97 111 61 61 96 48 48 92 49 43 43 84 78 78 93 83 84 93 85 86 96 88 88 74 62 63 77 71 72 84 72 74 89 81 81 84 76 78 96 89 91 90 85 87 92 88 90 93 91 91 97 93 94 98 94 95 103 101 102 100 96 98 100 97 98 90 87 89 100 97 98 101 99 101 104 102 102 94 92 95 100 97 99 100 97 101 104 101 105 100 99 102 101 100 104 99 98 101 97 97 100 92 91 94 92 91 94 99 98 103 94 94 98 96 95 98 97 96 103 94 92 97 95 95 102 93 92 98 87 87 93 84 83 91 86 86 94 84 84 90 86 85 95 75 75 84 76 75 87 80 79 93 78 77 91 73 72 85 71 70 85 65 63 81 62 61 80 63 63 83 52 51 71 55 55 76 53 51 76 43 42 65 75 74 94 87 87 101 91 91 108 94 94 109 66 66 108 50 49 93 46 42 42 95 87 87 90 82 83 94 87 87 102 95 96 75 67 69 81 73 74 91 84 85 80 73 75 93 88 90 101 97 98 88 81 84 99 92 94 98 93 94 97 92 92 102 99 101 103 99 100 100 97 98 103 100 102 96 93 95 104 101 104 102 99 100 97 94 96 109 107 109 86 82 84 109 106 109 93 91 93 104 102 107 108 106 109 107 106 110 99 97 100 93 91 96 98 97 100 104 102 105 98 96 99 92 90 95 88 87 93 88 87 90 92 91 97 93 92 100 80 79 88 90 89 97 88 88 95 87 86 94 82 81 93 84 83 94 89 89 99 81 80 89 71 70 84 76 74 88 74 73 91 71 70 87 76 76 89 56 56 72 59 57 77 62 61 86 44 42 69 54 53 81 73 73 96 97 96 107 97 97 110 104 104 118 68 68 104 54 54 97 48 45 45 90 82 82 99 91 92 96 88 89 106 99 99 76 65 67 71 65 67 86 79 81 91 85 86 98 92 93 95 91 93 92 86 88 101 96 98 110 106 107 92 88 90 97 94 95 98 94 96 99 95 96 97 94 95 99 97 99 97 94 95 100 97 98 102 100 101 99 98 100 98 95 97 99 98 101 92 91 92 104 102 104 100 99 103 98 97 100 94 92 95 97 96 99 105 104 108 103 102 105 87 86 90 94 92 98 89 88 91 96 95 100 90 89 96 91 88 95 91 90 95 80 79 86 88 88 95 87 87 94 82 81 90 82 81 95 79 78 88 82 81 94 72 71 82 72 71 81 66 65 80 66 66 83 65 64 83 60 59 78 56 56 79 47 46 71 51 50 77 46 45 69 76 76 93 93 93 105 98 98 107 98 98 111 56 56 95 53 53 97 44 43 43 104 96 96 97 88 89 94 85 86 95 88 89 74 63 63 78 68 70 79 69 71 93 88 90 101 94 95 90 85 87 105 100 101 94 89 91 98 94 95 99 95 95 98 94 96 106 101 103 108 105 106 95 93 93 108 105 107 99 97 98 95 92 93 110 107 110 96 93 96 108 105 107 103 101 104 104 102 105 99 98 101 99 98 100 104 103 106 85 83 86 88 87 91 101 99 103 105 104 109 93 93 95 99 97 103 100 99 101 92 90 98 91 89 97 85 84 94 96 95 102 78 77 84 88 87 95 80 80 89 81 80 86 77 76 86 80 80 93 80 79 92 77 76 88 75 75 86 69 67 83 72 72 86 61 60 74 65 64 82 48 47 71 56 55 75 48 46 71 55 54 74 81 80 96 98 97 111 99 98 113 98 98 112 66 66 104 52 51 96 42 38 38 99 90 91 105 98 99 100 93 93 87 81 81 89 83 84 79 72 73 81 75 76 93 88 89 93 87 88 90 83 85 98 92 93 92 87 88 87 82 84 88 84 86 94 91 93 94 91 93 98 94 95 105 102 103 94 90 92 101 98 101 99 97 99 101 99 101 94 91 93 106 104 105 100 98 102 102 100 102 107 105 109 94 93 96 112 111 115 104 103 105 102 101 104 100 98 101 95 94 97 86 85 88 94 92 96 90 90 96 90 90 95 91 90 96 92 91 97 98 97 106 91 91 99 79 77 87 86 85 94 89 88 98 85 84 94 89 88 97 81 81 92 70 70 80 69 69 87 75 73 87 71 70 87 65 64 80 60 60 76 56 55 78 49 48 73 41 41 63 58 58 81 88 87 101 98 97 111 93 92 107 108 107 122 63 63 100 50 50 95 34 32 32 94 85 86 106 100 101 101 93 94 109 101 102 101 94 95 76 65 68 84 78 79 101 95 96 104 97 98 97 91 93 85 80 82 89 82 84 102 98 100 94 90 91 94 91 92 93 89 90 99 96 97 98 96 98 100 98 100 105 102 104 107 106 107 95 94 96 113 109 111 100 99 100 105 103 104 104 102 105 106 105 107 104 101 104 104 103 107 102 101 104 101 99 102 95 94 100 88 87 89 87 85 90 90 89 94 84 83 88 94 92 97 97 95 102 93 92 100 77 76 84 86 86 96 83 82 92 85 85 92 92 91 100 86 85 97 78 77 87 73 72 86 75 74 82 70 69 83 74 74 83 60 58 76 66 65 83 58 57 78 57 56 76 47 46 68 44 43 70 70 70 93 89 89 99 85 85 101 96 96 112 87 86 104 59 59 93 52 52 97 42 39 39 103 95 95 101 95 95 100 93 93 90 85 86 98 91 92 67 58 60 89 80 82 84 78 80 91 86 88 101 95 96 89 85 87 88 84 85 106 102 103 92 88 91 103 99 100 104 102 103 100 95 97 103 100 103 106 102 104 105 102 104 107 105 105 104 101 101 97 97 98 106 104 107 97 94 96 102 100 102 112 111 114 110 110 113 107 105 109 113 112 115 100 98 101 104 103 107 92 91 95 95 94 99 94 93 99 96 94 99 96 95 100 86 85 92 92 92 99 86 85 92 84 83 90 89 88 96 89 88 99 80 79 92 85 84 91 87 86 97 70 68 82 73 72 86 67 65 79 61 60 76 66 66 80 65 65 81 64 63 84 57 56 78 50 48 73 47 46 73 70 70 91 83 83 100 94 94 109 95 95 108 101 100 113 68 68 107 45 45 87 50 45 46 90 83 84 98 88 89 107 98 99 101 96 96 114 107 108 65 56 58 83 77 78 88 80 81 85 76 79 98 93 94 92 88 89 108 103 105 96 93 95 101 97 98 100 97 99 100 97 99 104 101 104 97 94 96 106 103 105 101 98 101 106 104 106 108 108 109 95 91 94 107 105 107 98 96 99 101 99 101 105 103 105 96 94 97 93 91 95 96 95 97 100 98 101 102 101 105 87 85 91 91 90 96 93 92 99 98 97 105 93 92 97 90 89 94 96 96 102 92 91 96 93 92 102 81 81 88 78 78 85 81 80 89 74 73 83 72 71 81 66 65 72 76 75 88 63 62 75 69 69 80 60 60 77 60 58 77 60 59 77 55 54 73 45 44 74 56 55 80 86 85 103 90 89 104 104 103 116 94 93 108 94 93 110 61 60 102 55 55 101 37 32 33 94 85 86 97 89 90 99 91 92 105 97 98 109 100 100 84 75 76 86 77 78 91 86 87 89 85 86 88 82 84 99 93 95 92 87 89 93 88 90 95 91 91 101 98 100 102 98 99 95 90 92 104 100 102 97 93 94 101 98 101 91 88 91 97 95 97 111 107 109 103 101 103 92 91 94 100 97 99 103 102 106 106 104 108 105 103 107 97 96 100 100 99 103 106 104 107 88 87 91 104 104 107 93 93 99 86 85 90 103 103 107 91 90 95 88 88 93 89 89 95 78 77 86 92 91 100 83 82 93 90 89 99 81 80 91 81 80 89 80 79 91 67 66 78 69 68 85 75 74 86 68 68 82 58 57 75 52 49 68 49 48 73 48 47 70 69 68 88 86 86 98 112 112 124 107 106 122 104 104 118 96 96 109 67 67 101 57 57 102 49 44 44 108 101 102 98 89 89 99 93 95 102 97 98 106 98 99 89 82 83 82 72 73 74 67 68 83 75 76 98 91 93 89 85 86 98 93 94 103 98 100 99 96 98 93 88 90 104 100 102 99 96 98 95 89 92 109 105 106 97 95 96 107 105 106 97 94 96 102 99 103 100 98 99 100 98 101 101 99 103 96 94 96 107 107 110 99 97 102 102 100 103 101 100 105 110 110 114 103 101 104 96 95 99 95 94 99 101 101 106 86 85 90 90 88 93 94 92 98 86 86 93 93 92 98 94 93 99 87 86 96 78 77 88 85 85 92 86 85 97 77 76 87 72 72 84 69 68 85 73 73 85 71 71 87 68 67 84 57 57 68 50 49 72 58 57 82 77 77 91 95 94 107 99 99 109 89 89 104 109 108 123 100 100 114 60 60 99 58 58 102 49 46 46 100 92 92 102 94 95 96 92 93 107 100 100 102 93 94 105 97 97 72 66 68 86 80 82 91 84 85 88 82 83 90 87 88 89 83 84 95 92 93 98 94 96 99 96 99 110 105 106 104 101 103 100 97 99 103 102 104 115 113 116 109 106 108 98 96 98 99 97 100 110 109 110 102 99 101 94 93 95 94 92 95 106 105 108 101 100 104 103 101 105 97 95 98 98 96 98 94 93 96 96 95 99 94 93 97 83 82 91 93 92 98 89 88 93 90 89 94 94 93 102 81 81 89 97 97 105 86 85 94 89 88 98 88 86 96 73 73 82 77 76 89 79 78 88 70 69 84 81 79 96 64 62 73 61 60 76 48 46 66 49 48 75 70 69 87 81 80 98 96 96 109 95 95 111 97 97 111 106 105 120 103 103 116 64 63 105 47 47 88 41 39 39 99 92 93 104 97 98 99 91 93 99 91 91 102 93 95 115 110 111 85 79 81 68 61 63 89 84 85 95 87 89 105 100 101 95 91 92 97 93 96 107 102 104 82 78 81 101 98 100 103 100 101 102 100 102 102 100 101 102 100 101 102 100 102 96 94 96 96 94 99 102 100 101 99 97 100 101 100 103 95 93 98 95 93 97 99 98 102 104 103 105 94 93 98 97 96 99 95 93 95 92 91 94 94 92 97 93 91 98 94 93 101 88 87 93 91 90 100 88 88 95 88 87 94 80 79 89 74 73 88 80 78 90 88 88 95 80 79 89 79 79 89 65 64 73 78 77 87 66 66 81 62 60 75 68 67 86 56 55 77 56 56 79 74 74 93 88 87 101 105 104 118 104 104 117 95 95 105 101 100 115 102 101 116 61 61 97 50 49 92 39 37 37 91 83 84 96 88 89 113 103 104 93 86 87 109 102 103 103 97 98 100 94 95 79 70 71 83 75 78 88 83 83 98 91 93 86 80 83 80 75 77 97 93 95 112 109 110 99 95 96 99 96 98 93 90 92 96 92 95 100 98 99 101 97 98 103 100 102 100 97 99 100 98 99 102 100 101 99 98 100 99 97 101 106 104 106 105 104 108 89 87 91 98 98 102 93 92 95 97 95 99 104 103 107 90 89 94 98 97 102 88 87 93 103 102 108 86 85 88 95 94 100 83 81 92 84 83 93 97 96 102 81 80 89 85 85 94 79 79 87 73 72 83 62 61 70 72 72 84 63 61 78 60 57 72 64 63 82 51 50 68 60 60 76 90 90 107 96 96 108 87 87 99 97 96 109 105 104 119 97 97 109 101 100 114 68 68 105 52 52 92 49 47 47 97 88 89 109 100 100 111 105 107 104 96 97 101 91 91 115 109 109 113 105 106 91 84 86 83 78 79 85 79 81 87 82 84 91 85 86 99 94 96 96 92 93 99 96 98 101 99 101 98 94 95 101 97 99 107 105 107 90 88 90 111 109 110 98 96 97 98 96 99 98 97 100 98 96 99 94 92 95 102 100 103 99 97 99 86 85 87 100 99 102 100 97 100 100 99 103 98 97 103 91 90 95 92 91 97 93 91 98 94 93 100 74 72 82 89 88 94 90 89 95 93 92 99 88 88 94 74 73 83 84 83 93 79 78 92 85 85 91 72 71 82 73 72 85 71 70 84 64 63 79 63 61 79 58 57 74 69 68 88 83 83 98 108 107 119 100 99 112 102 101 116 105 104 115 95 95 109 99 99 114 108 108 123 71 70 110 62 61 108 55 53 54 97 88 91 107 97 99 95 88 89 92 86 87 114 108 109 106 100 101 99 93 95 116 109 109 83 77 80 83 77 79 90 85 87 87 83 85 80 74 75 97 93 94 100 96 97 97 93 95 98 93 95 99 96 98 96 92 94 107 102 104 100 98 99 105 104 106 108 106 108 90 89 92 97 94 97 101 99 101 100 97 99 111 109 112 97 96 98 104 103 107 96 93 98 93 91 95 101 100 104 94 93 98 90 88 92 98 97 103 98 96 102 87 86 91 97 96 103 89 89 97 75 73 84 91 90 96 79 77 85 79 78 88 81 79 91 78 77 90 68 68 78 63 62 76 77 76 90 66 66 82 52 52 67 59 58 76 71 70 83 94 94 108 102 101 116 97 96 110 100 100 113 109 108 121 99 98 109 91 91 106 103 102 118 64 64 102 56 56 102 31 28 29 92 85 86 95 87 88 108 101 103 103 98 99 109 104 104 108 103 104 106 100 102 108 102 103 97 90 91 88 79 80 86 80 82 94 88 89 89 85 87 97 93 94 103 98 99 91 87 89 100 97 99 94 92 94 96 91 93 109 106 108 103 100 103 106 104 107 98 96 98 108 105 109 102 99 104 98 96 98 102 102 104 99 97 100 105 104 107 98 96 102 94 92 99 93 93 97 102 101 106 92 90 94 90 88 93 95 94 98 96 96 101 90 89 97 86 86 91 86 85 92 93 92 101 89 89 97 85 85 93 90 89 98 79 78 91 67 66 76 75 74 88 62 61 74 73 73 84 63 62 76 64 63 79 74 73 87 97 97 107 107 106 117 111 110 121 96 96 110 98 98 111 100 100 109 107 106 118 99 99 111 111 110 123 70 69 103 56 55 100 45 41 43 98 91 93 111 103 104 106 99 101 100 93 94 107 100 101 104 97 99 100 94 95 116 111 111 116 112 112 97 94 96 86 81 83 90 85 87 81 76 77 94 91 92 95 92 93 97 94 95 96 94 96 104 101 102 95 91 95 96 95 97 95 93 96 109 106 109 103 102 105 93 91 94 93 90 94 108 107 110 99 98 100 99 97 99 98 96 100 98 96 100 90 88 92 92 90 94 93 92 97 99 97 101 91 90 94 90 89 94 82 81 86 84 83 88 98 98 106 91 89 95 77 76 85 79 78 86 78 78 86 83 83 93 77 75 86 75 73 82 71 69 84 67 66 76 57 56 73 47 46 60 69 69 87 80 80 93 106 106 116 105 104 117 97 96 109 95 94 105 96 95 110 105 104 116 93 93 105 92 92 103 96 95 108 67 67 104 46 45 86 39 36 37 97 91 92 104 95 96 116 111 112 103 95 96 100 95 96 114 107 108 105 100 101 108 103 104 120 113 114 122 116 117 91 86 87 89 83 83 90 85 87 93 89 92 101 97 98 92 88 90 101 97 98 90 86 88 109 106 108 97 95 97 94 92 95 97 95 97 105 103 105 101 99 102 104 103 105 97 95 100 100 99 103 86 84 87 90 88 93 94 92 98 90 88 92 99 97 102 93 91 96 105 103 108 101 101 106 99 99 103 84 81 87 95 94 100 92 91 98 80 78 86 85 84 91 88 88 96 84 83 95 81 80 90 79 78 91 74 73 86 72 71 87 57 56 72 58 56 72 66 65 81 96 96 109 103 103 115 98 98 111 107 107 116 109 108 119 104 103 116 99 98 113 88 87 101 94 94 107 96 96 110 98 98 112 63 62 100 55 54 99 45 43 44 95 89 90 88 83 84 95 91 92 102 97 98 103 96 97 108 102 105 113 109 110 111 105 107 116 111 111 114 107 108 110 105 105 81 75 76 81 75 77 98 95 96 75 73 74 87 82 84 96 91 95 95 92 95 99 96 97 93 89 93 105 101 103 87 84 86 97 94 96 99 97 102 99 96 99 96 95 97 106 105 110 98 95 98 100 99 103 91 90 92 95 94 99 91 90 94 93 92 96 96 95 100 90 89 94 96 95 99 74 72 77 76 74 83 80 79 85 82 80 86 75 73 86 88 87 94 73 72 82 71 70 85 81 81 95 66 65 77 75 75 87 59 58 73 64 63 75 81 80 91 94 94 105 105 105 116 103 103 111 103 102 112 102 102 114 100 99 112 98 98 113 101 101 115 99 99 110 89 88 103 92 91 105 67 67 105 50 48 86 47 46 46 89 81 83 91 82 83 94 85 86 110 105 106 106 100 101 103 97 97 108 104 106 119 113 114 110 104 105 100 96 98 112 108 109 104 99 101 80 72 75 95 91 93 82 76 80 78 75 77 90 88 90 100 96 98 102 99 100 89 86 89 100 97 99 103 100 102 89 87 88 92 91 92 84 83 86 96 94 98 96 94 95 97 94 100 105 103 105 95 93 96 97 96 100 94 93 97 92 90 95 90 89 94 98 97 101 87 85 91 82 81 88 83 81 89 81 80 88 82 81 88 82 81 89 80 79 89 67 66 74 74 73 85 73 72 79 63 63 77 62 61 78 57 56 68 94 93 105 96 96 107 103 102 111 95 94 103 102 102 109 106 105 115 107 107 116 94 93 106 104 103 113 100 100 111 100 100 112 92 91 105 105 105 118 53 53 92 53 53 93 48 44 44 91 84 85 89 81 84 107 100 102 89 84 86 97 89 90 99 94 95 109 105 106 107 101 103 116 112 113 118 113 116 112 106 107 110 108 109 110 107 108 87 84 85 90 86 88 80 77 78 97 92 95 83 80 81 90 87 88 84 80 84 97 94 96 92 89 93 100 98 100 102 99 101 99 97 100 103 101 104 91 89 93 85 83 87 94 91 95 95 93 96 86 84 89 90 88 94 96 96 100 90 88 93 92 91 96 95 94 99 78 77 81 85 83 87 81 81 88 73 71 79 77 77 86 75 74 82 69 67 79 78 78 88 71 71 83 63 62 72 74 73 86 94 93 105 98 97 108 102 101 112 100 100 109 104 103 114 98 97 109 100 99 111 100 99 110 98 98 111 104 104 116 95 94 106 97 96 111 96 96 110 93 92 105 65 64 103 54 54 96 39 37 38 98 91 92 94 89 90 99 93 95 100 92 94 110 104 106 107 99 100 112 105 106 99 92 93 112 105 106 104 99 101 109 105 106 113 108 110 107 104 105 107 103 104 87 85 86 81 78 78 100 96 98 91 86 88 93 89 91 92 89 92 92 88 92 94 90 94 97 93 96 101 98 101 87 85 89 95 93 97 103 100 103 94 92 97 95 95 98 90 88 92 96 95 99 92 91 95 84 83 88 93 91 98 83 81 87 86 84 93 88 86 90 87 85 91 83 81 88 73 71 80 78 78 85 62 61 68 70 69 79 63 62 71 63 62 71 73 73 82 94 93 104 93 93 101 94 94 105 96 95 106 96 95 109 97 96 107 95 94 104 98 97 106 91 90 101 102 101 112 93 92 102 89 88 103 94 93 107 97 96 110 98 97 112 65 65 101 60 59 102 51 47 47 94 86 89 99 92 95 102 93 95 115 108 109 109 102 104 106 99 100 96 89 90 117 111 113 110 105 106 110 104 106 110 103 105 115 111 113 114 106 107 107 101 102 111 108 109 106 101 103 80 75 76 84 80 83 77 74 77 90 88 91 83 81 83 94 92 94 86 84 87 95 92 94 84 82 85 91 88 93 97 95 100 96 95 97 87 85 89 89 87 90 98 97 101 84 81 86 82 81 86 78 77 84 92 91 95 73 72 79 87 85 90 78 77 83 81 80 87 63 62 70 69 68 77 70 68 74 61 60 72 59 58 69 87 86 98 113 113 122 101 99 107 103 102 110 100 100 110 103 103 112 104 103 114 97 96 106 95 93 106 100 100 111 98 97 107 105 104 115 84 84 98 101 100 109 101 101 113 97 97 109 96 96 109 71 71 106 51 50 90 58 54 54 84 78 80 93 88 90 96 90 92 89 83 85 98 92 94 102 97 100 101 95 98 101 96 98 110 105 107 113 108 109 105 99 101 106 102 104 99 97 99 112 107 109 110 105 107 106 102 103 107 103 105 91 88 91 80 75 77 95 91 92 89 87 88 92 90 92 86 84 86 85 82 85 92 90 92 84 81 86 96 93 96 80 78 84 82 79 85 84 83 87 87 86 92 85 83 87 82 80 85 81 79 84 88 88 93 85 84 89 69 68 76 84 81 85 72 71 79 64 63 70 71 69 77 75 74 82 84 83 90 96 95 102 100 99 105 103 102 109 96 95 105 99 98 107 86 86 98 87 87 92 92 92 103 92 91 104 113 113 121 98 97 107 95 95 105 89 89 101 92 91 105 96 95 104 95 95 107 97 96 107 91 91 103 66 65 107 54 53 93 52 48 48 94 85 86 97 92 93 90 85 87 96 87 91 99 91 94 96 90 93 104 98 100 113 106 107 102 96 97 106 101 104 108 103 105 104 96 98 107 102 103 97 92 94 104 99 102 116 112 114 107 104 105 106 101 102 97 95 96 88 86 88 83 79 81 83 80 83 90 89 91 88 85 87 91 89 92 83 81 83 87 85 88 73 71 76 76 75 78 86 85 86 82 79 84 92 90 95 72 71 74 77 76 81 80 78 84 80 78 83 71 71 75 57 56 63 63 62 70 64 62 70 78 77 85 92 92 100 102 101 108 93 92 100 84 83 93 101 100 111 95 94 103 100 100 106 98 96 108 106 106 116 98 98 109 95 94 103 90 89 99 100 98 109 107 106 116 77 77 92 95 94 105 94 93 102 97 96 108 98 97 111 86 86 101 61 60 95 52 51 92 40 37 37 101 95 97 91 83 84 101 94 96 96 89 91 102 97 98 109 103 105 101 97 99 102 97 100 100 96 97 106 101 103 107 101 103 104 100 102 112 108 110 108 103 104 105 100 102 111 106 108 105 101 102 111 107 110 97 93 95 101 96 98 108 105 106 101 98 99 75 71 74 75 73 76 73 71 76 76 75 79 84 82 85 73 72 75 79 78 82 71 69 75 75 75 78 66 64 69 82 78 81 71 69 73 77 75 81 59 58 65 65 63 70 58 57 66 89 88 94 95 95 103 93 91 98 101 100 108 93 93 102 96 95 101 98 97 104 97 96 105 93 92 101 109 108 116 91 90 100 103 103 109 107 107 115 94 92 102 102 101 110 94 93 105 91 90 101 98 97 108 90 89 99 93 91 103 94 93 106 80 80 93 97 97 109 63 62 95 46 45 85 47 44 45 91 84 84 90 84 86 85 80 81 96 91 93 99 93 95 94 90 92 94 91 93 90 83 85 98 95 97 104 98 99 105 100 102 96 90 93 106 101 103 95 90 92 107 104 107 101 99 101 108 105 108 116 112 113 110 107 109 100 98 100 102 99 102 103 100 103 109 104 107 108 106 108 101 99 101 97 95 97 80 79 82 69 67 71 78 76 80 77 75 80 66 65 70 85 84 89 77 76 81 73 70 75 84 83 90 96 95 100 99 97 102 97 96 105 104 104 113 99 98 105 107 106 112 94 93 100 95 95 103 97 97 102 87 86 93 91 91 100 98 96 106 99 98 107 98 97 104 89 88 98 89 88 97 93 92 103 100 99 107 89 88 97 92 92 103 94 93 103 92 91 98 94 93 105 91 90 104 79 78 92 92 91 103 64 63 91 54 53 95 40 38 38 81 74 76 87 82 84 92 86 90 116 109 109 94 88 90 93 88 91 93 87 89 100 96 98 95 90 91 100 96 97 109 105 107 104 98 100 104 99 101 113 110 112 99 91 94 96 93 95 106 103 104 93 89 91 103 100 101 111 107 111 105 101 103 103 101 104 105 103 106 99 97 100 104 102 107 101 99 102 103 101 106 92 90 94 107 105 110 101 99 103 102 99 105 96 96 100 87 86 94 92 91 96 99 97 104 91 89 97 105 104 110 89 88 96 98 97 104 94 93 100 105 104 114 92 91 98 100 99 107 96 95 104 94 93 104 99 99 107 95 94 103 96 95 103 88 88 97 92 92 101 89 88 102 101 101 113 89 87 99 103 102 112 93 92 102 80 78 92 86 85 97 96 95 105 79 78 90 87 86 101 72 72 89 62 61 94 53 52 92 41 39 39 94 84 87 91 87 89 93 88 90 102 95 97 97 93 95 89 85 86 87 83 86 109 105 107 93 90 92 100 92 95 95 91 94 91 86 90 92 85 88 95 89 90 103 97 98 108 103 105 97 93 94 102 99 100 108 106 110 101 96 101 95 90 92 85 81 85 99 96 98 106 102 105 88 85 89 100 97 101 101 98 100 101 97 101 100 97 102 95 92 94 98 95 100 91 88 92 97 94 98 97 96 101 98 95 100 92 90 95 83 81 88 92 91 96 98 98 107 97 96 104 94 92 99 88 87 95 94 93 99 93 92 101 93 91 98 91 90 100 102 102 111 96 95 105 88 87 95 82 81 93 88 87 96 89 88 98 97 96 107 90 90 99 93 93 104 94 93 104 88 86 98 75 74 90 78 78 91 83 82 93 82 81 94 56 55 82 54 53 96 29 28 30 80 74 77 90 81 84 95 87 89 88 82 85 95 91 93 91 87 90 102 97 100 94 88 91 95 92 94 95 88 91 95 89 91 98 93 94 111 108 110 98 94 95 87 81 84 103 100 103 93 90 93 96 92 96 98 93 95 90 84 89 107 104 106 91 86 88 92 88 91 99 97 101 91 88 90 100 97 100 93 91 94 97 96 98 100 99 103 82 80 86 88 86 89 89 86 92 102 100 104 104 102 107 83 81 86 88 86 93 98 97 100 93 91 97 89 87 94 97 96 102 87 87 93 97 96 104 91 89 96 88 87 96 94 93 104 87 86 96 82 82 93 85 85 94 92 91 102 85 85 95 89 87 102 86 85 94 89 88 98 85 84 93 75 74 87 91 90 103 79 78 88 93 92 102 78 77 90 89 88 101 81 80 89 54 52 86 50 49 93 35 34 34 87 81 82 84 79 81 91 85 89 86 79 82 85 78 80 100 97 98 90 87 89 91 88 89 91 87 91 96 93 95 99 94 98 87 83 85 89 85 87 86 82 85 103 99 102 87 83 87 93 88 92 102 99 101 88 84 88 91 88 92 100 97 100 99 96 99 100 98 101 96 94 96 89 87 92 97 94 99 96 93 96 86 83 87 103 100 105 83 81 86 96 94 98 95 93 97 104 103 107 94 93 98 95 93 98 89 88 92 88 87 97 86 84 90 96 95 103 95 94 101 79 78 89 100 99 107 85 84 93 95 94 97 92 91 100 83 82 91 80 79 91 87 87 96 87 87 94 87 85 96 95 94 100 84 83 94 83 82 91 86 85 96 78 77 86 76 76 87 95 94 105 81 80 91 89 88 98 73 73 81 77 77 89 61 61 92 49 48 87 24 24 24 40 37 37 50 45 46 33 31 33 36 33 34 33 33 33 48 45 47 47 43 43 28 28 29 53 52 52 35 32 33 36 34 35 55 53 54 23 22 25 39 37 39 44 39 40 32 30 32 48 47 48 48 46 46 43 41 44 42 38 39 46 45 47 42 41 43 50 48 51 46 45 46 41 39 41 46 46 47 41 39 44 41 38 40 44 43 44 36 33 39 39 38 42 54 53 56 40 40 43 51 50 52 42 42 50 42 41 42 43 43 45 41 40 47 32 32 36 44 43 47 31 30 32 39 38 44 44 44 49 40 39 42 29 29 35 43 43 49 33 33 40 41 40 42 30 30 37 34 33 39 34 34 43 27 25 29 30 30 35 40 39 46 38 37 40 50 50 58 38 37 43 35 34 39 49 49 53 26 26 31 41 41 43 35 34 57 47 46 84 