P3
64 64
255
82 71 72 98 84 85 92 80 81 97 74 75 91 81 82 100 89 90 95 82 83 100 85 87 95 81 82 88 75 76 94 85 87 94 77 78 105 94 95 95 85 86 99 89 90 93 84 86 90 81 82 92 82 83 84 77 79 90 78 79 88 81 83 91 84 85 96 88 89 90 82 85 85 80 81 94 84 86 88 81 83 91 85 87 93 86 88 99 94 96 87 80 83 88 84 86 91 86 89 92 88 91 96 92 95 85 80 84 92 88 91 92 87 91 84 81 86 93 90 95 91 89 93 90 86 90 99 95 102 91 87 92 99 98 102 91 87 93 94 92 97 93 92 98 88 85 90 81 80 87 90 89 96 92 88 95 98 96 103 96 95 102 89 86 94 86 84 92 80 77 86 83 82 91 74 72 82 84 82 89 79 76 85 76 74 87 68 66 77 65 61 79 64 57 58 98 86 87 97 83 84 102 90 90 95 83 84 91 80 81 97 87 88 101 91 91 108 98 99 99 90 90 100 90 91 105 94 95 100 91 92 105 96 97 96 88 90 95 83 84 93 86 88 98 90 91 101 95 95 109 102 103 108 100 102 92 85 86 102 94 96 93 86 87 97 92 94 95 92 93 97 92 93 99 95 98 91 86 87 90 86 88 84 80 82 92 90 92 101 97 99 92 88 91 94 92 94 105 103 106 95 90 93 92 90 93 97 94 97 95 91 93 97 93 95 93 91 97 98 95 99 101 99 105 97 96 99 104 102 105 88 86 93 102 101 105 97 95 101 93 91 100 97 95 100 102 101 106 90 87 91 91 89 96 99 96 103 94 93 99 82 79 87 88 87 96 86 84 92 77 74 81 74 72 83 68 66 78 60 58 78 46 44 79 42 39 40 108 99 100 114 103 104 106 99 99 113 106 107 108 97 98 109 99 100 106 99 99 108 99 100 98 87 88 126 118 119 104 94 96 106 98 99 115 104 105 110 103 104 120 113 114 111 106 107 101 93 95 111 105 107 106 98 100 112 106 108 116 109 111 110 105 106 110 104 105 108 104 105 114 109 111 118 113 114 117 110 112 117 115 118 113 109 111 106 103 105 101 97 99 115 111 114 107 103 105 109 104 107 118 114 116 109 106 109 110 108 111 108 106 108 108 105 109 108 104 108 107 104 108 113 111 114 110 108 111 107 106 110 98 97 102 113 112 116 104 102 108 113 112 116 106 103 108 108 106 111 112 111 116 104 102 105 100 98 104 96 94 100 100 98 105 98 96 102 90 88 93 90 88 95 92 91 98 82 80 88 85 82 90 52 49 77 43 40 72 50 45 45 115 106 107 93 84 85 104 92 92 107 95 95 104 94 95 117 108 109 111 101 102 111 102 103 108 100 101 108 100 101 105 98 99 94 85 86 109 101 101 108 98 99 114 107 108 106 98 99 108 98 100 117 109 110 108 102 104 104 98 99 116 109 110 105 99 101 110 106 108 111 104 106 104 98 100 104 98 100 113 108 110 104 99 101 104 99 101 115 111 112 107 102 106 110 106 109 109 105 107 115 112 115 111 109 111 111 108 111 118 117 119 100 98 101 110 108 112 100 97 103 105 104 107 108 105 108 109 106 110 109 107 111 109 106 110 115 113 117 102 100 105 111 108 114 104 100 106 115 113 117 100 98 105 100 97 106 87 84 89 109 107 114 104 102 107 89 87 94 98 97 101 98 97 105 86 84 91 89 88 97 77 74 85 49 47 74 47 43 77 39 32 33 108 94 95 110 100 101 112 103 104 98 88 89 103 92 93 111 99 100 107 95 96 112 106 107 106 95 96 104 96 96 103 95 96 109 100 100 112 103 103 111 105 106 106 99 100 106 98 99 109 95 96 108 100 101 111 103 104 109 102 102 107 100 101 100 94 95 108 101 104 105 100 102 97 89 91 98 96 98 97 90 92 106 102 104 105 100 101 102 98 99 99 94 97 104 100 102 100 94 96 114 111 114 109 106 109 112 109 112 109 106 108 110 109 112 101 99 103 115 113 116 107 105 108 111 108 111 108 106 111 110 107 111 113 110 113 104 102 106 112 109 113 118 116 120 109 107 110 106 105 111 98 96 102 104 101 106 104 102 107 92 89 97 100 100 103 88 86 94 86 84 92 87 85 90 89 88 96 80 78 85 90 88 97 52 50 81 44 42 73 53 44 44 112 102 103 105 91 91 105 91 93 103 93 95 105 96 97 107 95 96 109 101 103 114 105 105 111 100 102 112 102 103 114 105 106 119 110 112 100 92 93 113 105 106 100 94 95 107 98 100 101 93 95 106 98 99 104 96 97 101 95 97 88 81 83 99 90 92 85 76 77 89 83 84 79 70 71 95 86 89 88 79 81 90 86 88 89 84 87 85 79 82 84 81 84 91 84 87 86 81 84 100 96 99 107 103 106 109 106 109 106 102 105 114 111 114 117 115 118 105 102 105 110 106 111 113 110 113 110 108 112 111 108 111 100 97 102 118 116 120 111 110 115 106 105 110 107 105 111 104 102 106 109 107 113 111 108 114 107 105 112 101 99 104 86 84 89 100 98 106 100 99 102 94 91 100 96 94 103 89 88 96 84 79 90 53 51 83 44 40 73 53 47 47 100 89 90 107 99 101 109 94 95 101 90 91 106 95 96 107 96 97 98 89 90 120 109 110 103 96 96 106 97 97 109 103 103 107 99 100 107 100 101 106 96 98 102 91 92 98 86 87 101 92 95 100 94 96 93 85 87 91 82 84 84 75 77 82 75 77 79 72 73 83 71 73 71 63 66 86 77 79 83 73 76 79 69 71 73 65 69 74 68 72 73 67 71 73 65 69 78 73 78 79 74 78 86 81 84 83 79 82 97 93 98 99 96 102 110 108 109 103 100 103 109 107 109 113 111 115 108 106 109 103 101 103 113 111 115 105 103 108 110 108 111 109 108 112 116 113 118 118 116 121 103 101 108 102 101 105 109 108 115 106 105 111 101 99 106 84 83 93 92 88 96 87 86 94 86 83 96 80 78 85 91 90 100 58 56 83 44 40 73 46 40 41 104 89 90 103 88 89 110 100 100 109 101 101 97 86 87 113 102 102 104 91 92 107 96 98 94 83 84 104 94 95 111 103 104 101 89 90 112 102 103 99 89 91 99 91 93 92 80 82 94 84 85 89 77 79 80 66 68 80 71 74 75 65 66 70 61 64 73 64 67 75 64 65 58 50 53 75 66 67 73 66 67 77 71 74 64 56 59 66 61 63 67 62 65 68 62 65 65 62 64 68 64 66 71 69 71 64 59 62 75 70 74 84 81 85 80 78 81 91 89 92 110 107 111 112 108 111 115 112 115 106 105 109 103 100 106 111 109 113 102 101 105 111 110 114 105 104 109 103 102 106 98 97 102 101 99 104 92 90 98 95 94 102 102 101 104 93 90 96 88 87 95 87 86 93 84 82 89 84 82 89 90 88 98 48 46 72 47 44 76 62 55 55 100 87 88 110 96 96 104 94 94 113 103 105 114 103 104 109 97 98 110 99 101 107 95 96 113 102 103 112 104 105 115 105 106 115 103 103 102 94 96 101 92 93 95 85 86 85 72 74 88 74 77 66 57 59 76 63 65 75 61 63 63 52 55 73 60 62 65 56 59 68 60 62 65 58 60 75 69 70 61 54 57 72 64 67 66 61 64 75 71 74 76 68 70 72 67 69 80 77 80 71 67 68 71 67 73 64 59 63 71 68 73 68 65 68 73 69 72 84 81 84 80 79 83 108 106 110 102 100 105 105 103 107 106 103 107 108 106 109 105 102 108 108 106 111 107 106 111 113 111 117 114 112 118 101 98 103 105 104 110 94 93 98 89 87 96 92 89 96 103 101 107 88 86 93 81 79 88 82 80 88 84 83 94 51 49 78 43 41 72 50 46 46 108 95 95 113 103 104 103 89 90 103 89 89 105 92 93 112 103 103 110 100 100 116 105 106 108 96 96 99 90 91 104 93 93 103 93 94 103 90 91 89 79 80 89 72 74 75 62 64 76 62 63 71 57 58 73 55 56 71 60 62 73 64 66 80 71 73 63 54 56 85 78 79 71 63 65 71 65 67 71 64 66 84 78 80 78 71 74 80 76 78 80 76 78 71 67 71 78 75 78 75 70 72 77 73 77 75 72 75 74 69 73 66 64 68 75 73 78 69 68 74 76 74 80 87 84 89 99 97 101 102 100 105 103 101 105 113 111 115 104 101 105 102 101 107 98 96 101 112 110 114 92 90 96 101 100 106 104 102 107 100 98 104 97 95 101 101 99 105 98 96 103 97 95 103 82 80 87 83 82 89 86 85 94 50 46 72 49 46 82 50 44 44 115 104 105 109 97 97 103 90 92 111 101 102 107 96 97 120 111 111 109 97 98 113 103 104 111 100 101 98 84 85 98 89 90 86 75 76 84 73 74 80 63 65 73 60 61 79 65 65 78 65 66 68 58 60 65 56 57 69 61 62 68 60 61 63 54 55 65 54 55 76 67 69 71 63 64 75 67 69 75 69 71 81 77 80 66 62 66 77 74 77 69 65 68 77 71 75 81 78 82 73 69 72 61 57 61 81 79 82 67 63 67 67 63 67 73 70 77 68 66 70 70 66 70 65 61 69 78 75 78 80 77 83 106 104 109 101 99 103 107 105 109 117 115 120 101 100 104 109 107 112 99 97 102 97 96 102 112 111 115 101 99 105 105 104 109 97 96 103 96 95 101 92 89 96 88 85 95 78 76 86 98 97 103 52 50 79 49 47 83 44 36 36 96 86 86 107 92 93 123 111 112 105 95 96 108 96 97 107 96 97 107 95 95 102 92 93 94 83 83 96 83 85 95 79 80 82 67 68 79 63 65 70 56 57 75 60 61 84 67 68 76 65 66 73 62 63 66 54 57 66 58 59 62 55 55 67 58 62 69 61 64 83 73 74 73 65 68 72 66 68 75 68 70 81 74 77 81 77 79 80 75 78 77 71 73 83 78 81 72 68 71 88 84 87 79 76 78 78 74 77 81 79 83 87 82 86 80 77 80 77 74 78 71 67 71 71 68 72 67 65 71 73 71 79 79 76 81 106 105 110 96 94 99 104 102 108 114 111 117 111 110 113 97 96 101 108 107 111 107 105 110 91 88 93 106 104 112 98 98 106 93 91 100 101 98 104 89 88 99 90 89 96 81 79 88 48 46 70 46 43 76 46 40 40 120 105 105 114 101 102 103 90 91 106 95 96 108 98 98 105 94 96 109 99 100 117 103 104 101 89 90 85 75 77 80 65 66 80 67 68 80 63 64 73 59 60 73 58 59 74 61 64 67 54 54 73 63 64 68 57 57 71 66 66 68 61 62 80 73 75 72 64 65 82 75 76 79 74 76 84 79 81 79 74 75 73 68 69 76 71 71 79 74 77 80 75 77 92 90 91 86 82 84 81 76 79 82 78 82 82 77 81 85 83 87 84 81 84 76 74 78 79 77 79 73 71 76 83 80 88 80 77 83 64 62 66 66 63 69 72 70 77 94 92 98 108 106 111 102 100 105 111 109 114 108 107 111 95 95 98 111 109 116 106 105 111 101 99 107 98 95 103 108 107 112 89 87 97 99 97 105 83 82 90 73 71 80 58 56 86 45 43 76 48 43 43 102 89 90 116 104 105 113 103 104 108 98 99 114 103 104 112 101 101 104 92 94 99 88 89 94 76 77 86 69 70 74 57 58 74 59 60 84 66 67 75 52 53 68 55 57 68 56 57 71 58 60 82 72 73 66 57 60 74 63 67 82 74 75 81 74 76 81 75 77 79 72 75 78 72 73 87 78 81 88 80 82 80 76 78 91 87 89 77 72 75 80 73 75 82 77 79 76 73 76 87 84 88 89 85 87 85 81 84 91 85 88 82 80 83 93 89 93 76 73 77 82 79 84 78 74 78 77 74 78 72 70 74 74 72 79 70 67 71 82 80 84 107 106 110 106 105 110 103 102 107 105 104 111 101 99 105 97 95 100 104 103 109 92 91 100 96 94 101 93 92 99 92 88 97 92 89 99 84 82 90 87 85 95 57 56 86 44 42 77 62 56 56 111 97 97 110 99 99 99 86 86 116 105 106 109 97 97 102 89 89 100 86 87 93 81 81 89 72 73 75 59 61 70 54 56 75 58 60 67 56 57 68 53 54 70 63 64 71 60 61 79 68 69 76 67 69 85 76 78 77 66 67 82 73 74 80 73 74 82 72 73 88 80 82 88 81 83 81 75 78 88 83 86 80 74 77 81 76 79 80 75 77 87 85 87 79 74 77 88 84 86 82 78 82 75 72 75 86 85 89 79 76 79 79 76 80 92 91 95 90 87 90 71 70 75 82 78 84 71 68 74 67 65 69 70 67 72 71 67 75 65 64 69 66 63 72 100 98 103 109 107 115 103 102 109 100 99 104 109 107 113 106 105 111 97 95 103 90 89 98 101 100 110 98 97 106 95 93 102 81 81 88 92 91 100 57 55 81 45 44 79 60 55 55 113 101 101 108 94 95 105 94 94 107 96 97 105 93 94 106 96 97 93 80 81 75 55 56 76 58 59 71 51 53 77 58 59 69 54 55 70 53 56 65 53 56 70 55 57 74 63 64 72 63 64 80 68 69 76 68 69 83 69 71 83 76 77 85 79 80 84 74 75 88 78 81 81 71 73 81 76 77 90 85 87 85 79 80 80 75 76 86 81 84 86 83 85 81 78 81 78 73 75 81 78 82 80 77 79 84 81 85 78 76 79 84 82 84 95 92 96 82 79 85 84 81 85 86 83 86 81 79 85 71 69 74 77 75 81 73 70 76 66 62 71 75 73 80 75 73 83 102 99 105 107 106 111 105 103 111 108 108 114 103 101 110 99 98 108 106 105 112 93 90 98 90 88 95 95 94 103 91 89 98 83 82 92 64 62 91 47 45 80 34 27 27 113 100 101 114 101 101 109 99 100 101 88 88 110 99 99 97 83 83 91 77 77 68 53 54 68 49 51 74 58 59 69 51 52 71 57 59 81 66 67 69 54 56 64 51 52 81 70 71 77 68 69 85 73 75 84 77 77 91 82 83 83 73 75 80 70 72 88 83 84 80 75 76 76 71 73 80 71 73 90 83 86 94 90 91 91 82 83 77 73 74 82 78 82 85 81 82 88 84 88 81 79 82 76 70 73 85 80 82 93 91 93 86 82 85 95 93 95 82 80 85 86 84 88 81 78 84 88 86 90 81 79 86 78 77 82 74 73 79 77 75 84 68 66 75 66 66 72 75 72 80 91 89 95 105 104 111 104 102 109 101 100 107 92 91 96 85 84 93 88 86 94 92 91 99 90 89 98 87 86 95 87 86 95 55 54 80 44 42 76 49 40 40 124 109 109 106 93 93 107 94 94 103 90 91 107 97 97 95 84 84 85 68 69 78 55 57 71 49 50 69 48 49 62 46 48 70 57 57 78 64 65 63 51 53 72 58 59 70 54 56 79 67 68 73 64 66 80 70 71 89 82 82 79 72 72 79 72 73 91 84 86 83 76 77 77 74 75 88 84 85 91 86 87 90 83 84 83 80 82 84 79 82 91 87 88 84 81 84 95 90 92 95 92 94 88 84 86 85 81 84 86 84 89 86 83 85 93 91 94 85 82 86 89 86 89 84 82 86 84 82 87 81 76 83 79 76 80 82 78 84 86 84 90 85 83 90 74 72 77 73 71 79 82 81 88 95 93 102 100 99 107 97 95 103 95 93 99 89 88 94 91 91 99 95 93 101 97 96 105 88 86 94 87 85 95 54 53 81 44 43 76 43 37 37 114 101 101 111 98 98 105 96 96 99 88 88 93 82 83 88 73 74 69 50 51 76 50 51 70 49 50 68 51 52 68 51 52 68 53 55 72 57 59 77 62 63 68 56 58 85 69 70 74 64 66 82 70 72 81 71 73 87 75 76 94 85 87 72 66 67 82 76 77 91 85 88 92 84 85 85 81 82 90 83 85 84 80 82 95 90 92 94 87 87 86 84 86 94 92 94 86 82 84 89 85 87 88 85 87 88 86 88 88 87 89 84 81 85 89 88 93 89 87 90 86 85 88 95 93 96 87 84 88 81 79 84 85 83 86 91 89 95 78 77 83 80 79 85 78 76 83 73 70 78 66 64 73 87 86 92 98 96 103 98 97 104 97 96 101 100 98 102 90 88 96 91 90 97 95 94 102 83 82 93 92 90 102 55 54 84 48 46 82 62 54 54 102 87 87 121 108 108 101 87 88 108 97 98 96 80 80 84 64 65 73 49 51 76 53 54 71 51 53 68 47 48 70 53 54 68 53 54 69 59 60 86 72 73 66 57 58 74 64 66 75 64 67 85 78 78 75 64 66 91 83 85 83 76 78 96 90 91 88 78 80 83 75 79 84 79 80 99 93 95 87 82 83 94 89 90 90 85 88 87 84 85 84 81 84 85 82 84 84 81 84 94 91 92 84 82 84 86 84 87 81 78 81 86 83 88 82 79 83 92 90 92 87 85 89 83 82 86 87 84 88 88 87 92 93 92 97 80 79 85 84 83 88 84 82 88 79 77 84 66 64 71 66 65 72 72 70 77 104 103 109 96 95 104 95 93 101 102 101 109 90 89 97 103 102 108 93 91 98 76 74 87 78 76 85 50 49 80 43 41 74 48 44 44 111 100 101 111 100 100 99 87 88 94 80 81 88 73 74 69 48 49 80 55 57 66 44 45 73 52 54 68 52 54 70 56 56 73 59 61 80 66 67 78 67 68 85 75 77 76 66 68 88 78 79 81 72 74 84 77 78 86 78 80 90 84 85 95 85 86 82 74 75 80 74 77 86 82 84 99 94 95 86 80 82 87 81 84 86 81 83 84 79 81 96 92 92 90 87 89 90 87 89 96 93 95 97 95 96 90 87 90 90 86 88 94 92 97 89 87 90 91 89 93 84 81 83 90 88 92 85 83 90 92 89 93 90 89 96 86 84 86 72 70 76 80 78 83 82 80 87 82 80 87 74 72 80 65 63 72 79 78 85 102 101 108 94 93 101 97 96 102 82 81 88 93 91 97 86 84 95 80 79 89 77 75 87 53 52 82 39 36 67 55 53 53 107 95 95 106 95 95 101 88 89 99 82 83 85 65 66 75 53 54 76 51 52 65 45 46 70 48 50 69 52 53 79 58 59 76 60 62 77 64 65 82 72 73 74 59 61 80 67 68 92 81 82 87 79 80 78 70 70 77 69 70 77 73 74 76 70 72 92 84 86 93 85 86 95 88 90 90 86 87 91 86 87 91 85 87 86 81 83 86 82 85 98 93 94 92 89 90 89 84 87 89 86 90 83 81 82 90 88 90 101 98 100 86 82 84 87 84 86 94 92 95 88 86 90 99 97 99 85 84 87 85 84 89 94 92 95 84 81 87 92 90 94 85 81 87 82 79 84 68 65 71 82 81 86 65 63 71 58 57 70 89 87 96 90 89 99 94 92 102 89 88 95 93 93 98 90 88 97 86 85 95 83 83 94 58 57 82 42 41 72 51 47 47 117 102 102 107 92 92 99 81 81 80 61 62 85 65 65 71 50 51 70 44 45 67 46 46 73 54 56 74 60 61 76 60 60 71 59 60 85 71 72 85 73 75 92 81 82 85 72 74 84 73 75 85 75 76 82 73 74 96 86 88 83 77 78 79 73 74 89 83 84 88 80 82 96 89 91 99 94 95 94 89 90 93 87 89 95 91 93 92 86 90 103 99 101 92 89 91 99 95 96 99 96 99 97 92 94 88 86 88 97 93 96 98 95 97 92 90 93 90 89 91 88 84 89 97 94 97 95 93 97 90 89 93 92 90 94 91 89 95 91 90 97 83 81 87 82 80 85 71 69 77 81 78 83 68 66 72 72 71 78 83 81 89 96 95 103 96 95 103 92 91 100 78 77 87 88 87 97 91 91 100 87 86 96 53 52 75 46 45 78 42 33 33 101 90 91 104 91 92 99 83 83 77 54 54 76 53 55 73 49 50 74 54 55 68 48 50 76 60 61 74 56 57 76 61 62 80 67 68 77 64 65 77 64 65 88 71 72 84 71 72 83 74 75 84 72 73 88 75 76 82 75 77 82 75 76 87 81 82 92 87 88 87 82 82 86 77 78 99 92 93 89 84 86 82 76 77 81 75 78 96 93 95 99 95 96 88 83 85 95 92 94 98 95 96 107 105 107 100 96 98 95 94 95 100 98 101 94 91 92 96 94 97 91 89 92 89 87 91 101 99 102 94 92 96 93 91 96 94 92 96 91 88 94 84 83 88 90 87 93 85 83 89 82 81 87 85 83 89 65 63 71 67 65 75 92 91 101 85 84 93 105 104 111 92 91 99 86 84 93 89 88 95 93 92 99 55 53 79 44 42 76 48 41 41 109 97 97 106 91 92 98 82 82 73 58 59 72 47 47 70 46 46 65 45 46 77 57 58 74 52 53 71 53 55 88 72 73 66 53 55 77 67 69 79 72 72 96 83 84 85 75 77 89 76 77 90 82 82 88 81 82 94 85 86 89 83 84 84 77 78 93 85 85 95 88 89 85 79 81 88 83 84 92 88 89 100 96 97 91 89 91 95 91 93 92 88 90 81 79 80 98 94 96 96 92 93 101 97 99 108 106 107 96 95 98 92 91 94 98 97 102 103 101 103 108 107 109 100 98 100 94 92 97 100 99 102 89 87 91 95 94 96 93 92 98 82 80 86 98 97 105 86 84 90 81 80 88 84 83 89 81 79 86 76 74 84 86 85 92 94 93 99 91 90 97 97 95 104 89 89 98 88 87 97 85 85 96 59 57 88 38 38 71 52 48 48 107 96 97 104 89 89 92 79 80 69 48 49 68 44 44 64 41 42 67 48 49 78 53 54 77 61 62 70 53 54 75 61 61 87 74 75 81 70 71 74 63 64 80 71 71 78 70 70 92 82 83 90 80 81 90 81 81 95 89 90 87 79 80 92 84 85 95 91 92 87 82 83 79 74 77 89 85 85 92 85 85 92 88 90 96 91 92 103 99 101 93 90 92 94 91 92 89 87 90 95 93 97 105 101 104 87 85 87 80 77 81 102 99 103 92 91 93 104 103 104 95 93 96 99 97 99 91 89 93 99 97 101 96 95 99 93 92 97 82 81 85 95 93 97 87 86 92 84 82 88 86 85 93 73 70 79 70 69 79 62 59 68 74 72 86 102 101 111 99 98 107 95 94 102 88 87 96 95 95 103 89 89 99 46 45 72 40 38 70 64 55 55 120 105 105 95 82 83 86 67 68 71 51 53 76 50 50 69 45 46 77 52 53 80 58 59 73 54 56 74 58 58 76 64 66 75 57 58 77 62 63 79 65 65 95 84 84 90 80 80 89 79 80 95 84 85 86 75 76 93 83 84 84 80 80 88 82 83 89 83 83 95 88 90 102 97 98 88 82 83 94 87 88 96 93 94 102 99 100 98 93 94 99 95 96 96 92 93 94 92 94 94 92 93 104 102 103 100 96 99 96 94 96 102 99 104 91 89 93 88 84 88 102 100 102 93 91 94 90 88 93 91 89 95 105 103 108 90 88 93 88 87 92 98 96 101 85 82 88 85 84 90 79 77 85 81 80 88 75 75 83 69 67 77 67 66 73 97 96 104 99 98 106 92 90 98 82 81 89 91 90 99 89 88 97 57 57 82 37 36 69 51 45 45 109 96 96 95 82 83 87 67 68 85 55 56 75 48 48 65 45 46 71 50 51 72 51 52 80 64 66 87 75 75 78 71 71 82 66 67 84 72 73 85 76 77 87 76 78 85 76 77 87 78 79 90 83 84 86 78 79 89 83 84 89 85 86 91 83 84 89 85 85 91 82 84 84 79 81 88 85 85 90 87 89 93 87 88 93 88 90 90 86 87 96 91 93 97 93 96 99 97 98 96 94 96 95 92 94 94 90 92 97 95 98 88 86 89 93 91 93 99 95 99 98 96 99 101 100 102 95 94 96 93 92 95 90 89 92 95 93 96 89 88 94 83 82 87 101 100 104 89 88 93 93 90 96 81 80 86 74 72 79 77 76 86 67 65 76 84 83 90 94 93 101 89 89 97 81 80 94 82 81 90 81 80 90 61 60 89 35 35 67 55 49 50 113 96 96 90 77 77 77 59 59 82 55 55 66 42 43 73 51 52 77 59 59 77 58 58 74 60 61 81 64 66 69 52 53 76 64 66 81 74 75 85 77 77 89 81 81 88 78 79 84 77 79 90 83 84 95 87 87 94 88 89 90 86 86 98 89 90 93 89 90 100 92 94 97 92 94 92 87 88 88 84 86 91 89 90 97 95 96 93 90 92 93 88 88 89 85 87 99 97 98 100 97 99 101 98 100 92 89 92 88 82 86 91 88 89 102 100 102 99 97 101 99 98 101 106 103 106 94 92 94 99 97 103 98 95 100 92 90 95 87 86 90 95 94 98 84 82 86 86 85 89 77 76 82 82 82 88 79 77 83 70 68 75 70 67 77 82 80 90 92 91 99 81 80 92 85 85 93 92 91 100 74 73 84 47 47 70 44 43 76 56 47 47 106 93 93 95 81 81 91 69 70 69 46 46 74 52 54 73 49 50 77 57 57 71 54 55 76 60 61 76 63 64 80 64 65 83 72 72 77 65 66 88 74 75 86 73 74 92 82 83 103 94 94 92 82 83 96 88 89 86 79 79 93 84 85 97 91 91 104 98 99 101 96 97 93 88 90 85 81 82 100 96 97 101 97 98 94 91 92 96 93 96 97 93 96 92 88 90 95 93 95 94 93 95 103 100 102 97 95 97 98 96 99 84 81 83 103 102 105 101 99 100 103 99 102 90 89 91 98 95 97 99 97 101 95 94 98 89 86 92 93 91 95 70 69 73 93 92 99 92 91 97 88 87 92 80 78 85 85 84 89 76 75 85 62 59 70 81 80 87 93 93 101 85 84 94 95 94 104 80 79 87 77 76 85 56 55 83 41 40 73 54 50 50 103 89 89 95 79 80 86 65 65 73 45 46 64 41 42 65 44 45 75 50 51 67 52 53 70 56 57 87 72 73 78 65 66 92 79 80 84 71 73 86 73 74 81 72 74 88 83 84 87 79 80 87 80 80 95 87 88 93 86 87 92 87 87 87 80 81 97 91 92 92 85 86 95 87 88 96 91 92 96 92 93 108 103 104 97 93 94 103 99 100 98 96 98 97 94 95 100 96 98 99 98 100 89 87 89 93 92 94 89 87 90 99 97 99 102 101 102 97 96 99 102 102 104 94 93 95 99 99 100 103 102 106 104 101 104 96 95 100 105 103 106 102 100 103 79 77 84 96 94 100 85 84 91 88 87 93 88 87 93 79 77 84 70 69 76 71 71 80 91 91 97 86 86 93 82 80 88 81 80 91 87 87 95 50 48 74 40 39 72 47 43 43 101 84 85 96 84 84 91 68 68 75 49 50 71 48 48 70 47 48 73 54 54 68 54 55 84 69 71 81 66 68 89 79 80 81 68 70 91 78 79 79 69 70 87 77 78 87 77 78 89 82 83 94 85 86 93 86 86 83 76 77 92 87 88 100 97 98 88 83 84 92 85 85 94 88 89 93 89 89 83 76 77 106 102 103 101 98 100 102 98 100 98 96 97 102 100 103 100 98 100 105 101 103 91 90 91 97 95 98 87 85 87 112 110 111 95 94 96 97 96 99 96 92 95 92 90 93 98 95 99 103 102 105 93 88 92 100 98 102 101 100 104 98 96 101 95 94 98 90 90 96 89 87 93 82 81 87 80 78 85 81 79 87 64 62 73 62 61 74 95 94 103 88 88 96 87 86 94 84 83 93 85 85 92 49 48 75 37 36 68 51 45 45 98 81 82 97 80 80 85 69 70 72 48 48 63 43 45 68 48 50 77 61 61 82 67 68 82 63 63 87 70 72 84 69 70 84 74 75 91 79 80 87 75 76 88 77 78 94 83 84 86 76 77 90 78 78 101 94 96 84 77 79 89 81 83 91 81 83 96 90 92 88 83 84 103 98 100 90 87 87 105 102 103 92 86 86 108 105 105 100 97 100 89 87 88 89 86 88 108 104 106 100 97 99 107 105 107 106 105 106 101 99 101 96 94 98 100 97 100 97 96 98 108 107 109 89 88 92 100 99 102 98 96 100 100 99 103 93 92 95 100 98 103 96 95 99 86 83 88 89 87 94 96 95 100 86 85 90 83 82 90 93 92 99 67 64 72 63 61 76 98 96 104 91 90 100 85 84 89 93 92 102 90 89 99 59 59 85 37 36 69 49 42 43 105 93 93 96 81 81 85 61 61 72 45 47 70 44 45 72 50 51 75 58 59 83 62 63 82 66 66 83 67 69 90 76 76 84 75 76 75 61 62 88 77 78 92 81 82 88 81 81 92 81 82 92 81 82 94 83 84 93 85 86 93 85 86 102 98 99 86 80 81 95 89 90 90 86 87 106 100 101 106 101 103 99 96 96 100 97 99 92 88 89 96 92 93 104 101 102 94 92 94 98 95 96 91 90 93 106 104 106 103 101 104 102 99 101 108 105 107 97 96 99 102 100 102 101 100 103 106 104 106 102 100 105 94 92 96 93 92 96 101 100 103 96 95 100 92 91 95 95 93 97 91 90 96 91 90 96 84 82 88 82 81 87 80 78 87 78 75 87 99 98 105 99 98 106 83 81 95 97 96 104 88 87 96 52 51 73 37 35 62 51 45 45 111 101 101 107 95 96 85 71 71 76 48 49 62 37 39 72 51 52 76 55 55 75 57 58 78 61 62 84 71 72 82 66 68 86 72 73 86 76 77 86 76 77 95 82 83 88 78 79 95 87 88 92 81 82 97 87 88 88 81 82 94 90 90 99 90 91 93 89 89 97 94 95 108 104 104 93 89 89 103 99 100 100 95 96 106 102 103 89 85 86 93 90 91 100 97 99 102 100 102 101 98 100 94 92 95 110 108 111 97 96 98 99 98 99 100 98 100 97 95 98 102 100 102 104 101 105 93 92 96 92 89 92 105 104 107 95 94 98 96 94 100 86 84 89 91 90 94 92 90 96 94 92 99 79 78 84 83 81 90 79 78 86 73 71 80 65 64 75 88 87 96 87 86 96 91 90 97 88 86 94 87 86 96 56 56 74 42 41 74 52 48 48 111 97 97 116 101 102 96 81 82 77 54 55 72 49 50 69 46 48 72 52 55 75 61 62 78 63 64 79 67 69 74 65 66 84 74 75 88 77 77 88 75 77 91 77 78 98 90 90 91 82 83 91 80 81 87 80 81 93 87 88 97 88 89 97 89 90 90 82 83 95 90 90 89 83 85 93 89 90 100 94 95 107 102 103 101 97 98 106 103 104 103 100 101 100 98 100 105 103 105 96 92 93 97 94 96 99 97 98 104 101 103 93 90 92 108 106 108 101 99 101 100 98 101 104 102 105 111 109 112 102 101 105 90 88 91 90 89 93 94 92 97 92 91 96 86 85 89 86 84 89 86 85 90 96 95 100 84 84 90 74 74 83 65 63 75 70 69 78 100 99 107 91 90 98 99 99 106 96 95 103 88 87 95 49 49 77 38 37 67 65 57 58 112 101 101 111 97 98 100 83 83 71 48 49 66 43 43 74 57 58 73 55 56 72 54 56 75 58 59 91 75 76 86 66 66 84 73 74 81 70 72 95 82 83 91 82 83 91 83 84 93 81 81 88 80 80 92 86 86 89 82 83 86 79 79 93 88 90 95 87 87 97 93 94 101 97 98 101 95 97 105 103 104 90 87 88 109 104 106 109 104 105 101 98 99 100 95 96 95 92 92 101 98 99 99 97 99 99 96 98 111 110 112 98 96 97 100 96 98 115 113 117 96 93 97 98 95 99 103 101 103 100 98 102 90 88 93 90 89 92 86 84 91 97 96 101 94 93 97 99 98 104 100 98 103 80 79 84 85 83 89 80 80 86 61 61 72 90 89 97 98 97 103 90 88 96 87 87 96 91 90 96 97 96 105 56 56 77 40 40 73 44 37 37 107 95 95 113 99 99 103 90 90 86 63 63 65 43 45 73 49 50 74 52 53 81 62 63 73 60 61 70 59 60 83 75 77 88 74 75 91 76 77 82 72 72 89 78 79 84 74 75 96 86 86 91 84 85 103 97 98 98 90 91 90 83 84 105 100 102 105 101 101 107 102 103 92 85 86 98 93 95 96 92 93 100 96 98 104 100 102 105 103 104 108 106 107 99 96 98 102 100 102 92 91 92 102 99 102 103 99 101 101 99 100 98 97 100 100 98 102 111 110 112 104 103 105 97 96 98 100 98 101 108 107 111 98 97 100 93 90 94 101 99 104 97 96 100 94 92 95 95 93 98 94 92 100 86 84 90 92 90 99 75 74 83 69 67 78 88 88 97 87 86 93 97 96 105 87 86 93 91 89 98 82 81 92 48 47 80 39 38 69 48 43 43 99 84 85 109 96 96 110 97 97 94 75 75 75 51 52 77 51 52 76 57 58 79 64 65 75 62 63 86 70 71 85 77 78 84 72 74 86 74 75 86 76 77 89 76 76 97 89 90 85 76 77 94 88 89 103 96 97 83 75 76 97 89 90 101 95 96 94 89 89 101 95 96 100 97 98 99 94 95 104 101 101 104 98 100 109 106 107 107 103 105 95 92 93 105 102 104 106 103 105 103 101 103 107 104 106 105 102 102 108 106 108 100 98 100 108 106 108 108 106 108 104 102 105 105 104 106 97 95 97 105 103 106 109 108 113 101 100 104 96 94 98 88 85 89 95 94 99 95 94 99 96 95 100 85 84 89 88 87 92 88 86 93 68 67 75 86 84 95 91 90 98 87 86 95 92 91 99 84 84 91 89 89 99 55 54 79 38 37 68 45 40 40 117 102 102 108 97 97 109 99 100 104 86 87 72 48 48 73 48 48 74 60 61 68 54 54 81 63 64 79 66 66 85 71 72 86 71 71 81 69 70 86 75 77 91 80 80 91 79 80 85 77 78 92 85 85 91 82 83 97 92 93 88 79 80 99 90 91 105 99 100 95 91 92 112 108 108 100 95 97 98 94 95 102 96 98 91 86 87 117 114 115 100 97 99 95 93 95 108 105 107 99 96 97 100 97 100 102 100 102 94 92 94 88 86 88 107 105 107 100 98 101 100 99 101 105 103 106 98 95 99 101 99 102 101 99 103 89 87 91 101 99 103 106 105 109 104 103 108 90 88 94 88 87 91 92 91 98 86 85 91 73 72 80 61 59 70 92 91 99 94 93 102 92 91 98 88 87 96 97 96 104 81 80 89 53 53 81 37 37 69 60 55 55 112 101 101 105 93 93 104 92 93 101 84 85 92 73 73 59 37 39 75 56 57 74 61 61 81 65 65 75 64 65 83 66 67 86 71 71 91 80 81 82 71 72 95 86 87 95 88 89 92 82 83 87 78 79 93 87 87 101 94 95 92 84 85 92 85 86 97 89 90 99 93 95 94 89 91 103 97 98 100 96 97 99 95 97 95 92 94 104 101 103 101 96 98 104 103 104 101 98 99 103 99 100 113 110 112 96 93 95 109 107 110 105 102 104 100 99 101 106 104 106 102 99 102 94 92 94 107 106 110 103 101 105 111 110 113 96 95 98 96 95 97 101 99 104 91 90 94 85 83 87 89 88 92 89 88 92 80 79 87 84 82 91 75 73 83 99 97 105 97 96 103 88 88 97 97 96 105 87 86 96 84 83 95 55 53 79 41 40 72 52 47 47 95 83 84 117 105 105 111 100 100 111 103 103 89 68 69 73 51 53 76 54 54 72 53 55 77 59 60 81 66 67 83 71 71 73 61 62 81 73 73 91 82 83 92 83 84 88 76 76 97 87 88 96 88 89 94 86 87 93 85 88 97 92 93 99 94 96 90 84 85 105 100 101 105 99 100 102 99 100 106 102 104 107 103 105 106 103 105 100 97 98 105 102 104 99 97 98 97 92 93 105 103 104 102 100 102 103 100 102 101 99 101 98 95 99 93 90 92 90 87 91 107 105 107 98 96 98 101 99 103 98 97 101 101 100 104 96 94 98 92 90 95 95 94 99 92 91 95 91 89 95 82 80 88 89 88 96 81 80 88 87 87 96 81 80 86 102 101 108 88 87 94 92 91 99 97 96 105 83 82 90 94 92 100 61 60 83 45 43 79 51 43 44 112 103 104 110 98 99 120 104 105 109 94 94 105 92 92 72 56 56 69 48 48 73 60 61 76 61 61 84 69 70 78 64 66 83 75 76 74 60 61 84 75 76 84 78 78 86 77 78 96 86 87 80 69 71 100 92 94 96 90 90 84 76 77 104 96 97 92 85 87 91 83 85 89 85 86 87 83 85 93 88 90 92 87 89 106 103 105 100 95 98 102 96 97 104 99 102 98 94 95 100 98 101 105 102 103 110 106 109 100 97 100 100 99 100 109 108 110 106 105 106 94 91 94 93 90 92 102 99 102 95 94 96 108 105 108 84 82 87 92 91 98 88 86 92 83 80 84 85 83 89 94 92 97 78 76 83 74 72 82 77 75 82 108 107 112 111 111 119 101 100 106 93 92 98 89 88 96 87 86 94 87 86 93 53 52 78 37 35 66 66 60 60 108 98 98 112 96 97 107 96 96 108 95 95 103 88 88 88 77 78 77 55 57 74 57 59 70 51 52 82 65 66 76 61 62 86 71 72 86 74 76 82 75 75 94 83 84 100 91 91 92 84 85 89 82 82 92 80 80 99 91 92 96 90 91 89 79 81 91 86 87 109 104 104 106 100 101 91 86 88 103 98 99 105 101 102 101 97 98 101 96 98 100 97 99 95 92 93 98 95 97 103 100 102 102 100 102 98 96 97 102 99 102 98 97 100 98 95 96 106 105 107 109 107 109 104 102 105 99 98 100 97 96 99 95 92 96 111 109 112 104 103 107 88 86 91 99 98 100 93 92 97 82 80 87 80 79 87 86 84 91 83 81 88 96 95 105 102 101 110 103 102 109 89 88 97 80 79 87 93 92 100 88 88 100 64 63 92 41 40 73 52 47 47 116 101 101 119 103 104 115 104 104 121 111 111 111 100 100 111 98 98 82 62 63 67 46 47 81 60 61 77 65 66 80 65 65 82 71 72 83 70 71 75 64 65 86 75 76 80 68 68 85 77 78 99 90 93 101 93 94 98 92 92 91 83 83 97 93 93 100 94 94 92 86 87 101 97 98 93 90 91 99 96 97 93 87 87 97 93 94 92 85 86 106 104 105 101 98 100 95 93 95 96 93 94 106 103 107 91 88 91 94 92 96 99 96 97 98 96 99 98 97 100 102 101 105 95 94 96 93 91 95 95 94 97 108 107 110 100 99 101 97 96 101 100 99 102 100 99 102 92 90 95 97 96 103 78 77 83 67 65 71 98 97 104 103 102 109 95 95 100 91 90 98 100 98 105 89 88 96 91 89 99 79 77 85 51 50 77 40 39 70 49 44 45 107 97 98 107 95 96 113 104 105 108 97 97 114 103 104 103 93 93 99 85 86 77 56 57 72 53 56 72 55 56 83 69 71 87 76 77 87 71 72 82 68 69 83 68 68 81 70 71 94 85 85 96 87 88 95 90 91 102 94 95 94 88 89 104 98 99 96 92 93 93 89 91 95 90 91 102 96 97 93 88 90 100 96 97 99 95 96 105 102 104 104 100 102 102 98 99 110 109 111 99 96 97 103 102 104 102 101 103 100 98 99 97 93 96 98 95 98 111 108 110 95 93 96 102 100 104 101 99 101 98 95 98 100 98 102 92 91 95 87 86 90 94 92 96 94 92 96 89 87 91 87 85 90 78 77 83 97 96 103 104 103 108 93 92 102 92 91 98 97 95 101 89 88 95 89 87 95 89 88 97 88 86 94 55 54 84 41 39 70 62 57 57 114 102 102 123 111 112 118 103 104 119 107 108 110 95 95 111 99 100 119 106 106 91 78 78 73 55 55 74 59 59 81 64 65 93 80 81 86 75 76 82 69 70 89 77 78 97 87 89 94 84 84 89 79 80 90 82 83 96 87 88 88 80 81 88 83 84 92 85 86 91 84 86 107 102 103 99 95 95 88 84 85 95 90 92 109 104 105 103 100 101 97 93 94 112 108 110 98 94 95 99 97 98 95 93 94 112 110 112 105 103 106 107 104 107 97 95 98 104 103 105 91 89 93 101 100 102 103 102 106 93 92 94 103 101 106 92 90 97 99 98 101 85 82 88 90 87 92 84 83 88 83 82 89 76 74 83 107 106 112 101 99 106 99 98 105 99 98 103 98 97 106 85 84 92 92 90 97 80 79 90 90 89 100 58 57 80 45 43 78 57 53 53 111 98 99 113 99 100 111 99 99 116 104 105 103 91 92 114 101 102 112 99 99 97 82 83 87 68 68 75 51 53 73 58 59 77 65 66 76 65 66 84 71 72 81 71 72 84 74 75 91 83 84 100 89 89 92 85 86 87 77 78 86 77 78 91 78 79 94 88 89 95 91 93 93 88 89 104 97 99 96 89 89 100 93 96 91 87 88 101 98 99 99 96 97 92 89 90 110 107 110 99 97 98 109 105 106 95 91 94 103 102 103 94 90 94 101 99 102 98 96 99 86 84 87 98 96 98 104 102 105 91 89 93 100 98 100 94 93 99 98 96 99 91 89 93 83 81 87 87 85 92 79 78 85 97 96 103 109 109 115 109 108 112 95 93 102 106 105 113 99 97 104 94 92 101 102 100 106 91 90 99 93 93 103 55 54 82 46 44 80 40 34 34 119 108 108 119 107 108 102 90 91 114 104 104 105 90 91 116 103 103 111 101 101 116 104 104 114 103 104 90 75 75 78 64 65 76 62 63 68 58 59 75 64 66 84 75 76 78 67 68 93 83 84 87 77 77 93 88 88 98 92 93 96 93 94 89 84 85 98 93 94 91 86 87 98 92 94 93 87 89 96 90 92 98 94 95 92 89 92 105 103 105 108 104 106 98 97 99 109 106 108 99 95 96 98 95 95 94 92 95 100 97 100 105 103 107 100 97 99 94 93 95 93 89 93 105 102 105 94 91 95 101 98 100 93 91 94 88 86 90 89 87 91 81 80 84 85 81 86 81 79 86 79 79 84 101 100 106 112 110 117 106 106 111 102 101 108 104 102 106 106 105 111 102 101 107 89 87 93 102 101 108 89 88 95 57 56 87 47 44 81 55 48 48 106 96 96 102 92 93 109 96 96 103 94 94 112 103 103 110 98 99 122 107 108 111 100 100 111 99 100 102 91 91 80 63 64 77 67 68 76 63 65 79 66 68 78 67 68 78 71 72 83 74 75 94 83 83 87 78 78 87 82 82 94 87 88 91 84 86 97 88 89 101 97 99 88 83 84 96 90 92 93 89 89 97 94 95 98 95 96 100 95 96 102 99 99 104 101 104 101 98 100 86 83 85 102 99 102 99 94 97 89 87 89 105 102 103 95 95 97 95 91 93 89 87 90 89 88 92 92 90 95 98 96 99 92 90 95 87 86 88 86 84 90 93 91 95 74 73 78 89 87 94 104 103 110 110 109 113 106 105 110 103 101 108 102 101 107 93 92 101 97 96 104 110 110 117 99 97 105 89 88 96 94 92 100 60 58 80 46 43 78 46 42 42 118 108 108 121 110 111 113 102 104 107 95 96 107 96 96 110 95 96 113 100 100 117 107 107 108 97 97 112 101 101 102 90 91 78 64 67 75 64 65 85 72 73 85 75 76 79 69 70 81 74 76 84 76 77 86 77 77 81 73 74 100 93 94 93 86 87 83 74 77 96 91 92 99 91 93 94 91 93 92 88 89 92 86 87 94 89 92 101 98 100 91 88 89 99 94 96 102 99 102 111 108 110 98 95 97 87 84 87 100 99 100 96 94 95 94 90 92 98 96 98 102 100 102 94 92 96 96 95 99 88 87 91 93 91 94 81 78 82 85 84 87 84 82 88 84 81 86 95 94 99 110 109 115 107 106 110 103 103 109 113 112 119 104 103 110 108 106 113 102 101 108 98 95 103 96 93 99 92 90 98 89 87 95 62 61 87 44 42 76 53 45 45 113 99 99 109 98 100 118 106 107 117 107 108 114 102 104 101 92 92 104 93 93 91 80 81 108 91 92 119 106 107 116 107 107 101 91 92 73 60 61 71 60 60 79 63 64 66 58 60 78 67 69 84 74 75 82 70 72 91 87 87 89 79 81 91 85 87 91 87 87 84 79 80 89 85 86 89 83 85 98 94 96 90 85 86 94 88 90 95 92 93 95 92 94 103 99 101 103 101 103 97 93 95 97 94 96 94 92 94 92 89 91 97 95 98 104 102 104 87 85 88 95 93 96 88 87 90 85 83 87 90 88 91 88 86 90 94 92 95 77 74 78 75 73 79 100 97 103 105 104 109 102 102 107 106 105 110 100 99 104 99 97 102 97 95 104 94 93 99 95 93 102 92 90 96 92 90 97 86 86 93 87 85 93 49 48 80 46 44 76 52 45 45 103 90 91 110 98 99 108 95 95 105 93 95 113 102 103 110 96 97 104 95 96 105 97 97 114 105 105 116 105 106 107 96 97 105 92 92 102 92 93 82 70 71 71 58 60 73 62 63 68 59 61 83 73 74 89 77 78 78 70 71 92 84 84 89 79 80 96 92 94 91 85 86 95 88 90 93 86 87 90 86 88 89 84 86 97 92 94 92 89 91 100 97 99 96 93 94 95 92 94 91 88 90 98 94 96 93 91 93 96 94 96 111 109 111 87 84 87 94 92 95 91 88 91 93 91 94 86 84 85 89 88 92 83 81 86 87 84 87 80 77 82 96 95 99 105 103 109 113 112 117 112 111 116 113 111 115 102 101 107 103 102 106 95 93 101 96 95 102 98 95 101 94 93 103 101 100 107 91 88 101 86 85 92 49 48 77 40 38 68 39 31 33 103 88 89 110 100 101 123 111 112 107 97 97 107 97 97 113 100 100 103 91 92 121 109 109 105 95 95 110 101 102 106 96 98 106 94 95 110 100 101 110 100 101 78 68 69 72 60 61 76 68 70 83 70 72 74 63 64 80 72 73 69 66 66 81 76 78 83 77 78 91 86 87 81 77 77 90 83 85 88 82 84 95 90 92 87 83 85 87 85 87 80 76 77 101 98 100 103 100 102 95 91 93 98 95 98 92 90 92 88 85 88 93 89 92 85 83 86 85 85 89 86 84 87 94 93 98 89 88 91 85 82 87 89 86 90 98 97 102 109 107 111 105 104 109 114 113 117 97 97 102 121 119 125 100 98 105 104 102 109 107 105 111 100 98 103 89 87 94 110 109 115 96 94 104 101 99 107 89 85 93 100 99 106 58 55 85 49 46 84 50 44 44 100 89 89 120 108 109 103 89 89 106 94 94 117 106 107 101 89 91 109 97 98 108 93 94 106 96 96 101 88 88 108 99 100 104 93 94 117 107 107 113 106 106 97 89 89 87 79 81 73 65 66 79 69 71 82 74 75 77 67 69 76 69 70 85 77 80 77 72 73 87 82 83 93 86 88 86 80 81 95 90 92 95 91 93 99 95 97 82 78 79 102 98 100 85 82 84 96 91 93 104 101 103 90 86 89 93 90 92 88 85 89 93 91 93 82 80 83 87 84 89 87 86 89 91 89 92 82 80 82 79 78 82 98 96 100 111 109 113 106 105 110 109 108 114 110 109 113 104 102 107 110 108 114 101 100 106 100 99 106 99 98 105 98 97 103 96 94 101 85 83 90 92 91 98 88 86 95 92 89 95 77 76 88 62 61 86 46 44 77 49 45 45 96 87 88 105 94 94 108 96 97 107 94 96 108 98 98 110 97 98 104 94 95 98 88 89 110 97 98 105 93 93 107 94 95 113 104 104 94 83 83 112 102 103 95 86 87 102 91 93 110 102 102 95 86 87 77 71 72 79 68 69 75 67 68 81 73 74 88 79 81 78 74 76 84 77 78 92 86 88 86 81 81 88 84 86 79 74 76 84 79 81 88 85 87 85 83 84 100 96 98 95 93 95 88 86 89 99 97 99 91 88 91 89 85 88 85 82 84 82 78 82 84 82 85 85 82 86 94 91 96 110 109 112 113 112 117 113 112 116 109 107 112 96 95 99 92 92 95 98 96 101 114 112 117 99 97 104 107 105 111 93 90 96 110 110 115 94 91 98 102 100 106 92 89 94 91 89 96 76 75 81 92 90 98 58 56 80 40 37 66 51 42 42 118 104 104 103 90 91 110 101 102 111 99 100 104 90 91 110 99 101 106 96 97 108 96 96 98 91 92 102 94 94 104 93 95 103 92 92 102 95 96 105 98 98 116 106 106 111 105 106 101 95 97 104 95 95 93 83 83 82 76 78 67 57 58 77 71 72 82 76 77 77 72 74 85 79 81 86 80 81 99 95 97 84 78 79 81 76 77 86 83 84 90 87 88 90 86 87 87 84 86 89 85 87 77 74 76 85 83 85 82 81 83 78 75 79 74 72 76 83 80 84 89 87 90 92 90 95 110 109 113 105 103 107 108 107 111 110 109 112 112 110 114 106 103 108 103 101 105 102 99 105 92 90 94 113 112 116 111 108 114 97 95 101 88 86 91 94 93 100 94 92 99 88 85 94 91 89 97 87 86 97 91 89 96 58 53 82 41 39 70 51 46 46 102 84 85 112 102 103 88 78 79 100 87 88 98 88 90 102 91 93 98 86 87 96 85 87 106 99 100 94 83 84 92 81 82 104 92 94 102 90 90 93 85 86 101 90 91 105 94 94 116 110 110 86 80 80 102 94 96 105 96 97 100 93 94 92 86 88 73 67 68 79 72 73 76 67 70 79 73 75 74 68 69 79 73 75 76 72 75 82 78 80 72 67 69 86 81 82 72 69 72 83 78 79 77 73 76 64 60 64 77 73 76 77 74 79 97 94 98 106 106 110 101 100 102 99 96 100 113 112 116 110 109 112 100 98 102 104 102 107 104 103 106 112 111 116 103 101 106 99 97 104 106 104 109 98 97 103 105 103 107 93 91 99 96 93 99 91 90 97 93 90 97 92 90 98 98 96 104 84 81 90 81 79 88 49 47 72 40 38 67 49 43 43 97 88 90 107 95 96 94 83 85 103 90 91 101 91 92 95 81 82 115 105 105 110 100 101 100 92 92 101 92 92 108 98 98 96 86 88 103 92 93 108 99 100 99 92 94 106 98 98 102 93 94 102 94 95 107 100 102 95 86 87 103 94 95 104 99 100 104 97 98 90 83 84 90 83 85 81 77 79 75 68 71 72 66 68 65 61 64 80 75 76 78 76 77 76 72 75 88 84 85 89 85 89 86 84 87 98 95 97 107 104 108 107 105 107 99 96 100 106 103 105 100 97 101 108 106 111 99 97 102 105 102 105 105 102 106 103 100 105 103 100 105 111 109 113 93 91 95 106 103 107 82 79 83 97 96 102 94 92 98 97 95 101 95 93 98 85 82 89 84 82 90 97 95 101 90 88 95 82 79 84 87 85 92 60 57 83 45 43 76 49 42 42 101 91 91 103 92 92 95 84 84 99 88 89 104 93 93 103 94 95 97 89 90 106 97 98 102 91 92 101 90 91 101 89 90 100 91 93 97 87 88 96 88 89 100 89 90 100 93 93 99 93 94 97 89 91 109 99 101 100 93 94 97 90 91 98 91 93 103 97 99 94 90 92 85 80 82 105 100 101 110 105 107 100 93 96 106 101 103 103 100 101 95 91 93 104 101 103 109 105 107 94 92 95 93 90 92 105 101 104 95 93 95 98 95 97 99 96 99 96 94 98 100 98 103 100 98 101 104 101 105 99 96 99 89 87 91 107 105 109 97 94 99 100 98 102 96 93 98 95 94 99 97 95 97 97 96 102 102 100 106 96 95 102 95 93 98 96 94 102 91 90 99 83 81 89 87 84 90 80 77 83 80 79 87 47 44 66 45 43 76 50 41 41 105 95 96 88 77 79 102 90 91 99 89 90 84 74 75 91 83 83 99 90 90 98 91 91 96 88 88 98 85 87 111 100 101 90 84 85 104 95 96 92 85 86 99 90 92 93 87 88 96 87 88 95 87 88 99 91 92 91 85 86 101 90 92 95 90 90 105 98 99 91 87 89 101 94 96 103 97 98 102 93 94 96 92 94 102 96 97 96 91 93 103 96 98 99 97 98 99 96 97 99 96 98 94 91 93 102 99 102 94 90 93 99 94 98 91 88 91 95 93 97 92 89 93 110 108 111 95 92 94 104 103 107 93 91 97 93 90 94 92 89 94 102 100 106 101 98 104 104 100 104 94 92 96 93 91 96 91 89 96 89 88 90 93 89 94 102 99 106 88 84 93 80 79 89 83 82 90 82 80 90 84 83 88 56 51 71 45 41 71 56 53 54 93 83 83 93 82 83 94 83 84 94 83 83 100 89 89 97 87 88 107 97 97 97 85 86 88 78 79 106 95 95 92 83 85 92 85 86 94 86 87 92 82 84 99 92 93 97 92 92 93 84 86 100 91 93 95 88 89 92 84 85 95 89 90 100 92 93 90 80 82 93 89 91 108 101 102 97 90 92 98 93 95 87 82 84 92 87 89 88 82 84 106 100 103 91 86 89 94 90 92 89 87 90 93 90 94 95 91 95 96 89 92 90 86 90 91 89 92 97 96 100 96 93 97 94 92 95 96 92 95 93 90 95 97 94 99 98 96 101 98 95 100 91 89 94 91 88 93 100 98 103 86 83 92 90 88 95 93 91 94 92 90 95 96 95 102 89 88 94 87 83 88 88 86 92 77 76 83 83 82 89 80 78 86 43 41 65 43 40 72 43 41 42 90 78 79 98 85 86 93 83 84 95 85 87 86 76 77 85 76 78 95 86 87 91 79 79 83 72 74 90 83 85 94 87 87 99 87 88 96 87 88 97 89 90 100 90 91 91 82 84 98 91 92 93 85 86 97 91 92 97 88 89 96 88 89 96 86 87 82 76 78 91 82 83 90 84 86 81 74 76 102 96 98 96 89 91 87 82 85 99 93 95 97 94 96 94 91 93 96 92 94 97 94 98 97 93 96 94 89 92 93 89 94 85 81 84 98 96 99 89 86 90 96 93 97 98 96 100 97 93 97 93 91 94 96 94 98 102 99 103 94 91 94 105 103 105 102 100 104 91 88 93 100 98 102 97 94 99 95 93 97 87 85 90 94 91 98 86 84 90 84 82 87 81 81 88 79 78 83 77 73 81 78 76 82 49 46 67 41 38 70 25 23 23 47 38 38 41 36 37 29 25 25 39 33 34 45 40 41 46 43 44 38 31 35 47 43 43 43 37 38 42 38 39 47 43 43 45 41 42 43 42 42 62 60 60 48 46 46 51 48 49 41 39 39 50 46 47 47 43 44 48 44 44 51 48 48 49 48 48 51 49 49 50 46 46 47 46 46 45 44 45 44 41 43 36 34 35 50 49 49 45 43 44 42 40 42 51 48 49 37 37 38 45 43 44 42 40 40 47 44 45 36 35 37 40 38 39 46 45 46 43 42 45 43 43 43 35 32 35 26 24 26 47 44 47 43 41 44 40 40 43 39 38 41 46 43 44 36 36 40 51 50 51 31 30 31 39 38 39 37 36 41 48 48 49 40 39 42 39 36 40 43 43 46 46 43 47 50 49 52 34 30 33 31 31 32 40 38 62 42 39 67 