P3
64 64
255
0 0 0 0 0 0 0 0 0 0 0 0 0 0 0 0 0 0 105 63 63 0 0 0 0 0 0 0 0 0 0 0 0 0 0 0 0 0 0 0 0 0 0 0 0 0 0 0 0 0 0 0 0 0 0 0 0 0 0 0 0 0 0 0 0 0 0 0 0 0 0 0 0 0 0 0 0 0 0 0 0 0 0 0 0 0 0 0 0 0 0 0 0 0 0 0 0 0 0 0 0 0 0 0 0 63 63 105 0 0 0 0 0 0 0 0 0 0 0 0 0 0 0 0 0 0 0 0 0 0 0 0 0 0 0 0 0 0 0 0 0 0 0 0 0 0 0 0 0 0 0 0 0 0 0 0 0 0 0 0 0 0 0 0 0 0 0 0 63 39 63 0 0 0 0 0 0 0 0 0 0 0 0 0 0 0 63 39 63 0 0 0 0 0 0 0 0 0 0 0 0 0 0 0 63 39 63 0 0 0 0 0 0 0 0 0 0 0 0 0 0 0 0 0 0 0 0 0 0 0 0 0 0 0 0 0 0 0 0 0 0 0 0 0 0 0 0 0 0 0 0 0 0 0 0 0 0 0 0 0 0 0 0 0 0 0 0 0 0 0 0 0 0 0 0 0 0 0 0 0 0 0 0 0 0 0 0 0 0 0 0 0 0 0 0 0 0 0 0 0 0 0 0 0 0 0 0 0 0 0 0 0 0 0 0 0 0 0 0 0 0 0 0 0 0 0 0 0 0 0 0 0 0 0 0 0 0 0 0 0 0 0 63 63 105 0 0 0 0 0 0 0 0 0 63 63 105 0 0 0 63 63 105 0 0 0 0 0 0 0 0 0 0 0 0 63 39 63 0 0 0 0 0 0 105 63 63 0 0 0 0 0 0 105 63 63 0 0 0 0 0 0 0 0 0 0 0 0 0 0 0 0 0 0 0 0 0 0 0 0 0 0 0 0 0 0 0 0 0 0 0 0 0 0 0 0 0 0 0 0 0 0 0 0 0 0 0 105 63 63 0 0 0 0 0 0 0 0 0 0 0 0 0 0 0 0 0 0 0 0 0 0 0 0 0 0 0 0 0 0 0 0 0 0 0 0 63 63 105 0 0 0 0 0 0 63 63 105 0 0 0 0 0 0 0 0 0 0 0 0 0 0 0 0 0 0 0 0 0 0 0 0 0 0 0 0 0 0 0 0 0 63 63 105 0 0 0 0 0 0 0 0 0 0 0 0 63 63 105 0 0 0 63 63 105 0 0 0 0 0 0 0 0 0 0 0 0 0 0 0 0 0 0 0 0 0 0 0 0 0 0 0 0 0 0 105 63 63 0 0 0 0 0 0 105 63 63 0 0 0 0 0 0 105 63 63 0 0 0 105 63 63 105 63 63 0 0 0 0 0 0 0 0 0 0 0 0 0 0 0 0 0 0 0 0 0 105 63 63 0 0 0 0 0 0 0 0 0 0 0 0 0 0 0 0 0 0 0 0 0 0 0 0 0 0 0 0 0 0 0 0 0 0 0 0 0 0 0 0 0 0 0 0 0 0 0 0 0 0 0 0 0 0 0 0 0 0 0 0 0 0 0 0 0 0 0 0 0 0 0 0 0 0 0 0 0 0 0 0 0 0 0 0 0 0 0 0 0 0 0 0 0 0 0 0 119 119 143 0 0 0 0 0 0 0 0 0 0 0 0 0 0 0 0 0 0 0 0 0 0 0 0 0 0 0 0 0 0 0 0 0 0 0 0 0 0 0 105 63 63 0 0 0 0 0 0 0 0 0 0 0 0 0 0 0 105 63 63 0 0 0 0 0 0 0 0 0 0 0 0 0 0 0 0 0 0 0 0 0 0 0 0 0 0 0 0 0 0 0 0 0 63 39 63 0 0 0 63 39 63 0 0 0 0 0 0 0 0 0 0 0 0 0 0 0 0 0 0 0 0 0 0 0 0 0 0 0 0 0 0 0 0 0 0 0 0 0 0 0 87 72 119 0 0 0 0 0 0 0 0 0 0 0 0 105 63 63 0 0 0 0 0 0 63 63 105 0 0 0 0 0 0 63 63 105 87 87 143 0 0 0 0 0 0 0 0 0 0 0 0 0 0 0 0 0 0 0 0 0 0 0 0 63 63 105 0 0 0 0 0 0 105 105 105 0 0 0 0 0 0 0 0 0 0 0 0 105 63 63 0 0 0 0 0 0 0 0 0 0 0 0 0 0 0 0 0 0 0 0 0 0 0 0 0 0 0 0 0 0 0 0 0 0 0 0 105 63 63 0 0 0 0 0 0 0 0 0 0 0 0 0 0 0 63 63 105 0 0 0 105 63 63 0 0 0 0 0 0 0 0 0 0 0 0 0 0 0 0 0 0 0 0 0 0 0 0 0 0 0 0 0 0 0 0 0 0 0 0 0 0 0 0 0 0 0 0 0 0 0 0 0 0 0 0 0 0 0 0 0 87 87 143 0 0 0 63 63 105 63 63 105 0 0 0 0 0 0 0 0 0 0 0 0 0 0 0 0 0 0 63 63 105 0 0 0 0 0 0 0 0 0 0 0 0 0 0 0 0 0 0 0 0 0 0 0 0 105 63 63 0 0 0 0 0 0 0 0 0 0 0 0 0 0 0 105 105 105 0 0 0 0 0 0 0 0 0 0 0 0 0 0 0 0 0 0 0 0 0 0 0 0 0 0 0 0 0 0 0 0 0 0 0 0 0 0 0 0 0 0 0 0 0 105 63 63 0 0 0 0 0 0 0 0 0 63 63 105 0 0 0 0 0 0 0 0 0 0 0 0 0 0 0 0 0 0 0 0 0 0 0 0 0 0 0 0 0 0 0 0 0 0 0 0 0 0 0 0 0 0 0 0 0 0 0 0 0 0 0 0 0 0 0 0 0 0 0 0 0 0 0 0 0 0 0 0 0 0 0 0 63 63 105 0 0 0 0 0 0 0 0 0 0 0 0 63 63 105 0 0 0 0 0 0 0 0 0 105 63 63 0 0 0 0 0 0 87 87 143 0 0 0 0 0 0 0 0 0 0 0 0 0 0 0 105 63 63 0 0 0 0 0 0 105 105 105 0 0 0 0 0 0 0 0 0 0 0 0 0 0 0 0 0 0 0 0 0 0 0 0 0 0 0 105 63 63 0 0 0 0 0 0 0 0 0 0 0 0 0 0 0 0 0 0 0 0 0 0 0 0 0 0 0 0 0 0 0 0 0 0 0 0 0 0 0 0 0 0 105 105 105 0 0 0 0 0 0 0 0 0 0 0 0 0 0 0 0 0 0 63 63 105 0 0 0 0 0 0 0 0 0 0 0 0 0 0 0 0 0 0 0 0 0 87 87 143 0 0 0 63 63 105 0 0 0 0 0 0 63 63 105 0 0 0 0 0 0 63 63 105 63 63 105 63 63 105 0 0 0 0 0 0 0 0 0 0 0 0 63 63 105 63 63 105 63 63 105 0 0 0 0 0 0 0 0 0 0 0 0 0 0 0 0 0 0 0 0 0 0 0 0 0 0 0 143 87 87 105 63 63 0 0 0 0 0 0 105 63 63 0 0 0 0 0 0 0 0 0 0 0 0 0 0 0 105 63 63 143 87 87 105 63 63 105 63 63 0 0 0 0 0 0 0 0 0 0 0 0 63 63 105 0 0 0 0 0 0 105 63 63 143 87 87 0 0 0 0 0 0 0 0 0 0 0 0 0 0 0 0 0 0 63 63 105 0 0 0 0 0 0 105 105 105 0 0 0 0 0 0 0 0 0 0 0 0 0 0 0 0 0 0 0 0 0 0 0 0 0 0 0 0 0 0 0 0 0 63 63 105 63 63 105 0 0 0 0 0 0 63 63 105 0 0 0 0 0 0 0 0 0 0 0 0 0 0 0 63 63 105 0 0 0 0 0 0 0 0 0 0 0 0 0 0 0 0 0 0 0 0 0 0 0 0 0 0 0 63 63 105 0 0 0 0 0 0 0 0 0 63 39 63 0 0 0 0 0 0 0 0 0 0 0 0 0 0 0 0 0 0 0 0 0 0 0 0 0 0 0 0 0 0 105 63 63 0 0 0 63 63 105 0 0 0 105 105 105 0 0 0 0 0 0 105 63 63 0 0 0 105 63 63 0 0 0 63 63 105 0 0 0 0 0 0 0 0 0 0 0 0 105 63 63 0 0 0 0 0 0 63 63 105 0 0 0 0 0 0 0 0 0 0 0 0 0 0 0 87 87 143 87 87 143 87 87 143 0 0 0 0 0 0 0 0 0 0 0 0 0 0 0 63 63 105 105 105 105 0 0 0 0 0 0 0 0 0 63 63 105 0 0 0 0 0 0 0 0 0 0 0 0 0 0 0 0 0 0 0 0 0 63 39 63 0 0 0 0 0 0 0 0 0 0 0 0 0 0 0 0 0 0 0 0 0 105 63 63 0 0 0 0 0 0 0 0 0 63 39 63 0 0 0 105 63 63 0 0 0 63 63 105 0 0 0 105 63 63 63 63 105 0 0 0 105 105 105 0 0 0 0 0 0 105 105 105 0 0 0 105 63 63 0 0 0 0 0 0 0 0 0 0 0 0 0 0 0 0 0 0 0 0 0 87 87 143 0 0 0 0 0 0 0 0 0 63 63 105 0 0 0 0 0 0 63 63 105 0 0 0 0 0 0 0 0 0 0 0 0 0 0 0 63 63 105 0 0 0 0 0 0 0 0 0 105 63 63 0 0 0 0 0 0 0 0 0 0 0 0 0 0 0 0 0 0 0 0 0 0 0 0 105 63 63 0 0 0 0 0 0 0 0 0 0 0 0 0 0 0 0 0 0 0 0 0 0 0 0 0 0 0 0 0 0 0 0 0 0 0 0 105 105 105 0 0 0 0 0 0 0 0 0 0 0 0 105 63 63 0 0 0 0 0 0 0 0 0 63 39 63 105 105 105 0 0 0 0 0 0 0 0 0 0 0 0 0 0 0 0 0 0 0 0 0 105 105 105 63 39 63 0 0 0 63 63 105 0 0 0 0 0 0 0 0 0 0 0 0 63 63 105 0 0 0 63 63 105 63 63 105 0 0 0 119 119 143 0 0 0 0 0 0 63 39 63 0 0 0 0 0 0 63 63 105 0 0 0 0 0 0 0 0 0 0 0 0 0 0 0 0 0 0 0 0 0 0 0 0 0 0 0 0 0 0 0 0 0 0 0 0 0 0 0 105 63 63 0 0 0 0 0 0 0 0 0 0 0 0 105 63 63 0 0 0 0 0 0 0 0 0 0 0 0 0 0 0 0 0 0 0 0 0 105 63 63 0 0 0 105 63 63 63 39 63 105 63 63 0 0 0 105 63 63 0 0 0 105 105 105 0 0 0 105 105 105 0 0 0 63 63 105 0 0 0 105 63 63 0 0 0 0 0 0 105 63 63 0 0 0 0 0 0 105 63 63 0 0 0 0 0 0 0 0 0 0 0 0 0 0 0 63 63 105 0 0 0 0 0 0 0 0 0 0 0 0 0 0 0 0 0 0 0 0 0 0 0 0 105 105 105 0 0 0 63 63 105 0 0 0 0 0 0 0 0 0 0 0 0 0 0 0 0 0 0 0 0 0 0 0 0 0 0 0 0 0 0 0 0 0 0 0 0 0 0 0 0 0 0 105 105 105 0 0 0 0 0 0 105 63 63 0 0 0 105 63 63 105 63 63 0 0 0 0 0 0 105 105 105 63 39 63 0 0 0 0 0 0 0 0 0 87 53 87 105 63 63 0 0 0 0 0 0 105 63 63 0 0 0 105 63 63 0 0 0 172 132 132 0 0 0 0 0 0 0 0 0 0 0 0 105 105 105 0 0 0 0 0 0 0 0 0 0 0 0 63 39 63 105 63 63 0 0 0 105 63 63 0 0 0 0 0 0 0 0 0 0 0 0 0 0 0 0 0 0 0 0 0 63 63 105 0 0 0 0 0 0 0 0 0 63 63 105 0 0 0 0 0 0 0 0 0 63 63 105 0 0 0 63 63 105 0 0 0 0 0 0 0 0 0 0 0 0 0 0 0 0 0 0 63 63 105 0 0 0 105 63 63 0 0 0 0 0 0 0 0 0 0 0 0 0 0 0 0 0 0 0 0 0 0 0 0 0 0 0 0 0 0 0 0 0 105 63 63 63 63 105 0 0 0 0 0 0 0 0 0 0 0 0 0 0 0 0 0 0 0 0 0 0 0 0 0 0 0 0 0 0 63 63 105 0 0 0 0 0 0 105 63 63 105 105 105 0 0 0 0 0 0 63 63 105 0 0 0 0 0 0 63 63 105 63 63 105 0 0 0 0 0 0 0 0 0 0 0 0 0 0 0 0 0 0 63 63 105 0 0 0 63 39 63 0 0 0 119 87 119 63 63 105 105 63 63 63 63 105 0 0 0 0 0 0 0 0 0 0 0 0 0 0 0 0 0 0 0 0 0 0 0 0 0 0 0 0 0 0 0 0 0 0 0 0 0 0 0 0 0 0 0 0 0 0 0 0 105 105 105 0 0 0 105 63 63 105 63 63 0 0 0 0 0 0 105 63 63 0 0 0 105 63 63 0 0 0 63 39 63 0 0 0 105 105 105 105 63 63 0 0 0 0 0 0 0 0 0 0 0 0 0 0 0 63 39 63 0 0 0 105 63 63 0 0 0 105 63 63 0 0 0 0 0 0 105 63 63 0 0 0 105 63 63 105 63 63 0 0 0 63 63 105 0 0 0 63 63 105 0 0 0 105 105 105 105 63 63 0 0 0 0 0 0 105 105 105 105 63 63 105 105 172 63 63 105 105 105 105 63 39 63 0 0 0 0 0 0 63 63 105 0 0 0 0 0 0 0 0 0 0 0 0 63 63 105 63 63 105 0 0 0 0 0 0 0 0 0 0 0 0 0 0 0 0 0 0 0 0 0 0 0 0 0 0 0 0 0 0 0 0 0 105 63 63 0 0 0 105 63 63 0 0 0 105 105 105 0 0 0 0 0 0 0 0 0 0 0 0 0 0 0 0 0 0 105 63 63 0 0 0 0 0 0 0 0 0 0 0 0 105 63 63 0 0 0 0 0 0 0 0 0 0 0 0 105 63 63 105 105 105 0 0 0 0 0 0 0 0 0 105 63 63 0 0 0 63 39 63 0 0 0 0 0 0 0 0 0 0 0 0 105 63 63 0 0 0 87 72 119 0 0 0 0 0 0 0 0 0 63 63 105 0 0 0 63 63 105 0 0 0 0 0 0 63 63 105 63 63 105 0 0 0 63 63 105 0 0 0 0 0 0 0 0 0 0 0 0 0 0 0 0 0 0 63 63 105 0 0 0 63 63 105 0 0 0 0 0 0 0 0 0 0 0 0 0 0 0 0 0 0 0 0 0 0 0 0 0 0 0 0 0 0 0 0 0 0 0 0 105 63 63 0 0 0 63 39 63 0 0 0 63 63 105 0 0 0 105 63 63 0 0 0 63 39 63 0 0 0 143 119 119 105 63 63 0 0 0 0 0 0 0 0 0 105 63 63 105 63 63 0 0 0 63 63 105 0 0 0 105 63 63 0 0 0 63 63 105 0 0 0 0 0 0 0 0 0 105 63 63 0 0 0 0 0 0 0 0 0 0 0 0 0 0 0 143 119 119 63 63 105 0 0 0 63 63 105 0 0 0 0 0 0 63 63 105 0 0 0 63 63 105 0 0 0 0 0 0 0 0 0 0 0 0 63 63 105 0 0 0 0 0 0 0 0 0 0 0 0 0 0 0 0 0 0 0 0 0 0 0 0 0 0 0 0 0 0 0 0 0 0 0 0 0 0 0 0 0 0 0 0 0 0 0 0 0 0 0 0 0 0 63 39 63 105 63 63 105 63 63 0 0 0 63 39 63 0 0 0 0 0 0 0 0 0 0 0 0 0 0 0 105 63 63 105 63 63 0 0 0 0 0 0 0 0 0 0 0 0 105 105 105 105 63 63 0 0 0 0 0 0 0 0 0 63 39 63 0 0 0 0 0 0 0 0 0 0 0 0 0 0 0 105 63 63 0 0 0 0 0 0 87 87 143 0 0 0 0 0 0 0 0 0 63 63 105 0 0 0 63 63 105 0 0 0 0 0 0 0 0 0 0 0 0 63 63 105 0 0 0 0 0 0 0 0 0 0 0 0 0 0 0 0 0 0 0 0 0 0 0 0 0 0 0 0 0 0 0 0 0 0 0 0 0 0 0 0 0 0 0 0 0 0 0 0 0 0 0 0 0 0 105 63 63 105 63 63 105 63 63 105 63 63 0 0 0 0 0 0 0 0 0 0 0 0 0 0 0 0 0 0 0 0 0 105 63 63 0 0 0 105 63 63 63 39 63 0 0 0 0 0 0 0 0 0 87 53 87 0 0 0 0 0 0 0 0 0 119 87 119 63 63 105 0 0 0 0 0 0 0 0 0 63 63 105 0 0 0 105 105 105 0 0 0 0 0 0 63 63 105 0 0 0 0 0 0 0 0 0 0 0 0 63 63 105 63 63 105 0 0 0 0 0 0 0 0 0 0 0 0 0 0 0 63 63 105 0 0 0 0 0 0 0 0 0 0 0 0 0 0 0 0 0 0 0 0 0 63 63 105 0 0 0 63 63 105 0 0 0 0 0 0 0 0 0 0 0 0 0 0 0 0 0 0 0 0 0 0 0 0 0 0 0 0 0 0 0 0 0 0 0 0 0 0 0 0 0 0 105 63 63 0 0 0 0 0 0 0 0 0 0 0 0 0 0 0 0 0 0 0 0 0 0 0 0 0 0 0 0 0 0 0 0 0 105 63 63 63 63 105 0 0 0 0 0 0 0 0 0 0 0 0 0 0 0 0 0 0 0 0 0 105 63 63 0 0 0 63 63 105 0 0 0 0 0 0 0 0 0 0 0 0 0 0 0 0 0 0 0 0 0 105 63 63 63 63 105 0 0 0 0 0 0 0 0 0 0 0 0 0 0 0 0 0 0 63 63 105 63 63 105 0 0 0 0 0 0 0 0 0 0 0 0 0 0 0 0 0 0 0 0 0 0 0 0 0 0 0 0 0 0 0 0 0 0 0 0 0 0 0 0 0 0 0 0 0 0 0 0 0 0 0 105 63 63 0 0 0 0 0 0 0 0 0 105 63 63 0 0 0 63 39 63 0 0 0 63 39 63 0 0 0 0 0 0 0 0 0 0 0 0 0 0 0 105 63 63 0 0 0 0 0 0 0 0 0 63 63 105 0 0 0 105 63 63 0 0 0 0 0 0 0 0 0 0 0 0 0 0 0 0 0 0 0 0 0 0 0 0 0 0 0 0 0 0 0 0 0 0 0 0 0 0 0 0 0 0 87 87 143 0 0 0 63 63 105 0 0 0 0 0 0 63 63 105 0 0 0 0 0 0 0 0 0 0 0 0 0 0 0 63 63 105 87 87 143 63 63 105 63 39 63 0 0 0 63 63 105 0 0 0 63 63 105 0 0 0 0 0 0 0 0 0 0 0 0 0 0 0 0 0 0 0 0 0 0 0 0 0 0 0 0 0 0 105 63 63 0 0 0 105 63 63 0 0 0 0 0 0 63 39 63 0 0 0 0 0 0 0 0 0 105 63 63 0 0 0 0 0 0 0 0 0 63 63 105 63 39 63 0 0 0 63 63 105 0 0 0 0 0 0 0 0 0 0 0 0 0 0 0 63 63 105 0 0 0 105 63 63 0 0 0 0 0 0 0 0 0 0 0 0 0 0 0 63 63 105 0 0 0 0 0 0 0 0 0 0 0 0 0 0 0 0 0 0 0 0 0 0 0 0 0 0 0 0 0 0 0 0 0 63 39 63 0 0 0 0 0 0 105 105 105 0 0 0 0 0 0 63 63 105 63 63 105 0 0 0 0 0 0 0 0 0 0 0 0 0 0 0 87 87 143 0 0 0 0 0 0 0 0 0 0 0 0 0 0 0 0 0 0 0 0 0 0 0 0 0 0 0 105 63 63 0 0 0 0 0 0 0 0 0 0 0 0 0 0 0 0 0 0 0 0 0 0 0 0 0 0 0 0 0 0 0 0 0 0 0 0 0 0 0 0 0 0 0 0 0 63 39 63 0 0 0 105 63 63 0 0 0 0 0 0 63 39 63 0 0 0 0 0 0 63 63 105 0 0 0 0 0 0 105 63 63 105 63 63 0 0 0 0 0 0 0 0 0 63 39 63 0 0 0 0 0 0 0 0 0 63 63 105 105 105 105 63 63 105 0 0 0 0 0 0 0 0 0 105 105 105 0 0 0 0 0 0 0 0 0 0 0 0 0 0 0 0 0 0 0 0 0 0 0 0 0 0 0 0 0 0 63 63 105 0 0 0 0 0 0 0 0 0 0 0 0 0 0 0 0 0 0 0 0 0 0 0 0 0 0 0 0 0 0 0 0 0 0 0 0 0 0 0 0 0 0 105 63 63 143 87 87 0 0 0 0 0 0 0 0 0 0 0 0 0 0 0 0 0 0 105 63 63 0 0 0 0 0 0 0 0 0 0 0 0 0 0 0 0 0 0 0 0 0 105 63 63 0 0 0 0 0 0 0 0 0 0 0 0 0 0 0 0 0 0 0 0 0 105 63 63 0 0 0 63 39 63 0 0 0 0 0 0 0 0 0 0 0 0 87 72 119 63 63 105 105 105 105 0 0 0 63 63 105 0 0 0 63 63 105 105 105 105 0 0 0 0 0 0 63 63 105 0 0 0 105 105 105 0 0 0 0 0 0 0 0 0 0 0 0 0 0 0 0 0 0 0 0 0 0 0 0 0 0 0 0 0 0 0 0 0 0 0 0 0 0 0 0 0 0 0 0 0 105 63 63 0 0 0 0 0 0 0 0 0 0 0 0 63 39 63 105 63 63 105 63 63 0 0 0 0 0 0 0 0 0 0 0 0 63 63 105 0 0 0 0 0 0 0 0 0 0 0 0 0 0 0 63 39 63 0 0 0 0 0 0 0 0 0 0 0 0 0 0 0 0 0 0 63 63 105 0 0 0 0 0 0 0 0 0 63 63 105 0 0 0 0 0 0 0 0 0 63 63 105 0 0 0 0 0 0 105 63 63 0 0 0 0 0 0 0 0 0 0 0 0 0 0 0 0 0 0 105 63 63 63 39 63 0 0 0 0 0 0 0 0 0 0 0 0 63 63 105 0 0 0 63 63 105 0 0 0 63 63 105 63 39 63 0 0 0 0 0 0 105 63 63 0 0 0 63 39 63 0 0 0 0 0 0 0 0 0 0 0 0 0 0 0 0 0 0 0 0 0 0 0 0 105 63 63 0 0 0 0 0 0 105 63 63 0 0 0 0 0 0 105 63 63 63 39 63 0 0 0 0 0 0 0 0 0 0 0 0 0 0 0 0 0 0 0 0 0 0 0 0 0 0 0 0 0 0 0 0 0 0 0 0 0 0 0 0 0 0 0 0 0 0 0 0 105 63 63 63 63 105 0 0 0 0 0 0 0 0 0 0 0 0 0 0 0 0 0 0 143 87 87 0 0 0 0 0 0 0 0 0 0 0 0 0 0 0 0 0 0 0 0 0 0 0 0 0 0 0 63 63 105 63 63 105 0 0 0 0 0 0 0 0 0 0 0 0 0 0 0 0 0 0 0 0 0 0 0 0 0 0 0 0 0 0 0 0 0 0 0 0 0 0 0 105 63 63 0 0 0 0 0 0 0 0 0 105 63 63 105 63 63 0 0 0 0 0 0 0 0 0 143 87 87 0 0 0 0 0 0 0 0 0 105 63 63 0 0 0 0 0 0 0 0 0 0 0 0 0 0 0 0 0 0 0 0 0 0 0 0 0 0 0 0 0 0 0 0 0 105 63 63 105 63 63 0 0 0 0 0 0 0 0 0 0 0 0 63 63 105 0 0 0 0 0 0 0 0 0 0 0 0 119 119 143 0 0 0 0 0 0 0 0 0 87 72 119 63 63 105 0 0 0 63 63 105 0 0 0 63 63 105 0 0 0 0 0 0 0 0 0 0 0 0 63 63 105 63 39 63 0 0 0 63 63 105 0 0 0 0 0 0 0 0 0 63 63 105 0 0 0 0 0 0 0 0 0 0 0 0 0 0 0 0 0 0 0 0 0 0 0 0 0 0 0 0 0 0 0 0 0 0 0 0 0 0 0 0 0 0 0 0 0 105 63 63 0 0 0 0 0 0 105 63 63 0 0 0 0 0 0 0 0 0 63 39 63 63 39 63 0 0 0 0 0 0 105 63 63 105 105 105 0 0 0 0 0 0 0 0 0 0 0 0 0 0 0 0 0 0 0 0 0 0 0 0 0 0 0 0 0 0 0 0 0 63 63 105 0 0 0 0 0 0 0 0 0 0 0 0 63 39 63 105 105 105 105 63 63 0 0 0 0 0 0 0 0 0 0 0 0 63 63 105 0 0 0 0 0 0 63 63 105 63 63 105 0 0 0 0 0 0 0 0 0 63 63 105 0 0 0 0 0 0 0 0 0 0 0 0 0 0 0 0 0 0 105 63 63 0 0 0 0 0 0 0 0 0 0 0 0 0 0 0 0 0 0 0 0 0 105 63 63 0 0 0 0 0 0 0 0 0 0 0 0 0 0 0 0 0 0 105 63 63 105 63 63 0 0 0 119 72 87 0 0 0 105 63 63 105 63 63 143 87 87 0 0 0 0 0 0 63 63 105 0 0 0 0 0 0 0 0 0 0 0 0 0 0 0 0 0 0 0 0 0 0 0 0 0 0 0 0 0 0 0 0 0 0 0 0 0 0 0 0 0 0 0 0 0 0 0 0 0 0 0 0 0 0 63 63 105 0 0 0 0 0 0 0 0 0 105 105 105 0 0 0 0 0 0 0 0 0 0 0 0 63 63 105 63 63 105 0 0 0 0 0 0 0 0 0 0 0 0 0 0 0 0 0 0 0 0 0 0 0 0 0 0 0 0 0 0 0 0 0 0 0 0 0 0 0 0 0 0 0 0 0 0 0 0 0 0 0 63 39 63 0 0 0 0 0 0 105 63 63 0 0 0 105 63 63 105 63 63 105 63 63 0 0 0 0 0 0 105 63 63 0 0 0 0 0 0 0 0 0 0 0 0 0 0 0 0 0 0 0 0 0 0 0 0 0 0 0 0 0 0 0 0 0 0 0 0 105 63 63 0 0 0 0 0 0 0 0 0 0 0 0 0 0 0 0 0 0 63 39 63 0 0 0 0 0 0 0 0 0 0 0 0 0 0 0 0 0 0 0 0 0 0 0 0 0 0 0 63 63 105 0 0 0 0 0 0 63 63 105 0 0 0 0 0 0 0 0 0 63 63 105 0 0 0 63 63 105 0 0 0 0 0 0 0 0 0 0 0 0 0 0 0 0 0 0 0 0 0 0 0 0 0 0 0 0 0 0 0 0 0 0 0 0 0 0 0 0 0 0 0 0 0 0 0 0 0 0 0 0 0 0 0 0 0 0 0 0 0 0 0 0 0 0 63 39 63 105 63 63 105 63 63 0 0 0 0 0 0 0 0 0 0 0 0 0 0 0 0 0 0 0 0 0 105 63 63 0 0 0 0 0 0 0 0 0 0 0 0 0 0 0 0 0 0 0 0 0 0 0 0 0 0 0 105 105 105 0 0 0 0 0 0 63 63 105 0 0 0 0 0 0 0 0 0 0 0 0 0 0 0 0 0 0 0 0 0 63 63 105 0 0 0 0 0 0 0 0 0 0 0 0 0 0 0 63 63 105 0 0 0 0 0 0 0 0 0 0 0 0 0 0 0 0 0 0 0 0 0 0 0 0 0 0 0 0 0 0 63 63 105 0 0 0 0 0 0 0 0 0 0 0 0 0 0 0 0 0 0 0 0 0 0 0 0 0 0 0 0 0 0 0 0 0 0 0 0 105 63 63 0 0 0 0 0 0 0 0 0 105 63 63 0 0 0 105 63 63 0 0 0 0 0 0 105 63 63 0 0 0 63 39 63 105 63 63 0 0 0 0 0 0 0 0 0 0 0 0 0 0 0 105 63 63 0 0 0 0 0 0 0 0 0 0 0 0 0 0 0 63 63 105 0 0 0 0 0 0 0 0 0 0 0 0 105 63 63 0 0 0 0 0 0 0 0 0 0 0 0 63 63 105 0 0 0 0 0 0 0 0 0 0 0 0 63 39 63 63 39 63 0 0 0 0 0 0 63 63 105 0 0 0 0 0 0 63 63 105 0 0 0 0 0 0 63 63 105 0 0 0 0 0 0 0 0 0 0 0 0 0 0 0 105 105 105 0 0 0 0 0 0 0 0 0 0 0 0 0 0 0 0 0 0 0 0 0 0 0 0 0 0 0 0 0 0 0 0 0 0 0 0 0 0 0 0 0 0 0 0 0 0 0 0 0 0 0 0 0 0 0 0 0 0 0 0 105 105 105 0 0 0 0 0 0 0 0 0 143 87 87 0 0 0 0 0 0 0 0 0 0 0 0 0 0 0 0 0 0 63 63 105 63 63 105 0 0 0 0 0 0 105 63 63 0 0 0 0 0 0 0 0 0 0 0 0 0 0 0 0 0 0 0 0 0 0 0 0 0 0 0 0 0 0 0 0 0 0 0 0 0 0 0 0 0 0 63 63 105 0 0 0 0 0 0 0 0 0 0 0 0 0 0 0 0 0 0 0 0 0 0 0 0 0 0 0 0 0 0 0 0 0 0 0 0 0 0 0 0 0 0 0 0 0 0 0 0 0 0 0 105 63 63 0 0 0 105 63 63 0 0 0 0 0 0 0 0 0 0 0 0 0 0 0 0 0 0 0 0 0 0 0 0 0 0 0 0 0 0 0 0 0 0 0 0 0 0 0 0 0 0 0 0 0 0 0 0 0 0 0 0 0 0 0 0 0 0 0 0 0 0 0 0 0 0 105 105 105 0 0 0 0 0 0 0 0 0 0 0 0 0 0 0 0 0 0 0 0 0 0 0 0 87 87 143 0 0 0 63 39 63 63 63 105 0 0 0 0 0 0 87 72 119 0 0 0 0 0 0 0 0 0 0 0 0 63 39 63 0 0 0 0 0 0 0 0 0 63 39 63 0 0 0 0 0 0 0 0 0 0 0 0 0 0 0 0 0 0 0 0 0 0 0 0 0 0 0 0 0 0 0 0 0 0 0 0 0 0 0 0 0 0 0 0 0 0 0 0 0 0 0 0 0 0 0 0 0 0 0 0 63 39 63 0 0 0 0 0 0 0 0 0 0 0 0 0 0 0 0 0 0 0 0 0 0 0 0 0 0 0 0 0 0 0 0 0 105 63 63 105 63 63 0 0 0 0 0 0 0 0 0 0 0 0 0 0 0 0 0 0 0 0 0 0 0 0 0 0 0 0 0 0 0 0 0 0 0 0 0 0 0 0 0 0 0 0 0 0 0 0 0 0 0 63 63 105 0 0 0 0 0 0 63 63 105 63 63 105 0 0 0 0 0 0 0 0 0 0 0 0 63 63 105 0 0 0 0 0 0 0 0 0 0 0 0 0 0 0 63 63 105 0 0 0 0 0 0 0 0 0 0 0 0 0 0 0 0 0 0 0 0 0 0 0 0 0 0 0 0 0 0 0 0 0 0 0 0 0 0 0 154 93 105 0 0 0 0 0 0 0 0 0 0 0 0 0 0 0 105 63 63 0 0 0 0 0 0 63 63 105 105 63 63 0 0 0 0 0 0 0 0 0 0 0 0 0 0 0 105 63 63 0 0 0 63 39 63 0 0 0 0 0 0 0 0 0 0 0 0 105 63 63 0 0 0 0 0 0 105 63 63 0 0 0 0 0 0 119 87 119 0 0 0 0 0 0 0 0 0 63 63 105 0 0 0 63 63 105 0 0 0 0 0 0 0 0 0 0 0 0 63 39 63 63 63 105 0 0 0 63 63 105 0 0 0 0 0 0 63 63 105 0 0 0 63 63 105 0 0 0 0 0 0 63 63 105 0 0 0 0 0 0 0 0 0 0 0 0 0 0 0 0 0 0 0 0 0 0 0 0 0 0 0 0 0 0 105 105 105 0 0 0 105 63 63 0 0 0 105 63 63 0 0 0 0 0 0 0 0 0 0 0 0 0 0 0 0 0 0 0 0 0 87 72 119 154 105 132 0 0 0 105 63 63 0 0 0 0 0 0 0 0 0 0 0 0 0 0 0 0 0 0 0 0 0 0 0 0 0 0 0 0 0 0 0 0 0 63 39 63 0 0 0 0 0 0 0 0 0 0 0 0 63 63 105 0 0 0 0 0 0 0 0 0 0 0 0 0 0 0 0 0 0 119 87 119 87 87 143 0 0 0 0 0 0 0 0 0 0 0 0 0 0 0 0 0 0 0 0 0 87 87 143 0 0 0 63 63 105 0 0 0 0 0 0 0 0 0 0 0 0 0 0 0 105 63 63 0 0 0 0 0 0 0 0 0 0 0 0 0 0 0 0 0 0 0 0 0 0 0 0 119 87 119 0 0 0 105 63 63 0 0 0 0 0 0 0 0 0 0 0 0 0 0 0 143 119 119 0 0 0 0 0 0 0 0 0 0 0 0 0 0 0 0 0 0 0 0 0 0 0 0 119 110 119 0 0 0 0 0 0 0 0 0 0 0 0 0 0 0 0 0 0 0 0 0 0 0 0 105 63 63 0 0 0 0 0 0 0 0 0 0 0 0 0 0 0 0 0 0 0 0 0 0 0 0 0 0 0 63 63 105 0 0 0 0 0 0 0 0 0 0 0 0 0 0 0 0 0 0 63 63 105 63 63 105 0 0 0 63 63 105 0 0 0 63 63 105 63 63 105 0 0 0 0 0 0 63 63 105 0 0 0 0 0 0 0 0 0 0 0 0 0 0 0 0 0 0 0 0 0 0 0 0 105 63 63 0 0 0 0 0 0 0 0 0 0 0 0 105 63 63 0 0 0 0 0 0 0 0 0 0 0 0 0 0 0 0 0 0 119 72 87 105 63 63 0 0 0 105 63 63 0 0 0 105 63 63 0 0 0 0 0 0 0 0 0 105 63 63 0 0 0 0 0 0 0 0 0 0 0 0 0 0 0 0 0 0 0 0 0 0 0 0 0 0 0 0 0 0 0 0 0 0 0 0 0 0 0 0 0 0 0 0 0 63 63 105 0 0 0 0 0 0 0 0 0 87 87 143 63 39 63 0 0 0 0 0 0 0 0 0 0 0 0 0 0 0 0 0 0 63 63 105 0 0 0 0 0 0 0 0 0 105 105 105 0 0 0 0 0 0 0 0 0 63 63 105 0 0 0 0 0 0 0 0 0 0 0 0 0 0 0 0 0 0 0 0 0 0 0 0 0 0 0 105 63 63 143 87 87 0 0 0 0 0 0 105 63 63 0 0 0 0 0 0 0 0 0 0 0 0 0 0 0 0 0 0 105 63 63 0 0 0 0 0 0 143 87 87 0 0 0 105 105 105 105 63 63 0 0 0 105 63 63 105 63 63 0 0 0 105 105 105 0 0 0 0 0 0 105 105 105 0 0 0 0 0 0 0 0 0 0 0 0 63 63 105 0 0 0 0 0 0 63 63 105 105 105 105 0 0 0 0 0 0 0 0 0 0 0 0 0 0 0 105 105 105 63 63 105 0 0 0 0 0 0 0 0 0 87 87 143 0 0 0 0 0 0 0 0 0 0 0 0 0 0 0 0 0 0 0 0 0 0 0 0 0 0 0 0 0 0 0 0 0 0 0 0 0 0 0 105 63 63 0 0 0 105 63 63 0 0 0 0 0 0 105 63 63 0 0 0 0 0 0 0 0 0 0 0 0 0 0 0 0 0 0 0 0 0 0 0 0 105 63 63 0 0 0 105 63 63 105 63 63 0 0 0 0 0 0 0 0 0 105 63 63 105 63 63 0 0 0 0 0 0 0 0 0 0 0 0 0 0 0 0 0 0 63 63 105 0 0 0 63 63 105 0 0 0 0 0 0 0 0 0 0 0 0 63 63 105 63 63 105 0 0 0 0 0 0 0 0 0 0 0 0 0 0 0 0 0 0 0 0 0 0 0 0 105 105 105 0 0 0 0 0 0 87 87 143 0 0 0 63 63 105 0 0 0 0 0 0 0 0 0 0 0 0 0 0 0 0 0 0 0 0 0 0 0 0 0 0 0 0 0 0 0 0 0 0 0 0 0 0 0 105 63 63 0 0 0 0 0 0 0 0 0 0 0 0 0 0 0 105 63 63 105 63 63 105 63 63 0 0 0 0 0 0 0 0 0 0 0 0 0 0 0 143 87 87 0 0 0 0 0 0 0 0 0 105 63 63 105 63 63 0 0 0 0 0 0 0 0 0 0 0 0 0 0 0 105 105 105 105 63 63 0 0 0 0 0 0 63 39 63 0 0 0 0 0 0 0 0 0 63 63 105 0 0 0 0 0 0 0 0 0 0 0 0 63 39 63 0 0 0 0 0 0 63 63 105 0 0 0 0 0 0 0 0 0 0 0 0 0 0 0 87 72 119 0 0 0 0 0 0 63 63 105 0 0 0 0 0 0 0 0 0 87 87 143 0 0 0 0 0 0 0 0 0 0 0 0 0 0 0 0 0 0 0 0 0 0 0 0 0 0 0 0 0 0 0 0 0 0 0 0 105 63 63 105 63 63 0 0 0 0 0 0 0 0 0 0 0 0 105 63 63 0 0 0 0 0 0 0 0 0 143 87 87 105 63 63 0 0 0 0 0 0 0 0 0 0 0 0 0 0 0 63 63 105 0 0 0 0 0 0 63 39 63 0 0 0 105 63 63 0 0 0 0 0 0 0 0 0 0 0 0 0 0 0 0 0 0 0 0 0 0 0 0 0 0 0 0 0 0 0 0 0 0 0 0 0 0 0 63 63 105 0 0 0 0 0 0 0 0 0 0 0 0 119 87 119 63 63 105 63 63 105 0 0 0 0 0 0 0 0 0 0 0 0 0 0 0 0 0 0 0 0 0 0 0 0 0 0 0 63 63 105 0 0 0 0 0 0 63 63 105 0 0 0 0 0 0 0 0 0 0 0 0 0 0 0 0 0 0 0 0 0 0 0 0 0 0 0 0 0 0 0 0 0 0 0 0 105 63 63 0 0 0 0 0 0 105 63 63 0 0 0 0 0 0 0 0 0 105 63 63 0 0 0 0 0 0 0 0 0 0 0 0 0 0 0 105 63 63 0 0 0 0 0 0 63 63 105 143 119 119 0 0 0 0 0 0 0 0 0 0 0 0 0 0 0 0 0 0 0 0 0 0 0 0 0 0 0 0 0 0 0 0 0 0 0 0 0 0 0 0 0 0 0 0 0 0 0 0 0 0 0 0 0 0 63 63 105 0 0 0 0 0 0 0 0 0 0 0 0 0 0 0 0 0 0 63 39 63 0 0 0 0 0 0 0 0 0 0 0 0 0 0 0 63 63 105 0 0 0 0 0 0 0 0 0 0 0 0 0 0 0 0 0 0 0 0 0 0 0 0 0 0 0 0 0 0 0 0 0 0 0 0 105 63 63 0 0 0 0 0 0 0 0 0 0 0 0 0 0 0 0 0 0 0 0 0 105 63 63 0 0 0 0 0 0 105 63 63 0 0 0 63 63 105 0 0 0 0 0 0 0 0 0 0 0 0 105 63 63 105 105 105 0 0 0 0 0 0 63 39 63 0 0 0 0 0 0 0 0 0 0 0 0 0 0 0 0 0 0 0 0 0 63 39 63 63 63 105 0 0 0 63 63 105 0 0 0 63 39 63 0 0 0 0 0 0 63 63 105 0 0 0 0 0 0 87 87 143 0 0 0 0 0 0 0 0 0 0 0 0 0 0 0 0 0 0 0 0 0 0 0 0 0 0 0 0 0 0 0 0 0 0 0 0 0 0 0 105 63 63 0 0 0 0 0 0 0 0 0 0 0 0 0 0 0 0 0 0 0 0 0 0 0 0 0 0 0 0 0 0 105 63 63 63 63 105 0 0 0 63 39 63 0 0 0 63 39 63 0 0 0 0 0 0 0 0 0 0 0 0 105 63 63 0 0 0 63 63 105 0 0 0 105 105 105 0 0 0 63 39 63 0 0 0 0 0 0 105 63 63 105 63 63 105 105 105 0 0 0 0 0 0 0 0 0 0 0 0 0 0 0 0 0 0 0 0 0 0 0 0 63 63 105 0 0 0 0 0 0 0 0 0 63 63 105 63 63 105 0 0 0 63 63 105 0 0 0 0 0 0 63 63 105 63 63 105 0 0 0 0 0 0 87 72 119 0 0 0 0 0 0 63 63 105 0 0 0 105 105 105 0 0 0 0 0 0 0 0 0 0 0 0 105 63 63 0 0 0 0 0 0 105 63 63 105 63 63 0 0 0 0 0 0 105 63 63 105 63 63 105 105 105 0 0 0 0 0 0 0 0 0 0 0 0 0 0 0 0 0 0 0 0 0 0 0 0 0 0 0 0 0 0 0 0 0 0 0 0 0 0 0 105 105 105 0 0 0 0 0 0 0 0 0 63 63 105 63 63 105 105 63 63 0 0 0 0 0 0 63 39 63 0 0 0 0 0 0 0 0 0 119 87 119 0 0 0 0 0 0 0 0 0 0 0 0 63 39 63 0 0 0 63 63 105 105 63 63 0 0 0 0 0 0 0 0 0 0 0 0 0 0 0 63 63 105 63 63 105 0 0 0 105 105 105 0 0 0 0 0 0 0 0 0 63 63 105 63 63 105 63 63 105 0 0 0 0 0 0 0 0 0 0 0 0 105 63 63 105 63 63 0 0 0 0 0 0 0 0 0 0 0 0 0 0 0 0 0 0 0 0 0 0 0 0 0 0 0 0 0 0 0 0 0 0 0 0 0 0 0 0 0 0 0 0 0 0 0 0 0 0 0 0 0 0 0 0 0 0 0 0 105 63 63 0 0 0 0 0 0 0 0 0 0 0 0 0 0 0 119 119 143 0 0 0 0 0 0 0 0 0 0 0 0 0 0 0 0 0 0 0 0 0 0 0 0 0 0 0 0 0 0 0 0 0 63 63 105 0 0 0 0 0 0 0 0 0 0 0 0 0 0 0 0 0 0 0 0 0 0 0 0 0 0 0 0 0 0 0 0 0 0 0 0 0 0 0 0 0 0 0 0 0 0 0 0 0 0 0 0 0 0 63 63 105 0 0 0 0 0 0 0 0 0 0 0 0 105 63 63 0 0 0 0 0 0 105 63 63 0 0 0 0 0 0 0 0 0 0 0 0 0 0 0 0 0 0 0 0 0 105 105 105 0 0 0 0 0 0 0 0 0 0 0 0 119 119 143 0 0 0 0 0 0 0 0 0 143 119 119 0 0 0 105 63 63 0 0 0 0 0 0 0 0 0 63 63 105 0 0 0 105 105 105 0 0 0 0 0 0 0 0 0 105 63 63 0 0 0 63 63 105 0 0 0 63 63 105 0 0 0 0 0 0 0 0 0 0 0 0 105 63 63 0 0 0 0 0 0 0 0 0 0 0 0 0 0 0 63 63 105 0 0 0 0 0 0 63 63 105 0 0 0 0 0 0 0 0 0 0 0 0 0 0 0 0 0 0 0 0 0 0 0 0 0 0 0 0 0 0 0 0 0 0 0 0 0 0 0 0 0 0 0 0 0 0 0 0 0 0 0 105 63 63 105 63 63 0 0 0 0 0 0 63 63 105 105 105 105 0 0 0 0 0 0 0 0 0 105 105 105 0 0 0 105 63 63 105 63 63 0 0 0 0 0 0 0 0 0 0 0 0 0 0 0 0 0 0 0 0 0 0 0 0 0 0 0 0 0 0 0 0 0 105 63 63 63 63 105 105 63 63 0 0 0 0 0 0 105 63 63 105 105 105 0 0 0 0 0 0 0 0 0 0 0 0 63 63 105 0 0 0 0 0 0 0 0 0 0 0 0 0 0 0 0 0 0 0 0 0 0 0 0 0 0 0 0 0 0 0 0 0 0 0 0 0 0 0 0 0 0 0 0 0 0 0 0 63 63 105 63 39 63 0 0 0 87 87 143 0 0 0 0 0 0 0 0 0 0 0 0 0 0 0 105 63 63 0 0 0 0 0 0 105 63 63 0 0 0 0 0 0 0 0 0 105 63 63 0 0 0 0 0 0 0 0 0 0 0 0 0 0 0 0 0 0 0 0 0 0 0 0 0 0 0 0 0 0 0 0 0 0 0 0 0 0 0 0 0 0 0 0 0 105 63 63 0 0 0 0 0 0 0 0 0 0 0 0 143 87 87 0 0 0 0 0 0 0 0 0 105 63 63 105 105 105 0 0 0 0 0 0 0 0 0 0 0 0 0 0 0 105 63 63 0 0 0 0 0 0 0 0 0 0 0 0 0 0 0 0 0 0 0 0 0 0 0 0 0 0 0 0 0 0 0 0 0 63 63 105 0 0 0 63 63 105 63 39 63 63 63 105 0 0 0 0 0 0 0 0 0 0 0 0 0 0 0 0 0 0 0 0 0 0 0 0 0 0 0 105 105 105 0 0 0 105 63 63 0 0 0 0 0 0 0 0 0 0 0 0 0 0 0 0 0 0 0 0 0 0 0 0 0 0 0 0 0 0 105 63 63 105 63 63 0 0 0 0 0 0 0 0 0 0 0 0 0 0 0 0 0 0 105 63 63 105 63 63 0 0 0 0 0 0 0 0 0 105 63 63 105 105 105 63 63 105 63 63 105 0 0 0 63 63 105 0 0 0 63 63 105 0 0 0 0 0 0 0 0 0 0 0 0 0 0 0 0 0 0 0 0 0 0 0 0 0 0 0 0 0 0 0 0 0 0 0 0 0 0 0 63 39 63 0 0 0 0 0 0 0 0 0 0 0 0 0 0 0 0 0 0 0 0 0 0 0 0 0 0 0 63 63 105 63 63 105 0 0 0 0 0 0 0 0 0 0 0 0 0 0 0 0 0 0 0 0 0 0 0 0 0 0 0 0 0 0 63 63 105 0 0 0 0 0 0 105 63 63 0 0 0 0 0 0 0 0 0 0 0 0 0 0 0 0 0 0 0 0 0 0 0 0 0 0 0 0 0 0 63 39 63 105 63 63 105 63 63 105 63 63 105 63 63 0 0 0 105 105 105 105 105 105 0 0 0 0 0 0 0 0 0 0 0 0 0 0 0 0 0 0 0 0 0 105 105 105 0 0 0 105 63 63 63 63 105 0 0 0 0 0 0 0 0 0 63 39 63 63 63 105 63 63 105 0 0 0 63 39 63 0 0 0 0 0 0 63 63 105 0 0 0 0 0 0 0 0 0 0 0 0 0 0 0 63 63 105 0 0 0 0 0 0 0 0 0 0 0 0 0 0 0 0 0 0 0 0 0 0 0 0 0 0 0 0 0 0 0 0 0 0 0 0 0 0 0 0 0 0 0 0 0 105 63 63 0 0 0 0 0 0 0 0 0 0 0 0 105 63 63 0 0 0 105 63 63 0 0 0 105 105 105 0 0 0 0 0 0 0 0 0 0 0 0 0 0 0 0 0 0 0 0 0 0 0 0 0 0 0 63 63 105 0 0 0 119 87 119 63 39 63 63 63 105 0 0 0 105 63 63 63 39 63 0 0 0 0 0 0 63 39 63 0 0 0 0 0 0 0 0 0 63 63 105 63 63 105 0 0 0 0 0 0 0 0 0 0 0 0 0 0 0 0 0 0 0 0 0 0 0 0 0 0 0 0 0 0 0 0 0 63 63 105 0 0 0 119 87 119 0 0 0 63 63 105 0 0 0 0 0 0 0 0 0 0 0 0 0 0 0 0 0 0 0 0 0 105 63 63 0 0 0 0 0 0 0 0 0 0 0 0 0 0 0 0 0 0 0 0 0 0 0 0 0 0 0 105 105 105 0 0 0 0 0 0 63 39 63 0 0 0 0 0 0 0 0 0 0 0 0 0 0 0 105 63 63 0 0 0 105 105 105 0 0 0 0 0 0 0 0 0 0 0 0 0 0 0 0 0 0 0 0 0 0 0 0 0 0 0 0 0 0 0 0 0 0 0 0 0 0 0 63 63 105 0 0 0 63 63 105 0 0 0 0 0 0 0 0 0 0 0 0 63 63 105 0 0 0 0 0 0 0 0 0 0 0 0 0 0 0 105 105 105 0 0 0 0 0 0 0 0 0 0 0 0 0 0 0 0 0 0 0 0 0 0 0 0 0 0 0 0 0 0 0 0 0 0 0 0 0 0 0 0 0 0 105 63 63 0 0 0 63 63 105 0 0 0 0 0 0 105 63 63 0 0 0 0 0 0 105 63 63 0 0 0 0 0 0 0 0 0 105 105 105 0 0 0 0 0 0 0 0 0 0 0 0 0 0 0 0 0 0 0 0 0 105 63 63 105 63 63 105 63 63 0 0 0 0 0 0 63 63 105 0 0 0 0 0 0 0 0 0 0 0 0 0 0 0 63 63 105 0 0 0 105 105 105 0 0 0 63 63 105 105 105 105 0 0 0 63 63 105 0 0 0 0 0 0 0 0 0 0 0 0 0 0 0 0 0 0 0 0 0 63 63 105 0 0 0 0 0 0 63 63 105 0 0 0 0 0 0 0 0 0 0 0 0 63 63 105 0 0 0 0 0 0 0 0 0 0 0 0 0 0 0 0 0 0 0 0 0 0 0 0 0 0 0 0 0 0 0 0 0 143 119 119 0 0 0 0 0 0 0 0 0 105 63 63 0 0 0 0 0 0 0 0 0 105 63 63 0 0 0 105 63 63 0 0 0 0 0 0 0 0 0 0 0 0 0 0 0 0 0 0 0 0 0 0 0 0 0 0 0 0 0 0 63 39 63 0 0 0 105 63 63 0 0 0 0 0 0 0 0 0 0 0 0 0 0 0 0 0 0 0 0 0 0 0 0 0 0 0 0 0 0 0 0 0 0 0 0 0 0 0 63 63 105 0 0 0 0 0 0 0 0 0 0 0 0 0 0 0 105 105 105 0 0 0 63 39 63 0 0 0 0 0 0 0 0 0 143 143 143 63 63 105 0 0 0 0 0 0 0 0 0 63 39 63 0 0 0 0 0 0 0 0 0 0 0 0 0 0 0 0 0 0 0 0 0 0 0 0 0 0 0 0 0 0 105 63 63 105 63 63 105 63 63 105 105 105 0 0 0 0 0 0 0 0 0 63 63 105 0 0 0 0 0 0 0 0 0 0 0 0 0 0 0 0 0 0 105 63 63 105 63 63 105 63 63 0 0 0 105 105 105 0 0 0 0 0 0 0 0 0 0 0 0 0 0 0 0 0 0 0 0 0 0 0 0 0 0 0 63 63 105 0 0 0 0 0 0 0 0 0 0 0 0 0 0 0 0 0 0 0 0 0 0 0 0 0 0 0 0 0 0 0 0 0 63 63 105 63 63 105 0 0 0 0 0 0 0 0 0 87 87 143 0 0 0 0 0 0 0 0 0 63 39 63 0 0 0 0 0 0 105 63 63 63 63 105 0 0 0 0 0 0 0 0 0 0 0 0 0 0 0 105 63 63 0 0 0 0 0 0 0 0 0 0 0 0 0 0 0 0 0 0 0 0 0 0 0 0 0 0 0 105 63 63 0 0 0 0 0 0 0 0 0 0 0 0 0 0 0 0 0 0 0 0 0 0 0 0 105 63 63 0 0 0 0 0 0 0 0 0 0 0 0 0 0 0 0 0 0 0 0 0 0 0 0 63 63 105 0 0 0 0 0 0 0 0 0 63 63 105 0 0 0 0 0 0 105 63 63 0 0 0 0 0 0 0 0 0 0 0 0 0 0 0 0 0 0 0 0 0 105 63 63 63 63 105 0 0 0 0 0 0 63 63 105 0 0 0 0 0 0 0 0 0 63 63 105 0 0 0 0 0 0 0 0 0 0 0 0 87 87 143 0 0 0 0 0 0 0 0 0 0 0 0 0 0 0 0 0 0 0 0 0 0 0 0 0 0 0 105 63 63 0 0 0 0 0 0 0 0 0 0 0 0 0 0 0 0 0 0 0 0 0 0 0 0 105 63 63 0 0 0 63 39 63 0 0 0 105 63 63 105 63 63 0 0 0 0 0 0 105 63 63 0 0 0 0 0 0 0 0 0 0 0 0 87 87 143 0 0 0 0 0 0 0 0 0 0 0 0 0 0 0 0 0 0 105 63 63 0 0 0 0 0 0 63 63 105 0 0 0 0 0 0 0 0 0 0 0 0 0 0 0 105 105 105 63 39 63 0 0 0 0 0 0 0 0 0 0 0 0 0 0 0 0 0 0 0 0 0 0 0 0 0 0 0 0 0 0 0 0 0 0 0 0 0 0 0 0 0 0 105 105 105 105 93 154 63 63 105 0 0 0 0 0 0 0 0 0 0 0 0 0 0 0 0 0 0 0 0 0 105 63 63 0 0 0 0 0 0 0 0 0 0 0 0 105 105 105 0 0 0 0 0 0 0 0 0 0 0 0 0 0 0 0 0 0 0 0 0 0 0 0 0 0 0 63 63 105 0 0 0 0 0 0 0 0 0 0 0 0 0 0 0 105 63 63 0 0 0 0 0 0 0 0 0 0 0 0 0 0 0 0 0 0 0 0 0 0 0 0 0 0 0 0 0 0 0 0 0 0 0 0 0 0 0 0 0 0 0 0 0 63 63 105 0 0 0 0 0 0 0 0 0 0 0 0 0 0 0 0 0 0 0 0 0 63 63 105 0 0 0 0 0 0 63 63 105 0 0 0 0 0 0 0 0 0 0 0 0 0 0 0 0 0 0 0 0 0 0 0 0 63 63 105 0 0 0 0 0 0 0 0 0 0 0 0 105 105 105 105 63 63 0 0 0 105 63 63 119 87 119 0 0 0 0 0 0 0 0 0 105 63 63 105 63 63 0 0 0 105 63 63 0 0 0 0 0 0 0 0 0 0 0 0 0 0 0 0 0 0 0 0 0 105 63 63 0 0 0 105 105 105 0 0 0 105 63 63 105 63 63 0 0 0 0 0 0 0 0 0 0 0 0 0 0 0 0 0 0 0 0 0 0 0 0 0 0 0 63 63 105 63 63 105 0 0 0 0 0 0 0 0 0 0 0 0 63 63 105 0 0 0 105 63 63 0 0 0 63 39 63 0 0 0 63 63 105 0 0 0 105 63 63 0 0 0 0 0 0 63 63 105 0 0 0 0 0 0 0 0 0 0 0 0 0 0 0 87 87 143 63 63 105 0 0 0 0 0 0 63 63 105 0 0 0 0 0 0 0 0 0 0 0 0 0 0 0 0 0 0 0 0 0 143 87 87 0 0 0 105 63 63 0 0 0 0 0 0 0 0 0 63 63 105 0 0 0 0 0 0 105 105 105 0 0 0 0 0 0 0 0 0 0 0 0 0 0 0 0 0 0 63 63 105 0 0 0 0 0 0 0 0 0 0 0 0 0 0 0 0 0 0 0 0 0 0 0 0 0 0 0 0 0 0 0 0 0 0 0 0 0 0 0 0 0 0 0 0 0 105 105 105 0 0 0 0 0 0 0 0 0 0 0 0 0 0 0 0 0 0 63 63 105 0 0 0 0 0 0 0 0 0 0 0 0 0 0 0 0 0 0 0 0 0 0 0 0 0 0 0 63 63 105 0 0 0 0 0 0 0 0 0 0 0 0 0 0 0 63 63 105 0 0 0 0 0 0 0 0 0 