P3
64 64
255
0 0 0 0 0 0 0 0 0 105 63 63 63 39 63 0 0 0 0 0 0 63 63 105 0 0 0 0 0 0 0 0 0 0 0 0 0 0 0 0 0 0 0 0 0 0 0 0 0 0 0 0 0 0 0 0 0 0 0 0 0 0 0 0 0 0 0 0 0 0 0 0 0 0 0 0 0 0 0 0 0 0 0 0 0 0 0 0 0 0 0 0 0 0 0 0 0 0 0 0 0 0 0 0 0 0 0 0 0 0 0 0 0 0 0 0 0 0 0 0 0 0 0 0 0 0 0 0 0 0 0 0 0 0 0 0 0 0 0 0 0 0 0 0 0 0 0 63 63 105 0 0 0 0 0 0 0 0 0 0 0 0 0 0 0 0 0 0 0 0 0 0 0 0 0 0 0 0 0 0 63 63 105 0 0 0 0 0 0 0 0 0 0 0 0 0 0 0 0 0 0 0 0 0 0 0 0 0 0 0 0 0 0 0 0 0 0 0 0 0 0 0 0 0 0 0 0 0 0 0 0 105 63 63 0 0 0 0 0 0 0 0 0 0 0 0 0 0 0 0 0 0 0 0 0 0 0 0 0 0 0 0 0 0 0 0 0 0 0 0 0 0 0 0 0 0 0 0 0 0 0 0 0 0 0 0 0 0 0 0 0 0 0 0 0 0 0 0 0 0 0 0 0 0 0 0 63 39 63 0 0 0 63 63 105 0 0 0 0 0 0 0 0 0 0 0 0 0 0 0 0 0 0 0 0 0 0 0 0 0 0 0 0 0 0 0 0 0 0 0 0 0 0 0 0 0 0 0 0 0 0 0 0 0 0 0 0 0 0 0 0 0 0 0 0 0 0 0 63 63 105 0 0 0 0 0 0 105 63 63 0 0 0 0 0 0 0 0 0 0 0 0 0 0 0 0 0 0 63 63 105 0 0 0 0 0 0 0 0 0 0 0 0 0 0 0 0 0 0 0 0 0 0 0 0 0 0 0 0 0 0 0 0 0 105 63 63 0 0 0 0 0 0 0 0 0 0 0 0 0 0 0 0 0 0 0 0 0 0 0 0 0 0 0 105 63 63 0 0 0 0 0 0 0 0 0 0 0 0 0 0 0 0 0 0 63 39 63 63 63 105 0 0 0 63 63 105 0 0 0 63 63 105 0 0 0 0 0 0 0 0 0 0 0 0 0 0 0 0 0 0 0 0 0 0 0 0 63 63 105 0 0 0 0 0 0 0 0 0 0 0 0 0 0 0 0 0 0 0 0 0 0 0 0 0 0 0 0 0 0 0 0 0 0 0 0 143 87 87 0 0 0 0 0 0 105 63 63 0 0 0 0 0 0 0 0 0 0 0 0 0 0 0 105 63 63 105 63 63 0 0 0 0 0 0 0 0 0 105 63 63 0 0 0 0 0 0 0 0 0 0 0 0 0 0 0 0 0 0 0 0 0 0 0 0 0 0 0 0 0 0 0 0 0 0 0 0 0 0 0 0 0 0 0 0 0 0 0 0 105 63 63 0 0 0 0 0 0 105 63 63 0 0 0 0 0 0 0 0 0 0 0 0 0 0 0 0 0 0 0 0 0 0 0 0 0 0 0 0 0 0 105 63 63 0 0 0 63 63 105 0 0 0 0 0 0 0 0 0 0 0 0 0 0 0 0 0 0 0 0 0 105 63 63 0 0 0 0 0 0 0 0 0 0 0 0 0 0 0 0 0 0 0 0 0 0 0 0 105 63 63 0 0 0 0 0 0 0 0 0 0 0 0 0 0 0 0 0 0 105 105 105 154 105 132 105 63 63 105 63 63 0 0 0 0 0 0 0 0 0 0 0 0 0 0 0 0 0 0 0 0 0 0 0 0 0 0 0 0 0 0 0 0 0 0 0 0 0 0 0 0 0 0 0 0 0 0 0 0 0 0 0 0 0 0 63 63 105 0 0 0 0 0 0 105 63 63 105 105 105 0 0 0 0 0 0 0 0 0 63 63 105 0 0 0 0 0 0 0 0 0 0 0 0 105 63 63 0 0 0 0 0 0 0 0 0 0 0 0 63 63 105 63 63 105 0 0 0 0 0 0 0 0 0 0 0 0 0 0 0 0 0 0 0 0 0 0 0 0 0 0 0 0 0 0 0 0 0 0 0 0 0 0 0 0 0 0 0 0 0 0 0 0 0 0 0 0 0 0 0 0 0 0 0 0 143 87 87 0 0 0 0 0 0 0 0 0 0 0 0 0 0 0 0 0 0 0 0 0 0 0 0 0 0 0 0 0 0 0 0 0 0 0 0 63 63 105 0 0 0 105 63 63 0 0 0 105 63 63 0 0 0 0 0 0 0 0 0 0 0 0 0 0 0 0 0 0 0 0 0 105 63 63 0 0 0 0 0 0 0 0 0 0 0 0 0 0 0 0 0 0 0 0 0 0 0 0 0 0 0 0 0 0 0 0 0 0 0 0 0 0 0 0 0 0 63 63 105 0 0 0 0 0 0 0 0 0 0 0 0 0 0 0 105 63 63 63 39 63 0 0 0 0 0 0 0 0 0 0 0 0 0 0 0 0 0 0 0 0 0 0 0 0 0 0 0 0 0 0 0 0 0 0 0 0 0 0 0 105 63 63 0 0 0 0 0 0 0 0 0 105 63 63 105 105 105 0 0 0 0 0 0 0 0 0 0 0 0 0 0 0 0 0 0 0 0 0 0 0 0 105 63 63 0 0 0 0 0 0 0 0 0 0 0 0 0 0 0 0 0 0 105 63 63 0 0 0 0 0 0 105 63 63 0 0 0 0 0 0 0 0 0 0 0 0 0 0 0 0 0 0 0 0 0 0 0 0 0 0 0 0 0 0 0 0 0 0 0 0 0 0 0 0 0 0 0 0 0 0 0 0 63 63 105 0 0 0 105 63 63 0 0 0 0 0 0 0 0 0 0 0 0 63 63 105 0 0 0 0 0 0 0 0 0 0 0 0 0 0 0 0 0 0 0 0 0 0 0 0 63 63 105 0 0 0 0 0 0 0 0 0 0 0 0 105 105 105 0 0 0 0 0 0 0 0 0 0 0 0 0 0 0 0 0 0 0 0 0 0 0 0 0 0 0 0 0 0 0 0 0 0 0 0 0 0 0 0 0 0 0 0 0 105 63 63 0 0 0 0 0 0 0 0 0 0 0 0 0 0 0 0 0 0 105 63 63 0 0 0 0 0 0 105 63 63 0 0 0 0 0 0 0 0 0 0 0 0 0 0 0 0 0 0 0 0 0 63 63 105 0 0 0 105 63 63 0 0 0 0 0 0 0 0 0 0 0 0 63 63 105 0 0 0 0 0 0 63 39 63 0 0 0 63 63 105 105 105 105 63 63 105 0 0 0 0 0 0 0 0 0 0 0 0 63 63 105 0 0 0 0 0 0 0 0 0 0 0 0 0 0 0 63 63 105 0 0 0 0 0 0 0 0 0 63 39 63 0 0 0 0 0 0 0 0 0 0 0 0 105 63 63 0 0 0 105 105 105 0 0 0 0 0 0 0 0 0 0 0 0 0 0 0 105 105 105 0 0 0 0 0 0 0 0 0 0 0 0 0 0 0 63 63 105 0 0 0 105 105 105 0 0 0 0 0 0 0 0 0 0 0 0 0 0 0 0 0 0 0 0 0 0 0 0 105 63 63 0 0 0 105 63 63 63 39 63 63 63 105 0 0 0 0 0 0 0 0 0 63 63 105 0 0 0 0 0 0 0 0 0 0 0 0 0 0 0 0 0 0 0 0 0 0 0 0 0 0 0 0 0 0 0 0 0 0 0 0 0 0 0 0 0 0 63 63 105 0 0 0 0 0 0 0 0 0 0 0 0 0 0 0 0 0 0 63 63 105 0 0 0 0 0 0 0 0 0 0 0 0 0 0 0 0 0 0 0 0 0 0 0 0 105 63 63 0 0 0 0 0 0 63 63 105 0 0 0 0 0 0 0 0 0 0 0 0 0 0 0 0 0 0 0 0 0 0 0 0 0 0 0 0 0 0 0 0 0 0 0 0 63 39 63 63 63 105 119 87 119 0 0 0 0 0 0 0 0 0 0 0 0 0 0 0 105 63 63 0 0 0 0 0 0 0 0 0 0 0 0 105 63 63 0 0 0 0 0 0 0 0 0 0 0 0 0 0 0 0 0 0 0 0 0 0 0 0 0 0 0 63 63 105 0 0 0 0 0 0 105 105 105 0 0 0 0 0 0 63 63 105 0 0 0 0 0 0 0 0 0 0 0 0 0 0 0 63 63 105 0 0 0 0 0 0 105 105 105 0 0 0 0 0 0 0 0 0 0 0 0 0 0 0 0 0 0 0 0 0 0 0 0 0 0 0 0 0 0 0 0 0 0 0 0 105 63 63 0 0 0 0 0 0 63 63 105 0 0 0 0 0 0 105 63 63 0 0 0 0 0 0 0 0 0 105 63 63 0 0 0 0 0 0 0 0 0 0 0 0 0 0 0 63 63 105 0 0 0 0 0 0 0 0 0 0 0 0 0 0 0 0 0 0 0 0 0 105 63 63 0 0 0 0 0 0 0 0 0 105 105 105 0 0 0 0 0 0 0 0 0 0 0 0 0 0 0 63 63 105 0 0 0 63 63 105 0 0 0 63 63 105 0 0 0 0 0 0 63 39 63 0 0 0 0 0 0 0 0 0 63 63 105 0 0 0 0 0 0 0 0 0 63 63 105 0 0 0 0 0 0 0 0 0 0 0 0 0 0 0 0 0 0 0 0 0 0 0 0 0 0 0 0 0 0 0 0 0 143 87 87 63 63 105 0 0 0 0 0 0 0 0 0 0 0 0 0 0 0 0 0 0 0 0 0 105 63 63 0 0 0 0 0 0 0 0 0 0 0 0 0 0 0 105 63 63 105 63 63 0 0 0 143 87 87 63 63 105 0 0 0 63 63 105 63 63 105 63 63 105 0 0 0 0 0 0 0 0 0 105 63 63 0 0 0 0 0 0 0 0 0 63 63 105 0 0 0 0 0 0 0 0 0 0 0 0 0 0 0 0 0 0 63 63 105 0 0 0 0 0 0 0 0 0 0 0 0 0 0 0 0 0 0 63 63 105 0 0 0 0 0 0 0 0 0 0 0 0 0 0 0 0 0 0 0 0 0 0 0 0 0 0 0 0 0 0 0 0 0 63 63 105 0 0 0 63 39 63 0 0 0 105 63 63 0 0 0 0 0 0 0 0 0 0 0 0 0 0 0 0 0 0 0 0 0 0 0 0 0 0 0 105 63 63 105 63 63 0 0 0 0 0 0 0 0 0 0 0 0 0 0 0 0 0 0 0 0 0 0 0 0 0 0 0 105 105 105 0 0 0 0 0 0 0 0 0 105 63 63 0 0 0 0 0 0 0 0 0 63 63 105 0 0 0 0 0 0 0 0 0 0 0 0 0 0 0 0 0 0 87 87 143 63 63 105 0 0 0 0 0 0 0 0 0 0 0 0 63 63 105 63 63 105 0 0 0 0 0 0 0 0 0 0 0 0 0 0 0 63 63 105 0 0 0 0 0 0 0 0 0 0 0 0 0 0 0 63 63 105 0 0 0 63 63 105 0 0 0 0 0 0 0 0 0 0 0 0 0 0 0 0 0 0 0 0 0 105 63 63 0 0 0 0 0 0 105 105 105 105 63 63 0 0 0 0 0 0 0 0 0 0 0 0 63 63 105 105 63 63 105 63 63 105 63 63 0 0 0 0 0 0 0 0 0 0 0 0 0 0 0 63 39 63 0 0 0 0 0 0 0 0 0 0 0 0 0 0 0 63 63 105 0 0 0 0 0 0 0 0 0 0 0 0 63 63 105 0 0 0 0 0 0 63 63 105 0 0 0 0 0 0 0 0 0 0 0 0 0 0 0 0 0 0 0 0 0 63 63 105 0 0 0 63 63 105 0 0 0 0 0 0 87 72 119 63 63 105 0 0 0 0 0 0 0 0 0 0 0 0 63 63 105 0 0 0 0 0 0 0 0 0 0 0 0 0 0 0 0 0 0 0 0 0 0 0 0 0 0 0 0 0 0 0 0 0 0 0 0 105 63 63 0 0 0 0 0 0 0 0 0 0 0 0 0 0 0 105 63 63 0 0 0 0 0 0 105 63 63 105 63 63 0 0 0 105 63 63 0 0 0 0 0 0 0 0 0 0 0 0 105 63 63 0 0 0 0 0 0 0 0 0 0 0 0 0 0 0 0 0 0 0 0 0 105 63 63 0 0 0 0 0 0 0 0 0 0 0 0 0 0 0 63 63 105 0 0 0 0 0 0 0 0 0 63 63 105 0 0 0 0 0 0 0 0 0 0 0 0 63 63 105 63 63 105 0 0 0 0 0 0 63 63 105 0 0 0 0 0 0 0 0 0 0 0 0 63 63 105 105 105 105 0 0 0 0 0 0 0 0 0 0 0 0 0 0 0 0 0 0 0 0 0 63 63 105 0 0 0 0 0 0 63 39 63 0 0 0 63 63 105 0 0 0 105 63 63 0 0 0 0 0 0 0 0 0 0 0 0 0 0 0 0 0 0 0 0 0 105 63 63 105 63 63 0 0 0 105 63 63 0 0 0 0 0 0 0 0 0 0 0 0 0 0 0 105 63 63 0 0 0 0 0 0 0 0 0 63 63 105 105 63 63 105 63 63 0 0 0 0 0 0 63 63 105 105 63 63 63 63 105 0 0 0 0 0 0 105 105 105 0 0 0 0 0 0 63 63 105 0 0 0 0 0 0 0 0 0 87 87 143 0 0 0 63 63 105 0 0 0 0 0 0 0 0 0 0 0 0 0 0 0 0 0 0 0 0 0 63 63 105 0 0 0 0 0 0 0 0 0 0 0 0 0 0 0 0 0 0 63 63 105 0 0 0 0 0 0 0 0 0 0 0 0 0 0 0 105 63 63 0 0 0 0 0 0 105 63 63 0 0 0 0 0 0 0 0 0 0 0 0 0 0 0 0 0 0 105 63 63 0 0 0 0 0 0 0 0 0 0 0 0 0 0 0 105 63 63 0 0 0 0 0 0 143 87 87 0 0 0 119 87 119 0 0 0 0 0 0 0 0 0 0 0 0 0 0 0 0 0 0 105 63 63 0 0 0 0 0 0 105 105 105 0 0 0 0 0 0 0 0 0 0 0 0 0 0 0 0 0 0 0 0 0 0 0 0 0 0 0 0 0 0 63 63 105 63 39 63 0 0 0 0 0 0 0 0 0 0 0 0 0 0 0 105 105 105 0 0 0 0 0 0 0 0 0 0 0 0 63 63 105 0 0 0 0 0 0 0 0 0 0 0 0 0 0 0 0 0 0 0 0 0 0 0 0 0 0 0 0 0 0 0 0 0 0 0 0 105 105 105 0 0 0 0 0 0 0 0 0 105 63 63 0 0 0 0 0 0 105 63 63 105 63 63 105 63 63 0 0 0 0 0 0 0 0 0 105 63 63 105 63 63 0 0 0 0 0 0 105 63 63 0 0 0 0 0 0 0 0 0 105 63 63 0 0 0 0 0 0 0 0 0 0 0 0 0 0 0 0 0 0 0 0 0 0 0 0 0 0 0 0 0 0 0 0 0 0 0 0 0 0 0 0 0 0 0 0 0 0 0 0 0 0 0 0 0 0 0 0 0 63 39 63 63 63 105 0 0 0 0 0 0 105 105 105 0 0 0 0 0 0 0 0 0 0 0 0 0 0 0 0 0 0 0 0 0 0 0 0 63 63 105 0 0 0 0 0 0 63 63 105 0 0 0 0 0 0 0 0 0 0 0 0 0 0 0 105 63 63 0 0 0 0 0 0 105 63 63 105 63 63 0 0 0 0 0 0 105 63 63 0 0 0 0 0 0 105 63 63 0 0 0 0 0 0 0 0 0 0 0 0 0 0 0 0 0 0 0 0 0 105 63 63 0 0 0 0 0 0 0 0 0 0 0 0 63 63 105 0 0 0 0 0 0 0 0 0 0 0 0 0 0 0 0 0 0 0 0 0 119 87 119 0 0 0 0 0 0 0 0 0 0 0 0 105 63 63 0 0 0 105 63 63 0 0 0 63 63 105 63 63 105 0 0 0 0 0 0 0 0 0 0 0 0 87 72 119 63 63 105 0 0 0 0 0 0 63 63 105 0 0 0 0 0 0 0 0 0 0 0 0 0 0 0 0 0 0 0 0 0 0 0 0 0 0 0 0 0 0 63 63 105 0 0 0 105 63 63 105 63 63 105 63 63 0 0 0 105 63 63 0 0 0 0 0 0 105 63 63 0 0 0 105 63 63 0 0 0 0 0 0 0 0 0 0 0 0 0 0 0 105 63 63 105 63 63 105 63 63 0 0 0 0 0 0 0 0 0 105 63 63 0 0 0 0 0 0 0 0 0 105 105 105 119 87 119 0 0 0 0 0 0 0 0 0 0 0 0 0 0 0 0 0 0 0 0 0 0 0 0 0 0 0 0 0 0 0 0 0 0 0 0 0 0 0 0 0 0 0 0 0 0 0 0 0 0 0 0 0 0 0 0 0 0 0 0 0 0 0 0 0 0 87 72 119 0 0 0 0 0 0 0 0 0 63 63 105 0 0 0 0 0 0 0 0 0 0 0 0 0 0 0 0 0 0 0 0 0 0 0 0 63 63 105 0 0 0 105 63 63 0 0 0 0 0 0 105 63 63 0 0 0 0 0 0 0 0 0 0 0 0 0 0 0 105 63 63 105 63 63 0 0 0 0 0 0 0 0 0 0 0 0 105 105 105 0 0 0 0 0 0 63 39 63 0 0 0 105 63 63 0 0 0 63 39 63 0 0 0 0 0 0 0 0 0 0 0 0 0 0 0 0 0 0 105 63 63 0 0 0 0 0 0 0 0 0 0 0 0 0 0 0 0 0 0 0 0 0 0 0 0 0 0 0 0 0 0 0 0 0 0 0 0 105 63 63 0 0 0 63 63 105 0 0 0 0 0 0 0 0 0 63 63 105 0 0 0 0 0 0 105 105 105 0 0 0 0 0 0 0 0 0 0 0 0 0 0 0 63 63 105 0 0 0 0 0 0 0 0 0 0 0 0 0 0 0 0 0 0 0 0 0 0 0 0 0 0 0 0 0 0 0 0 0 105 63 63 0 0 0 0 0 0 105 63 63 105 63 63 63 39 63 0 0 0 0 0 0 63 63 105 0 0 0 0 0 0 0 0 0 105 63 63 0 0 0 63 39 63 0 0 0 0 0 0 105 63 63 0 0 0 0 0 0 119 72 87 0 0 0 0 0 0 0 0 0 0 0 0 0 0 0 0 0 0 0 0 0 63 63 105 0 0 0 63 39 63 0 0 0 63 63 105 0 0 0 0 0 0 63 63 105 63 63 105 0 0 0 87 87 143 0 0 0 0 0 0 63 63 105 0 0 0 0 0 0 0 0 0 0 0 0 0 0 0 63 39 63 0 0 0 0 0 0 63 63 105 0 0 0 0 0 0 0 0 0 0 0 0 105 63 63 0 0 0 0 0 0 0 0 0 0 0 0 0 0 0 0 0 0 0 0 0 0 0 0 0 0 0 0 0 0 105 105 105 0 0 0 105 63 63 0 0 0 0 0 0 105 63 63 0 0 0 105 63 63 0 0 0 0 0 0 0 0 0 0 0 0 0 0 0 0 0 0 105 105 105 0 0 0 0 0 0 0 0 0 105 63 63 0 0 0 0 0 0 0 0 0 0 0 0 63 63 105 0 0 0 0 0 0 0 0 0 0 0 0 0 0 0 0 0 0 0 0 0 0 0 0 0 0 0 63 63 105 119 87 119 0 0 0 63 63 105 0 0 0 0 0 0 0 0 0 0 0 0 119 119 143 105 63 63 0 0 0 63 39 63 63 63 105 63 63 105 0 0 0 0 0 0 0 0 0 0 0 0 0 0 0 0 0 0 0 0 0 0 0 0 0 0 0 0 0 0 105 63 63 0 0 0 0 0 0 0 0 0 0 0 0 0 0 0 154 93 105 0 0 0 0 0 0 0 0 0 105 63 63 105 105 105 0 0 0 0 0 0 0 0 0 0 0 0 105 63 63 0 0 0 0 0 0 0 0 0 0 0 0 105 63 63 0 0 0 0 0 0 0 0 0 105 63 63 0 0 0 0 0 0 0 0 0 0 0 0 0 0 0 105 105 105 0 0 0 105 63 63 0 0 0 0 0 0 0 0 0 0 0 0 0 0 0 63 63 105 0 0 0 63 63 105 0 0 0 0 0 0 0 0 0 63 63 105 0 0 0 0 0 0 63 63 105 0 0 0 0 0 0 0 0 0 0 0 0 63 63 105 0 0 0 0 0 0 0 0 0 0 0 0 0 0 0 0 0 0 0 0 0 0 0 0 0 0 0 0 0 0 0 0 0 105 63 63 63 39 63 0 0 0 0 0 0 105 63 63 0 0 0 63 39 63 105 63 63 105 63 63 63 63 105 0 0 0 0 0 0 0 0 0 0 0 0 0 0 0 0 0 0 0 0 0 0 0 0 0 0 0 0 0 0 0 0 0 0 0 0 0 0 0 0 0 0 0 0 0 0 0 0 63 63 105 0 0 0 119 72 87 0 0 0 105 105 105 0 0 0 0 0 0 63 63 105 0 0 0 0 0 0 0 0 0 0 0 0 0 0 0 0 0 0 0 0 0 63 63 105 105 63 63 0 0 0 0 0 0 0 0 0 0 0 0 0 0 0 63 63 105 0 0 0 0 0 0 0 0 0 0 0 0 0 0 0 0 0 0 0 0 0 0 0 0 63 63 105 0 0 0 0 0 0 0 0 0 0 0 0 0 0 0 0 0 0 0 0 0 0 0 0 105 63 63 0 0 0 0 0 0 172 105 105 0 0 0 0 0 0 0 0 0 0 0 0 0 0 0 0 0 0 0 0 0 0 0 0 0 0 0 0 0 0 0 0 0 0 0 0 105 63 63 63 63 105 0 0 0 105 63 63 0 0 0 0 0 0 0 0 0 0 0 0 0 0 0 0 0 0 0 0 0 0 0 0 0 0 0 0 0 0 0 0 0 0 0 0 63 63 105 0 0 0 0 0 0 0 0 0 0 0 0 0 0 0 63 63 105 0 0 0 0 0 0 143 119 119 0 0 0 0 0 0 0 0 0 0 0 0 0 0 0 0 0 0 0 0 0 0 0 0 0 0 0 0 0 0 0 0 0 0 0 0 0 0 0 63 63 105 0 0 0 0 0 0 63 63 105 0 0 0 0 0 0 0 0 0 0 0 0 0 0 0 0 0 0 0 0 0 0 0 0 0 0 0 0 0 0 63 63 105 0 0 0 0 0 0 0 0 0 105 63 63 0 0 0 0 0 0 0 0 0 0 0 0 0 0 0 0 0 0 0 0 0 0 0 0 0 0 0 0 0 0 0 0 0 0 0 0 0 0 0 0 0 0 0 0 0 105 105 172 0 0 0 0 0 0 0 0 0 0 0 0 0 0 0 105 105 105 0 0 0 0 0 0 0 0 0 63 63 105 0 0 0 0 0 0 0 0 0 0 0 0 0 0 0 105 63 63 0 0 0 0 0 0 0 0 0 0 0 0 0 0 0 0 0 0 63 63 105 0 0 0 0 0 0 0 0 0 0 0 0 0 0 0 0 0 0 0 0 0 63 63 105 0 0 0 0 0 0 0 0 0 0 0 0 105 63 63 0 0 0 0 0 0 0 0 0 0 0 0 0 0 0 0 0 0 0 0 0 0 0 0 0 0 0 63 63 105 0 0 0 105 63 63 0 0 0 0 0 0 0 0 0 0 0 0 119 119 143 0 0 0 0 0 0 105 63 63 0 0 0 105 63 63 0 0 0 0 0 0 0 0 0 0 0 0 0 0 0 0 0 0 0 0 0 143 119 119 0 0 0 0 0 0 0 0 0 105 63 63 0 0 0 0 0 0 105 63 63 0 0 0 0 0 0 0 0 0 63 63 105 105 105 105 0 0 0 0 0 0 0 0 0 63 63 105 0 0 0 63 63 105 0 0 0 0 0 0 0 0 0 0 0 0 63 63 105 0 0 0 0 0 0 0 0 0 0 0 0 0 0 0 0 0 0 0 0 0 0 0 0 0 0 0 0 0 0 0 0 0 0 0 0 0 0 0 0 0 0 0 0 0 0 0 0 0 0 0 0 0 0 0 0 0 105 63 63 0 0 0 0 0 0 63 39 63 105 63 63 105 63 63 0 0 0 105 63 63 0 0 0 0 0 0 0 0 0 0 0 0 105 63 63 0 0 0 0 0 0 63 63 105 0 0 0 0 0 0 0 0 0 0 0 0 0 0 0 0 0 0 63 63 105 0 0 0 0 0 0 0 0 0 0 0 0 0 0 0 0 0 0 0 0 0 0 0 0 0 0 0 0 0 0 63 63 105 63 63 105 63 63 105 0 0 0 0 0 0 0 0 0 0 0 0 0 0 0 0 0 0 0 0 0 0 0 0 0 0 0 0 0 0 0 0 0 0 0 0 119 87 119 0 0 0 0 0 0 0 0 0 0 0 0 0 0 0 0 0 0 0 0 0 105 63 63 0 0 0 105 63 63 63 39 63 0 0 0 105 63 63 0 0 0 0 0 0 105 63 63 0 0 0 63 39 63 0 0 0 0 0 0 0 0 0 143 87 87 0 0 0 0 0 0 0 0 0 0 0 0 105 63 63 0 0 0 0 0 0 0 0 0 0 0 0 0 0 0 0 0 0 0 0 0 0 0 0 0 0 0 0 0 0 0 0 0 0 0 0 0 0 0 0 0 0 0 0 0 105 63 63 0 0 0 0 0 0 63 63 105 105 63 63 0 0 0 0 0 0 63 39 63 63 39 63 0 0 0 0 0 0 0 0 0 0 0 0 63 39 63 0 0 0 0 0 0 0 0 0 63 63 105 63 63 105 0 0 0 0 0 0 0 0 0 105 105 105 0 0 0 63 63 105 0 0 0 63 63 105 0 0 0 105 63 63 0 0 0 0 0 0 0 0 0 0 0 0 0 0 0 0 0 0 105 63 63 143 87 87 0 0 0 143 119 119 0 0 0 0 0 0 0 0 0 119 72 87 0 0 0 0 0 0 0 0 0 0 0 0 0 0 0 105 105 105 0 0 0 0 0 0 0 0 0 0 0 0 0 0 0 63 63 105 0 0 0 0 0 0 0 0 0 0 0 0 0 0 0 0 0 0 0 0 0 0 0 0 0 0 0 0 0 0 0 0 0 0 0 0 0 0 0 63 63 105 105 63 63 0 0 0 0 0 0 105 63 63 0 0 0 0 0 0 0 0 0 63 63 105 0 0 0 0 0 0 0 0 0 0 0 0 63 63 105 0 0 0 63 63 105 0 0 0 0 0 0 0 0 0 0 0 0 0 0 0 0 0 0 0 0 0 0 0 0 143 87 87 0 0 0 0 0 0 0 0 0 0 0 0 0 0 0 0 0 0 0 0 0 0 0 0 0 0 0 0 0 0 0 0 0 0 0 0 0 0 0 0 0 0 63 63 105 0 0 0 0 0 0 105 63 63 0 0 0 0 0 0 0 0 0 143 87 87 0 0 0 0 0 0 0 0 0 0 0 0 0 0 0 0 0 0 0 0 0 0 0 0 0 0 0 0 0 0 63 39 63 0 0 0 0 0 0 0 0 0 0 0 0 0 0 0 0 0 0 63 63 105 0 0 0 0 0 0 105 63 63 0 0 0 63 63 105 0 0 0 0 0 0 63 63 105 0 0 0 87 87 143 0 0 0 0 0 0 63 63 105 63 63 105 0 0 0 0 0 0 63 63 105 0 0 0 0 0 0 0 0 0 63 63 105 0 0 0 0 0 0 0 0 0 0 0 0 0 0 0 0 0 0 63 39 63 105 63 63 0 0 0 0 0 0 0 0 0 105 63 63 105 63 63 0 0 0 0 0 0 0 0 0 0 0 0 0 0 0 0 0 0 0 0 0 0 0 0 0 0 0 0 0 0 105 63 63 0 0 0 105 63 63 0 0 0 0 0 0 0 0 0 63 63 105 0 0 0 0 0 0 0 0 0 0 0 0 0 0 0 105 63 63 0 0 0 0 0 0 0 0 0 105 105 105 0 0 0 0 0 0 0 0 0 0 0 0 63 63 105 63 63 105 0 0 0 0 0 0 0 0 0 63 63 105 0 0 0 63 63 105 0 0 0 0 0 0 87 53 87 87 87 143 0 0 0 0 0 0 0 0 0 105 63 63 0 0 0 0 0 0 63 63 105 0 0 0 0 0 0 0 0 0 0 0 0 0 0 0 105 63 63 0 0 0 0 0 0 0 0 0 0 0 0 0 0 0 105 63 63 0 0 0 0 0 0 0 0 0 0 0 0 105 63 63 0 0 0 0 0 0 0 0 0 0 0 0 0 0 0 0 0 0 105 63 63 0 0 0 0 0 0 0 0 0 0 0 0 0 0 0 0 0 0 0 0 0 0 0 0 0 0 0 0 0 0 0 0 0 0 0 0 0 0 0 0 0 0 63 63 105 63 63 105 0 0 0 0 0 0 0 0 0 0 0 0 63 63 105 0 0 0 0 0 0 0 0 0 63 39 63 63 63 105 0 0 0 0 0 0 0 0 0 0 0 0 63 39 63 0 0 0 0 0 0 63 63 105 0 0 0 63 63 105 0 0 0 63 63 105 0 0 0 0 0 0 0 0 0 0 0 0 0 0 0 0 0 0 0 0 0 0 0 0 0 0 0 0 0 0 0 0 0 0 0 0 0 0 0 0 0 0 0 0 0 0 0 0 0 0 0 105 63 63 0 0 0 0 0 0 0 0 0 0 0 0 0 0 0 0 0 0 0 0 0 0 0 0 0 0 0 0 0 0 0 0 0 0 0 0 0 0 0 0 0 0 0 0 0 0 0 0 0 0 0 0 0 0 0 0 0 0 0 0 0 0 0 0 0 0 0 0 0 0 0 0 0 0 0 0 0 0 0 0 0 0 0 0 0 0 0 0 0 0 0 0 0 0 0 0 0 0 0 0 0 0 0 0 0 0 0 0 63 63 105 0 0 0 0 0 0 0 0 0 63 63 105 0 0 0 0 0 0 0 0 0 0 0 0 0 0 0 0 0 0 0 0 0 0 0 0 0 0 0 0 0 0 0 0 0 0 0 0 0 0 0 0 0 0 0 0 0 0 0 0 0 0 0 0 0 0 0 0 0 0 0 0 0 0 0 0 0 0 0 0 0 0 0 0 0 0 0 0 0 0 105 105 105 0 0 0 0 0 0 0 0 0 0 0 0 0 0 0 0 0 0 105 63 63 0 0 0 105 63 63 0 0 0 0 0 0 0 0 0 0 0 0 0 0 0 105 63 63 0 0 0 0 0 0 0 0 0 0 0 0 63 39 63 63 63 105 63 39 63 0 0 0 0 0 0 0 0 0 0 0 0 0 0 0 0 0 0 0 0 0 0 0 0 0 0 0 0 0 0 0 0 0 0 0 0 0 0 0 63 63 105 132 132 172 0 0 0 0 0 0 0 0 0 0 0 0 0 0 0 0 0 0 0 0 0 0 0 0 0 0 0 0 0 0 0 0 0 0 0 0 0 0 0 63 39 63 0 0 0 105 63 63 0 0 0 119 110 119 143 87 87 0 0 0 105 63 63 0 0 0 0 0 0 0 0 0 0 0 0 105 63 63 0 0 0 0 0 0 0 0 0 143 87 87 0 0 0 0 0 0 0 0 0 0 0 0 63 39 63 0 0 0 0 0 0 0 0 0 0 0 0 0 0 0 63 63 105 0 0 0 0 0 0 105 63 63 0 0 0 0 0 0 63 63 105 63 63 105 0 0 0 0 0 0 0 0 0 63 39 63 0 0 0 63 63 105 0 0 0 0 0 0 0 0 0 63 63 105 0 0 0 0 0 0 0 0 0 63 63 105 0 0 0 0 0 0 63 63 105 63 63 105 0 0 0 0 0 0 63 63 105 0 0 0 0 0 0 0 0 0 0 0 0 0 0 0 0 0 0 0 0 0 0 0 0 0 0 0 0 0 0 0 0 0 0 0 0 0 0 0 0 0 0 105 63 63 0 0 0 0 0 0 63 39 63 0 0 0 0 0 0 0 0 0 0 0 0 0 0 0 105 63 63 0 0 0 0 0 0 0 0 0 119 87 119 0 0 0 0 0 0 105 63 63 0 0 0 0 0 0 0 0 0 0 0 0 105 63 63 0 0 0 119 87 119 105 63 63 0 0 0 0 0 0 0 0 0 0 0 0 0 0 0 0 0 0 0 0 0 63 63 105 87 87 143 0 0 0 0 0 0 0 0 0 0 0 0 0 0 0 0 0 0 0 0 0 63 63 105 105 105 105 0 0 0 63 63 105 63 63 105 0 0 0 63 63 105 0 0 0 0 0 0 0 0 0 0 0 0 0 0 0 0 0 0 0 0 0 105 63 63 0 0 0 0 0 0 0 0 0 0 0 0 0 0 0 0 0 0 119 87 119 0 0 0 0 0 0 0 0 0 143 87 87 0 0 0 0 0 0 105 63 63 0 0 0 143 119 119 0 0 0 105 63 63 0 0 0 105 63 63 0 0 0 105 63 63 0 0 0 0 0 0 0 0 0 0 0 0 0 0 0 143 87 87 0 0 0 0 0 0 0 0 0 0 0 0 63 63 105 143 119 119 0 0 0 0 0 0 0 0 0 63 63 105 63 63 105 63 63 105 0 0 0 0 0 0 0 0 0 0 0 0 63 63 105 0 0 0 0 0 0 0 0 0 0 0 0 0 0 0 63 63 105 63 63 105 0 0 0 0 0 0 105 105 105 0 0 0 0 0 0 0 0 0 0 0 0 0 0 0 0 0 0 0 0 0 63 63 105 0 0 0 105 105 105 0 0 0 0 0 0 0 0 0 0 0 0 0 0 0 119 87 119 0 0 0 0 0 0 0 0 0 0 0 0 0 0 0 0 0 0 0 0 0 0 0 0 0 0 0 105 63 63 0 0 0 0 0 0 0 0 0 0 0 0 0 0 0 0 0 0 105 63 63 0 0 0 105 63 63 0 0 0 0 0 0 105 63 63 0 0 0 0 0 0 0 0 0 0 0 0 0 0 0 0 0 0 0 0 0 105 105 105 63 39 63 0 0 0 63 63 105 0 0 0 105 105 105 0 0 0 0 0 0 0 0 0 0 0 0 0 0 0 63 63 105 0 0 0 0 0 0 119 119 143 63 63 105 0 0 0 0 0 0 0 0 0 63 63 105 0 0 0 0 0 0 0 0 0 0 0 0 0 0 0 0 0 0 0 0 0 0 0 0 0 0 0 0 0 0 105 105 105 0 0 0 63 39 63 105 63 63 0 0 0 105 63 63 0 0 0 0 0 0 0 0 0 105 63 63 0 0 0 0 0 0 0 0 0 0 0 0 63 39 63 0 0 0 0 0 0 0 0 0 0 0 0 0 0 0 105 63 63 0 0 0 0 0 0 105 63 63 0 0 0 0 0 0 0 0 0 0 0 0 0 0 0 0 0 0 0 0 0 0 0 0 0 0 0 0 0 0 0 0 0 0 0 0 0 0 0 63 63 105 132 93 132 105 105 105 0 0 0 0 0 0 0 0 0 0 0 0 0 0 0 0 0 0 0 0 0 0 0 0 0 0 0 0 0 0 0 0 0 0 0 0 0 0 0 0 0 0 0 0 0 0 0 0 0 0 0 0 0 0 0 0 0 0 0 0 0 0 0 105 63 63 105 63 63 0 0 0 0 0 0 0 0 0 0 0 0 0 0 0 105 63 63 0 0 0 0 0 0 0 0 0 0 0 0 0 0 0 0 0 0 0 0 0 0 0 0 0 0 0 0 0 0 0 0 0 0 0 0 0 0 0 0 0 0 0 0 0 105 63 63 105 105 105 0 0 0 0 0 0 105 63 63 0 0 0 0 0 0 0 0 0 0 0 0 0 0 0 63 63 105 0 0 0 0 0 0 0 0 0 0 0 0 63 39 63 0 0 0 105 63 63 0 0 0 0 0 0 0 0 0 0 0 0 0 0 0 63 63 105 63 63 105 0 0 0 0 0 0 0 0 0 0 0 0 63 63 105 0 0 0 63 63 105 0 0 0 0 0 0 0 0 0 0 0 0 0 0 0 0 0 0 0 0 0 0 0 0 0 0 0 0 0 0 0 0 0 0 0 0 0 0 0 0 0 0 63 39 63 0 0 0 0 0 0 0 0 0 0 0 0 105 63 63 105 63 63 105 63 63 0 0 0 105 63 63 0 0 0 105 105 105 0 0 0 105 63 63 0 0 0 0 0 0 63 63 105 0 0 0 0 0 0 0 0 0 0 0 0 0 0 0 0 0 0 0 0 0 0 0 0 0 0 0 0 0 0 0 0 0 63 63 105 105 105 105 0 0 0 0 0 0 0 0 0 0 0 0 0 0 0 0 0 0 0 0 0 105 105 105 63 39 63 0 0 0 0 0 0 0 0 0 105 105 105 0 0 0 105 105 105 63 63 105 0 0 0 63 63 105 0 0 0 0 0 0 0 0 0 0 0 0 0 0 0 63 63 105 119 119 143 0 0 0 0 0 0 0 0 0 0 0 0 0 0 0 0 0 0 0 0 0 0 0 0 0 0 0 0 0 0 63 63 105 0 0 0 105 105 105 105 63 63 0 0 0 0 0 0 0 0 0 0 0 0 0 0 0 0 0 0 0 0 0 0 0 0 0 0 0 63 63 105 0 0 0 0 0 0 0 0 0 0 0 0 0 0 0 0 0 0 105 63 63 143 119 119 0 0 0 0 0 0 0 0 0 0 0 0 63 63 105 0 0 0 0 0 0 0 0 0 0 0 0 0 0 0 0 0 0 0 0 0 0 0 0 0 0 0 0 0 0 0 0 0 0 0 0 0 0 0 0 0 0 0 0 0 0 0 0 0 0 0 0 0 0 0 0 0 0 0 0 0 0 0 63 63 105 0 0 0 63 63 105 0 0 0 0 0 0 0 0 0 63 63 105 0 0 0 0 0 0 0 0 0 0 0 0 0 0 0 0 0 0 0 0 0 0 0 0 0 0 0 0 0 0 0 0 0 0 0 0 105 63 63 119 72 87 0 0 0 105 63 63 105 63 63 63 39 63 0 0 0 0 0 0 0 0 0 105 63 63 0 0 0 0 0 0 0 0 0 63 39 63 0 0 0 0 0 0 0 0 0 0 0 0 105 63 63 105 63 63 0 0 0 0 0 0 0 0 0 0 0 0 0 0 0 0 0 0 0 0 0 0 0 0 0 0 0 0 0 0 0 0 0 0 0 0 0 0 0 63 63 105 0 0 0 0 0 0 63 63 105 0 0 0 0 0 0 0 0 0 0 0 0 0 0 0 0 0 0 0 0 0 0 0 0 0 0 0 0 0 0 63 63 105 0 0 0 0 0 0 0 0 0 0 0 0 0 0 0 0 0 0 0 0 0 0 0 0 0 0 0 119 87 119 0 0 0 0 0 0 0 0 0 0 0 0 0 0 0 0 0 0 0 0 0 0 0 0 0 0 0 0 0 0 0 0 0 0 0 0 0 0 0 63 63 105 105 63 63 0 0 0 0 0 0 0 0 0 0 0 0 0 0 0 0 0 0 0 0 0 0 0 0 105 63 63 0 0 0 0 0 0 0 0 0 0 0 0 0 0 0 105 63 63 0 0 0 0 0 0 63 63 105 0 0 0 0 0 0 105 105 105 105 63 63 0 0 0 0 0 0 105 63 63 0 0 0 0 0 0 0 0 0 0 0 0 0 0 0 63 63 105 0 0 0 0 0 0 0 0 0 0 0 0 0 0 0 0 0 0 105 63 63 0 0 0 0 0 0 0 0 0 0 0 0 0 0 0 0 0 0 0 0 0 0 0 0 0 0 0 0 0 0 63 39 63 0 0 0 0 0 0 0 0 0 0 0 0 0 0 0 0 0 0 105 105 105 0 0 0 0 0 0 63 63 105 0 0 0 0 0 0 0 0 0 0 0 0 0 0 0 105 63 63 105 63 63 0 0 0 105 63 63 0 0 0 0 0 0 0 0 0 0 0 0 0 0 0 0 0 0 0 0 0 0 0 0 0 0 0 0 0 0 0 0 0 63 63 105 0 0 0 0 0 0 63 39 63 0 0 0 63 39 63 0 0 0 0 0 0 0 0 0 0 0 0 0 0 0 63 63 105 87 87 143 63 63 105 0 0 0 0 0 0 0 0 0 0 0 0 0 0 0 0 0 0 63 63 105 0 0 0 0 0 0 0 0 0 0 0 0 0 0 0 0 0 0 0 0 0 0 0 0 0 0 0 0 0 0 0 0 0 105 63 63 0 0 0 0 0 0 0 0 0 0 0 0 0 0 0 0 0 0 0 0 0 0 0 0 105 63 63 0 0 0 105 63 63 0 0 0 105 63 63 0 0 0 0 0 0 0 0 0 0 0 0 105 63 63 105 63 63 105 63 63 0 0 0 0 0 0 0 0 0 0 0 0 0 0 0 0 0 0 0 0 0 0 0 0 0 0 0 0 0 0 105 63 63 0 0 0 0 0 0 0 0 0 63 63 105 0 0 0 0 0 0 0 0 0 0 0 0 0 0 0 0 0 0 0 0 0 63 63 105 0 0 0 63 63 105 63 63 105 0 0 0 0 0 0 63 63 105 0 0 0 0 0 0 0 0 0 105 63 63 0 0 0 0 0 0 0 0 0 63 63 105 63 63 105 0 0 0 0 0 0 63 63 105 0 0 0 0 0 0 0 0 0 105 63 63 0 0 0 0 0 0 105 105 105 0 0 0 0 0 0 0 0 0 0 0 0 0 0 0 0 0 0 0 0 0 0 0 0 105 63 63 0 0 0 0 0 0 0 0 0 0 0 0 0 0 0 0 0 0 105 105 105 0 0 0 63 39 63 0 0 0 0 0 0 0 0 0 0 0 0 105 63 63 0 0 0 0 0 0 0 0 0 0 0 0 0 0 0 0 0 0 0 0 0 0 0 0 0 0 0 0 0 0 0 0 0 0 0 0 119 87 119 0 0 0 0 0 0 0 0 0 0 0 0 63 63 105 63 63 105 0 0 0 0 0 0 0 0 0 0 0 0 105 63 63 0 0 0 0 0 0 0 0 0 0 0 0 63 63 105 0 0 0 0 0 0 0 0 0 0 0 0 0 0 0 0 0 0 0 0 0 0 0 0 0 0 0 0 0 0 0 0 0 0 0 0 0 0 0 0 0 0 105 63 63 0 0 0 0 0 0 0 0 0 105 63 63 0 0 0 0 0 0 0 0 0 119 87 119 0 0 0 105 105 105 105 63 63 105 63 63 0 0 0 0 0 0 0 0 0 0 0 0 0 0 0 119 87 119 0 0 0 0 0 0 0 0 0 0 0 0 0 0 0 63 63 105 0 0 0 0 0 0 0 0 0 0 0 0 105 105 105 0 0 0 63 63 105 0 0 0 0 0 0 63 63 105 63 63 105 0 0 0 63 39 63 0 0 0 0 0 0 119 87 119 0 0 0 0 0 0 63 63 105 0 0 0 0 0 0 0 0 0 63 63 105 0 0 0 0 0 0 0 0 0 63 39 63 0 0 0 105 105 105 0 0 0 0 0 0 105 63 63 0 0 0 0 0 0 0 0 0 0 0 0 105 63 63 0 0 0 63 63 105 63 39 63 0 0 0 0 0 0 0 0 0 0 0 0 0 0 0 0 0 0 0 0 0 0 0 0 0 0 0 119 119 143 0 0 0 63 39 63 0 0 0 0 0 0 0 0 0 0 0 0 0 0 0 105 105 105 0 0 0 87 87 143 0 0 0 63 63 105 0 0 0 0 0 0 0 0 0 63 63 105 0 0 0 0 0 0 0 0 0 0 0 0 0 0 0 63 63 105 0 0 0 0 0 0 63 63 105 0 0 0 0 0 0 0 0 0 0 0 0 0 0 0 63 63 105 0 0 0 0 0 0 0 0 0 0 0 0 0 0 0 0 0 0 0 0 0 0 0 0 0 0 0 0 0 0 0 0 0 0 0 0 0 0 0 0 0 0 0 0 0 0 0 0 0 0 0 0 0 0 0 0 0 105 63 63 0 0 0 0 0 0 0 0 0 0 0 0 105 63 63 63 39 63 63 39 63 0 0 0 0 0 0 0 0 0 105 63 63 0 0 0 0 0 0 0 0 0 0 0 0 0 0 0 105 105 105 0 0 0 0 0 0 0 0 0 105 105 105 0 0 0 105 63 63 0 0 0 0 0 0 0 0 0 0 0 0 87 87 143 119 119 143 0 0 0 63 63 105 0 0 0 63 63 105 0 0 0 0 0 0 0 0 0 63 63 105 63 63 105 0 0 0 0 0 0 0 0 0 0 0 0 0 0 0 0 0 0 0 0 0 0 0 0 0 0 0 63 63 105 0 0 0 0 0 0 0 0 0 0 0 0 0 0 0 0 0 0 0 0 0 0 0 0 0 0 0 0 0 0 105 63 63 63 63 105 0 0 0 0 0 0 0 0 0 0 0 0 0 0 0 0 0 0 105 63 63 0 0 0 0 0 0 0 0 0 105 63 63 0 0 0 0 0 0 0 0 0 0 0 0 105 63 63 0 0 0 0 0 0 119 87 119 0 0 0 63 39 63 0 0 0 105 105 105 0 0 0 0 0 0 0 0 0 0 0 0 0 0 0 119 87 119 105 63 63 0 0 0 0 0 0 0 0 0 0 0 0 0 0 0 0 0 0 0 0 0 63 63 105 0 0 0 0 0 0 63 39 63 0 0 0 0 0 0 0 0 0 0 0 0 63 63 105 63 63 105 63 63 105 63 63 105 105 63 63 0 0 0 0 0 0 0 0 0 0 0 0 0 0 0 0 0 0 105 105 105 87 87 143 87 87 143 0 0 0 0 0 0 0 0 0 0 0 0 0 0 0 0 0 0 105 63 63 63 39 63 0 0 0 0 0 0 0 0 0 63 63 105 119 87 119 0 0 0 0 0 0 0 0 0 105 63 63 105 63 63 0 0 0 143 119 119 0 0 0 0 0 0 0 0 0 0 0 0 0 0 0 0 0 0 0 0 0 105 63 63 105 105 105 0 0 0 0 0 0 0 0 0 0 0 0 0 0 0 105 63 63 0 0 0 0 0 0 0 0 0 0 0 0 0 0 0 63 63 105 63 63 105 119 87 119 0 0 0 0 0 0 105 63 63 0 0 0 0 0 0 0 0 0 63 39 63 0 0 0 0 0 0 0 0 0 0 0 0 0 0 0 0 0 0 0 0 0 0 0 0 0 0 0 0 0 0 0 0 0 0 0 0 0 0 0 119 87 119 0 0 0 0 0 0 105 63 63 0 0 0 0 0 0 0 0 0 0 0 0 0 0 0 119 72 87 0 0 0 0 0 0 105 63 63 105 63 63 105 63 63 119 72 87 0 0 0 0 0 0 0 0 0 0 0 0 0 0 0 0 0 0 0 0 0 0 0 0 0 0 0 0 0 0 105 105 105 0 0 0 0 0 0 0 0 0 0 0 0 0 0 0 105 63 63 0 0 0 0 0 0 0 0 0 63 63 105 0 0 0 0 0 0 0 0 0 0 0 0 105 63 63 105 105 172 0 0 0 63 63 105 0 0 0 0 0 0 0 0 0 0 0 0 0 0 0 105 63 63 0 0 0 0 0 0 0 0 0 0 0 0 0 0 0 105 105 105 0 0 0 63 63 105 0 0 0 0 0 0 63 63 105 0 0 0 0 0 0 0 0 0 63 63 105 0 0 0 63 63 105 105 63 63 105 63 63 63 63 105 0 0 0 0 0 0 0 0 0 0 0 0 0 0 0 0 0 0 0 0 0 0 0 0 0 0 0 0 0 0 0 0 0 0 0 0 105 105 105 105 63 63 105 63 63 0 0 0 0 0 0 143 119 119 0 0 0 0 0 0 105 63 63 0 0 0 0 0 0 105 63 63 0 0 0 63 63 105 63 63 105 63 63 105 105 63 63 0 0 0 0 0 0 0 0 0 0 0 0 63 63 105 0 0 0 0 0 0 0 0 0 0 0 0 0 0 0 63 63 105 63 63 105 0 0 0 0 0 0 0 0 0 0 0 0 0 0 0 0 0 0 63 63 105 0 0 0 0 0 0 0 0 0 0 0 0 0 0 0 0 0 0 63 63 105 0 0 0 0 0 0 0 0 0 0 0 0 0 0 0 63 39 63 105 63 63 0 0 0 105 63 63 0 0 0 0 0 0 0 0 0 0 0 0 0 0 0 0 0 0 0 0 0 0 0 0 0 0 0 0 0 0 105 63 63 0 0 0 105 105 105 105 63 63 0 0 0 105 63 63 0 0 0 0 0 0 0 0 0 0 0 0 143 87 87 0 0 0 0 0 0 105 63 63 105 63 63 0 0 0 0 0 0 0 0 0 0 0 0 0 0 0 105 63 63 0 0 0 63 63 105 0 0 0 0 0 0 0 0 0 0 0 0 0 0 0 0 0 0 0 0 0 0 0 0 63 63 105 0 0 0 105 63 63 0 0 0 0 0 0 0 0 0 63 63 105 63 63 105 0 0 0 0 0 0 0 0 0 0 0 0 87 72 119 0 0 0 0 0 0 0 0 0 0 0 0 0 0 0 0 0 0 0 0 0 0 0 0 0 0 0 0 0 0 105 63 63 0 0 0 105 63 63 0 0 0 0 0 0 0 0 0 0 0 0 0 0 0 63 63 105 0 0 0 119 87 119 0 0 0 0 0 0 105 63 63 0 0 0 0 0 0 63 63 105 63 39 63 63 63 105 0 0 0 0 0 0 0 0 0 105 63 63 0 0 0 0 0 0 0 0 0 105 63 63 0 0 0 0 0 0 0 0 0 0 0 0 105 63 63 0 0 0 0 0 0 0 0 0 0 0 0 0 0 0 0 0 0 0 0 0 0 0 0 0 0 0 0 0 0 63 63 105 63 63 105 0 0 0 63 63 105 0 0 0 0 0 0 0 0 0 63 63 105 0 0 0 0 0 0 0 0 0 0 0 0 0 0 0 0 0 0 0 0 0 63 63 105 0 0 0 0 0 0 0 0 0 105 63 63 0 0 0 0 0 0 0 0 0 0 0 0 0 0 0 0 0 0 0 0 0 143 119 119 0 0 0 0 0 0 0 0 0 0 0 0 0 0 0 0 0 0 0 0 0 0 0 0 105 63 63 0 0 0 0 0 0 0 0 0 0 0 0 0 0 0 0 0 0 0 0 0 0 0 0 0 0 0 0 0 0 0 0 0 0 0 0 0 0 0 63 63 105 105 63 63 0 0 0 0 0 0 63 63 105 0 0 0 0 0 0 0 0 0 0 0 0 0 0 0 0 0 0 0 0 0 0 0 0 0 0 0 0 0 0 0 0 0 63 63 105 0 0 0 63 63 105 0 0 0 0 0 0 0 0 0 0 0 0 0 0 0 0 0 0 0 0 0 0 0 0 0 0 0 63 63 105 63 63 105 0 0 0 0 0 0 0 0 0 0 0 0 63 39 63 0 0 0 105 63 63 105 63 63 0 0 0 0 0 0 0 0 0 0 0 0 105 63 63 63 39 63 0 0 0 63 63 105 0 0 0 0 0 0 0 0 0 0 0 0 0 0 0 0 0 0 63 39 63 0 0 0 0 0 0 0 0 0 0 0 0 0 0 0 0 0 0 0 0 0 0 0 0 63 39 63 0 0 0 0 0 0 0 0 0 0 0 0 0 0 0 0 0 0 0 0 0 0 0 0 0 0 0 105 63 63 0 0 0 105 63 63 0 0 0 63 63 105 0 0 0 119 87 119 0 0 0 0 0 0 63 63 105 0 0 0 63 39 63 0 0 0 0 0 0 0 0 0 63 63 105 63 39 63 63 39 63 0 0 0 0 0 0 0 0 0 0 0 0 0 0 0 0 0 0 0 0 0 105 63 63 0 0 0 63 63 105 0 0 0 0 0 0 0 0 0 0 0 0 0 0 0 0 0 0 63 63 105 0 0 0 105 63 63 0 0 0 105 63 63 0 0 0 0 0 0 105 63 63 0 0 0 105 63 63 0 0 0 0 0 0 0 0 0 0 0 0 0 0 0 0 0 0 0 0 0 0 0 0 0 0 0 0 0 0 0 0 0 0 0 0 0 0 0 0 0 0 0 0 0 0 0 0 0 0 0 0 0 0 0 0 0 0 0 0 0 0 0 0 0 0 0 0 0 0 0 0 0 0 0 0 0 0 0 0 0 0 0 0 0 0 0 0 0 0 0 0 0 0 0 0 0 0 0 0 0 0 0 0 0 0 0 0 0 0 0 0 0 0 63 63 105 0 0 0 0 0 0 0 0 0 0 0 0 0 0 0 0 0 0 0 0 0 0 0 0 63 63 105 105 63 63 0 0 0 0 0 0 0 0 0 0 0 0 0 0 0 0 0 0 0 0 0 0 0 0 0 0 0 0 0 0 0 0 0 105 63 63 0 0 0 63 63 105 0 0 0 105 63 63 0 0 0 0 0 0 0 0 0 105 63 63 0 0 0 0 0 0 105 63 63 0 0 0 0 0 0 0 0 0 0 0 0 0 0 0 63 63 105 0 0 0 0 0 0 0 0 0 0 0 0 63 63 105 0 0 0 63 63 105 0 0 0 0 0 0 0 0 0 119 87 119 63 63 105 0 0 0 0 0 0 0 0 0 0 0 0 0 0 0 0 0 0 0 0 0 63 63 105 0 0 0 0 0 0 0 0 0 0 0 0 0 0 0 0 0 0 0 0 0 105 105 105 0 0 0 0 0 0 63 63 105 0 0 0 105 63 63 63 63 105 105 63 63 0 0 0 0 0 0 0 0 0 0 0 0 105 63 63 105 63 63 0 0 0 105 63 63 105 105 105 0 0 0 0 0 0 105 63 63 0 0 0 0 0 0 0 0 0 0 0 0 0 0 0 0 0 0 0 0 0 0 0 0 0 0 0 0 0 0 0 0 0 0 0 0 0 0 0 63 63 105 0 0 0 0 0 0 0 0 0 0 0 0 0 0 0 0 0 0 0 0 0 0 0 0 0 0 0 0 0 0 0 0 0 0 0 0 0 0 0 0 0 0 0 0 0 63 63 105 0 0 0 0 0 0 63 63 105 0 0 0 0 0 0 0 0 0 0 0 0 0 0 0 0 0 0 0 0 0 0 0 0 0 0 0 0 0 0 63 63 105 0 0 0 0 0 0 63 63 105 0 0 0 0 0 0 0 0 0 0 0 0 0 0 0 0 0 0 0 0 0 0 0 0 0 0 0 0 0 0 0 0 0 0 0 0 0 0 0 0 0 0 0 0 0 105 63 63 0 0 0 0 0 0 0 0 0 0 0 0 0 0 0 0 0 0 0 0 0 0 0 0 0 0 0 0 0 0 0 0 0 0 0 0 0 0 0 63 39 63 0 0 0 0 0 0 0 0 0 0 0 0 0 0 0 0 0 0 0 0 0 0 0 0 0 0 0 0 0 0 63 63 105 0 0 0 0 0 0 0 0 0 0 0 0 63 63 105 0 0 0 0 0 0 0 0 0 63 63 105 0 0 0 0 0 0 0 0 0 0 0 0 0 0 0 0 0 0 0 0 0 105 63 63 0 0 0 63 63 105 0 0 0 105 63 63 0 0 0 105 105 105 63 63 105 